%TF.GenerationSoftware,KiCad,Pcbnew,(6.0.7)*%
%TF.CreationDate,2023-04-17T23:48:31-04:00*%
%TF.ProjectId,minirib-usb,6d696e69-7269-4622-9d75-73622e6b6963,E*%
%TF.SameCoordinates,Original*%
%TF.FileFunction,Legend,Top*%
%TF.FilePolarity,Positive*%
%FSLAX46Y46*%
G04 Gerber Fmt 4.6, Leading zero omitted, Abs format (unit mm)*
G04 Created by KiCad (PCBNEW (6.0.7)) date 2023-04-17 23:48:31*
%MOMM*%
%LPD*%
G01*
G04 APERTURE LIST*
%ADD10C,0.150000*%
%ADD11C,0.120000*%
G04 APERTURE END LIST*
D10*
%TO.C,R10*%
X133517857Y-104839285D02*
X133267857Y-104482142D01*
X133089285Y-104839285D02*
X133089285Y-104089285D01*
X133375000Y-104089285D01*
X133446428Y-104125000D01*
X133482142Y-104160714D01*
X133517857Y-104232142D01*
X133517857Y-104339285D01*
X133482142Y-104410714D01*
X133446428Y-104446428D01*
X133375000Y-104482142D01*
X133089285Y-104482142D01*
X134232142Y-104839285D02*
X133803571Y-104839285D01*
X134017857Y-104839285D02*
X134017857Y-104089285D01*
X133946428Y-104196428D01*
X133875000Y-104267857D01*
X133803571Y-104303571D01*
X134696428Y-104089285D02*
X134767857Y-104089285D01*
X134839285Y-104125000D01*
X134875000Y-104160714D01*
X134910714Y-104232142D01*
X134946428Y-104375000D01*
X134946428Y-104553571D01*
X134910714Y-104696428D01*
X134875000Y-104767857D01*
X134839285Y-104803571D01*
X134767857Y-104839285D01*
X134696428Y-104839285D01*
X134625000Y-104803571D01*
X134589285Y-104767857D01*
X134553571Y-104696428D01*
X134517857Y-104553571D01*
X134517857Y-104375000D01*
X134553571Y-104232142D01*
X134589285Y-104160714D01*
X134625000Y-104125000D01*
X134696428Y-104089285D01*
%TO.C,D3*%
X107946428Y-118339285D02*
X107946428Y-117589285D01*
X108125000Y-117589285D01*
X108232142Y-117625000D01*
X108303571Y-117696428D01*
X108339285Y-117767857D01*
X108375000Y-117910714D01*
X108375000Y-118017857D01*
X108339285Y-118160714D01*
X108303571Y-118232142D01*
X108232142Y-118303571D01*
X108125000Y-118339285D01*
X107946428Y-118339285D01*
X108625000Y-117589285D02*
X109089285Y-117589285D01*
X108839285Y-117875000D01*
X108946428Y-117875000D01*
X109017857Y-117910714D01*
X109053571Y-117946428D01*
X109089285Y-118017857D01*
X109089285Y-118196428D01*
X109053571Y-118267857D01*
X109017857Y-118303571D01*
X108946428Y-118339285D01*
X108732142Y-118339285D01*
X108660714Y-118303571D01*
X108625000Y-118267857D01*
%TO.C,R19*%
X135517857Y-110739285D02*
X135267857Y-110382142D01*
X135089285Y-110739285D02*
X135089285Y-109989285D01*
X135375000Y-109989285D01*
X135446428Y-110025000D01*
X135482142Y-110060714D01*
X135517857Y-110132142D01*
X135517857Y-110239285D01*
X135482142Y-110310714D01*
X135446428Y-110346428D01*
X135375000Y-110382142D01*
X135089285Y-110382142D01*
X136232142Y-110739285D02*
X135803571Y-110739285D01*
X136017857Y-110739285D02*
X136017857Y-109989285D01*
X135946428Y-110096428D01*
X135875000Y-110167857D01*
X135803571Y-110203571D01*
X136589285Y-110739285D02*
X136732142Y-110739285D01*
X136803571Y-110703571D01*
X136839285Y-110667857D01*
X136910714Y-110560714D01*
X136946428Y-110417857D01*
X136946428Y-110132142D01*
X136910714Y-110060714D01*
X136875000Y-110025000D01*
X136803571Y-109989285D01*
X136660714Y-109989285D01*
X136589285Y-110025000D01*
X136553571Y-110060714D01*
X136517857Y-110132142D01*
X136517857Y-110310714D01*
X136553571Y-110382142D01*
X136589285Y-110417857D01*
X136660714Y-110453571D01*
X136803571Y-110453571D01*
X136875000Y-110417857D01*
X136910714Y-110382142D01*
X136946428Y-110310714D01*
%TO.C,J1*%
X157802380Y-105333333D02*
X158516666Y-105333333D01*
X158659523Y-105380952D01*
X158754761Y-105476190D01*
X158802380Y-105619047D01*
X158802380Y-105714285D01*
X158802380Y-104333333D02*
X158802380Y-104904761D01*
X158802380Y-104619047D02*
X157802380Y-104619047D01*
X157945238Y-104714285D01*
X158040476Y-104809523D01*
X158088095Y-104904761D01*
%TO.C,R3*%
X130875000Y-110739285D02*
X130625000Y-110382142D01*
X130446428Y-110739285D02*
X130446428Y-109989285D01*
X130732142Y-109989285D01*
X130803571Y-110025000D01*
X130839285Y-110060714D01*
X130875000Y-110132142D01*
X130875000Y-110239285D01*
X130839285Y-110310714D01*
X130803571Y-110346428D01*
X130732142Y-110382142D01*
X130446428Y-110382142D01*
X131125000Y-109989285D02*
X131589285Y-109989285D01*
X131339285Y-110275000D01*
X131446428Y-110275000D01*
X131517857Y-110310714D01*
X131553571Y-110346428D01*
X131589285Y-110417857D01*
X131589285Y-110596428D01*
X131553571Y-110667857D01*
X131517857Y-110703571D01*
X131446428Y-110739285D01*
X131232142Y-110739285D01*
X131160714Y-110703571D01*
X131125000Y-110667857D01*
%TO.C,J4*%
X122122380Y-117833333D02*
X122836666Y-117833333D01*
X122979523Y-117880952D01*
X123074761Y-117976190D01*
X123122380Y-118119047D01*
X123122380Y-118214285D01*
X122455714Y-116928571D02*
X123122380Y-116928571D01*
X122074761Y-117166666D02*
X122789047Y-117404761D01*
X122789047Y-116785714D01*
%TO.C,R1*%
X153834285Y-106380000D02*
X153477142Y-106630000D01*
X153834285Y-106808571D02*
X153084285Y-106808571D01*
X153084285Y-106522857D01*
X153120000Y-106451428D01*
X153155714Y-106415714D01*
X153227142Y-106380000D01*
X153334285Y-106380000D01*
X153405714Y-106415714D01*
X153441428Y-106451428D01*
X153477142Y-106522857D01*
X153477142Y-106808571D01*
X153834285Y-105665714D02*
X153834285Y-106094285D01*
X153834285Y-105880000D02*
X153084285Y-105880000D01*
X153191428Y-105951428D01*
X153262857Y-106022857D01*
X153298571Y-106094285D01*
%TO.C,R14*%
X119839285Y-92732142D02*
X119482142Y-92982142D01*
X119839285Y-93160714D02*
X119089285Y-93160714D01*
X119089285Y-92875000D01*
X119125000Y-92803571D01*
X119160714Y-92767857D01*
X119232142Y-92732142D01*
X119339285Y-92732142D01*
X119410714Y-92767857D01*
X119446428Y-92803571D01*
X119482142Y-92875000D01*
X119482142Y-93160714D01*
X119839285Y-92017857D02*
X119839285Y-92446428D01*
X119839285Y-92232142D02*
X119089285Y-92232142D01*
X119196428Y-92303571D01*
X119267857Y-92375000D01*
X119303571Y-92446428D01*
X119339285Y-91375000D02*
X119839285Y-91375000D01*
X119053571Y-91553571D02*
X119589285Y-91732142D01*
X119589285Y-91267857D01*
%TO.C,D7*%
X141946428Y-97839285D02*
X141946428Y-97089285D01*
X142125000Y-97089285D01*
X142232142Y-97125000D01*
X142303571Y-97196428D01*
X142339285Y-97267857D01*
X142375000Y-97410714D01*
X142375000Y-97517857D01*
X142339285Y-97660714D01*
X142303571Y-97732142D01*
X142232142Y-97803571D01*
X142125000Y-97839285D01*
X141946428Y-97839285D01*
X142625000Y-97089285D02*
X143125000Y-97089285D01*
X142803571Y-97839285D01*
%TO.C,U2*%
X116089285Y-101571428D02*
X116696428Y-101571428D01*
X116767857Y-101535714D01*
X116803571Y-101500000D01*
X116839285Y-101428571D01*
X116839285Y-101285714D01*
X116803571Y-101214285D01*
X116767857Y-101178571D01*
X116696428Y-101142857D01*
X116089285Y-101142857D01*
X116160714Y-100821428D02*
X116125000Y-100785714D01*
X116089285Y-100714285D01*
X116089285Y-100535714D01*
X116125000Y-100464285D01*
X116160714Y-100428571D01*
X116232142Y-100392857D01*
X116303571Y-100392857D01*
X116410714Y-100428571D01*
X116839285Y-100857142D01*
X116839285Y-100392857D01*
%TO.C,R13*%
X113267857Y-96089285D02*
X113017857Y-95732142D01*
X112839285Y-96089285D02*
X112839285Y-95339285D01*
X113125000Y-95339285D01*
X113196428Y-95375000D01*
X113232142Y-95410714D01*
X113267857Y-95482142D01*
X113267857Y-95589285D01*
X113232142Y-95660714D01*
X113196428Y-95696428D01*
X113125000Y-95732142D01*
X112839285Y-95732142D01*
X113982142Y-96089285D02*
X113553571Y-96089285D01*
X113767857Y-96089285D02*
X113767857Y-95339285D01*
X113696428Y-95446428D01*
X113625000Y-95517857D01*
X113553571Y-95553571D01*
X114232142Y-95339285D02*
X114696428Y-95339285D01*
X114446428Y-95625000D01*
X114553571Y-95625000D01*
X114625000Y-95660714D01*
X114660714Y-95696428D01*
X114696428Y-95767857D01*
X114696428Y-95946428D01*
X114660714Y-96017857D01*
X114625000Y-96053571D01*
X114553571Y-96089285D01*
X114339285Y-96089285D01*
X114267857Y-96053571D01*
X114232142Y-96017857D01*
%TO.C,Q2*%
X123660714Y-110071428D02*
X123625000Y-110142857D01*
X123553571Y-110214285D01*
X123446428Y-110321428D01*
X123410714Y-110392857D01*
X123410714Y-110464285D01*
X123589285Y-110428571D02*
X123553571Y-110500000D01*
X123482142Y-110571428D01*
X123339285Y-110607142D01*
X123089285Y-110607142D01*
X122946428Y-110571428D01*
X122875000Y-110500000D01*
X122839285Y-110428571D01*
X122839285Y-110285714D01*
X122875000Y-110214285D01*
X122946428Y-110142857D01*
X123089285Y-110107142D01*
X123339285Y-110107142D01*
X123482142Y-110142857D01*
X123553571Y-110214285D01*
X123589285Y-110285714D01*
X123589285Y-110428571D01*
X122910714Y-109821428D02*
X122875000Y-109785714D01*
X122839285Y-109714285D01*
X122839285Y-109535714D01*
X122875000Y-109464285D01*
X122910714Y-109428571D01*
X122982142Y-109392857D01*
X123053571Y-109392857D01*
X123160714Y-109428571D01*
X123589285Y-109857142D01*
X123589285Y-109392857D01*
%TO.C,D4*%
X110696428Y-118339285D02*
X110696428Y-117589285D01*
X110875000Y-117589285D01*
X110982142Y-117625000D01*
X111053571Y-117696428D01*
X111089285Y-117767857D01*
X111125000Y-117910714D01*
X111125000Y-118017857D01*
X111089285Y-118160714D01*
X111053571Y-118232142D01*
X110982142Y-118303571D01*
X110875000Y-118339285D01*
X110696428Y-118339285D01*
X111767857Y-117839285D02*
X111767857Y-118339285D01*
X111589285Y-117553571D02*
X111410714Y-118089285D01*
X111875000Y-118089285D01*
%TO.C,C2*%
X148017857Y-111375000D02*
X148053571Y-111410714D01*
X148089285Y-111517857D01*
X148089285Y-111589285D01*
X148053571Y-111696428D01*
X147982142Y-111767857D01*
X147910714Y-111803571D01*
X147767857Y-111839285D01*
X147660714Y-111839285D01*
X147517857Y-111803571D01*
X147446428Y-111767857D01*
X147375000Y-111696428D01*
X147339285Y-111589285D01*
X147339285Y-111517857D01*
X147375000Y-111410714D01*
X147410714Y-111375000D01*
X147410714Y-111089285D02*
X147375000Y-111053571D01*
X147339285Y-110982142D01*
X147339285Y-110803571D01*
X147375000Y-110732142D01*
X147410714Y-110696428D01*
X147482142Y-110660714D01*
X147553571Y-110660714D01*
X147660714Y-110696428D01*
X148089285Y-111125000D01*
X148089285Y-110660714D01*
%TO.C,R15*%
X121517857Y-104839285D02*
X121267857Y-104482142D01*
X121089285Y-104839285D02*
X121089285Y-104089285D01*
X121375000Y-104089285D01*
X121446428Y-104125000D01*
X121482142Y-104160714D01*
X121517857Y-104232142D01*
X121517857Y-104339285D01*
X121482142Y-104410714D01*
X121446428Y-104446428D01*
X121375000Y-104482142D01*
X121089285Y-104482142D01*
X122232142Y-104839285D02*
X121803571Y-104839285D01*
X122017857Y-104839285D02*
X122017857Y-104089285D01*
X121946428Y-104196428D01*
X121875000Y-104267857D01*
X121803571Y-104303571D01*
X122910714Y-104089285D02*
X122553571Y-104089285D01*
X122517857Y-104446428D01*
X122553571Y-104410714D01*
X122625000Y-104375000D01*
X122803571Y-104375000D01*
X122875000Y-104410714D01*
X122910714Y-104446428D01*
X122946428Y-104517857D01*
X122946428Y-104696428D01*
X122910714Y-104767857D01*
X122875000Y-104803571D01*
X122803571Y-104839285D01*
X122625000Y-104839285D01*
X122553571Y-104803571D01*
X122517857Y-104767857D01*
%TO.C,R7*%
X115839285Y-105125000D02*
X115482142Y-105375000D01*
X115839285Y-105553571D02*
X115089285Y-105553571D01*
X115089285Y-105267857D01*
X115125000Y-105196428D01*
X115160714Y-105160714D01*
X115232142Y-105125000D01*
X115339285Y-105125000D01*
X115410714Y-105160714D01*
X115446428Y-105196428D01*
X115482142Y-105267857D01*
X115482142Y-105553571D01*
X115089285Y-104875000D02*
X115089285Y-104375000D01*
X115839285Y-104696428D01*
%TO.C,R6*%
X115839285Y-102625000D02*
X115482142Y-102875000D01*
X115839285Y-103053571D02*
X115089285Y-103053571D01*
X115089285Y-102767857D01*
X115125000Y-102696428D01*
X115160714Y-102660714D01*
X115232142Y-102625000D01*
X115339285Y-102625000D01*
X115410714Y-102660714D01*
X115446428Y-102696428D01*
X115482142Y-102767857D01*
X115482142Y-103053571D01*
X115089285Y-101982142D02*
X115089285Y-102125000D01*
X115125000Y-102196428D01*
X115160714Y-102232142D01*
X115267857Y-102303571D01*
X115410714Y-102339285D01*
X115696428Y-102339285D01*
X115767857Y-102303571D01*
X115803571Y-102267857D01*
X115839285Y-102196428D01*
X115839285Y-102053571D01*
X115803571Y-101982142D01*
X115767857Y-101946428D01*
X115696428Y-101910714D01*
X115517857Y-101910714D01*
X115446428Y-101946428D01*
X115410714Y-101982142D01*
X115375000Y-102053571D01*
X115375000Y-102196428D01*
X115410714Y-102267857D01*
X115446428Y-102303571D01*
X115517857Y-102339285D01*
%TO.C,R5*%
X120339285Y-112375000D02*
X119982142Y-112625000D01*
X120339285Y-112803571D02*
X119589285Y-112803571D01*
X119589285Y-112517857D01*
X119625000Y-112446428D01*
X119660714Y-112410714D01*
X119732142Y-112375000D01*
X119839285Y-112375000D01*
X119910714Y-112410714D01*
X119946428Y-112446428D01*
X119982142Y-112517857D01*
X119982142Y-112803571D01*
X119589285Y-111696428D02*
X119589285Y-112053571D01*
X119946428Y-112089285D01*
X119910714Y-112053571D01*
X119875000Y-111982142D01*
X119875000Y-111803571D01*
X119910714Y-111732142D01*
X119946428Y-111696428D01*
X120017857Y-111660714D01*
X120196428Y-111660714D01*
X120267857Y-111696428D01*
X120303571Y-111732142D01*
X120339285Y-111803571D01*
X120339285Y-111982142D01*
X120303571Y-112053571D01*
X120267857Y-112089285D01*
%TO.C,D6*%
X119839285Y-95303571D02*
X119089285Y-95303571D01*
X119089285Y-95125000D01*
X119125000Y-95017857D01*
X119196428Y-94946428D01*
X119267857Y-94910714D01*
X119410714Y-94875000D01*
X119517857Y-94875000D01*
X119660714Y-94910714D01*
X119732142Y-94946428D01*
X119803571Y-95017857D01*
X119839285Y-95125000D01*
X119839285Y-95303571D01*
X119089285Y-94232142D02*
X119089285Y-94375000D01*
X119125000Y-94446428D01*
X119160714Y-94482142D01*
X119267857Y-94553571D01*
X119410714Y-94589285D01*
X119696428Y-94589285D01*
X119767857Y-94553571D01*
X119803571Y-94517857D01*
X119839285Y-94446428D01*
X119839285Y-94303571D01*
X119803571Y-94232142D01*
X119767857Y-94196428D01*
X119696428Y-94160714D01*
X119517857Y-94160714D01*
X119446428Y-94196428D01*
X119410714Y-94232142D01*
X119375000Y-94303571D01*
X119375000Y-94446428D01*
X119410714Y-94517857D01*
X119446428Y-94553571D01*
X119517857Y-94589285D01*
%TO.C,R12*%
X148267857Y-97839285D02*
X148017857Y-97482142D01*
X147839285Y-97839285D02*
X147839285Y-97089285D01*
X148125000Y-97089285D01*
X148196428Y-97125000D01*
X148232142Y-97160714D01*
X148267857Y-97232142D01*
X148267857Y-97339285D01*
X148232142Y-97410714D01*
X148196428Y-97446428D01*
X148125000Y-97482142D01*
X147839285Y-97482142D01*
X148982142Y-97839285D02*
X148553571Y-97839285D01*
X148767857Y-97839285D02*
X148767857Y-97089285D01*
X148696428Y-97196428D01*
X148625000Y-97267857D01*
X148553571Y-97303571D01*
X149267857Y-97160714D02*
X149303571Y-97125000D01*
X149375000Y-97089285D01*
X149553571Y-97089285D01*
X149625000Y-97125000D01*
X149660714Y-97160714D01*
X149696428Y-97232142D01*
X149696428Y-97303571D01*
X149660714Y-97410714D01*
X149232142Y-97839285D01*
X149696428Y-97839285D01*
%TO.C,R16*%
X127517857Y-104839285D02*
X127267857Y-104482142D01*
X127089285Y-104839285D02*
X127089285Y-104089285D01*
X127375000Y-104089285D01*
X127446428Y-104125000D01*
X127482142Y-104160714D01*
X127517857Y-104232142D01*
X127517857Y-104339285D01*
X127482142Y-104410714D01*
X127446428Y-104446428D01*
X127375000Y-104482142D01*
X127089285Y-104482142D01*
X128232142Y-104839285D02*
X127803571Y-104839285D01*
X128017857Y-104839285D02*
X128017857Y-104089285D01*
X127946428Y-104196428D01*
X127875000Y-104267857D01*
X127803571Y-104303571D01*
X128875000Y-104089285D02*
X128732142Y-104089285D01*
X128660714Y-104125000D01*
X128625000Y-104160714D01*
X128553571Y-104267857D01*
X128517857Y-104410714D01*
X128517857Y-104696428D01*
X128553571Y-104767857D01*
X128589285Y-104803571D01*
X128660714Y-104839285D01*
X128803571Y-104839285D01*
X128875000Y-104803571D01*
X128910714Y-104767857D01*
X128946428Y-104696428D01*
X128946428Y-104517857D01*
X128910714Y-104446428D01*
X128875000Y-104410714D01*
X128803571Y-104375000D01*
X128660714Y-104375000D01*
X128589285Y-104410714D01*
X128553571Y-104446428D01*
X128517857Y-104517857D01*
%TO.C,C3*%
X115767857Y-107625000D02*
X115803571Y-107660714D01*
X115839285Y-107767857D01*
X115839285Y-107839285D01*
X115803571Y-107946428D01*
X115732142Y-108017857D01*
X115660714Y-108053571D01*
X115517857Y-108089285D01*
X115410714Y-108089285D01*
X115267857Y-108053571D01*
X115196428Y-108017857D01*
X115125000Y-107946428D01*
X115089285Y-107839285D01*
X115089285Y-107767857D01*
X115125000Y-107660714D01*
X115160714Y-107625000D01*
X115089285Y-107375000D02*
X115089285Y-106910714D01*
X115375000Y-107160714D01*
X115375000Y-107053571D01*
X115410714Y-106982142D01*
X115446428Y-106946428D01*
X115517857Y-106910714D01*
X115696428Y-106910714D01*
X115767857Y-106946428D01*
X115803571Y-106982142D01*
X115839285Y-107053571D01*
X115839285Y-107267857D01*
X115803571Y-107339285D01*
X115767857Y-107375000D01*
%TO.C,R2*%
X153834285Y-108630000D02*
X153477142Y-108880000D01*
X153834285Y-109058571D02*
X153084285Y-109058571D01*
X153084285Y-108772857D01*
X153120000Y-108701428D01*
X153155714Y-108665714D01*
X153227142Y-108630000D01*
X153334285Y-108630000D01*
X153405714Y-108665714D01*
X153441428Y-108701428D01*
X153477142Y-108772857D01*
X153477142Y-109058571D01*
X153155714Y-108344285D02*
X153120000Y-108308571D01*
X153084285Y-108237142D01*
X153084285Y-108058571D01*
X153120000Y-107987142D01*
X153155714Y-107951428D01*
X153227142Y-107915714D01*
X153298571Y-107915714D01*
X153405714Y-107951428D01*
X153834285Y-108380000D01*
X153834285Y-107915714D01*
%TO.C,R20*%
X138017857Y-110739285D02*
X137767857Y-110382142D01*
X137589285Y-110739285D02*
X137589285Y-109989285D01*
X137875000Y-109989285D01*
X137946428Y-110025000D01*
X137982142Y-110060714D01*
X138017857Y-110132142D01*
X138017857Y-110239285D01*
X137982142Y-110310714D01*
X137946428Y-110346428D01*
X137875000Y-110382142D01*
X137589285Y-110382142D01*
X138303571Y-110060714D02*
X138339285Y-110025000D01*
X138410714Y-109989285D01*
X138589285Y-109989285D01*
X138660714Y-110025000D01*
X138696428Y-110060714D01*
X138732142Y-110132142D01*
X138732142Y-110203571D01*
X138696428Y-110310714D01*
X138267857Y-110739285D01*
X138732142Y-110739285D01*
X139196428Y-109989285D02*
X139267857Y-109989285D01*
X139339285Y-110025000D01*
X139375000Y-110060714D01*
X139410714Y-110132142D01*
X139446428Y-110275000D01*
X139446428Y-110453571D01*
X139410714Y-110596428D01*
X139375000Y-110667857D01*
X139339285Y-110703571D01*
X139267857Y-110739285D01*
X139196428Y-110739285D01*
X139125000Y-110703571D01*
X139089285Y-110667857D01*
X139053571Y-110596428D01*
X139017857Y-110453571D01*
X139017857Y-110275000D01*
X139053571Y-110132142D01*
X139089285Y-110060714D01*
X139125000Y-110025000D01*
X139196428Y-109989285D01*
%TO.C,R11*%
X133017857Y-110739285D02*
X132767857Y-110382142D01*
X132589285Y-110739285D02*
X132589285Y-109989285D01*
X132875000Y-109989285D01*
X132946428Y-110025000D01*
X132982142Y-110060714D01*
X133017857Y-110132142D01*
X133017857Y-110239285D01*
X132982142Y-110310714D01*
X132946428Y-110346428D01*
X132875000Y-110382142D01*
X132589285Y-110382142D01*
X133732142Y-110739285D02*
X133303571Y-110739285D01*
X133517857Y-110739285D02*
X133517857Y-109989285D01*
X133446428Y-110096428D01*
X133375000Y-110167857D01*
X133303571Y-110203571D01*
X134446428Y-110739285D02*
X134017857Y-110739285D01*
X134232142Y-110739285D02*
X134232142Y-109989285D01*
X134160714Y-110096428D01*
X134089285Y-110167857D01*
X134017857Y-110203571D01*
%TO.C,R18*%
X144517857Y-117839285D02*
X144267857Y-117482142D01*
X144089285Y-117839285D02*
X144089285Y-117089285D01*
X144375000Y-117089285D01*
X144446428Y-117125000D01*
X144482142Y-117160714D01*
X144517857Y-117232142D01*
X144517857Y-117339285D01*
X144482142Y-117410714D01*
X144446428Y-117446428D01*
X144375000Y-117482142D01*
X144089285Y-117482142D01*
X145232142Y-117839285D02*
X144803571Y-117839285D01*
X145017857Y-117839285D02*
X145017857Y-117089285D01*
X144946428Y-117196428D01*
X144875000Y-117267857D01*
X144803571Y-117303571D01*
X145660714Y-117410714D02*
X145589285Y-117375000D01*
X145553571Y-117339285D01*
X145517857Y-117267857D01*
X145517857Y-117232142D01*
X145553571Y-117160714D01*
X145589285Y-117125000D01*
X145660714Y-117089285D01*
X145803571Y-117089285D01*
X145875000Y-117125000D01*
X145910714Y-117160714D01*
X145946428Y-117232142D01*
X145946428Y-117267857D01*
X145910714Y-117339285D01*
X145875000Y-117375000D01*
X145803571Y-117410714D01*
X145660714Y-117410714D01*
X145589285Y-117446428D01*
X145553571Y-117482142D01*
X145517857Y-117553571D01*
X145517857Y-117696428D01*
X145553571Y-117767857D01*
X145589285Y-117803571D01*
X145660714Y-117839285D01*
X145803571Y-117839285D01*
X145875000Y-117803571D01*
X145910714Y-117767857D01*
X145946428Y-117696428D01*
X145946428Y-117553571D01*
X145910714Y-117482142D01*
X145875000Y-117446428D01*
X145803571Y-117410714D01*
%TO.C,Q3*%
X119910714Y-110071428D02*
X119875000Y-110142857D01*
X119803571Y-110214285D01*
X119696428Y-110321428D01*
X119660714Y-110392857D01*
X119660714Y-110464285D01*
X119839285Y-110428571D02*
X119803571Y-110500000D01*
X119732142Y-110571428D01*
X119589285Y-110607142D01*
X119339285Y-110607142D01*
X119196428Y-110571428D01*
X119125000Y-110500000D01*
X119089285Y-110428571D01*
X119089285Y-110285714D01*
X119125000Y-110214285D01*
X119196428Y-110142857D01*
X119339285Y-110107142D01*
X119589285Y-110107142D01*
X119732142Y-110142857D01*
X119803571Y-110214285D01*
X119839285Y-110285714D01*
X119839285Y-110428571D01*
X119089285Y-109857142D02*
X119089285Y-109392857D01*
X119375000Y-109642857D01*
X119375000Y-109535714D01*
X119410714Y-109464285D01*
X119446428Y-109428571D01*
X119517857Y-109392857D01*
X119696428Y-109392857D01*
X119767857Y-109428571D01*
X119803571Y-109464285D01*
X119839285Y-109535714D01*
X119839285Y-109750000D01*
X119803571Y-109821428D01*
X119767857Y-109857142D01*
%TO.C,C1*%
X153762857Y-104130000D02*
X153798571Y-104165714D01*
X153834285Y-104272857D01*
X153834285Y-104344285D01*
X153798571Y-104451428D01*
X153727142Y-104522857D01*
X153655714Y-104558571D01*
X153512857Y-104594285D01*
X153405714Y-104594285D01*
X153262857Y-104558571D01*
X153191428Y-104522857D01*
X153120000Y-104451428D01*
X153084285Y-104344285D01*
X153084285Y-104272857D01*
X153120000Y-104165714D01*
X153155714Y-104130000D01*
X153834285Y-103415714D02*
X153834285Y-103844285D01*
X153834285Y-103630000D02*
X153084285Y-103630000D01*
X153191428Y-103701428D01*
X153262857Y-103772857D01*
X153298571Y-103844285D01*
%TO.C,J3*%
X121591666Y-91952380D02*
X121591666Y-92666666D01*
X121544047Y-92809523D01*
X121448809Y-92904761D01*
X121305952Y-92952380D01*
X121210714Y-92952380D01*
X121972619Y-91952380D02*
X122591666Y-91952380D01*
X122258333Y-92333333D01*
X122401190Y-92333333D01*
X122496428Y-92380952D01*
X122544047Y-92428571D01*
X122591666Y-92523809D01*
X122591666Y-92761904D01*
X122544047Y-92857142D01*
X122496428Y-92904761D01*
X122401190Y-92952380D01*
X122115476Y-92952380D01*
X122020238Y-92904761D01*
X121972619Y-92857142D01*
%TO.C,Q1*%
X129410714Y-110071428D02*
X129375000Y-110142857D01*
X129303571Y-110214285D01*
X129196428Y-110321428D01*
X129160714Y-110392857D01*
X129160714Y-110464285D01*
X129339285Y-110428571D02*
X129303571Y-110500000D01*
X129232142Y-110571428D01*
X129089285Y-110607142D01*
X128839285Y-110607142D01*
X128696428Y-110571428D01*
X128625000Y-110500000D01*
X128589285Y-110428571D01*
X128589285Y-110285714D01*
X128625000Y-110214285D01*
X128696428Y-110142857D01*
X128839285Y-110107142D01*
X129089285Y-110107142D01*
X129232142Y-110142857D01*
X129303571Y-110214285D01*
X129339285Y-110285714D01*
X129339285Y-110428571D01*
X129339285Y-109392857D02*
X129339285Y-109821428D01*
X129339285Y-109607142D02*
X128589285Y-109607142D01*
X128696428Y-109678571D01*
X128767857Y-109750000D01*
X128803571Y-109821428D01*
%TO.C,R17*%
X144517857Y-97839285D02*
X144267857Y-97482142D01*
X144089285Y-97839285D02*
X144089285Y-97089285D01*
X144375000Y-97089285D01*
X144446428Y-97125000D01*
X144482142Y-97160714D01*
X144517857Y-97232142D01*
X144517857Y-97339285D01*
X144482142Y-97410714D01*
X144446428Y-97446428D01*
X144375000Y-97482142D01*
X144089285Y-97482142D01*
X145232142Y-97839285D02*
X144803571Y-97839285D01*
X145017857Y-97839285D02*
X145017857Y-97089285D01*
X144946428Y-97196428D01*
X144875000Y-97267857D01*
X144803571Y-97303571D01*
X145482142Y-97089285D02*
X145982142Y-97089285D01*
X145660714Y-97839285D01*
%TO.C,D2*%
X107696428Y-97339285D02*
X107696428Y-96589285D01*
X107875000Y-96589285D01*
X107982142Y-96625000D01*
X108053571Y-96696428D01*
X108089285Y-96767857D01*
X108125000Y-96910714D01*
X108125000Y-97017857D01*
X108089285Y-97160714D01*
X108053571Y-97232142D01*
X107982142Y-97303571D01*
X107875000Y-97339285D01*
X107696428Y-97339285D01*
X108410714Y-96660714D02*
X108446428Y-96625000D01*
X108517857Y-96589285D01*
X108696428Y-96589285D01*
X108767857Y-96625000D01*
X108803571Y-96660714D01*
X108839285Y-96732142D01*
X108839285Y-96803571D01*
X108803571Y-96910714D01*
X108375000Y-97339285D01*
X108839285Y-97339285D01*
%TO.C,Q6*%
X117928571Y-99910714D02*
X117857142Y-99875000D01*
X117785714Y-99803571D01*
X117678571Y-99696428D01*
X117607142Y-99660714D01*
X117535714Y-99660714D01*
X117571428Y-99839285D02*
X117500000Y-99803571D01*
X117428571Y-99732142D01*
X117392857Y-99589285D01*
X117392857Y-99339285D01*
X117428571Y-99196428D01*
X117500000Y-99125000D01*
X117571428Y-99089285D01*
X117714285Y-99089285D01*
X117785714Y-99125000D01*
X117857142Y-99196428D01*
X117892857Y-99339285D01*
X117892857Y-99589285D01*
X117857142Y-99732142D01*
X117785714Y-99803571D01*
X117714285Y-99839285D01*
X117571428Y-99839285D01*
X118535714Y-99089285D02*
X118392857Y-99089285D01*
X118321428Y-99125000D01*
X118285714Y-99160714D01*
X118214285Y-99267857D01*
X118178571Y-99410714D01*
X118178571Y-99696428D01*
X118214285Y-99767857D01*
X118250000Y-99803571D01*
X118321428Y-99839285D01*
X118464285Y-99839285D01*
X118535714Y-99803571D01*
X118571428Y-99767857D01*
X118607142Y-99696428D01*
X118607142Y-99517857D01*
X118571428Y-99446428D01*
X118535714Y-99410714D01*
X118464285Y-99375000D01*
X118321428Y-99375000D01*
X118250000Y-99410714D01*
X118214285Y-99446428D01*
X118178571Y-99517857D01*
%TO.C,Q4*%
X138660714Y-104321428D02*
X138625000Y-104392857D01*
X138553571Y-104464285D01*
X138446428Y-104571428D01*
X138410714Y-104642857D01*
X138410714Y-104714285D01*
X138589285Y-104678571D02*
X138553571Y-104750000D01*
X138482142Y-104821428D01*
X138339285Y-104857142D01*
X138089285Y-104857142D01*
X137946428Y-104821428D01*
X137875000Y-104750000D01*
X137839285Y-104678571D01*
X137839285Y-104535714D01*
X137875000Y-104464285D01*
X137946428Y-104392857D01*
X138089285Y-104357142D01*
X138339285Y-104357142D01*
X138482142Y-104392857D01*
X138553571Y-104464285D01*
X138589285Y-104535714D01*
X138589285Y-104678571D01*
X138089285Y-103714285D02*
X138589285Y-103714285D01*
X137803571Y-103892857D02*
X138339285Y-104071428D01*
X138339285Y-103607142D01*
%TO.C,Q5*%
X132525714Y-104321428D02*
X132490000Y-104392857D01*
X132418571Y-104464285D01*
X132311428Y-104571428D01*
X132275714Y-104642857D01*
X132275714Y-104714285D01*
X132454285Y-104678571D02*
X132418571Y-104750000D01*
X132347142Y-104821428D01*
X132204285Y-104857142D01*
X131954285Y-104857142D01*
X131811428Y-104821428D01*
X131740000Y-104750000D01*
X131704285Y-104678571D01*
X131704285Y-104535714D01*
X131740000Y-104464285D01*
X131811428Y-104392857D01*
X131954285Y-104357142D01*
X132204285Y-104357142D01*
X132347142Y-104392857D01*
X132418571Y-104464285D01*
X132454285Y-104535714D01*
X132454285Y-104678571D01*
X131704285Y-103678571D02*
X131704285Y-104035714D01*
X132061428Y-104071428D01*
X132025714Y-104035714D01*
X131990000Y-103964285D01*
X131990000Y-103785714D01*
X132025714Y-103714285D01*
X132061428Y-103678571D01*
X132132857Y-103642857D01*
X132311428Y-103642857D01*
X132382857Y-103678571D01*
X132418571Y-103714285D01*
X132454285Y-103785714D01*
X132454285Y-103964285D01*
X132418571Y-104035714D01*
X132382857Y-104071428D01*
%TO.C,D1*%
X110446428Y-97339285D02*
X110446428Y-96589285D01*
X110625000Y-96589285D01*
X110732142Y-96625000D01*
X110803571Y-96696428D01*
X110839285Y-96767857D01*
X110875000Y-96910714D01*
X110875000Y-97017857D01*
X110839285Y-97160714D01*
X110803571Y-97232142D01*
X110732142Y-97303571D01*
X110625000Y-97339285D01*
X110446428Y-97339285D01*
X111589285Y-97339285D02*
X111160714Y-97339285D01*
X111375000Y-97339285D02*
X111375000Y-96589285D01*
X111303571Y-96696428D01*
X111232142Y-96767857D01*
X111160714Y-96803571D01*
%TO.C,C4*%
X153762857Y-101880000D02*
X153798571Y-101915714D01*
X153834285Y-102022857D01*
X153834285Y-102094285D01*
X153798571Y-102201428D01*
X153727142Y-102272857D01*
X153655714Y-102308571D01*
X153512857Y-102344285D01*
X153405714Y-102344285D01*
X153262857Y-102308571D01*
X153191428Y-102272857D01*
X153120000Y-102201428D01*
X153084285Y-102094285D01*
X153084285Y-102022857D01*
X153120000Y-101915714D01*
X153155714Y-101880000D01*
X153334285Y-101237142D02*
X153834285Y-101237142D01*
X153048571Y-101415714D02*
X153584285Y-101594285D01*
X153584285Y-101130000D01*
%TO.C,D5*%
X150696428Y-97839285D02*
X150696428Y-97089285D01*
X150875000Y-97089285D01*
X150982142Y-97125000D01*
X151053571Y-97196428D01*
X151089285Y-97267857D01*
X151125000Y-97410714D01*
X151125000Y-97517857D01*
X151089285Y-97660714D01*
X151053571Y-97732142D01*
X150982142Y-97803571D01*
X150875000Y-97839285D01*
X150696428Y-97839285D01*
X151803571Y-97089285D02*
X151446428Y-97089285D01*
X151410714Y-97446428D01*
X151446428Y-97410714D01*
X151517857Y-97375000D01*
X151696428Y-97375000D01*
X151767857Y-97410714D01*
X151803571Y-97446428D01*
X151839285Y-97517857D01*
X151839285Y-97696428D01*
X151803571Y-97767857D01*
X151767857Y-97803571D01*
X151696428Y-97839285D01*
X151517857Y-97839285D01*
X151446428Y-97803571D01*
X151410714Y-97767857D01*
%TO.C,Q7*%
X126410714Y-104571428D02*
X126375000Y-104642857D01*
X126303571Y-104714285D01*
X126196428Y-104821428D01*
X126160714Y-104892857D01*
X126160714Y-104964285D01*
X126339285Y-104928571D02*
X126303571Y-105000000D01*
X126232142Y-105071428D01*
X126089285Y-105107142D01*
X125839285Y-105107142D01*
X125696428Y-105071428D01*
X125625000Y-105000000D01*
X125589285Y-104928571D01*
X125589285Y-104785714D01*
X125625000Y-104714285D01*
X125696428Y-104642857D01*
X125839285Y-104607142D01*
X126089285Y-104607142D01*
X126232142Y-104642857D01*
X126303571Y-104714285D01*
X126339285Y-104785714D01*
X126339285Y-104928571D01*
X125589285Y-104357142D02*
X125589285Y-103857142D01*
X126339285Y-104178571D01*
%TO.C,R9*%
X139875000Y-99589285D02*
X139625000Y-99232142D01*
X139446428Y-99589285D02*
X139446428Y-98839285D01*
X139732142Y-98839285D01*
X139803571Y-98875000D01*
X139839285Y-98910714D01*
X139875000Y-98982142D01*
X139875000Y-99089285D01*
X139839285Y-99160714D01*
X139803571Y-99196428D01*
X139732142Y-99232142D01*
X139446428Y-99232142D01*
X140232142Y-99589285D02*
X140375000Y-99589285D01*
X140446428Y-99553571D01*
X140482142Y-99517857D01*
X140553571Y-99410714D01*
X140589285Y-99267857D01*
X140589285Y-98982142D01*
X140553571Y-98910714D01*
X140517857Y-98875000D01*
X140446428Y-98839285D01*
X140303571Y-98839285D01*
X140232142Y-98875000D01*
X140196428Y-98910714D01*
X140160714Y-98982142D01*
X140160714Y-99160714D01*
X140196428Y-99232142D01*
X140232142Y-99267857D01*
X140303571Y-99303571D01*
X140446428Y-99303571D01*
X140517857Y-99267857D01*
X140553571Y-99232142D01*
X140589285Y-99160714D01*
%TO.C,R4*%
X125339285Y-112375000D02*
X124982142Y-112625000D01*
X125339285Y-112803571D02*
X124589285Y-112803571D01*
X124589285Y-112517857D01*
X124625000Y-112446428D01*
X124660714Y-112410714D01*
X124732142Y-112375000D01*
X124839285Y-112375000D01*
X124910714Y-112410714D01*
X124946428Y-112446428D01*
X124982142Y-112517857D01*
X124982142Y-112803571D01*
X124839285Y-111732142D02*
X125339285Y-111732142D01*
X124553571Y-111910714D02*
X125089285Y-112089285D01*
X125089285Y-111625000D01*
%TO.C,D8*%
X141946428Y-117839285D02*
X141946428Y-117089285D01*
X142125000Y-117089285D01*
X142232142Y-117125000D01*
X142303571Y-117196428D01*
X142339285Y-117267857D01*
X142375000Y-117410714D01*
X142375000Y-117517857D01*
X142339285Y-117660714D01*
X142303571Y-117732142D01*
X142232142Y-117803571D01*
X142125000Y-117839285D01*
X141946428Y-117839285D01*
X142803571Y-117410714D02*
X142732142Y-117375000D01*
X142696428Y-117339285D01*
X142660714Y-117267857D01*
X142660714Y-117232142D01*
X142696428Y-117160714D01*
X142732142Y-117125000D01*
X142803571Y-117089285D01*
X142946428Y-117089285D01*
X143017857Y-117125000D01*
X143053571Y-117160714D01*
X143089285Y-117232142D01*
X143089285Y-117267857D01*
X143053571Y-117339285D01*
X143017857Y-117375000D01*
X142946428Y-117410714D01*
X142803571Y-117410714D01*
X142732142Y-117446428D01*
X142696428Y-117482142D01*
X142660714Y-117553571D01*
X142660714Y-117696428D01*
X142696428Y-117767857D01*
X142732142Y-117803571D01*
X142803571Y-117839285D01*
X142946428Y-117839285D01*
X143017857Y-117803571D01*
X143053571Y-117767857D01*
X143089285Y-117696428D01*
X143089285Y-117553571D01*
X143053571Y-117482142D01*
X143017857Y-117446428D01*
X142946428Y-117410714D01*
%TO.C,R8*%
X124875000Y-106839285D02*
X124625000Y-106482142D01*
X124446428Y-106839285D02*
X124446428Y-106089285D01*
X124732142Y-106089285D01*
X124803571Y-106125000D01*
X124839285Y-106160714D01*
X124875000Y-106232142D01*
X124875000Y-106339285D01*
X124839285Y-106410714D01*
X124803571Y-106446428D01*
X124732142Y-106482142D01*
X124446428Y-106482142D01*
X125303571Y-106410714D02*
X125232142Y-106375000D01*
X125196428Y-106339285D01*
X125160714Y-106267857D01*
X125160714Y-106232142D01*
X125196428Y-106160714D01*
X125232142Y-106125000D01*
X125303571Y-106089285D01*
X125446428Y-106089285D01*
X125517857Y-106125000D01*
X125553571Y-106160714D01*
X125589285Y-106232142D01*
X125589285Y-106267857D01*
X125553571Y-106339285D01*
X125517857Y-106375000D01*
X125446428Y-106410714D01*
X125303571Y-106410714D01*
X125232142Y-106446428D01*
X125196428Y-106482142D01*
X125160714Y-106553571D01*
X125160714Y-106696428D01*
X125196428Y-106767857D01*
X125232142Y-106803571D01*
X125303571Y-106839285D01*
X125446428Y-106839285D01*
X125517857Y-106803571D01*
X125553571Y-106767857D01*
X125589285Y-106696428D01*
X125589285Y-106553571D01*
X125553571Y-106482142D01*
X125517857Y-106446428D01*
X125446428Y-106410714D01*
D11*
%TO.C,R10*%
X134735000Y-102227064D02*
X134735000Y-101772936D01*
X133265000Y-102227064D02*
X133265000Y-101772936D01*
%TO.C,D3*%
X109500000Y-113050000D02*
X109500000Y-116900000D01*
X109500000Y-113050000D02*
X107500000Y-113050000D01*
X107500000Y-113050000D02*
X107500000Y-116900000D01*
%TO.C,R19*%
X135265000Y-108227064D02*
X135265000Y-107772936D01*
X136735000Y-108227064D02*
X136735000Y-107772936D01*
%TO.C,R3*%
X131735000Y-107772936D02*
X131735000Y-108227064D01*
X130265000Y-107772936D02*
X130265000Y-108227064D01*
%TO.C,J4*%
X136490000Y-118830000D02*
X136490000Y-116170000D01*
X126270000Y-116170000D02*
X136490000Y-116170000D01*
X126270000Y-118830000D02*
X136490000Y-118830000D01*
X125000000Y-118830000D02*
X123670000Y-118830000D01*
X126270000Y-118830000D02*
X126270000Y-116170000D01*
X123670000Y-118830000D02*
X123670000Y-117500000D01*
%TO.C,R1*%
X151022936Y-105520000D02*
X151477064Y-105520000D01*
X151022936Y-106990000D02*
X151477064Y-106990000D01*
%TO.C,R14*%
X116772936Y-91515000D02*
X117227064Y-91515000D01*
X116772936Y-92985000D02*
X117227064Y-92985000D01*
%TO.C,D7*%
X141540000Y-96860000D02*
X143460000Y-96860000D01*
X143460000Y-96860000D02*
X143460000Y-94000000D01*
X141540000Y-94000000D02*
X141540000Y-96860000D01*
%TO.C,U2*%
X120360000Y-103400000D02*
X120360000Y-100950000D01*
X117140000Y-101600000D02*
X117140000Y-103400000D01*
%TO.C,R13*%
X114485000Y-93022936D02*
X114485000Y-93477064D01*
X113015000Y-93022936D02*
X113015000Y-93477064D01*
%TO.C,Q2*%
X120420000Y-109010000D02*
X120420000Y-107550000D01*
X123580000Y-109010000D02*
X122650000Y-109010000D01*
X123580000Y-109010000D02*
X123580000Y-105850000D01*
X120420000Y-109010000D02*
X121350000Y-109010000D01*
%TO.C,D4*%
X112250000Y-113050000D02*
X110250000Y-113050000D01*
X112250000Y-113050000D02*
X112250000Y-116900000D01*
X110250000Y-113050000D02*
X110250000Y-116900000D01*
%TO.C,C2*%
X145511252Y-110515000D02*
X144988748Y-110515000D01*
X145511252Y-111985000D02*
X144988748Y-111985000D01*
%TO.C,R15*%
X122735000Y-102227064D02*
X122735000Y-101772936D01*
X121265000Y-102227064D02*
X121265000Y-101772936D01*
%TO.C,R7*%
X112772936Y-105735000D02*
X113227064Y-105735000D01*
X112772936Y-104265000D02*
X113227064Y-104265000D01*
%TO.C,R6*%
X113227064Y-103235000D02*
X112772936Y-103235000D01*
X113227064Y-101765000D02*
X112772936Y-101765000D01*
%TO.C,R5*%
X117727064Y-111515000D02*
X117272936Y-111515000D01*
X117727064Y-112985000D02*
X117272936Y-112985000D01*
%TO.C,D6*%
X118860000Y-93790000D02*
X116000000Y-93790000D01*
X118860000Y-95710000D02*
X118860000Y-93790000D01*
X116000000Y-95710000D02*
X118860000Y-95710000D01*
%TO.C,R12*%
X149485000Y-94772936D02*
X149485000Y-95227064D01*
X148015000Y-94772936D02*
X148015000Y-95227064D01*
%TO.C,R16*%
X128735000Y-101772936D02*
X128735000Y-102227064D01*
X127265000Y-101772936D02*
X127265000Y-102227064D01*
%TO.C,C3*%
X112738748Y-106765000D02*
X113261252Y-106765000D01*
X112738748Y-108235000D02*
X113261252Y-108235000D01*
%TO.C,R2*%
X151472064Y-107770000D02*
X151017936Y-107770000D01*
X151472064Y-109240000D02*
X151017936Y-109240000D01*
%TO.C,R20*%
X139235000Y-108227064D02*
X139235000Y-107772936D01*
X137765000Y-108227064D02*
X137765000Y-107772936D01*
%TO.C,R11*%
X134235000Y-108227064D02*
X134235000Y-107772936D01*
X132765000Y-108227064D02*
X132765000Y-107772936D01*
%TO.C,R18*%
X145735000Y-115227064D02*
X145735000Y-114772936D01*
X144265000Y-115227064D02*
X144265000Y-114772936D01*
%TO.C,Q3*%
X116670000Y-109010000D02*
X117600000Y-109010000D01*
X116670000Y-109010000D02*
X116670000Y-107550000D01*
X119830000Y-109010000D02*
X118900000Y-109010000D01*
X119830000Y-109010000D02*
X119830000Y-105850000D01*
%TO.C,C1*%
X151511252Y-103270000D02*
X150988748Y-103270000D01*
X151511252Y-104740000D02*
X150988748Y-104740000D01*
%TO.C,J3*%
X133730000Y-91170000D02*
X123510000Y-91170000D01*
X133730000Y-93830000D02*
X123510000Y-93830000D01*
X135000000Y-91170000D02*
X136330000Y-91170000D01*
X123510000Y-91170000D02*
X123510000Y-93830000D01*
X133730000Y-91170000D02*
X133730000Y-93830000D01*
X136330000Y-91170000D02*
X136330000Y-92500000D01*
%TO.C,Q1*%
X129580000Y-109010000D02*
X129580000Y-105850000D01*
X129580000Y-109010000D02*
X128650000Y-109010000D01*
X126420000Y-109010000D02*
X126420000Y-107550000D01*
X126420000Y-109010000D02*
X127350000Y-109010000D01*
%TO.C,R17*%
X144265000Y-94772936D02*
X144265000Y-95227064D01*
X145735000Y-94772936D02*
X145735000Y-95227064D01*
D10*
%TO.C,U1*%
X147325000Y-109475000D02*
X147325000Y-108365000D01*
X143175000Y-101635000D02*
X142050000Y-101635000D01*
X143175000Y-109475000D02*
X147325000Y-109475000D01*
X143175000Y-100525000D02*
X147325000Y-100525000D01*
X143175000Y-101635000D02*
X143175000Y-100525000D01*
X143175000Y-109475000D02*
X143175000Y-108365000D01*
X147325000Y-100525000D02*
X147325000Y-101635000D01*
D11*
%TO.C,D2*%
X107250000Y-96450000D02*
X109250000Y-96450000D01*
X107250000Y-96450000D02*
X107250000Y-92600000D01*
X109250000Y-96450000D02*
X109250000Y-92600000D01*
%TO.C,Q6*%
X117010000Y-99830000D02*
X115550000Y-99830000D01*
X117010000Y-96670000D02*
X117010000Y-97600000D01*
X117010000Y-99830000D02*
X117010000Y-98900000D01*
X117010000Y-96670000D02*
X113850000Y-96670000D01*
%TO.C,Q4*%
X138580000Y-103260000D02*
X138580000Y-100100000D01*
X135420000Y-103260000D02*
X136350000Y-103260000D01*
X135420000Y-103260000D02*
X135420000Y-101800000D01*
X138580000Y-103260000D02*
X137650000Y-103260000D01*
%TO.C,Q5*%
X129420000Y-103260000D02*
X130350000Y-103260000D01*
X132580000Y-103260000D02*
X132580000Y-100100000D01*
X132580000Y-103260000D02*
X131650000Y-103260000D01*
X129420000Y-103260000D02*
X129420000Y-101800000D01*
%TO.C,D1*%
X112000000Y-96450000D02*
X112000000Y-92600000D01*
X110000000Y-96450000D02*
X110000000Y-92600000D01*
X110000000Y-96450000D02*
X112000000Y-96450000D01*
%TO.C,C4*%
X151511252Y-102490000D02*
X150988748Y-102490000D01*
X151511252Y-101020000D02*
X150988748Y-101020000D01*
%TO.C,D5*%
X150290000Y-94000000D02*
X150290000Y-96860000D01*
X150290000Y-96860000D02*
X152210000Y-96860000D01*
X152210000Y-96860000D02*
X152210000Y-94000000D01*
%TO.C,Q7*%
X123420000Y-103260000D02*
X123420000Y-101800000D01*
X126580000Y-103260000D02*
X125650000Y-103260000D01*
X123420000Y-103260000D02*
X124350000Y-103260000D01*
X126580000Y-103260000D02*
X126580000Y-100100000D01*
%TO.C,R9*%
X140735000Y-101977064D02*
X140735000Y-101522936D01*
X139265000Y-101977064D02*
X139265000Y-101522936D01*
%TO.C,R4*%
X122727064Y-112985000D02*
X122272936Y-112985000D01*
X122727064Y-111515000D02*
X122272936Y-111515000D01*
%TO.C,D8*%
X143460000Y-113140000D02*
X141540000Y-113140000D01*
X143460000Y-116000000D02*
X143460000Y-113140000D01*
X141540000Y-113140000D02*
X141540000Y-116000000D01*
%TO.C,R8*%
X124265000Y-109227064D02*
X124265000Y-108772936D01*
X125735000Y-109227064D02*
X125735000Y-108772936D01*
%TD*%
M02*
