M48
; DRILL file {KiCad (6.0.7)} date Mon Apr 17 23:48:33 2023
; FORMAT={-:-/ absolute / inch / decimal}
; #@! TF.CreationDate,2023-04-17T23:48:33-04:00
; #@! TF.GenerationSoftware,Kicad,Pcbnew,(6.0.7)
; #@! TF.FileFunction,Plated,1,2,PTH
FMAT,2
INCH
; #@! TA.AperFunction,Plated,PTH,ViaDrill
T1C0.0118
; #@! TA.AperFunction,Plated,PTH,ComponentDrill
T2C0.0177
; #@! TA.AperFunction,Plated,PTH,ComponentDrill
T3C0.0354
; #@! TA.AperFunction,Plated,PTH,ComponentDrill
T4C0.0394
; #@! TA.AperFunction,Plated,PTH,ComponentDrill
T5C0.0866
; #@! TA.AperFunction,Plated,PTH,ComponentDrill
T6C0.1063
%
G90
G05
T1
X4.2717Y-4.124
X4.2717Y-4.1634
X4.2717Y-4.2028
X4.311Y-4.124
X4.311Y-4.1634
X4.311Y-4.2028
X4.5276Y-4.4193
X4.5472Y-4.3701
X4.5768Y-4.3406
X4.6063Y-4.311
X4.7441Y-3.9075
X4.872Y-3.8878
X4.9213Y-3.9075
X4.9606Y-3.9075
X5.0Y-3.9075
X5.0394Y-3.7992
X5.0394Y-3.8878
X5.0787Y-3.9075
X5.1181Y-4.0945
X5.143Y-3.8844
X5.1673Y-3.6909
X5.187Y-4.4291
X5.2067Y-4.0453
X5.2264Y-3.9075
X5.2756Y-4.1634
X5.3346Y-4.0846
X5.3445Y-4.124
X5.5217Y-4.252
X5.5709Y-3.9764
X5.6693Y-4.1929
X5.6988Y-4.1732
X5.7046Y-4.1083
X5.7677Y-3.9961
X5.7874Y-3.878
X5.7874Y-3.9173
X5.8268Y-3.878
X5.8268Y-3.9173
X5.8661Y-3.9173
X6.0728Y-3.9567
X6.0728Y-3.9961
X6.0728Y-4.0354
X6.0728Y-4.0748
T3
X4.1752Y-4.0
X4.1752Y-4.0827
X4.1752Y-4.185
X4.1752Y-4.2677
X4.2736Y-4.0
X4.2736Y-4.2677
T4
X4.915Y-3.6417
X4.9213Y-4.626
X5.015Y-3.6417
X5.0213Y-4.626
X5.115Y-3.6417
X5.1213Y-4.626
X5.215Y-3.6417
X5.2213Y-4.626
X5.315Y-3.6417
X5.3213Y-4.626
T5
X4.0571Y-3.8681
X4.0571Y-4.3996
T6
X4.065Y-3.6713
X4.065Y-4.5965
X6.1713Y-3.6713
X6.1713Y-4.5965
T2
G00X6.2163Y-4.0226
M15
G01X6.2482Y-4.0226
M16
G05
G00X6.2163Y-4.2451
M15
G01X6.2482Y-4.2451
M16
G05
T0
M30
