%TF.GenerationSoftware,KiCad,Pcbnew,(6.0.7)*%
%TF.CreationDate,2023-04-17T23:48:31-04:00*%
%TF.ProjectId,minirib-usb,6d696e69-7269-4622-9d75-73622e6b6963,E*%
%TF.SameCoordinates,Original*%
%TF.FileFunction,Soldermask,Top*%
%TF.FilePolarity,Negative*%
%FSLAX46Y46*%
G04 Gerber Fmt 4.6, Leading zero omitted, Abs format (unit mm)*
G04 Created by KiCad (PCBNEW (6.0.7)) date 2023-04-17 23:48:31*
%MOMM*%
%LPD*%
G01*
G04 APERTURE LIST*
G04 Aperture macros list*
%AMRoundRect*
0 Rectangle with rounded corners*
0 $1 Rounding radius*
0 $2 $3 $4 $5 $6 $7 $8 $9 X,Y pos of 4 corners*
0 Add a 4 corners polygon primitive as box body*
4,1,4,$2,$3,$4,$5,$6,$7,$8,$9,$2,$3,0*
0 Add four circle primitives for the rounded corners*
1,1,$1+$1,$2,$3*
1,1,$1+$1,$4,$5*
1,1,$1+$1,$6,$7*
1,1,$1+$1,$8,$9*
0 Add four rect primitives between the rounded corners*
20,1,$1+$1,$2,$3,$4,$5,0*
20,1,$1+$1,$4,$5,$6,$7,0*
20,1,$1+$1,$6,$7,$8,$9,0*
20,1,$1+$1,$8,$9,$2,$3,0*%
G04 Aperture macros list end*
%ADD10C,1.400000*%
%ADD11RoundRect,0.250000X0.450000X-0.350000X0.450000X0.350000X-0.450000X0.350000X-0.450000X-0.350000X0*%
%ADD12C,5.400000*%
%ADD13C,3.100000*%
%ADD14R,1.100000X1.100000*%
%ADD15C,0.650000*%
%ADD16R,1.400000X0.400000*%
%ADD17RoundRect,0.262500X0.667500X-0.262500X0.667500X0.262500X-0.667500X0.262500X-0.667500X-0.262500X0*%
%ADD18R,1.200000X1.400000*%
%ADD19RoundRect,0.250000X-0.450000X0.350000X-0.450000X-0.350000X0.450000X-0.350000X0.450000X0.350000X0*%
%ADD20R,1.700000X1.700000*%
%ADD21O,1.700000X1.700000*%
%ADD22RoundRect,0.250000X-0.350000X-0.450000X0.350000X-0.450000X0.350000X0.450000X-0.350000X0.450000X0*%
%ADD23RoundRect,0.250000X0.450000X-0.325000X0.450000X0.325000X-0.450000X0.325000X-0.450000X-0.325000X0*%
%ADD24R,0.650000X1.560000*%
%ADD25R,0.800000X1.900000*%
%ADD26RoundRect,0.250000X0.337500X0.475000X-0.337500X0.475000X-0.337500X-0.475000X0.337500X-0.475000X0*%
%ADD27RoundRect,0.250000X0.350000X0.450000X-0.350000X0.450000X-0.350000X-0.450000X0.350000X-0.450000X0*%
%ADD28RoundRect,0.250000X0.325000X0.450000X-0.325000X0.450000X-0.325000X-0.450000X0.325000X-0.450000X0*%
%ADD29RoundRect,0.250000X-0.337500X-0.475000X0.337500X-0.475000X0.337500X0.475000X-0.337500X0.475000X0*%
%ADD30R,1.200000X0.400000*%
%ADD31R,1.900000X0.800000*%
%ADD32RoundRect,0.250000X-0.450000X0.325000X-0.450000X-0.325000X0.450000X-0.325000X0.450000X0.325000X0*%
%ADD33C,2.200000*%
%ADD34C,3.000000*%
G04 APERTURE END LIST*
D10*
%TO.C,th1*%
X106750000Y-91000000D03*
%TD*%
%TO.C,th2*%
X153250000Y-91000000D03*
%TD*%
%TO.C,th3*%
X106750000Y-119000000D03*
%TD*%
D11*
%TO.C,R10*%
X134000000Y-103000000D03*
X134000000Y-101000000D03*
%TD*%
D12*
%TO.C,H4*%
X103250000Y-116750000D03*
D13*
X103250000Y-116750000D03*
%TD*%
%TO.C,H1*%
X156750000Y-93250000D03*
D12*
X156750000Y-93250000D03*
%TD*%
D13*
%TO.C,H2*%
X156750000Y-116750000D03*
D12*
X156750000Y-116750000D03*
%TD*%
D14*
%TO.C,D3*%
X108500000Y-113850000D03*
X108500000Y-116650000D03*
%TD*%
D11*
%TO.C,R19*%
X136000000Y-109000000D03*
X136000000Y-107000000D03*
%TD*%
D15*
%TO.C,J1*%
X156150000Y-107000000D03*
X156150000Y-103000000D03*
D16*
X155640000Y-106300000D03*
X155640000Y-105650000D03*
X155640000Y-105000000D03*
X155640000Y-104350000D03*
X155640000Y-103700000D03*
D17*
X158300000Y-102175000D03*
D18*
X155750000Y-101700000D03*
X155750000Y-108300000D03*
D17*
X158300000Y-107825000D03*
%TD*%
D19*
%TO.C,R3*%
X131000000Y-107000000D03*
X131000000Y-109000000D03*
%TD*%
D20*
%TO.C,J4*%
X125000000Y-117500000D03*
D21*
X127540000Y-117500000D03*
X130080000Y-117500000D03*
X132620000Y-117500000D03*
X135160000Y-117500000D03*
%TD*%
D22*
%TO.C,R1*%
X150250000Y-106255000D03*
X152250000Y-106255000D03*
%TD*%
%TO.C,R14*%
X116000000Y-92250000D03*
X118000000Y-92250000D03*
%TD*%
D23*
%TO.C,D7*%
X142500000Y-93975000D03*
X142500000Y-96025000D03*
%TD*%
D24*
%TO.C,U2*%
X119700000Y-101150000D03*
X118750000Y-101150000D03*
X117800000Y-101150000D03*
X117800000Y-103850000D03*
X119700000Y-103850000D03*
%TD*%
D19*
%TO.C,R13*%
X113750000Y-92250000D03*
X113750000Y-94250000D03*
%TD*%
D25*
%TO.C,Q2*%
X122950000Y-106750000D03*
X121050000Y-106750000D03*
X122000000Y-109750000D03*
%TD*%
D14*
%TO.C,D4*%
X111250000Y-113850000D03*
X111250000Y-116650000D03*
%TD*%
D26*
%TO.C,C2*%
X144212500Y-111250000D03*
X146287500Y-111250000D03*
%TD*%
D11*
%TO.C,R15*%
X122000000Y-103000000D03*
X122000000Y-101000000D03*
%TD*%
D22*
%TO.C,R7*%
X112000000Y-105000000D03*
X114000000Y-105000000D03*
%TD*%
D27*
%TO.C,R6*%
X114000000Y-102500000D03*
X112000000Y-102500000D03*
%TD*%
%TO.C,R5*%
X118500000Y-112250000D03*
X116500000Y-112250000D03*
%TD*%
D28*
%TO.C,D6*%
X118025000Y-94750000D03*
X115975000Y-94750000D03*
%TD*%
D19*
%TO.C,R12*%
X148750000Y-96000000D03*
X148750000Y-94000000D03*
%TD*%
D13*
%TO.C,H3*%
X103250000Y-93250000D03*
D12*
X103250000Y-93250000D03*
%TD*%
D19*
%TO.C,R16*%
X128000000Y-101000000D03*
X128000000Y-103000000D03*
%TD*%
D29*
%TO.C,C3*%
X111962500Y-107500000D03*
X114037500Y-107500000D03*
%TD*%
D27*
%TO.C,R2*%
X152245000Y-108505000D03*
X150245000Y-108505000D03*
%TD*%
D11*
%TO.C,R20*%
X138500000Y-109000000D03*
X138500000Y-107000000D03*
%TD*%
%TO.C,R11*%
X133500000Y-109000000D03*
X133500000Y-107000000D03*
%TD*%
%TO.C,R18*%
X145000000Y-116000000D03*
X145000000Y-114000000D03*
%TD*%
D25*
%TO.C,Q3*%
X119200000Y-106750000D03*
X117300000Y-106750000D03*
X118250000Y-109750000D03*
%TD*%
D26*
%TO.C,C1*%
X152287500Y-104005000D03*
X150212500Y-104005000D03*
%TD*%
D20*
%TO.C,J3*%
X135000000Y-92500000D03*
D21*
X132460000Y-92500000D03*
X129920000Y-92500000D03*
X127380000Y-92500000D03*
X124840000Y-92500000D03*
%TD*%
D25*
%TO.C,Q1*%
X128950000Y-106750000D03*
X127050000Y-106750000D03*
X128000000Y-109750000D03*
%TD*%
D19*
%TO.C,R17*%
X145000000Y-96000000D03*
X145000000Y-94000000D03*
%TD*%
D30*
%TO.C,U1*%
X142650000Y-102142500D03*
X142650000Y-102777500D03*
X142650000Y-103412500D03*
X142650000Y-104047500D03*
X142650000Y-104682500D03*
X142650000Y-105317500D03*
X142650000Y-105952500D03*
X142650000Y-106587500D03*
X142650000Y-107222500D03*
X142650000Y-107857500D03*
X147850000Y-107857500D03*
X147850000Y-107222500D03*
X147850000Y-106587500D03*
X147850000Y-105952500D03*
X147850000Y-105317500D03*
X147850000Y-104682500D03*
X147850000Y-104047500D03*
X147850000Y-103412500D03*
X147850000Y-102777500D03*
X147850000Y-102142500D03*
%TD*%
D14*
%TO.C,D2*%
X108250000Y-95650000D03*
X108250000Y-92850000D03*
%TD*%
D31*
%TO.C,Q6*%
X114750000Y-97300000D03*
X114750000Y-99200000D03*
X117750000Y-98250000D03*
%TD*%
D25*
%TO.C,Q4*%
X137950000Y-101000000D03*
X136050000Y-101000000D03*
X137000000Y-104000000D03*
%TD*%
%TO.C,Q5*%
X131950000Y-101000000D03*
X130050000Y-101000000D03*
X131000000Y-104000000D03*
%TD*%
D14*
%TO.C,D1*%
X111000000Y-95650000D03*
X111000000Y-92850000D03*
%TD*%
D26*
%TO.C,C4*%
X152287500Y-101755000D03*
X150212500Y-101755000D03*
%TD*%
D23*
%TO.C,D5*%
X151250000Y-93975000D03*
X151250000Y-96025000D03*
%TD*%
D25*
%TO.C,Q7*%
X125950000Y-101000000D03*
X124050000Y-101000000D03*
X125000000Y-104000000D03*
%TD*%
D11*
%TO.C,R9*%
X140000000Y-102750000D03*
X140000000Y-100750000D03*
%TD*%
D27*
%TO.C,R4*%
X123500000Y-112250000D03*
X121500000Y-112250000D03*
%TD*%
D32*
%TO.C,D8*%
X142500000Y-113975000D03*
X142500000Y-116025000D03*
%TD*%
D33*
%TO.C,J2*%
X102250000Y-105000000D03*
D10*
X106050000Y-106300000D03*
X106050000Y-103700000D03*
X106050000Y-108400000D03*
X106050000Y-101600000D03*
X108550000Y-108400000D03*
X108550000Y-101600000D03*
D34*
X103050000Y-111750000D03*
X103050000Y-98250000D03*
%TD*%
D11*
%TO.C,R8*%
X125000000Y-110000000D03*
X125000000Y-108000000D03*
%TD*%
M02*
