%TF.GenerationSoftware,KiCad,Pcbnew,(6.0.7)*%
%TF.CreationDate,2023-04-17T23:48:31-04:00*%
%TF.ProjectId,minirib-usb,6d696e69-7269-4622-9d75-73622e6b6963,E*%
%TF.SameCoordinates,Original*%
%TF.FileFunction,Copper,L2,Bot*%
%TF.FilePolarity,Positive*%
%FSLAX46Y46*%
G04 Gerber Fmt 4.6, Leading zero omitted, Abs format (unit mm)*
G04 Created by KiCad (PCBNEW (6.0.7)) date 2023-04-17 23:48:31*
%MOMM*%
%LPD*%
G01*
G04 APERTURE LIST*
G04 Aperture macros list*
%AMRoundRect*
0 Rectangle with rounded corners*
0 $1 Rounding radius*
0 $2 $3 $4 $5 $6 $7 $8 $9 X,Y pos of 4 corners*
0 Add a 4 corners polygon primitive as box body*
4,1,4,$2,$3,$4,$5,$6,$7,$8,$9,$2,$3,0*
0 Add four circle primitives for the rounded corners*
1,1,$1+$1,$2,$3*
1,1,$1+$1,$4,$5*
1,1,$1+$1,$6,$7*
1,1,$1+$1,$8,$9*
0 Add four rect primitives between the rounded corners*
20,1,$1+$1,$2,$3,$4,$5,0*
20,1,$1+$1,$4,$5,$6,$7,0*
20,1,$1+$1,$6,$7,$8,$9,0*
20,1,$1+$1,$8,$9,$2,$3,0*%
G04 Aperture macros list end*
%TA.AperFunction,ConnectorPad*%
%ADD10C,5.400000*%
%TD*%
%TA.AperFunction,ComponentPad*%
%ADD11C,3.100000*%
%TD*%
%TA.AperFunction,ComponentPad*%
%ADD12RoundRect,0.262500X0.667500X-0.262500X0.667500X0.262500X-0.667500X0.262500X-0.667500X-0.262500X0*%
%TD*%
%TA.AperFunction,ComponentPad*%
%ADD13R,1.700000X1.700000*%
%TD*%
%TA.AperFunction,ComponentPad*%
%ADD14O,1.700000X1.700000*%
%TD*%
%TA.AperFunction,ComponentPad*%
%ADD15C,1.400000*%
%TD*%
%TA.AperFunction,ComponentPad*%
%ADD16C,3.000000*%
%TD*%
%TA.AperFunction,ViaPad*%
%ADD17C,0.600000*%
%TD*%
%TA.AperFunction,Conductor*%
%ADD18C,0.350000*%
%TD*%
%TA.AperFunction,Conductor*%
%ADD19C,0.250000*%
%TD*%
G04 APERTURE END LIST*
D10*
%TO.P,H4,1,1*%
%TO.N,GND*%
X103250000Y-116750000D03*
D11*
X103250000Y-116750000D03*
%TD*%
%TO.P,H1,1,1*%
%TO.N,GND*%
X156750000Y-93250000D03*
D10*
X156750000Y-93250000D03*
%TD*%
D11*
%TO.P,H2,1,1*%
%TO.N,GND*%
X156750000Y-116750000D03*
D10*
X156750000Y-116750000D03*
%TD*%
D12*
%TO.P,J1,6,Shield*%
%TO.N,GND*%
X158300000Y-102175000D03*
X158300000Y-107825000D03*
%TD*%
D13*
%TO.P,J4,1,Pin_1*%
%TO.N,BUS-*%
X125000000Y-117500000D03*
D14*
%TO.P,J4,2,Pin_2*%
%TO.N,BUS+*%
X127540000Y-117500000D03*
%TO.P,J4,3,Pin_3*%
%TO.N,~{BUSY}*%
X130080000Y-117500000D03*
%TO.P,J4,4,Pin_4*%
%TO.N,BUSY*%
X132620000Y-117500000D03*
%TO.P,J4,5,Pin_5*%
%TO.N,GND*%
X135160000Y-117500000D03*
%TD*%
D11*
%TO.P,H3,1,1*%
%TO.N,GND*%
X103250000Y-93250000D03*
D10*
X103250000Y-93250000D03*
%TD*%
D13*
%TO.P,J3,1,Pin_1*%
%TO.N,TXD*%
X135000000Y-92500000D03*
D14*
%TO.P,J3,2,Pin_2*%
%TO.N,RXD*%
X132460000Y-92500000D03*
%TO.P,J3,3,Pin_3*%
%TO.N,BUSY*%
X129920000Y-92500000D03*
%TO.P,J3,4,Pin_4*%
%TO.N,~{DTR}*%
X127380000Y-92500000D03*
%TO.P,J3,5,Pin_5*%
%TO.N,GND*%
X124840000Y-92500000D03*
%TD*%
D15*
%TO.P,J2,1*%
%TO.N,GND*%
X106050000Y-106300000D03*
%TO.P,J2,2*%
%TO.N,BIAS*%
X106050000Y-103700000D03*
%TO.P,J2,3*%
%TO.N,BUSY*%
X106050000Y-108400000D03*
%TO.P,J2,4*%
%TO.N,~{BUSY}*%
X106050000Y-101600000D03*
%TO.P,J2,5*%
%TO.N,BUS+*%
X108550000Y-108400000D03*
%TO.P,J2,6*%
%TO.N,BUS-*%
X108550000Y-101600000D03*
D16*
%TO.P,J2,SH*%
%TO.N,GND*%
X103050000Y-111750000D03*
X103050000Y-98250000D03*
%TD*%
D17*
%TO.N,GND*%
X144000000Y-106500000D03*
X148000000Y-98500000D03*
X147000000Y-98500000D03*
X147000000Y-99500000D03*
X148000000Y-99500000D03*
X149000000Y-99500000D03*
X154250000Y-103500000D03*
X154250000Y-102500000D03*
X154250000Y-101500000D03*
X154250000Y-100500000D03*
X117000000Y-109500000D03*
X116250000Y-110250000D03*
X115500000Y-111000000D03*
X109500000Y-106750000D03*
X109500000Y-105750000D03*
X109500000Y-104750000D03*
X108500000Y-106750000D03*
X108500000Y-105750000D03*
X108500000Y-104750000D03*
X135500000Y-103750000D03*
X132250000Y-102750000D03*
X129000000Y-99250000D03*
X127000000Y-99250000D03*
X126000000Y-99250000D03*
X125000000Y-99250000D03*
%TO.N,~{BUSY}*%
X131750000Y-112500000D03*
X135750000Y-104750000D03*
X123750000Y-98750000D03*
X130632011Y-98664101D03*
X132750000Y-99250000D03*
%TO.N,BUS-*%
X120500000Y-99250000D03*
%TO.N,BUSY*%
X134000000Y-105750000D03*
X144750000Y-106000000D03*
%TO.N,~{DTR}*%
X141500000Y-101000000D03*
X131250000Y-93750000D03*
%TO.N,RXD*%
X128000000Y-96500000D03*
X128000000Y-98750000D03*
%TO.N,BUS+*%
X115000000Y-112250000D03*
%TO.N,RXD*%
X144898056Y-104351944D03*
%TO.N,BUSY*%
X130000000Y-104000000D03*
%TO.N,TXD*%
X146500000Y-101500000D03*
X140250000Y-108000000D03*
%TD*%
D18*
%TO.N,~{BUSY}*%
X135750000Y-104750000D02*
X133250000Y-104750000D01*
X131750000Y-106250000D02*
X131750000Y-112500000D01*
X132250000Y-105750000D02*
X131750000Y-106250000D01*
X133250000Y-104750000D02*
X132250000Y-105750000D01*
X109150000Y-98500000D02*
X106050000Y-101600000D01*
X123500000Y-98500000D02*
X109150000Y-98500000D01*
X123750000Y-98750000D02*
X123500000Y-98500000D01*
X131217910Y-99250000D02*
X130632011Y-98664101D01*
X132750000Y-99250000D02*
X131217910Y-99250000D01*
D19*
%TO.N,BUS-*%
X120500000Y-99250000D02*
X110900000Y-99250000D01*
X110900000Y-99250000D02*
X108550000Y-101600000D01*
D18*
%TO.N,BUSY*%
X144500000Y-105750000D02*
X144750000Y-106000000D01*
X134000000Y-105750000D02*
X144500000Y-105750000D01*
D19*
%TO.N,~{DTR}*%
X131500000Y-93750000D02*
X131250000Y-93750000D01*
X136750000Y-99000000D02*
X131500000Y-93750000D01*
X138750000Y-101000000D02*
X136750000Y-99000000D01*
X141500000Y-101000000D02*
X138750000Y-101000000D01*
%TO.N,RXD*%
X128000000Y-98750000D02*
X128000000Y-96500000D01*
D18*
%TO.N,BUSY*%
X106050000Y-113050000D02*
X106050000Y-108400000D01*
X112250000Y-119250000D02*
X106050000Y-113050000D01*
X130870000Y-119250000D02*
X112250000Y-119250000D01*
X132620000Y-117500000D02*
X130870000Y-119250000D01*
X130000000Y-114880000D02*
X132620000Y-117500000D01*
X130000000Y-104000000D02*
X130000000Y-114880000D01*
D19*
%TO.N,BUS-*%
X107250000Y-102900000D02*
X108550000Y-101600000D01*
X107250000Y-111750000D02*
X107250000Y-102900000D01*
X113000000Y-117500000D02*
X107250000Y-111750000D01*
X125000000Y-117500000D02*
X113000000Y-117500000D01*
%TO.N,BUS+*%
X115000000Y-112250000D02*
X113000000Y-112250000D01*
X113000000Y-112250000D02*
X113000000Y-110750000D01*
X113000000Y-114750000D02*
X113000000Y-112250000D01*
X110650000Y-108400000D02*
X108550000Y-108400000D01*
X113000000Y-110750000D02*
X110650000Y-108400000D01*
X114000000Y-115750000D02*
X113000000Y-114750000D01*
X125790000Y-115750000D02*
X114000000Y-115750000D01*
X127540000Y-117500000D02*
X125790000Y-115750000D01*
%TO.N,RXD*%
X144898056Y-103148056D02*
X144898056Y-104351944D01*
X141000000Y-99250000D02*
X144898056Y-103148056D01*
X139210000Y-99250000D02*
X141000000Y-99250000D01*
X132460000Y-92500000D02*
X139210000Y-99250000D01*
D18*
%TO.N,BUSY*%
X129920000Y-103920000D02*
X130000000Y-104000000D01*
X129920000Y-92500000D02*
X129920000Y-103920000D01*
D19*
%TO.N,TXD*%
X141500000Y-99000000D02*
X135000000Y-92500000D01*
X145000000Y-99000000D02*
X141500000Y-99000000D01*
X145750000Y-99750000D02*
X145000000Y-99000000D01*
X145750000Y-102250000D02*
X145750000Y-99750000D01*
X145750000Y-102250000D02*
X146500000Y-101500000D01*
X145750000Y-102500000D02*
X145750000Y-102250000D01*
X144750000Y-108000000D02*
X145500000Y-107250000D01*
X140250000Y-108000000D02*
X144750000Y-108000000D01*
X145500000Y-107250000D02*
X145750000Y-107000000D01*
X145750000Y-107000000D02*
X145750000Y-102500000D01*
%TD*%
%TA.AperFunction,Conductor*%
%TO.N,GND*%
G36*
X106092571Y-90270502D02*
G01*
X106139064Y-90324158D01*
X106149168Y-90394432D01*
X106120662Y-90457591D01*
X106116877Y-90461170D01*
X106015940Y-90609694D01*
X105949252Y-90776427D01*
X105948138Y-90783157D01*
X105948137Y-90783160D01*
X105935629Y-90858715D01*
X105919922Y-90953591D01*
X105920279Y-90960407D01*
X105920279Y-90960411D01*
X105923668Y-91025067D01*
X105929321Y-91132921D01*
X105977008Y-91306049D01*
X106060760Y-91464898D01*
X106176668Y-91602058D01*
X106182091Y-91606205D01*
X106182093Y-91606206D01*
X106313905Y-91706984D01*
X106313909Y-91706987D01*
X106319326Y-91711128D01*
X106325506Y-91714010D01*
X106325508Y-91714011D01*
X106475900Y-91784140D01*
X106475903Y-91784141D01*
X106482077Y-91787020D01*
X106488725Y-91788506D01*
X106488728Y-91788507D01*
X106652290Y-91825067D01*
X106652291Y-91825067D01*
X106657328Y-91826193D01*
X106662819Y-91826500D01*
X106794866Y-91826500D01*
X106928525Y-91811980D01*
X107011251Y-91784140D01*
X107092257Y-91756879D01*
X107092259Y-91756878D01*
X107098722Y-91754703D01*
X107252648Y-91662214D01*
X107257610Y-91657522D01*
X107378165Y-91543519D01*
X107378167Y-91543517D01*
X107383123Y-91538830D01*
X107484060Y-91390306D01*
X107550748Y-91223573D01*
X107580078Y-91046409D01*
X107579593Y-91037142D01*
X107571036Y-90873892D01*
X107570679Y-90867079D01*
X107522992Y-90693951D01*
X107439240Y-90535102D01*
X107373938Y-90457826D01*
X107345247Y-90392886D01*
X107356220Y-90322743D01*
X107403374Y-90269667D01*
X107470177Y-90250500D01*
X152524450Y-90250500D01*
X152592571Y-90270502D01*
X152639064Y-90324158D01*
X152649168Y-90394432D01*
X152620662Y-90457591D01*
X152616877Y-90461170D01*
X152515940Y-90609694D01*
X152449252Y-90776427D01*
X152448138Y-90783157D01*
X152448137Y-90783160D01*
X152435629Y-90858715D01*
X152419922Y-90953591D01*
X152420279Y-90960407D01*
X152420279Y-90960411D01*
X152423668Y-91025067D01*
X152429321Y-91132921D01*
X152477008Y-91306049D01*
X152560760Y-91464898D01*
X152676668Y-91602058D01*
X152682091Y-91606205D01*
X152682093Y-91606206D01*
X152813905Y-91706984D01*
X152813909Y-91706987D01*
X152819326Y-91711128D01*
X152825506Y-91714010D01*
X152825508Y-91714011D01*
X152975900Y-91784140D01*
X152975903Y-91784141D01*
X152982077Y-91787020D01*
X152988725Y-91788506D01*
X152988728Y-91788507D01*
X153152290Y-91825067D01*
X153152291Y-91825067D01*
X153157328Y-91826193D01*
X153162819Y-91826500D01*
X153294866Y-91826500D01*
X153428525Y-91811980D01*
X153511251Y-91784140D01*
X153592257Y-91756879D01*
X153592259Y-91756878D01*
X153598722Y-91754703D01*
X153752648Y-91662214D01*
X153757610Y-91657522D01*
X153878165Y-91543519D01*
X153878167Y-91543517D01*
X153883123Y-91538830D01*
X153984060Y-91390306D01*
X154050748Y-91223573D01*
X154080078Y-91046409D01*
X154079593Y-91037142D01*
X154071036Y-90873892D01*
X154070679Y-90867079D01*
X154022992Y-90693951D01*
X153939240Y-90535102D01*
X153873938Y-90457826D01*
X153845247Y-90392886D01*
X153856220Y-90322743D01*
X153903374Y-90269667D01*
X153970177Y-90250500D01*
X155513047Y-90250500D01*
X155581168Y-90270502D01*
X155627661Y-90324158D01*
X155637765Y-90394432D01*
X155608271Y-90459012D01*
X155567291Y-90490226D01*
X155305568Y-90615062D01*
X155299210Y-90618557D01*
X155012296Y-90798538D01*
X155006368Y-90802751D01*
X154745318Y-91011890D01*
X154739293Y-91023061D01*
X154739447Y-91025067D01*
X154743554Y-91031422D01*
X156737188Y-93025056D01*
X156751132Y-93032670D01*
X156752965Y-93032539D01*
X156759580Y-93028288D01*
X157891271Y-91896597D01*
X157953583Y-91862571D01*
X158024398Y-91867636D01*
X158069461Y-91896597D01*
X158103403Y-91930539D01*
X158137429Y-91992851D01*
X158132364Y-92063666D01*
X158103403Y-92108729D01*
X156974944Y-93237188D01*
X156967330Y-93251132D01*
X156967461Y-93252965D01*
X156971712Y-93259580D01*
X158963612Y-95251480D01*
X158976966Y-95258772D01*
X158986939Y-95251717D01*
X159160207Y-95044489D01*
X159164523Y-95038678D01*
X159350492Y-94755568D01*
X159354106Y-94749306D01*
X159506297Y-94446711D01*
X159507863Y-94443091D01*
X159553275Y-94388517D01*
X159620982Y-94367158D01*
X159689489Y-94385795D01*
X159737045Y-94438511D01*
X159749500Y-94493133D01*
X159749500Y-101697086D01*
X159729498Y-101765207D01*
X159675842Y-101811700D01*
X159605568Y-101821804D01*
X159540988Y-101792310D01*
X159507091Y-101745304D01*
X159462003Y-101636453D01*
X159453816Y-101622272D01*
X159373703Y-101517866D01*
X159362134Y-101506297D01*
X159257728Y-101426184D01*
X159243547Y-101417997D01*
X159121971Y-101367638D01*
X159106154Y-101363400D01*
X159008457Y-101350538D01*
X159000248Y-101350000D01*
X158468115Y-101350000D01*
X158452876Y-101354475D01*
X158451671Y-101355865D01*
X158450000Y-101363548D01*
X158450000Y-102981885D01*
X158454475Y-102997124D01*
X158455865Y-102998329D01*
X158463548Y-103000000D01*
X159000248Y-103000000D01*
X159008457Y-102999462D01*
X159106154Y-102986600D01*
X159121971Y-102982362D01*
X159243547Y-102932003D01*
X159257728Y-102923816D01*
X159362134Y-102843703D01*
X159373703Y-102832134D01*
X159453816Y-102727728D01*
X159462003Y-102713547D01*
X159507091Y-102604696D01*
X159551639Y-102549415D01*
X159619003Y-102526994D01*
X159687794Y-102544552D01*
X159736172Y-102596514D01*
X159749500Y-102652914D01*
X159749500Y-107347086D01*
X159729498Y-107415207D01*
X159675842Y-107461700D01*
X159605568Y-107471804D01*
X159540988Y-107442310D01*
X159507091Y-107395304D01*
X159462003Y-107286453D01*
X159453816Y-107272272D01*
X159373703Y-107167866D01*
X159362134Y-107156297D01*
X159257728Y-107076184D01*
X159243547Y-107067997D01*
X159121971Y-107017638D01*
X159106154Y-107013400D01*
X159008457Y-107000538D01*
X159000248Y-107000000D01*
X158468115Y-107000000D01*
X158452876Y-107004475D01*
X158451671Y-107005865D01*
X158450000Y-107013548D01*
X158450000Y-108631885D01*
X158454475Y-108647124D01*
X158455865Y-108648329D01*
X158463548Y-108650000D01*
X159000248Y-108650000D01*
X159008457Y-108649462D01*
X159106154Y-108636600D01*
X159121971Y-108632362D01*
X159243547Y-108582003D01*
X159257728Y-108573816D01*
X159362134Y-108493703D01*
X159373703Y-108482134D01*
X159453816Y-108377728D01*
X159462003Y-108363547D01*
X159507091Y-108254696D01*
X159551639Y-108199415D01*
X159619003Y-108176994D01*
X159687794Y-108194552D01*
X159736172Y-108246514D01*
X159749500Y-108302914D01*
X159749500Y-115518932D01*
X159729498Y-115587053D01*
X159675842Y-115633546D01*
X159605568Y-115643650D01*
X159540988Y-115614156D01*
X159507603Y-115568367D01*
X159443112Y-115417171D01*
X159439895Y-115410688D01*
X159272067Y-115116454D01*
X159268135Y-115110399D01*
X159067600Y-114837405D01*
X159062990Y-114831832D01*
X158987325Y-114750408D01*
X158973674Y-114742291D01*
X158973068Y-114742312D01*
X158964587Y-114747545D01*
X156974944Y-116737188D01*
X156967330Y-116751132D01*
X156967461Y-116752965D01*
X156971712Y-116759580D01*
X158103403Y-117891271D01*
X158137429Y-117953583D01*
X158132364Y-118024398D01*
X158103403Y-118069461D01*
X158069461Y-118103403D01*
X158007149Y-118137429D01*
X157936334Y-118132364D01*
X157891271Y-118103403D01*
X156762812Y-116974944D01*
X156748868Y-116967330D01*
X156747035Y-116967461D01*
X156740420Y-116971712D01*
X154750131Y-118962001D01*
X154742517Y-118975945D01*
X154742535Y-118976196D01*
X154748451Y-118984943D01*
X154856157Y-119082948D01*
X154861781Y-119087503D01*
X155136845Y-119285156D01*
X155142975Y-119289046D01*
X155438923Y-119453769D01*
X155445443Y-119456921D01*
X155566564Y-119507091D01*
X155621845Y-119551639D01*
X155644266Y-119619003D01*
X155626708Y-119687794D01*
X155574746Y-119736172D01*
X155518346Y-119749500D01*
X131276438Y-119749500D01*
X131208317Y-119729498D01*
X131161824Y-119675842D01*
X131151720Y-119605568D01*
X131181214Y-119540988D01*
X131187343Y-119534405D01*
X132142895Y-118578853D01*
X132205207Y-118544827D01*
X132270927Y-118548115D01*
X132273160Y-118548841D01*
X132278470Y-118551122D01*
X132284102Y-118552396D01*
X132284107Y-118552398D01*
X132445180Y-118588845D01*
X132475740Y-118595760D01*
X132481509Y-118595987D01*
X132481512Y-118595987D01*
X132557683Y-118598979D01*
X132677842Y-118603700D01*
X132764132Y-118591189D01*
X132872286Y-118575508D01*
X132872291Y-118575507D01*
X132878007Y-118574678D01*
X132883479Y-118572820D01*
X132883481Y-118572820D01*
X133064067Y-118511519D01*
X133064069Y-118511518D01*
X133069531Y-118509664D01*
X133246001Y-118410837D01*
X133261506Y-118397942D01*
X133397073Y-118285191D01*
X133401505Y-118281505D01*
X133530837Y-118126001D01*
X133629664Y-117949531D01*
X133648005Y-117895502D01*
X133692820Y-117763481D01*
X133692820Y-117763479D01*
X133694678Y-117758007D01*
X133695507Y-117752291D01*
X133695508Y-117752286D01*
X133708076Y-117665603D01*
X134018305Y-117665603D01*
X134018914Y-117674901D01*
X134020715Y-117686273D01*
X134069896Y-117879923D01*
X134073737Y-117890769D01*
X134157386Y-118072218D01*
X134163137Y-118082179D01*
X134278455Y-118245350D01*
X134285921Y-118254092D01*
X134429047Y-118393520D01*
X134437981Y-118400754D01*
X134604112Y-118511760D01*
X134614225Y-118517251D01*
X134797805Y-118596123D01*
X134808738Y-118599675D01*
X134998700Y-118642658D01*
X135007300Y-118640491D01*
X135007666Y-118640100D01*
X135010000Y-118630291D01*
X135010000Y-118622244D01*
X135310000Y-118622244D01*
X135313966Y-118635750D01*
X135327966Y-118637754D01*
X135423898Y-118623845D01*
X135435081Y-118621160D01*
X135624283Y-118556934D01*
X135634786Y-118552258D01*
X135809124Y-118454625D01*
X135818596Y-118448115D01*
X135972219Y-118320348D01*
X135980348Y-118312219D01*
X136108115Y-118158596D01*
X136114625Y-118149124D01*
X136212258Y-117974786D01*
X136216934Y-117964283D01*
X136281160Y-117775081D01*
X136283845Y-117763898D01*
X136297759Y-117667929D01*
X136295773Y-117653993D01*
X136282205Y-117650000D01*
X135328115Y-117650000D01*
X135312876Y-117654475D01*
X135311671Y-117655865D01*
X135310000Y-117663548D01*
X135310000Y-118622244D01*
X135010000Y-118622244D01*
X135010000Y-117668115D01*
X135005525Y-117652876D01*
X135004135Y-117651671D01*
X134996452Y-117650000D01*
X134035397Y-117650000D01*
X134020357Y-117654416D01*
X134018305Y-117665603D01*
X133708076Y-117665603D01*
X133714401Y-117621976D01*
X133723700Y-117557842D01*
X133725215Y-117500000D01*
X133709779Y-117332012D01*
X134021773Y-117332012D01*
X134024215Y-117346431D01*
X134036957Y-117350000D01*
X134991885Y-117350000D01*
X135007124Y-117345525D01*
X135008329Y-117344135D01*
X135010000Y-117336452D01*
X135010000Y-117331885D01*
X135310000Y-117331885D01*
X135314475Y-117347124D01*
X135315865Y-117348329D01*
X135323548Y-117350000D01*
X136283029Y-117350000D01*
X136297574Y-117345729D01*
X136299637Y-117333595D01*
X136296117Y-117295285D01*
X136294020Y-117283971D01*
X136239785Y-117091670D01*
X136235663Y-117080931D01*
X136147292Y-116901733D01*
X136141282Y-116891925D01*
X136021731Y-116731827D01*
X136014041Y-116723287D01*
X135944755Y-116659239D01*
X153746494Y-116659239D01*
X153755360Y-116997834D01*
X153755966Y-117005050D01*
X153803693Y-117340391D01*
X153805122Y-117347480D01*
X153891074Y-117675110D01*
X153893314Y-117682005D01*
X154016348Y-117997571D01*
X154019373Y-118004177D01*
X154177857Y-118303501D01*
X154181616Y-118309709D01*
X154373461Y-118588845D01*
X154377906Y-118594574D01*
X154512940Y-118749367D01*
X154526112Y-118757771D01*
X154535965Y-118751903D01*
X156525056Y-116762812D01*
X156532670Y-116748868D01*
X156532539Y-116747035D01*
X156528288Y-116740420D01*
X154535880Y-114748012D01*
X154521936Y-114740398D01*
X154520277Y-114740516D01*
X154513424Y-114744946D01*
X154498405Y-114760123D01*
X154493611Y-114765561D01*
X154284618Y-115032101D01*
X154280483Y-115038050D01*
X154103503Y-115326855D01*
X154100082Y-115333234D01*
X153957468Y-115640472D01*
X153954808Y-115647191D01*
X153848451Y-115968782D01*
X153846575Y-115975785D01*
X153777889Y-116307458D01*
X153776832Y-116314619D01*
X153746722Y-116651987D01*
X153746494Y-116659239D01*
X135944755Y-116659239D01*
X135867315Y-116587654D01*
X135858190Y-116580653D01*
X135689209Y-116474034D01*
X135678965Y-116468814D01*
X135493385Y-116394775D01*
X135482347Y-116391505D01*
X135327770Y-116360759D01*
X135314894Y-116361911D01*
X135310000Y-116377064D01*
X135310000Y-117331885D01*
X135010000Y-117331885D01*
X135010000Y-116376952D01*
X135006194Y-116363990D01*
X134991279Y-116362054D01*
X134866780Y-116383447D01*
X134855660Y-116386427D01*
X134668207Y-116455582D01*
X134657829Y-116460532D01*
X134486119Y-116562688D01*
X134476807Y-116569453D01*
X134326587Y-116701194D01*
X134318670Y-116709537D01*
X134194975Y-116866443D01*
X134188704Y-116876100D01*
X134095679Y-117052912D01*
X134091273Y-117063549D01*
X134032025Y-117254356D01*
X134029632Y-117265614D01*
X134021773Y-117332012D01*
X133709779Y-117332012D01*
X133706708Y-117298591D01*
X133701055Y-117278545D01*
X133653376Y-117109490D01*
X133651807Y-117103926D01*
X133562351Y-116922527D01*
X133546824Y-116901733D01*
X133444788Y-116765091D01*
X133444787Y-116765090D01*
X133441335Y-116760467D01*
X133437099Y-116756551D01*
X133297053Y-116627094D01*
X133297051Y-116627092D01*
X133292812Y-116623174D01*
X133265374Y-116605862D01*
X133126637Y-116518325D01*
X133121757Y-116515246D01*
X132933898Y-116440298D01*
X132735526Y-116400839D01*
X132729752Y-116400763D01*
X132729748Y-116400763D01*
X132627257Y-116399422D01*
X132533286Y-116398192D01*
X132527589Y-116399171D01*
X132527588Y-116399171D01*
X132339646Y-116431465D01*
X132339645Y-116431465D01*
X132333949Y-116432444D01*
X132315715Y-116439171D01*
X132278308Y-116452971D01*
X132207474Y-116457783D01*
X132145602Y-116423854D01*
X130462405Y-114740657D01*
X130428379Y-114678345D01*
X130425500Y-114651562D01*
X130425500Y-114523061D01*
X154739293Y-114523061D01*
X154739447Y-114525067D01*
X154743554Y-114531422D01*
X156737188Y-116525056D01*
X156751132Y-116532670D01*
X156752965Y-116532539D01*
X156759580Y-116528288D01*
X158750726Y-114537142D01*
X158758118Y-114523605D01*
X158751330Y-114513904D01*
X158569627Y-114358715D01*
X158563868Y-114354343D01*
X158282716Y-114165417D01*
X158276494Y-114161737D01*
X157975498Y-114006381D01*
X157968887Y-114003438D01*
X157652041Y-113883712D01*
X157645122Y-113881544D01*
X157316618Y-113799029D01*
X157309494Y-113797670D01*
X156973691Y-113753460D01*
X156966449Y-113752929D01*
X156627802Y-113747609D01*
X156620540Y-113747913D01*
X156283509Y-113781554D01*
X156276361Y-113782686D01*
X155945417Y-113854843D01*
X155938440Y-113856792D01*
X155617989Y-113966506D01*
X155611283Y-113969243D01*
X155305568Y-114115062D01*
X155299210Y-114118557D01*
X155012296Y-114298538D01*
X155006368Y-114302751D01*
X154745318Y-114511890D01*
X154739293Y-114523061D01*
X130425500Y-114523061D01*
X130425500Y-104392544D01*
X130445502Y-104324423D01*
X130451538Y-104315839D01*
X130475835Y-104284175D01*
X130480861Y-104277625D01*
X130536330Y-104143709D01*
X130555250Y-104000000D01*
X130536330Y-103856291D01*
X130480861Y-103722375D01*
X130392621Y-103607379D01*
X130386070Y-103602352D01*
X130382402Y-103598684D01*
X130348379Y-103536371D01*
X130345500Y-103509591D01*
X130345500Y-99325258D01*
X130365502Y-99257137D01*
X130419158Y-99210644D01*
X130488266Y-99200708D01*
X130488302Y-99200431D01*
X130489288Y-99200561D01*
X130489289Y-99200561D01*
X130489970Y-99200651D01*
X130489977Y-99200652D01*
X130520770Y-99204706D01*
X130536059Y-99206718D01*
X130600985Y-99235440D01*
X130608707Y-99242545D01*
X130964690Y-99598528D01*
X130986073Y-99609423D01*
X131002919Y-99619747D01*
X131022329Y-99633849D01*
X131031760Y-99636913D01*
X131031763Y-99636915D01*
X131045147Y-99641264D01*
X131063408Y-99648828D01*
X131075946Y-99655216D01*
X131084784Y-99659719D01*
X131108481Y-99663472D01*
X131127700Y-99668086D01*
X131150517Y-99675500D01*
X132357456Y-99675500D01*
X132425577Y-99695502D01*
X132434161Y-99701538D01*
X132472375Y-99730861D01*
X132606291Y-99786330D01*
X132750000Y-99805250D01*
X132893709Y-99786330D01*
X133027625Y-99730861D01*
X133142621Y-99642621D01*
X133230861Y-99527625D01*
X133286330Y-99393709D01*
X133305250Y-99250000D01*
X133286330Y-99106291D01*
X133230861Y-98972375D01*
X133142621Y-98857379D01*
X133027625Y-98769139D01*
X132893709Y-98713670D01*
X132750000Y-98694750D01*
X132606291Y-98713670D01*
X132472375Y-98769139D01*
X132465825Y-98774165D01*
X132434161Y-98798462D01*
X132367940Y-98824063D01*
X132357456Y-98824500D01*
X131446348Y-98824500D01*
X131378227Y-98804498D01*
X131357253Y-98787595D01*
X131210455Y-98640797D01*
X131176429Y-98578485D01*
X131174628Y-98568148D01*
X131169419Y-98528580D01*
X131168341Y-98520392D01*
X131149361Y-98474568D01*
X131116032Y-98394105D01*
X131112872Y-98386476D01*
X131024632Y-98271480D01*
X130909636Y-98183240D01*
X130775720Y-98127771D01*
X130632011Y-98108851D01*
X130488302Y-98127771D01*
X130487841Y-98124269D01*
X130433096Y-98122949D01*
X130374313Y-98083136D01*
X130346386Y-98017862D01*
X130345500Y-98002944D01*
X130345500Y-93596972D01*
X130365502Y-93528851D01*
X130409933Y-93487038D01*
X130540964Y-93413658D01*
X130540966Y-93413657D01*
X130540968Y-93413655D01*
X130546001Y-93410837D01*
X130546142Y-93411089D01*
X130610860Y-93389889D01*
X130679567Y-93407774D01*
X130727698Y-93459965D01*
X130739972Y-93529893D01*
X130731168Y-93564046D01*
X130713670Y-93606291D01*
X130694750Y-93750000D01*
X130713670Y-93893709D01*
X130769139Y-94027625D01*
X130857379Y-94142621D01*
X130972375Y-94230861D01*
X131106291Y-94286330D01*
X131250000Y-94305250D01*
X131393709Y-94286330D01*
X131401340Y-94283169D01*
X131409316Y-94281032D01*
X131410168Y-94284212D01*
X131465451Y-94278283D01*
X131532143Y-94313180D01*
X138446652Y-101227689D01*
X138461377Y-101245920D01*
X138462778Y-101247460D01*
X138468428Y-101256210D01*
X138476606Y-101262657D01*
X138494465Y-101276736D01*
X138498832Y-101280617D01*
X138498898Y-101280539D01*
X138502856Y-101283893D01*
X138506538Y-101287575D01*
X138510769Y-101290598D01*
X138510772Y-101290601D01*
X138515591Y-101294044D01*
X138522052Y-101298661D01*
X138526781Y-101302212D01*
X138566600Y-101333603D01*
X138575149Y-101336605D01*
X138582519Y-101341872D01*
X138631078Y-101356394D01*
X138636719Y-101358227D01*
X138677064Y-101372395D01*
X138684548Y-101375023D01*
X138690055Y-101375500D01*
X138692762Y-101375500D01*
X138695334Y-101375611D01*
X138695494Y-101375659D01*
X138695488Y-101375803D01*
X138696106Y-101375842D01*
X138702286Y-101377690D01*
X138755555Y-101375597D01*
X138760501Y-101375500D01*
X141042296Y-101375500D01*
X141110417Y-101395502D01*
X141118998Y-101401536D01*
X141222375Y-101480861D01*
X141356291Y-101536330D01*
X141500000Y-101555250D01*
X141643709Y-101536330D01*
X141777625Y-101480861D01*
X141892621Y-101392621D01*
X141980861Y-101277625D01*
X142036330Y-101143709D01*
X142040946Y-101108648D01*
X142069669Y-101043721D01*
X142128934Y-101004630D01*
X142199926Y-101003785D01*
X142254963Y-101036000D01*
X143374174Y-102155212D01*
X144485651Y-103266689D01*
X144519677Y-103329001D01*
X144522556Y-103355784D01*
X144522556Y-103894240D01*
X144502554Y-103962361D01*
X144496520Y-103970942D01*
X144417195Y-104074319D01*
X144361726Y-104208235D01*
X144342806Y-104351944D01*
X144361726Y-104495653D01*
X144417195Y-104629569D01*
X144505435Y-104744565D01*
X144620431Y-104832805D01*
X144754347Y-104888274D01*
X144898056Y-104907194D01*
X145041765Y-104888274D01*
X145175681Y-104832805D01*
X145182235Y-104827776D01*
X145185498Y-104825892D01*
X145254493Y-104809153D01*
X145321585Y-104832372D01*
X145365473Y-104888178D01*
X145374500Y-104935010D01*
X145374500Y-105538386D01*
X145354498Y-105606507D01*
X145300842Y-105653000D01*
X145230568Y-105663104D01*
X145165988Y-105633610D01*
X145148542Y-105615095D01*
X145142621Y-105607379D01*
X145027625Y-105519139D01*
X144996351Y-105506185D01*
X144901339Y-105466830D01*
X144901336Y-105466829D01*
X144893709Y-105463670D01*
X144845952Y-105457383D01*
X144781026Y-105428661D01*
X144773304Y-105421556D01*
X144753220Y-105401472D01*
X144731837Y-105390577D01*
X144714991Y-105380253D01*
X144703604Y-105371980D01*
X144695581Y-105366151D01*
X144686150Y-105363087D01*
X144686147Y-105363085D01*
X144672763Y-105358736D01*
X144654502Y-105351172D01*
X144641964Y-105344784D01*
X144641963Y-105344784D01*
X144633126Y-105340281D01*
X144609429Y-105336528D01*
X144590210Y-105331914D01*
X144567393Y-105324500D01*
X136258563Y-105324500D01*
X136190442Y-105304498D01*
X136143949Y-105250842D01*
X136133845Y-105180568D01*
X136158601Y-105121796D01*
X136180625Y-105093094D01*
X136230861Y-105027625D01*
X136286330Y-104893709D01*
X136305250Y-104750000D01*
X136286330Y-104606291D01*
X136230861Y-104472375D01*
X136142621Y-104357379D01*
X136027625Y-104269139D01*
X135893709Y-104213670D01*
X135750000Y-104194750D01*
X135606291Y-104213670D01*
X135472375Y-104269139D01*
X135465825Y-104274165D01*
X135434161Y-104298462D01*
X135367940Y-104324063D01*
X135357456Y-104324500D01*
X133182607Y-104324500D01*
X133173180Y-104327563D01*
X133173173Y-104327564D01*
X133159788Y-104331913D01*
X133140569Y-104336527D01*
X133126669Y-104338729D01*
X133126666Y-104338730D01*
X133116874Y-104340281D01*
X133095503Y-104351170D01*
X133077239Y-104358735D01*
X133063852Y-104363085D01*
X133063849Y-104363086D01*
X133054420Y-104366150D01*
X133035006Y-104380256D01*
X133018154Y-104390582D01*
X132996780Y-104401472D01*
X131401472Y-105996780D01*
X131390577Y-106018163D01*
X131380253Y-106035009D01*
X131366151Y-106054419D01*
X131363087Y-106063850D01*
X131363085Y-106063853D01*
X131358736Y-106077237D01*
X131351172Y-106095498D01*
X131344784Y-106108036D01*
X131340281Y-106116874D01*
X131336528Y-106140570D01*
X131331914Y-106159790D01*
X131324500Y-106182607D01*
X131324500Y-112107456D01*
X131304498Y-112175577D01*
X131298462Y-112184161D01*
X131269139Y-112222375D01*
X131213670Y-112356291D01*
X131194750Y-112500000D01*
X131213670Y-112643709D01*
X131269139Y-112777625D01*
X131357379Y-112892621D01*
X131472375Y-112980861D01*
X131606291Y-113036330D01*
X131750000Y-113055250D01*
X131893709Y-113036330D01*
X132027625Y-112980861D01*
X132142621Y-112892621D01*
X132230861Y-112777625D01*
X132286330Y-112643709D01*
X132305250Y-112500000D01*
X132286330Y-112356291D01*
X132230861Y-112222375D01*
X132201538Y-112184161D01*
X132175937Y-112117940D01*
X132175500Y-112107456D01*
X132175500Y-106478438D01*
X132195502Y-106410317D01*
X132212405Y-106389343D01*
X133389343Y-105212405D01*
X133451655Y-105178379D01*
X133478438Y-105175500D01*
X133491437Y-105175500D01*
X133559558Y-105195502D01*
X133606051Y-105249158D01*
X133616155Y-105319432D01*
X133591399Y-105378204D01*
X133581900Y-105390584D01*
X133519139Y-105472375D01*
X133463670Y-105606291D01*
X133444750Y-105750000D01*
X133463670Y-105893709D01*
X133519139Y-106027625D01*
X133607379Y-106142621D01*
X133722375Y-106230861D01*
X133856291Y-106286330D01*
X134000000Y-106305250D01*
X134143709Y-106286330D01*
X134277625Y-106230861D01*
X134315839Y-106201538D01*
X134382060Y-106175937D01*
X134392544Y-106175500D01*
X144142647Y-106175500D01*
X144210768Y-106195502D01*
X144259056Y-106253283D01*
X144265977Y-106269993D01*
X144265980Y-106269998D01*
X144269139Y-106277625D01*
X144357379Y-106392621D01*
X144472375Y-106480861D01*
X144606291Y-106536330D01*
X144750000Y-106555250D01*
X144893709Y-106536330D01*
X145027625Y-106480861D01*
X145142621Y-106392621D01*
X145148539Y-106384908D01*
X145149542Y-106384176D01*
X145153488Y-106380230D01*
X145154103Y-106380845D01*
X145205877Y-106343042D01*
X145276748Y-106338821D01*
X145338650Y-106373586D01*
X145371931Y-106436299D01*
X145374500Y-106461614D01*
X145374500Y-106792273D01*
X145354498Y-106860394D01*
X145337595Y-106881368D01*
X144631368Y-107587595D01*
X144569056Y-107621621D01*
X144542273Y-107624500D01*
X140707704Y-107624500D01*
X140639583Y-107604498D01*
X140631000Y-107598462D01*
X140607821Y-107580676D01*
X140527625Y-107519139D01*
X140393709Y-107463670D01*
X140250000Y-107444750D01*
X140106291Y-107463670D01*
X139972375Y-107519139D01*
X139857379Y-107607379D01*
X139769139Y-107722375D01*
X139713670Y-107856291D01*
X139694750Y-108000000D01*
X139713670Y-108143709D01*
X139769139Y-108277625D01*
X139857379Y-108392621D01*
X139972375Y-108480861D01*
X140106291Y-108536330D01*
X140250000Y-108555250D01*
X140393709Y-108536330D01*
X140527625Y-108480861D01*
X140631000Y-108401538D01*
X140697220Y-108375937D01*
X140707704Y-108375500D01*
X144696504Y-108375500D01*
X144719801Y-108377979D01*
X144721886Y-108378077D01*
X144732066Y-108380269D01*
X144764984Y-108376373D01*
X144770821Y-108376029D01*
X144770813Y-108375928D01*
X144775992Y-108375500D01*
X144781193Y-108375500D01*
X144786321Y-108374646D01*
X144786327Y-108374646D01*
X144799987Y-108372372D01*
X144805863Y-108371535D01*
X144810952Y-108370933D01*
X144856210Y-108365576D01*
X144864377Y-108361654D01*
X144873313Y-108360167D01*
X144882475Y-108355223D01*
X144882479Y-108355222D01*
X144917929Y-108336094D01*
X144923220Y-108333398D01*
X144961749Y-108314897D01*
X144961750Y-108314896D01*
X144968900Y-108311463D01*
X144973131Y-108307906D01*
X144975063Y-108305974D01*
X144976937Y-108304255D01*
X144977074Y-108304181D01*
X144977174Y-108304291D01*
X144977654Y-108303868D01*
X144983329Y-108300806D01*
X145019541Y-108261632D01*
X145022970Y-108258067D01*
X145160789Y-108120248D01*
X157070000Y-108120248D01*
X157070538Y-108128457D01*
X157083400Y-108226154D01*
X157087638Y-108241971D01*
X157137997Y-108363547D01*
X157146184Y-108377728D01*
X157226297Y-108482134D01*
X157237866Y-108493703D01*
X157342272Y-108573816D01*
X157356453Y-108582003D01*
X157478029Y-108632362D01*
X157493846Y-108636600D01*
X157591543Y-108649462D01*
X157599752Y-108650000D01*
X158131885Y-108650000D01*
X158147124Y-108645525D01*
X158148329Y-108644135D01*
X158150000Y-108636452D01*
X158150000Y-107993115D01*
X158145525Y-107977876D01*
X158144135Y-107976671D01*
X158136452Y-107975000D01*
X157088115Y-107975000D01*
X157072876Y-107979475D01*
X157071671Y-107980865D01*
X157070000Y-107988548D01*
X157070000Y-108120248D01*
X145160789Y-108120248D01*
X145624152Y-107656885D01*
X157070000Y-107656885D01*
X157074475Y-107672124D01*
X157075865Y-107673329D01*
X157083548Y-107675000D01*
X158131885Y-107675000D01*
X158147124Y-107670525D01*
X158148329Y-107669135D01*
X158150000Y-107661452D01*
X158150000Y-107018115D01*
X158145525Y-107002876D01*
X158144135Y-107001671D01*
X158136452Y-107000000D01*
X157599752Y-107000000D01*
X157591543Y-107000538D01*
X157493846Y-107013400D01*
X157478029Y-107017638D01*
X157356453Y-107067997D01*
X157342272Y-107076184D01*
X157237866Y-107156297D01*
X157226297Y-107167866D01*
X157146184Y-107272272D01*
X157137997Y-107286453D01*
X157087638Y-107408029D01*
X157083400Y-107423846D01*
X157070538Y-107521543D01*
X157070000Y-107529752D01*
X157070000Y-107656885D01*
X145624152Y-107656885D01*
X145977689Y-107303348D01*
X145995920Y-107288623D01*
X145997460Y-107287222D01*
X146006210Y-107281572D01*
X146026736Y-107255535D01*
X146030617Y-107251168D01*
X146030539Y-107251102D01*
X146033893Y-107247144D01*
X146037575Y-107243462D01*
X146048661Y-107227948D01*
X146052217Y-107223212D01*
X146052620Y-107222701D01*
X146083603Y-107183400D01*
X146086605Y-107174851D01*
X146091872Y-107167481D01*
X146106394Y-107118922D01*
X146108227Y-107113281D01*
X146122395Y-107072936D01*
X146122395Y-107072935D01*
X146125023Y-107065452D01*
X146125500Y-107059945D01*
X146125500Y-107057238D01*
X146125611Y-107054666D01*
X146125659Y-107054506D01*
X146125803Y-107054512D01*
X146125842Y-107053894D01*
X146127690Y-107047714D01*
X146125815Y-107000000D01*
X155569534Y-107000000D01*
X155589313Y-107150236D01*
X155647302Y-107290233D01*
X155739549Y-107410451D01*
X155859767Y-107502698D01*
X155999764Y-107560687D01*
X156112280Y-107575500D01*
X156187720Y-107575500D01*
X156300236Y-107560687D01*
X156440233Y-107502698D01*
X156560451Y-107410451D01*
X156652698Y-107290233D01*
X156710687Y-107150236D01*
X156730466Y-107000000D01*
X156710687Y-106849764D01*
X156652698Y-106709767D01*
X156560451Y-106589549D01*
X156440233Y-106497302D01*
X156300236Y-106439313D01*
X156292048Y-106438235D01*
X156191807Y-106425038D01*
X156191806Y-106425038D01*
X156187720Y-106424500D01*
X156112280Y-106424500D01*
X156108194Y-106425038D01*
X156108193Y-106425038D01*
X156007952Y-106438235D01*
X155999764Y-106439313D01*
X155859767Y-106497302D01*
X155739549Y-106589549D01*
X155647302Y-106709767D01*
X155589313Y-106849764D01*
X155569534Y-107000000D01*
X146125815Y-107000000D01*
X146125597Y-106994445D01*
X146125500Y-106989499D01*
X146125500Y-103000000D01*
X155569534Y-103000000D01*
X155589313Y-103150236D01*
X155592473Y-103157865D01*
X155595759Y-103165797D01*
X155647302Y-103290233D01*
X155739549Y-103410451D01*
X155859767Y-103502698D01*
X155999764Y-103560687D01*
X156112280Y-103575500D01*
X156187720Y-103575500D01*
X156300236Y-103560687D01*
X156440233Y-103502698D01*
X156560451Y-103410451D01*
X156652698Y-103290233D01*
X156704241Y-103165797D01*
X156707527Y-103157865D01*
X156710687Y-103150236D01*
X156730466Y-103000000D01*
X156710687Y-102849764D01*
X156652698Y-102709767D01*
X156560451Y-102589549D01*
X156440233Y-102497302D01*
X156374919Y-102470248D01*
X157070000Y-102470248D01*
X157070538Y-102478457D01*
X157083400Y-102576154D01*
X157087638Y-102591971D01*
X157137997Y-102713547D01*
X157146184Y-102727728D01*
X157226297Y-102832134D01*
X157237866Y-102843703D01*
X157342272Y-102923816D01*
X157356453Y-102932003D01*
X157478029Y-102982362D01*
X157493846Y-102986600D01*
X157591543Y-102999462D01*
X157599752Y-103000000D01*
X158131885Y-103000000D01*
X158147124Y-102995525D01*
X158148329Y-102994135D01*
X158150000Y-102986452D01*
X158150000Y-102343115D01*
X158145525Y-102327876D01*
X158144135Y-102326671D01*
X158136452Y-102325000D01*
X157088115Y-102325000D01*
X157072876Y-102329475D01*
X157071671Y-102330865D01*
X157070000Y-102338548D01*
X157070000Y-102470248D01*
X156374919Y-102470248D01*
X156300236Y-102439313D01*
X156187720Y-102424500D01*
X156112280Y-102424500D01*
X155999764Y-102439313D01*
X155859767Y-102497302D01*
X155739549Y-102589549D01*
X155647302Y-102709767D01*
X155589313Y-102849764D01*
X155569534Y-103000000D01*
X146125500Y-103000000D01*
X146125500Y-102457727D01*
X146145502Y-102389606D01*
X146162405Y-102368632D01*
X146441872Y-102089165D01*
X146504184Y-102055139D01*
X146514515Y-102053339D01*
X146643709Y-102036330D01*
X146714797Y-102006885D01*
X157070000Y-102006885D01*
X157074475Y-102022124D01*
X157075865Y-102023329D01*
X157083548Y-102025000D01*
X158131885Y-102025000D01*
X158147124Y-102020525D01*
X158148329Y-102019135D01*
X158150000Y-102011452D01*
X158150000Y-101368115D01*
X158145525Y-101352876D01*
X158144135Y-101351671D01*
X158136452Y-101350000D01*
X157599752Y-101350000D01*
X157591543Y-101350538D01*
X157493846Y-101363400D01*
X157478029Y-101367638D01*
X157356453Y-101417997D01*
X157342272Y-101426184D01*
X157237866Y-101506297D01*
X157226297Y-101517866D01*
X157146184Y-101622272D01*
X157137997Y-101636453D01*
X157087638Y-101758029D01*
X157083400Y-101773846D01*
X157070538Y-101871543D01*
X157070000Y-101879752D01*
X157070000Y-102006885D01*
X146714797Y-102006885D01*
X146777625Y-101980861D01*
X146892621Y-101892621D01*
X146980861Y-101777625D01*
X146985564Y-101766272D01*
X147033169Y-101651340D01*
X147036330Y-101643709D01*
X147055250Y-101500000D01*
X147043992Y-101414487D01*
X147037408Y-101364478D01*
X147037408Y-101364477D01*
X147036330Y-101356291D01*
X146980861Y-101222375D01*
X146892621Y-101107379D01*
X146777625Y-101019139D01*
X146643709Y-100963670D01*
X146500000Y-100944750D01*
X146356291Y-100963670D01*
X146348659Y-100966831D01*
X146348660Y-100966831D01*
X146299718Y-100987103D01*
X146229128Y-100994692D01*
X146165641Y-100962912D01*
X146129414Y-100901854D01*
X146125500Y-100870694D01*
X146125500Y-99803497D01*
X146127979Y-99780209D01*
X146128078Y-99778111D01*
X146130269Y-99767934D01*
X146126373Y-99735016D01*
X146126029Y-99729179D01*
X146125928Y-99729187D01*
X146125500Y-99724008D01*
X146125500Y-99718807D01*
X146122372Y-99700013D01*
X146121535Y-99694137D01*
X146118089Y-99665023D01*
X146115576Y-99643790D01*
X146111654Y-99635623D01*
X146110167Y-99626687D01*
X146105223Y-99617525D01*
X146105222Y-99617521D01*
X146086094Y-99582071D01*
X146083398Y-99576780D01*
X146064897Y-99538251D01*
X146064896Y-99538250D01*
X146061463Y-99531100D01*
X146057906Y-99526869D01*
X146055974Y-99524937D01*
X146054255Y-99523063D01*
X146054181Y-99522926D01*
X146054291Y-99522826D01*
X146053868Y-99522346D01*
X146050806Y-99516671D01*
X146039490Y-99506210D01*
X146011633Y-99480460D01*
X146008067Y-99477030D01*
X145303348Y-98772311D01*
X145288623Y-98754080D01*
X145287222Y-98752540D01*
X145281572Y-98743790D01*
X145255535Y-98723264D01*
X145251168Y-98719383D01*
X145251102Y-98719461D01*
X145247144Y-98716107D01*
X145243462Y-98712425D01*
X145239231Y-98709402D01*
X145239228Y-98709399D01*
X145234409Y-98705956D01*
X145227948Y-98701339D01*
X145223212Y-98697783D01*
X145219365Y-98694750D01*
X145183400Y-98666397D01*
X145174851Y-98663395D01*
X145167481Y-98658128D01*
X145134203Y-98648176D01*
X145118930Y-98643608D01*
X145113286Y-98641774D01*
X145072935Y-98627604D01*
X145072929Y-98627603D01*
X145065452Y-98624977D01*
X145059945Y-98624500D01*
X145057238Y-98624500D01*
X145054665Y-98624389D01*
X145054506Y-98624341D01*
X145054512Y-98624197D01*
X145053892Y-98624158D01*
X145047713Y-98622310D01*
X144994445Y-98624403D01*
X144989498Y-98624500D01*
X141707727Y-98624500D01*
X141639606Y-98604498D01*
X141618632Y-98587595D01*
X138506982Y-95475945D01*
X154742517Y-95475945D01*
X154742535Y-95476196D01*
X154748451Y-95484943D01*
X154856157Y-95582948D01*
X154861781Y-95587503D01*
X155136845Y-95785156D01*
X155142975Y-95789046D01*
X155438923Y-95953769D01*
X155445443Y-95956921D01*
X155758373Y-96086540D01*
X155765224Y-96088926D01*
X156090960Y-96181715D01*
X156098049Y-96183299D01*
X156432303Y-96238036D01*
X156439509Y-96238793D01*
X156777842Y-96254748D01*
X156785092Y-96254672D01*
X157123006Y-96231636D01*
X157130215Y-96230725D01*
X157463248Y-96169001D01*
X157470278Y-96167274D01*
X157794012Y-96067680D01*
X157800823Y-96065147D01*
X158110948Y-95929012D01*
X158117415Y-95925717D01*
X158409858Y-95754827D01*
X158415891Y-95750818D01*
X158686757Y-95547447D01*
X158692281Y-95542779D01*
X158750134Y-95487879D01*
X158758110Y-95474141D01*
X158758066Y-95473183D01*
X158753106Y-95465238D01*
X156762812Y-93474944D01*
X156748868Y-93467330D01*
X156747035Y-93467461D01*
X156740420Y-93471712D01*
X154750131Y-95462001D01*
X154742517Y-95475945D01*
X138506982Y-95475945D01*
X136190276Y-93159239D01*
X153746494Y-93159239D01*
X153755360Y-93497834D01*
X153755966Y-93505050D01*
X153803693Y-93840391D01*
X153805122Y-93847480D01*
X153891074Y-94175110D01*
X153893314Y-94182005D01*
X154016348Y-94497571D01*
X154019373Y-94504177D01*
X154177857Y-94803501D01*
X154181616Y-94809709D01*
X154373461Y-95088845D01*
X154377906Y-95094574D01*
X154512940Y-95249367D01*
X154526112Y-95257771D01*
X154535965Y-95251903D01*
X156525056Y-93262812D01*
X156532670Y-93248868D01*
X156532539Y-93247035D01*
X156528288Y-93240420D01*
X154535880Y-91248012D01*
X154521936Y-91240398D01*
X154520277Y-91240516D01*
X154513424Y-91244946D01*
X154498405Y-91260123D01*
X154493611Y-91265561D01*
X154284618Y-91532101D01*
X154280483Y-91538050D01*
X154103503Y-91826855D01*
X154100082Y-91833234D01*
X153957468Y-92140472D01*
X153954808Y-92147191D01*
X153848451Y-92468782D01*
X153846575Y-92475785D01*
X153777889Y-92807458D01*
X153776832Y-92814619D01*
X153746722Y-93151987D01*
X153746494Y-93159239D01*
X136190276Y-93159239D01*
X136137405Y-93106368D01*
X136103379Y-93044056D01*
X136100500Y-93017273D01*
X136100500Y-91625326D01*
X136085966Y-91552260D01*
X136072497Y-91532101D01*
X136037493Y-91479714D01*
X136030601Y-91469399D01*
X135947740Y-91414034D01*
X135874674Y-91399500D01*
X134125326Y-91399500D01*
X134052260Y-91414034D01*
X133969399Y-91469399D01*
X133962507Y-91479714D01*
X133927504Y-91532101D01*
X133914034Y-91552260D01*
X133899500Y-91625326D01*
X133899500Y-93104273D01*
X133879498Y-93172394D01*
X133825842Y-93218887D01*
X133755568Y-93228991D01*
X133690988Y-93199497D01*
X133684405Y-93193368D01*
X133517694Y-93026657D01*
X133483668Y-92964345D01*
X133487476Y-92897061D01*
X133532819Y-92763485D01*
X133532820Y-92763480D01*
X133534678Y-92758007D01*
X133535507Y-92752291D01*
X133535508Y-92752286D01*
X133563167Y-92561516D01*
X133563700Y-92557842D01*
X133565215Y-92500000D01*
X133546708Y-92298591D01*
X133534233Y-92254356D01*
X133493376Y-92109490D01*
X133491807Y-92103926D01*
X133402351Y-91922527D01*
X133398352Y-91917171D01*
X133284788Y-91765091D01*
X133284787Y-91765090D01*
X133281335Y-91760467D01*
X133271299Y-91751190D01*
X133137053Y-91627094D01*
X133137051Y-91627092D01*
X133132812Y-91623174D01*
X133126607Y-91619259D01*
X132966637Y-91518325D01*
X132961757Y-91515246D01*
X132773898Y-91440298D01*
X132575526Y-91400839D01*
X132569752Y-91400763D01*
X132569748Y-91400763D01*
X132467257Y-91399422D01*
X132373286Y-91398192D01*
X132367589Y-91399171D01*
X132367588Y-91399171D01*
X132179646Y-91431465D01*
X132179645Y-91431465D01*
X132173949Y-91432444D01*
X131984193Y-91502449D01*
X131979232Y-91505401D01*
X131979231Y-91505401D01*
X131852744Y-91580653D01*
X131810371Y-91605862D01*
X131658305Y-91739220D01*
X131533089Y-91898057D01*
X131438914Y-92077053D01*
X131378937Y-92270213D01*
X131355164Y-92471069D01*
X131368392Y-92672894D01*
X131418178Y-92868928D01*
X131420595Y-92874172D01*
X131420598Y-92874179D01*
X131493299Y-93031879D01*
X131503654Y-93102116D01*
X131474391Y-93166802D01*
X131414803Y-93205399D01*
X131362429Y-93209552D01*
X131250000Y-93194750D01*
X131106291Y-93213670D01*
X131019409Y-93249657D01*
X130948820Y-93257246D01*
X130885333Y-93225466D01*
X130849106Y-93164408D01*
X130851640Y-93093457D01*
X130861257Y-93071682D01*
X130891727Y-93017273D01*
X130929664Y-92949531D01*
X130992819Y-92763485D01*
X130992820Y-92763481D01*
X130992820Y-92763479D01*
X130994678Y-92758007D01*
X130995507Y-92752291D01*
X130995508Y-92752286D01*
X131023167Y-92561516D01*
X131023700Y-92557842D01*
X131025215Y-92500000D01*
X131006708Y-92298591D01*
X130994233Y-92254356D01*
X130953376Y-92109490D01*
X130951807Y-92103926D01*
X130862351Y-91922527D01*
X130858352Y-91917171D01*
X130744788Y-91765091D01*
X130744787Y-91765090D01*
X130741335Y-91760467D01*
X130731299Y-91751190D01*
X130597053Y-91627094D01*
X130597051Y-91627092D01*
X130592812Y-91623174D01*
X130586607Y-91619259D01*
X130426637Y-91518325D01*
X130421757Y-91515246D01*
X130233898Y-91440298D01*
X130035526Y-91400839D01*
X130029752Y-91400763D01*
X130029748Y-91400763D01*
X129927257Y-91399422D01*
X129833286Y-91398192D01*
X129827589Y-91399171D01*
X129827588Y-91399171D01*
X129639646Y-91431465D01*
X129639645Y-91431465D01*
X129633949Y-91432444D01*
X129444193Y-91502449D01*
X129439232Y-91505401D01*
X129439231Y-91505401D01*
X129312744Y-91580653D01*
X129270371Y-91605862D01*
X129118305Y-91739220D01*
X128993089Y-91898057D01*
X128898914Y-92077053D01*
X128838937Y-92270213D01*
X128815164Y-92471069D01*
X128828392Y-92672894D01*
X128878178Y-92868928D01*
X128962856Y-93052607D01*
X128966189Y-93057323D01*
X129075922Y-93212592D01*
X129079588Y-93217780D01*
X129083730Y-93221815D01*
X129120101Y-93257246D01*
X129224466Y-93358913D01*
X129392637Y-93471282D01*
X129397940Y-93473560D01*
X129397943Y-93473562D01*
X129418238Y-93482281D01*
X129472931Y-93527549D01*
X129494500Y-93598049D01*
X129494500Y-103756797D01*
X129484909Y-103805015D01*
X129463670Y-103856291D01*
X129444750Y-104000000D01*
X129463670Y-104143709D01*
X129519139Y-104277625D01*
X129524165Y-104284175D01*
X129548462Y-104315839D01*
X129574063Y-104382060D01*
X129574500Y-104392544D01*
X129574500Y-114947393D01*
X129581914Y-114970210D01*
X129586528Y-114989429D01*
X129590281Y-115013126D01*
X129594784Y-115021963D01*
X129594784Y-115021964D01*
X129601172Y-115034502D01*
X129608736Y-115052763D01*
X129613085Y-115066147D01*
X129613087Y-115066150D01*
X129616151Y-115075581D01*
X129621980Y-115083604D01*
X129630253Y-115094991D01*
X129640577Y-115111837D01*
X129651472Y-115133220D01*
X131544260Y-117026008D01*
X131578286Y-117088320D01*
X131575498Y-117152466D01*
X131538937Y-117270213D01*
X131515164Y-117471069D01*
X131528392Y-117672894D01*
X131529815Y-117678496D01*
X131574950Y-117856220D01*
X131572331Y-117927169D01*
X131541922Y-117976330D01*
X130730657Y-118787595D01*
X130668345Y-118821621D01*
X130641562Y-118824500D01*
X130359728Y-118824500D01*
X130291607Y-118804498D01*
X130245114Y-118750842D01*
X130235010Y-118680568D01*
X130264504Y-118615988D01*
X130330313Y-118575982D01*
X130332294Y-118575506D01*
X130338007Y-118574678D01*
X130519521Y-118513062D01*
X130524067Y-118511519D01*
X130524069Y-118511518D01*
X130529531Y-118509664D01*
X130706001Y-118410837D01*
X130721506Y-118397942D01*
X130857073Y-118285191D01*
X130861505Y-118281505D01*
X130990837Y-118126001D01*
X131089664Y-117949531D01*
X131108005Y-117895502D01*
X131152820Y-117763481D01*
X131152820Y-117763479D01*
X131154678Y-117758007D01*
X131155507Y-117752291D01*
X131155508Y-117752286D01*
X131174401Y-117621976D01*
X131183700Y-117557842D01*
X131185215Y-117500000D01*
X131166708Y-117298591D01*
X131161055Y-117278545D01*
X131113376Y-117109490D01*
X131111807Y-117103926D01*
X131022351Y-116922527D01*
X131006824Y-116901733D01*
X130904788Y-116765091D01*
X130904787Y-116765090D01*
X130901335Y-116760467D01*
X130897099Y-116756551D01*
X130757053Y-116627094D01*
X130757051Y-116627092D01*
X130752812Y-116623174D01*
X130725374Y-116605862D01*
X130586637Y-116518325D01*
X130581757Y-116515246D01*
X130393898Y-116440298D01*
X130195526Y-116400839D01*
X130189752Y-116400763D01*
X130189748Y-116400763D01*
X130087257Y-116399422D01*
X129993286Y-116398192D01*
X129987589Y-116399171D01*
X129987588Y-116399171D01*
X129799646Y-116431465D01*
X129799645Y-116431465D01*
X129793949Y-116432444D01*
X129604193Y-116502449D01*
X129599232Y-116505401D01*
X129599231Y-116505401D01*
X129468552Y-116583147D01*
X129430371Y-116605862D01*
X129278305Y-116739220D01*
X129153089Y-116898057D01*
X129058914Y-117077053D01*
X128998937Y-117270213D01*
X128975164Y-117471069D01*
X128988392Y-117672894D01*
X128989815Y-117678496D01*
X129034951Y-117856220D01*
X129038178Y-117868928D01*
X129122856Y-118052607D01*
X129126189Y-118057323D01*
X129236196Y-118212980D01*
X129239588Y-118217780D01*
X129243730Y-118221815D01*
X129278379Y-118255568D01*
X129384466Y-118358913D01*
X129552637Y-118471282D01*
X129557940Y-118473560D01*
X129557943Y-118473562D01*
X129709506Y-118538678D01*
X129738470Y-118551122D01*
X129829841Y-118571797D01*
X129846677Y-118575607D01*
X129908704Y-118610150D01*
X129942208Y-118672744D01*
X129936554Y-118743515D01*
X129893535Y-118799994D01*
X129826810Y-118824249D01*
X129818869Y-118824500D01*
X127819728Y-118824500D01*
X127751607Y-118804498D01*
X127705114Y-118750842D01*
X127695010Y-118680568D01*
X127724504Y-118615988D01*
X127790313Y-118575982D01*
X127792294Y-118575506D01*
X127798007Y-118574678D01*
X127979521Y-118513062D01*
X127984067Y-118511519D01*
X127984069Y-118511518D01*
X127989531Y-118509664D01*
X128166001Y-118410837D01*
X128181506Y-118397942D01*
X128317073Y-118285191D01*
X128321505Y-118281505D01*
X128450837Y-118126001D01*
X128549664Y-117949531D01*
X128568005Y-117895502D01*
X128612820Y-117763481D01*
X128612820Y-117763479D01*
X128614678Y-117758007D01*
X128615507Y-117752291D01*
X128615508Y-117752286D01*
X128634401Y-117621976D01*
X128643700Y-117557842D01*
X128645215Y-117500000D01*
X128626708Y-117298591D01*
X128621055Y-117278545D01*
X128573376Y-117109490D01*
X128571807Y-117103926D01*
X128482351Y-116922527D01*
X128466824Y-116901733D01*
X128364788Y-116765091D01*
X128364787Y-116765090D01*
X128361335Y-116760467D01*
X128357099Y-116756551D01*
X128217053Y-116627094D01*
X128217051Y-116627092D01*
X128212812Y-116623174D01*
X128185374Y-116605862D01*
X128046637Y-116518325D01*
X128041757Y-116515246D01*
X127853898Y-116440298D01*
X127655526Y-116400839D01*
X127649752Y-116400763D01*
X127649748Y-116400763D01*
X127547257Y-116399422D01*
X127453286Y-116398192D01*
X127447589Y-116399171D01*
X127447588Y-116399171D01*
X127259646Y-116431465D01*
X127259645Y-116431465D01*
X127253949Y-116432444D01*
X127146653Y-116472028D01*
X127075821Y-116476840D01*
X127013948Y-116442911D01*
X126093348Y-115522311D01*
X126078623Y-115504080D01*
X126077222Y-115502540D01*
X126071572Y-115493790D01*
X126045535Y-115473264D01*
X126041168Y-115469383D01*
X126041102Y-115469461D01*
X126037144Y-115466107D01*
X126033462Y-115462425D01*
X126029231Y-115459402D01*
X126029228Y-115459399D01*
X126024409Y-115455956D01*
X126017948Y-115451339D01*
X126013212Y-115447783D01*
X125973400Y-115416397D01*
X125964851Y-115413395D01*
X125957481Y-115408128D01*
X125924203Y-115398176D01*
X125908930Y-115393608D01*
X125903286Y-115391774D01*
X125862935Y-115377604D01*
X125862929Y-115377603D01*
X125855452Y-115374977D01*
X125849945Y-115374500D01*
X125847238Y-115374500D01*
X125844665Y-115374389D01*
X125844506Y-115374341D01*
X125844512Y-115374197D01*
X125843892Y-115374158D01*
X125837713Y-115372310D01*
X125784445Y-115374403D01*
X125779498Y-115374500D01*
X114207727Y-115374500D01*
X114139606Y-115354498D01*
X114118632Y-115337595D01*
X113412405Y-114631368D01*
X113378379Y-114569056D01*
X113375500Y-114542273D01*
X113375500Y-112751500D01*
X113395502Y-112683379D01*
X113449158Y-112636886D01*
X113501500Y-112625500D01*
X114542296Y-112625500D01*
X114610417Y-112645502D01*
X114618998Y-112651536D01*
X114722375Y-112730861D01*
X114856291Y-112786330D01*
X115000000Y-112805250D01*
X115143709Y-112786330D01*
X115277625Y-112730861D01*
X115392621Y-112642621D01*
X115480861Y-112527625D01*
X115536330Y-112393709D01*
X115555250Y-112250000D01*
X115536330Y-112106291D01*
X115480861Y-111972375D01*
X115392621Y-111857379D01*
X115277625Y-111769139D01*
X115143709Y-111713670D01*
X115000000Y-111694750D01*
X114856291Y-111713670D01*
X114722375Y-111769139D01*
X114619000Y-111848462D01*
X114552780Y-111874063D01*
X114542296Y-111874500D01*
X113501500Y-111874500D01*
X113433379Y-111854498D01*
X113386886Y-111800842D01*
X113375500Y-111748500D01*
X113375500Y-110803496D01*
X113377979Y-110780199D01*
X113378077Y-110778114D01*
X113380269Y-110767934D01*
X113376373Y-110735016D01*
X113376029Y-110729179D01*
X113375928Y-110729187D01*
X113375500Y-110724011D01*
X113375500Y-110718807D01*
X113372372Y-110700011D01*
X113371535Y-110694136D01*
X113366800Y-110654133D01*
X113365576Y-110643791D01*
X113361655Y-110635625D01*
X113360167Y-110626687D01*
X113336091Y-110582064D01*
X113333398Y-110576778D01*
X113314896Y-110538247D01*
X113314892Y-110538241D01*
X113311463Y-110531100D01*
X113307906Y-110526869D01*
X113305977Y-110524940D01*
X113304255Y-110523063D01*
X113304181Y-110522926D01*
X113304291Y-110522826D01*
X113303868Y-110522346D01*
X113300806Y-110516671D01*
X113261632Y-110480459D01*
X113258067Y-110477030D01*
X110953348Y-108172311D01*
X110938623Y-108154080D01*
X110937222Y-108152540D01*
X110931572Y-108143790D01*
X110905535Y-108123264D01*
X110901168Y-108119383D01*
X110901102Y-108119461D01*
X110897144Y-108116107D01*
X110893462Y-108112425D01*
X110889231Y-108109402D01*
X110889228Y-108109399D01*
X110884409Y-108105956D01*
X110877948Y-108101339D01*
X110873212Y-108097783D01*
X110833400Y-108066397D01*
X110824851Y-108063395D01*
X110817481Y-108058128D01*
X110784203Y-108048176D01*
X110768930Y-108043608D01*
X110763286Y-108041774D01*
X110722935Y-108027604D01*
X110722929Y-108027603D01*
X110715452Y-108024977D01*
X110709945Y-108024500D01*
X110707238Y-108024500D01*
X110704665Y-108024389D01*
X110704506Y-108024341D01*
X110704512Y-108024197D01*
X110703892Y-108024158D01*
X110697713Y-108022310D01*
X110644445Y-108024403D01*
X110639498Y-108024500D01*
X109502605Y-108024500D01*
X109434484Y-108004498D01*
X109391354Y-107957654D01*
X109348413Y-107876894D01*
X109345522Y-107871456D01*
X109341632Y-107866686D01*
X109341629Y-107866682D01*
X109231605Y-107731780D01*
X109231602Y-107731777D01*
X109227710Y-107727005D01*
X109222114Y-107722375D01*
X109088834Y-107612116D01*
X109084085Y-107608187D01*
X108920116Y-107519529D01*
X108804376Y-107483702D01*
X108747936Y-107466231D01*
X108747933Y-107466230D01*
X108742049Y-107464409D01*
X108735924Y-107463765D01*
X108735923Y-107463765D01*
X108562796Y-107445568D01*
X108562795Y-107445568D01*
X108556668Y-107444924D01*
X108478549Y-107452033D01*
X108377171Y-107461259D01*
X108377168Y-107461260D01*
X108371032Y-107461818D01*
X108365122Y-107463557D01*
X108365119Y-107463558D01*
X108198129Y-107512707D01*
X108192214Y-107514448D01*
X108027023Y-107600807D01*
X108022223Y-107604667D01*
X108022222Y-107604667D01*
X108001136Y-107621621D01*
X107881752Y-107717608D01*
X107849213Y-107756386D01*
X107848022Y-107757806D01*
X107788912Y-107797133D01*
X107717925Y-107798259D01*
X107657597Y-107760828D01*
X107627083Y-107696723D01*
X107625500Y-107676815D01*
X107625500Y-103107728D01*
X107645502Y-103039607D01*
X107662405Y-103018632D01*
X108141857Y-102539181D01*
X108204169Y-102505156D01*
X108269888Y-102508444D01*
X108344907Y-102532819D01*
X108529998Y-102554890D01*
X108536133Y-102554418D01*
X108536135Y-102554418D01*
X108709710Y-102541062D01*
X108709715Y-102541061D01*
X108715851Y-102540589D01*
X108721781Y-102538933D01*
X108721783Y-102538933D01*
X108852877Y-102502331D01*
X108895387Y-102490462D01*
X109061768Y-102406417D01*
X109086255Y-102387286D01*
X109203794Y-102295454D01*
X109203795Y-102295453D01*
X109208655Y-102291656D01*
X109330454Y-102150550D01*
X109422526Y-101988474D01*
X109481364Y-101811601D01*
X109501610Y-101651340D01*
X109504285Y-101630170D01*
X109504286Y-101630163D01*
X109504727Y-101626668D01*
X109505099Y-101600000D01*
X109486909Y-101414487D01*
X109485128Y-101408588D01*
X109485127Y-101408583D01*
X109457603Y-101317420D01*
X109457062Y-101246425D01*
X109489130Y-101191907D01*
X111018632Y-99662405D01*
X111080944Y-99628379D01*
X111107727Y-99625500D01*
X120042296Y-99625500D01*
X120110417Y-99645502D01*
X120118998Y-99651536D01*
X120222375Y-99730861D01*
X120356291Y-99786330D01*
X120500000Y-99805250D01*
X120643709Y-99786330D01*
X120777625Y-99730861D01*
X120892621Y-99642621D01*
X120980861Y-99527625D01*
X121036330Y-99393709D01*
X121055250Y-99250000D01*
X121036330Y-99106291D01*
X121033169Y-99098660D01*
X121031032Y-99090684D01*
X121032593Y-99090266D01*
X121026017Y-99029134D01*
X121057793Y-98965646D01*
X121118849Y-98929415D01*
X121150016Y-98925500D01*
X123142647Y-98925500D01*
X123210768Y-98945502D01*
X123259056Y-99003283D01*
X123265977Y-99019993D01*
X123265979Y-99019996D01*
X123269139Y-99027625D01*
X123357379Y-99142621D01*
X123472375Y-99230861D01*
X123606291Y-99286330D01*
X123750000Y-99305250D01*
X123893709Y-99286330D01*
X124027625Y-99230861D01*
X124142621Y-99142621D01*
X124230861Y-99027625D01*
X124286330Y-98893709D01*
X124305250Y-98750000D01*
X127444750Y-98750000D01*
X127463670Y-98893709D01*
X127519139Y-99027625D01*
X127607379Y-99142621D01*
X127722375Y-99230861D01*
X127856291Y-99286330D01*
X128000000Y-99305250D01*
X128143709Y-99286330D01*
X128277625Y-99230861D01*
X128392621Y-99142621D01*
X128480861Y-99027625D01*
X128536330Y-98893709D01*
X128555250Y-98750000D01*
X128536330Y-98606291D01*
X128480861Y-98472375D01*
X128401538Y-98369000D01*
X128375937Y-98302780D01*
X128375500Y-98292296D01*
X128375500Y-96957704D01*
X128395502Y-96889583D01*
X128401538Y-96881000D01*
X128408607Y-96871788D01*
X128480861Y-96777625D01*
X128536330Y-96643709D01*
X128555250Y-96500000D01*
X128536330Y-96356291D01*
X128480861Y-96222375D01*
X128392621Y-96107379D01*
X128277625Y-96019139D01*
X128143709Y-95963670D01*
X128000000Y-95944750D01*
X127856291Y-95963670D01*
X127722375Y-96019139D01*
X127607379Y-96107379D01*
X127519139Y-96222375D01*
X127463670Y-96356291D01*
X127444750Y-96500000D01*
X127463670Y-96643709D01*
X127519139Y-96777625D01*
X127591393Y-96871788D01*
X127598462Y-96881000D01*
X127624063Y-96947220D01*
X127624500Y-96957704D01*
X127624500Y-98292296D01*
X127604498Y-98360417D01*
X127598464Y-98368998D01*
X127519139Y-98472375D01*
X127463670Y-98606291D01*
X127444750Y-98750000D01*
X124305250Y-98750000D01*
X124286330Y-98606291D01*
X124230861Y-98472375D01*
X124142621Y-98357379D01*
X124027625Y-98269139D01*
X123978686Y-98248868D01*
X123901339Y-98216830D01*
X123901336Y-98216829D01*
X123893709Y-98213670D01*
X123845952Y-98207383D01*
X123781026Y-98178661D01*
X123773304Y-98171556D01*
X123753220Y-98151472D01*
X123731837Y-98140577D01*
X123714991Y-98130253D01*
X123703604Y-98121980D01*
X123695581Y-98116151D01*
X123686150Y-98113087D01*
X123686147Y-98113085D01*
X123672763Y-98108736D01*
X123654502Y-98101172D01*
X123641964Y-98094784D01*
X123641963Y-98094784D01*
X123633126Y-98090281D01*
X123609429Y-98086528D01*
X123590210Y-98081914D01*
X123567393Y-98074500D01*
X109082607Y-98074500D01*
X109059790Y-98081914D01*
X109040571Y-98086528D01*
X109016874Y-98090281D01*
X109008037Y-98094784D01*
X109008036Y-98094784D01*
X108995498Y-98101172D01*
X108977237Y-98108736D01*
X108963851Y-98113086D01*
X108963850Y-98113087D01*
X108954419Y-98116151D01*
X108946399Y-98121978D01*
X108946397Y-98121979D01*
X108935012Y-98130251D01*
X108918159Y-98140579D01*
X108896780Y-98151472D01*
X108801472Y-98246780D01*
X108801471Y-98246782D01*
X106404072Y-100644180D01*
X106341760Y-100678206D01*
X106277719Y-100675450D01*
X106247939Y-100666232D01*
X106247937Y-100666232D01*
X106242049Y-100664409D01*
X106235924Y-100663765D01*
X106235923Y-100663765D01*
X106062796Y-100645568D01*
X106062795Y-100645568D01*
X106056668Y-100644924D01*
X105978549Y-100652033D01*
X105877171Y-100661259D01*
X105877168Y-100661260D01*
X105871032Y-100661818D01*
X105865122Y-100663557D01*
X105865119Y-100663558D01*
X105698129Y-100712707D01*
X105692214Y-100714448D01*
X105527023Y-100800807D01*
X105381752Y-100917608D01*
X105261935Y-101060401D01*
X105258971Y-101065793D01*
X105258968Y-101065797D01*
X105189639Y-101191907D01*
X105172135Y-101223746D01*
X105170274Y-101229613D01*
X105170273Y-101229615D01*
X105117634Y-101395554D01*
X105115772Y-101401424D01*
X105094994Y-101586665D01*
X105110592Y-101772414D01*
X105112291Y-101778339D01*
X105146502Y-101897647D01*
X105161971Y-101951595D01*
X105164790Y-101957080D01*
X105192734Y-102011452D01*
X105247176Y-102117385D01*
X105362959Y-102263468D01*
X105504912Y-102384279D01*
X105510290Y-102387285D01*
X105510292Y-102387286D01*
X105537731Y-102402621D01*
X105667627Y-102475217D01*
X105769889Y-102508444D01*
X105840016Y-102531230D01*
X105898622Y-102571304D01*
X105926259Y-102636700D01*
X105914152Y-102706657D01*
X105866146Y-102758963D01*
X105836655Y-102771936D01*
X105698131Y-102812706D01*
X105698126Y-102812708D01*
X105692214Y-102814448D01*
X105527023Y-102900807D01*
X105381752Y-103017608D01*
X105261935Y-103160401D01*
X105258971Y-103165793D01*
X105258968Y-103165797D01*
X105203502Y-103266689D01*
X105172135Y-103323746D01*
X105115772Y-103501424D01*
X105094994Y-103686665D01*
X105095510Y-103692809D01*
X105106692Y-103825965D01*
X105110592Y-103872414D01*
X105112291Y-103878339D01*
X105144829Y-103991812D01*
X105161971Y-104051595D01*
X105164790Y-104057080D01*
X105242474Y-104208235D01*
X105247176Y-104217385D01*
X105362959Y-104363468D01*
X105504912Y-104484279D01*
X105510290Y-104487285D01*
X105510292Y-104487286D01*
X105544523Y-104506417D01*
X105667627Y-104575217D01*
X105844907Y-104632819D01*
X106029998Y-104654890D01*
X106036133Y-104654418D01*
X106036135Y-104654418D01*
X106209710Y-104641062D01*
X106209715Y-104641061D01*
X106215851Y-104640589D01*
X106221781Y-104638933D01*
X106221783Y-104638933D01*
X106389459Y-104592117D01*
X106389458Y-104592117D01*
X106395387Y-104590462D01*
X106561768Y-104506417D01*
X106670929Y-104421131D01*
X106736921Y-104394954D01*
X106806591Y-104408611D01*
X106857818Y-104457767D01*
X106874500Y-104520421D01*
X106874500Y-105416430D01*
X106854498Y-105484551D01*
X106800842Y-105531044D01*
X106730568Y-105541148D01*
X106668184Y-105513515D01*
X106616643Y-105470877D01*
X106606478Y-105464020D01*
X106444809Y-105376606D01*
X106433504Y-105371854D01*
X106257938Y-105317507D01*
X106245925Y-105315041D01*
X106063143Y-105295829D01*
X106050875Y-105295744D01*
X105867851Y-105312400D01*
X105855799Y-105314699D01*
X105679496Y-105366589D01*
X105668119Y-105371186D01*
X105505245Y-105456334D01*
X105494987Y-105463046D01*
X105470410Y-105482807D01*
X105461942Y-105494975D01*
X105468317Y-105506185D01*
X106173037Y-106210905D01*
X106207063Y-106273217D01*
X106201998Y-106344032D01*
X106173037Y-106389095D01*
X105467989Y-107094143D01*
X105460614Y-107107650D01*
X105467444Y-107117395D01*
X105471831Y-107121129D01*
X105481907Y-107128131D01*
X105642334Y-107217790D01*
X105653575Y-107222701D01*
X105755962Y-107255969D01*
X105814568Y-107296043D01*
X105842205Y-107361439D01*
X105830098Y-107431396D01*
X105782092Y-107483702D01*
X105752609Y-107496672D01*
X105692214Y-107514448D01*
X105527023Y-107600807D01*
X105522223Y-107604667D01*
X105522222Y-107604667D01*
X105501136Y-107621621D01*
X105381752Y-107717608D01*
X105261935Y-107860401D01*
X105258971Y-107865793D01*
X105258968Y-107865797D01*
X105198933Y-107975000D01*
X105172135Y-108023746D01*
X105170274Y-108029613D01*
X105170273Y-108029615D01*
X105136678Y-108135520D01*
X105115772Y-108201424D01*
X105094994Y-108386665D01*
X105095510Y-108392809D01*
X105109151Y-108555250D01*
X105110592Y-108572414D01*
X105112291Y-108578339D01*
X105132015Y-108647124D01*
X105161971Y-108751595D01*
X105164790Y-108757080D01*
X105207027Y-108839263D01*
X105247176Y-108917385D01*
X105362959Y-109063468D01*
X105504912Y-109184279D01*
X105559962Y-109215045D01*
X105559971Y-109215050D01*
X105609676Y-109265744D01*
X105624500Y-109325038D01*
X105624500Y-113117393D01*
X105631914Y-113140210D01*
X105636528Y-113159429D01*
X105640281Y-113183126D01*
X105644784Y-113191963D01*
X105644784Y-113191964D01*
X105651172Y-113204502D01*
X105658736Y-113222763D01*
X105663085Y-113236147D01*
X105663087Y-113236150D01*
X105666151Y-113245581D01*
X105671980Y-113253604D01*
X105680253Y-113264991D01*
X105690577Y-113281837D01*
X105701472Y-113303220D01*
X105725446Y-113327194D01*
X111901471Y-119503218D01*
X111901472Y-119503220D01*
X111932657Y-119534405D01*
X111966683Y-119596717D01*
X111961618Y-119667532D01*
X111919071Y-119724368D01*
X111852551Y-119749179D01*
X111843562Y-119749500D01*
X107475550Y-119749500D01*
X107407429Y-119729498D01*
X107360936Y-119675842D01*
X107350832Y-119605568D01*
X107379338Y-119542409D01*
X107383123Y-119538830D01*
X107484060Y-119390306D01*
X107550748Y-119223573D01*
X107580078Y-119046409D01*
X107577011Y-118987879D01*
X107571036Y-118873892D01*
X107570679Y-118867079D01*
X107522992Y-118693951D01*
X107439240Y-118535102D01*
X107323332Y-118397942D01*
X107317907Y-118393794D01*
X107186095Y-118293016D01*
X107186091Y-118293013D01*
X107180674Y-118288872D01*
X107174494Y-118285990D01*
X107174492Y-118285989D01*
X107024100Y-118215860D01*
X107024097Y-118215859D01*
X107017923Y-118212980D01*
X107011275Y-118211494D01*
X107011272Y-118211493D01*
X106847710Y-118174933D01*
X106847709Y-118174933D01*
X106842672Y-118173807D01*
X106837181Y-118173500D01*
X106705134Y-118173500D01*
X106571475Y-118188020D01*
X106501726Y-118211493D01*
X106407743Y-118243121D01*
X106407741Y-118243122D01*
X106401278Y-118245297D01*
X106247352Y-118337786D01*
X106242392Y-118342477D01*
X106242390Y-118342478D01*
X106131079Y-118447740D01*
X106116877Y-118461170D01*
X106015940Y-118609694D01*
X105949252Y-118776427D01*
X105948138Y-118783157D01*
X105948137Y-118783160D01*
X105943500Y-118811172D01*
X105919922Y-118953591D01*
X105920279Y-118960407D01*
X105920279Y-118960411D01*
X105921257Y-118979063D01*
X105929321Y-119132921D01*
X105977008Y-119306049D01*
X106060760Y-119464898D01*
X106125061Y-119540988D01*
X106126062Y-119542173D01*
X106154753Y-119607114D01*
X106143780Y-119677257D01*
X106096626Y-119730333D01*
X106029823Y-119749500D01*
X104481363Y-119749500D01*
X104413242Y-119729498D01*
X104366749Y-119675842D01*
X104356645Y-119605568D01*
X104386139Y-119540988D01*
X104430718Y-119508126D01*
X104610962Y-119429005D01*
X104617415Y-119425717D01*
X104909858Y-119254827D01*
X104915891Y-119250818D01*
X105186757Y-119047447D01*
X105192281Y-119042779D01*
X105250134Y-118987879D01*
X105258110Y-118974141D01*
X105258066Y-118973183D01*
X105253106Y-118965238D01*
X103262812Y-116974944D01*
X103248868Y-116967330D01*
X103247035Y-116967461D01*
X103240420Y-116971712D01*
X102108729Y-118103403D01*
X102046417Y-118137429D01*
X101975602Y-118132364D01*
X101930539Y-118103403D01*
X101896597Y-118069461D01*
X101862571Y-118007149D01*
X101867636Y-117936334D01*
X101896597Y-117891271D01*
X103025056Y-116762812D01*
X103031434Y-116751132D01*
X103467330Y-116751132D01*
X103467461Y-116752965D01*
X103471712Y-116759580D01*
X105463612Y-118751480D01*
X105476966Y-118758772D01*
X105486939Y-118751717D01*
X105660207Y-118544489D01*
X105664523Y-118538678D01*
X105850492Y-118255568D01*
X105854106Y-118249306D01*
X106006303Y-117946699D01*
X106009175Y-117940061D01*
X106125578Y-117621976D01*
X106127673Y-117615035D01*
X106206743Y-117285684D01*
X106208027Y-117278545D01*
X106248818Y-116941470D01*
X106249242Y-116935900D01*
X106254996Y-116752797D01*
X106254923Y-116747204D01*
X106235378Y-116408224D01*
X106234546Y-116401035D01*
X106176310Y-116067359D01*
X106174655Y-116060304D01*
X106078458Y-115735549D01*
X106076000Y-115728720D01*
X105943112Y-115417171D01*
X105939895Y-115410688D01*
X105772067Y-115116454D01*
X105768135Y-115110399D01*
X105567600Y-114837405D01*
X105562990Y-114831832D01*
X105487325Y-114750408D01*
X105473674Y-114742291D01*
X105473068Y-114742312D01*
X105464587Y-114747545D01*
X103474944Y-116737188D01*
X103467330Y-116751132D01*
X103031434Y-116751132D01*
X103032670Y-116748868D01*
X103032539Y-116747035D01*
X103028288Y-116740420D01*
X101035880Y-114748012D01*
X101021936Y-114740398D01*
X101020277Y-114740516D01*
X101013424Y-114744946D01*
X100998405Y-114760123D01*
X100993611Y-114765561D01*
X100784618Y-115032101D01*
X100780483Y-115038050D01*
X100603503Y-115326855D01*
X100600082Y-115333234D01*
X100490788Y-115568690D01*
X100443964Y-115622057D01*
X100375721Y-115641638D01*
X100307725Y-115621215D01*
X100261565Y-115567272D01*
X100250500Y-115515640D01*
X100250500Y-114523061D01*
X101239293Y-114523061D01*
X101239447Y-114525067D01*
X101243554Y-114531422D01*
X103237188Y-116525056D01*
X103251132Y-116532670D01*
X103252965Y-116532539D01*
X103259580Y-116528288D01*
X105250726Y-114537142D01*
X105258118Y-114523605D01*
X105251330Y-114513904D01*
X105069627Y-114358715D01*
X105063868Y-114354343D01*
X104782716Y-114165417D01*
X104776494Y-114161737D01*
X104475498Y-114006381D01*
X104468887Y-114003438D01*
X104152041Y-113883712D01*
X104145122Y-113881544D01*
X103816618Y-113799029D01*
X103809494Y-113797670D01*
X103473691Y-113753460D01*
X103473521Y-113753448D01*
X103473480Y-113753433D01*
X103470087Y-113752986D01*
X103470191Y-113752199D01*
X103407048Y-113728512D01*
X103364608Y-113671597D01*
X103359676Y-113600772D01*
X103393818Y-113538523D01*
X103450666Y-113505938D01*
X103633143Y-113457896D01*
X103641963Y-113454859D01*
X103879184Y-113352941D01*
X103887456Y-113348634D01*
X104107005Y-113212774D01*
X104114545Y-113207296D01*
X104198532Y-113136196D01*
X104206970Y-113123393D01*
X104200907Y-113113039D01*
X103062812Y-111974944D01*
X103048868Y-111967330D01*
X103047035Y-111967461D01*
X103040420Y-111971712D01*
X101897363Y-113114769D01*
X101890705Y-113126962D01*
X101899418Y-113138482D01*
X102089700Y-113278002D01*
X102097610Y-113282945D01*
X102326096Y-113403157D01*
X102334659Y-113406880D01*
X102578403Y-113492000D01*
X102587412Y-113494414D01*
X102790036Y-113532883D01*
X102853230Y-113565240D01*
X102888899Y-113626626D01*
X102885718Y-113697552D01*
X102844697Y-113755498D01*
X102786243Y-113781121D01*
X102776359Y-113782686D01*
X102445417Y-113854843D01*
X102438440Y-113856792D01*
X102117989Y-113966506D01*
X102111283Y-113969243D01*
X101805568Y-114115062D01*
X101799210Y-114118557D01*
X101512296Y-114298538D01*
X101506368Y-114302751D01*
X101245318Y-114511890D01*
X101239293Y-114523061D01*
X100250500Y-114523061D01*
X100250500Y-111707420D01*
X101245796Y-111707420D01*
X101258184Y-111965308D01*
X101259321Y-111974568D01*
X101309691Y-112227798D01*
X101312180Y-112236773D01*
X101399427Y-112479775D01*
X101403224Y-112488303D01*
X101525425Y-112715731D01*
X101530436Y-112723597D01*
X101662313Y-112900201D01*
X101673571Y-112908650D01*
X101685990Y-112901878D01*
X102825056Y-111762812D01*
X102831434Y-111751132D01*
X103267330Y-111751132D01*
X103267461Y-111752965D01*
X103271712Y-111759580D01*
X104411884Y-112899752D01*
X104425645Y-112907266D01*
X104435006Y-112900808D01*
X104488487Y-112839825D01*
X104494106Y-112832369D01*
X104633781Y-112615220D01*
X104638224Y-112607036D01*
X104744268Y-112371626D01*
X104747458Y-112362861D01*
X104817540Y-112114372D01*
X104819400Y-112105230D01*
X104852175Y-111847599D01*
X104852656Y-111841313D01*
X104854964Y-111753160D01*
X104854813Y-111746851D01*
X104835566Y-111487849D01*
X104834189Y-111478643D01*
X104777206Y-111226812D01*
X104774482Y-111217901D01*
X104680902Y-110977260D01*
X104676891Y-110968851D01*
X104548771Y-110744689D01*
X104543560Y-110736963D01*
X104436464Y-110601112D01*
X104424539Y-110592641D01*
X104413005Y-110599127D01*
X103274944Y-111737188D01*
X103267330Y-111751132D01*
X102831434Y-111751132D01*
X102832670Y-111748868D01*
X102832539Y-111747035D01*
X102828288Y-111740420D01*
X101688279Y-110600411D01*
X101674970Y-110593143D01*
X101664935Y-110600263D01*
X101583475Y-110698207D01*
X101578054Y-110705807D01*
X101444119Y-110926525D01*
X101439881Y-110934842D01*
X101340040Y-111172935D01*
X101337079Y-111181785D01*
X101273529Y-111432018D01*
X101271907Y-111441215D01*
X101246041Y-111698095D01*
X101245796Y-111707420D01*
X100250500Y-111707420D01*
X100250500Y-110376444D01*
X101892333Y-110376444D01*
X101898048Y-110385916D01*
X103037188Y-111525056D01*
X103051132Y-111532670D01*
X103052965Y-111532539D01*
X103059580Y-111528288D01*
X104201327Y-110386541D01*
X104208941Y-110372597D01*
X104208884Y-110371788D01*
X104203563Y-110363780D01*
X104189355Y-110350415D01*
X104182118Y-110344555D01*
X103969966Y-110197380D01*
X103961940Y-110192652D01*
X103730371Y-110078455D01*
X103721738Y-110074967D01*
X103475831Y-109996252D01*
X103466770Y-109994076D01*
X103211931Y-109952573D01*
X103202644Y-109951761D01*
X102944482Y-109948381D01*
X102935171Y-109948951D01*
X102679341Y-109983768D01*
X102670222Y-109985706D01*
X102422358Y-110057952D01*
X102413605Y-110061224D01*
X102179142Y-110169313D01*
X102170987Y-110173833D01*
X101955067Y-110315396D01*
X101947671Y-110321071D01*
X101900701Y-110362993D01*
X101892333Y-110376444D01*
X100250500Y-110376444D01*
X100250500Y-105000000D01*
X100894341Y-105000000D01*
X100914937Y-105235408D01*
X100916361Y-105240722D01*
X100916361Y-105240723D01*
X100964815Y-105421556D01*
X100976097Y-105463663D01*
X100978419Y-105468643D01*
X100978420Y-105468645D01*
X101069099Y-105663104D01*
X101075965Y-105677829D01*
X101211505Y-105871401D01*
X101378599Y-106038495D01*
X101572171Y-106174035D01*
X101577149Y-106176356D01*
X101577152Y-106176358D01*
X101777952Y-106269993D01*
X101786337Y-106273903D01*
X101791645Y-106275325D01*
X101791647Y-106275326D01*
X101931549Y-106312812D01*
X102014592Y-106335063D01*
X102117106Y-106344032D01*
X102188310Y-106350262D01*
X102188317Y-106350262D01*
X102191034Y-106350500D01*
X102308966Y-106350500D01*
X102311683Y-106350262D01*
X102311690Y-106350262D01*
X102382894Y-106344032D01*
X102485408Y-106335063D01*
X102568451Y-106312812D01*
X102645698Y-106292114D01*
X105045775Y-106292114D01*
X105061153Y-106475252D01*
X105063368Y-106487317D01*
X105114025Y-106663980D01*
X105118543Y-106675392D01*
X105202545Y-106838841D01*
X105209197Y-106849163D01*
X105233098Y-106879319D01*
X105245089Y-106887790D01*
X105256534Y-106881334D01*
X105825056Y-106312812D01*
X105832670Y-106298868D01*
X105832539Y-106297035D01*
X105828288Y-106290420D01*
X105256187Y-105718319D01*
X105242802Y-105711010D01*
X105232876Y-105718019D01*
X105224853Y-105727581D01*
X105217927Y-105737695D01*
X105129383Y-105898757D01*
X105124555Y-105910021D01*
X105068981Y-106085213D01*
X105066433Y-106097201D01*
X105045946Y-106279845D01*
X105045775Y-106292114D01*
X102645698Y-106292114D01*
X102708353Y-106275326D01*
X102708355Y-106275325D01*
X102713663Y-106273903D01*
X102722048Y-106269993D01*
X102922848Y-106176358D01*
X102922851Y-106176356D01*
X102927829Y-106174035D01*
X103121401Y-106038495D01*
X103288495Y-105871401D01*
X103291655Y-105866889D01*
X103420878Y-105682339D01*
X103420881Y-105682334D01*
X103424035Y-105677830D01*
X103426358Y-105672848D01*
X103426361Y-105672843D01*
X103521580Y-105468645D01*
X103521581Y-105468644D01*
X103523903Y-105463663D01*
X103535186Y-105421556D01*
X103583639Y-105240723D01*
X103583639Y-105240722D01*
X103585063Y-105235408D01*
X103605659Y-105000000D01*
X103585063Y-104764592D01*
X103555542Y-104654418D01*
X103525326Y-104541647D01*
X103525325Y-104541645D01*
X103523903Y-104536337D01*
X103516481Y-104520421D01*
X103426358Y-104327152D01*
X103426356Y-104327149D01*
X103424035Y-104322171D01*
X103288495Y-104128599D01*
X103121401Y-103961505D01*
X102927829Y-103825965D01*
X102922851Y-103823644D01*
X102922848Y-103823642D01*
X102718645Y-103728420D01*
X102718643Y-103728419D01*
X102713663Y-103726097D01*
X102708355Y-103724675D01*
X102708353Y-103724674D01*
X102490723Y-103666361D01*
X102490722Y-103666361D01*
X102485408Y-103664937D01*
X102382318Y-103655918D01*
X102311690Y-103649738D01*
X102311683Y-103649738D01*
X102308966Y-103649500D01*
X102191034Y-103649500D01*
X102188317Y-103649738D01*
X102188310Y-103649738D01*
X102117682Y-103655918D01*
X102014592Y-103664937D01*
X102009278Y-103666361D01*
X102009277Y-103666361D01*
X101791647Y-103724674D01*
X101791645Y-103724675D01*
X101786337Y-103726097D01*
X101781357Y-103728419D01*
X101781355Y-103728420D01*
X101577152Y-103823642D01*
X101577149Y-103823644D01*
X101572171Y-103825965D01*
X101378599Y-103961505D01*
X101211505Y-104128599D01*
X101208348Y-104133107D01*
X101208346Y-104133110D01*
X101080398Y-104315839D01*
X101075965Y-104322170D01*
X101073642Y-104327152D01*
X101073639Y-104327157D01*
X100983519Y-104520421D01*
X100976097Y-104536337D01*
X100974675Y-104541645D01*
X100974674Y-104541647D01*
X100944458Y-104654418D01*
X100914937Y-104764592D01*
X100894341Y-105000000D01*
X100250500Y-105000000D01*
X100250500Y-99626962D01*
X101890705Y-99626962D01*
X101899418Y-99638482D01*
X102089700Y-99778002D01*
X102097610Y-99782945D01*
X102326096Y-99903157D01*
X102334659Y-99906880D01*
X102578403Y-99992000D01*
X102587412Y-99994414D01*
X102841074Y-100042573D01*
X102850330Y-100043627D01*
X103108327Y-100053764D01*
X103117641Y-100053438D01*
X103374291Y-100025331D01*
X103383468Y-100023630D01*
X103633143Y-99957896D01*
X103641963Y-99954859D01*
X103879184Y-99852941D01*
X103887456Y-99848634D01*
X104107005Y-99712774D01*
X104114545Y-99707296D01*
X104198532Y-99636196D01*
X104206970Y-99623393D01*
X104200907Y-99613039D01*
X103062812Y-98474944D01*
X103048868Y-98467330D01*
X103047035Y-98467461D01*
X103040420Y-98471712D01*
X101897363Y-99614769D01*
X101890705Y-99626962D01*
X100250500Y-99626962D01*
X100250500Y-98207420D01*
X101245796Y-98207420D01*
X101258184Y-98465308D01*
X101259321Y-98474568D01*
X101309691Y-98727798D01*
X101312180Y-98736773D01*
X101399427Y-98979775D01*
X101403224Y-98988303D01*
X101525425Y-99215731D01*
X101530436Y-99223597D01*
X101662313Y-99400201D01*
X101673571Y-99408650D01*
X101685990Y-99401878D01*
X102825056Y-98262812D01*
X102831434Y-98251132D01*
X103267330Y-98251132D01*
X103267461Y-98252965D01*
X103271712Y-98259580D01*
X104411884Y-99399752D01*
X104425645Y-99407266D01*
X104435006Y-99400808D01*
X104488487Y-99339825D01*
X104494106Y-99332369D01*
X104633781Y-99115220D01*
X104638224Y-99107036D01*
X104744268Y-98871626D01*
X104747458Y-98862861D01*
X104817540Y-98614372D01*
X104819400Y-98605230D01*
X104852175Y-98347599D01*
X104852656Y-98341313D01*
X104854964Y-98253160D01*
X104854813Y-98246851D01*
X104835566Y-97987849D01*
X104834189Y-97978643D01*
X104777206Y-97726812D01*
X104774482Y-97717901D01*
X104680902Y-97477260D01*
X104676891Y-97468851D01*
X104548771Y-97244689D01*
X104543560Y-97236963D01*
X104436464Y-97101112D01*
X104424539Y-97092641D01*
X104413005Y-97099127D01*
X103274944Y-98237188D01*
X103267330Y-98251132D01*
X102831434Y-98251132D01*
X102832670Y-98248868D01*
X102832539Y-98247035D01*
X102828288Y-98240420D01*
X101688279Y-97100411D01*
X101674970Y-97093143D01*
X101664935Y-97100263D01*
X101583475Y-97198207D01*
X101578054Y-97205807D01*
X101444119Y-97426525D01*
X101439881Y-97434842D01*
X101340040Y-97672935D01*
X101337079Y-97681785D01*
X101273529Y-97932018D01*
X101271907Y-97941215D01*
X101246041Y-98198095D01*
X101245796Y-98207420D01*
X100250500Y-98207420D01*
X100250500Y-95475945D01*
X101242517Y-95475945D01*
X101242535Y-95476196D01*
X101248451Y-95484943D01*
X101356157Y-95582948D01*
X101361781Y-95587503D01*
X101636845Y-95785156D01*
X101642975Y-95789046D01*
X101938923Y-95953769D01*
X101945443Y-95956921D01*
X102258373Y-96086540D01*
X102265224Y-96088926D01*
X102590960Y-96181715D01*
X102598049Y-96183299D01*
X102807478Y-96217595D01*
X102871471Y-96248343D01*
X102908682Y-96308807D01*
X102907296Y-96379790D01*
X102867754Y-96438756D01*
X102804107Y-96466788D01*
X102679341Y-96483768D01*
X102670222Y-96485706D01*
X102422358Y-96557952D01*
X102413605Y-96561224D01*
X102179142Y-96669313D01*
X102170987Y-96673833D01*
X101955067Y-96815396D01*
X101947671Y-96821071D01*
X101900701Y-96862993D01*
X101892333Y-96876444D01*
X101898048Y-96885916D01*
X103037188Y-98025056D01*
X103051132Y-98032670D01*
X103052965Y-98032539D01*
X103059580Y-98028288D01*
X104201327Y-96886541D01*
X104208941Y-96872597D01*
X104208884Y-96871788D01*
X104203563Y-96863780D01*
X104189355Y-96850415D01*
X104182118Y-96844555D01*
X103969966Y-96697380D01*
X103961940Y-96692652D01*
X103730371Y-96578455D01*
X103721738Y-96574967D01*
X103475831Y-96496252D01*
X103466762Y-96494074D01*
X103455876Y-96492301D01*
X103391857Y-96461607D01*
X103354595Y-96401175D01*
X103355921Y-96330190D01*
X103395413Y-96271191D01*
X103467564Y-96242232D01*
X103623005Y-96231636D01*
X103630215Y-96230725D01*
X103963248Y-96169001D01*
X103970278Y-96167274D01*
X104294012Y-96067680D01*
X104300823Y-96065147D01*
X104610948Y-95929012D01*
X104617415Y-95925717D01*
X104909858Y-95754827D01*
X104915891Y-95750818D01*
X105186757Y-95547447D01*
X105192281Y-95542779D01*
X105250134Y-95487879D01*
X105258110Y-95474141D01*
X105258066Y-95473183D01*
X105253106Y-95465238D01*
X103262812Y-93474944D01*
X103248868Y-93467330D01*
X103247035Y-93467461D01*
X103240420Y-93471712D01*
X101250131Y-95462001D01*
X101242517Y-95475945D01*
X100250500Y-95475945D01*
X100250500Y-94485747D01*
X100270502Y-94417626D01*
X100324158Y-94371133D01*
X100394432Y-94361029D01*
X100459012Y-94390523D01*
X100493893Y-94439977D01*
X100516348Y-94497571D01*
X100519373Y-94504177D01*
X100677857Y-94803501D01*
X100681616Y-94809709D01*
X100873461Y-95088845D01*
X100877906Y-95094574D01*
X101012940Y-95249367D01*
X101026112Y-95257771D01*
X101035965Y-95251903D01*
X103025056Y-93262812D01*
X103031434Y-93251132D01*
X103467330Y-93251132D01*
X103467461Y-93252965D01*
X103471712Y-93259580D01*
X105463612Y-95251480D01*
X105476966Y-95258772D01*
X105486939Y-95251717D01*
X105660207Y-95044489D01*
X105664523Y-95038678D01*
X105850492Y-94755568D01*
X105854106Y-94749306D01*
X106006303Y-94446699D01*
X106009175Y-94440061D01*
X106125578Y-94121976D01*
X106127673Y-94115035D01*
X106206743Y-93785684D01*
X106208027Y-93778545D01*
X106248818Y-93441470D01*
X106249242Y-93435900D01*
X106254996Y-93252797D01*
X106254923Y-93247204D01*
X106235378Y-92908224D01*
X106234546Y-92901035D01*
X106193456Y-92665603D01*
X123698305Y-92665603D01*
X123698914Y-92674901D01*
X123700715Y-92686273D01*
X123749896Y-92879923D01*
X123753737Y-92890769D01*
X123837386Y-93072218D01*
X123843137Y-93082179D01*
X123958455Y-93245350D01*
X123965921Y-93254092D01*
X124109047Y-93393520D01*
X124117981Y-93400754D01*
X124284112Y-93511760D01*
X124294225Y-93517251D01*
X124477805Y-93596123D01*
X124488738Y-93599675D01*
X124678700Y-93642658D01*
X124687300Y-93640491D01*
X124687666Y-93640100D01*
X124690000Y-93630291D01*
X124690000Y-93622244D01*
X124990000Y-93622244D01*
X124993966Y-93635750D01*
X125007966Y-93637754D01*
X125103898Y-93623845D01*
X125115081Y-93621160D01*
X125304283Y-93556934D01*
X125314786Y-93552258D01*
X125489124Y-93454625D01*
X125498596Y-93448115D01*
X125652219Y-93320348D01*
X125660348Y-93312219D01*
X125788115Y-93158596D01*
X125794625Y-93149124D01*
X125892258Y-92974786D01*
X125896934Y-92964283D01*
X125961160Y-92775081D01*
X125963845Y-92763898D01*
X125977759Y-92667929D01*
X125975773Y-92653993D01*
X125962205Y-92650000D01*
X125008115Y-92650000D01*
X124992876Y-92654475D01*
X124991671Y-92655865D01*
X124990000Y-92663548D01*
X124990000Y-93622244D01*
X124690000Y-93622244D01*
X124690000Y-92668115D01*
X124685525Y-92652876D01*
X124684135Y-92651671D01*
X124676452Y-92650000D01*
X123715397Y-92650000D01*
X123700357Y-92654416D01*
X123698305Y-92665603D01*
X106193456Y-92665603D01*
X106176310Y-92567359D01*
X106174655Y-92560304D01*
X106148222Y-92471069D01*
X126275164Y-92471069D01*
X126288392Y-92672894D01*
X126338178Y-92868928D01*
X126422856Y-93052607D01*
X126426189Y-93057323D01*
X126535922Y-93212592D01*
X126539588Y-93217780D01*
X126543730Y-93221815D01*
X126580101Y-93257246D01*
X126684466Y-93358913D01*
X126852637Y-93471282D01*
X126857940Y-93473560D01*
X126857943Y-93473562D01*
X126989058Y-93529893D01*
X127038470Y-93551122D01*
X127235740Y-93595760D01*
X127241509Y-93595987D01*
X127241512Y-93595987D01*
X127317683Y-93598979D01*
X127437842Y-93603700D01*
X127524132Y-93591189D01*
X127632286Y-93575508D01*
X127632291Y-93575507D01*
X127638007Y-93574678D01*
X127643479Y-93572820D01*
X127643481Y-93572820D01*
X127824067Y-93511519D01*
X127824069Y-93511518D01*
X127829531Y-93509664D01*
X128006001Y-93410837D01*
X128068433Y-93358913D01*
X128157073Y-93285191D01*
X128161505Y-93281505D01*
X128290837Y-93126001D01*
X128389664Y-92949531D01*
X128452819Y-92763485D01*
X128452820Y-92763481D01*
X128452820Y-92763479D01*
X128454678Y-92758007D01*
X128455507Y-92752291D01*
X128455508Y-92752286D01*
X128483167Y-92561516D01*
X128483700Y-92557842D01*
X128485215Y-92500000D01*
X128466708Y-92298591D01*
X128454233Y-92254356D01*
X128413376Y-92109490D01*
X128411807Y-92103926D01*
X128322351Y-91922527D01*
X128318352Y-91917171D01*
X128204788Y-91765091D01*
X128204787Y-91765090D01*
X128201335Y-91760467D01*
X128191299Y-91751190D01*
X128057053Y-91627094D01*
X128057051Y-91627092D01*
X128052812Y-91623174D01*
X128046607Y-91619259D01*
X127886637Y-91518325D01*
X127881757Y-91515246D01*
X127693898Y-91440298D01*
X127495526Y-91400839D01*
X127489752Y-91400763D01*
X127489748Y-91400763D01*
X127387257Y-91399422D01*
X127293286Y-91398192D01*
X127287589Y-91399171D01*
X127287588Y-91399171D01*
X127099646Y-91431465D01*
X127099645Y-91431465D01*
X127093949Y-91432444D01*
X126904193Y-91502449D01*
X126899232Y-91505401D01*
X126899231Y-91505401D01*
X126772744Y-91580653D01*
X126730371Y-91605862D01*
X126578305Y-91739220D01*
X126453089Y-91898057D01*
X126358914Y-92077053D01*
X126298937Y-92270213D01*
X126275164Y-92471069D01*
X106148222Y-92471069D01*
X106107032Y-92332012D01*
X123701773Y-92332012D01*
X123704215Y-92346431D01*
X123716957Y-92350000D01*
X124671885Y-92350000D01*
X124687124Y-92345525D01*
X124688329Y-92344135D01*
X124690000Y-92336452D01*
X124690000Y-92331885D01*
X124990000Y-92331885D01*
X124994475Y-92347124D01*
X124995865Y-92348329D01*
X125003548Y-92350000D01*
X125963029Y-92350000D01*
X125977574Y-92345729D01*
X125979637Y-92333595D01*
X125976117Y-92295285D01*
X125974020Y-92283971D01*
X125919785Y-92091670D01*
X125915663Y-92080931D01*
X125827292Y-91901733D01*
X125821282Y-91891925D01*
X125701731Y-91731827D01*
X125694041Y-91723287D01*
X125547315Y-91587654D01*
X125538190Y-91580653D01*
X125369209Y-91474034D01*
X125358965Y-91468814D01*
X125173385Y-91394775D01*
X125162347Y-91391505D01*
X125007770Y-91360759D01*
X124994894Y-91361911D01*
X124990000Y-91377064D01*
X124990000Y-92331885D01*
X124690000Y-92331885D01*
X124690000Y-91376952D01*
X124686194Y-91363990D01*
X124671279Y-91362054D01*
X124546780Y-91383447D01*
X124535660Y-91386427D01*
X124348207Y-91455582D01*
X124337829Y-91460532D01*
X124166119Y-91562688D01*
X124156807Y-91569453D01*
X124006587Y-91701194D01*
X123998670Y-91709537D01*
X123874975Y-91866443D01*
X123868704Y-91876100D01*
X123775679Y-92052912D01*
X123771273Y-92063549D01*
X123712025Y-92254356D01*
X123709632Y-92265614D01*
X123701773Y-92332012D01*
X106107032Y-92332012D01*
X106078458Y-92235549D01*
X106076000Y-92228720D01*
X105943112Y-91917171D01*
X105939895Y-91910688D01*
X105772067Y-91616454D01*
X105768135Y-91610399D01*
X105567600Y-91337405D01*
X105562990Y-91331832D01*
X105487325Y-91250408D01*
X105473674Y-91242291D01*
X105473068Y-91242312D01*
X105464587Y-91247545D01*
X103474944Y-93237188D01*
X103467330Y-93251132D01*
X103031434Y-93251132D01*
X103032670Y-93248868D01*
X103032539Y-93247035D01*
X103028288Y-93240420D01*
X101896597Y-92108729D01*
X101862571Y-92046417D01*
X101867636Y-91975602D01*
X101896597Y-91930539D01*
X101930539Y-91896597D01*
X101992851Y-91862571D01*
X102063666Y-91867636D01*
X102108729Y-91896597D01*
X103237188Y-93025056D01*
X103251132Y-93032670D01*
X103252965Y-93032539D01*
X103259580Y-93028288D01*
X105250726Y-91037142D01*
X105258118Y-91023605D01*
X105251330Y-91013904D01*
X105069627Y-90858715D01*
X105063868Y-90854343D01*
X104782716Y-90665417D01*
X104776494Y-90661737D01*
X104475498Y-90506381D01*
X104468881Y-90503435D01*
X104444880Y-90494366D01*
X104388227Y-90451577D01*
X104363701Y-90384951D01*
X104379089Y-90315642D01*
X104429505Y-90265655D01*
X104489417Y-90250500D01*
X106024450Y-90250500D01*
X106092571Y-90270502D01*
G37*
%TD.AperFunction*%
%TD*%
M02*
