%TF.GenerationSoftware,KiCad,Pcbnew,(6.0.7)*%
%TF.CreationDate,2023-04-12T13:22:55-04:00*%
%TF.ProjectId,minirib-usb,6d696e69-7269-4622-9d75-73622e6b6963,E*%
%TF.SameCoordinates,Original*%
%TF.FileFunction,Copper,L2,Bot*%
%TF.FilePolarity,Positive*%
%FSLAX46Y46*%
G04 Gerber Fmt 4.6, Leading zero omitted, Abs format (unit mm)*
G04 Created by KiCad (PCBNEW (6.0.7)) date 2023-04-12 13:22:55*
%MOMM*%
%LPD*%
G01*
G04 APERTURE LIST*
%TA.AperFunction,ConnectorPad*%
%ADD10C,5.400000*%
%TD*%
%TA.AperFunction,ComponentPad*%
%ADD11C,3.100000*%
%TD*%
%TA.AperFunction,ComponentPad*%
%ADD12O,1.800000X1.150000*%
%TD*%
%TA.AperFunction,ComponentPad*%
%ADD13O,2.000000X1.450000*%
%TD*%
%TA.AperFunction,ComponentPad*%
%ADD14R,1.700000X1.700000*%
%TD*%
%TA.AperFunction,ComponentPad*%
%ADD15O,1.700000X1.700000*%
%TD*%
%TA.AperFunction,ComponentPad*%
%ADD16C,1.400000*%
%TD*%
%TA.AperFunction,ComponentPad*%
%ADD17C,3.000000*%
%TD*%
%TA.AperFunction,ViaPad*%
%ADD18C,0.800000*%
%TD*%
%TA.AperFunction,Conductor*%
%ADD19C,0.350000*%
%TD*%
%TA.AperFunction,Conductor*%
%ADD20C,0.450000*%
%TD*%
G04 APERTURE END LIST*
D10*
%TO.P,H4,1,1*%
%TO.N,GND*%
X103250000Y-116750000D03*
D11*
X103250000Y-116750000D03*
%TD*%
%TO.P,H1,1,1*%
%TO.N,GND*%
X156750000Y-93250000D03*
D10*
X156750000Y-93250000D03*
%TD*%
D11*
%TO.P,H2,1,1*%
%TO.N,GND*%
X156750000Y-116750000D03*
D10*
X156750000Y-116750000D03*
%TD*%
D12*
%TO.P,J1,6,Shield*%
%TO.N,GND*%
X157950000Y-101125000D03*
D13*
X154150000Y-101275000D03*
D12*
X157950000Y-108875000D03*
D13*
X154150000Y-108725000D03*
%TD*%
D14*
%TO.P,J4,1,Pin_1*%
%TO.N,BUS-*%
X125000000Y-117500000D03*
D15*
%TO.P,J4,2,Pin_2*%
%TO.N,BUS+*%
X127540000Y-117500000D03*
%TO.P,J4,3,Pin_3*%
%TO.N,~{BUSY}*%
X130080000Y-117500000D03*
%TO.P,J4,4,Pin_4*%
%TO.N,BUSY*%
X132620000Y-117500000D03*
%TO.P,J4,5,Pin_5*%
%TO.N,GND*%
X135160000Y-117500000D03*
%TD*%
D11*
%TO.P,H3,1,1*%
%TO.N,GND*%
X103250000Y-93250000D03*
D10*
X103250000Y-93250000D03*
%TD*%
D14*
%TO.P,J3,1,Pin_1*%
%TO.N,TXD*%
X135000000Y-92500000D03*
D15*
%TO.P,J3,2,Pin_2*%
%TO.N,RXD*%
X132460000Y-92500000D03*
%TO.P,J3,3,Pin_3*%
%TO.N,BUSY*%
X129920000Y-92500000D03*
%TO.P,J3,4,Pin_4*%
%TO.N,~{DTR}*%
X127380000Y-92500000D03*
%TO.P,J3,5,Pin_5*%
%TO.N,GND*%
X124840000Y-92500000D03*
%TD*%
D16*
%TO.P,J2,1*%
%TO.N,GND*%
X106050000Y-106300000D03*
%TO.P,J2,2*%
%TO.N,BIAS*%
X106050000Y-103700000D03*
%TO.P,J2,3*%
%TO.N,BUSY*%
X106050000Y-108400000D03*
%TO.P,J2,4*%
%TO.N,~{BUSY}*%
X106050000Y-101600000D03*
%TO.P,J2,5*%
%TO.N,BUS+*%
X108550000Y-108400000D03*
%TO.P,J2,6*%
%TO.N,BUS-*%
X108550000Y-101600000D03*
D17*
%TO.P,J2,SH*%
%TO.N,GND*%
X103050000Y-111750000D03*
X103050000Y-98250000D03*
%TD*%
D18*
%TO.N,BUSY*%
X131500000Y-106750000D03*
X137060000Y-113060000D03*
%TO.N,~{DTR}*%
X139000000Y-98500000D03*
%TO.N,TXD*%
X138500000Y-110500000D03*
%TO.N,GND*%
X137000000Y-108000000D03*
X128250000Y-108000000D03*
X116000000Y-103750000D03*
X123000000Y-98250000D03*
X120500000Y-94000000D03*
X120500000Y-92750000D03*
X108000000Y-106750000D03*
X132500000Y-96500000D03*
X116250000Y-109750000D03*
X137750000Y-91750000D03*
X142250000Y-108750000D03*
X116000000Y-106250000D03*
X109250000Y-106750000D03*
X134250000Y-108000000D03*
X121750000Y-95250000D03*
X124250000Y-97000000D03*
X129250000Y-107000000D03*
X142250000Y-106000000D03*
X143500000Y-108750000D03*
X140250000Y-91750000D03*
X139000000Y-93000000D03*
X120500000Y-95250000D03*
X133750000Y-96500000D03*
X126250000Y-106500000D03*
X109250000Y-105500000D03*
X125500000Y-97000000D03*
X120500000Y-91500000D03*
X125500000Y-98250000D03*
X125750000Y-111250000D03*
X129250000Y-102000000D03*
X132500000Y-95250000D03*
X132750000Y-108000000D03*
X140250000Y-94250000D03*
X120500000Y-96500000D03*
X121750000Y-94000000D03*
X140250000Y-93000000D03*
X124250000Y-98250000D03*
X108000000Y-105500000D03*
X139000000Y-91750000D03*
X142500000Y-102500000D03*
X126750000Y-98250000D03*
%TO.N,+5V*%
X148250000Y-114500000D03*
X123750000Y-99750000D03*
X132250000Y-114500000D03*
X135000000Y-99750000D03*
X119250000Y-99750000D03*
X114000000Y-100750000D03*
X114500000Y-114500000D03*
X149250000Y-99750000D03*
%TO.N,TXD*%
X146000000Y-101000000D03*
%TO.N,RXD*%
X143750000Y-104500000D03*
X137500000Y-101000000D03*
X127500000Y-101750000D03*
%TO.N,~{BUSY}*%
X135750000Y-108250000D03*
X135500000Y-113000000D03*
%TO.N,BUSY*%
X130250000Y-96750000D03*
%TD*%
D19*
%TO.N,BUSY*%
X131000000Y-107250000D02*
X131500000Y-106750000D01*
X131000000Y-107500000D02*
X131000000Y-107250000D01*
X133750000Y-113500000D02*
X131000000Y-110750000D01*
X134025000Y-113775000D02*
X133750000Y-113500000D01*
X136345000Y-113775000D02*
X134025000Y-113775000D01*
X137060000Y-113060000D02*
X136345000Y-113775000D01*
X131000000Y-110750000D02*
X131000000Y-107500000D01*
%TO.N,~{DTR}*%
X138500000Y-98000000D02*
X139000000Y-98500000D01*
X132000000Y-98000000D02*
X138500000Y-98000000D01*
%TO.N,TXD*%
X139250000Y-110500000D02*
X138500000Y-110500000D01*
D20*
%TO.N,+5V*%
X132250000Y-114500000D02*
X114500000Y-114500000D01*
X135000000Y-99750000D02*
X123750000Y-99750000D01*
X149250000Y-99750000D02*
X135000000Y-99750000D01*
X123750000Y-99750000D02*
X119250000Y-99750000D01*
X148750000Y-114000000D02*
X148250000Y-114500000D01*
X148250000Y-114500000D02*
X132250000Y-114500000D01*
X149250000Y-113500000D02*
X148750000Y-114000000D01*
X119250000Y-99750000D02*
X115000000Y-99750000D01*
X149250000Y-99750000D02*
X149250000Y-113500000D01*
X115000000Y-99750000D02*
X114000000Y-100750000D01*
D19*
%TO.N,TXD*%
X139250000Y-110500000D02*
X144250000Y-110500000D01*
X146000000Y-108750000D02*
X146000000Y-101000000D01*
X144250000Y-110500000D02*
X146000000Y-108750000D01*
%TO.N,RXD*%
X128250000Y-101000000D02*
X127500000Y-101750000D01*
X142750000Y-101000000D02*
X137500000Y-101000000D01*
X143750000Y-104500000D02*
X143750000Y-102000000D01*
X143750000Y-102000000D02*
X142750000Y-101000000D01*
X137500000Y-101000000D02*
X128250000Y-101000000D01*
%TO.N,~{BUSY}*%
X135750000Y-112750000D02*
X135750000Y-108250000D01*
X135500000Y-113000000D02*
X135750000Y-112750000D01*
%TO.N,BUSY*%
X130870000Y-119250000D02*
X114750000Y-119250000D01*
X114750000Y-119250000D02*
X113000000Y-117500000D01*
X132620000Y-117500000D02*
X130870000Y-119250000D01*
X113000000Y-111250000D02*
X112250000Y-110500000D01*
X108150000Y-110500000D02*
X106050000Y-108400000D01*
X130250000Y-96750000D02*
X129920000Y-96420000D01*
X112250000Y-110500000D02*
X108150000Y-110500000D01*
X129920000Y-96420000D02*
X129920000Y-92500000D01*
X113000000Y-117500000D02*
X113000000Y-111250000D01*
%TO.N,~{DTR}*%
X132000000Y-98000000D02*
X129250000Y-98000000D01*
X129250000Y-98000000D02*
X127380000Y-96130000D01*
X127380000Y-96130000D02*
X127380000Y-92500000D01*
%TD*%
%TA.AperFunction,Conductor*%
%TO.N,GND*%
G36*
X155581168Y-90270502D02*
G01*
X155627661Y-90324158D01*
X155637765Y-90394432D01*
X155608271Y-90459012D01*
X155567291Y-90490226D01*
X155305568Y-90615062D01*
X155299210Y-90618557D01*
X155012296Y-90798538D01*
X155006368Y-90802751D01*
X154745318Y-91011890D01*
X154739293Y-91023061D01*
X154739447Y-91025067D01*
X154743554Y-91031422D01*
X156737188Y-93025056D01*
X156751132Y-93032670D01*
X156752965Y-93032539D01*
X156759580Y-93028288D01*
X157891271Y-91896597D01*
X157953583Y-91862571D01*
X158024398Y-91867636D01*
X158069461Y-91896597D01*
X158103403Y-91930539D01*
X158137429Y-91992851D01*
X158132364Y-92063666D01*
X158103403Y-92108729D01*
X156974944Y-93237188D01*
X156967330Y-93251132D01*
X156967461Y-93252965D01*
X156971712Y-93259580D01*
X158963612Y-95251480D01*
X158976966Y-95258772D01*
X158986939Y-95251717D01*
X159160207Y-95044489D01*
X159164523Y-95038678D01*
X159350492Y-94755568D01*
X159354106Y-94749306D01*
X159506297Y-94446711D01*
X159507863Y-94443091D01*
X159553275Y-94388517D01*
X159620982Y-94367158D01*
X159689489Y-94385795D01*
X159737045Y-94438511D01*
X159749500Y-94493133D01*
X159749500Y-115518932D01*
X159729498Y-115587053D01*
X159675842Y-115633546D01*
X159605568Y-115643650D01*
X159540988Y-115614156D01*
X159507603Y-115568367D01*
X159443112Y-115417171D01*
X159439895Y-115410688D01*
X159272067Y-115116454D01*
X159268135Y-115110399D01*
X159067600Y-114837405D01*
X159062990Y-114831832D01*
X158987325Y-114750408D01*
X158973674Y-114742291D01*
X158973068Y-114742312D01*
X158964587Y-114747545D01*
X156974944Y-116737188D01*
X156967330Y-116751132D01*
X156967461Y-116752965D01*
X156971712Y-116759580D01*
X158103403Y-117891271D01*
X158137429Y-117953583D01*
X158132364Y-118024398D01*
X158103403Y-118069461D01*
X158069461Y-118103403D01*
X158007149Y-118137429D01*
X157936334Y-118132364D01*
X157891271Y-118103403D01*
X156762812Y-116974944D01*
X156748868Y-116967330D01*
X156747035Y-116967461D01*
X156740420Y-116971712D01*
X154750131Y-118962001D01*
X154742517Y-118975945D01*
X154742535Y-118976196D01*
X154748451Y-118984943D01*
X154856157Y-119082948D01*
X154861781Y-119087503D01*
X155136845Y-119285156D01*
X155142975Y-119289046D01*
X155438923Y-119453769D01*
X155445443Y-119456921D01*
X155566564Y-119507091D01*
X155621845Y-119551639D01*
X155644266Y-119619003D01*
X155626708Y-119687794D01*
X155574746Y-119736172D01*
X155518346Y-119749500D01*
X131276438Y-119749500D01*
X131208317Y-119729498D01*
X131161824Y-119675842D01*
X131151720Y-119605568D01*
X131181214Y-119540988D01*
X131187343Y-119534405D01*
X132142895Y-118578853D01*
X132205207Y-118544827D01*
X132270927Y-118548115D01*
X132273160Y-118548841D01*
X132278470Y-118551122D01*
X132284102Y-118552396D01*
X132284107Y-118552398D01*
X132445180Y-118588845D01*
X132475740Y-118595760D01*
X132481509Y-118595987D01*
X132481512Y-118595987D01*
X132557683Y-118598979D01*
X132677842Y-118603700D01*
X132764132Y-118591189D01*
X132872286Y-118575508D01*
X132872291Y-118575507D01*
X132878007Y-118574678D01*
X132883479Y-118572820D01*
X132883481Y-118572820D01*
X133064067Y-118511519D01*
X133064069Y-118511518D01*
X133069531Y-118509664D01*
X133246001Y-118410837D01*
X133308433Y-118358913D01*
X133397073Y-118285191D01*
X133401505Y-118281505D01*
X133530837Y-118126001D01*
X133629664Y-117949531D01*
X133694678Y-117758007D01*
X133695507Y-117752291D01*
X133695508Y-117752286D01*
X133708076Y-117665603D01*
X134018305Y-117665603D01*
X134018914Y-117674901D01*
X134020715Y-117686273D01*
X134069896Y-117879923D01*
X134073737Y-117890769D01*
X134157386Y-118072218D01*
X134163137Y-118082179D01*
X134278455Y-118245350D01*
X134285921Y-118254092D01*
X134429047Y-118393520D01*
X134437981Y-118400754D01*
X134604112Y-118511760D01*
X134614225Y-118517251D01*
X134797805Y-118596123D01*
X134808738Y-118599675D01*
X134998700Y-118642658D01*
X135007300Y-118640491D01*
X135007666Y-118640100D01*
X135010000Y-118630291D01*
X135010000Y-118622244D01*
X135310000Y-118622244D01*
X135313966Y-118635750D01*
X135327966Y-118637754D01*
X135423898Y-118623845D01*
X135435081Y-118621160D01*
X135624283Y-118556934D01*
X135634786Y-118552258D01*
X135809124Y-118454625D01*
X135818596Y-118448115D01*
X135972219Y-118320348D01*
X135980348Y-118312219D01*
X136108115Y-118158596D01*
X136114625Y-118149124D01*
X136212258Y-117974786D01*
X136216934Y-117964283D01*
X136281160Y-117775081D01*
X136283845Y-117763898D01*
X136297759Y-117667929D01*
X136295773Y-117653993D01*
X136282205Y-117650000D01*
X135328115Y-117650000D01*
X135312876Y-117654475D01*
X135311671Y-117655865D01*
X135310000Y-117663548D01*
X135310000Y-118622244D01*
X135010000Y-118622244D01*
X135010000Y-117668115D01*
X135005525Y-117652876D01*
X135004135Y-117651671D01*
X134996452Y-117650000D01*
X134035397Y-117650000D01*
X134020357Y-117654416D01*
X134018305Y-117665603D01*
X133708076Y-117665603D01*
X133714401Y-117621976D01*
X133723700Y-117557842D01*
X133725215Y-117500000D01*
X133709779Y-117332012D01*
X134021773Y-117332012D01*
X134024215Y-117346431D01*
X134036957Y-117350000D01*
X134991885Y-117350000D01*
X135007124Y-117345525D01*
X135008329Y-117344135D01*
X135010000Y-117336452D01*
X135010000Y-117331885D01*
X135310000Y-117331885D01*
X135314475Y-117347124D01*
X135315865Y-117348329D01*
X135323548Y-117350000D01*
X136283029Y-117350000D01*
X136297574Y-117345729D01*
X136299637Y-117333595D01*
X136296117Y-117295285D01*
X136294020Y-117283971D01*
X136239785Y-117091670D01*
X136235663Y-117080931D01*
X136147292Y-116901733D01*
X136141282Y-116891925D01*
X136021731Y-116731827D01*
X136014041Y-116723287D01*
X135944755Y-116659239D01*
X153746494Y-116659239D01*
X153755360Y-116997834D01*
X153755966Y-117005050D01*
X153803693Y-117340391D01*
X153805122Y-117347480D01*
X153891074Y-117675110D01*
X153893314Y-117682005D01*
X154016348Y-117997571D01*
X154019373Y-118004177D01*
X154177857Y-118303501D01*
X154181616Y-118309709D01*
X154373461Y-118588845D01*
X154377906Y-118594574D01*
X154512940Y-118749367D01*
X154526112Y-118757771D01*
X154535965Y-118751903D01*
X156525056Y-116762812D01*
X156532670Y-116748868D01*
X156532539Y-116747035D01*
X156528288Y-116740420D01*
X154535880Y-114748012D01*
X154521936Y-114740398D01*
X154520277Y-114740516D01*
X154513424Y-114744946D01*
X154498405Y-114760123D01*
X154493611Y-114765561D01*
X154284618Y-115032101D01*
X154280483Y-115038050D01*
X154103503Y-115326855D01*
X154100082Y-115333234D01*
X153957468Y-115640472D01*
X153954808Y-115647191D01*
X153848451Y-115968782D01*
X153846575Y-115975785D01*
X153777889Y-116307458D01*
X153776832Y-116314619D01*
X153746722Y-116651987D01*
X153746494Y-116659239D01*
X135944755Y-116659239D01*
X135867315Y-116587654D01*
X135858190Y-116580653D01*
X135689209Y-116474034D01*
X135678965Y-116468814D01*
X135493385Y-116394775D01*
X135482347Y-116391505D01*
X135327770Y-116360759D01*
X135314894Y-116361911D01*
X135310000Y-116377064D01*
X135310000Y-117331885D01*
X135010000Y-117331885D01*
X135010000Y-116376952D01*
X135006194Y-116363990D01*
X134991279Y-116362054D01*
X134866780Y-116383447D01*
X134855660Y-116386427D01*
X134668207Y-116455582D01*
X134657829Y-116460532D01*
X134486119Y-116562688D01*
X134476807Y-116569453D01*
X134326587Y-116701194D01*
X134318670Y-116709537D01*
X134194975Y-116866443D01*
X134188704Y-116876100D01*
X134095679Y-117052912D01*
X134091273Y-117063549D01*
X134032025Y-117254356D01*
X134029632Y-117265614D01*
X134021773Y-117332012D01*
X133709779Y-117332012D01*
X133706708Y-117298591D01*
X133701055Y-117278545D01*
X133653376Y-117109490D01*
X133651807Y-117103926D01*
X133562351Y-116922527D01*
X133546824Y-116901733D01*
X133444788Y-116765091D01*
X133444787Y-116765090D01*
X133441335Y-116760467D01*
X133437099Y-116756551D01*
X133297053Y-116627094D01*
X133297051Y-116627092D01*
X133292812Y-116623174D01*
X133265374Y-116605862D01*
X133126637Y-116518325D01*
X133121757Y-116515246D01*
X132933898Y-116440298D01*
X132735526Y-116400839D01*
X132729752Y-116400763D01*
X132729748Y-116400763D01*
X132627257Y-116399422D01*
X132533286Y-116398192D01*
X132527589Y-116399171D01*
X132527588Y-116399171D01*
X132339646Y-116431465D01*
X132339645Y-116431465D01*
X132333949Y-116432444D01*
X132144193Y-116502449D01*
X132139232Y-116505401D01*
X132139231Y-116505401D01*
X132012744Y-116580653D01*
X131970371Y-116605862D01*
X131818305Y-116739220D01*
X131693089Y-116898057D01*
X131598914Y-117077053D01*
X131538937Y-117270213D01*
X131515164Y-117471069D01*
X131528392Y-117672894D01*
X131529815Y-117678496D01*
X131574950Y-117856220D01*
X131572331Y-117927169D01*
X131541922Y-117976330D01*
X130730657Y-118787595D01*
X130668345Y-118821621D01*
X130641562Y-118824500D01*
X130359728Y-118824500D01*
X130291607Y-118804498D01*
X130245114Y-118750842D01*
X130235010Y-118680568D01*
X130264504Y-118615988D01*
X130330313Y-118575982D01*
X130332294Y-118575506D01*
X130338007Y-118574678D01*
X130519521Y-118513062D01*
X130524067Y-118511519D01*
X130524069Y-118511518D01*
X130529531Y-118509664D01*
X130706001Y-118410837D01*
X130768433Y-118358913D01*
X130857073Y-118285191D01*
X130861505Y-118281505D01*
X130990837Y-118126001D01*
X131089664Y-117949531D01*
X131154678Y-117758007D01*
X131155507Y-117752291D01*
X131155508Y-117752286D01*
X131174401Y-117621976D01*
X131183700Y-117557842D01*
X131185215Y-117500000D01*
X131166708Y-117298591D01*
X131161055Y-117278545D01*
X131113376Y-117109490D01*
X131111807Y-117103926D01*
X131022351Y-116922527D01*
X131006824Y-116901733D01*
X130904788Y-116765091D01*
X130904787Y-116765090D01*
X130901335Y-116760467D01*
X130897099Y-116756551D01*
X130757053Y-116627094D01*
X130757051Y-116627092D01*
X130752812Y-116623174D01*
X130725374Y-116605862D01*
X130586637Y-116518325D01*
X130581757Y-116515246D01*
X130393898Y-116440298D01*
X130195526Y-116400839D01*
X130189752Y-116400763D01*
X130189748Y-116400763D01*
X130087257Y-116399422D01*
X129993286Y-116398192D01*
X129987589Y-116399171D01*
X129987588Y-116399171D01*
X129799646Y-116431465D01*
X129799645Y-116431465D01*
X129793949Y-116432444D01*
X129604193Y-116502449D01*
X129599232Y-116505401D01*
X129599231Y-116505401D01*
X129472744Y-116580653D01*
X129430371Y-116605862D01*
X129278305Y-116739220D01*
X129153089Y-116898057D01*
X129058914Y-117077053D01*
X128998937Y-117270213D01*
X128975164Y-117471069D01*
X128988392Y-117672894D01*
X128999083Y-117714991D01*
X129034951Y-117856220D01*
X129038178Y-117868928D01*
X129122856Y-118052607D01*
X129239588Y-118217780D01*
X129243730Y-118221815D01*
X129278379Y-118255568D01*
X129384466Y-118358913D01*
X129552637Y-118471282D01*
X129557940Y-118473560D01*
X129557943Y-118473562D01*
X129709506Y-118538678D01*
X129738470Y-118551122D01*
X129829841Y-118571797D01*
X129846677Y-118575607D01*
X129908704Y-118610150D01*
X129942208Y-118672744D01*
X129936554Y-118743515D01*
X129893535Y-118799994D01*
X129826810Y-118824249D01*
X129818869Y-118824500D01*
X127819728Y-118824500D01*
X127751607Y-118804498D01*
X127705114Y-118750842D01*
X127695010Y-118680568D01*
X127724504Y-118615988D01*
X127790313Y-118575982D01*
X127792294Y-118575506D01*
X127798007Y-118574678D01*
X127979521Y-118513062D01*
X127984067Y-118511519D01*
X127984069Y-118511518D01*
X127989531Y-118509664D01*
X128166001Y-118410837D01*
X128228433Y-118358913D01*
X128317073Y-118285191D01*
X128321505Y-118281505D01*
X128450837Y-118126001D01*
X128549664Y-117949531D01*
X128614678Y-117758007D01*
X128615507Y-117752291D01*
X128615508Y-117752286D01*
X128634401Y-117621976D01*
X128643700Y-117557842D01*
X128645215Y-117500000D01*
X128626708Y-117298591D01*
X128621055Y-117278545D01*
X128573376Y-117109490D01*
X128571807Y-117103926D01*
X128482351Y-116922527D01*
X128466824Y-116901733D01*
X128364788Y-116765091D01*
X128364787Y-116765090D01*
X128361335Y-116760467D01*
X128357099Y-116756551D01*
X128217053Y-116627094D01*
X128217051Y-116627092D01*
X128212812Y-116623174D01*
X128185374Y-116605862D01*
X128046637Y-116518325D01*
X128041757Y-116515246D01*
X127853898Y-116440298D01*
X127655526Y-116400839D01*
X127649752Y-116400763D01*
X127649748Y-116400763D01*
X127547257Y-116399422D01*
X127453286Y-116398192D01*
X127447589Y-116399171D01*
X127447588Y-116399171D01*
X127259646Y-116431465D01*
X127259645Y-116431465D01*
X127253949Y-116432444D01*
X127064193Y-116502449D01*
X127059232Y-116505401D01*
X127059231Y-116505401D01*
X126932744Y-116580653D01*
X126890371Y-116605862D01*
X126738305Y-116739220D01*
X126613089Y-116898057D01*
X126518914Y-117077053D01*
X126458937Y-117270213D01*
X126435164Y-117471069D01*
X126448392Y-117672894D01*
X126459083Y-117714991D01*
X126494951Y-117856220D01*
X126498178Y-117868928D01*
X126582856Y-118052607D01*
X126699588Y-118217780D01*
X126703730Y-118221815D01*
X126738379Y-118255568D01*
X126844466Y-118358913D01*
X127012637Y-118471282D01*
X127017940Y-118473560D01*
X127017943Y-118473562D01*
X127169506Y-118538678D01*
X127198470Y-118551122D01*
X127289841Y-118571797D01*
X127306677Y-118575607D01*
X127368704Y-118610150D01*
X127402208Y-118672744D01*
X127396554Y-118743515D01*
X127353535Y-118799994D01*
X127286810Y-118824249D01*
X127278869Y-118824500D01*
X125998987Y-118824500D01*
X125930866Y-118804498D01*
X125884373Y-118750842D01*
X125874269Y-118680568D01*
X125903763Y-118615988D01*
X125944504Y-118586610D01*
X125947740Y-118585966D01*
X126030601Y-118530601D01*
X126085966Y-118447740D01*
X126100500Y-118374674D01*
X126100500Y-116625326D01*
X126085966Y-116552260D01*
X126030601Y-116469399D01*
X125947740Y-116414034D01*
X125874674Y-116399500D01*
X124125326Y-116399500D01*
X124052260Y-116414034D01*
X123969399Y-116469399D01*
X123914034Y-116552260D01*
X123899500Y-116625326D01*
X123899500Y-118374674D01*
X123914034Y-118447740D01*
X123969399Y-118530601D01*
X124052260Y-118585966D01*
X124054622Y-118586436D01*
X124104511Y-118626639D01*
X124126933Y-118694002D01*
X124109375Y-118762793D01*
X124057414Y-118811172D01*
X124001013Y-118824500D01*
X114978438Y-118824500D01*
X114910317Y-118804498D01*
X114889343Y-118787595D01*
X113462405Y-117360657D01*
X113428379Y-117298345D01*
X113425500Y-117271562D01*
X113425500Y-111182607D01*
X113418086Y-111159790D01*
X113413472Y-111140570D01*
X113411270Y-111126668D01*
X113409719Y-111116874D01*
X113398828Y-111095498D01*
X113391264Y-111077237D01*
X113386914Y-111063851D01*
X113386913Y-111063850D01*
X113383849Y-111054419D01*
X113377584Y-111045795D01*
X113369749Y-111035012D01*
X113359421Y-111018159D01*
X113348528Y-110996780D01*
X112503220Y-110151472D01*
X112481837Y-110140577D01*
X112464991Y-110130253D01*
X112453604Y-110121980D01*
X112445581Y-110116151D01*
X112436150Y-110113087D01*
X112436147Y-110113085D01*
X112422763Y-110108736D01*
X112404502Y-110101172D01*
X112391964Y-110094784D01*
X112391963Y-110094784D01*
X112383126Y-110090281D01*
X112359429Y-110086528D01*
X112340210Y-110081914D01*
X112317393Y-110074500D01*
X108378438Y-110074500D01*
X108310317Y-110054498D01*
X108289343Y-110037595D01*
X107006932Y-108755184D01*
X106972906Y-108692872D01*
X106976468Y-108626320D01*
X106979417Y-108617455D01*
X106979418Y-108617451D01*
X106981364Y-108611601D01*
X106992739Y-108521562D01*
X107004285Y-108430170D01*
X107004286Y-108430163D01*
X107004727Y-108426668D01*
X107005099Y-108400000D01*
X107003791Y-108386665D01*
X107594994Y-108386665D01*
X107595510Y-108392809D01*
X107606529Y-108524025D01*
X107610592Y-108572414D01*
X107612291Y-108578339D01*
X107659323Y-108742360D01*
X107661971Y-108751595D01*
X107664790Y-108757080D01*
X107727591Y-108879276D01*
X107747176Y-108917385D01*
X107862959Y-109063468D01*
X108004912Y-109184279D01*
X108167627Y-109275217D01*
X108344907Y-109332819D01*
X108529998Y-109354890D01*
X108536133Y-109354418D01*
X108536135Y-109354418D01*
X108709710Y-109341062D01*
X108709715Y-109341061D01*
X108715851Y-109340589D01*
X108721781Y-109338933D01*
X108721783Y-109338933D01*
X108877246Y-109295527D01*
X108895387Y-109290462D01*
X109061768Y-109206417D01*
X109079675Y-109192427D01*
X109203794Y-109095454D01*
X109203795Y-109095453D01*
X109208655Y-109091656D01*
X109330454Y-108950550D01*
X109338635Y-108936150D01*
X109400738Y-108826827D01*
X109422526Y-108788474D01*
X109481364Y-108611601D01*
X109492739Y-108521562D01*
X109504285Y-108430170D01*
X109504286Y-108430163D01*
X109504727Y-108426668D01*
X109505099Y-108400000D01*
X109486909Y-108214487D01*
X109485128Y-108208588D01*
X109485127Y-108208583D01*
X109434814Y-108041939D01*
X109433033Y-108036040D01*
X109378847Y-107934131D01*
X109348416Y-107876898D01*
X109348414Y-107876895D01*
X109345522Y-107871456D01*
X109341632Y-107866686D01*
X109341629Y-107866682D01*
X109231605Y-107731780D01*
X109231602Y-107731777D01*
X109227710Y-107727005D01*
X109222056Y-107722327D01*
X109134184Y-107649633D01*
X109084085Y-107608187D01*
X108920116Y-107519529D01*
X108785978Y-107478007D01*
X108747936Y-107466231D01*
X108747933Y-107466230D01*
X108742049Y-107464409D01*
X108735924Y-107463765D01*
X108735923Y-107463765D01*
X108562796Y-107445568D01*
X108562795Y-107445568D01*
X108556668Y-107444924D01*
X108489398Y-107451046D01*
X108377171Y-107461259D01*
X108377168Y-107461260D01*
X108371032Y-107461818D01*
X108365122Y-107463557D01*
X108365119Y-107463558D01*
X108227257Y-107504134D01*
X108192214Y-107514448D01*
X108027023Y-107600807D01*
X107881752Y-107717608D01*
X107761935Y-107860401D01*
X107758971Y-107865793D01*
X107758968Y-107865797D01*
X107696685Y-107979089D01*
X107672135Y-108023746D01*
X107670274Y-108029613D01*
X107670273Y-108029615D01*
X107631926Y-108150500D01*
X107615772Y-108201424D01*
X107594994Y-108386665D01*
X107003791Y-108386665D01*
X106986909Y-108214487D01*
X106985128Y-108208588D01*
X106985127Y-108208583D01*
X106934814Y-108041939D01*
X106933033Y-108036040D01*
X106878847Y-107934131D01*
X106848416Y-107876898D01*
X106848414Y-107876895D01*
X106845522Y-107871456D01*
X106841632Y-107866686D01*
X106841629Y-107866682D01*
X106731605Y-107731780D01*
X106731602Y-107731777D01*
X106727710Y-107727005D01*
X106722056Y-107722327D01*
X106634184Y-107649633D01*
X106584085Y-107608187D01*
X106420116Y-107519529D01*
X106398078Y-107512707D01*
X106345730Y-107496503D01*
X106286570Y-107457252D01*
X106258022Y-107392248D01*
X106269150Y-107322129D01*
X106316421Y-107269158D01*
X106349103Y-107254780D01*
X106407433Y-107238494D01*
X106418881Y-107234053D01*
X106582919Y-107151193D01*
X106593278Y-107144618D01*
X106629082Y-107116645D01*
X106637553Y-107104830D01*
X106631017Y-107093149D01*
X106062812Y-106524944D01*
X106048868Y-106517330D01*
X106047035Y-106517461D01*
X106040420Y-106521712D01*
X105467989Y-107094143D01*
X105460614Y-107107650D01*
X105467444Y-107117395D01*
X105471831Y-107121129D01*
X105481907Y-107128131D01*
X105642334Y-107217790D01*
X105653575Y-107222701D01*
X105755962Y-107255969D01*
X105814568Y-107296043D01*
X105842205Y-107361439D01*
X105830098Y-107431396D01*
X105782092Y-107483702D01*
X105752609Y-107496672D01*
X105692214Y-107514448D01*
X105527023Y-107600807D01*
X105381752Y-107717608D01*
X105261935Y-107860401D01*
X105258971Y-107865793D01*
X105258968Y-107865797D01*
X105196685Y-107979089D01*
X105172135Y-108023746D01*
X105170274Y-108029613D01*
X105170273Y-108029615D01*
X105131926Y-108150500D01*
X105115772Y-108201424D01*
X105094994Y-108386665D01*
X105095510Y-108392809D01*
X105106529Y-108524025D01*
X105110592Y-108572414D01*
X105112291Y-108578339D01*
X105159323Y-108742360D01*
X105161971Y-108751595D01*
X105164790Y-108757080D01*
X105227591Y-108879276D01*
X105247176Y-108917385D01*
X105362959Y-109063468D01*
X105504912Y-109184279D01*
X105667627Y-109275217D01*
X105844907Y-109332819D01*
X106029998Y-109354890D01*
X106036133Y-109354418D01*
X106036135Y-109354418D01*
X106209708Y-109341062D01*
X106209711Y-109341061D01*
X106215851Y-109340589D01*
X106221785Y-109338932D01*
X106221792Y-109338931D01*
X106280168Y-109322632D01*
X106351158Y-109323578D01*
X106403147Y-109354895D01*
X107896780Y-110848528D01*
X107918163Y-110859423D01*
X107935009Y-110869747D01*
X107954419Y-110883849D01*
X107963850Y-110886913D01*
X107963853Y-110886915D01*
X107977237Y-110891264D01*
X107995498Y-110898828D01*
X108006635Y-110904502D01*
X108016874Y-110909719D01*
X108040571Y-110913472D01*
X108059790Y-110918086D01*
X108082607Y-110925500D01*
X112021561Y-110925500D01*
X112089682Y-110945502D01*
X112110656Y-110962404D01*
X112537595Y-111389342D01*
X112571620Y-111451655D01*
X112574500Y-111478438D01*
X112574500Y-117567393D01*
X112581914Y-117590210D01*
X112586528Y-117609429D01*
X112590281Y-117633126D01*
X112594784Y-117641963D01*
X112594784Y-117641964D01*
X112601172Y-117654502D01*
X112608736Y-117672763D01*
X112613085Y-117686147D01*
X112613087Y-117686150D01*
X112616151Y-117695581D01*
X112621980Y-117703604D01*
X112630253Y-117714991D01*
X112640577Y-117731837D01*
X112651472Y-117753220D01*
X114432657Y-119534405D01*
X114466683Y-119596717D01*
X114461618Y-119667532D01*
X114419071Y-119724368D01*
X114352551Y-119749179D01*
X114343562Y-119749500D01*
X104481363Y-119749500D01*
X104413242Y-119729498D01*
X104366749Y-119675842D01*
X104356645Y-119605568D01*
X104386139Y-119540988D01*
X104430718Y-119508126D01*
X104610962Y-119429005D01*
X104617415Y-119425717D01*
X104909858Y-119254827D01*
X104915891Y-119250818D01*
X105186757Y-119047447D01*
X105192281Y-119042779D01*
X105250134Y-118987879D01*
X105258110Y-118974141D01*
X105258066Y-118973183D01*
X105253106Y-118965238D01*
X103262812Y-116974944D01*
X103248868Y-116967330D01*
X103247035Y-116967461D01*
X103240420Y-116971712D01*
X102108729Y-118103403D01*
X102046417Y-118137429D01*
X101975602Y-118132364D01*
X101930539Y-118103403D01*
X101896597Y-118069461D01*
X101862571Y-118007149D01*
X101867636Y-117936334D01*
X101896597Y-117891271D01*
X103025056Y-116762812D01*
X103031434Y-116751132D01*
X103467330Y-116751132D01*
X103467461Y-116752965D01*
X103471712Y-116759580D01*
X105463612Y-118751480D01*
X105476966Y-118758772D01*
X105486939Y-118751717D01*
X105660207Y-118544489D01*
X105664523Y-118538678D01*
X105850492Y-118255568D01*
X105854106Y-118249306D01*
X106006303Y-117946699D01*
X106009175Y-117940061D01*
X106125578Y-117621976D01*
X106127673Y-117615035D01*
X106206743Y-117285684D01*
X106208027Y-117278545D01*
X106248818Y-116941470D01*
X106249242Y-116935900D01*
X106254996Y-116752797D01*
X106254923Y-116747204D01*
X106235378Y-116408224D01*
X106234546Y-116401035D01*
X106176310Y-116067359D01*
X106174655Y-116060304D01*
X106078458Y-115735549D01*
X106076000Y-115728720D01*
X105943112Y-115417171D01*
X105939895Y-115410688D01*
X105772067Y-115116454D01*
X105768135Y-115110399D01*
X105567600Y-114837405D01*
X105562990Y-114831832D01*
X105487325Y-114750408D01*
X105473674Y-114742291D01*
X105473068Y-114742312D01*
X105464587Y-114747545D01*
X103474944Y-116737188D01*
X103467330Y-116751132D01*
X103031434Y-116751132D01*
X103032670Y-116748868D01*
X103032539Y-116747035D01*
X103028288Y-116740420D01*
X101035880Y-114748012D01*
X101021936Y-114740398D01*
X101020277Y-114740516D01*
X101013424Y-114744946D01*
X100998405Y-114760123D01*
X100993611Y-114765561D01*
X100784618Y-115032101D01*
X100780483Y-115038050D01*
X100603503Y-115326855D01*
X100600082Y-115333234D01*
X100490788Y-115568690D01*
X100443964Y-115622057D01*
X100375721Y-115641638D01*
X100307725Y-115621215D01*
X100261565Y-115567272D01*
X100250500Y-115515640D01*
X100250500Y-114523061D01*
X101239293Y-114523061D01*
X101239447Y-114525067D01*
X101243554Y-114531422D01*
X103237188Y-116525056D01*
X103251132Y-116532670D01*
X103252965Y-116532539D01*
X103259580Y-116528288D01*
X105250726Y-114537142D01*
X105258118Y-114523605D01*
X105251330Y-114513904D01*
X105069627Y-114358715D01*
X105063868Y-114354343D01*
X104782716Y-114165417D01*
X104776494Y-114161737D01*
X104475498Y-114006381D01*
X104468887Y-114003438D01*
X104152041Y-113883712D01*
X104145122Y-113881544D01*
X103816618Y-113799029D01*
X103809494Y-113797670D01*
X103473691Y-113753460D01*
X103473521Y-113753448D01*
X103473480Y-113753433D01*
X103470087Y-113752986D01*
X103470191Y-113752199D01*
X103407048Y-113728512D01*
X103364608Y-113671597D01*
X103359676Y-113600772D01*
X103393818Y-113538523D01*
X103450666Y-113505938D01*
X103633143Y-113457896D01*
X103641963Y-113454859D01*
X103879184Y-113352941D01*
X103887456Y-113348634D01*
X104107005Y-113212774D01*
X104114545Y-113207296D01*
X104198532Y-113136196D01*
X104206970Y-113123393D01*
X104200907Y-113113039D01*
X103062812Y-111974944D01*
X103048868Y-111967330D01*
X103047035Y-111967461D01*
X103040420Y-111971712D01*
X101897363Y-113114769D01*
X101890705Y-113126962D01*
X101899418Y-113138482D01*
X102089700Y-113278002D01*
X102097610Y-113282945D01*
X102326096Y-113403157D01*
X102334659Y-113406880D01*
X102578403Y-113492000D01*
X102587412Y-113494414D01*
X102790036Y-113532883D01*
X102853230Y-113565240D01*
X102888899Y-113626626D01*
X102885718Y-113697552D01*
X102844697Y-113755498D01*
X102786243Y-113781121D01*
X102776359Y-113782686D01*
X102445417Y-113854843D01*
X102438440Y-113856792D01*
X102117989Y-113966506D01*
X102111283Y-113969243D01*
X101805568Y-114115062D01*
X101799210Y-114118557D01*
X101512296Y-114298538D01*
X101506368Y-114302751D01*
X101245318Y-114511890D01*
X101239293Y-114523061D01*
X100250500Y-114523061D01*
X100250500Y-111707420D01*
X101245796Y-111707420D01*
X101258184Y-111965308D01*
X101259321Y-111974568D01*
X101309691Y-112227798D01*
X101312180Y-112236773D01*
X101399427Y-112479775D01*
X101403224Y-112488303D01*
X101525425Y-112715731D01*
X101530436Y-112723597D01*
X101662313Y-112900201D01*
X101673571Y-112908650D01*
X101685990Y-112901878D01*
X102825056Y-111762812D01*
X102831434Y-111751132D01*
X103267330Y-111751132D01*
X103267461Y-111752965D01*
X103271712Y-111759580D01*
X104411884Y-112899752D01*
X104425645Y-112907266D01*
X104435006Y-112900808D01*
X104488487Y-112839825D01*
X104494106Y-112832369D01*
X104633781Y-112615220D01*
X104638224Y-112607036D01*
X104744268Y-112371626D01*
X104747458Y-112362861D01*
X104817540Y-112114372D01*
X104819400Y-112105230D01*
X104852175Y-111847599D01*
X104852656Y-111841313D01*
X104854964Y-111753160D01*
X104854813Y-111746851D01*
X104835566Y-111487849D01*
X104834189Y-111478643D01*
X104777206Y-111226812D01*
X104774482Y-111217901D01*
X104680902Y-110977260D01*
X104676891Y-110968851D01*
X104548771Y-110744689D01*
X104543560Y-110736963D01*
X104436464Y-110601112D01*
X104424539Y-110592641D01*
X104413005Y-110599127D01*
X103274944Y-111737188D01*
X103267330Y-111751132D01*
X102831434Y-111751132D01*
X102832670Y-111748868D01*
X102832539Y-111747035D01*
X102828288Y-111740420D01*
X101688279Y-110600411D01*
X101674970Y-110593143D01*
X101664935Y-110600263D01*
X101583475Y-110698207D01*
X101578054Y-110705807D01*
X101444119Y-110926525D01*
X101439881Y-110934842D01*
X101340040Y-111172935D01*
X101337079Y-111181785D01*
X101273529Y-111432018D01*
X101271907Y-111441215D01*
X101246041Y-111698095D01*
X101245796Y-111707420D01*
X100250500Y-111707420D01*
X100250500Y-110376444D01*
X101892333Y-110376444D01*
X101898048Y-110385916D01*
X103037188Y-111525056D01*
X103051132Y-111532670D01*
X103052965Y-111532539D01*
X103059580Y-111528288D01*
X104201327Y-110386541D01*
X104208941Y-110372597D01*
X104208884Y-110371788D01*
X104203563Y-110363780D01*
X104189355Y-110350415D01*
X104182118Y-110344555D01*
X103969966Y-110197380D01*
X103961940Y-110192652D01*
X103730371Y-110078455D01*
X103721738Y-110074967D01*
X103475831Y-109996252D01*
X103466770Y-109994076D01*
X103211931Y-109952573D01*
X103202644Y-109951761D01*
X102944482Y-109948381D01*
X102935171Y-109948951D01*
X102679341Y-109983768D01*
X102670222Y-109985706D01*
X102422358Y-110057952D01*
X102413605Y-110061224D01*
X102179142Y-110169313D01*
X102170987Y-110173833D01*
X101955067Y-110315396D01*
X101947671Y-110321071D01*
X101900701Y-110362993D01*
X101892333Y-110376444D01*
X100250500Y-110376444D01*
X100250500Y-105000000D01*
X100894341Y-105000000D01*
X100914937Y-105235408D01*
X100916361Y-105240722D01*
X100916361Y-105240723D01*
X100931127Y-105295829D01*
X100976097Y-105463663D01*
X101075965Y-105677829D01*
X101211505Y-105871401D01*
X101378599Y-106038495D01*
X101572171Y-106174035D01*
X101577149Y-106176356D01*
X101577152Y-106176358D01*
X101781355Y-106271580D01*
X101786337Y-106273903D01*
X101791645Y-106275325D01*
X101791647Y-106275326D01*
X102001518Y-106331560D01*
X102014592Y-106335063D01*
X102117682Y-106344082D01*
X102188310Y-106350262D01*
X102188317Y-106350262D01*
X102191034Y-106350500D01*
X102308966Y-106350500D01*
X102311683Y-106350262D01*
X102311690Y-106350262D01*
X102382318Y-106344082D01*
X102485408Y-106335063D01*
X102498482Y-106331560D01*
X102645698Y-106292114D01*
X105045775Y-106292114D01*
X105061153Y-106475252D01*
X105063368Y-106487317D01*
X105114025Y-106663980D01*
X105118543Y-106675392D01*
X105202545Y-106838841D01*
X105209197Y-106849163D01*
X105233098Y-106879319D01*
X105245089Y-106887790D01*
X105256534Y-106881334D01*
X105825056Y-106312812D01*
X105831434Y-106301132D01*
X106267330Y-106301132D01*
X106267461Y-106302965D01*
X106271712Y-106309580D01*
X106844507Y-106882375D01*
X106858133Y-106889816D01*
X106867475Y-106883316D01*
X106874142Y-106873866D01*
X106964919Y-106714068D01*
X106969913Y-106702852D01*
X107027921Y-106528473D01*
X107030641Y-106516502D01*
X107054004Y-106331560D01*
X107054496Y-106324533D01*
X107054790Y-106303523D01*
X107054495Y-106296494D01*
X107036303Y-106110959D01*
X107033920Y-106098924D01*
X106980801Y-105922985D01*
X106976126Y-105911644D01*
X106889849Y-105749380D01*
X106883051Y-105739148D01*
X106867519Y-105720104D01*
X106855174Y-105711640D01*
X106844199Y-105717933D01*
X106274944Y-106287188D01*
X106267330Y-106301132D01*
X105831434Y-106301132D01*
X105832670Y-106298868D01*
X105832539Y-106297035D01*
X105828288Y-106290420D01*
X105256187Y-105718319D01*
X105242802Y-105711010D01*
X105232876Y-105718019D01*
X105224853Y-105727581D01*
X105217927Y-105737695D01*
X105129383Y-105898757D01*
X105124555Y-105910021D01*
X105068981Y-106085213D01*
X105066433Y-106097201D01*
X105045946Y-106279845D01*
X105045775Y-106292114D01*
X102645698Y-106292114D01*
X102708353Y-106275326D01*
X102708355Y-106275325D01*
X102713663Y-106273903D01*
X102718645Y-106271580D01*
X102922848Y-106176358D01*
X102922851Y-106176356D01*
X102927829Y-106174035D01*
X103121401Y-106038495D01*
X103288495Y-105871401D01*
X103291655Y-105866889D01*
X103420878Y-105682339D01*
X103420881Y-105682334D01*
X103424035Y-105677830D01*
X103426358Y-105672848D01*
X103426361Y-105672843D01*
X103509302Y-105494975D01*
X105461942Y-105494975D01*
X105468317Y-105506185D01*
X106037188Y-106075056D01*
X106051132Y-106082670D01*
X106052965Y-106082539D01*
X106059580Y-106078288D01*
X106631385Y-105506483D01*
X106638627Y-105493220D01*
X106631441Y-105483118D01*
X106616642Y-105470875D01*
X106606484Y-105464023D01*
X106444809Y-105376606D01*
X106433504Y-105371854D01*
X106257938Y-105317507D01*
X106245925Y-105315041D01*
X106063143Y-105295829D01*
X106050875Y-105295744D01*
X105867851Y-105312400D01*
X105855799Y-105314699D01*
X105679496Y-105366589D01*
X105668119Y-105371186D01*
X105505245Y-105456334D01*
X105494987Y-105463046D01*
X105470410Y-105482807D01*
X105461942Y-105494975D01*
X103509302Y-105494975D01*
X103521580Y-105468645D01*
X103521581Y-105468644D01*
X103523903Y-105463663D01*
X103568874Y-105295829D01*
X103583639Y-105240723D01*
X103583639Y-105240722D01*
X103585063Y-105235408D01*
X103605659Y-105000000D01*
X103585063Y-104764592D01*
X103555542Y-104654418D01*
X103525326Y-104541647D01*
X103525325Y-104541645D01*
X103523903Y-104536337D01*
X103511434Y-104509598D01*
X103426358Y-104327152D01*
X103426356Y-104327149D01*
X103424035Y-104322171D01*
X103288495Y-104128599D01*
X103121401Y-103961505D01*
X102927829Y-103825965D01*
X102922851Y-103823644D01*
X102922848Y-103823642D01*
X102718645Y-103728420D01*
X102718643Y-103728419D01*
X102713663Y-103726097D01*
X102708355Y-103724675D01*
X102708353Y-103724674D01*
X102566500Y-103686665D01*
X105094994Y-103686665D01*
X105095510Y-103692809D01*
X105106692Y-103825965D01*
X105110592Y-103872414D01*
X105112291Y-103878339D01*
X105160244Y-104045572D01*
X105161971Y-104051595D01*
X105167116Y-104061606D01*
X105233183Y-104190157D01*
X105247176Y-104217385D01*
X105362959Y-104363468D01*
X105504912Y-104484279D01*
X105510290Y-104487285D01*
X105510292Y-104487286D01*
X105586270Y-104529748D01*
X105667627Y-104575217D01*
X105844907Y-104632819D01*
X106029998Y-104654890D01*
X106036133Y-104654418D01*
X106036135Y-104654418D01*
X106209710Y-104641062D01*
X106209715Y-104641061D01*
X106215851Y-104640589D01*
X106221781Y-104638933D01*
X106221783Y-104638933D01*
X106389459Y-104592117D01*
X106389458Y-104592117D01*
X106395387Y-104590462D01*
X106561768Y-104506417D01*
X106569982Y-104500000D01*
X106703794Y-104395454D01*
X106703795Y-104395453D01*
X106708655Y-104391656D01*
X106830454Y-104250550D01*
X106922526Y-104088474D01*
X106981364Y-103911601D01*
X107004727Y-103726668D01*
X107005099Y-103700000D01*
X106986909Y-103514487D01*
X106985128Y-103508588D01*
X106985127Y-103508583D01*
X106934814Y-103341939D01*
X106933033Y-103336040D01*
X106845522Y-103171456D01*
X106841632Y-103166686D01*
X106841629Y-103166682D01*
X106731605Y-103031780D01*
X106731602Y-103031777D01*
X106727710Y-103027005D01*
X106722056Y-103022327D01*
X106588834Y-102912116D01*
X106584085Y-102908187D01*
X106420116Y-102819529D01*
X106317395Y-102787732D01*
X106258435Y-102769481D01*
X106199276Y-102730230D01*
X106170728Y-102665226D01*
X106181856Y-102595107D01*
X106229127Y-102542135D01*
X106261810Y-102527757D01*
X106268712Y-102525830D01*
X106395387Y-102490462D01*
X106561768Y-102406417D01*
X106586255Y-102387286D01*
X106703794Y-102295454D01*
X106703795Y-102295453D01*
X106708655Y-102291656D01*
X106830454Y-102150550D01*
X106835005Y-102142540D01*
X106878665Y-102065683D01*
X106922526Y-101988474D01*
X106981364Y-101811601D01*
X106990013Y-101743138D01*
X107004285Y-101630170D01*
X107004286Y-101630163D01*
X107004727Y-101626668D01*
X107005099Y-101600000D01*
X107003791Y-101586665D01*
X107594994Y-101586665D01*
X107595510Y-101592809D01*
X107608768Y-101750688D01*
X107610592Y-101772414D01*
X107612291Y-101778339D01*
X107654915Y-101926986D01*
X107661971Y-101951595D01*
X107664790Y-101957080D01*
X107740999Y-102105365D01*
X107747176Y-102117385D01*
X107862959Y-102263468D01*
X108004912Y-102384279D01*
X108167627Y-102475217D01*
X108344907Y-102532819D01*
X108529998Y-102554890D01*
X108536133Y-102554418D01*
X108536135Y-102554418D01*
X108709710Y-102541062D01*
X108709715Y-102541061D01*
X108715851Y-102540589D01*
X108721781Y-102538933D01*
X108721783Y-102538933D01*
X108861225Y-102500000D01*
X108895387Y-102490462D01*
X109061768Y-102406417D01*
X109086255Y-102387286D01*
X109203794Y-102295454D01*
X109203795Y-102295453D01*
X109208655Y-102291656D01*
X109330454Y-102150550D01*
X109335005Y-102142540D01*
X109378665Y-102065683D01*
X109422526Y-101988474D01*
X109481364Y-101811601D01*
X109490013Y-101743138D01*
X109504285Y-101630170D01*
X109504286Y-101630163D01*
X109504727Y-101626668D01*
X109505099Y-101600000D01*
X109486909Y-101414487D01*
X109485128Y-101408588D01*
X109485127Y-101408583D01*
X109434814Y-101241939D01*
X109433033Y-101236040D01*
X109373992Y-101125000D01*
X109348416Y-101076898D01*
X109348414Y-101076895D01*
X109345522Y-101071456D01*
X109341632Y-101066686D01*
X109341629Y-101066682D01*
X109231605Y-100931780D01*
X109231602Y-100931777D01*
X109227710Y-100927005D01*
X109222056Y-100922327D01*
X109088834Y-100812116D01*
X109084085Y-100808187D01*
X108963780Y-100743138D01*
X113344758Y-100743138D01*
X113362035Y-100899633D01*
X113416143Y-101047490D01*
X113420380Y-101053796D01*
X113420382Y-101053799D01*
X113451991Y-101100837D01*
X113503958Y-101178172D01*
X113620410Y-101284135D01*
X113661671Y-101306538D01*
X113752099Y-101355637D01*
X113752101Y-101355638D01*
X113758776Y-101359262D01*
X113766125Y-101361190D01*
X113903719Y-101397287D01*
X113903721Y-101397287D01*
X113911069Y-101399215D01*
X113994380Y-101400524D01*
X114060898Y-101401569D01*
X114060901Y-101401569D01*
X114068495Y-101401688D01*
X114221968Y-101366538D01*
X114362625Y-101295795D01*
X114388869Y-101273381D01*
X114476574Y-101198474D01*
X114476576Y-101198471D01*
X114482348Y-101193542D01*
X114574224Y-101065683D01*
X114632950Y-100919598D01*
X114648613Y-100809540D01*
X114678013Y-100744917D01*
X114684261Y-100738197D01*
X115160055Y-100262404D01*
X115222367Y-100228379D01*
X115249150Y-100225500D01*
X118757224Y-100225500D01*
X118825345Y-100245502D01*
X118842023Y-100258306D01*
X118864789Y-100279021D01*
X118864793Y-100279024D01*
X118870410Y-100284135D01*
X118889826Y-100294677D01*
X119002099Y-100355637D01*
X119002101Y-100355638D01*
X119008776Y-100359262D01*
X119016125Y-100361190D01*
X119153719Y-100397287D01*
X119153721Y-100397287D01*
X119161069Y-100399215D01*
X119244380Y-100400524D01*
X119310898Y-100401569D01*
X119310901Y-100401569D01*
X119318495Y-100401688D01*
X119471968Y-100366538D01*
X119612625Y-100295795D01*
X119659584Y-100255688D01*
X119724372Y-100226658D01*
X119741413Y-100225500D01*
X123257224Y-100225500D01*
X123325345Y-100245502D01*
X123342023Y-100258306D01*
X123364789Y-100279021D01*
X123364793Y-100279024D01*
X123370410Y-100284135D01*
X123389826Y-100294677D01*
X123502099Y-100355637D01*
X123502101Y-100355638D01*
X123508776Y-100359262D01*
X123516125Y-100361190D01*
X123653719Y-100397287D01*
X123653721Y-100397287D01*
X123661069Y-100399215D01*
X123744380Y-100400524D01*
X123810898Y-100401569D01*
X123810901Y-100401569D01*
X123818495Y-100401688D01*
X123971968Y-100366538D01*
X124112625Y-100295795D01*
X124159584Y-100255688D01*
X124224372Y-100226658D01*
X124241413Y-100225500D01*
X134507224Y-100225500D01*
X134575345Y-100245502D01*
X134592023Y-100258306D01*
X134614789Y-100279021D01*
X134614793Y-100279024D01*
X134620410Y-100284135D01*
X134693524Y-100323833D01*
X134719191Y-100337769D01*
X134769513Y-100387852D01*
X134784769Y-100457190D01*
X134760116Y-100523769D01*
X134703382Y-100566451D01*
X134659069Y-100574500D01*
X128182607Y-100574500D01*
X128159790Y-100581914D01*
X128140571Y-100586528D01*
X128116874Y-100590281D01*
X128108037Y-100594784D01*
X128108036Y-100594784D01*
X128095498Y-100601172D01*
X128077237Y-100608736D01*
X128063851Y-100613086D01*
X128063850Y-100613087D01*
X128054419Y-100616151D01*
X128046399Y-100621978D01*
X128046397Y-100621979D01*
X128035012Y-100630251D01*
X128018159Y-100640579D01*
X127996780Y-100651472D01*
X127585716Y-101062536D01*
X127523404Y-101096561D01*
X127495963Y-101099438D01*
X127424684Y-101099065D01*
X127417305Y-101100837D01*
X127417301Y-101100837D01*
X127278967Y-101134048D01*
X127278963Y-101134049D01*
X127271588Y-101135820D01*
X127206144Y-101169598D01*
X127171698Y-101187377D01*
X127131679Y-101208032D01*
X127125957Y-101213024D01*
X127125955Y-101213025D01*
X127018759Y-101306538D01*
X127018756Y-101306541D01*
X127013034Y-101311533D01*
X127008667Y-101317747D01*
X126927466Y-101433284D01*
X126922501Y-101440348D01*
X126865309Y-101587039D01*
X126861875Y-101613125D01*
X126849528Y-101706908D01*
X126844758Y-101743138D01*
X126862035Y-101899633D01*
X126916143Y-102047490D01*
X126920380Y-102053796D01*
X126920382Y-102053799D01*
X126959429Y-102111906D01*
X127003958Y-102178172D01*
X127120410Y-102284135D01*
X127127085Y-102287759D01*
X127252099Y-102355637D01*
X127252101Y-102355638D01*
X127258776Y-102359262D01*
X127266125Y-102361190D01*
X127403719Y-102397287D01*
X127403721Y-102397287D01*
X127411069Y-102399215D01*
X127494380Y-102400524D01*
X127560898Y-102401569D01*
X127560901Y-102401569D01*
X127568495Y-102401688D01*
X127721968Y-102366538D01*
X127862625Y-102295795D01*
X127964495Y-102208790D01*
X127976574Y-102198474D01*
X127976576Y-102198471D01*
X127982348Y-102193542D01*
X128074224Y-102065683D01*
X128132950Y-101919598D01*
X128140730Y-101864929D01*
X128154553Y-101767807D01*
X128154553Y-101767804D01*
X128155134Y-101763723D01*
X128155278Y-101750000D01*
X128156670Y-101750015D01*
X128171539Y-101686633D01*
X128192037Y-101659710D01*
X128389342Y-101462405D01*
X128451654Y-101428379D01*
X128478437Y-101425500D01*
X136952275Y-101425500D01*
X137020396Y-101445502D01*
X137037074Y-101458305D01*
X137120410Y-101534135D01*
X137141885Y-101545795D01*
X137252099Y-101605637D01*
X137252101Y-101605638D01*
X137258776Y-101609262D01*
X137266125Y-101611190D01*
X137403719Y-101647287D01*
X137403721Y-101647287D01*
X137411069Y-101649215D01*
X137494380Y-101650524D01*
X137560898Y-101651569D01*
X137560901Y-101651569D01*
X137568495Y-101651688D01*
X137721968Y-101616538D01*
X137862625Y-101545795D01*
X137899735Y-101514100D01*
X137968126Y-101455689D01*
X138032916Y-101426658D01*
X138049956Y-101425500D01*
X142521562Y-101425500D01*
X142589683Y-101445502D01*
X142610657Y-101462405D01*
X143287595Y-102139343D01*
X143321621Y-102201655D01*
X143324500Y-102228438D01*
X143324500Y-103950624D01*
X143304498Y-104018745D01*
X143281330Y-104045572D01*
X143281220Y-104045668D01*
X143263034Y-104061533D01*
X143240330Y-104093837D01*
X143218637Y-104124704D01*
X143172501Y-104190348D01*
X143115309Y-104337039D01*
X143094758Y-104493138D01*
X143112035Y-104649633D01*
X143166143Y-104797490D01*
X143170380Y-104803796D01*
X143170382Y-104803799D01*
X143210709Y-104863811D01*
X143253958Y-104928172D01*
X143370410Y-105034135D01*
X143377085Y-105037759D01*
X143502099Y-105105637D01*
X143502101Y-105105638D01*
X143508776Y-105109262D01*
X143516125Y-105111190D01*
X143653719Y-105147287D01*
X143653721Y-105147287D01*
X143661069Y-105149215D01*
X143744380Y-105150524D01*
X143810898Y-105151569D01*
X143810901Y-105151569D01*
X143818495Y-105151688D01*
X143971968Y-105116538D01*
X144112625Y-105045795D01*
X144172655Y-104994525D01*
X144226574Y-104948474D01*
X144226576Y-104948471D01*
X144232348Y-104943542D01*
X144324224Y-104815683D01*
X144382950Y-104669598D01*
X144405134Y-104513723D01*
X144405278Y-104500000D01*
X144403740Y-104487286D01*
X144401000Y-104464652D01*
X144386363Y-104343694D01*
X144351167Y-104250550D01*
X144333394Y-104203514D01*
X144333393Y-104203511D01*
X144330710Y-104196412D01*
X144241531Y-104066657D01*
X144217679Y-104045406D01*
X144180125Y-103985156D01*
X144175500Y-103951331D01*
X144175500Y-101932607D01*
X144172437Y-101923180D01*
X144172436Y-101923173D01*
X144168087Y-101909788D01*
X144163473Y-101890569D01*
X144161271Y-101876669D01*
X144161270Y-101876666D01*
X144159719Y-101866874D01*
X144148830Y-101845503D01*
X144141265Y-101827239D01*
X144136915Y-101813852D01*
X144136914Y-101813849D01*
X144133850Y-101804420D01*
X144119744Y-101785006D01*
X144109416Y-101768150D01*
X144109242Y-101767807D01*
X144098528Y-101746780D01*
X143003220Y-100651472D01*
X142981837Y-100640577D01*
X142964991Y-100630253D01*
X142953604Y-100621980D01*
X142945581Y-100616151D01*
X142936150Y-100613087D01*
X142936147Y-100613085D01*
X142922763Y-100608736D01*
X142904502Y-100601172D01*
X142891964Y-100594784D01*
X142891963Y-100594784D01*
X142883126Y-100590281D01*
X142859429Y-100586528D01*
X142840210Y-100581914D01*
X142817393Y-100574500D01*
X138048322Y-100574500D01*
X137980201Y-100554498D01*
X137964503Y-100542576D01*
X137879653Y-100466977D01*
X137873976Y-100461919D01*
X137867255Y-100458360D01*
X137862371Y-100454966D01*
X137817849Y-100399664D01*
X137810292Y-100329071D01*
X137842101Y-100265598D01*
X137903176Y-100229399D01*
X137934280Y-100225500D01*
X145565893Y-100225500D01*
X145634014Y-100245502D01*
X145680507Y-100299158D01*
X145690611Y-100369432D01*
X145661117Y-100434012D01*
X145637465Y-100455046D01*
X145631679Y-100458032D01*
X145625958Y-100463023D01*
X145518759Y-100556538D01*
X145518756Y-100556541D01*
X145513034Y-100561533D01*
X145489817Y-100594568D01*
X145439451Y-100666231D01*
X145422501Y-100690348D01*
X145365309Y-100837039D01*
X145364318Y-100844568D01*
X145347525Y-100972124D01*
X145344758Y-100993138D01*
X145362035Y-101149633D01*
X145416143Y-101297490D01*
X145420380Y-101303796D01*
X145420382Y-101303799D01*
X145454761Y-101354960D01*
X145503958Y-101428172D01*
X145532751Y-101454371D01*
X145533299Y-101454870D01*
X145570222Y-101515510D01*
X145574500Y-101548064D01*
X145574500Y-108521562D01*
X145554498Y-108589683D01*
X145537595Y-108610657D01*
X144110657Y-110037595D01*
X144048345Y-110071621D01*
X144021562Y-110074500D01*
X139048322Y-110074500D01*
X138980201Y-110054498D01*
X138964503Y-110042576D01*
X138879648Y-109966972D01*
X138879645Y-109966970D01*
X138873976Y-109961919D01*
X138734831Y-109888245D01*
X138718122Y-109884048D01*
X138589498Y-109851740D01*
X138589496Y-109851740D01*
X138582128Y-109849889D01*
X138574530Y-109849849D01*
X138574528Y-109849849D01*
X138507319Y-109849497D01*
X138424684Y-109849065D01*
X138417305Y-109850837D01*
X138417301Y-109850837D01*
X138278967Y-109884048D01*
X138278963Y-109884049D01*
X138271588Y-109885820D01*
X138264843Y-109889301D01*
X138264844Y-109889301D01*
X138142256Y-109952573D01*
X138131679Y-109958032D01*
X138125957Y-109963024D01*
X138125955Y-109963025D01*
X138018759Y-110056538D01*
X138018756Y-110056541D01*
X138013034Y-110061533D01*
X137989665Y-110094784D01*
X137937285Y-110169313D01*
X137922501Y-110190348D01*
X137865309Y-110337039D01*
X137844758Y-110493138D01*
X137862035Y-110649633D01*
X137916143Y-110797490D01*
X137920380Y-110803796D01*
X137920382Y-110803799D01*
X137944845Y-110840203D01*
X138003958Y-110928172D01*
X138120410Y-111034135D01*
X138127085Y-111037759D01*
X138252099Y-111105637D01*
X138252101Y-111105638D01*
X138258776Y-111109262D01*
X138266125Y-111111190D01*
X138403719Y-111147287D01*
X138403721Y-111147287D01*
X138411069Y-111149215D01*
X138494380Y-111150524D01*
X138560898Y-111151569D01*
X138560901Y-111151569D01*
X138568495Y-111151688D01*
X138721968Y-111116538D01*
X138862625Y-111045795D01*
X138942869Y-110977260D01*
X138968126Y-110955689D01*
X139032916Y-110926658D01*
X139049956Y-110925500D01*
X144317393Y-110925500D01*
X144340210Y-110918086D01*
X144359429Y-110913472D01*
X144383126Y-110909719D01*
X144393365Y-110904502D01*
X144404502Y-110898828D01*
X144422763Y-110891264D01*
X144436147Y-110886915D01*
X144436150Y-110886913D01*
X144445581Y-110883849D01*
X144464991Y-110869747D01*
X144481837Y-110859423D01*
X144503220Y-110848528D01*
X146348528Y-109003220D01*
X146359419Y-108981844D01*
X146369749Y-108964989D01*
X146378021Y-108953604D01*
X146378021Y-108953603D01*
X146383850Y-108945581D01*
X146391264Y-108922763D01*
X146398827Y-108904502D01*
X146409719Y-108883126D01*
X146411270Y-108873335D01*
X146411272Y-108873328D01*
X146413473Y-108859431D01*
X146418087Y-108840212D01*
X146422436Y-108826827D01*
X146422437Y-108826820D01*
X146425500Y-108817393D01*
X146425500Y-101550182D01*
X146445502Y-101482061D01*
X146469669Y-101454371D01*
X146476576Y-101448472D01*
X146476577Y-101448471D01*
X146482348Y-101443542D01*
X146574224Y-101315683D01*
X146632950Y-101169598D01*
X146646862Y-101071849D01*
X146654553Y-101017807D01*
X146654553Y-101017804D01*
X146655134Y-101013723D01*
X146655278Y-101000000D01*
X146652051Y-100973329D01*
X146650061Y-100956885D01*
X146636363Y-100843694D01*
X146621616Y-100804667D01*
X146583394Y-100703514D01*
X146583393Y-100703511D01*
X146580710Y-100696412D01*
X146491531Y-100566657D01*
X146373976Y-100461919D01*
X146367255Y-100458360D01*
X146362371Y-100454966D01*
X146317849Y-100399664D01*
X146310292Y-100329071D01*
X146342101Y-100265598D01*
X146403176Y-100229399D01*
X146434280Y-100225500D01*
X148648500Y-100225500D01*
X148716621Y-100245502D01*
X148763114Y-100299158D01*
X148774500Y-100351500D01*
X148774500Y-113250852D01*
X148754498Y-113318973D01*
X148737595Y-113339947D01*
X148265375Y-113812167D01*
X148203063Y-113846193D01*
X148189749Y-113847588D01*
X148189823Y-113848232D01*
X148182278Y-113849105D01*
X148174684Y-113849065D01*
X148167305Y-113850837D01*
X148167301Y-113850837D01*
X148028967Y-113884048D01*
X148028963Y-113884049D01*
X148021588Y-113885820D01*
X147881679Y-113958032D01*
X147875960Y-113963021D01*
X147841080Y-113993449D01*
X147776598Y-114023157D01*
X147758250Y-114024500D01*
X137001438Y-114024500D01*
X136933317Y-114004498D01*
X136886824Y-113950842D01*
X136876720Y-113880568D01*
X136906214Y-113815988D01*
X136912343Y-113809405D01*
X136974165Y-113747583D01*
X137036477Y-113713557D01*
X137065238Y-113710694D01*
X137083344Y-113710979D01*
X137120898Y-113711569D01*
X137120901Y-113711569D01*
X137128495Y-113711688D01*
X137281968Y-113676538D01*
X137422625Y-113605795D01*
X137477036Y-113559324D01*
X137536574Y-113508474D01*
X137536576Y-113508471D01*
X137542348Y-113503542D01*
X137634224Y-113375683D01*
X137692950Y-113229598D01*
X137708065Y-113123393D01*
X137714553Y-113077807D01*
X137714553Y-113077804D01*
X137715134Y-113073723D01*
X137715278Y-113060000D01*
X137713729Y-113047195D01*
X137709179Y-113009598D01*
X137696363Y-112903694D01*
X137669412Y-112832369D01*
X137643394Y-112763514D01*
X137643393Y-112763511D01*
X137640710Y-112756412D01*
X137551531Y-112626657D01*
X137478438Y-112561533D01*
X137439648Y-112526972D01*
X137439645Y-112526970D01*
X137433976Y-112521919D01*
X137294831Y-112448245D01*
X137278122Y-112444048D01*
X137149498Y-112411740D01*
X137149496Y-112411740D01*
X137142128Y-112409889D01*
X137134530Y-112409849D01*
X137134528Y-112409849D01*
X137067319Y-112409497D01*
X136984684Y-112409065D01*
X136977305Y-112410837D01*
X136977301Y-112410837D01*
X136838967Y-112444048D01*
X136838963Y-112444049D01*
X136831588Y-112445820D01*
X136691679Y-112518032D01*
X136685957Y-112523024D01*
X136685955Y-112523025D01*
X136578759Y-112616538D01*
X136578756Y-112616541D01*
X136573034Y-112621533D01*
X136568667Y-112627747D01*
X136519693Y-112697430D01*
X136482501Y-112750348D01*
X136425309Y-112897039D01*
X136418508Y-112948700D01*
X136409410Y-113017805D01*
X136404758Y-113053138D01*
X136405592Y-113060688D01*
X136405580Y-113061794D01*
X136384866Y-113129702D01*
X136368682Y-113149570D01*
X136364208Y-113154044D01*
X136301896Y-113188070D01*
X136231081Y-113183005D01*
X136174245Y-113140458D01*
X136149434Y-113073938D01*
X136150370Y-113047195D01*
X136154553Y-113017805D01*
X136155134Y-113013723D01*
X136155278Y-113000000D01*
X136149077Y-112948761D01*
X136154332Y-112894685D01*
X136155217Y-112891962D01*
X136159719Y-112883126D01*
X136163472Y-112859429D01*
X136168086Y-112840210D01*
X136175500Y-112817393D01*
X136175500Y-108800182D01*
X136195502Y-108732061D01*
X136219669Y-108704371D01*
X136226576Y-108698472D01*
X136226577Y-108698471D01*
X136232348Y-108693542D01*
X136324224Y-108565683D01*
X136382950Y-108419598D01*
X136399991Y-108299860D01*
X136404553Y-108267807D01*
X136404553Y-108267804D01*
X136405134Y-108263723D01*
X136405278Y-108250000D01*
X136386363Y-108093694D01*
X136367841Y-108044677D01*
X136333394Y-107953514D01*
X136333393Y-107953511D01*
X136330710Y-107946412D01*
X136241531Y-107816657D01*
X136173698Y-107756220D01*
X136129648Y-107716972D01*
X136129645Y-107716970D01*
X136123976Y-107711919D01*
X135984831Y-107638245D01*
X135968122Y-107634048D01*
X135839498Y-107601740D01*
X135839496Y-107601740D01*
X135832128Y-107599889D01*
X135824530Y-107599849D01*
X135824528Y-107599849D01*
X135757319Y-107599497D01*
X135674684Y-107599065D01*
X135667305Y-107600837D01*
X135667301Y-107600837D01*
X135528967Y-107634048D01*
X135528963Y-107634049D01*
X135521588Y-107635820D01*
X135514843Y-107639301D01*
X135514844Y-107639301D01*
X135388571Y-107704475D01*
X135381679Y-107708032D01*
X135375957Y-107713024D01*
X135375955Y-107713025D01*
X135268759Y-107806538D01*
X135268756Y-107806541D01*
X135263034Y-107811533D01*
X135224275Y-107866682D01*
X135188250Y-107917940D01*
X135172501Y-107940348D01*
X135115309Y-108087039D01*
X135114318Y-108094568D01*
X135097531Y-108222078D01*
X135094758Y-108243138D01*
X135112035Y-108399633D01*
X135166143Y-108547490D01*
X135170380Y-108553796D01*
X135170382Y-108553799D01*
X135205111Y-108605481D01*
X135253958Y-108678172D01*
X135282751Y-108704371D01*
X135283299Y-108704870D01*
X135320222Y-108765510D01*
X135324500Y-108798064D01*
X135324500Y-112281750D01*
X135304498Y-112349871D01*
X135256289Y-112393716D01*
X135138430Y-112454547D01*
X135138427Y-112454549D01*
X135131679Y-112458032D01*
X135125957Y-112463024D01*
X135125955Y-112463025D01*
X135018759Y-112556538D01*
X135018756Y-112556541D01*
X135013034Y-112561533D01*
X134922501Y-112690348D01*
X134865309Y-112837039D01*
X134858508Y-112888700D01*
X134856419Y-112904568D01*
X134844758Y-112993138D01*
X134862035Y-113149633D01*
X134864644Y-113156764D01*
X134864645Y-113156766D01*
X134873220Y-113180197D01*
X134877848Y-113251043D01*
X134843439Y-113313144D01*
X134780917Y-113346784D01*
X134754895Y-113349500D01*
X134253438Y-113349500D01*
X134185317Y-113329498D01*
X134164343Y-113312595D01*
X131462405Y-110610657D01*
X131428379Y-110548345D01*
X131425500Y-110521562D01*
X131425500Y-107527436D01*
X131445502Y-107459315D01*
X131499158Y-107412822D01*
X131553480Y-107401452D01*
X131555002Y-107401476D01*
X131560898Y-107401569D01*
X131560901Y-107401569D01*
X131568495Y-107401688D01*
X131721968Y-107366538D01*
X131862625Y-107295795D01*
X131909255Y-107255969D01*
X131976574Y-107198474D01*
X131976576Y-107198471D01*
X131982348Y-107193542D01*
X132074224Y-107065683D01*
X132132950Y-106919598D01*
X132141429Y-106860022D01*
X132154553Y-106767807D01*
X132154553Y-106767804D01*
X132155134Y-106763723D01*
X132155278Y-106750000D01*
X132136363Y-106593694D01*
X132110385Y-106524944D01*
X132083394Y-106453514D01*
X132083393Y-106453511D01*
X132080710Y-106446412D01*
X131991531Y-106316657D01*
X131940938Y-106271580D01*
X131879648Y-106216972D01*
X131879645Y-106216970D01*
X131873976Y-106211919D01*
X131734831Y-106138245D01*
X131718122Y-106134048D01*
X131589498Y-106101740D01*
X131589496Y-106101740D01*
X131582128Y-106099889D01*
X131574530Y-106099849D01*
X131574528Y-106099849D01*
X131507319Y-106099497D01*
X131424684Y-106099065D01*
X131417305Y-106100837D01*
X131417301Y-106100837D01*
X131278967Y-106134048D01*
X131278963Y-106134049D01*
X131271588Y-106135820D01*
X131131679Y-106208032D01*
X131125957Y-106213024D01*
X131125955Y-106213025D01*
X131018759Y-106306538D01*
X131018756Y-106306541D01*
X131013034Y-106311533D01*
X130922501Y-106440348D01*
X130865309Y-106587039D01*
X130864318Y-106594568D01*
X130850062Y-106702852D01*
X130844758Y-106743138D01*
X130845592Y-106750688D01*
X130845580Y-106751794D01*
X130824866Y-106819702D01*
X130808682Y-106839570D01*
X130651472Y-106996780D01*
X130640577Y-107018163D01*
X130630253Y-107035009D01*
X130616151Y-107054419D01*
X130613087Y-107063850D01*
X130613085Y-107063853D01*
X130608736Y-107077237D01*
X130601172Y-107095498D01*
X130596145Y-107105365D01*
X130590281Y-107116874D01*
X130588730Y-107126668D01*
X130586528Y-107140570D01*
X130581914Y-107159790D01*
X130574500Y-107182607D01*
X130574500Y-110817393D01*
X130581914Y-110840210D01*
X130586528Y-110859429D01*
X130590281Y-110883126D01*
X130594784Y-110891963D01*
X130594784Y-110891964D01*
X130601172Y-110904502D01*
X130608736Y-110922763D01*
X130613085Y-110936147D01*
X130613087Y-110936150D01*
X130616151Y-110945581D01*
X130621980Y-110953604D01*
X130630253Y-110964991D01*
X130640577Y-110981837D01*
X130651472Y-111003220D01*
X133457657Y-113809405D01*
X133491683Y-113871717D01*
X133486618Y-113942532D01*
X133444071Y-113999368D01*
X133377551Y-114024179D01*
X133368562Y-114024500D01*
X132742203Y-114024500D01*
X132674082Y-114004498D01*
X132658393Y-113992584D01*
X132623976Y-113961919D01*
X132610061Y-113954551D01*
X132491543Y-113891799D01*
X132491544Y-113891799D01*
X132484831Y-113888245D01*
X132468122Y-113884048D01*
X132339498Y-113851740D01*
X132339496Y-113851740D01*
X132332128Y-113849889D01*
X132324530Y-113849849D01*
X132324528Y-113849849D01*
X132257319Y-113849497D01*
X132174684Y-113849065D01*
X132167305Y-113850837D01*
X132167301Y-113850837D01*
X132028967Y-113884048D01*
X132028963Y-113884049D01*
X132021588Y-113885820D01*
X131881679Y-113958032D01*
X131875960Y-113963021D01*
X131841080Y-113993449D01*
X131776598Y-114023157D01*
X131758250Y-114024500D01*
X114992203Y-114024500D01*
X114924082Y-114004498D01*
X114908393Y-113992584D01*
X114873976Y-113961919D01*
X114860061Y-113954551D01*
X114741543Y-113891799D01*
X114741544Y-113891799D01*
X114734831Y-113888245D01*
X114718122Y-113884048D01*
X114589498Y-113851740D01*
X114589496Y-113851740D01*
X114582128Y-113849889D01*
X114574530Y-113849849D01*
X114574528Y-113849849D01*
X114507319Y-113849497D01*
X114424684Y-113849065D01*
X114417305Y-113850837D01*
X114417301Y-113850837D01*
X114278967Y-113884048D01*
X114278963Y-113884049D01*
X114271588Y-113885820D01*
X114131679Y-113958032D01*
X114125957Y-113963024D01*
X114125955Y-113963025D01*
X114018759Y-114056538D01*
X114018756Y-114056541D01*
X114013034Y-114061533D01*
X113922501Y-114190348D01*
X113865309Y-114337039D01*
X113844758Y-114493138D01*
X113862035Y-114649633D01*
X113916143Y-114797490D01*
X113920380Y-114803796D01*
X113920382Y-114803799D01*
X113939220Y-114831832D01*
X114003958Y-114928172D01*
X114120410Y-115034135D01*
X114141885Y-115045795D01*
X114252099Y-115105637D01*
X114252101Y-115105638D01*
X114258776Y-115109262D01*
X114266125Y-115111190D01*
X114403719Y-115147287D01*
X114403721Y-115147287D01*
X114411069Y-115149215D01*
X114494380Y-115150524D01*
X114560898Y-115151569D01*
X114560901Y-115151569D01*
X114568495Y-115151688D01*
X114721968Y-115116538D01*
X114862625Y-115045795D01*
X114909584Y-115005688D01*
X114974372Y-114976658D01*
X114991413Y-114975500D01*
X131757224Y-114975500D01*
X131825345Y-114995502D01*
X131842023Y-115008306D01*
X131864789Y-115029021D01*
X131864793Y-115029024D01*
X131870410Y-115034135D01*
X131891885Y-115045795D01*
X132002099Y-115105637D01*
X132002101Y-115105638D01*
X132008776Y-115109262D01*
X132016125Y-115111190D01*
X132153719Y-115147287D01*
X132153721Y-115147287D01*
X132161069Y-115149215D01*
X132244380Y-115150524D01*
X132310898Y-115151569D01*
X132310901Y-115151569D01*
X132318495Y-115151688D01*
X132471968Y-115116538D01*
X132612625Y-115045795D01*
X132659584Y-115005688D01*
X132724372Y-114976658D01*
X132741413Y-114975500D01*
X147757224Y-114975500D01*
X147825345Y-114995502D01*
X147842023Y-115008306D01*
X147864789Y-115029021D01*
X147864793Y-115029024D01*
X147870410Y-115034135D01*
X147891885Y-115045795D01*
X148002099Y-115105637D01*
X148002101Y-115105638D01*
X148008776Y-115109262D01*
X148016125Y-115111190D01*
X148153719Y-115147287D01*
X148153721Y-115147287D01*
X148161069Y-115149215D01*
X148244380Y-115150524D01*
X148310898Y-115151569D01*
X148310901Y-115151569D01*
X148318495Y-115151688D01*
X148471968Y-115116538D01*
X148612625Y-115045795D01*
X148671511Y-114995502D01*
X148726574Y-114948474D01*
X148726576Y-114948471D01*
X148732348Y-114943542D01*
X148824224Y-114815683D01*
X148882950Y-114669598D01*
X148898613Y-114559540D01*
X148915209Y-114523061D01*
X154739293Y-114523061D01*
X154739447Y-114525067D01*
X154743554Y-114531422D01*
X156737188Y-116525056D01*
X156751132Y-116532670D01*
X156752965Y-116532539D01*
X156759580Y-116528288D01*
X158750726Y-114537142D01*
X158758118Y-114523605D01*
X158751330Y-114513904D01*
X158569627Y-114358715D01*
X158563868Y-114354343D01*
X158282716Y-114165417D01*
X158276494Y-114161737D01*
X157975498Y-114006381D01*
X157968887Y-114003438D01*
X157652041Y-113883712D01*
X157645122Y-113881544D01*
X157316618Y-113799029D01*
X157309494Y-113797670D01*
X156973691Y-113753460D01*
X156966449Y-113752929D01*
X156627802Y-113747609D01*
X156620540Y-113747913D01*
X156283509Y-113781554D01*
X156276361Y-113782686D01*
X155945417Y-113854843D01*
X155938440Y-113856792D01*
X155617989Y-113966506D01*
X155611283Y-113969243D01*
X155305568Y-114115062D01*
X155299210Y-114118557D01*
X155012296Y-114298538D01*
X155006368Y-114302751D01*
X154745318Y-114511890D01*
X154739293Y-114523061D01*
X148915209Y-114523061D01*
X148928013Y-114494917D01*
X148934261Y-114488197D01*
X149110374Y-114312085D01*
X149110377Y-114312081D01*
X149538589Y-113883870D01*
X149547311Y-113876902D01*
X149546921Y-113876444D01*
X149553758Y-113870625D01*
X149561350Y-113865835D01*
X149573799Y-113851740D01*
X149594499Y-113828301D01*
X149599845Y-113822614D01*
X149610374Y-113812085D01*
X149616050Y-113804511D01*
X149622432Y-113796673D01*
X149645571Y-113770473D01*
X149651513Y-113763745D01*
X149655328Y-113755619D01*
X149658826Y-113750294D01*
X149662936Y-113743454D01*
X149665988Y-113737878D01*
X149671372Y-113730695D01*
X149686798Y-113689546D01*
X149690725Y-113680226D01*
X149694776Y-113671597D01*
X149709399Y-113640452D01*
X149710780Y-113631582D01*
X149712639Y-113625502D01*
X149714665Y-113617781D01*
X149716031Y-113611568D01*
X149719184Y-113603157D01*
X149722441Y-113559324D01*
X149723595Y-113549277D01*
X149724751Y-113541855D01*
X149724751Y-113541853D01*
X149725500Y-113537044D01*
X149725500Y-113522838D01*
X149725846Y-113513501D01*
X149728612Y-113476274D01*
X149729277Y-113467326D01*
X149727404Y-113458550D01*
X149726793Y-113449593D01*
X149726899Y-113449586D01*
X149725500Y-113436333D01*
X149725500Y-108891379D01*
X152860861Y-108891379D01*
X152862724Y-108911854D01*
X152865024Y-108923911D01*
X152918296Y-109104911D01*
X152922895Y-109116295D01*
X153010312Y-109283509D01*
X153017028Y-109293771D01*
X153135259Y-109440820D01*
X153143843Y-109449586D01*
X153288389Y-109570875D01*
X153298503Y-109577801D01*
X153463861Y-109668707D01*
X153475125Y-109673535D01*
X153654989Y-109730591D01*
X153666978Y-109733139D01*
X153813793Y-109749607D01*
X153820817Y-109750000D01*
X153981885Y-109750000D01*
X153997124Y-109745525D01*
X153998329Y-109744135D01*
X154000000Y-109736452D01*
X154000000Y-109731885D01*
X154300000Y-109731885D01*
X154304475Y-109747124D01*
X154305865Y-109748329D01*
X154313548Y-109750000D01*
X154472504Y-109750000D01*
X154478652Y-109749699D01*
X154618924Y-109735946D01*
X154630952Y-109733564D01*
X154811591Y-109679025D01*
X154822924Y-109674354D01*
X154989530Y-109585769D01*
X154999747Y-109578981D01*
X155145970Y-109459724D01*
X155154674Y-109451080D01*
X155274947Y-109305695D01*
X155281806Y-109295527D01*
X155371552Y-109129544D01*
X155376304Y-109118239D01*
X155401360Y-109037298D01*
X156762105Y-109037298D01*
X156804835Y-109192427D01*
X156809832Y-109205048D01*
X156892129Y-109361138D01*
X156899723Y-109372396D01*
X157013618Y-109507173D01*
X157023449Y-109516535D01*
X157163632Y-109623713D01*
X157175235Y-109630740D01*
X157335178Y-109705323D01*
X157348006Y-109709690D01*
X157521852Y-109748549D01*
X157531771Y-109749925D01*
X157534455Y-109750000D01*
X157781885Y-109750000D01*
X157797124Y-109745525D01*
X157798329Y-109744135D01*
X157800000Y-109736452D01*
X157800000Y-109731885D01*
X158100000Y-109731885D01*
X158104475Y-109747124D01*
X158105865Y-109748329D01*
X158113548Y-109750000D01*
X158319082Y-109750000D01*
X158325896Y-109749631D01*
X158457216Y-109735365D01*
X158470468Y-109732451D01*
X158637714Y-109676167D01*
X158650040Y-109670471D01*
X158801292Y-109579590D01*
X158812104Y-109571384D01*
X158940315Y-109450140D01*
X158949114Y-109439802D01*
X159048300Y-109293853D01*
X159054669Y-109281876D01*
X159120203Y-109118029D01*
X159123852Y-109104960D01*
X159134130Y-109042874D01*
X159132476Y-109029330D01*
X159118289Y-109025000D01*
X158118115Y-109025000D01*
X158102876Y-109029475D01*
X158101671Y-109030865D01*
X158100000Y-109038548D01*
X158100000Y-109731885D01*
X157800000Y-109731885D01*
X157800000Y-109043115D01*
X157795525Y-109027876D01*
X157794135Y-109026671D01*
X157786452Y-109025000D01*
X156776833Y-109025000D01*
X156763302Y-109028973D01*
X156762105Y-109037298D01*
X155401360Y-109037298D01*
X155432101Y-108937989D01*
X155434567Y-108925975D01*
X155438031Y-108893015D01*
X155435352Y-108878365D01*
X155423031Y-108875000D01*
X154318115Y-108875000D01*
X154302876Y-108879475D01*
X154301671Y-108880865D01*
X154300000Y-108888548D01*
X154300000Y-109731885D01*
X154000000Y-109731885D01*
X154000000Y-108893115D01*
X153995525Y-108877876D01*
X153994135Y-108876671D01*
X153986452Y-108875000D01*
X152877485Y-108875000D01*
X152862923Y-108879276D01*
X152860861Y-108891379D01*
X149725500Y-108891379D01*
X149725500Y-108707126D01*
X156765870Y-108707126D01*
X156767524Y-108720670D01*
X156781711Y-108725000D01*
X157781885Y-108725000D01*
X157797124Y-108720525D01*
X157798329Y-108719135D01*
X157800000Y-108711452D01*
X157800000Y-108706885D01*
X158100000Y-108706885D01*
X158104475Y-108722124D01*
X158105865Y-108723329D01*
X158113548Y-108725000D01*
X159123167Y-108725000D01*
X159136698Y-108721027D01*
X159137895Y-108712702D01*
X159095165Y-108557573D01*
X159090168Y-108544952D01*
X159007871Y-108388862D01*
X159000277Y-108377604D01*
X158886382Y-108242827D01*
X158876551Y-108233465D01*
X158736368Y-108126287D01*
X158724765Y-108119260D01*
X158564822Y-108044677D01*
X158551994Y-108040310D01*
X158378148Y-108001451D01*
X158368229Y-108000075D01*
X158365545Y-108000000D01*
X158118115Y-108000000D01*
X158102876Y-108004475D01*
X158101671Y-108005865D01*
X158100000Y-108013548D01*
X158100000Y-108706885D01*
X157800000Y-108706885D01*
X157800000Y-108018115D01*
X157795525Y-108002876D01*
X157794135Y-108001671D01*
X157786452Y-108000000D01*
X157580918Y-108000000D01*
X157574104Y-108000369D01*
X157442784Y-108014635D01*
X157429532Y-108017549D01*
X157262286Y-108073833D01*
X157249960Y-108079529D01*
X157098708Y-108170410D01*
X157087896Y-108178616D01*
X156959685Y-108299860D01*
X156950886Y-108310198D01*
X156851700Y-108456147D01*
X156845331Y-108468124D01*
X156779797Y-108631971D01*
X156776148Y-108645040D01*
X156765870Y-108707126D01*
X149725500Y-108707126D01*
X149725500Y-108556985D01*
X152861969Y-108556985D01*
X152864648Y-108571635D01*
X152876969Y-108575000D01*
X153981885Y-108575000D01*
X153997124Y-108570525D01*
X153998329Y-108569135D01*
X154000000Y-108561452D01*
X154000000Y-108556885D01*
X154300000Y-108556885D01*
X154304475Y-108572124D01*
X154305865Y-108573329D01*
X154313548Y-108575000D01*
X155422515Y-108575000D01*
X155437077Y-108570724D01*
X155439139Y-108558621D01*
X155437276Y-108538146D01*
X155434976Y-108526089D01*
X155381704Y-108345089D01*
X155377105Y-108333705D01*
X155355153Y-108291714D01*
X155341319Y-108222078D01*
X155367330Y-108156017D01*
X155421609Y-108116620D01*
X155421968Y-108116538D01*
X155461721Y-108096544D01*
X155471953Y-108091956D01*
X155484372Y-108087039D01*
X155515871Y-108074568D01*
X155522286Y-108069907D01*
X155522290Y-108069905D01*
X155531099Y-108063505D01*
X155548540Y-108052880D01*
X155555837Y-108049210D01*
X155555843Y-108049206D01*
X155562625Y-108045795D01*
X155568396Y-108040866D01*
X155568399Y-108040864D01*
X155599598Y-108014217D01*
X155607368Y-108008092D01*
X155642422Y-107982624D01*
X155642423Y-107982623D01*
X155648837Y-107977963D01*
X155658234Y-107966604D01*
X155673489Y-107951108D01*
X155676570Y-107948477D01*
X155676571Y-107948476D01*
X155682348Y-107943542D01*
X155696568Y-107923754D01*
X155713135Y-107900698D01*
X155718372Y-107893910D01*
X155748545Y-107857437D01*
X155748546Y-107857435D01*
X155753600Y-107851326D01*
X155758133Y-107841693D01*
X155769716Y-107821988D01*
X155769790Y-107821853D01*
X155774224Y-107815683D01*
X155777055Y-107808639D01*
X155777059Y-107808633D01*
X155795455Y-107762871D01*
X155798354Y-107756220D01*
X155820202Y-107709791D01*
X155820204Y-107709786D01*
X155823579Y-107702613D01*
X155825064Y-107694826D01*
X155826493Y-107690430D01*
X155828367Y-107684042D01*
X155828151Y-107683984D01*
X155830118Y-107676644D01*
X155832950Y-107669598D01*
X155841559Y-107609103D01*
X155842534Y-107603246D01*
X155852891Y-107548955D01*
X155852891Y-107548954D01*
X155854376Y-107541170D01*
X155853878Y-107533258D01*
X155854276Y-107526935D01*
X155854315Y-107520922D01*
X155854551Y-107517819D01*
X155855134Y-107513723D01*
X155855278Y-107500000D01*
X155848439Y-107443483D01*
X155847776Y-107436269D01*
X155847470Y-107431396D01*
X155845981Y-107407735D01*
X155844554Y-107385053D01*
X155844554Y-107385052D01*
X155844056Y-107377140D01*
X155841607Y-107369603D01*
X155840746Y-107365088D01*
X155839304Y-107358558D01*
X155839087Y-107358611D01*
X155837276Y-107351238D01*
X155836363Y-107343694D01*
X155814760Y-107286521D01*
X155812797Y-107280932D01*
X155795719Y-107228370D01*
X155795717Y-107228365D01*
X155793268Y-107220829D01*
X155789021Y-107214137D01*
X155788062Y-107212099D01*
X155786151Y-107208790D01*
X155783395Y-107203518D01*
X155780710Y-107196412D01*
X155776409Y-107190155D01*
X155776407Y-107190150D01*
X155743685Y-107142540D01*
X155741140Y-107138688D01*
X155719652Y-107104830D01*
X155705202Y-107082060D01*
X155699426Y-107076635D01*
X155698109Y-107075044D01*
X155695312Y-107072158D01*
X155691531Y-107066657D01*
X155639393Y-107020203D01*
X155637002Y-107018016D01*
X155585393Y-106969552D01*
X155578442Y-106965731D01*
X155577423Y-106964991D01*
X155573976Y-106961919D01*
X155507999Y-106926986D01*
X155506256Y-106926046D01*
X155448313Y-106894191D01*
X155448312Y-106894191D01*
X155441368Y-106890373D01*
X155436480Y-106889118D01*
X155434831Y-106888245D01*
X155354516Y-106868071D01*
X155353949Y-106867927D01*
X155289862Y-106851472D01*
X155289853Y-106851471D01*
X155282177Y-106849500D01*
X155208078Y-106849500D01*
X155207419Y-106849498D01*
X155207189Y-106849497D01*
X155124684Y-106849065D01*
X155117302Y-106850837D01*
X155117296Y-106850838D01*
X155089410Y-106857533D01*
X155075786Y-106860022D01*
X155044802Y-106863936D01*
X155044801Y-106863936D01*
X155036942Y-106864929D01*
X155029224Y-106867985D01*
X155011870Y-106874856D01*
X154994897Y-106880224D01*
X154971588Y-106885820D01*
X154940516Y-106901857D01*
X154935698Y-106904344D01*
X154924295Y-106909528D01*
X154891504Y-106922511D01*
X154891497Y-106922515D01*
X154884129Y-106925432D01*
X154877716Y-106930091D01*
X154877711Y-106930094D01*
X154865604Y-106938890D01*
X154849339Y-106948916D01*
X154838431Y-106954546D01*
X154838425Y-106954550D01*
X154831679Y-106958032D01*
X154825957Y-106963024D01*
X154825955Y-106963025D01*
X154798142Y-106987288D01*
X154789377Y-106994273D01*
X154751163Y-107022037D01*
X154746110Y-107028145D01*
X154739166Y-107036539D01*
X154724910Y-107051173D01*
X154713034Y-107061533D01*
X154685066Y-107101328D01*
X154679077Y-107109174D01*
X154651453Y-107142565D01*
X154651451Y-107142569D01*
X154646400Y-107148674D01*
X154643025Y-107155847D01*
X154640124Y-107162011D01*
X154629207Y-107180807D01*
X154622501Y-107190348D01*
X154603323Y-107239537D01*
X154599959Y-107247367D01*
X154576421Y-107297387D01*
X154574425Y-107307849D01*
X154568104Y-107329821D01*
X154568067Y-107329965D01*
X154565309Y-107337039D01*
X154558988Y-107385053D01*
X154557879Y-107393474D01*
X154556727Y-107400624D01*
X154545624Y-107458830D01*
X154546122Y-107466741D01*
X154545834Y-107471320D01*
X154545606Y-107478005D01*
X154545829Y-107478007D01*
X154545750Y-107485608D01*
X154544758Y-107493138D01*
X154547995Y-107522459D01*
X154551465Y-107553889D01*
X154551976Y-107559784D01*
X154552373Y-107566095D01*
X154536684Y-107635337D01*
X154486050Y-107685104D01*
X154426621Y-107700000D01*
X154318115Y-107700000D01*
X154302876Y-107704475D01*
X154301671Y-107705865D01*
X154300000Y-107713548D01*
X154300000Y-108556885D01*
X154000000Y-108556885D01*
X154000000Y-107718115D01*
X153995525Y-107702876D01*
X153994135Y-107701671D01*
X153986452Y-107700000D01*
X153827496Y-107700000D01*
X153821348Y-107700301D01*
X153681076Y-107714054D01*
X153669048Y-107716436D01*
X153488409Y-107770975D01*
X153477076Y-107775646D01*
X153310470Y-107864231D01*
X153300253Y-107871019D01*
X153154030Y-107990276D01*
X153145326Y-107998920D01*
X153025053Y-108144305D01*
X153018194Y-108154473D01*
X152928448Y-108320456D01*
X152923696Y-108331761D01*
X152867899Y-108512011D01*
X152865433Y-108524025D01*
X152861969Y-108556985D01*
X149725500Y-108556985D01*
X149725500Y-101441379D01*
X152860861Y-101441379D01*
X152862724Y-101461854D01*
X152865024Y-101473911D01*
X152918296Y-101654911D01*
X152922895Y-101666295D01*
X153010312Y-101833509D01*
X153017028Y-101843771D01*
X153135259Y-101990820D01*
X153143843Y-101999586D01*
X153288389Y-102120875D01*
X153298503Y-102127801D01*
X153463861Y-102218707D01*
X153475125Y-102223535D01*
X153654989Y-102280591D01*
X153666978Y-102283139D01*
X153813793Y-102299607D01*
X153820817Y-102300000D01*
X153981885Y-102300000D01*
X153997124Y-102295525D01*
X153998329Y-102294135D01*
X154000000Y-102286452D01*
X154000000Y-102281885D01*
X154300000Y-102281885D01*
X154304475Y-102297124D01*
X154305865Y-102298329D01*
X154313548Y-102300000D01*
X154423615Y-102300000D01*
X154491736Y-102320002D01*
X154538229Y-102373658D01*
X154546594Y-102443067D01*
X154547607Y-102443131D01*
X154547262Y-102448609D01*
X154547383Y-102449609D01*
X154545624Y-102458830D01*
X154546122Y-102466741D01*
X154545834Y-102471320D01*
X154545606Y-102478005D01*
X154545829Y-102478007D01*
X154545750Y-102485608D01*
X154544758Y-102493138D01*
X154549814Y-102538933D01*
X154551465Y-102553889D01*
X154551977Y-102559805D01*
X154555079Y-102609104D01*
X154555944Y-102622860D01*
X154558393Y-102630397D01*
X154558815Y-102632610D01*
X154559843Y-102636292D01*
X154561202Y-102642087D01*
X154562035Y-102649633D01*
X154564643Y-102656759D01*
X154564644Y-102656764D01*
X154584509Y-102711047D01*
X154586016Y-102715411D01*
X154606732Y-102779171D01*
X154610977Y-102785859D01*
X154611858Y-102787732D01*
X154613851Y-102791226D01*
X154616143Y-102797490D01*
X154655087Y-102855444D01*
X154656860Y-102858160D01*
X154694798Y-102917940D01*
X154700574Y-102923364D01*
X154701390Y-102924351D01*
X154703958Y-102928172D01*
X154709576Y-102933284D01*
X154709577Y-102933285D01*
X154759184Y-102978423D01*
X154760639Y-102979768D01*
X154814607Y-103030448D01*
X154819031Y-103032880D01*
X154820410Y-103034135D01*
X154824218Y-103036203D01*
X154824220Y-103036204D01*
X154893199Y-103073657D01*
X154893778Y-103073974D01*
X154951679Y-103105806D01*
X154951688Y-103105810D01*
X154958632Y-103109627D01*
X154992162Y-103118236D01*
X155030279Y-103128023D01*
X155030917Y-103128188D01*
X155086128Y-103142672D01*
X155111069Y-103149215D01*
X155112932Y-103149244D01*
X155117823Y-103150500D01*
X155191909Y-103150500D01*
X155193888Y-103150516D01*
X155260896Y-103151569D01*
X155260899Y-103151569D01*
X155268495Y-103151688D01*
X155285505Y-103147792D01*
X155307865Y-103142672D01*
X155320198Y-103140486D01*
X155355190Y-103136065D01*
X155363058Y-103135071D01*
X155370430Y-103132152D01*
X155370435Y-103132151D01*
X155384349Y-103126642D01*
X155402599Y-103120975D01*
X155414558Y-103118236D01*
X155414564Y-103118234D01*
X155421968Y-103116538D01*
X155428753Y-103113125D01*
X155428757Y-103113124D01*
X155461721Y-103096544D01*
X155471953Y-103091956D01*
X155478336Y-103089429D01*
X155515871Y-103074568D01*
X155522286Y-103069907D01*
X155522290Y-103069905D01*
X155531099Y-103063505D01*
X155548540Y-103052880D01*
X155555837Y-103049210D01*
X155555843Y-103049206D01*
X155562625Y-103045795D01*
X155568396Y-103040866D01*
X155568399Y-103040864D01*
X155599598Y-103014217D01*
X155607368Y-103008092D01*
X155642422Y-102982624D01*
X155642423Y-102982623D01*
X155648837Y-102977963D01*
X155658234Y-102966604D01*
X155673489Y-102951108D01*
X155676570Y-102948477D01*
X155676571Y-102948476D01*
X155682348Y-102943542D01*
X155689719Y-102933285D01*
X155713135Y-102900698D01*
X155718372Y-102893910D01*
X155748545Y-102857437D01*
X155748546Y-102857435D01*
X155753600Y-102851326D01*
X155758133Y-102841693D01*
X155769716Y-102821988D01*
X155769790Y-102821853D01*
X155774224Y-102815683D01*
X155777055Y-102808639D01*
X155777059Y-102808633D01*
X155795455Y-102762871D01*
X155798354Y-102756220D01*
X155820202Y-102709791D01*
X155820204Y-102709786D01*
X155823579Y-102702613D01*
X155825064Y-102694826D01*
X155826493Y-102690430D01*
X155828367Y-102684042D01*
X155828151Y-102683984D01*
X155830118Y-102676644D01*
X155832950Y-102669598D01*
X155841559Y-102609103D01*
X155842534Y-102603246D01*
X155852891Y-102548955D01*
X155852891Y-102548954D01*
X155854376Y-102541170D01*
X155853878Y-102533258D01*
X155854276Y-102526935D01*
X155854315Y-102520922D01*
X155854551Y-102517819D01*
X155855134Y-102513723D01*
X155855278Y-102500000D01*
X155848439Y-102443483D01*
X155847776Y-102436269D01*
X155844554Y-102385053D01*
X155844554Y-102385052D01*
X155844056Y-102377140D01*
X155841607Y-102369603D01*
X155840746Y-102365088D01*
X155839304Y-102358558D01*
X155839087Y-102358611D01*
X155837276Y-102351238D01*
X155836363Y-102343694D01*
X155814760Y-102286521D01*
X155812797Y-102280932D01*
X155795719Y-102228370D01*
X155795717Y-102228365D01*
X155793268Y-102220829D01*
X155789021Y-102214137D01*
X155788062Y-102212099D01*
X155786151Y-102208790D01*
X155783395Y-102203518D01*
X155780710Y-102196412D01*
X155776409Y-102190155D01*
X155776407Y-102190150D01*
X155743685Y-102142540D01*
X155741140Y-102138688D01*
X155709448Y-102088751D01*
X155705202Y-102082060D01*
X155699426Y-102076635D01*
X155698109Y-102075044D01*
X155695312Y-102072158D01*
X155691531Y-102066657D01*
X155639393Y-102020203D01*
X155637002Y-102018016D01*
X155585393Y-101969552D01*
X155578442Y-101965731D01*
X155577423Y-101964991D01*
X155573976Y-101961919D01*
X155507999Y-101926986D01*
X155506256Y-101926046D01*
X155448313Y-101894191D01*
X155448312Y-101894191D01*
X155441368Y-101890373D01*
X155436480Y-101889118D01*
X155434831Y-101888245D01*
X155430631Y-101887190D01*
X155430429Y-101887110D01*
X155423903Y-101885028D01*
X155422449Y-101884470D01*
X155366018Y-101841389D01*
X155341836Y-101774637D01*
X155356757Y-101706908D01*
X155371553Y-101679543D01*
X155376304Y-101668240D01*
X155432101Y-101487989D01*
X155434567Y-101475975D01*
X155438031Y-101443015D01*
X155435352Y-101428365D01*
X155423031Y-101425000D01*
X154318115Y-101425000D01*
X154302876Y-101429475D01*
X154301671Y-101430865D01*
X154300000Y-101438548D01*
X154300000Y-102281885D01*
X154000000Y-102281885D01*
X154000000Y-101443115D01*
X153995525Y-101427876D01*
X153994135Y-101426671D01*
X153986452Y-101425000D01*
X152877485Y-101425000D01*
X152862923Y-101429276D01*
X152860861Y-101441379D01*
X149725500Y-101441379D01*
X149725500Y-101287298D01*
X156762105Y-101287298D01*
X156804835Y-101442427D01*
X156809832Y-101455048D01*
X156892129Y-101611138D01*
X156899723Y-101622396D01*
X157013618Y-101757173D01*
X157023449Y-101766535D01*
X157163632Y-101873713D01*
X157175235Y-101880740D01*
X157335178Y-101955323D01*
X157348006Y-101959690D01*
X157521852Y-101998549D01*
X157531771Y-101999925D01*
X157534455Y-102000000D01*
X157781885Y-102000000D01*
X157797124Y-101995525D01*
X157798329Y-101994135D01*
X157800000Y-101986452D01*
X157800000Y-101981885D01*
X158100000Y-101981885D01*
X158104475Y-101997124D01*
X158105865Y-101998329D01*
X158113548Y-102000000D01*
X158319082Y-102000000D01*
X158325896Y-101999631D01*
X158457216Y-101985365D01*
X158470468Y-101982451D01*
X158637714Y-101926167D01*
X158650040Y-101920471D01*
X158801292Y-101829590D01*
X158812104Y-101821384D01*
X158940315Y-101700140D01*
X158949114Y-101689802D01*
X159048300Y-101543853D01*
X159054669Y-101531876D01*
X159120203Y-101368029D01*
X159123852Y-101354960D01*
X159134130Y-101292874D01*
X159132476Y-101279330D01*
X159118289Y-101275000D01*
X158118115Y-101275000D01*
X158102876Y-101279475D01*
X158101671Y-101280865D01*
X158100000Y-101288548D01*
X158100000Y-101981885D01*
X157800000Y-101981885D01*
X157800000Y-101293115D01*
X157795525Y-101277876D01*
X157794135Y-101276671D01*
X157786452Y-101275000D01*
X156776833Y-101275000D01*
X156763302Y-101278973D01*
X156762105Y-101287298D01*
X149725500Y-101287298D01*
X149725500Y-101106985D01*
X152861969Y-101106985D01*
X152864648Y-101121635D01*
X152876969Y-101125000D01*
X153981885Y-101125000D01*
X153997124Y-101120525D01*
X153998329Y-101119135D01*
X154000000Y-101111452D01*
X154000000Y-101106885D01*
X154300000Y-101106885D01*
X154304475Y-101122124D01*
X154305865Y-101123329D01*
X154313548Y-101125000D01*
X155422515Y-101125000D01*
X155437077Y-101120724D01*
X155439139Y-101108621D01*
X155437276Y-101088146D01*
X155434976Y-101076089D01*
X155399963Y-100957126D01*
X156765870Y-100957126D01*
X156767524Y-100970670D01*
X156781711Y-100975000D01*
X157781885Y-100975000D01*
X157797124Y-100970525D01*
X157798329Y-100969135D01*
X157800000Y-100961452D01*
X157800000Y-100956885D01*
X158100000Y-100956885D01*
X158104475Y-100972124D01*
X158105865Y-100973329D01*
X158113548Y-100975000D01*
X159123167Y-100975000D01*
X159136698Y-100971027D01*
X159137895Y-100962702D01*
X159095165Y-100807573D01*
X159090168Y-100794952D01*
X159007871Y-100638862D01*
X159000277Y-100627604D01*
X158886382Y-100492827D01*
X158876551Y-100483465D01*
X158736368Y-100376287D01*
X158724765Y-100369260D01*
X158564822Y-100294677D01*
X158551994Y-100290310D01*
X158378148Y-100251451D01*
X158368229Y-100250075D01*
X158365545Y-100250000D01*
X158118115Y-100250000D01*
X158102876Y-100254475D01*
X158101671Y-100255865D01*
X158100000Y-100263548D01*
X158100000Y-100956885D01*
X157800000Y-100956885D01*
X157800000Y-100268115D01*
X157795525Y-100252876D01*
X157794135Y-100251671D01*
X157786452Y-100250000D01*
X157580918Y-100250000D01*
X157574104Y-100250369D01*
X157442784Y-100264635D01*
X157429532Y-100267549D01*
X157262286Y-100323833D01*
X157249960Y-100329529D01*
X157098708Y-100420410D01*
X157087896Y-100428616D01*
X156959685Y-100549860D01*
X156950886Y-100560198D01*
X156851700Y-100706147D01*
X156845331Y-100718124D01*
X156779797Y-100881971D01*
X156776148Y-100895040D01*
X156765870Y-100957126D01*
X155399963Y-100957126D01*
X155381704Y-100895089D01*
X155377105Y-100883705D01*
X155289688Y-100716491D01*
X155282972Y-100706229D01*
X155164741Y-100559180D01*
X155156157Y-100550414D01*
X155011611Y-100429125D01*
X155001497Y-100422199D01*
X154836139Y-100331293D01*
X154824875Y-100326465D01*
X154645011Y-100269409D01*
X154633022Y-100266861D01*
X154486207Y-100250393D01*
X154479183Y-100250000D01*
X154318115Y-100250000D01*
X154302876Y-100254475D01*
X154301671Y-100255865D01*
X154300000Y-100263548D01*
X154300000Y-101106885D01*
X154000000Y-101106885D01*
X154000000Y-100268115D01*
X153995525Y-100252876D01*
X153994135Y-100251671D01*
X153986452Y-100250000D01*
X153827496Y-100250000D01*
X153821348Y-100250301D01*
X153681076Y-100264054D01*
X153669048Y-100266436D01*
X153488409Y-100320975D01*
X153477076Y-100325646D01*
X153310470Y-100414231D01*
X153300253Y-100421019D01*
X153154030Y-100540276D01*
X153145326Y-100548920D01*
X153025053Y-100694305D01*
X153018194Y-100704473D01*
X152928448Y-100870456D01*
X152923696Y-100881761D01*
X152867899Y-101062011D01*
X152865433Y-101074025D01*
X152861969Y-101106985D01*
X149725500Y-101106985D01*
X149725500Y-100243648D01*
X149749177Y-100170122D01*
X149800035Y-100099345D01*
X149824224Y-100065683D01*
X149829016Y-100053764D01*
X149880114Y-99926652D01*
X149882950Y-99919598D01*
X149893050Y-99848634D01*
X149904553Y-99767807D01*
X149904553Y-99767804D01*
X149905134Y-99763723D01*
X149905278Y-99750000D01*
X149886363Y-99593694D01*
X149882289Y-99582911D01*
X149833394Y-99453514D01*
X149833393Y-99453511D01*
X149830710Y-99446412D01*
X149741531Y-99316657D01*
X149685181Y-99266451D01*
X149629648Y-99216972D01*
X149629644Y-99216969D01*
X149623976Y-99211919D01*
X149610061Y-99204551D01*
X149569270Y-99182954D01*
X149484831Y-99138245D01*
X149468122Y-99134048D01*
X149339498Y-99101740D01*
X149339496Y-99101740D01*
X149332128Y-99099889D01*
X149324530Y-99099849D01*
X149324528Y-99099849D01*
X149257319Y-99099497D01*
X149174684Y-99099065D01*
X149167305Y-99100837D01*
X149167301Y-99100837D01*
X149028967Y-99134048D01*
X149028963Y-99134049D01*
X149021588Y-99135820D01*
X148881679Y-99208032D01*
X148875960Y-99213021D01*
X148841080Y-99243449D01*
X148776598Y-99273157D01*
X148758250Y-99274500D01*
X139434079Y-99274500D01*
X139365958Y-99254498D01*
X139319465Y-99200842D01*
X139309361Y-99130568D01*
X139338855Y-99065988D01*
X139360705Y-99046761D01*
X139362625Y-99045795D01*
X139439925Y-98979775D01*
X139476574Y-98948474D01*
X139476576Y-98948471D01*
X139482348Y-98943542D01*
X139574224Y-98815683D01*
X139632950Y-98669598D01*
X139642111Y-98605230D01*
X139654553Y-98517807D01*
X139654553Y-98517804D01*
X139655134Y-98513723D01*
X139655278Y-98500000D01*
X139636363Y-98343694D01*
X139632289Y-98332911D01*
X139583394Y-98203514D01*
X139583393Y-98203511D01*
X139580710Y-98196412D01*
X139491531Y-98066657D01*
X139444839Y-98025056D01*
X139379648Y-97966972D01*
X139379645Y-97966970D01*
X139373976Y-97961919D01*
X139234831Y-97888245D01*
X139227466Y-97886395D01*
X139089499Y-97851740D01*
X139089495Y-97851740D01*
X139082128Y-97849889D01*
X139074529Y-97849849D01*
X139074527Y-97849849D01*
X139002753Y-97849473D01*
X138934738Y-97829114D01*
X138914318Y-97812570D01*
X138753220Y-97651472D01*
X138731837Y-97640577D01*
X138714991Y-97630253D01*
X138703604Y-97621980D01*
X138695581Y-97616151D01*
X138686150Y-97613087D01*
X138686147Y-97613085D01*
X138672763Y-97608736D01*
X138654502Y-97601172D01*
X138641964Y-97594784D01*
X138641963Y-97594784D01*
X138633126Y-97590281D01*
X138609429Y-97586528D01*
X138590210Y-97581914D01*
X138567393Y-97574500D01*
X130589429Y-97574500D01*
X130521308Y-97554498D01*
X130474815Y-97500842D01*
X130464711Y-97430568D01*
X130494205Y-97365988D01*
X130532815Y-97335935D01*
X130612625Y-97295795D01*
X130638869Y-97273381D01*
X130726574Y-97198474D01*
X130726576Y-97198471D01*
X130732348Y-97193542D01*
X130824224Y-97065683D01*
X130882950Y-96919598D01*
X130905134Y-96763723D01*
X130905278Y-96750000D01*
X130886363Y-96593694D01*
X130848050Y-96492301D01*
X130833394Y-96453514D01*
X130833393Y-96453511D01*
X130830710Y-96446412D01*
X130741531Y-96316657D01*
X130670457Y-96253332D01*
X130629648Y-96216972D01*
X130629645Y-96216970D01*
X130623976Y-96211919D01*
X130484831Y-96138245D01*
X130440806Y-96127187D01*
X130379610Y-96091193D01*
X130347588Y-96027828D01*
X130345500Y-96004983D01*
X130345500Y-95475945D01*
X154742517Y-95475945D01*
X154742535Y-95476196D01*
X154748451Y-95484943D01*
X154856157Y-95582948D01*
X154861781Y-95587503D01*
X155136845Y-95785156D01*
X155142975Y-95789046D01*
X155438923Y-95953769D01*
X155445443Y-95956921D01*
X155758373Y-96086540D01*
X155765224Y-96088926D01*
X156090960Y-96181715D01*
X156098049Y-96183299D01*
X156432303Y-96238036D01*
X156439509Y-96238793D01*
X156777842Y-96254748D01*
X156785092Y-96254672D01*
X157123006Y-96231636D01*
X157130215Y-96230725D01*
X157463248Y-96169001D01*
X157470278Y-96167274D01*
X157794012Y-96067680D01*
X157800823Y-96065147D01*
X158110948Y-95929012D01*
X158117415Y-95925717D01*
X158409858Y-95754827D01*
X158415891Y-95750818D01*
X158686757Y-95547447D01*
X158692281Y-95542779D01*
X158750134Y-95487879D01*
X158758110Y-95474141D01*
X158758066Y-95473183D01*
X158753106Y-95465238D01*
X156762812Y-93474944D01*
X156748868Y-93467330D01*
X156747035Y-93467461D01*
X156740420Y-93471712D01*
X154750131Y-95462001D01*
X154742517Y-95475945D01*
X130345500Y-95475945D01*
X130345500Y-93596972D01*
X130365502Y-93528851D01*
X130409933Y-93487038D01*
X130546001Y-93410837D01*
X130608433Y-93358913D01*
X130697073Y-93285191D01*
X130701505Y-93281505D01*
X130830837Y-93126001D01*
X130929664Y-92949531D01*
X130994678Y-92758007D01*
X130995507Y-92752291D01*
X130995508Y-92752286D01*
X131023167Y-92561516D01*
X131023700Y-92557842D01*
X131025215Y-92500000D01*
X131022557Y-92471069D01*
X131355164Y-92471069D01*
X131368392Y-92672894D01*
X131418178Y-92868928D01*
X131502856Y-93052607D01*
X131506189Y-93057323D01*
X131578216Y-93159239D01*
X131619588Y-93217780D01*
X131623730Y-93221815D01*
X131662497Y-93259580D01*
X131764466Y-93358913D01*
X131932637Y-93471282D01*
X131937940Y-93473560D01*
X131937943Y-93473562D01*
X132113163Y-93548842D01*
X132118470Y-93551122D01*
X132315740Y-93595760D01*
X132321509Y-93595987D01*
X132321512Y-93595987D01*
X132397683Y-93598979D01*
X132517842Y-93603700D01*
X132604132Y-93591189D01*
X132712286Y-93575508D01*
X132712291Y-93575507D01*
X132718007Y-93574678D01*
X132723479Y-93572820D01*
X132723481Y-93572820D01*
X132904067Y-93511519D01*
X132904069Y-93511518D01*
X132909531Y-93509664D01*
X133086001Y-93410837D01*
X133129482Y-93374674D01*
X133899500Y-93374674D01*
X133914034Y-93447740D01*
X133969399Y-93530601D01*
X134052260Y-93585966D01*
X134125326Y-93600500D01*
X135874674Y-93600500D01*
X135947740Y-93585966D01*
X136030601Y-93530601D01*
X136085966Y-93447740D01*
X136100500Y-93374674D01*
X136100500Y-93159239D01*
X153746494Y-93159239D01*
X153755360Y-93497834D01*
X153755966Y-93505050D01*
X153803693Y-93840391D01*
X153805122Y-93847480D01*
X153891074Y-94175110D01*
X153893314Y-94182005D01*
X154016348Y-94497571D01*
X154019373Y-94504177D01*
X154177857Y-94803501D01*
X154181616Y-94809709D01*
X154373461Y-95088845D01*
X154377906Y-95094574D01*
X154512940Y-95249367D01*
X154526112Y-95257771D01*
X154535965Y-95251903D01*
X156525056Y-93262812D01*
X156532670Y-93248868D01*
X156532539Y-93247035D01*
X156528288Y-93240420D01*
X154535880Y-91248012D01*
X154521936Y-91240398D01*
X154520277Y-91240516D01*
X154513424Y-91244946D01*
X154498405Y-91260123D01*
X154493611Y-91265561D01*
X154284618Y-91532101D01*
X154280483Y-91538050D01*
X154103503Y-91826855D01*
X154100082Y-91833234D01*
X153957468Y-92140472D01*
X153954808Y-92147191D01*
X153848451Y-92468782D01*
X153846575Y-92475785D01*
X153777889Y-92807458D01*
X153776832Y-92814619D01*
X153746722Y-93151987D01*
X153746494Y-93159239D01*
X136100500Y-93159239D01*
X136100500Y-91625326D01*
X136085966Y-91552260D01*
X136072497Y-91532101D01*
X136037493Y-91479714D01*
X136030601Y-91469399D01*
X135947740Y-91414034D01*
X135874674Y-91399500D01*
X134125326Y-91399500D01*
X134052260Y-91414034D01*
X133969399Y-91469399D01*
X133962507Y-91479714D01*
X133927504Y-91532101D01*
X133914034Y-91552260D01*
X133899500Y-91625326D01*
X133899500Y-93374674D01*
X133129482Y-93374674D01*
X133148433Y-93358913D01*
X133237073Y-93285191D01*
X133241505Y-93281505D01*
X133370837Y-93126001D01*
X133469664Y-92949531D01*
X133534678Y-92758007D01*
X133535507Y-92752291D01*
X133535508Y-92752286D01*
X133563167Y-92561516D01*
X133563700Y-92557842D01*
X133565215Y-92500000D01*
X133546708Y-92298591D01*
X133534233Y-92254356D01*
X133493376Y-92109490D01*
X133491807Y-92103926D01*
X133402351Y-91922527D01*
X133398352Y-91917171D01*
X133284788Y-91765091D01*
X133284787Y-91765090D01*
X133281335Y-91760467D01*
X133277099Y-91756551D01*
X133137053Y-91627094D01*
X133137051Y-91627092D01*
X133132812Y-91623174D01*
X133126607Y-91619259D01*
X132966637Y-91518325D01*
X132961757Y-91515246D01*
X132773898Y-91440298D01*
X132575526Y-91400839D01*
X132569752Y-91400763D01*
X132569748Y-91400763D01*
X132467257Y-91399422D01*
X132373286Y-91398192D01*
X132367589Y-91399171D01*
X132367588Y-91399171D01*
X132179646Y-91431465D01*
X132179645Y-91431465D01*
X132173949Y-91432444D01*
X131984193Y-91502449D01*
X131979232Y-91505401D01*
X131979231Y-91505401D01*
X131852744Y-91580653D01*
X131810371Y-91605862D01*
X131658305Y-91739220D01*
X131533089Y-91898057D01*
X131438914Y-92077053D01*
X131378937Y-92270213D01*
X131355164Y-92471069D01*
X131022557Y-92471069D01*
X131006708Y-92298591D01*
X130994233Y-92254356D01*
X130953376Y-92109490D01*
X130951807Y-92103926D01*
X130862351Y-91922527D01*
X130858352Y-91917171D01*
X130744788Y-91765091D01*
X130744787Y-91765090D01*
X130741335Y-91760467D01*
X130737099Y-91756551D01*
X130597053Y-91627094D01*
X130597051Y-91627092D01*
X130592812Y-91623174D01*
X130586607Y-91619259D01*
X130426637Y-91518325D01*
X130421757Y-91515246D01*
X130233898Y-91440298D01*
X130035526Y-91400839D01*
X130029752Y-91400763D01*
X130029748Y-91400763D01*
X129927257Y-91399422D01*
X129833286Y-91398192D01*
X129827589Y-91399171D01*
X129827588Y-91399171D01*
X129639646Y-91431465D01*
X129639645Y-91431465D01*
X129633949Y-91432444D01*
X129444193Y-91502449D01*
X129439232Y-91505401D01*
X129439231Y-91505401D01*
X129312744Y-91580653D01*
X129270371Y-91605862D01*
X129118305Y-91739220D01*
X128993089Y-91898057D01*
X128898914Y-92077053D01*
X128838937Y-92270213D01*
X128815164Y-92471069D01*
X128828392Y-92672894D01*
X128878178Y-92868928D01*
X128962856Y-93052607D01*
X128966189Y-93057323D01*
X129038216Y-93159239D01*
X129079588Y-93217780D01*
X129083730Y-93221815D01*
X129122497Y-93259580D01*
X129224466Y-93358913D01*
X129392637Y-93471282D01*
X129397940Y-93473560D01*
X129397943Y-93473562D01*
X129418238Y-93482281D01*
X129472931Y-93527549D01*
X129494500Y-93598049D01*
X129494500Y-96487393D01*
X129501914Y-96510210D01*
X129506528Y-96529429D01*
X129510281Y-96553126D01*
X129514784Y-96561963D01*
X129514784Y-96561964D01*
X129521172Y-96574502D01*
X129528736Y-96592763D01*
X129533085Y-96606147D01*
X129533087Y-96606150D01*
X129536151Y-96615581D01*
X129541980Y-96623604D01*
X129550253Y-96634991D01*
X129560577Y-96651837D01*
X129571472Y-96673220D01*
X129573025Y-96674773D01*
X129595441Y-96737602D01*
X129595448Y-96737898D01*
X129594758Y-96743138D01*
X129595591Y-96750683D01*
X129595591Y-96750685D01*
X129597481Y-96767807D01*
X129612035Y-96899633D01*
X129666143Y-97047490D01*
X129670380Y-97053796D01*
X129670382Y-97053799D01*
X129702176Y-97101112D01*
X129753958Y-97178172D01*
X129870410Y-97284135D01*
X129877085Y-97287759D01*
X129969191Y-97337769D01*
X130019513Y-97387852D01*
X130034769Y-97457190D01*
X130010116Y-97523769D01*
X129953382Y-97566451D01*
X129909069Y-97574500D01*
X129478438Y-97574500D01*
X129410317Y-97554498D01*
X129389343Y-97537595D01*
X127842405Y-95990657D01*
X127808379Y-95928345D01*
X127805500Y-95901562D01*
X127805500Y-93596972D01*
X127825502Y-93528851D01*
X127869933Y-93487038D01*
X128006001Y-93410837D01*
X128068433Y-93358913D01*
X128157073Y-93285191D01*
X128161505Y-93281505D01*
X128290837Y-93126001D01*
X128389664Y-92949531D01*
X128454678Y-92758007D01*
X128455507Y-92752291D01*
X128455508Y-92752286D01*
X128483167Y-92561516D01*
X128483700Y-92557842D01*
X128485215Y-92500000D01*
X128466708Y-92298591D01*
X128454233Y-92254356D01*
X128413376Y-92109490D01*
X128411807Y-92103926D01*
X128322351Y-91922527D01*
X128318352Y-91917171D01*
X128204788Y-91765091D01*
X128204787Y-91765090D01*
X128201335Y-91760467D01*
X128197099Y-91756551D01*
X128057053Y-91627094D01*
X128057051Y-91627092D01*
X128052812Y-91623174D01*
X128046607Y-91619259D01*
X127886637Y-91518325D01*
X127881757Y-91515246D01*
X127693898Y-91440298D01*
X127495526Y-91400839D01*
X127489752Y-91400763D01*
X127489748Y-91400763D01*
X127387257Y-91399422D01*
X127293286Y-91398192D01*
X127287589Y-91399171D01*
X127287588Y-91399171D01*
X127099646Y-91431465D01*
X127099645Y-91431465D01*
X127093949Y-91432444D01*
X126904193Y-91502449D01*
X126899232Y-91505401D01*
X126899231Y-91505401D01*
X126772744Y-91580653D01*
X126730371Y-91605862D01*
X126578305Y-91739220D01*
X126453089Y-91898057D01*
X126358914Y-92077053D01*
X126298937Y-92270213D01*
X126275164Y-92471069D01*
X126288392Y-92672894D01*
X126338178Y-92868928D01*
X126422856Y-93052607D01*
X126426189Y-93057323D01*
X126498216Y-93159239D01*
X126539588Y-93217780D01*
X126543730Y-93221815D01*
X126582497Y-93259580D01*
X126684466Y-93358913D01*
X126852637Y-93471282D01*
X126857940Y-93473560D01*
X126857943Y-93473562D01*
X126878238Y-93482281D01*
X126932931Y-93527549D01*
X126954500Y-93598049D01*
X126954500Y-96197393D01*
X126961914Y-96220210D01*
X126966528Y-96239429D01*
X126970281Y-96263126D01*
X126974784Y-96271963D01*
X126974784Y-96271964D01*
X126981172Y-96284502D01*
X126988736Y-96302763D01*
X126993085Y-96316147D01*
X126993087Y-96316150D01*
X126996151Y-96325581D01*
X127001980Y-96333604D01*
X127010253Y-96344991D01*
X127020577Y-96361837D01*
X127031472Y-96383220D01*
X128996780Y-98348528D01*
X129018163Y-98359423D01*
X129035009Y-98369747D01*
X129054419Y-98383849D01*
X129063850Y-98386913D01*
X129063853Y-98386915D01*
X129077237Y-98391264D01*
X129095498Y-98398828D01*
X129108036Y-98405216D01*
X129116874Y-98409719D01*
X129140571Y-98413472D01*
X129159790Y-98418086D01*
X129182607Y-98425500D01*
X138224436Y-98425500D01*
X138292557Y-98445502D01*
X138339050Y-98499158D01*
X138349675Y-98537673D01*
X138362035Y-98649633D01*
X138416143Y-98797490D01*
X138420380Y-98803796D01*
X138420382Y-98803799D01*
X138460071Y-98862861D01*
X138503958Y-98928172D01*
X138620410Y-99034135D01*
X138627085Y-99037759D01*
X138627103Y-99037769D01*
X138627113Y-99037779D01*
X138633275Y-99042158D01*
X138632545Y-99043185D01*
X138677425Y-99087852D01*
X138692681Y-99157190D01*
X138668029Y-99223769D01*
X138611294Y-99266451D01*
X138566981Y-99274500D01*
X135492203Y-99274500D01*
X135424082Y-99254498D01*
X135408393Y-99242584D01*
X135373976Y-99211919D01*
X135360061Y-99204551D01*
X135319270Y-99182954D01*
X135234831Y-99138245D01*
X135218122Y-99134048D01*
X135089498Y-99101740D01*
X135089496Y-99101740D01*
X135082128Y-99099889D01*
X135074530Y-99099849D01*
X135074528Y-99099849D01*
X135007319Y-99099497D01*
X134924684Y-99099065D01*
X134917305Y-99100837D01*
X134917301Y-99100837D01*
X134778967Y-99134048D01*
X134778963Y-99134049D01*
X134771588Y-99135820D01*
X134631679Y-99208032D01*
X134625960Y-99213021D01*
X134591080Y-99243449D01*
X134526598Y-99273157D01*
X134508250Y-99274500D01*
X124242203Y-99274500D01*
X124174082Y-99254498D01*
X124158393Y-99242584D01*
X124123976Y-99211919D01*
X124110061Y-99204551D01*
X124069270Y-99182954D01*
X123984831Y-99138245D01*
X123968122Y-99134048D01*
X123839498Y-99101740D01*
X123839496Y-99101740D01*
X123832128Y-99099889D01*
X123824530Y-99099849D01*
X123824528Y-99099849D01*
X123757319Y-99099497D01*
X123674684Y-99099065D01*
X123667305Y-99100837D01*
X123667301Y-99100837D01*
X123528967Y-99134048D01*
X123528963Y-99134049D01*
X123521588Y-99135820D01*
X123381679Y-99208032D01*
X123375960Y-99213021D01*
X123341080Y-99243449D01*
X123276598Y-99273157D01*
X123258250Y-99274500D01*
X119742203Y-99274500D01*
X119674082Y-99254498D01*
X119658393Y-99242584D01*
X119623976Y-99211919D01*
X119610061Y-99204551D01*
X119569270Y-99182954D01*
X119484831Y-99138245D01*
X119468122Y-99134048D01*
X119339498Y-99101740D01*
X119339496Y-99101740D01*
X119332128Y-99099889D01*
X119324530Y-99099849D01*
X119324528Y-99099849D01*
X119257319Y-99099497D01*
X119174684Y-99099065D01*
X119167305Y-99100837D01*
X119167301Y-99100837D01*
X119028967Y-99134048D01*
X119028963Y-99134049D01*
X119021588Y-99135820D01*
X118881679Y-99208032D01*
X118875960Y-99213021D01*
X118841080Y-99243449D01*
X118776598Y-99273157D01*
X118758250Y-99274500D01*
X115067373Y-99274500D01*
X115056277Y-99273261D01*
X115056229Y-99273859D01*
X115047283Y-99273139D01*
X115038527Y-99271158D01*
X114994986Y-99273859D01*
X114988554Y-99274258D01*
X114980753Y-99274500D01*
X114965855Y-99274500D01*
X114956492Y-99275841D01*
X114946442Y-99276870D01*
X114926984Y-99278077D01*
X114911542Y-99279035D01*
X114911540Y-99279035D01*
X114902584Y-99279591D01*
X114894144Y-99282638D01*
X114887897Y-99283932D01*
X114880191Y-99285853D01*
X114874056Y-99287647D01*
X114865171Y-99288919D01*
X114857000Y-99292634D01*
X114825168Y-99307107D01*
X114815802Y-99310920D01*
X114774471Y-99325841D01*
X114767225Y-99331135D01*
X114761588Y-99334132D01*
X114754735Y-99338137D01*
X114749356Y-99341577D01*
X114741180Y-99345294D01*
X114734378Y-99351155D01*
X114707891Y-99373978D01*
X114699987Y-99380255D01*
X114689965Y-99387576D01*
X114679917Y-99397624D01*
X114673070Y-99403982D01*
X114637996Y-99434204D01*
X114633112Y-99441739D01*
X114627213Y-99448501D01*
X114627133Y-99448431D01*
X114618753Y-99458788D01*
X114309735Y-99767807D01*
X114015375Y-100062167D01*
X113953062Y-100096192D01*
X113939748Y-100097588D01*
X113939823Y-100098232D01*
X113932278Y-100099105D01*
X113924684Y-100099065D01*
X113917305Y-100100837D01*
X113917301Y-100100837D01*
X113778967Y-100134048D01*
X113778963Y-100134049D01*
X113771588Y-100135820D01*
X113631679Y-100208032D01*
X113625957Y-100213024D01*
X113625955Y-100213025D01*
X113518759Y-100306538D01*
X113518756Y-100306541D01*
X113513034Y-100311533D01*
X113495884Y-100335935D01*
X113429375Y-100430568D01*
X113422501Y-100440348D01*
X113365309Y-100587039D01*
X113359620Y-100630251D01*
X113349975Y-100703514D01*
X113344758Y-100743138D01*
X108963780Y-100743138D01*
X108920116Y-100719529D01*
X108805762Y-100684131D01*
X108747936Y-100666231D01*
X108747933Y-100666230D01*
X108742049Y-100664409D01*
X108735924Y-100663765D01*
X108735923Y-100663765D01*
X108562796Y-100645568D01*
X108562795Y-100645568D01*
X108556668Y-100644924D01*
X108484717Y-100651472D01*
X108377171Y-100661259D01*
X108377168Y-100661260D01*
X108371032Y-100661818D01*
X108365122Y-100663557D01*
X108365119Y-100663558D01*
X108220139Y-100706229D01*
X108192214Y-100714448D01*
X108027023Y-100800807D01*
X107881752Y-100917608D01*
X107761935Y-101060401D01*
X107758971Y-101065793D01*
X107758968Y-101065797D01*
X107728881Y-101120525D01*
X107672135Y-101223746D01*
X107670274Y-101229613D01*
X107670273Y-101229615D01*
X107626301Y-101368233D01*
X107615772Y-101401424D01*
X107594994Y-101586665D01*
X107003791Y-101586665D01*
X106986909Y-101414487D01*
X106985128Y-101408588D01*
X106985127Y-101408583D01*
X106934814Y-101241939D01*
X106933033Y-101236040D01*
X106873992Y-101125000D01*
X106848416Y-101076898D01*
X106848414Y-101076895D01*
X106845522Y-101071456D01*
X106841632Y-101066686D01*
X106841629Y-101066682D01*
X106731605Y-100931780D01*
X106731602Y-100931777D01*
X106727710Y-100927005D01*
X106722056Y-100922327D01*
X106588834Y-100812116D01*
X106584085Y-100808187D01*
X106420116Y-100719529D01*
X106305762Y-100684131D01*
X106247936Y-100666231D01*
X106247933Y-100666230D01*
X106242049Y-100664409D01*
X106235924Y-100663765D01*
X106235923Y-100663765D01*
X106062796Y-100645568D01*
X106062795Y-100645568D01*
X106056668Y-100644924D01*
X105984717Y-100651472D01*
X105877171Y-100661259D01*
X105877168Y-100661260D01*
X105871032Y-100661818D01*
X105865122Y-100663557D01*
X105865119Y-100663558D01*
X105720139Y-100706229D01*
X105692214Y-100714448D01*
X105527023Y-100800807D01*
X105381752Y-100917608D01*
X105261935Y-101060401D01*
X105258971Y-101065793D01*
X105258968Y-101065797D01*
X105228881Y-101120525D01*
X105172135Y-101223746D01*
X105170274Y-101229613D01*
X105170273Y-101229615D01*
X105126301Y-101368233D01*
X105115772Y-101401424D01*
X105094994Y-101586665D01*
X105095510Y-101592809D01*
X105108768Y-101750688D01*
X105110592Y-101772414D01*
X105112291Y-101778339D01*
X105154915Y-101926986D01*
X105161971Y-101951595D01*
X105164790Y-101957080D01*
X105240999Y-102105365D01*
X105247176Y-102117385D01*
X105362959Y-102263468D01*
X105504912Y-102384279D01*
X105667627Y-102475217D01*
X105756624Y-102504134D01*
X105840016Y-102531230D01*
X105898622Y-102571304D01*
X105926259Y-102636700D01*
X105914152Y-102706657D01*
X105866146Y-102758963D01*
X105836655Y-102771936D01*
X105698131Y-102812706D01*
X105698126Y-102812708D01*
X105692214Y-102814448D01*
X105527023Y-102900807D01*
X105522223Y-102904667D01*
X105522222Y-102904667D01*
X105492988Y-102928172D01*
X105381752Y-103017608D01*
X105261935Y-103160401D01*
X105258971Y-103165793D01*
X105258968Y-103165797D01*
X105184256Y-103301699D01*
X105172135Y-103323746D01*
X105115772Y-103501424D01*
X105094994Y-103686665D01*
X102566500Y-103686665D01*
X102490723Y-103666361D01*
X102490722Y-103666361D01*
X102485408Y-103664937D01*
X102382318Y-103655918D01*
X102311690Y-103649738D01*
X102311683Y-103649738D01*
X102308966Y-103649500D01*
X102191034Y-103649500D01*
X102188317Y-103649738D01*
X102188310Y-103649738D01*
X102117682Y-103655918D01*
X102014592Y-103664937D01*
X102009278Y-103666361D01*
X102009277Y-103666361D01*
X101791647Y-103724674D01*
X101791645Y-103724675D01*
X101786337Y-103726097D01*
X101781357Y-103728419D01*
X101781355Y-103728420D01*
X101577152Y-103823642D01*
X101577149Y-103823644D01*
X101572171Y-103825965D01*
X101378599Y-103961505D01*
X101211505Y-104128599D01*
X101208348Y-104133107D01*
X101208346Y-104133110D01*
X101079122Y-104317661D01*
X101075965Y-104322170D01*
X101073642Y-104327152D01*
X101073639Y-104327157D01*
X100986642Y-104513723D01*
X100976097Y-104536337D01*
X100974675Y-104541645D01*
X100974674Y-104541647D01*
X100944458Y-104654418D01*
X100914937Y-104764592D01*
X100894341Y-105000000D01*
X100250500Y-105000000D01*
X100250500Y-99626962D01*
X101890705Y-99626962D01*
X101899418Y-99638482D01*
X102089700Y-99778002D01*
X102097610Y-99782945D01*
X102326096Y-99903157D01*
X102334659Y-99906880D01*
X102578403Y-99992000D01*
X102587412Y-99994414D01*
X102841074Y-100042573D01*
X102850330Y-100043627D01*
X103108327Y-100053764D01*
X103117641Y-100053438D01*
X103374291Y-100025331D01*
X103383468Y-100023630D01*
X103633143Y-99957896D01*
X103641963Y-99954859D01*
X103879184Y-99852941D01*
X103887456Y-99848634D01*
X104107005Y-99712774D01*
X104114545Y-99707296D01*
X104198532Y-99636196D01*
X104206970Y-99623393D01*
X104200907Y-99613039D01*
X103062812Y-98474944D01*
X103048868Y-98467330D01*
X103047035Y-98467461D01*
X103040420Y-98471712D01*
X101897363Y-99614769D01*
X101890705Y-99626962D01*
X100250500Y-99626962D01*
X100250500Y-98207420D01*
X101245796Y-98207420D01*
X101258184Y-98465308D01*
X101259321Y-98474568D01*
X101309691Y-98727798D01*
X101312180Y-98736773D01*
X101399427Y-98979775D01*
X101403224Y-98988303D01*
X101525425Y-99215731D01*
X101530436Y-99223597D01*
X101662313Y-99400201D01*
X101673571Y-99408650D01*
X101685990Y-99401878D01*
X102825056Y-98262812D01*
X102831434Y-98251132D01*
X103267330Y-98251132D01*
X103267461Y-98252965D01*
X103271712Y-98259580D01*
X104411884Y-99399752D01*
X104425645Y-99407266D01*
X104435006Y-99400808D01*
X104488487Y-99339825D01*
X104494106Y-99332369D01*
X104633781Y-99115220D01*
X104638224Y-99107036D01*
X104744268Y-98871626D01*
X104747458Y-98862861D01*
X104817540Y-98614372D01*
X104819400Y-98605230D01*
X104852175Y-98347599D01*
X104852656Y-98341313D01*
X104854964Y-98253160D01*
X104854813Y-98246851D01*
X104835566Y-97987849D01*
X104834189Y-97978643D01*
X104777206Y-97726812D01*
X104774482Y-97717901D01*
X104680902Y-97477260D01*
X104676891Y-97468851D01*
X104548771Y-97244689D01*
X104543560Y-97236963D01*
X104436464Y-97101112D01*
X104424539Y-97092641D01*
X104413005Y-97099127D01*
X103274944Y-98237188D01*
X103267330Y-98251132D01*
X102831434Y-98251132D01*
X102832670Y-98248868D01*
X102832539Y-98247035D01*
X102828288Y-98240420D01*
X101688279Y-97100411D01*
X101674970Y-97093143D01*
X101664935Y-97100263D01*
X101583475Y-97198207D01*
X101578054Y-97205807D01*
X101444119Y-97426525D01*
X101439881Y-97434842D01*
X101340040Y-97672935D01*
X101337079Y-97681785D01*
X101273529Y-97932018D01*
X101271907Y-97941215D01*
X101246041Y-98198095D01*
X101245796Y-98207420D01*
X100250500Y-98207420D01*
X100250500Y-95475945D01*
X101242517Y-95475945D01*
X101242535Y-95476196D01*
X101248451Y-95484943D01*
X101356157Y-95582948D01*
X101361781Y-95587503D01*
X101636845Y-95785156D01*
X101642975Y-95789046D01*
X101938923Y-95953769D01*
X101945443Y-95956921D01*
X102258373Y-96086540D01*
X102265224Y-96088926D01*
X102590960Y-96181715D01*
X102598049Y-96183299D01*
X102807478Y-96217595D01*
X102871471Y-96248343D01*
X102908682Y-96308807D01*
X102907296Y-96379790D01*
X102867754Y-96438756D01*
X102804107Y-96466788D01*
X102679341Y-96483768D01*
X102670222Y-96485706D01*
X102422358Y-96557952D01*
X102413605Y-96561224D01*
X102179142Y-96669313D01*
X102170987Y-96673833D01*
X101955067Y-96815396D01*
X101947671Y-96821071D01*
X101900701Y-96862993D01*
X101892333Y-96876444D01*
X101898048Y-96885916D01*
X103037188Y-98025056D01*
X103051132Y-98032670D01*
X103052965Y-98032539D01*
X103059580Y-98028288D01*
X104201327Y-96886541D01*
X104208941Y-96872597D01*
X104208884Y-96871788D01*
X104203563Y-96863780D01*
X104189355Y-96850415D01*
X104182118Y-96844555D01*
X103969966Y-96697380D01*
X103961940Y-96692652D01*
X103730371Y-96578455D01*
X103721738Y-96574967D01*
X103475831Y-96496252D01*
X103466762Y-96494074D01*
X103455876Y-96492301D01*
X103391857Y-96461607D01*
X103354595Y-96401175D01*
X103355921Y-96330190D01*
X103395413Y-96271191D01*
X103467564Y-96242232D01*
X103623005Y-96231636D01*
X103630215Y-96230725D01*
X103963248Y-96169001D01*
X103970278Y-96167274D01*
X104294012Y-96067680D01*
X104300823Y-96065147D01*
X104610948Y-95929012D01*
X104617415Y-95925717D01*
X104909858Y-95754827D01*
X104915891Y-95750818D01*
X105186757Y-95547447D01*
X105192281Y-95542779D01*
X105250134Y-95487879D01*
X105258110Y-95474141D01*
X105258066Y-95473183D01*
X105253106Y-95465238D01*
X103262812Y-93474944D01*
X103248868Y-93467330D01*
X103247035Y-93467461D01*
X103240420Y-93471712D01*
X101250131Y-95462001D01*
X101242517Y-95475945D01*
X100250500Y-95475945D01*
X100250500Y-94485747D01*
X100270502Y-94417626D01*
X100324158Y-94371133D01*
X100394432Y-94361029D01*
X100459012Y-94390523D01*
X100493893Y-94439977D01*
X100516348Y-94497571D01*
X100519373Y-94504177D01*
X100677857Y-94803501D01*
X100681616Y-94809709D01*
X100873461Y-95088845D01*
X100877906Y-95094574D01*
X101012940Y-95249367D01*
X101026112Y-95257771D01*
X101035965Y-95251903D01*
X103025056Y-93262812D01*
X103031434Y-93251132D01*
X103467330Y-93251132D01*
X103467461Y-93252965D01*
X103471712Y-93259580D01*
X105463612Y-95251480D01*
X105476966Y-95258772D01*
X105486939Y-95251717D01*
X105660207Y-95044489D01*
X105664523Y-95038678D01*
X105850492Y-94755568D01*
X105854106Y-94749306D01*
X106006303Y-94446699D01*
X106009175Y-94440061D01*
X106125578Y-94121976D01*
X106127673Y-94115035D01*
X106206743Y-93785684D01*
X106208027Y-93778545D01*
X106248818Y-93441470D01*
X106249242Y-93435900D01*
X106254996Y-93252797D01*
X106254923Y-93247204D01*
X106235378Y-92908224D01*
X106234546Y-92901035D01*
X106193456Y-92665603D01*
X123698305Y-92665603D01*
X123698914Y-92674901D01*
X123700715Y-92686273D01*
X123749896Y-92879923D01*
X123753737Y-92890769D01*
X123837386Y-93072218D01*
X123843137Y-93082179D01*
X123958455Y-93245350D01*
X123965921Y-93254092D01*
X124109047Y-93393520D01*
X124117981Y-93400754D01*
X124284112Y-93511760D01*
X124294225Y-93517251D01*
X124477805Y-93596123D01*
X124488738Y-93599675D01*
X124678700Y-93642658D01*
X124687300Y-93640491D01*
X124687666Y-93640100D01*
X124690000Y-93630291D01*
X124690000Y-93622244D01*
X124990000Y-93622244D01*
X124993966Y-93635750D01*
X125007966Y-93637754D01*
X125103898Y-93623845D01*
X125115081Y-93621160D01*
X125304283Y-93556934D01*
X125314786Y-93552258D01*
X125489124Y-93454625D01*
X125498596Y-93448115D01*
X125652219Y-93320348D01*
X125660348Y-93312219D01*
X125788115Y-93158596D01*
X125794625Y-93149124D01*
X125892258Y-92974786D01*
X125896934Y-92964283D01*
X125961160Y-92775081D01*
X125963845Y-92763898D01*
X125977759Y-92667929D01*
X125975773Y-92653993D01*
X125962205Y-92650000D01*
X125008115Y-92650000D01*
X124992876Y-92654475D01*
X124991671Y-92655865D01*
X124990000Y-92663548D01*
X124990000Y-93622244D01*
X124690000Y-93622244D01*
X124690000Y-92668115D01*
X124685525Y-92652876D01*
X124684135Y-92651671D01*
X124676452Y-92650000D01*
X123715397Y-92650000D01*
X123700357Y-92654416D01*
X123698305Y-92665603D01*
X106193456Y-92665603D01*
X106176310Y-92567359D01*
X106174655Y-92560304D01*
X106107032Y-92332012D01*
X123701773Y-92332012D01*
X123704215Y-92346431D01*
X123716957Y-92350000D01*
X124671885Y-92350000D01*
X124687124Y-92345525D01*
X124688329Y-92344135D01*
X124690000Y-92336452D01*
X124690000Y-92331885D01*
X124990000Y-92331885D01*
X124994475Y-92347124D01*
X124995865Y-92348329D01*
X125003548Y-92350000D01*
X125963029Y-92350000D01*
X125977574Y-92345729D01*
X125979637Y-92333595D01*
X125976117Y-92295285D01*
X125974020Y-92283971D01*
X125919785Y-92091670D01*
X125915663Y-92080931D01*
X125827292Y-91901733D01*
X125821282Y-91891925D01*
X125701731Y-91731827D01*
X125694041Y-91723287D01*
X125547315Y-91587654D01*
X125538190Y-91580653D01*
X125369209Y-91474034D01*
X125358965Y-91468814D01*
X125173385Y-91394775D01*
X125162347Y-91391505D01*
X125007770Y-91360759D01*
X124994894Y-91361911D01*
X124990000Y-91377064D01*
X124990000Y-92331885D01*
X124690000Y-92331885D01*
X124690000Y-91376952D01*
X124686194Y-91363990D01*
X124671279Y-91362054D01*
X124546780Y-91383447D01*
X124535660Y-91386427D01*
X124348207Y-91455582D01*
X124337829Y-91460532D01*
X124166119Y-91562688D01*
X124156807Y-91569453D01*
X124006587Y-91701194D01*
X123998670Y-91709537D01*
X123874975Y-91866443D01*
X123868704Y-91876100D01*
X123775679Y-92052912D01*
X123771273Y-92063549D01*
X123712025Y-92254356D01*
X123709632Y-92265614D01*
X123701773Y-92332012D01*
X106107032Y-92332012D01*
X106078458Y-92235549D01*
X106076000Y-92228720D01*
X105943112Y-91917171D01*
X105939895Y-91910688D01*
X105772067Y-91616454D01*
X105768135Y-91610399D01*
X105567600Y-91337405D01*
X105562990Y-91331832D01*
X105487325Y-91250408D01*
X105473674Y-91242291D01*
X105473068Y-91242312D01*
X105464587Y-91247545D01*
X103474944Y-93237188D01*
X103467330Y-93251132D01*
X103031434Y-93251132D01*
X103032670Y-93248868D01*
X103032539Y-93247035D01*
X103028288Y-93240420D01*
X101896597Y-92108729D01*
X101862571Y-92046417D01*
X101867636Y-91975602D01*
X101896597Y-91930539D01*
X101930539Y-91896597D01*
X101992851Y-91862571D01*
X102063666Y-91867636D01*
X102108729Y-91896597D01*
X103237188Y-93025056D01*
X103251132Y-93032670D01*
X103252965Y-93032539D01*
X103259580Y-93028288D01*
X105250726Y-91037142D01*
X105258118Y-91023605D01*
X105251330Y-91013904D01*
X105069627Y-90858715D01*
X105063868Y-90854343D01*
X104782716Y-90665417D01*
X104776494Y-90661737D01*
X104475498Y-90506381D01*
X104468881Y-90503435D01*
X104444880Y-90494366D01*
X104388227Y-90451577D01*
X104363701Y-90384951D01*
X104379089Y-90315642D01*
X104429505Y-90265655D01*
X104489417Y-90250500D01*
X155513047Y-90250500D01*
X155581168Y-90270502D01*
G37*
%TD.AperFunction*%
%TD*%
M02*
