%TF.GenerationSoftware,KiCad,Pcbnew,(6.0.7)*%
%TF.CreationDate,2022-10-12T10:01:19-04:00*%
%TF.ProjectId,minirib-usb,6d696e69-7269-4622-9d75-73622e6b6963,C*%
%TF.SameCoordinates,Original*%
%TF.FileFunction,Legend,Bot*%
%TF.FilePolarity,Positive*%
%FSLAX46Y46*%
G04 Gerber Fmt 4.6, Leading zero omitted, Abs format (unit mm)*
G04 Created by KiCad (PCBNEW (6.0.7)) date 2022-10-12 10:01:19*
%MOMM*%
%LPD*%
G01*
G04 APERTURE LIST*
%ADD10C,0.150000*%
%ADD11C,0.120000*%
G04 APERTURE END LIST*
D10*
%TO.C,D3*%
X106738095Y-109702380D02*
X106738095Y-108702380D01*
X106500000Y-108702380D01*
X106357142Y-108750000D01*
X106261904Y-108845238D01*
X106214285Y-108940476D01*
X106166666Y-109130952D01*
X106166666Y-109273809D01*
X106214285Y-109464285D01*
X106261904Y-109559523D01*
X106357142Y-109654761D01*
X106500000Y-109702380D01*
X106738095Y-109702380D01*
X105833333Y-108702380D02*
X105214285Y-108702380D01*
X105547619Y-109083333D01*
X105404761Y-109083333D01*
X105309523Y-109130952D01*
X105261904Y-109178571D01*
X105214285Y-109273809D01*
X105214285Y-109511904D01*
X105261904Y-109607142D01*
X105309523Y-109654761D01*
X105404761Y-109702380D01*
X105690476Y-109702380D01*
X105785714Y-109654761D01*
X105833333Y-109607142D01*
%TO.C,D4*%
X109238095Y-109702380D02*
X109238095Y-108702380D01*
X109000000Y-108702380D01*
X108857142Y-108750000D01*
X108761904Y-108845238D01*
X108714285Y-108940476D01*
X108666666Y-109130952D01*
X108666666Y-109273809D01*
X108714285Y-109464285D01*
X108761904Y-109559523D01*
X108857142Y-109654761D01*
X109000000Y-109702380D01*
X109238095Y-109702380D01*
X107809523Y-109035714D02*
X107809523Y-109702380D01*
X108047619Y-108654761D02*
X108285714Y-109369047D01*
X107666666Y-109369047D01*
%TO.C,R7*%
X108666666Y-100452380D02*
X109000000Y-99976190D01*
X109238095Y-100452380D02*
X109238095Y-99452380D01*
X108857142Y-99452380D01*
X108761904Y-99500000D01*
X108714285Y-99547619D01*
X108666666Y-99642857D01*
X108666666Y-99785714D01*
X108714285Y-99880952D01*
X108761904Y-99928571D01*
X108857142Y-99976190D01*
X109238095Y-99976190D01*
X108333333Y-99452380D02*
X107666666Y-99452380D01*
X108095238Y-100452380D01*
%TO.C,R6*%
X108666666Y-98702380D02*
X109000000Y-98226190D01*
X109238095Y-98702380D02*
X109238095Y-97702380D01*
X108857142Y-97702380D01*
X108761904Y-97750000D01*
X108714285Y-97797619D01*
X108666666Y-97892857D01*
X108666666Y-98035714D01*
X108714285Y-98130952D01*
X108761904Y-98178571D01*
X108857142Y-98226190D01*
X109238095Y-98226190D01*
X107809523Y-97702380D02*
X108000000Y-97702380D01*
X108095238Y-97750000D01*
X108142857Y-97797619D01*
X108238095Y-97940476D01*
X108285714Y-98130952D01*
X108285714Y-98511904D01*
X108238095Y-98607142D01*
X108190476Y-98654761D01*
X108095238Y-98702380D01*
X107904761Y-98702380D01*
X107809523Y-98654761D01*
X107761904Y-98607142D01*
X107714285Y-98511904D01*
X107714285Y-98273809D01*
X107761904Y-98178571D01*
X107809523Y-98130952D01*
X107904761Y-98083333D01*
X108095238Y-98083333D01*
X108190476Y-98130952D01*
X108238095Y-98178571D01*
X108285714Y-98273809D01*
%TO.C,C3*%
X108666666Y-102107142D02*
X108714285Y-102154761D01*
X108857142Y-102202380D01*
X108952380Y-102202380D01*
X109095238Y-102154761D01*
X109190476Y-102059523D01*
X109238095Y-101964285D01*
X109285714Y-101773809D01*
X109285714Y-101630952D01*
X109238095Y-101440476D01*
X109190476Y-101345238D01*
X109095238Y-101250000D01*
X108952380Y-101202380D01*
X108857142Y-101202380D01*
X108714285Y-101250000D01*
X108666666Y-101297619D01*
X108333333Y-101202380D02*
X107714285Y-101202380D01*
X108047619Y-101583333D01*
X107904761Y-101583333D01*
X107809523Y-101630952D01*
X107761904Y-101678571D01*
X107714285Y-101773809D01*
X107714285Y-102011904D01*
X107761904Y-102107142D01*
X107809523Y-102154761D01*
X107904761Y-102202380D01*
X108190476Y-102202380D01*
X108285714Y-102154761D01*
X108333333Y-102107142D01*
%TO.C,D2*%
X106738095Y-91452380D02*
X106738095Y-90452380D01*
X106500000Y-90452380D01*
X106357142Y-90500000D01*
X106261904Y-90595238D01*
X106214285Y-90690476D01*
X106166666Y-90880952D01*
X106166666Y-91023809D01*
X106214285Y-91214285D01*
X106261904Y-91309523D01*
X106357142Y-91404761D01*
X106500000Y-91452380D01*
X106738095Y-91452380D01*
X105785714Y-90547619D02*
X105738095Y-90500000D01*
X105642857Y-90452380D01*
X105404761Y-90452380D01*
X105309523Y-90500000D01*
X105261904Y-90547619D01*
X105214285Y-90642857D01*
X105214285Y-90738095D01*
X105261904Y-90880952D01*
X105833333Y-91452380D01*
X105214285Y-91452380D01*
%TO.C,D1*%
X109238095Y-91452380D02*
X109238095Y-90452380D01*
X109000000Y-90452380D01*
X108857142Y-90500000D01*
X108761904Y-90595238D01*
X108714285Y-90690476D01*
X108666666Y-90880952D01*
X108666666Y-91023809D01*
X108714285Y-91214285D01*
X108761904Y-91309523D01*
X108857142Y-91404761D01*
X109000000Y-91452380D01*
X109238095Y-91452380D01*
X107714285Y-91452380D02*
X108285714Y-91452380D01*
X108000000Y-91452380D02*
X108000000Y-90452380D01*
X108095238Y-90595238D01*
X108190476Y-90690476D01*
X108285714Y-90738095D01*
D11*
%TO.C,D3*%
X106960000Y-104890000D02*
X106960000Y-107750000D01*
X105040000Y-104890000D02*
X106960000Y-104890000D01*
X105040000Y-107750000D02*
X105040000Y-104890000D01*
%TO.C,D4*%
X107540000Y-107750000D02*
X107540000Y-104890000D01*
X107540000Y-104890000D02*
X109460000Y-104890000D01*
X109460000Y-104890000D02*
X109460000Y-107750000D01*
%TO.C,R7*%
X111022936Y-99265000D02*
X111477064Y-99265000D01*
X111022936Y-100735000D02*
X111477064Y-100735000D01*
%TO.C,R6*%
X111477064Y-97265000D02*
X111022936Y-97265000D01*
X111477064Y-98735000D02*
X111022936Y-98735000D01*
%TO.C,C3*%
X110988748Y-102735000D02*
X111511252Y-102735000D01*
X110988748Y-101265000D02*
X111511252Y-101265000D01*
%TO.C,D2*%
X106960000Y-92250000D02*
X106960000Y-95110000D01*
X105040000Y-95110000D02*
X105040000Y-92250000D01*
X106960000Y-95110000D02*
X105040000Y-95110000D01*
%TO.C,D1*%
X109460000Y-95110000D02*
X107540000Y-95110000D01*
X107540000Y-95110000D02*
X107540000Y-92250000D01*
X109460000Y-92250000D02*
X109460000Y-95110000D01*
%TD*%
M02*
