M48
; DRILL file {KiCad (6.0.7)} date Wed Oct 12 10:01:21 2022
; FORMAT={-:-/ absolute / inch / decimal}
; #@! TF.CreationDate,2022-10-12T10:01:21-04:00
; #@! TF.GenerationSoftware,Kicad,Pcbnew,(6.0.7)
; #@! TF.FileFunction,Plated,1,2,PTH
FMAT,2
INCH
; #@! TA.AperFunction,Plated,PTH,ViaDrill
T1C0.0118
; #@! TA.AperFunction,Plated,PTH,ViaDrill
T2C0.0157
; #@! TA.AperFunction,Plated,PTH,ComponentDrill
T3C0.0217
; #@! TA.AperFunction,Plated,PTH,ComponentDrill
T4C0.0335
; #@! TA.AperFunction,Plated,PTH,ComponentDrill
T5C0.0354
; #@! TA.AperFunction,Plated,PTH,ComponentDrill
T6C0.0394
; #@! TA.AperFunction,Plated,PTH,ComponentDrill
T7C0.0866
%
G90
G05
T1
X3.9862Y-3.5138
X3.9862Y-4.3602
X4.0256Y-3.5138
X4.0256Y-4.3602
X4.065Y-3.5138
X4.065Y-4.3602
X4.1043Y-3.5138
X4.1043Y-4.3602
X4.1437Y-3.5138
X4.1437Y-4.3602
X4.1831Y-3.5138
X4.1831Y-4.3602
X4.2224Y-3.5138
X4.2224Y-4.3602
X4.2618Y-3.5138
X4.2618Y-4.3602
X4.3012Y-3.5138
X4.3012Y-4.3602
X4.3406Y-3.5138
X4.3406Y-4.3602
X4.3799Y-3.5138
X4.3799Y-4.3602
X4.4193Y-3.5138
X4.4193Y-4.3602
X4.4587Y-3.5138
X4.4587Y-4.3602
X4.498Y-3.5138
X4.498Y-4.3602
X4.5276Y-3.8091
X4.5374Y-3.5138
X4.5374Y-4.3602
X4.5768Y-3.5138
X4.5768Y-4.3602
X4.6161Y-3.5138
X4.6161Y-4.3602
X4.6555Y-3.5138
X4.6555Y-4.3602
X4.6949Y-3.5138
X4.6949Y-4.3602
X4.7146Y-3.878
X4.7343Y-3.5138
X4.7343Y-4.3602
X4.7736Y-3.5138
X4.7736Y-4.3602
X4.813Y-3.5138
X4.813Y-4.3602
X4.8228Y-3.9469
X4.8524Y-3.5138
X4.8524Y-4.3602
X4.8917Y-3.5138
X4.8917Y-4.3602
X4.9016Y-3.8386
X4.9311Y-3.5138
X4.9311Y-4.3602
X4.9606Y-4.0551
X4.9606Y-4.1339
X4.9705Y-3.5138
X4.9705Y-4.3602
X5.0Y-4.0551
X5.0Y-4.1339
X5.0098Y-3.5138
X5.0098Y-3.8386
X5.0098Y-4.3602
X5.0295Y-4.1929
X5.0394Y-3.6516
X5.0394Y-3.7303
X5.0394Y-4.0551
X5.0394Y-4.1339
X5.0492Y-3.5138
X5.0492Y-4.3602
X5.0689Y-3.622
X5.0689Y-3.7598
X5.0787Y-4.0551
X5.0886Y-3.5138
X5.0886Y-4.3602
X5.0984Y-3.6516
X5.0984Y-3.7303
X5.1181Y-3.8386
X5.1181Y-4.0551
X5.128Y-3.5138
X5.128Y-4.3602
X5.1575Y-3.8386
X5.1673Y-3.5138
X5.1673Y-4.3602
X5.2067Y-3.5138
X5.2067Y-4.3602
X5.2461Y-3.5138
X5.2461Y-4.3602
X5.2559Y-4.0846
X5.2854Y-3.5138
X5.2854Y-4.3602
X5.2953Y-4.0846
X5.315Y-3.8091
X5.3248Y-3.5138
X5.3248Y-4.3602
X5.3346Y-4.0846
X5.3543Y-3.6909
X5.3642Y-3.5138
X5.3642Y-4.3602
X5.374Y-4.0846
X5.3937Y-3.6909
X5.4035Y-3.5138
X5.4035Y-4.3602
X5.4134Y-4.0846
X5.4331Y-3.6516
X5.4429Y-3.5138
X5.4429Y-3.7697
X5.4429Y-4.3602
X5.4528Y-4.0453
X5.4528Y-4.0846
X5.4724Y-3.6516
X5.4823Y-3.5138
X5.4823Y-4.3602
X5.4921Y-4.0846
X5.502Y-3.8484
X5.5217Y-3.5138
X5.5217Y-4.3602
X5.561Y-3.5138
X5.561Y-4.3602
X5.5709Y-3.8681
X5.5906Y-4.0945
X5.6004Y-3.5138
X5.6004Y-4.3602
X5.6102Y-4.1437
X5.6102Y-4.1831
X5.6398Y-3.5138
X5.6398Y-4.3602
X5.6791Y-3.5138
X5.6791Y-4.3602
X5.7185Y-3.5138
X5.7185Y-4.3602
X5.7579Y-3.5138
X5.7579Y-4.3602
X5.7972Y-3.5138
X5.7972Y-4.3602
X5.8366Y-3.5138
X5.8366Y-4.3602
X5.876Y-3.5138
X5.876Y-4.3602
X5.9154Y-3.5138
X5.9154Y-4.3602
X5.9547Y-3.5138
X5.9547Y-4.3602
X5.9941Y-3.5138
X5.9941Y-4.3602
X6.0335Y-3.5138
X6.0335Y-4.3602
X6.0433Y-3.9272
X6.0531Y-3.75
X6.0728Y-3.5138
X6.0728Y-4.3602
X6.0925Y-3.8976
X6.1122Y-3.5138
X6.1122Y-4.3602
X6.1516Y-3.5138
X6.1516Y-4.3602
X6.1909Y-3.5138
X6.1909Y-4.3602
X6.2234Y-4.0806
X6.2303Y-3.5138
X6.2303Y-3.9961
X6.2303Y-4.3602
X6.2598Y-3.9665
X6.2697Y-3.5138
X6.2697Y-4.3602
X6.3091Y-3.5138
X6.3091Y-4.3602
X6.3484Y-3.5138
X6.3484Y-4.3602
X6.378Y-3.8287
X6.3878Y-3.5138
X6.3878Y-4.3602
X6.3976Y-3.7992
X6.4173Y-3.8583
X6.4272Y-3.5138
X6.4272Y-4.3602
X6.4567Y-3.8583
X6.4567Y-3.8976
X6.4567Y-3.937
X6.4665Y-3.5138
X6.4665Y-4.3602
X6.5059Y-3.5138
X6.5059Y-4.3602
X6.5453Y-3.5138
X6.5453Y-4.3602
X6.5846Y-3.5138
X6.5846Y-4.3602
X6.624Y-3.5138
X6.624Y-4.3602
X6.6634Y-3.5138
X6.6634Y-4.3602
X6.7028Y-3.5138
X6.7028Y-4.3602
X6.7421Y-3.5138
X6.7421Y-4.3602
X6.7815Y-3.5138
X6.7815Y-4.3602
X6.8209Y-3.5138
X6.8209Y-4.3602
X6.8602Y-3.5138
X6.8602Y-4.3602
X6.8996Y-3.5138
X6.8996Y-4.3602
X6.939Y-3.5138
X6.939Y-4.3602
X6.9783Y-3.5138
X6.9783Y-4.3602
X7.0177Y-3.5138
X7.0177Y-4.3602
T2
X6.0364Y-3.8416
T5
X4.1654Y-3.8031
X4.1654Y-3.8858
X4.1654Y-3.9882
X4.1654Y-4.0709
X4.2638Y-3.8031
X4.2638Y-4.0709
T6
X5.8234Y-4.252
X5.9234Y-4.252
X6.0234Y-4.252
X6.1234Y-4.252
X6.2234Y-4.252
T7
X4.0472Y-3.6713
X4.0472Y-4.2028
T3
G00X7.0028Y-3.7846
M15
G01X7.0283Y-3.7846
M16
G05
G00X7.0028Y-4.0898
M15
G01X7.0283Y-4.0898
M16
G05
T4
G00X6.8551Y-3.7906
M15
G01X6.8768Y-3.7906
M16
G05
G00X6.8551Y-4.0839
M15
G01X6.8768Y-4.0839
M16
G05
T0
M30
