%TF.GenerationSoftware,KiCad,Pcbnew,(6.0.7)*%
%TF.CreationDate,2022-10-12T10:01:19-04:00*%
%TF.ProjectId,minirib-usb,6d696e69-7269-4622-9d75-73622e6b6963,C*%
%TF.SameCoordinates,Original*%
%TF.FileFunction,Copper,L2,Bot*%
%TF.FilePolarity,Positive*%
%FSLAX46Y46*%
G04 Gerber Fmt 4.6, Leading zero omitted, Abs format (unit mm)*
G04 Created by KiCad (PCBNEW (6.0.7)) date 2022-10-12 10:01:19*
%MOMM*%
%LPD*%
G01*
G04 APERTURE LIST*
G04 Aperture macros list*
%AMRoundRect*
0 Rectangle with rounded corners*
0 $1 Rounding radius*
0 $2 $3 $4 $5 $6 $7 $8 $9 X,Y pos of 4 corners*
0 Add a 4 corners polygon primitive as box body*
4,1,4,$2,$3,$4,$5,$6,$7,$8,$9,$2,$3,0*
0 Add four circle primitives for the rounded corners*
1,1,$1+$1,$2,$3*
1,1,$1+$1,$4,$5*
1,1,$1+$1,$6,$7*
1,1,$1+$1,$8,$9*
0 Add four rect primitives between the rounded corners*
20,1,$1+$1,$2,$3,$4,$5,0*
20,1,$1+$1,$4,$5,$6,$7,0*
20,1,$1+$1,$6,$7,$8,$9,0*
20,1,$1+$1,$8,$9,$2,$3,0*%
G04 Aperture macros list end*
%TA.AperFunction,ComponentPad*%
%ADD10R,1.700000X1.700000*%
%TD*%
%TA.AperFunction,ComponentPad*%
%ADD11O,1.700000X1.700000*%
%TD*%
%TA.AperFunction,ComponentPad*%
%ADD12O,1.800000X1.150000*%
%TD*%
%TA.AperFunction,ComponentPad*%
%ADD13O,2.000000X1.450000*%
%TD*%
%TA.AperFunction,ComponentPad*%
%ADD14C,1.400000*%
%TD*%
%TA.AperFunction,ComponentPad*%
%ADD15C,3.000000*%
%TD*%
%TA.AperFunction,SMDPad,CuDef*%
%ADD16RoundRect,0.250000X-0.450000X0.325000X-0.450000X-0.325000X0.450000X-0.325000X0.450000X0.325000X0*%
%TD*%
%TA.AperFunction,SMDPad,CuDef*%
%ADD17RoundRect,0.250000X-0.350000X-0.450000X0.350000X-0.450000X0.350000X0.450000X-0.350000X0.450000X0*%
%TD*%
%TA.AperFunction,SMDPad,CuDef*%
%ADD18RoundRect,0.250000X0.350000X0.450000X-0.350000X0.450000X-0.350000X-0.450000X0.350000X-0.450000X0*%
%TD*%
%TA.AperFunction,SMDPad,CuDef*%
%ADD19RoundRect,0.250000X-0.337500X-0.475000X0.337500X-0.475000X0.337500X0.475000X-0.337500X0.475000X0*%
%TD*%
%TA.AperFunction,SMDPad,CuDef*%
%ADD20RoundRect,0.250000X0.450000X-0.325000X0.450000X0.325000X-0.450000X0.325000X-0.450000X-0.325000X0*%
%TD*%
%TA.AperFunction,ViaPad*%
%ADD21C,0.600000*%
%TD*%
%TA.AperFunction,ViaPad*%
%ADD22C,0.800000*%
%TD*%
%TA.AperFunction,Conductor*%
%ADD23C,0.350000*%
%TD*%
%TA.AperFunction,Conductor*%
%ADD24C,0.450000*%
%TD*%
G04 APERTURE END LIST*
D10*
%TO.P,J3,1,Pin_1*%
%TO.N,TXD*%
X158075000Y-108000000D03*
D11*
%TO.P,J3,2,Pin_2*%
%TO.N,RXD*%
X155535000Y-108000000D03*
%TO.P,J3,3,Pin_3*%
%TO.N,DTR*%
X152995000Y-108000000D03*
%TO.P,J3,4,Pin_4*%
%TO.N,CTS*%
X150455000Y-108000000D03*
%TO.P,J3,5,Pin_5*%
%TO.N,GND*%
X147915000Y-108000000D03*
%TD*%
D12*
%TO.P,J1,6,Shield*%
%TO.N,GND*%
X178195000Y-96130000D03*
D13*
X174395000Y-96280000D03*
D12*
X178195000Y-103880000D03*
D13*
X174395000Y-103730000D03*
%TD*%
D14*
%TO.P,J2,1*%
%TO.N,GND*%
X105800000Y-101300000D03*
%TO.P,J2,2*%
%TO.N,BIAS*%
X105800000Y-98700000D03*
%TO.P,J2,3*%
%TO.N,BUSY*%
X105800000Y-103400000D03*
%TO.P,J2,4*%
%TO.N,~{BUSY}*%
X105800000Y-96600000D03*
%TO.P,J2,5*%
%TO.N,BUS+*%
X108300000Y-103400000D03*
%TO.P,J2,6*%
%TO.N,BUS-*%
X108300000Y-96600000D03*
D15*
%TO.P,J2,SH*%
%TO.N,GND*%
X102800000Y-106750000D03*
X102800000Y-93250000D03*
%TD*%
D16*
%TO.P,D3,1,A1*%
%TO.N,BUSY*%
X106000000Y-105725000D03*
%TO.P,D3,2,A2*%
%TO.N,GND*%
X106000000Y-107775000D03*
%TD*%
%TO.P,D4,1,A1*%
%TO.N,BUS+*%
X108500000Y-105725000D03*
%TO.P,D4,2,A2*%
%TO.N,GND*%
X108500000Y-107775000D03*
%TD*%
D17*
%TO.P,R7,1*%
%TO.N,BIAS*%
X110250000Y-100000000D03*
%TO.P,R7,2*%
%TO.N,GND*%
X112250000Y-100000000D03*
%TD*%
D18*
%TO.P,R6,1*%
%TO.N,+5V*%
X112250000Y-98000000D03*
%TO.P,R6,2*%
%TO.N,BIAS*%
X110250000Y-98000000D03*
%TD*%
D19*
%TO.P,C3,1*%
%TO.N,BIAS*%
X110212500Y-102000000D03*
%TO.P,C3,2*%
%TO.N,GND*%
X112287500Y-102000000D03*
%TD*%
D20*
%TO.P,D2,1,A1*%
%TO.N,~{BUSY}*%
X106000000Y-94275000D03*
%TO.P,D2,2,A2*%
%TO.N,GND*%
X106000000Y-92225000D03*
%TD*%
%TO.P,D1,1,A1*%
%TO.N,BUS-*%
X108500000Y-94275000D03*
%TO.P,D1,2,A2*%
%TO.N,GND*%
X108500000Y-92225000D03*
%TD*%
D21*
%TO.N,GND*%
X144250000Y-110750000D03*
X173250000Y-110750000D03*
X171250000Y-89250000D03*
X142250000Y-110750000D03*
X137500000Y-103750000D03*
X122250000Y-89250000D03*
X148250000Y-110750000D03*
X143250000Y-110750000D03*
X142250000Y-89250000D03*
X124250000Y-110750000D03*
X170250000Y-89250000D03*
X178250000Y-110750000D03*
X123250000Y-110750000D03*
X111250000Y-89250000D03*
X158250000Y-110750000D03*
X128000000Y-92750000D03*
X105250000Y-110750000D03*
X125250000Y-89250000D03*
X174250000Y-110750000D03*
X156250000Y-89250000D03*
X113250000Y-89250000D03*
X121250000Y-110750000D03*
X142500000Y-105250000D03*
X161250000Y-110750000D03*
X109250000Y-89250000D03*
X140250000Y-110750000D03*
X177250000Y-110750000D03*
X116250000Y-89250000D03*
X173250000Y-89250000D03*
X106250000Y-89250000D03*
X101250000Y-89250000D03*
X126000000Y-103000000D03*
X172250000Y-89250000D03*
X120250000Y-110750000D03*
X139250000Y-110750000D03*
X144250000Y-89250000D03*
X151250000Y-110750000D03*
X168250000Y-89250000D03*
X126250000Y-89250000D03*
X153250000Y-89250000D03*
X102250000Y-89250000D03*
X134250000Y-89250000D03*
X167250000Y-110750000D03*
X177250000Y-89250000D03*
X165250000Y-110750000D03*
X132250000Y-89250000D03*
X119250000Y-110750000D03*
X129000000Y-103000000D03*
X169250000Y-89250000D03*
X108250000Y-110750000D03*
X128250000Y-89250000D03*
X121250000Y-89250000D03*
X159250000Y-89250000D03*
X123250000Y-89250000D03*
X148250000Y-89250000D03*
X176250000Y-110750000D03*
X136500000Y-103750000D03*
X178250000Y-89250000D03*
X137250000Y-89250000D03*
X135500000Y-103750000D03*
X131000000Y-97500000D03*
X133250000Y-89250000D03*
X138500000Y-102750000D03*
X105250000Y-89250000D03*
X115250000Y-89250000D03*
X141250000Y-110750000D03*
X110250000Y-110750000D03*
X118250000Y-89250000D03*
X114250000Y-89250000D03*
X128750000Y-95500000D03*
X136250000Y-110750000D03*
X104250000Y-89250000D03*
X168250000Y-110750000D03*
X116250000Y-110750000D03*
X129250000Y-110750000D03*
X143250000Y-89250000D03*
X159250000Y-110750000D03*
X155250000Y-110750000D03*
X161250000Y-89250000D03*
X155250000Y-89250000D03*
X166250000Y-89250000D03*
X164000000Y-99000000D03*
X147250000Y-89250000D03*
X136250000Y-89250000D03*
X176250000Y-89250000D03*
X127000000Y-103000000D03*
X151250000Y-89250000D03*
X128750000Y-92000000D03*
X107250000Y-110750000D03*
X172250000Y-110750000D03*
X126250000Y-110750000D03*
X147250000Y-110750000D03*
X136000000Y-93750000D03*
X124250000Y-89250000D03*
X169250000Y-110750000D03*
X138000000Y-92750000D03*
X133500000Y-103750000D03*
X103250000Y-89250000D03*
X117250000Y-110750000D03*
X164250000Y-89250000D03*
X135250000Y-110750000D03*
X129500000Y-94750000D03*
X157250000Y-110750000D03*
X114250000Y-110750000D03*
X133250000Y-110750000D03*
X130250000Y-89250000D03*
X104250000Y-110750000D03*
X149250000Y-89250000D03*
X131250000Y-89250000D03*
X145250000Y-110750000D03*
X160250000Y-89250000D03*
X112250000Y-89250000D03*
X111250000Y-110750000D03*
X152250000Y-110750000D03*
X164250000Y-110750000D03*
X141250000Y-89250000D03*
X137000000Y-93750000D03*
X137250000Y-110750000D03*
X128250000Y-110750000D03*
X149250000Y-110750000D03*
X129250000Y-89250000D03*
X135250000Y-89250000D03*
X130000000Y-97500000D03*
X175250000Y-89250000D03*
X150250000Y-110750000D03*
X138500000Y-103750000D03*
X131250000Y-110750000D03*
X156250000Y-110750000D03*
X128000000Y-94750000D03*
X112250000Y-110750000D03*
X175250000Y-110750000D03*
X160250000Y-110750000D03*
X162250000Y-89250000D03*
X138250000Y-110750000D03*
X138250000Y-89250000D03*
X130000000Y-103000000D03*
X134250000Y-110750000D03*
X150250000Y-89250000D03*
X142500000Y-106250000D03*
X127250000Y-97500000D03*
X159000000Y-100750000D03*
X139000000Y-92750000D03*
X120250000Y-89250000D03*
X108250000Y-89250000D03*
X107250000Y-89250000D03*
X139500000Y-103750000D03*
X118250000Y-110750000D03*
X134500000Y-103750000D03*
X129500000Y-92750000D03*
X171250000Y-110750000D03*
X146250000Y-110750000D03*
X162250000Y-110750000D03*
X128000000Y-105000000D03*
X163000000Y-98000000D03*
X153250000Y-110750000D03*
X164000000Y-98000000D03*
X127000000Y-105000000D03*
X101250000Y-110750000D03*
X124500000Y-97500000D03*
X117250000Y-89250000D03*
X140250000Y-89250000D03*
X130250000Y-110750000D03*
X154250000Y-89250000D03*
X165250000Y-89250000D03*
X115250000Y-110750000D03*
X122250000Y-110750000D03*
X132250000Y-110750000D03*
X157250000Y-89250000D03*
X170250000Y-110750000D03*
X164000000Y-100000000D03*
X146250000Y-89250000D03*
X139250000Y-89250000D03*
X102250000Y-110750000D03*
X167250000Y-89250000D03*
X119250000Y-89250000D03*
X158250000Y-89250000D03*
X127250000Y-110750000D03*
X166250000Y-110750000D03*
X106250000Y-110750000D03*
X103250000Y-110750000D03*
X110250000Y-89250000D03*
X145250000Y-89250000D03*
X152250000Y-89250000D03*
X113250000Y-110750000D03*
X154250000Y-110750000D03*
X127250000Y-89250000D03*
X163250000Y-89250000D03*
X126000000Y-105000000D03*
X125250000Y-110750000D03*
X163250000Y-110750000D03*
X109250000Y-110750000D03*
X174250000Y-89250000D03*
X128000000Y-103000000D03*
%TO.N,+5V*%
X135000000Y-96750000D03*
X153750000Y-95250000D03*
X115000000Y-96750000D03*
X122500000Y-100250000D03*
%TO.N,TXD*%
X119750000Y-98500000D03*
X153500000Y-99750000D03*
D22*
%TO.N,RXD*%
X153325489Y-97575489D03*
D21*
X139750000Y-97750000D03*
X154750000Y-99000000D03*
%TO.N,BUSY*%
X138250000Y-95750000D03*
X127750000Y-106500000D03*
%TO.N,DTR*%
X142000000Y-104000000D03*
X141500000Y-98250000D03*
%TO.N,~{DTR_TTL}*%
X158075500Y-103648056D03*
X162000000Y-97250000D03*
%TO.N,TXD_TTL*%
X162500000Y-96500000D03*
X158250000Y-101500000D03*
%TD*%
D23*
%TO.N,+5V*%
X152250000Y-96750000D02*
X153750000Y-95250000D01*
D24*
X113750000Y-99750000D02*
X114250000Y-100250000D01*
X113750000Y-98000000D02*
X115000000Y-96750000D01*
X113750000Y-98000000D02*
X113750000Y-99750000D01*
D23*
X135000000Y-96750000D02*
X152250000Y-96750000D01*
D24*
X114250000Y-100250000D02*
X122500000Y-100250000D01*
X112250000Y-98000000D02*
X113750000Y-98000000D01*
D23*
%TO.N,BIAS*%
X110250000Y-100000000D02*
X110250000Y-98000000D01*
X109550000Y-98700000D02*
X110250000Y-98000000D01*
X105800000Y-98700000D02*
X109550000Y-98700000D01*
X110212500Y-100037500D02*
X110250000Y-100000000D01*
X110212500Y-102000000D02*
X110212500Y-100037500D01*
%TO.N,TXD*%
X127000000Y-107750000D02*
X125000000Y-105750000D01*
X125000000Y-105750000D02*
X125000000Y-100750000D01*
X122750000Y-98500000D02*
X119750000Y-98500000D01*
X153500000Y-99750000D02*
X145500000Y-107750000D01*
X145500000Y-107750000D02*
X127000000Y-107750000D01*
X125000000Y-100750000D02*
X122750000Y-98500000D01*
%TO.N,RXD*%
X139750000Y-97750000D02*
X139924511Y-97575489D01*
X153325489Y-97575489D02*
X154750000Y-99000000D01*
X139924511Y-97575489D02*
X153325489Y-97575489D01*
%TO.N,BUS-*%
X108300000Y-94475000D02*
X108500000Y-94275000D01*
X108300000Y-96600000D02*
X108300000Y-94475000D01*
%TO.N,~{BUSY}*%
X105800000Y-94475000D02*
X106000000Y-94275000D01*
X105800000Y-96600000D02*
X105800000Y-94475000D01*
%TO.N,BUSY*%
X132500000Y-101750000D02*
X127750000Y-106500000D01*
X138250000Y-95750000D02*
X134500000Y-95750000D01*
X134500000Y-95750000D02*
X132500000Y-97750000D01*
X132500000Y-97750000D02*
X132500000Y-101750000D01*
X106000000Y-105725000D02*
X106000000Y-103600000D01*
X106000000Y-103600000D02*
X105800000Y-103400000D01*
%TO.N,BUS+*%
X108500000Y-105725000D02*
X108500000Y-103600000D01*
X108500000Y-103600000D02*
X108300000Y-103400000D01*
%TO.N,DTR*%
X142000000Y-98750000D02*
X142000000Y-104000000D01*
X141500000Y-98250000D02*
X142000000Y-98750000D01*
%TO.N,~{DTR_TTL}*%
X162000000Y-97250000D02*
X162000000Y-99723556D01*
X162000000Y-99723556D02*
X158075500Y-103648056D01*
%TO.N,TXD_TTL*%
X158250000Y-98000000D02*
X159750000Y-96500000D01*
X158250000Y-101500000D02*
X158250000Y-98000000D01*
X159750000Y-96500000D02*
X162500000Y-96500000D01*
%TD*%
%TA.AperFunction,Conductor*%
%TO.N,GND*%
G36*
X179191621Y-88770502D02*
G01*
X179238114Y-88824158D01*
X179249500Y-88876500D01*
X179249500Y-95080541D01*
X179229498Y-95148662D01*
X179175842Y-95195155D01*
X179105568Y-95205259D01*
X179055152Y-95186393D01*
X179025702Y-95167377D01*
X179015094Y-95161879D01*
X178834551Y-95089117D01*
X178823102Y-95085725D01*
X178630609Y-95048134D01*
X178621799Y-95047064D01*
X178619172Y-95047000D01*
X178467115Y-95047000D01*
X178451876Y-95051475D01*
X178450671Y-95052865D01*
X178449000Y-95060548D01*
X178449000Y-97194885D01*
X178453475Y-97210124D01*
X178454865Y-97211329D01*
X178462548Y-97213000D01*
X178568637Y-97213000D01*
X178574613Y-97212715D01*
X178719745Y-97198868D01*
X178731480Y-97196609D01*
X178918268Y-97141812D01*
X178929356Y-97137377D01*
X179065808Y-97067099D01*
X179135527Y-97053690D01*
X179201427Y-97080103D01*
X179242586Y-97137951D01*
X179249500Y-97179115D01*
X179249500Y-102830541D01*
X179229498Y-102898662D01*
X179175842Y-102945155D01*
X179105568Y-102955259D01*
X179055152Y-102936393D01*
X179025702Y-102917377D01*
X179015094Y-102911879D01*
X178834551Y-102839117D01*
X178823102Y-102835725D01*
X178630609Y-102798134D01*
X178621799Y-102797064D01*
X178619172Y-102797000D01*
X178467115Y-102797000D01*
X178451876Y-102801475D01*
X178450671Y-102802865D01*
X178449000Y-102810548D01*
X178449000Y-104944885D01*
X178453475Y-104960124D01*
X178454865Y-104961329D01*
X178462548Y-104963000D01*
X178568637Y-104963000D01*
X178574613Y-104962715D01*
X178719745Y-104948868D01*
X178731480Y-104946609D01*
X178918268Y-104891812D01*
X178929356Y-104887377D01*
X179065808Y-104817099D01*
X179135527Y-104803690D01*
X179201427Y-104830103D01*
X179242586Y-104887951D01*
X179249500Y-104929115D01*
X179249500Y-111123500D01*
X179229498Y-111191621D01*
X179175842Y-111238114D01*
X179123500Y-111249500D01*
X100376500Y-111249500D01*
X100308379Y-111229498D01*
X100261886Y-111175842D01*
X100250500Y-111123500D01*
X100250500Y-108339654D01*
X101575618Y-108339654D01*
X101582673Y-108349627D01*
X101613679Y-108375551D01*
X101620598Y-108380579D01*
X101845272Y-108521515D01*
X101852807Y-108525556D01*
X102094520Y-108634694D01*
X102102551Y-108637680D01*
X102356832Y-108713002D01*
X102365184Y-108714869D01*
X102627340Y-108754984D01*
X102635874Y-108755700D01*
X102901045Y-108759867D01*
X102909596Y-108759418D01*
X103172883Y-108727557D01*
X103181284Y-108725955D01*
X103437824Y-108658653D01*
X103445926Y-108655926D01*
X103690949Y-108554434D01*
X103698617Y-108550628D01*
X103927598Y-108416822D01*
X103934679Y-108412009D01*
X104014655Y-108349301D01*
X104023125Y-108337442D01*
X104016608Y-108325818D01*
X103837885Y-108147095D01*
X104792001Y-108147095D01*
X104792338Y-108153614D01*
X104802257Y-108249206D01*
X104805149Y-108262600D01*
X104856588Y-108416784D01*
X104862761Y-108429962D01*
X104948063Y-108567807D01*
X104957099Y-108579208D01*
X105071829Y-108693739D01*
X105083240Y-108702751D01*
X105221243Y-108787816D01*
X105234424Y-108793963D01*
X105388710Y-108845138D01*
X105402086Y-108848005D01*
X105496438Y-108857672D01*
X105502854Y-108858000D01*
X105727885Y-108858000D01*
X105743124Y-108853525D01*
X105744329Y-108852135D01*
X105746000Y-108844452D01*
X105746000Y-108047115D01*
X105741525Y-108031876D01*
X105740135Y-108030671D01*
X105732452Y-108029000D01*
X104810116Y-108029000D01*
X104794877Y-108033475D01*
X104793672Y-108034865D01*
X104792001Y-108042548D01*
X104792001Y-108147095D01*
X103837885Y-108147095D01*
X102812812Y-107122022D01*
X102798868Y-107114408D01*
X102797035Y-107114539D01*
X102790420Y-107118790D01*
X101582910Y-108326300D01*
X101575618Y-108339654D01*
X100250500Y-108339654D01*
X100250500Y-106733204D01*
X100787665Y-106733204D01*
X100802931Y-106997962D01*
X100804005Y-107006470D01*
X100855065Y-107266722D01*
X100857276Y-107274974D01*
X100943184Y-107525894D01*
X100946499Y-107533779D01*
X101065664Y-107770713D01*
X101070020Y-107778079D01*
X101199347Y-107966250D01*
X101209601Y-107974594D01*
X101223342Y-107967448D01*
X102427978Y-106762812D01*
X102434356Y-106751132D01*
X103164408Y-106751132D01*
X103164539Y-106752965D01*
X103168790Y-106759580D01*
X104375730Y-107966520D01*
X104387939Y-107973187D01*
X104399439Y-107964497D01*
X104496831Y-107831913D01*
X104501418Y-107824685D01*
X104627969Y-107591609D01*
X104631225Y-107584496D01*
X104677769Y-107530885D01*
X104745909Y-107510948D01*
X104772569Y-107513827D01*
X104805545Y-107521000D01*
X106128000Y-107521000D01*
X106196121Y-107541002D01*
X106242614Y-107594658D01*
X106254000Y-107647000D01*
X106254000Y-108839884D01*
X106258475Y-108855123D01*
X106259865Y-108856328D01*
X106267548Y-108857999D01*
X106497095Y-108857999D01*
X106503614Y-108857662D01*
X106599206Y-108847743D01*
X106612600Y-108844851D01*
X106766784Y-108793412D01*
X106779962Y-108787239D01*
X106917807Y-108701937D01*
X106929208Y-108692901D01*
X107043739Y-108578171D01*
X107052751Y-108566760D01*
X107141658Y-108422525D01*
X107143877Y-108423893D01*
X107182732Y-108379763D01*
X107251009Y-108360301D01*
X107318970Y-108380842D01*
X107357146Y-108424821D01*
X107358906Y-108423732D01*
X107448063Y-108567807D01*
X107457099Y-108579208D01*
X107571829Y-108693739D01*
X107583240Y-108702751D01*
X107721243Y-108787816D01*
X107734424Y-108793963D01*
X107888710Y-108845138D01*
X107902086Y-108848005D01*
X107996438Y-108857672D01*
X108002854Y-108858000D01*
X108227885Y-108858000D01*
X108243124Y-108853525D01*
X108244329Y-108852135D01*
X108246000Y-108844452D01*
X108246000Y-108839884D01*
X108754000Y-108839884D01*
X108758475Y-108855123D01*
X108759865Y-108856328D01*
X108767548Y-108857999D01*
X108997095Y-108857999D01*
X109003614Y-108857662D01*
X109099206Y-108847743D01*
X109112600Y-108844851D01*
X109266784Y-108793412D01*
X109279962Y-108787239D01*
X109417807Y-108701937D01*
X109429208Y-108692901D01*
X109543739Y-108578171D01*
X109552751Y-108566760D01*
X109637816Y-108428757D01*
X109643963Y-108415576D01*
X109692924Y-108267966D01*
X146583257Y-108267966D01*
X146613565Y-108402446D01*
X146616645Y-108412275D01*
X146696770Y-108609603D01*
X146701413Y-108618794D01*
X146812694Y-108800388D01*
X146818777Y-108808699D01*
X146958213Y-108969667D01*
X146965580Y-108976883D01*
X147129434Y-109112916D01*
X147137881Y-109118831D01*
X147321756Y-109226279D01*
X147331042Y-109230729D01*
X147530001Y-109306703D01*
X147539899Y-109309579D01*
X147643250Y-109330606D01*
X147657299Y-109329410D01*
X147661000Y-109319065D01*
X147661000Y-109318517D01*
X148169000Y-109318517D01*
X148173064Y-109332359D01*
X148186478Y-109334393D01*
X148193184Y-109333534D01*
X148203262Y-109331392D01*
X148407255Y-109270191D01*
X148416842Y-109266433D01*
X148608095Y-109172739D01*
X148616945Y-109167464D01*
X148790328Y-109043792D01*
X148798200Y-109037139D01*
X148949052Y-108886812D01*
X148955730Y-108878965D01*
X149080003Y-108706020D01*
X149085313Y-108697183D01*
X149179670Y-108506267D01*
X149183469Y-108496672D01*
X149201815Y-108436289D01*
X149240756Y-108376925D01*
X149305610Y-108348038D01*
X149375786Y-108358799D01*
X149429004Y-108405793D01*
X149436799Y-108420166D01*
X149497856Y-108552607D01*
X149501189Y-108557323D01*
X149603967Y-108702751D01*
X149614588Y-108717780D01*
X149759466Y-108858913D01*
X149764270Y-108862123D01*
X149831651Y-108907146D01*
X149927637Y-108971282D01*
X149932940Y-108973560D01*
X149932943Y-108973562D01*
X150096409Y-109043792D01*
X150113470Y-109051122D01*
X150310740Y-109095760D01*
X150316509Y-109095987D01*
X150316512Y-109095987D01*
X150392683Y-109098979D01*
X150512842Y-109103700D01*
X150599132Y-109091189D01*
X150707286Y-109075508D01*
X150707291Y-109075507D01*
X150713007Y-109074678D01*
X150718479Y-109072820D01*
X150718481Y-109072820D01*
X150899067Y-109011519D01*
X150899069Y-109011518D01*
X150904531Y-109009664D01*
X151081001Y-108910837D01*
X151143433Y-108858913D01*
X151232073Y-108785191D01*
X151236505Y-108781505D01*
X151310197Y-108692901D01*
X151362146Y-108630439D01*
X151365837Y-108626001D01*
X151464664Y-108449531D01*
X151473832Y-108422525D01*
X151527820Y-108263481D01*
X151527820Y-108263479D01*
X151529678Y-108258007D01*
X151530507Y-108252291D01*
X151530508Y-108252286D01*
X151558167Y-108061516D01*
X151558700Y-108057842D01*
X151560215Y-108000000D01*
X151557557Y-107971069D01*
X151890164Y-107971069D01*
X151903392Y-108172894D01*
X151904815Y-108178496D01*
X151950606Y-108358799D01*
X151953178Y-108368928D01*
X152037856Y-108552607D01*
X152041189Y-108557323D01*
X152143967Y-108702751D01*
X152154588Y-108717780D01*
X152299466Y-108858913D01*
X152304270Y-108862123D01*
X152371651Y-108907146D01*
X152467637Y-108971282D01*
X152472940Y-108973560D01*
X152472943Y-108973562D01*
X152636409Y-109043792D01*
X152653470Y-109051122D01*
X152850740Y-109095760D01*
X152856509Y-109095987D01*
X152856512Y-109095987D01*
X152932683Y-109098979D01*
X153052842Y-109103700D01*
X153139132Y-109091189D01*
X153247286Y-109075508D01*
X153247291Y-109075507D01*
X153253007Y-109074678D01*
X153258479Y-109072820D01*
X153258481Y-109072820D01*
X153439067Y-109011519D01*
X153439069Y-109011518D01*
X153444531Y-109009664D01*
X153621001Y-108910837D01*
X153683433Y-108858913D01*
X153772073Y-108785191D01*
X153776505Y-108781505D01*
X153850197Y-108692901D01*
X153902146Y-108630439D01*
X153905837Y-108626001D01*
X154004664Y-108449531D01*
X154013832Y-108422525D01*
X154067820Y-108263481D01*
X154067820Y-108263479D01*
X154069678Y-108258007D01*
X154070507Y-108252291D01*
X154070508Y-108252286D01*
X154098167Y-108061516D01*
X154098700Y-108057842D01*
X154100215Y-108000000D01*
X154097557Y-107971069D01*
X154430164Y-107971069D01*
X154443392Y-108172894D01*
X154444815Y-108178496D01*
X154490606Y-108358799D01*
X154493178Y-108368928D01*
X154577856Y-108552607D01*
X154581189Y-108557323D01*
X154683967Y-108702751D01*
X154694588Y-108717780D01*
X154839466Y-108858913D01*
X154844270Y-108862123D01*
X154911651Y-108907146D01*
X155007637Y-108971282D01*
X155012940Y-108973560D01*
X155012943Y-108973562D01*
X155176409Y-109043792D01*
X155193470Y-109051122D01*
X155390740Y-109095760D01*
X155396509Y-109095987D01*
X155396512Y-109095987D01*
X155472683Y-109098979D01*
X155592842Y-109103700D01*
X155679132Y-109091189D01*
X155787286Y-109075508D01*
X155787291Y-109075507D01*
X155793007Y-109074678D01*
X155798479Y-109072820D01*
X155798481Y-109072820D01*
X155979067Y-109011519D01*
X155979069Y-109011518D01*
X155984531Y-109009664D01*
X156161001Y-108910837D01*
X156204482Y-108874674D01*
X156974500Y-108874674D01*
X156989034Y-108947740D01*
X157044399Y-109030601D01*
X157127260Y-109085966D01*
X157200326Y-109100500D01*
X158949674Y-109100500D01*
X159022740Y-109085966D01*
X159105601Y-109030601D01*
X159160966Y-108947740D01*
X159175500Y-108874674D01*
X159175500Y-107125326D01*
X159160966Y-107052260D01*
X159151043Y-107037408D01*
X159114849Y-106983240D01*
X159105601Y-106969399D01*
X159022740Y-106914034D01*
X158949674Y-106899500D01*
X157200326Y-106899500D01*
X157127260Y-106914034D01*
X157044399Y-106969399D01*
X157035151Y-106983240D01*
X156998958Y-107037408D01*
X156989034Y-107052260D01*
X156974500Y-107125326D01*
X156974500Y-108874674D01*
X156204482Y-108874674D01*
X156223433Y-108858913D01*
X156312073Y-108785191D01*
X156316505Y-108781505D01*
X156390197Y-108692901D01*
X156442146Y-108630439D01*
X156445837Y-108626001D01*
X156544664Y-108449531D01*
X156553832Y-108422525D01*
X156607820Y-108263481D01*
X156607820Y-108263479D01*
X156609678Y-108258007D01*
X156610507Y-108252291D01*
X156610508Y-108252286D01*
X156638167Y-108061516D01*
X156638700Y-108057842D01*
X156640215Y-108000000D01*
X156621708Y-107798591D01*
X156566807Y-107603926D01*
X156477351Y-107422527D01*
X156459079Y-107398057D01*
X156359788Y-107265091D01*
X156359787Y-107265090D01*
X156356335Y-107260467D01*
X156333350Y-107239220D01*
X156212053Y-107127094D01*
X156212051Y-107127092D01*
X156207812Y-107123174D01*
X156180374Y-107105862D01*
X156041637Y-107018325D01*
X156036757Y-107015246D01*
X155848898Y-106940298D01*
X155650526Y-106900839D01*
X155644752Y-106900763D01*
X155644748Y-106900763D01*
X155542257Y-106899422D01*
X155448286Y-106898192D01*
X155442589Y-106899171D01*
X155442588Y-106899171D01*
X155254646Y-106931465D01*
X155254645Y-106931465D01*
X155248949Y-106932444D01*
X155059193Y-107002449D01*
X154885371Y-107105862D01*
X154733305Y-107239220D01*
X154608089Y-107398057D01*
X154513914Y-107577053D01*
X154453937Y-107770213D01*
X154430164Y-107971069D01*
X154097557Y-107971069D01*
X154081708Y-107798591D01*
X154026807Y-107603926D01*
X153937351Y-107422527D01*
X153919079Y-107398057D01*
X153819788Y-107265091D01*
X153819787Y-107265090D01*
X153816335Y-107260467D01*
X153793350Y-107239220D01*
X153672053Y-107127094D01*
X153672051Y-107127092D01*
X153667812Y-107123174D01*
X153640374Y-107105862D01*
X153501637Y-107018325D01*
X153496757Y-107015246D01*
X153308898Y-106940298D01*
X153110526Y-106900839D01*
X153104752Y-106900763D01*
X153104748Y-106900763D01*
X153002257Y-106899422D01*
X152908286Y-106898192D01*
X152902589Y-106899171D01*
X152902588Y-106899171D01*
X152714646Y-106931465D01*
X152714645Y-106931465D01*
X152708949Y-106932444D01*
X152519193Y-107002449D01*
X152345371Y-107105862D01*
X152193305Y-107239220D01*
X152068089Y-107398057D01*
X151973914Y-107577053D01*
X151913937Y-107770213D01*
X151890164Y-107971069D01*
X151557557Y-107971069D01*
X151541708Y-107798591D01*
X151486807Y-107603926D01*
X151397351Y-107422527D01*
X151379079Y-107398057D01*
X151279788Y-107265091D01*
X151279787Y-107265090D01*
X151276335Y-107260467D01*
X151253350Y-107239220D01*
X151132053Y-107127094D01*
X151132051Y-107127092D01*
X151127812Y-107123174D01*
X151100374Y-107105862D01*
X150961637Y-107018325D01*
X150956757Y-107015246D01*
X150768898Y-106940298D01*
X150570526Y-106900839D01*
X150564752Y-106900763D01*
X150564748Y-106900763D01*
X150462257Y-106899422D01*
X150368286Y-106898192D01*
X150362589Y-106899171D01*
X150362588Y-106899171D01*
X150174646Y-106931465D01*
X150174645Y-106931465D01*
X150168949Y-106932444D01*
X149979193Y-107002449D01*
X149805371Y-107105862D01*
X149653305Y-107239220D01*
X149528089Y-107398057D01*
X149525400Y-107403168D01*
X149525398Y-107403171D01*
X149434365Y-107576196D01*
X149384946Y-107627169D01*
X149315814Y-107643332D01*
X149248917Y-107619553D01*
X149205437Y-107560654D01*
X149204955Y-107560863D01*
X149204043Y-107558766D01*
X149203581Y-107558140D01*
X149202895Y-107556126D01*
X149117972Y-107360814D01*
X149113105Y-107351739D01*
X148997426Y-107172926D01*
X148991136Y-107164757D01*
X148847806Y-107007240D01*
X148840273Y-107000215D01*
X148673139Y-106868222D01*
X148664552Y-106862517D01*
X148478117Y-106759599D01*
X148468705Y-106755369D01*
X148267959Y-106684280D01*
X148257988Y-106681646D01*
X148186837Y-106668972D01*
X148173540Y-106670432D01*
X148169000Y-106684989D01*
X148169000Y-109318517D01*
X147661000Y-109318517D01*
X147661000Y-108272115D01*
X147656525Y-108256876D01*
X147655135Y-108255671D01*
X147647452Y-108254000D01*
X146598225Y-108254000D01*
X146584694Y-108257973D01*
X146583257Y-108267966D01*
X109692924Y-108267966D01*
X109695138Y-108261290D01*
X109698005Y-108247914D01*
X109707672Y-108153562D01*
X109708000Y-108147146D01*
X109708000Y-108047115D01*
X109703525Y-108031876D01*
X109702135Y-108030671D01*
X109694452Y-108029000D01*
X108772115Y-108029000D01*
X108756876Y-108033475D01*
X108755671Y-108034865D01*
X108754000Y-108042548D01*
X108754000Y-108839884D01*
X108246000Y-108839884D01*
X108246000Y-107647000D01*
X108266002Y-107578879D01*
X108319658Y-107532386D01*
X108372000Y-107521000D01*
X109689884Y-107521000D01*
X109705123Y-107516525D01*
X109706328Y-107515135D01*
X109707999Y-107507452D01*
X109707999Y-107402905D01*
X109707662Y-107396386D01*
X109697743Y-107300794D01*
X109694851Y-107287400D01*
X109643412Y-107133216D01*
X109637239Y-107120038D01*
X109551937Y-106982193D01*
X109542901Y-106970792D01*
X109428171Y-106856261D01*
X109416760Y-106847249D01*
X109278757Y-106762184D01*
X109265574Y-106756036D01*
X109194105Y-106732331D01*
X109135745Y-106691900D01*
X109108508Y-106626336D01*
X109121041Y-106556455D01*
X109169366Y-106504443D01*
X109176549Y-106500994D01*
X109176545Y-106500988D01*
X109184422Y-106496676D01*
X109192824Y-106493526D01*
X109200003Y-106488146D01*
X109200006Y-106488144D01*
X109300365Y-106412928D01*
X109307546Y-106407546D01*
X109329706Y-106377978D01*
X109388144Y-106300006D01*
X109388146Y-106300003D01*
X109393526Y-106292824D01*
X109427034Y-106203439D01*
X109441079Y-106165975D01*
X109441079Y-106165973D01*
X109443851Y-106158580D01*
X109450500Y-106097377D01*
X109450499Y-105352624D01*
X109443851Y-105291420D01*
X109393526Y-105157176D01*
X109388146Y-105149997D01*
X109388144Y-105149994D01*
X109312928Y-105049635D01*
X109307546Y-105042454D01*
X109208980Y-104968582D01*
X109200006Y-104961856D01*
X109200003Y-104961854D01*
X109192824Y-104956474D01*
X109076989Y-104913050D01*
X109065975Y-104908921D01*
X109065973Y-104908921D01*
X109058580Y-104906149D01*
X109050731Y-104905296D01*
X109050730Y-104905296D01*
X109037889Y-104903901D01*
X108972327Y-104876657D01*
X108931903Y-104818293D01*
X108925500Y-104778638D01*
X108925500Y-104176403D01*
X108945502Y-104108282D01*
X108958996Y-104091950D01*
X108958655Y-104091656D01*
X109076430Y-103955212D01*
X109076431Y-103955211D01*
X109080454Y-103950550D01*
X109098916Y-103918052D01*
X109115478Y-103888896D01*
X109172526Y-103788474D01*
X109231364Y-103611601D01*
X109248941Y-103472470D01*
X109254285Y-103430170D01*
X109254286Y-103430163D01*
X109254727Y-103426668D01*
X109255099Y-103400000D01*
X109236909Y-103214487D01*
X109235128Y-103208588D01*
X109235127Y-103208583D01*
X109184814Y-103041939D01*
X109183033Y-103036040D01*
X109122897Y-102922940D01*
X109098416Y-102876898D01*
X109098414Y-102876895D01*
X109095522Y-102871456D01*
X109091632Y-102866686D01*
X109091629Y-102866682D01*
X108981605Y-102731780D01*
X108981602Y-102731777D01*
X108977710Y-102727005D01*
X108967894Y-102718884D01*
X108857865Y-102627860D01*
X108834085Y-102608187D01*
X108670116Y-102519529D01*
X108550793Y-102482593D01*
X108497936Y-102466231D01*
X108497933Y-102466230D01*
X108492049Y-102464409D01*
X108485924Y-102463765D01*
X108485923Y-102463765D01*
X108312796Y-102445568D01*
X108312795Y-102445568D01*
X108306668Y-102444924D01*
X108228549Y-102452033D01*
X108127171Y-102461259D01*
X108127168Y-102461260D01*
X108121032Y-102461818D01*
X108115122Y-102463557D01*
X108115119Y-102463558D01*
X107953647Y-102511083D01*
X107942214Y-102514448D01*
X107777023Y-102600807D01*
X107631752Y-102717608D01*
X107511935Y-102860401D01*
X107508971Y-102865793D01*
X107508968Y-102865797D01*
X107447914Y-102976855D01*
X107422135Y-103023746D01*
X107420274Y-103029613D01*
X107420273Y-103029615D01*
X107376630Y-103167195D01*
X107365772Y-103201424D01*
X107344994Y-103386665D01*
X107360592Y-103572414D01*
X107362291Y-103578339D01*
X107409796Y-103744009D01*
X107411971Y-103751595D01*
X107497176Y-103917385D01*
X107612959Y-104063468D01*
X107754912Y-104184279D01*
X107917627Y-104275217D01*
X107987437Y-104297899D01*
X108046042Y-104337972D01*
X108073679Y-104403369D01*
X108074500Y-104417732D01*
X108074500Y-104778639D01*
X108054498Y-104846760D01*
X108000842Y-104893253D01*
X107962107Y-104903902D01*
X107941420Y-104906149D01*
X107807176Y-104956474D01*
X107799997Y-104961854D01*
X107799994Y-104961856D01*
X107791020Y-104968582D01*
X107692454Y-105042454D01*
X107687072Y-105049635D01*
X107611856Y-105149994D01*
X107611854Y-105149997D01*
X107606474Y-105157176D01*
X107556149Y-105291420D01*
X107549500Y-105352623D01*
X107549501Y-106097376D01*
X107549870Y-106100770D01*
X107549870Y-106100776D01*
X107550588Y-106107379D01*
X107556149Y-106158580D01*
X107606474Y-106292824D01*
X107611854Y-106300003D01*
X107611856Y-106300006D01*
X107670294Y-106377978D01*
X107692454Y-106407546D01*
X107699635Y-106412928D01*
X107799994Y-106488144D01*
X107799997Y-106488146D01*
X107807176Y-106493526D01*
X107815578Y-106496676D01*
X107823455Y-106500988D01*
X107822087Y-106503487D01*
X107867238Y-106537406D01*
X107891935Y-106603969D01*
X107876725Y-106673317D01*
X107826438Y-106723433D01*
X107806116Y-106732267D01*
X107733218Y-106756587D01*
X107720038Y-106762761D01*
X107582193Y-106848063D01*
X107570792Y-106857099D01*
X107456261Y-106971829D01*
X107447249Y-106983240D01*
X107358342Y-107127475D01*
X107356123Y-107126107D01*
X107317268Y-107170237D01*
X107248991Y-107189699D01*
X107181030Y-107169158D01*
X107142854Y-107125179D01*
X107141094Y-107126268D01*
X107051937Y-106982193D01*
X107042901Y-106970792D01*
X106928171Y-106856261D01*
X106916760Y-106847249D01*
X106778757Y-106762184D01*
X106765574Y-106756036D01*
X106694105Y-106732331D01*
X106635745Y-106691900D01*
X106608508Y-106626336D01*
X106621041Y-106556455D01*
X106669366Y-106504443D01*
X106676549Y-106500994D01*
X106676545Y-106500988D01*
X106684422Y-106496676D01*
X106692824Y-106493526D01*
X106700003Y-106488146D01*
X106700006Y-106488144D01*
X106800365Y-106412928D01*
X106807546Y-106407546D01*
X106829706Y-106377978D01*
X106888144Y-106300006D01*
X106888146Y-106300003D01*
X106893526Y-106292824D01*
X106927034Y-106203439D01*
X106941079Y-106165975D01*
X106941079Y-106165973D01*
X106943851Y-106158580D01*
X106950500Y-106097377D01*
X106950499Y-105352624D01*
X106943851Y-105291420D01*
X106893526Y-105157176D01*
X106888146Y-105149997D01*
X106888144Y-105149994D01*
X106812928Y-105049635D01*
X106807546Y-105042454D01*
X106708980Y-104968582D01*
X106700006Y-104961856D01*
X106700003Y-104961854D01*
X106692824Y-104956474D01*
X106576989Y-104913050D01*
X106565975Y-104908921D01*
X106565973Y-104908921D01*
X106558580Y-104906149D01*
X106550731Y-104905296D01*
X106550730Y-104905296D01*
X106537889Y-104903901D01*
X106472327Y-104876657D01*
X106431903Y-104818293D01*
X106425500Y-104778638D01*
X106425500Y-104176403D01*
X106445502Y-104108282D01*
X106458996Y-104091950D01*
X106458655Y-104091656D01*
X106576430Y-103955212D01*
X106576431Y-103955211D01*
X106580454Y-103950550D01*
X106598916Y-103918052D01*
X106615478Y-103888896D01*
X106672526Y-103788474D01*
X106731364Y-103611601D01*
X106748941Y-103472470D01*
X106754285Y-103430170D01*
X106754286Y-103430163D01*
X106754727Y-103426668D01*
X106755099Y-103400000D01*
X106736909Y-103214487D01*
X106735128Y-103208588D01*
X106735127Y-103208583D01*
X106684814Y-103041939D01*
X106683033Y-103036040D01*
X106622897Y-102922940D01*
X106598416Y-102876898D01*
X106598414Y-102876895D01*
X106595522Y-102871456D01*
X106591632Y-102866686D01*
X106591629Y-102866682D01*
X106481605Y-102731780D01*
X106481602Y-102731777D01*
X106477710Y-102727005D01*
X106467894Y-102718884D01*
X106357865Y-102627860D01*
X106334085Y-102608187D01*
X106328665Y-102605257D01*
X106323553Y-102601808D01*
X106324758Y-102600022D01*
X106281266Y-102556903D01*
X106265875Y-102487595D01*
X106290399Y-102420968D01*
X106338342Y-102381847D01*
X106401327Y-102352477D01*
X106410811Y-102347001D01*
X106441248Y-102325689D01*
X106449623Y-102315212D01*
X106442554Y-102301764D01*
X105812812Y-101672022D01*
X105798868Y-101664408D01*
X105797035Y-101664539D01*
X105790420Y-101668790D01*
X105156724Y-102302486D01*
X105150294Y-102314261D01*
X105159590Y-102326276D01*
X105189189Y-102347001D01*
X105198677Y-102352479D01*
X105261482Y-102381765D01*
X105314768Y-102428682D01*
X105334229Y-102496959D01*
X105313688Y-102564919D01*
X105278673Y-102599944D01*
X105277023Y-102600807D01*
X105131752Y-102717608D01*
X105011935Y-102860401D01*
X105008971Y-102865793D01*
X105008968Y-102865797D01*
X104947914Y-102976855D01*
X104922135Y-103023746D01*
X104920274Y-103029613D01*
X104920273Y-103029615D01*
X104876630Y-103167195D01*
X104865772Y-103201424D01*
X104844994Y-103386665D01*
X104860592Y-103572414D01*
X104862291Y-103578339D01*
X104909796Y-103744009D01*
X104911971Y-103751595D01*
X104997176Y-103917385D01*
X105112959Y-104063468D01*
X105254912Y-104184279D01*
X105417627Y-104275217D01*
X105487437Y-104297899D01*
X105546042Y-104337972D01*
X105573679Y-104403369D01*
X105574500Y-104417732D01*
X105574500Y-104778639D01*
X105554498Y-104846760D01*
X105500842Y-104893253D01*
X105462107Y-104903902D01*
X105441420Y-104906149D01*
X105307176Y-104956474D01*
X105299997Y-104961854D01*
X105299994Y-104961856D01*
X105291020Y-104968582D01*
X105192454Y-105042454D01*
X105187072Y-105049635D01*
X105111856Y-105149994D01*
X105111854Y-105149997D01*
X105106474Y-105157176D01*
X105056149Y-105291420D01*
X105049500Y-105352623D01*
X105049501Y-106097376D01*
X105049870Y-106100770D01*
X105049870Y-106100776D01*
X105050588Y-106107379D01*
X105056149Y-106158580D01*
X105106474Y-106292824D01*
X105111854Y-106300003D01*
X105111856Y-106300006D01*
X105170294Y-106377978D01*
X105192454Y-106407546D01*
X105199635Y-106412928D01*
X105299994Y-106488144D01*
X105299997Y-106488146D01*
X105307176Y-106493526D01*
X105315578Y-106496676D01*
X105323455Y-106500988D01*
X105322087Y-106503487D01*
X105367238Y-106537406D01*
X105391935Y-106603969D01*
X105376725Y-106673317D01*
X105326438Y-106723433D01*
X105306116Y-106732267D01*
X105233218Y-106756587D01*
X105220038Y-106762761D01*
X105082193Y-106848063D01*
X105070792Y-106857099D01*
X105026075Y-106901894D01*
X104963792Y-106935973D01*
X104892972Y-106930970D01*
X104836100Y-106888473D01*
X104811231Y-106821974D01*
X104811401Y-106801675D01*
X104812031Y-106794616D01*
X104812277Y-106789677D01*
X104812666Y-106752485D01*
X104812523Y-106747519D01*
X104794362Y-106481123D01*
X104793201Y-106472649D01*
X104739419Y-106212944D01*
X104737120Y-106204709D01*
X104648588Y-105954705D01*
X104645191Y-105946854D01*
X104523550Y-105711178D01*
X104519122Y-105703866D01*
X104400031Y-105534417D01*
X104389509Y-105526037D01*
X104376121Y-105533089D01*
X103172022Y-106737188D01*
X103164408Y-106751132D01*
X102434356Y-106751132D01*
X102435592Y-106748868D01*
X102435461Y-106747035D01*
X102431210Y-106740420D01*
X101223814Y-105533024D01*
X101211804Y-105526466D01*
X101200064Y-105535434D01*
X101091935Y-105685911D01*
X101087418Y-105693196D01*
X100963325Y-105927567D01*
X100959839Y-105935395D01*
X100868700Y-106184446D01*
X100866311Y-106192670D01*
X100809812Y-106451795D01*
X100808563Y-106460250D01*
X100787754Y-106724653D01*
X100787665Y-106733204D01*
X100250500Y-106733204D01*
X100250500Y-105162500D01*
X101576584Y-105162500D01*
X101582980Y-105173770D01*
X102787188Y-106377978D01*
X102801132Y-106385592D01*
X102802965Y-106385461D01*
X102809580Y-106381210D01*
X104016604Y-105174186D01*
X104023795Y-105161017D01*
X104016473Y-105150780D01*
X103969233Y-105112115D01*
X103962261Y-105107160D01*
X103736122Y-104968582D01*
X103728552Y-104964624D01*
X103485704Y-104858022D01*
X103477644Y-104855120D01*
X103222592Y-104782467D01*
X103214214Y-104780685D01*
X102951656Y-104743318D01*
X102943111Y-104742691D01*
X102677908Y-104741302D01*
X102669374Y-104741839D01*
X102406433Y-104776456D01*
X102398035Y-104778149D01*
X102142238Y-104848127D01*
X102134143Y-104850946D01*
X101890199Y-104954997D01*
X101882577Y-104958881D01*
X101655013Y-105095075D01*
X101647981Y-105099962D01*
X101585053Y-105150377D01*
X101576584Y-105162500D01*
X100250500Y-105162500D01*
X100250500Y-100000000D01*
X100644341Y-100000000D01*
X100664937Y-100235408D01*
X100666361Y-100240722D01*
X100666361Y-100240723D01*
X100689866Y-100328444D01*
X100726097Y-100463663D01*
X100728419Y-100468643D01*
X100728420Y-100468645D01*
X100817534Y-100659748D01*
X100825965Y-100677829D01*
X100961505Y-100871401D01*
X101128599Y-101038495D01*
X101322171Y-101174035D01*
X101327149Y-101176356D01*
X101327152Y-101176358D01*
X101531355Y-101271580D01*
X101536337Y-101273903D01*
X101541645Y-101275325D01*
X101541647Y-101275326D01*
X101681549Y-101312812D01*
X101764592Y-101335063D01*
X101867682Y-101344082D01*
X101938310Y-101350262D01*
X101938317Y-101350262D01*
X101941034Y-101350500D01*
X102058966Y-101350500D01*
X102061683Y-101350262D01*
X102061690Y-101350262D01*
X102132318Y-101344082D01*
X102235408Y-101335063D01*
X102318451Y-101312812D01*
X102345834Y-101305475D01*
X104587865Y-101305475D01*
X104605329Y-101505091D01*
X104607231Y-101515878D01*
X104659093Y-101709429D01*
X104662841Y-101719723D01*
X104747521Y-101901323D01*
X104752999Y-101910811D01*
X104774311Y-101941248D01*
X104784788Y-101949623D01*
X104798236Y-101942554D01*
X105427978Y-101312812D01*
X105434356Y-101301132D01*
X106164408Y-101301132D01*
X106164539Y-101302965D01*
X106168790Y-101309580D01*
X106802486Y-101943276D01*
X106814261Y-101949706D01*
X106826276Y-101940410D01*
X106847001Y-101910811D01*
X106852479Y-101901323D01*
X106937159Y-101719723D01*
X106940907Y-101709429D01*
X106992769Y-101515878D01*
X106994671Y-101505091D01*
X107012135Y-101305475D01*
X107012135Y-101294525D01*
X106994671Y-101094909D01*
X106992769Y-101084122D01*
X106940907Y-100890571D01*
X106937159Y-100880277D01*
X106852479Y-100698677D01*
X106847001Y-100689189D01*
X106825689Y-100658752D01*
X106815212Y-100650377D01*
X106801764Y-100657446D01*
X106172022Y-101287188D01*
X106164408Y-101301132D01*
X105434356Y-101301132D01*
X105435592Y-101298868D01*
X105435461Y-101297035D01*
X105431210Y-101290420D01*
X104797514Y-100656724D01*
X104785739Y-100650294D01*
X104773724Y-100659590D01*
X104752999Y-100689189D01*
X104747521Y-100698677D01*
X104662841Y-100880277D01*
X104659093Y-100890571D01*
X104607231Y-101084122D01*
X104605329Y-101094909D01*
X104587865Y-101294525D01*
X104587865Y-101305475D01*
X102345834Y-101305475D01*
X102458353Y-101275326D01*
X102458355Y-101275325D01*
X102463663Y-101273903D01*
X102468645Y-101271580D01*
X102672848Y-101176358D01*
X102672851Y-101176356D01*
X102677829Y-101174035D01*
X102871401Y-101038495D01*
X103038495Y-100871401D01*
X103041655Y-100866889D01*
X103170878Y-100682339D01*
X103170881Y-100682334D01*
X103174035Y-100677830D01*
X103176358Y-100672848D01*
X103176361Y-100672843D01*
X103271580Y-100468645D01*
X103271581Y-100468644D01*
X103273903Y-100463663D01*
X103310135Y-100328444D01*
X103321832Y-100284788D01*
X105150377Y-100284788D01*
X105157446Y-100298236D01*
X105787188Y-100927978D01*
X105801132Y-100935592D01*
X105802965Y-100935461D01*
X105809580Y-100931210D01*
X106443276Y-100297514D01*
X106449706Y-100285739D01*
X106440410Y-100273724D01*
X106410811Y-100252999D01*
X106401323Y-100247521D01*
X106219723Y-100162841D01*
X106209429Y-100159093D01*
X106015878Y-100107231D01*
X106005091Y-100105329D01*
X105805475Y-100087865D01*
X105794525Y-100087865D01*
X105594909Y-100105329D01*
X105584122Y-100107231D01*
X105390571Y-100159093D01*
X105380277Y-100162841D01*
X105198677Y-100247521D01*
X105189189Y-100252999D01*
X105158752Y-100274311D01*
X105150377Y-100284788D01*
X103321832Y-100284788D01*
X103333639Y-100240723D01*
X103333639Y-100240722D01*
X103335063Y-100235408D01*
X103355659Y-100000000D01*
X103335063Y-99764592D01*
X103320830Y-99711473D01*
X103275326Y-99541647D01*
X103275325Y-99541645D01*
X103273903Y-99536337D01*
X103269845Y-99527635D01*
X103176358Y-99327152D01*
X103176356Y-99327149D01*
X103174035Y-99322171D01*
X103038495Y-99128599D01*
X102871401Y-98961505D01*
X102677829Y-98825965D01*
X102672851Y-98823644D01*
X102672848Y-98823642D01*
X102468645Y-98728420D01*
X102468643Y-98728419D01*
X102463663Y-98726097D01*
X102458355Y-98724675D01*
X102458353Y-98724674D01*
X102240723Y-98666361D01*
X102240722Y-98666361D01*
X102235408Y-98664937D01*
X102132318Y-98655918D01*
X102061690Y-98649738D01*
X102061683Y-98649738D01*
X102058966Y-98649500D01*
X101941034Y-98649500D01*
X101938317Y-98649738D01*
X101938310Y-98649738D01*
X101867682Y-98655918D01*
X101764592Y-98664937D01*
X101759278Y-98666361D01*
X101759277Y-98666361D01*
X101541647Y-98724674D01*
X101541645Y-98724675D01*
X101536337Y-98726097D01*
X101531357Y-98728419D01*
X101531355Y-98728420D01*
X101327152Y-98823642D01*
X101327149Y-98823644D01*
X101322171Y-98825965D01*
X101128599Y-98961505D01*
X100961505Y-99128599D01*
X100958348Y-99133107D01*
X100958346Y-99133110D01*
X100830576Y-99315585D01*
X100825965Y-99322170D01*
X100823642Y-99327152D01*
X100823639Y-99327157D01*
X100730155Y-99527635D01*
X100726097Y-99536337D01*
X100724675Y-99541645D01*
X100724674Y-99541647D01*
X100679170Y-99711473D01*
X100664937Y-99764592D01*
X100644341Y-100000000D01*
X100250500Y-100000000D01*
X100250500Y-94839654D01*
X101575618Y-94839654D01*
X101582673Y-94849627D01*
X101613679Y-94875551D01*
X101620598Y-94880579D01*
X101845272Y-95021515D01*
X101852807Y-95025556D01*
X102094520Y-95134694D01*
X102102551Y-95137680D01*
X102356832Y-95213002D01*
X102365184Y-95214869D01*
X102627340Y-95254984D01*
X102635874Y-95255700D01*
X102901045Y-95259867D01*
X102909596Y-95259418D01*
X103172883Y-95227557D01*
X103181284Y-95225955D01*
X103437824Y-95158653D01*
X103445926Y-95155926D01*
X103690949Y-95054434D01*
X103698617Y-95050628D01*
X103927598Y-94916822D01*
X103934679Y-94912009D01*
X104014655Y-94849301D01*
X104023125Y-94837442D01*
X104016608Y-94825818D01*
X102812812Y-93622022D01*
X102798868Y-93614408D01*
X102797035Y-93614539D01*
X102790420Y-93618790D01*
X101582910Y-94826300D01*
X101575618Y-94839654D01*
X100250500Y-94839654D01*
X100250500Y-93233204D01*
X100787665Y-93233204D01*
X100802932Y-93497969D01*
X100804005Y-93506470D01*
X100855065Y-93766722D01*
X100857276Y-93774974D01*
X100943184Y-94025894D01*
X100946499Y-94033779D01*
X101065664Y-94270713D01*
X101070020Y-94278079D01*
X101199347Y-94466250D01*
X101209601Y-94474594D01*
X101223342Y-94467448D01*
X102427978Y-93262812D01*
X102434356Y-93251132D01*
X103164408Y-93251132D01*
X103164539Y-93252965D01*
X103168790Y-93259580D01*
X104375730Y-94466520D01*
X104387939Y-94473187D01*
X104399439Y-94464497D01*
X104496831Y-94331913D01*
X104501418Y-94324685D01*
X104627962Y-94091621D01*
X104631530Y-94083827D01*
X104725271Y-93835750D01*
X104727748Y-93827544D01*
X104786954Y-93569038D01*
X104788294Y-93560577D01*
X104812031Y-93294616D01*
X104812277Y-93289677D01*
X104812666Y-93252485D01*
X104812523Y-93247517D01*
X104808826Y-93193287D01*
X104824149Y-93123964D01*
X104874518Y-93073930D01*
X104943942Y-93059070D01*
X105010379Y-93084102D01*
X105023553Y-93095546D01*
X105071829Y-93143739D01*
X105083240Y-93152751D01*
X105221243Y-93237816D01*
X105234426Y-93243964D01*
X105305895Y-93267669D01*
X105364255Y-93308100D01*
X105391492Y-93373664D01*
X105378959Y-93443545D01*
X105330634Y-93495557D01*
X105323451Y-93499006D01*
X105323455Y-93499012D01*
X105315578Y-93503324D01*
X105307176Y-93506474D01*
X105299997Y-93511854D01*
X105299994Y-93511856D01*
X105199635Y-93587072D01*
X105192454Y-93592454D01*
X105187072Y-93599635D01*
X105111856Y-93699994D01*
X105111854Y-93699997D01*
X105106474Y-93707176D01*
X105056149Y-93841420D01*
X105049500Y-93902623D01*
X105049501Y-94647376D01*
X105049870Y-94650770D01*
X105049870Y-94650776D01*
X105054764Y-94695828D01*
X105056149Y-94708580D01*
X105106474Y-94842824D01*
X105111854Y-94850003D01*
X105111856Y-94850006D01*
X105161933Y-94916822D01*
X105192454Y-94957546D01*
X105199635Y-94962928D01*
X105299989Y-95038140D01*
X105299991Y-95038141D01*
X105307176Y-95043526D01*
X105310817Y-95044891D01*
X105359153Y-95093333D01*
X105374500Y-95153598D01*
X105374500Y-95673539D01*
X105354498Y-95741660D01*
X105306875Y-95785201D01*
X105277023Y-95800807D01*
X105131752Y-95917608D01*
X105011935Y-96060401D01*
X105008971Y-96065793D01*
X105008968Y-96065797D01*
X104945872Y-96180568D01*
X104922135Y-96223746D01*
X104920274Y-96229613D01*
X104920273Y-96229615D01*
X104908738Y-96265979D01*
X104865772Y-96401424D01*
X104844994Y-96586665D01*
X104845821Y-96596513D01*
X104858072Y-96742400D01*
X104860592Y-96772414D01*
X104862291Y-96778339D01*
X104910224Y-96945502D01*
X104911971Y-96951595D01*
X104914790Y-96957080D01*
X104990725Y-97104832D01*
X104997176Y-97117385D01*
X105112959Y-97263468D01*
X105254912Y-97384279D01*
X105260290Y-97387285D01*
X105260292Y-97387286D01*
X105330857Y-97426723D01*
X105417627Y-97475217D01*
X105511179Y-97505614D01*
X105590016Y-97531230D01*
X105648622Y-97571304D01*
X105676259Y-97636700D01*
X105664152Y-97706657D01*
X105616146Y-97758963D01*
X105586655Y-97771936D01*
X105448131Y-97812706D01*
X105448126Y-97812708D01*
X105442214Y-97814448D01*
X105277023Y-97900807D01*
X105131752Y-98017608D01*
X105011935Y-98160401D01*
X105008971Y-98165793D01*
X105008968Y-98165797D01*
X104958176Y-98258188D01*
X104922135Y-98323746D01*
X104920274Y-98329613D01*
X104920273Y-98329615D01*
X104891108Y-98421556D01*
X104865772Y-98501424D01*
X104844994Y-98686665D01*
X104845510Y-98692809D01*
X104856692Y-98825965D01*
X104860592Y-98872414D01*
X104862291Y-98878339D01*
X104907594Y-99036330D01*
X104911971Y-99051595D01*
X104914790Y-99057080D01*
X104987809Y-99199158D01*
X104997176Y-99217385D01*
X105112959Y-99363468D01*
X105254912Y-99484279D01*
X105260290Y-99487285D01*
X105260292Y-99487286D01*
X105293849Y-99506040D01*
X105417627Y-99575217D01*
X105594907Y-99632819D01*
X105779998Y-99654890D01*
X105786133Y-99654418D01*
X105786135Y-99654418D01*
X105959710Y-99641062D01*
X105959715Y-99641061D01*
X105965851Y-99640589D01*
X105971781Y-99638933D01*
X105971783Y-99638933D01*
X106139459Y-99592117D01*
X106139458Y-99592117D01*
X106145387Y-99590462D01*
X106311768Y-99506417D01*
X106336255Y-99487286D01*
X106453794Y-99395454D01*
X106453795Y-99395453D01*
X106458655Y-99391656D01*
X106580454Y-99250550D01*
X106615271Y-99189262D01*
X106666308Y-99139913D01*
X106724825Y-99125500D01*
X109344759Y-99125500D01*
X109412880Y-99145502D01*
X109459373Y-99199158D01*
X109469477Y-99269432D01*
X109457226Y-99306173D01*
X109456474Y-99307176D01*
X109406149Y-99441420D01*
X109405296Y-99449270D01*
X109405296Y-99449271D01*
X109401957Y-99480004D01*
X109399500Y-99502623D01*
X109399501Y-100497376D01*
X109399870Y-100500770D01*
X109399870Y-100500776D01*
X109405059Y-100548544D01*
X109406149Y-100558580D01*
X109456474Y-100692824D01*
X109461854Y-100700003D01*
X109461856Y-100700006D01*
X109524184Y-100783169D01*
X109542454Y-100807546D01*
X109621635Y-100866889D01*
X109636057Y-100877698D01*
X109678571Y-100934558D01*
X109683596Y-101005377D01*
X109649536Y-101067670D01*
X109631791Y-101080960D01*
X109632176Y-101081474D01*
X109517454Y-101167454D01*
X109512072Y-101174635D01*
X109436856Y-101274994D01*
X109436854Y-101274997D01*
X109431474Y-101282176D01*
X109381149Y-101416420D01*
X109374500Y-101477623D01*
X109374501Y-102522376D01*
X109374870Y-102525770D01*
X109374870Y-102525776D01*
X109378787Y-102561833D01*
X109381149Y-102583580D01*
X109431474Y-102717824D01*
X109436854Y-102725003D01*
X109436856Y-102725006D01*
X109496781Y-102804962D01*
X109517454Y-102832546D01*
X109524635Y-102837928D01*
X109624994Y-102913144D01*
X109624997Y-102913146D01*
X109632176Y-102918526D01*
X109712245Y-102948542D01*
X109759025Y-102966079D01*
X109759027Y-102966079D01*
X109766420Y-102968851D01*
X109774270Y-102969704D01*
X109774271Y-102969704D01*
X109791770Y-102971605D01*
X109827623Y-102975500D01*
X110212443Y-102975500D01*
X110597376Y-102975499D01*
X110600770Y-102975130D01*
X110600776Y-102975130D01*
X110650722Y-102969705D01*
X110650726Y-102969704D01*
X110658580Y-102968851D01*
X110792824Y-102918526D01*
X110800003Y-102913146D01*
X110800006Y-102913144D01*
X110900365Y-102837928D01*
X110907546Y-102832546D01*
X110928219Y-102804962D01*
X110988144Y-102725006D01*
X110988146Y-102725003D01*
X110993526Y-102717824D01*
X110996676Y-102709422D01*
X111000988Y-102701545D01*
X111003487Y-102702913D01*
X111037406Y-102657762D01*
X111103969Y-102633065D01*
X111173317Y-102648275D01*
X111223433Y-102698562D01*
X111232267Y-102718884D01*
X111256587Y-102791782D01*
X111262761Y-102804962D01*
X111348063Y-102942807D01*
X111357099Y-102954208D01*
X111471829Y-103068739D01*
X111483240Y-103077751D01*
X111621243Y-103162816D01*
X111634424Y-103168963D01*
X111788710Y-103220138D01*
X111802086Y-103223005D01*
X111896438Y-103232672D01*
X111902854Y-103233000D01*
X112015385Y-103233000D01*
X112030624Y-103228525D01*
X112031829Y-103227135D01*
X112033500Y-103219452D01*
X112033500Y-103214884D01*
X112541500Y-103214884D01*
X112545975Y-103230123D01*
X112547365Y-103231328D01*
X112555048Y-103232999D01*
X112672095Y-103232999D01*
X112678614Y-103232662D01*
X112774206Y-103222743D01*
X112787600Y-103219851D01*
X112941784Y-103168412D01*
X112954962Y-103162239D01*
X113092807Y-103076937D01*
X113104208Y-103067901D01*
X113218739Y-102953171D01*
X113227751Y-102941760D01*
X113312816Y-102803757D01*
X113318963Y-102790576D01*
X113370138Y-102636290D01*
X113373005Y-102622914D01*
X113382672Y-102528562D01*
X113383000Y-102522146D01*
X113383000Y-102272115D01*
X113378525Y-102256876D01*
X113377135Y-102255671D01*
X113369452Y-102254000D01*
X112559615Y-102254000D01*
X112544376Y-102258475D01*
X112543171Y-102259865D01*
X112541500Y-102267548D01*
X112541500Y-103214884D01*
X112033500Y-103214884D01*
X112033500Y-101266115D01*
X112025125Y-101237593D01*
X112001104Y-101200216D01*
X111996000Y-101164717D01*
X111996000Y-99872000D01*
X112016002Y-99803879D01*
X112069658Y-99757386D01*
X112122000Y-99746000D01*
X112378000Y-99746000D01*
X112446121Y-99766002D01*
X112492614Y-99819658D01*
X112504000Y-99872000D01*
X112504000Y-100708885D01*
X112512375Y-100737407D01*
X112536396Y-100774784D01*
X112541500Y-100810283D01*
X112541500Y-101727885D01*
X112545975Y-101743124D01*
X112547365Y-101744329D01*
X112555048Y-101746000D01*
X113364884Y-101746000D01*
X113380123Y-101741525D01*
X113381328Y-101740135D01*
X113382999Y-101732452D01*
X113382999Y-101477905D01*
X113382662Y-101471386D01*
X113372743Y-101375794D01*
X113369851Y-101362400D01*
X113318412Y-101208216D01*
X113312239Y-101195038D01*
X113226934Y-101057189D01*
X113219488Y-101047793D01*
X113192853Y-100981982D01*
X113206026Y-100912218D01*
X113210976Y-100903416D01*
X113287816Y-100778757D01*
X113293963Y-100765576D01*
X113345138Y-100611290D01*
X113348005Y-100597914D01*
X113357672Y-100503562D01*
X113358000Y-100497146D01*
X113358000Y-100334649D01*
X113378002Y-100266528D01*
X113431658Y-100220035D01*
X113501932Y-100209931D01*
X113566512Y-100239425D01*
X113573092Y-100245550D01*
X113721250Y-100393709D01*
X113866130Y-100538589D01*
X113873098Y-100547311D01*
X113873556Y-100546921D01*
X113879375Y-100553758D01*
X113884165Y-100561350D01*
X113890894Y-100567293D01*
X113890895Y-100567294D01*
X113921699Y-100594499D01*
X113927386Y-100599845D01*
X113937915Y-100610374D01*
X113941502Y-100613062D01*
X113945485Y-100616047D01*
X113953327Y-100622432D01*
X113986255Y-100651513D01*
X113994381Y-100655328D01*
X113999706Y-100658826D01*
X114006546Y-100662936D01*
X114012122Y-100665988D01*
X114019305Y-100671372D01*
X114027713Y-100674524D01*
X114060454Y-100686798D01*
X114069774Y-100690725D01*
X114109548Y-100709399D01*
X114118418Y-100710780D01*
X114124498Y-100712639D01*
X114132219Y-100714665D01*
X114138432Y-100716031D01*
X114146843Y-100719184D01*
X114173880Y-100721193D01*
X114190676Y-100722441D01*
X114200723Y-100723595D01*
X114208145Y-100724751D01*
X114208147Y-100724751D01*
X114212956Y-100725500D01*
X114227162Y-100725500D01*
X114236500Y-100725846D01*
X114282674Y-100729277D01*
X114291450Y-100727404D01*
X114300407Y-100726793D01*
X114300414Y-100726899D01*
X114313667Y-100725500D01*
X122184369Y-100725500D01*
X122232586Y-100735091D01*
X122328416Y-100774784D01*
X122356291Y-100786330D01*
X122500000Y-100805250D01*
X122643709Y-100786330D01*
X122777625Y-100730861D01*
X122892621Y-100642621D01*
X122980861Y-100527625D01*
X123036330Y-100393709D01*
X123055250Y-100250000D01*
X123036330Y-100106291D01*
X122980861Y-99972375D01*
X122892621Y-99857379D01*
X122777625Y-99769139D01*
X122643709Y-99713670D01*
X122500000Y-99694750D01*
X122356291Y-99713670D01*
X122348657Y-99716832D01*
X122232586Y-99764909D01*
X122184369Y-99774500D01*
X114499148Y-99774500D01*
X114431027Y-99754498D01*
X114410053Y-99737595D01*
X114262405Y-99589947D01*
X114228379Y-99527635D01*
X114225500Y-99500852D01*
X114225500Y-98500000D01*
X119194750Y-98500000D01*
X119213670Y-98643709D01*
X119269139Y-98777625D01*
X119357379Y-98892621D01*
X119472375Y-98980861D01*
X119606291Y-99036330D01*
X119750000Y-99055250D01*
X119893709Y-99036330D01*
X120027625Y-98980861D01*
X120065839Y-98951538D01*
X120132060Y-98925937D01*
X120142544Y-98925500D01*
X122521562Y-98925500D01*
X122589683Y-98945502D01*
X122610657Y-98962405D01*
X124537595Y-100889343D01*
X124571621Y-100951655D01*
X124574500Y-100978438D01*
X124574500Y-105817393D01*
X124581914Y-105840210D01*
X124586528Y-105859429D01*
X124590281Y-105883126D01*
X124594784Y-105891963D01*
X124594784Y-105891964D01*
X124601172Y-105904502D01*
X124608736Y-105922763D01*
X124613085Y-105936147D01*
X124613087Y-105936150D01*
X124616151Y-105945581D01*
X124621980Y-105953604D01*
X124630253Y-105964991D01*
X124640577Y-105981837D01*
X124651472Y-106003220D01*
X124675446Y-106027194D01*
X126651471Y-108003218D01*
X126651472Y-108003220D01*
X126746780Y-108098528D01*
X126768159Y-108109421D01*
X126785009Y-108119747D01*
X126804419Y-108133849D01*
X126813850Y-108136913D01*
X126813851Y-108136914D01*
X126827237Y-108141264D01*
X126845498Y-108148828D01*
X126854790Y-108153562D01*
X126866874Y-108159719D01*
X126890571Y-108163472D01*
X126909790Y-108168086D01*
X126932607Y-108175500D01*
X145567393Y-108175500D01*
X145590210Y-108168086D01*
X145609429Y-108163472D01*
X145633126Y-108159719D01*
X145645210Y-108153562D01*
X145654502Y-108148828D01*
X145672763Y-108141264D01*
X145686147Y-108136915D01*
X145686150Y-108136913D01*
X145695581Y-108133849D01*
X145714991Y-108119747D01*
X145731837Y-108109423D01*
X145753220Y-108098528D01*
X146418206Y-107433542D01*
X146480518Y-107399516D01*
X146551333Y-107404581D01*
X146608169Y-107447128D01*
X146632980Y-107513648D01*
X146628718Y-107556309D01*
X146579389Y-107734183D01*
X146580912Y-107742607D01*
X146593292Y-107746000D01*
X147642885Y-107746000D01*
X147658124Y-107741525D01*
X147659329Y-107740135D01*
X147661000Y-107732452D01*
X147661000Y-106683102D01*
X147657082Y-106669758D01*
X147642806Y-106667771D01*
X147604324Y-106673660D01*
X147594288Y-106676051D01*
X147473229Y-106715619D01*
X147402265Y-106717770D01*
X147341403Y-106681214D01*
X147309967Y-106617556D01*
X147317937Y-106547008D01*
X147344989Y-106506759D01*
X150203692Y-103648056D01*
X157520250Y-103648056D01*
X157539170Y-103791765D01*
X157594639Y-103925681D01*
X157682879Y-104040677D01*
X157797875Y-104128917D01*
X157931791Y-104184386D01*
X158075500Y-104203306D01*
X158219209Y-104184386D01*
X158353125Y-104128917D01*
X158468121Y-104040677D01*
X158502656Y-103995670D01*
X172911616Y-103995670D01*
X172972138Y-104192400D01*
X172976359Y-104202744D01*
X173072164Y-104388362D01*
X173078149Y-104397793D01*
X173205314Y-104563517D01*
X173212870Y-104571734D01*
X173367369Y-104712318D01*
X173376268Y-104719072D01*
X173553211Y-104830069D01*
X173563177Y-104835146D01*
X173756969Y-104913050D01*
X173767684Y-104916285D01*
X173973186Y-104958843D01*
X173982322Y-104960046D01*
X174031735Y-104962895D01*
X174035382Y-104963000D01*
X174122885Y-104963000D01*
X174138124Y-104958525D01*
X174139329Y-104957135D01*
X174141000Y-104949452D01*
X174141000Y-104944885D01*
X174649000Y-104944885D01*
X174653475Y-104960124D01*
X174654865Y-104961329D01*
X174662548Y-104963000D01*
X174723041Y-104963000D01*
X174728636Y-104962751D01*
X174883633Y-104948917D01*
X174894647Y-104946935D01*
X175096116Y-104891820D01*
X175106589Y-104887926D01*
X175295123Y-104797999D01*
X175304738Y-104792313D01*
X175474365Y-104670424D01*
X175482831Y-104663116D01*
X175628191Y-104513117D01*
X175635221Y-104504435D01*
X175751728Y-104331055D01*
X175757107Y-104321269D01*
X175833431Y-104147399D01*
X176820428Y-104147399D01*
X176839940Y-104228361D01*
X176843829Y-104239656D01*
X176924400Y-104416863D01*
X176930347Y-104427205D01*
X177042979Y-104585987D01*
X177050772Y-104595016D01*
X177191393Y-104729631D01*
X177200768Y-104737035D01*
X177364292Y-104842620D01*
X177374906Y-104848121D01*
X177555449Y-104920883D01*
X177566898Y-104924275D01*
X177759391Y-104961866D01*
X177768201Y-104962936D01*
X177770828Y-104963000D01*
X177922885Y-104963000D01*
X177938124Y-104958525D01*
X177939329Y-104957135D01*
X177941000Y-104949452D01*
X177941000Y-104152115D01*
X177936525Y-104136876D01*
X177935135Y-104135671D01*
X177927452Y-104134000D01*
X176835314Y-104134000D01*
X176821783Y-104137973D01*
X176820428Y-104147399D01*
X175833431Y-104147399D01*
X175841067Y-104130004D01*
X175844632Y-104119412D01*
X175872912Y-104001615D01*
X175872207Y-103987530D01*
X175863328Y-103984000D01*
X174667115Y-103984000D01*
X174651876Y-103988475D01*
X174650671Y-103989865D01*
X174649000Y-103997548D01*
X174649000Y-104944885D01*
X174141000Y-104944885D01*
X174141000Y-104002115D01*
X174136525Y-103986876D01*
X174135135Y-103985671D01*
X174127452Y-103984000D01*
X172926774Y-103984000D01*
X172912790Y-103988106D01*
X172911616Y-103995670D01*
X158502656Y-103995670D01*
X158556361Y-103925681D01*
X158588264Y-103848660D01*
X158608670Y-103799395D01*
X158608671Y-103799392D01*
X158611830Y-103791765D01*
X158618117Y-103744008D01*
X158646839Y-103679082D01*
X158653944Y-103671360D01*
X158711342Y-103613962D01*
X176815935Y-103613962D01*
X176817082Y-103622007D01*
X176830651Y-103626000D01*
X177922885Y-103626000D01*
X177938124Y-103621525D01*
X177939329Y-103620135D01*
X177941000Y-103612452D01*
X177941000Y-102815115D01*
X177936525Y-102799876D01*
X177935135Y-102798671D01*
X177927452Y-102797000D01*
X177821363Y-102797000D01*
X177815387Y-102797285D01*
X177670255Y-102811132D01*
X177658520Y-102813391D01*
X177471732Y-102868188D01*
X177460649Y-102872621D01*
X177287594Y-102961751D01*
X177277539Y-102968207D01*
X177124463Y-103088449D01*
X177115810Y-103096689D01*
X176988240Y-103243701D01*
X176981298Y-103253433D01*
X176883823Y-103421924D01*
X176878850Y-103432785D01*
X176815935Y-103613962D01*
X158711342Y-103613962D01*
X158866919Y-103458385D01*
X172917088Y-103458385D01*
X172917793Y-103472470D01*
X172926672Y-103476000D01*
X174122885Y-103476000D01*
X174138124Y-103471525D01*
X174139329Y-103470135D01*
X174141000Y-103462452D01*
X174141000Y-103457885D01*
X174649000Y-103457885D01*
X174653475Y-103473124D01*
X174654865Y-103474329D01*
X174662548Y-103476000D01*
X175863226Y-103476000D01*
X175877210Y-103471894D01*
X175878384Y-103464330D01*
X175817863Y-103267603D01*
X175813641Y-103257257D01*
X175783644Y-103199140D01*
X175770175Y-103129433D01*
X175796530Y-103063509D01*
X175813779Y-103045539D01*
X175844598Y-103019217D01*
X175852368Y-103013092D01*
X175887422Y-102987624D01*
X175887423Y-102987623D01*
X175893837Y-102982963D01*
X175903234Y-102971604D01*
X175918489Y-102956108D01*
X175921570Y-102953477D01*
X175921571Y-102953476D01*
X175927348Y-102948542D01*
X175932222Y-102941760D01*
X175958135Y-102905698D01*
X175963372Y-102898910D01*
X175993545Y-102862437D01*
X175993546Y-102862435D01*
X175998600Y-102856326D01*
X176003133Y-102846693D01*
X176014716Y-102826988D01*
X176014790Y-102826853D01*
X176019224Y-102820683D01*
X176022055Y-102813639D01*
X176022059Y-102813633D01*
X176040455Y-102767871D01*
X176043354Y-102761220D01*
X176065202Y-102714791D01*
X176065204Y-102714786D01*
X176068579Y-102707613D01*
X176070064Y-102699826D01*
X176071493Y-102695430D01*
X176073367Y-102689042D01*
X176073151Y-102688984D01*
X176075118Y-102681644D01*
X176077950Y-102674598D01*
X176086559Y-102614103D01*
X176087534Y-102608246D01*
X176097891Y-102553955D01*
X176097891Y-102553954D01*
X176099376Y-102546170D01*
X176098878Y-102538258D01*
X176099276Y-102531935D01*
X176099315Y-102525922D01*
X176099551Y-102522819D01*
X176100134Y-102518723D01*
X176100278Y-102505000D01*
X176093439Y-102448483D01*
X176092776Y-102441269D01*
X176089554Y-102390053D01*
X176089554Y-102390052D01*
X176089056Y-102382140D01*
X176086607Y-102374603D01*
X176085746Y-102370088D01*
X176084304Y-102363558D01*
X176084087Y-102363611D01*
X176082276Y-102356238D01*
X176081363Y-102348694D01*
X176059760Y-102291521D01*
X176057797Y-102285932D01*
X176040719Y-102233370D01*
X176040717Y-102233365D01*
X176038268Y-102225829D01*
X176034021Y-102219137D01*
X176033062Y-102217099D01*
X176031151Y-102213790D01*
X176028395Y-102208518D01*
X176025710Y-102201412D01*
X176021409Y-102195155D01*
X176021407Y-102195150D01*
X175988685Y-102147540D01*
X175986140Y-102143688D01*
X175964992Y-102110365D01*
X175950202Y-102087060D01*
X175944426Y-102081635D01*
X175943109Y-102080044D01*
X175940312Y-102077158D01*
X175936531Y-102071657D01*
X175884393Y-102025203D01*
X175882002Y-102023016D01*
X175830393Y-101974552D01*
X175823442Y-101970731D01*
X175822423Y-101969991D01*
X175818976Y-101966919D01*
X175752999Y-101931986D01*
X175751256Y-101931046D01*
X175693313Y-101899191D01*
X175693312Y-101899191D01*
X175686368Y-101895373D01*
X175681480Y-101894118D01*
X175679831Y-101893245D01*
X175599516Y-101873071D01*
X175598949Y-101872927D01*
X175534862Y-101856472D01*
X175534853Y-101856471D01*
X175527177Y-101854500D01*
X175453078Y-101854500D01*
X175452419Y-101854498D01*
X175452189Y-101854497D01*
X175369684Y-101854065D01*
X175362302Y-101855837D01*
X175362296Y-101855838D01*
X175334410Y-101862533D01*
X175320786Y-101865022D01*
X175289802Y-101868936D01*
X175289801Y-101868936D01*
X175281942Y-101869929D01*
X175260324Y-101878489D01*
X175256870Y-101879856D01*
X175239897Y-101885224D01*
X175216588Y-101890820D01*
X175196239Y-101901323D01*
X175180698Y-101909344D01*
X175169295Y-101914528D01*
X175136504Y-101927511D01*
X175136497Y-101927515D01*
X175129129Y-101930432D01*
X175122716Y-101935091D01*
X175122711Y-101935094D01*
X175110604Y-101943890D01*
X175094339Y-101953916D01*
X175083431Y-101959546D01*
X175083425Y-101959550D01*
X175076679Y-101963032D01*
X175070957Y-101968024D01*
X175070955Y-101968025D01*
X175043142Y-101992288D01*
X175034377Y-101999273D01*
X174996163Y-102027037D01*
X174991110Y-102033145D01*
X174984166Y-102041539D01*
X174969910Y-102056173D01*
X174958034Y-102066533D01*
X174930066Y-102106328D01*
X174924077Y-102114174D01*
X174896453Y-102147565D01*
X174896451Y-102147569D01*
X174891400Y-102153674D01*
X174888025Y-102160847D01*
X174885124Y-102167011D01*
X174874207Y-102185807D01*
X174867501Y-102195348D01*
X174848323Y-102244537D01*
X174844959Y-102252367D01*
X174821421Y-102302387D01*
X174819425Y-102312849D01*
X174813104Y-102334821D01*
X174813067Y-102334965D01*
X174810309Y-102342039D01*
X174805030Y-102382140D01*
X174804331Y-102387446D01*
X174775609Y-102452373D01*
X174716344Y-102491465D01*
X174679409Y-102497000D01*
X174667115Y-102497000D01*
X174651876Y-102501475D01*
X174650671Y-102502865D01*
X174649000Y-102510548D01*
X174649000Y-103457885D01*
X174141000Y-103457885D01*
X174141000Y-102515115D01*
X174136525Y-102499876D01*
X174135135Y-102498671D01*
X174127452Y-102497000D01*
X174066959Y-102497000D01*
X174061364Y-102497249D01*
X173906367Y-102511083D01*
X173895353Y-102513065D01*
X173693884Y-102568180D01*
X173683411Y-102572074D01*
X173494877Y-102662001D01*
X173485262Y-102667687D01*
X173315635Y-102789576D01*
X173307169Y-102796884D01*
X173161809Y-102946883D01*
X173154779Y-102955565D01*
X173038272Y-103128945D01*
X173032893Y-103138731D01*
X172948933Y-103329996D01*
X172945368Y-103340588D01*
X172917088Y-103458385D01*
X158866919Y-103458385D01*
X162253216Y-100072087D01*
X162253219Y-100072085D01*
X162348528Y-99976776D01*
X162359421Y-99955397D01*
X162369749Y-99938544D01*
X162378021Y-99927159D01*
X162378022Y-99927157D01*
X162383849Y-99919137D01*
X162389632Y-99901340D01*
X162391264Y-99896319D01*
X162398828Y-99878058D01*
X162405216Y-99865520D01*
X162405216Y-99865519D01*
X162409719Y-99856682D01*
X162413472Y-99832985D01*
X162418086Y-99813766D01*
X162425500Y-99790949D01*
X162425500Y-97642544D01*
X162445502Y-97574423D01*
X162451538Y-97565839D01*
X162475835Y-97534175D01*
X162480861Y-97527625D01*
X162536330Y-97393709D01*
X162555250Y-97250000D01*
X162552068Y-97225829D01*
X162545374Y-97174981D01*
X162556314Y-97104832D01*
X162603442Y-97051734D01*
X162636713Y-97037251D01*
X162643709Y-97036330D01*
X162777625Y-96980861D01*
X162892621Y-96892621D01*
X162980861Y-96777625D01*
X162985564Y-96766272D01*
X163022456Y-96677205D01*
X163036330Y-96643709D01*
X163049237Y-96545670D01*
X172911616Y-96545670D01*
X172972138Y-96742400D01*
X172976359Y-96752744D01*
X173072164Y-96938362D01*
X173078149Y-96947793D01*
X173205314Y-97113517D01*
X173212870Y-97121734D01*
X173367369Y-97262318D01*
X173376268Y-97269072D01*
X173553211Y-97380069D01*
X173563177Y-97385146D01*
X173756969Y-97463050D01*
X173767684Y-97466285D01*
X173973186Y-97508843D01*
X173982322Y-97510046D01*
X174031735Y-97512895D01*
X174035382Y-97513000D01*
X174122885Y-97513000D01*
X174138124Y-97508525D01*
X174139329Y-97507135D01*
X174141000Y-97499452D01*
X174141000Y-97494885D01*
X174649000Y-97494885D01*
X174653475Y-97510124D01*
X174654865Y-97511329D01*
X174662548Y-97513000D01*
X174675809Y-97513000D01*
X174743930Y-97533002D01*
X174790423Y-97586658D01*
X174799577Y-97615392D01*
X174800446Y-97619949D01*
X174800944Y-97627860D01*
X174803394Y-97635399D01*
X174803815Y-97637608D01*
X174804843Y-97641292D01*
X174806202Y-97647087D01*
X174807035Y-97654633D01*
X174809643Y-97661759D01*
X174809644Y-97661764D01*
X174829509Y-97716047D01*
X174831016Y-97720411D01*
X174851732Y-97784171D01*
X174855977Y-97790859D01*
X174856858Y-97792732D01*
X174858851Y-97796226D01*
X174861143Y-97802490D01*
X174900087Y-97860444D01*
X174901860Y-97863160D01*
X174939798Y-97922940D01*
X174945574Y-97928364D01*
X174946390Y-97929351D01*
X174948958Y-97933172D01*
X174954576Y-97938284D01*
X174954577Y-97938285D01*
X175004184Y-97983423D01*
X175005639Y-97984768D01*
X175059607Y-98035448D01*
X175064031Y-98037880D01*
X175065410Y-98039135D01*
X175069218Y-98041203D01*
X175069220Y-98041204D01*
X175138199Y-98078657D01*
X175138778Y-98078974D01*
X175196679Y-98110806D01*
X175196688Y-98110810D01*
X175203632Y-98114627D01*
X175232270Y-98121980D01*
X175275279Y-98133023D01*
X175275917Y-98133188D01*
X175328460Y-98146972D01*
X175356069Y-98154215D01*
X175357932Y-98154244D01*
X175362823Y-98155500D01*
X175436909Y-98155500D01*
X175438888Y-98155516D01*
X175505896Y-98156569D01*
X175505899Y-98156569D01*
X175513495Y-98156688D01*
X175530505Y-98152792D01*
X175552865Y-98147672D01*
X175565198Y-98145486D01*
X175600190Y-98141065D01*
X175608058Y-98140071D01*
X175615430Y-98137152D01*
X175615435Y-98137151D01*
X175629349Y-98131642D01*
X175647599Y-98125975D01*
X175659558Y-98123236D01*
X175659564Y-98123234D01*
X175666968Y-98121538D01*
X175673753Y-98118125D01*
X175673757Y-98118124D01*
X175706721Y-98101544D01*
X175716953Y-98096956D01*
X175733812Y-98090281D01*
X175760871Y-98079568D01*
X175767286Y-98074907D01*
X175767290Y-98074905D01*
X175776099Y-98068505D01*
X175793540Y-98057880D01*
X175800837Y-98054210D01*
X175800843Y-98054206D01*
X175807625Y-98050795D01*
X175813396Y-98045866D01*
X175813399Y-98045864D01*
X175844598Y-98019217D01*
X175852368Y-98013092D01*
X175887422Y-97987624D01*
X175887423Y-97987623D01*
X175893837Y-97982963D01*
X175903234Y-97971604D01*
X175918489Y-97956108D01*
X175921570Y-97953477D01*
X175921571Y-97953476D01*
X175927348Y-97948542D01*
X175934719Y-97938285D01*
X175958135Y-97905698D01*
X175963372Y-97898910D01*
X175993545Y-97862437D01*
X175993546Y-97862435D01*
X175998600Y-97856326D01*
X176003133Y-97846693D01*
X176014716Y-97826988D01*
X176014790Y-97826853D01*
X176019224Y-97820683D01*
X176022055Y-97813639D01*
X176022059Y-97813633D01*
X176040455Y-97767871D01*
X176043354Y-97761220D01*
X176065202Y-97714791D01*
X176065204Y-97714786D01*
X176068579Y-97707613D01*
X176070064Y-97699826D01*
X176071493Y-97695430D01*
X176073367Y-97689042D01*
X176073151Y-97688984D01*
X176075118Y-97681644D01*
X176077950Y-97674598D01*
X176086559Y-97614103D01*
X176087534Y-97608246D01*
X176097891Y-97553955D01*
X176097891Y-97553954D01*
X176099376Y-97546170D01*
X176098878Y-97538258D01*
X176099276Y-97531935D01*
X176099315Y-97525922D01*
X176099551Y-97522819D01*
X176100134Y-97518723D01*
X176100278Y-97505000D01*
X176093439Y-97448483D01*
X176092776Y-97441269D01*
X176089554Y-97390053D01*
X176089554Y-97390052D01*
X176089056Y-97382140D01*
X176086607Y-97374603D01*
X176085746Y-97370088D01*
X176084304Y-97363558D01*
X176084087Y-97363611D01*
X176082276Y-97356238D01*
X176081363Y-97348694D01*
X176059760Y-97291521D01*
X176057797Y-97285932D01*
X176040719Y-97233370D01*
X176040717Y-97233365D01*
X176038268Y-97225829D01*
X176034021Y-97219137D01*
X176033062Y-97217099D01*
X176031151Y-97213790D01*
X176028395Y-97208518D01*
X176025710Y-97201412D01*
X176021409Y-97195155D01*
X176021407Y-97195150D01*
X175988685Y-97147540D01*
X175986140Y-97143688D01*
X175962523Y-97106474D01*
X175950202Y-97087060D01*
X175944426Y-97081635D01*
X175943109Y-97080044D01*
X175940312Y-97077158D01*
X175936531Y-97071657D01*
X175884393Y-97025203D01*
X175882002Y-97023016D01*
X175830393Y-96974552D01*
X175823442Y-96970731D01*
X175822424Y-96969991D01*
X175822040Y-96969650D01*
X175778796Y-96913570D01*
X175772720Y-96842834D01*
X175780838Y-96817210D01*
X175841065Y-96680009D01*
X175844632Y-96669412D01*
X175872912Y-96551615D01*
X175872207Y-96537530D01*
X175863328Y-96534000D01*
X174667115Y-96534000D01*
X174651876Y-96538475D01*
X174650671Y-96539865D01*
X174649000Y-96547548D01*
X174649000Y-97494885D01*
X174141000Y-97494885D01*
X174141000Y-96552115D01*
X174136525Y-96536876D01*
X174135135Y-96535671D01*
X174127452Y-96534000D01*
X172926774Y-96534000D01*
X172912790Y-96538106D01*
X172911616Y-96545670D01*
X163049237Y-96545670D01*
X163055250Y-96500000D01*
X163041742Y-96397399D01*
X176820428Y-96397399D01*
X176839940Y-96478361D01*
X176843829Y-96489656D01*
X176924400Y-96666863D01*
X176930347Y-96677205D01*
X177042979Y-96835987D01*
X177050772Y-96845016D01*
X177191393Y-96979631D01*
X177200768Y-96987035D01*
X177364292Y-97092620D01*
X177374906Y-97098121D01*
X177555449Y-97170883D01*
X177566898Y-97174275D01*
X177759391Y-97211866D01*
X177768201Y-97212936D01*
X177770828Y-97213000D01*
X177922885Y-97213000D01*
X177938124Y-97208525D01*
X177939329Y-97207135D01*
X177941000Y-97199452D01*
X177941000Y-96402115D01*
X177936525Y-96386876D01*
X177935135Y-96385671D01*
X177927452Y-96384000D01*
X176835314Y-96384000D01*
X176821783Y-96387973D01*
X176820428Y-96397399D01*
X163041742Y-96397399D01*
X163036330Y-96356291D01*
X162980861Y-96222375D01*
X162892621Y-96107379D01*
X162777625Y-96019139D01*
X162751662Y-96008385D01*
X172917088Y-96008385D01*
X172917793Y-96022470D01*
X172926672Y-96026000D01*
X174122885Y-96026000D01*
X174138124Y-96021525D01*
X174139329Y-96020135D01*
X174141000Y-96012452D01*
X174141000Y-96007885D01*
X174649000Y-96007885D01*
X174653475Y-96023124D01*
X174654865Y-96024329D01*
X174662548Y-96026000D01*
X175863226Y-96026000D01*
X175877210Y-96021894D01*
X175878384Y-96014330D01*
X175832125Y-95863962D01*
X176815935Y-95863962D01*
X176817082Y-95872007D01*
X176830651Y-95876000D01*
X177922885Y-95876000D01*
X177938124Y-95871525D01*
X177939329Y-95870135D01*
X177941000Y-95862452D01*
X177941000Y-95065115D01*
X177936525Y-95049876D01*
X177935135Y-95048671D01*
X177927452Y-95047000D01*
X177821363Y-95047000D01*
X177815387Y-95047285D01*
X177670255Y-95061132D01*
X177658520Y-95063391D01*
X177471732Y-95118188D01*
X177460649Y-95122621D01*
X177287594Y-95211751D01*
X177277539Y-95218207D01*
X177124463Y-95338449D01*
X177115810Y-95346689D01*
X176988240Y-95493701D01*
X176981298Y-95503433D01*
X176883823Y-95671924D01*
X176878850Y-95682785D01*
X176815935Y-95863962D01*
X175832125Y-95863962D01*
X175817862Y-95817600D01*
X175813641Y-95807256D01*
X175717836Y-95621638D01*
X175711851Y-95612207D01*
X175584686Y-95446483D01*
X175577130Y-95438266D01*
X175422631Y-95297682D01*
X175413732Y-95290928D01*
X175236789Y-95179931D01*
X175226823Y-95174854D01*
X175033031Y-95096950D01*
X175022316Y-95093715D01*
X174816814Y-95051157D01*
X174807678Y-95049954D01*
X174758265Y-95047105D01*
X174754618Y-95047000D01*
X174667115Y-95047000D01*
X174651876Y-95051475D01*
X174650671Y-95052865D01*
X174649000Y-95060548D01*
X174649000Y-96007885D01*
X174141000Y-96007885D01*
X174141000Y-95065115D01*
X174136525Y-95049876D01*
X174135135Y-95048671D01*
X174127452Y-95047000D01*
X174066959Y-95047000D01*
X174061364Y-95047249D01*
X173906367Y-95061083D01*
X173895353Y-95063065D01*
X173693884Y-95118180D01*
X173683411Y-95122074D01*
X173494877Y-95212001D01*
X173485262Y-95217687D01*
X173315635Y-95339576D01*
X173307169Y-95346884D01*
X173161809Y-95496883D01*
X173154779Y-95505565D01*
X173038272Y-95678945D01*
X173032893Y-95688731D01*
X172948933Y-95879996D01*
X172945368Y-95890588D01*
X172917088Y-96008385D01*
X162751662Y-96008385D01*
X162643709Y-95963670D01*
X162500000Y-95944750D01*
X162356291Y-95963670D01*
X162222375Y-96019139D01*
X162215825Y-96024165D01*
X162184161Y-96048462D01*
X162117940Y-96074063D01*
X162107456Y-96074500D01*
X159682607Y-96074500D01*
X159659790Y-96081914D01*
X159640571Y-96086528D01*
X159616874Y-96090281D01*
X159608037Y-96094784D01*
X159608036Y-96094784D01*
X159595498Y-96101172D01*
X159577237Y-96108736D01*
X159563853Y-96113085D01*
X159563850Y-96113087D01*
X159554419Y-96116151D01*
X159546396Y-96121980D01*
X159535009Y-96130253D01*
X159518163Y-96140577D01*
X159496780Y-96151472D01*
X157901472Y-97746780D01*
X157890577Y-97768163D01*
X157880253Y-97785009D01*
X157866151Y-97804419D01*
X157863087Y-97813850D01*
X157863085Y-97813853D01*
X157858736Y-97827237D01*
X157851172Y-97845498D01*
X157840281Y-97866874D01*
X157838730Y-97876668D01*
X157836528Y-97890570D01*
X157831914Y-97909790D01*
X157824500Y-97932607D01*
X157824500Y-101107456D01*
X157804498Y-101175577D01*
X157798462Y-101184161D01*
X157769139Y-101222375D01*
X157713670Y-101356291D01*
X157694750Y-101500000D01*
X157713670Y-101643709D01*
X157769139Y-101777625D01*
X157857379Y-101892621D01*
X157972375Y-101980861D01*
X158106291Y-102036330D01*
X158250000Y-102055250D01*
X158393709Y-102036330D01*
X158527625Y-101980861D01*
X158642621Y-101892621D01*
X158730861Y-101777625D01*
X158786330Y-101643709D01*
X158805250Y-101500000D01*
X158786330Y-101356291D01*
X158730861Y-101222375D01*
X158701538Y-101184161D01*
X158675937Y-101117940D01*
X158675500Y-101107456D01*
X158675500Y-98228438D01*
X158695502Y-98160317D01*
X158712405Y-98139343D01*
X159889343Y-96962405D01*
X159951655Y-96928379D01*
X159978438Y-96925500D01*
X161349984Y-96925500D01*
X161418105Y-96945502D01*
X161464598Y-96999158D01*
X161474702Y-97069432D01*
X161468877Y-97090660D01*
X161468968Y-97090684D01*
X161466831Y-97098660D01*
X161463670Y-97106291D01*
X161444750Y-97250000D01*
X161463670Y-97393709D01*
X161519139Y-97527625D01*
X161524165Y-97534175D01*
X161548462Y-97565839D01*
X161574063Y-97632060D01*
X161574500Y-97642544D01*
X161574500Y-99495119D01*
X161554498Y-99563240D01*
X161537595Y-99584214D01*
X158052196Y-103069612D01*
X157989884Y-103103638D01*
X157979553Y-103105438D01*
X157931791Y-103111726D01*
X157924164Y-103114885D01*
X157924161Y-103114886D01*
X157809840Y-103162239D01*
X157797875Y-103167195D01*
X157682879Y-103255435D01*
X157594639Y-103370431D01*
X157539170Y-103504347D01*
X157520250Y-103648056D01*
X150203692Y-103648056D01*
X153523304Y-100328444D01*
X153585616Y-100294418D01*
X153595947Y-100292618D01*
X153643709Y-100286330D01*
X153651336Y-100283171D01*
X153651339Y-100283170D01*
X153769996Y-100234021D01*
X153777625Y-100230861D01*
X153892621Y-100142621D01*
X153980861Y-100027625D01*
X154036330Y-99893709D01*
X154055250Y-99750000D01*
X154036330Y-99606291D01*
X153980861Y-99472375D01*
X153892621Y-99357379D01*
X153777625Y-99269139D01*
X153643709Y-99213670D01*
X153500000Y-99194750D01*
X153356291Y-99213670D01*
X153222375Y-99269139D01*
X153107379Y-99357379D01*
X153019139Y-99472375D01*
X153015979Y-99480004D01*
X152966831Y-99598660D01*
X152963670Y-99606291D01*
X152960178Y-99632819D01*
X152957383Y-99654047D01*
X152928661Y-99718974D01*
X152921556Y-99726696D01*
X145360657Y-107287595D01*
X145298345Y-107321621D01*
X145271562Y-107324500D01*
X127228437Y-107324500D01*
X127160316Y-107304498D01*
X127139342Y-107287595D01*
X126351747Y-106500000D01*
X127194750Y-106500000D01*
X127213670Y-106643709D01*
X127269139Y-106777625D01*
X127357379Y-106892621D01*
X127472375Y-106980861D01*
X127606291Y-107036330D01*
X127750000Y-107055250D01*
X127893709Y-107036330D01*
X128027625Y-106980861D01*
X128142621Y-106892621D01*
X128230861Y-106777625D01*
X128249649Y-106732267D01*
X128283170Y-106651339D01*
X128283171Y-106651336D01*
X128286330Y-106643709D01*
X128292617Y-106595952D01*
X128321339Y-106531026D01*
X128328444Y-106523304D01*
X132848528Y-102003220D01*
X132859423Y-101981837D01*
X132869747Y-101964991D01*
X132878020Y-101953604D01*
X132883849Y-101945581D01*
X132886913Y-101936150D01*
X132886915Y-101936147D01*
X132891264Y-101922763D01*
X132898828Y-101904502D01*
X132905216Y-101891964D01*
X132905216Y-101891963D01*
X132909719Y-101883126D01*
X132913472Y-101859429D01*
X132918086Y-101840210D01*
X132925500Y-101817393D01*
X132925500Y-97978438D01*
X132945502Y-97910317D01*
X132962405Y-97889343D01*
X134234288Y-96617460D01*
X134296599Y-96583435D01*
X134367414Y-96588499D01*
X134424250Y-96631046D01*
X134449061Y-96697566D01*
X134448304Y-96723000D01*
X134445828Y-96741809D01*
X134444750Y-96750000D01*
X134463670Y-96893709D01*
X134519139Y-97027625D01*
X134607379Y-97142621D01*
X134722375Y-97230861D01*
X134856291Y-97286330D01*
X135000000Y-97305250D01*
X135143709Y-97286330D01*
X135277625Y-97230861D01*
X135300029Y-97213670D01*
X135315839Y-97201538D01*
X135382060Y-97175937D01*
X135392544Y-97175500D01*
X139241437Y-97175500D01*
X139309558Y-97195502D01*
X139356051Y-97249158D01*
X139366155Y-97319432D01*
X139341399Y-97378204D01*
X139334430Y-97387286D01*
X139269139Y-97472375D01*
X139213670Y-97606291D01*
X139194750Y-97750000D01*
X139213670Y-97893709D01*
X139269139Y-98027625D01*
X139357379Y-98142621D01*
X139472375Y-98230861D01*
X139606291Y-98286330D01*
X139750000Y-98305250D01*
X139893709Y-98286330D01*
X140027625Y-98230861D01*
X140142621Y-98142621D01*
X140213474Y-98050285D01*
X140270811Y-98008418D01*
X140313435Y-98000989D01*
X140833858Y-98000989D01*
X140901979Y-98020991D01*
X140948472Y-98074647D01*
X140958780Y-98143434D01*
X140944750Y-98250000D01*
X140963670Y-98393709D01*
X141019139Y-98527625D01*
X141107379Y-98642621D01*
X141222375Y-98730861D01*
X141230004Y-98734021D01*
X141348661Y-98783170D01*
X141348664Y-98783171D01*
X141356291Y-98786330D01*
X141404048Y-98792617D01*
X141468974Y-98821339D01*
X141476696Y-98828444D01*
X141537595Y-98889343D01*
X141571621Y-98951655D01*
X141574500Y-98978438D01*
X141574500Y-103607456D01*
X141554498Y-103675577D01*
X141548462Y-103684161D01*
X141519139Y-103722375D01*
X141463670Y-103856291D01*
X141444750Y-104000000D01*
X141463670Y-104143709D01*
X141519139Y-104277625D01*
X141607379Y-104392621D01*
X141722375Y-104480861D01*
X141856291Y-104536330D01*
X142000000Y-104555250D01*
X142143709Y-104536330D01*
X142277625Y-104480861D01*
X142392621Y-104392621D01*
X142480861Y-104277625D01*
X142536330Y-104143709D01*
X142555250Y-104000000D01*
X142536330Y-103856291D01*
X142480861Y-103722375D01*
X142451538Y-103684161D01*
X142425937Y-103617940D01*
X142425500Y-103607456D01*
X142425500Y-98682607D01*
X142422437Y-98673180D01*
X142422436Y-98673173D01*
X142418087Y-98659788D01*
X142413473Y-98640569D01*
X142411272Y-98626672D01*
X142411270Y-98626665D01*
X142409719Y-98616874D01*
X142398827Y-98595498D01*
X142391264Y-98577237D01*
X142383850Y-98554419D01*
X142369749Y-98535011D01*
X142359417Y-98518152D01*
X142354341Y-98508188D01*
X142348528Y-98496780D01*
X142078444Y-98226696D01*
X142044418Y-98164384D01*
X142042617Y-98154046D01*
X142042495Y-98153115D01*
X142041220Y-98143434D01*
X142052160Y-98073286D01*
X142099288Y-98020187D01*
X142166142Y-98000989D01*
X152777764Y-98000989D01*
X152845885Y-98020991D01*
X152862563Y-98033794D01*
X152870706Y-98041204D01*
X152910667Y-98077565D01*
X152945899Y-98109624D01*
X152989195Y-98133132D01*
X153077588Y-98181126D01*
X153077590Y-98181127D01*
X153084265Y-98184751D01*
X153091614Y-98186679D01*
X153229208Y-98222776D01*
X153229210Y-98222776D01*
X153236558Y-98224704D01*
X153324105Y-98226079D01*
X153391902Y-98247148D01*
X153411220Y-98262968D01*
X154171556Y-99023304D01*
X154205582Y-99085616D01*
X154207382Y-99095947D01*
X154213670Y-99143709D01*
X154216829Y-99151336D01*
X154216830Y-99151339D01*
X154248366Y-99227475D01*
X154269139Y-99277625D01*
X154357379Y-99392621D01*
X154472375Y-99480861D01*
X154606291Y-99536330D01*
X154750000Y-99555250D01*
X154893709Y-99536330D01*
X155027625Y-99480861D01*
X155142621Y-99392621D01*
X155230861Y-99277625D01*
X155286330Y-99143709D01*
X155305250Y-99000000D01*
X155286330Y-98856291D01*
X155230861Y-98722375D01*
X155142621Y-98607379D01*
X155027625Y-98519139D01*
X155001187Y-98508188D01*
X154901339Y-98466830D01*
X154901336Y-98466829D01*
X154893709Y-98463670D01*
X154845952Y-98457383D01*
X154781026Y-98428661D01*
X154773304Y-98421556D01*
X154017665Y-97665917D01*
X153983639Y-97603605D01*
X153981500Y-97583706D01*
X153980950Y-97583736D01*
X153980724Y-97579623D01*
X153980767Y-97575489D01*
X153979115Y-97561833D01*
X153973828Y-97518151D01*
X153961852Y-97419183D01*
X153925969Y-97324221D01*
X153908883Y-97279003D01*
X153908882Y-97279000D01*
X153906199Y-97271901D01*
X153817020Y-97142146D01*
X153761433Y-97092620D01*
X153705137Y-97042461D01*
X153705134Y-97042459D01*
X153699465Y-97037408D01*
X153560320Y-96963734D01*
X153533829Y-96957080D01*
X153414987Y-96927229D01*
X153414985Y-96927229D01*
X153407617Y-96925378D01*
X153400019Y-96925338D01*
X153400017Y-96925338D01*
X153332808Y-96924986D01*
X153250173Y-96924554D01*
X153242794Y-96926326D01*
X153242790Y-96926326D01*
X153104456Y-96959537D01*
X153104452Y-96959538D01*
X153097077Y-96961309D01*
X153013526Y-97004433D01*
X152969731Y-97027037D01*
X152957168Y-97033521D01*
X152951446Y-97038513D01*
X152951444Y-97038514D01*
X152859253Y-97118938D01*
X152794771Y-97148646D01*
X152776424Y-97149989D01*
X152755949Y-97149989D01*
X152687828Y-97129987D01*
X152641335Y-97076331D01*
X152631231Y-97006057D01*
X152660725Y-96941477D01*
X152666854Y-96934894D01*
X153773304Y-95828444D01*
X153835616Y-95794418D01*
X153845947Y-95792618D01*
X153893709Y-95786330D01*
X153901336Y-95783171D01*
X153901339Y-95783170D01*
X154019996Y-95734021D01*
X154027625Y-95730861D01*
X154142621Y-95642621D01*
X154230861Y-95527625D01*
X154286330Y-95393709D01*
X154305250Y-95250000D01*
X154286330Y-95106291D01*
X154230861Y-94972375D01*
X154142621Y-94857379D01*
X154027625Y-94769139D01*
X153893709Y-94713670D01*
X153750000Y-94694750D01*
X153606291Y-94713670D01*
X153472375Y-94769139D01*
X153357379Y-94857379D01*
X153269139Y-94972375D01*
X153265979Y-94980004D01*
X153216831Y-95098660D01*
X153213670Y-95106291D01*
X153212592Y-95114479D01*
X153207383Y-95154047D01*
X153178661Y-95218974D01*
X153171556Y-95226696D01*
X152110657Y-96287595D01*
X152048345Y-96321621D01*
X152021562Y-96324500D01*
X138758563Y-96324500D01*
X138690442Y-96304498D01*
X138643949Y-96250842D01*
X138633845Y-96180568D01*
X138658601Y-96121796D01*
X138694892Y-96074500D01*
X138730861Y-96027625D01*
X138786330Y-95893709D01*
X138805250Y-95750000D01*
X138786330Y-95606291D01*
X138730861Y-95472375D01*
X138642621Y-95357379D01*
X138527625Y-95269139D01*
X138393709Y-95213670D01*
X138250000Y-95194750D01*
X138106291Y-95213670D01*
X137972375Y-95269139D01*
X137935178Y-95297682D01*
X137934161Y-95298462D01*
X137867940Y-95324063D01*
X137857456Y-95324500D01*
X134432607Y-95324500D01*
X134409790Y-95331914D01*
X134390571Y-95336528D01*
X134366874Y-95340281D01*
X134358037Y-95344784D01*
X134358036Y-95344784D01*
X134345498Y-95351172D01*
X134327237Y-95358736D01*
X134313851Y-95363086D01*
X134313850Y-95363087D01*
X134304419Y-95366151D01*
X134296399Y-95371978D01*
X134296397Y-95371979D01*
X134285012Y-95380251D01*
X134268159Y-95390579D01*
X134246780Y-95401472D01*
X134151472Y-95496780D01*
X134151471Y-95496782D01*
X132246780Y-97401472D01*
X132151472Y-97496780D01*
X132140577Y-97518163D01*
X132130253Y-97535009D01*
X132116151Y-97554419D01*
X132113087Y-97563850D01*
X132113085Y-97563853D01*
X132108736Y-97577237D01*
X132101172Y-97595498D01*
X132097042Y-97603605D01*
X132090281Y-97616874D01*
X132088730Y-97626668D01*
X132086528Y-97640570D01*
X132081914Y-97659790D01*
X132074500Y-97682607D01*
X132074500Y-101521562D01*
X132054498Y-101589683D01*
X132037595Y-101610657D01*
X127726696Y-105921556D01*
X127664384Y-105955582D01*
X127654053Y-105957382D01*
X127606291Y-105963670D01*
X127598664Y-105966829D01*
X127598661Y-105966830D01*
X127510807Y-106003220D01*
X127472375Y-106019139D01*
X127357379Y-106107379D01*
X127269139Y-106222375D01*
X127213670Y-106356291D01*
X127194750Y-106500000D01*
X126351747Y-106500000D01*
X125462405Y-105610657D01*
X125428379Y-105548345D01*
X125425500Y-105521562D01*
X125425500Y-100682607D01*
X125422437Y-100673180D01*
X125422436Y-100673173D01*
X125418087Y-100659788D01*
X125413473Y-100640569D01*
X125411271Y-100626669D01*
X125411270Y-100626666D01*
X125409719Y-100616874D01*
X125398830Y-100595503D01*
X125391265Y-100577239D01*
X125386915Y-100563852D01*
X125386914Y-100563849D01*
X125383850Y-100554420D01*
X125369744Y-100535006D01*
X125359416Y-100518150D01*
X125353032Y-100505620D01*
X125348528Y-100496780D01*
X123003220Y-98151472D01*
X122981837Y-98140577D01*
X122964991Y-98130253D01*
X122945581Y-98116151D01*
X122936150Y-98113087D01*
X122936147Y-98113085D01*
X122922763Y-98108736D01*
X122904502Y-98101172D01*
X122891964Y-98094784D01*
X122891963Y-98094784D01*
X122883126Y-98090281D01*
X122859429Y-98086528D01*
X122840210Y-98081914D01*
X122817393Y-98074500D01*
X120142544Y-98074500D01*
X120074423Y-98054498D01*
X120065839Y-98048462D01*
X120034175Y-98024165D01*
X120027625Y-98019139D01*
X119893709Y-97963670D01*
X119750000Y-97944750D01*
X119606291Y-97963670D01*
X119472375Y-98019139D01*
X119357379Y-98107379D01*
X119269139Y-98222375D01*
X119213670Y-98356291D01*
X119194750Y-98500000D01*
X114225500Y-98500000D01*
X114225500Y-98249148D01*
X114245502Y-98181027D01*
X114262405Y-98160053D01*
X115113044Y-97309414D01*
X115153922Y-97282100D01*
X115269993Y-97234023D01*
X115269998Y-97234020D01*
X115277625Y-97230861D01*
X115392621Y-97142621D01*
X115480861Y-97027625D01*
X115536330Y-96893709D01*
X115555250Y-96750000D01*
X115536330Y-96606291D01*
X115480861Y-96472375D01*
X115392621Y-96357379D01*
X115277625Y-96269139D01*
X115143709Y-96213670D01*
X115000000Y-96194750D01*
X114856291Y-96213670D01*
X114722375Y-96269139D01*
X114607379Y-96357379D01*
X114519139Y-96472375D01*
X114515980Y-96480002D01*
X114515977Y-96480007D01*
X114467900Y-96596078D01*
X114440586Y-96636956D01*
X113589947Y-97487595D01*
X113527635Y-97521621D01*
X113500852Y-97524500D01*
X113212144Y-97524500D01*
X113144023Y-97504498D01*
X113097530Y-97450842D01*
X113094243Y-97441273D01*
X113093851Y-97441420D01*
X113082852Y-97412080D01*
X113043526Y-97307176D01*
X113038146Y-97299997D01*
X113038144Y-97299994D01*
X112962928Y-97199635D01*
X112957546Y-97192454D01*
X112939748Y-97179115D01*
X112850006Y-97111856D01*
X112850003Y-97111854D01*
X112842824Y-97106474D01*
X112736280Y-97066533D01*
X112715975Y-97058921D01*
X112715973Y-97058921D01*
X112708580Y-97056149D01*
X112700730Y-97055296D01*
X112700729Y-97055296D01*
X112650774Y-97049869D01*
X112650773Y-97049869D01*
X112647377Y-97049500D01*
X112250059Y-97049500D01*
X111852624Y-97049501D01*
X111849230Y-97049870D01*
X111849224Y-97049870D01*
X111799278Y-97055295D01*
X111799274Y-97055296D01*
X111791420Y-97056149D01*
X111657176Y-97106474D01*
X111649997Y-97111854D01*
X111649994Y-97111856D01*
X111560252Y-97179115D01*
X111542454Y-97192454D01*
X111537072Y-97199635D01*
X111461856Y-97299994D01*
X111461854Y-97299997D01*
X111456474Y-97307176D01*
X111443575Y-97341585D01*
X111411659Y-97426723D01*
X111406149Y-97441420D01*
X111399500Y-97502623D01*
X111399501Y-98497376D01*
X111399870Y-98500770D01*
X111399870Y-98500776D01*
X111404826Y-98546396D01*
X111406149Y-98558580D01*
X111456474Y-98692824D01*
X111484982Y-98730861D01*
X111496854Y-98746702D01*
X111521703Y-98813208D01*
X111506651Y-98882591D01*
X111462333Y-98929412D01*
X111432190Y-98948066D01*
X111420792Y-98957099D01*
X111306261Y-99071829D01*
X111297249Y-99083240D01*
X111212184Y-99221242D01*
X111211679Y-99222325D01*
X111211137Y-99222940D01*
X111208342Y-99227475D01*
X111207566Y-99226997D01*
X111164762Y-99275610D01*
X111096485Y-99295071D01*
X111028525Y-99274529D01*
X110996659Y-99244641D01*
X110962929Y-99199636D01*
X110962928Y-99199635D01*
X110957546Y-99192454D01*
X110881580Y-99135520D01*
X110850008Y-99111858D01*
X110850007Y-99111858D01*
X110845614Y-99108565D01*
X110845612Y-99108563D01*
X110842824Y-99106474D01*
X110843126Y-99106072D01*
X110797418Y-99060261D01*
X110782404Y-98990870D01*
X110807290Y-98924378D01*
X110842852Y-98893563D01*
X110842824Y-98893526D01*
X110843348Y-98893134D01*
X110843354Y-98893129D01*
X110857415Y-98882591D01*
X110950365Y-98812928D01*
X110957546Y-98807546D01*
X110962928Y-98800365D01*
X111038144Y-98700006D01*
X111038146Y-98700003D01*
X111043526Y-98692824D01*
X111093851Y-98558580D01*
X111096412Y-98535011D01*
X111100131Y-98500774D01*
X111100131Y-98500773D01*
X111100500Y-98497377D01*
X111100499Y-97502624D01*
X111100012Y-97498138D01*
X111094705Y-97449278D01*
X111094704Y-97449274D01*
X111093851Y-97441420D01*
X111043526Y-97307176D01*
X111038146Y-97299997D01*
X111038144Y-97299994D01*
X110962928Y-97199635D01*
X110957546Y-97192454D01*
X110939748Y-97179115D01*
X110850006Y-97111856D01*
X110850003Y-97111854D01*
X110842824Y-97106474D01*
X110736280Y-97066533D01*
X110715975Y-97058921D01*
X110715973Y-97058921D01*
X110708580Y-97056149D01*
X110700730Y-97055296D01*
X110700729Y-97055296D01*
X110650774Y-97049869D01*
X110650773Y-97049869D01*
X110647377Y-97049500D01*
X110250059Y-97049500D01*
X109852624Y-97049501D01*
X109849230Y-97049870D01*
X109849224Y-97049870D01*
X109799278Y-97055295D01*
X109799274Y-97055296D01*
X109791420Y-97056149D01*
X109657176Y-97106474D01*
X109649997Y-97111854D01*
X109649994Y-97111856D01*
X109560252Y-97179115D01*
X109542454Y-97192454D01*
X109537072Y-97199635D01*
X109461856Y-97299994D01*
X109461854Y-97299997D01*
X109456474Y-97307176D01*
X109443575Y-97341585D01*
X109411659Y-97426723D01*
X109406149Y-97441420D01*
X109399500Y-97502623D01*
X109399501Y-97866874D01*
X109399501Y-98148500D01*
X109379499Y-98216621D01*
X109325843Y-98263114D01*
X109273501Y-98274500D01*
X106726020Y-98274500D01*
X106657899Y-98254498D01*
X106614769Y-98207654D01*
X106598418Y-98176902D01*
X106598417Y-98176900D01*
X106595522Y-98171456D01*
X106543262Y-98107379D01*
X106481605Y-98031780D01*
X106481602Y-98031777D01*
X106477710Y-98027005D01*
X106472056Y-98022327D01*
X106338834Y-97912116D01*
X106334085Y-97908187D01*
X106170116Y-97819529D01*
X106055891Y-97784171D01*
X106008435Y-97769481D01*
X105949276Y-97730230D01*
X105920728Y-97665226D01*
X105931856Y-97595107D01*
X105979127Y-97542135D01*
X106011810Y-97527757D01*
X106014557Y-97526990D01*
X106145387Y-97490462D01*
X106311768Y-97406417D01*
X106317339Y-97402065D01*
X106453794Y-97295454D01*
X106453795Y-97295453D01*
X106458655Y-97291656D01*
X106580454Y-97150550D01*
X106584959Y-97142621D01*
X106632505Y-97058924D01*
X106672526Y-96988474D01*
X106731364Y-96811601D01*
X106745770Y-96697566D01*
X106754285Y-96630170D01*
X106754286Y-96630163D01*
X106754727Y-96626668D01*
X106755099Y-96600000D01*
X106736909Y-96414487D01*
X106735128Y-96408588D01*
X106735127Y-96408583D01*
X106684814Y-96241939D01*
X106683033Y-96236040D01*
X106619287Y-96116151D01*
X106598416Y-96076898D01*
X106598414Y-96076895D01*
X106595522Y-96071456D01*
X106591632Y-96066686D01*
X106591629Y-96066682D01*
X106481605Y-95931780D01*
X106481602Y-95931777D01*
X106477710Y-95927005D01*
X106472056Y-95922327D01*
X106401505Y-95863962D01*
X106334085Y-95808187D01*
X106328668Y-95805258D01*
X106328662Y-95805254D01*
X106291572Y-95785200D01*
X106241163Y-95735206D01*
X106225500Y-95674364D01*
X106225500Y-95226499D01*
X106245502Y-95158378D01*
X106299158Y-95111885D01*
X106351500Y-95100499D01*
X106497376Y-95100499D01*
X106500770Y-95100130D01*
X106500776Y-95100130D01*
X106550722Y-95094705D01*
X106550726Y-95094704D01*
X106558580Y-95093851D01*
X106692824Y-95043526D01*
X106700003Y-95038146D01*
X106700006Y-95038144D01*
X106800365Y-94962928D01*
X106807546Y-94957546D01*
X106838067Y-94916822D01*
X106888144Y-94850006D01*
X106888146Y-94850003D01*
X106893526Y-94842824D01*
X106943851Y-94708580D01*
X106945354Y-94694750D01*
X106950131Y-94650774D01*
X106950131Y-94650773D01*
X106950500Y-94647377D01*
X106950499Y-93902624D01*
X106943851Y-93841420D01*
X106893526Y-93707176D01*
X106888146Y-93699997D01*
X106888144Y-93699994D01*
X106812928Y-93599635D01*
X106807546Y-93592454D01*
X106800365Y-93587072D01*
X106700006Y-93511856D01*
X106700003Y-93511854D01*
X106692824Y-93506474D01*
X106684422Y-93503324D01*
X106676545Y-93499012D01*
X106677913Y-93496513D01*
X106632762Y-93462594D01*
X106608065Y-93396031D01*
X106623275Y-93326683D01*
X106673562Y-93276567D01*
X106693884Y-93267733D01*
X106766782Y-93243413D01*
X106779962Y-93237239D01*
X106917807Y-93151937D01*
X106929208Y-93142901D01*
X107043739Y-93028171D01*
X107052751Y-93016760D01*
X107141658Y-92872525D01*
X107143877Y-92873893D01*
X107182732Y-92829763D01*
X107251009Y-92810301D01*
X107318970Y-92830842D01*
X107357146Y-92874821D01*
X107358906Y-92873732D01*
X107448063Y-93017807D01*
X107457099Y-93029208D01*
X107571829Y-93143739D01*
X107583240Y-93152751D01*
X107721243Y-93237816D01*
X107734426Y-93243964D01*
X107805895Y-93267669D01*
X107864255Y-93308100D01*
X107891492Y-93373664D01*
X107878959Y-93443545D01*
X107830634Y-93495557D01*
X107823451Y-93499006D01*
X107823455Y-93499012D01*
X107815578Y-93503324D01*
X107807176Y-93506474D01*
X107799997Y-93511854D01*
X107799994Y-93511856D01*
X107699635Y-93587072D01*
X107692454Y-93592454D01*
X107687072Y-93599635D01*
X107611856Y-93699994D01*
X107611854Y-93699997D01*
X107606474Y-93707176D01*
X107556149Y-93841420D01*
X107549500Y-93902623D01*
X107549501Y-94647376D01*
X107549870Y-94650770D01*
X107549870Y-94650776D01*
X107554764Y-94695828D01*
X107556149Y-94708580D01*
X107606474Y-94842824D01*
X107611854Y-94850003D01*
X107611856Y-94850006D01*
X107661933Y-94916822D01*
X107692454Y-94957546D01*
X107699635Y-94962928D01*
X107799989Y-95038140D01*
X107799991Y-95038141D01*
X107807176Y-95043526D01*
X107810817Y-95044891D01*
X107859153Y-95093333D01*
X107874500Y-95153598D01*
X107874500Y-95673539D01*
X107854498Y-95741660D01*
X107806875Y-95785201D01*
X107777023Y-95800807D01*
X107631752Y-95917608D01*
X107511935Y-96060401D01*
X107508971Y-96065793D01*
X107508968Y-96065797D01*
X107445872Y-96180568D01*
X107422135Y-96223746D01*
X107420274Y-96229613D01*
X107420273Y-96229615D01*
X107408738Y-96265979D01*
X107365772Y-96401424D01*
X107344994Y-96586665D01*
X107345821Y-96596513D01*
X107358072Y-96742400D01*
X107360592Y-96772414D01*
X107362291Y-96778339D01*
X107410224Y-96945502D01*
X107411971Y-96951595D01*
X107414790Y-96957080D01*
X107490725Y-97104832D01*
X107497176Y-97117385D01*
X107612959Y-97263468D01*
X107754912Y-97384279D01*
X107760290Y-97387285D01*
X107760292Y-97387286D01*
X107830857Y-97426723D01*
X107917627Y-97475217D01*
X108094907Y-97532819D01*
X108279998Y-97554890D01*
X108286133Y-97554418D01*
X108286135Y-97554418D01*
X108459710Y-97541062D01*
X108459715Y-97541061D01*
X108465851Y-97540589D01*
X108471781Y-97538933D01*
X108471783Y-97538933D01*
X108601831Y-97502623D01*
X108645387Y-97490462D01*
X108811768Y-97406417D01*
X108817339Y-97402065D01*
X108953794Y-97295454D01*
X108953795Y-97295453D01*
X108958655Y-97291656D01*
X109080454Y-97150550D01*
X109084959Y-97142621D01*
X109132505Y-97058924D01*
X109172526Y-96988474D01*
X109231364Y-96811601D01*
X109245770Y-96697566D01*
X109254285Y-96630170D01*
X109254286Y-96630163D01*
X109254727Y-96626668D01*
X109255099Y-96600000D01*
X109236909Y-96414487D01*
X109235128Y-96408588D01*
X109235127Y-96408583D01*
X109184814Y-96241939D01*
X109183033Y-96236040D01*
X109119287Y-96116151D01*
X109098416Y-96076898D01*
X109098414Y-96076895D01*
X109095522Y-96071456D01*
X109091632Y-96066686D01*
X109091629Y-96066682D01*
X108981605Y-95931780D01*
X108981602Y-95931777D01*
X108977710Y-95927005D01*
X108972056Y-95922327D01*
X108901505Y-95863962D01*
X108834085Y-95808187D01*
X108828668Y-95805258D01*
X108828662Y-95805254D01*
X108791572Y-95785200D01*
X108741163Y-95735206D01*
X108725500Y-95674364D01*
X108725500Y-95226499D01*
X108745502Y-95158378D01*
X108799158Y-95111885D01*
X108851500Y-95100499D01*
X108997376Y-95100499D01*
X109000770Y-95100130D01*
X109000776Y-95100130D01*
X109050722Y-95094705D01*
X109050726Y-95094704D01*
X109058580Y-95093851D01*
X109192824Y-95043526D01*
X109200003Y-95038146D01*
X109200006Y-95038144D01*
X109300365Y-94962928D01*
X109307546Y-94957546D01*
X109338067Y-94916822D01*
X109388144Y-94850006D01*
X109388146Y-94850003D01*
X109393526Y-94842824D01*
X109443851Y-94708580D01*
X109445354Y-94694750D01*
X109450131Y-94650774D01*
X109450131Y-94650773D01*
X109450500Y-94647377D01*
X109450499Y-93902624D01*
X109443851Y-93841420D01*
X109393526Y-93707176D01*
X109388146Y-93699997D01*
X109388144Y-93699994D01*
X109312928Y-93599635D01*
X109307546Y-93592454D01*
X109300365Y-93587072D01*
X109200006Y-93511856D01*
X109200003Y-93511854D01*
X109192824Y-93506474D01*
X109184422Y-93503324D01*
X109176545Y-93499012D01*
X109177913Y-93496513D01*
X109132762Y-93462594D01*
X109108065Y-93396031D01*
X109123275Y-93326683D01*
X109173562Y-93276567D01*
X109193884Y-93267733D01*
X109266782Y-93243413D01*
X109279962Y-93237239D01*
X109417807Y-93151937D01*
X109429208Y-93142901D01*
X109543739Y-93028171D01*
X109552751Y-93016760D01*
X109637816Y-92878757D01*
X109643963Y-92865576D01*
X109695138Y-92711290D01*
X109698005Y-92697914D01*
X109707672Y-92603562D01*
X109708000Y-92597146D01*
X109708000Y-92497115D01*
X109703525Y-92481876D01*
X109702135Y-92480671D01*
X109694452Y-92479000D01*
X108372000Y-92479000D01*
X108303879Y-92458998D01*
X108257386Y-92405342D01*
X108246000Y-92353000D01*
X108246000Y-91952885D01*
X108754000Y-91952885D01*
X108758475Y-91968124D01*
X108759865Y-91969329D01*
X108767548Y-91971000D01*
X109689884Y-91971000D01*
X109705123Y-91966525D01*
X109706328Y-91965135D01*
X109707999Y-91957452D01*
X109707999Y-91852905D01*
X109707662Y-91846386D01*
X109697743Y-91750794D01*
X109694851Y-91737400D01*
X109643412Y-91583216D01*
X109637239Y-91570038D01*
X109551937Y-91432193D01*
X109542901Y-91420792D01*
X109428171Y-91306261D01*
X109416760Y-91297249D01*
X109278757Y-91212184D01*
X109265576Y-91206037D01*
X109111290Y-91154862D01*
X109097914Y-91151995D01*
X109003562Y-91142328D01*
X108997145Y-91142000D01*
X108772115Y-91142000D01*
X108756876Y-91146475D01*
X108755671Y-91147865D01*
X108754000Y-91155548D01*
X108754000Y-91952885D01*
X108246000Y-91952885D01*
X108246000Y-91160116D01*
X108241525Y-91144877D01*
X108240135Y-91143672D01*
X108232452Y-91142001D01*
X108002905Y-91142001D01*
X107996386Y-91142338D01*
X107900794Y-91152257D01*
X107887400Y-91155149D01*
X107733216Y-91206588D01*
X107720038Y-91212761D01*
X107582193Y-91298063D01*
X107570792Y-91307099D01*
X107456261Y-91421829D01*
X107447249Y-91433240D01*
X107358342Y-91577475D01*
X107356123Y-91576107D01*
X107317268Y-91620237D01*
X107248991Y-91639699D01*
X107181030Y-91619158D01*
X107142854Y-91575179D01*
X107141094Y-91576268D01*
X107051937Y-91432193D01*
X107042901Y-91420792D01*
X106928171Y-91306261D01*
X106916760Y-91297249D01*
X106778757Y-91212184D01*
X106765576Y-91206037D01*
X106611290Y-91154862D01*
X106597914Y-91151995D01*
X106503562Y-91142328D01*
X106497145Y-91142000D01*
X106272115Y-91142000D01*
X106256876Y-91146475D01*
X106255671Y-91147865D01*
X106254000Y-91155548D01*
X106254000Y-92353000D01*
X106233998Y-92421121D01*
X106180342Y-92467614D01*
X106128000Y-92479000D01*
X104810116Y-92479000D01*
X104781076Y-92487527D01*
X104710080Y-92487527D01*
X104650354Y-92449143D01*
X104633612Y-92424420D01*
X104523553Y-92211183D01*
X104519122Y-92203866D01*
X104400031Y-92034417D01*
X104389509Y-92026037D01*
X104376121Y-92033089D01*
X103172022Y-93237188D01*
X103164408Y-93251132D01*
X102434356Y-93251132D01*
X102435592Y-93248868D01*
X102435461Y-93247035D01*
X102431210Y-93240420D01*
X101223814Y-92033024D01*
X101211804Y-92026466D01*
X101200064Y-92035434D01*
X101091935Y-92185911D01*
X101087418Y-92193196D01*
X100963325Y-92427567D01*
X100959839Y-92435395D01*
X100868700Y-92684446D01*
X100866311Y-92692670D01*
X100809812Y-92951795D01*
X100808563Y-92960250D01*
X100787754Y-93224653D01*
X100787665Y-93233204D01*
X100250500Y-93233204D01*
X100250500Y-91662500D01*
X101576584Y-91662500D01*
X101582980Y-91673770D01*
X102787188Y-92877978D01*
X102801132Y-92885592D01*
X102802965Y-92885461D01*
X102809580Y-92881210D01*
X103737905Y-91952885D01*
X104792000Y-91952885D01*
X104796475Y-91968124D01*
X104797865Y-91969329D01*
X104805548Y-91971000D01*
X105727885Y-91971000D01*
X105743124Y-91966525D01*
X105744329Y-91965135D01*
X105746000Y-91957452D01*
X105746000Y-91160116D01*
X105741525Y-91144877D01*
X105740135Y-91143672D01*
X105732452Y-91142001D01*
X105502905Y-91142001D01*
X105496386Y-91142338D01*
X105400794Y-91152257D01*
X105387400Y-91155149D01*
X105233216Y-91206588D01*
X105220038Y-91212761D01*
X105082193Y-91298063D01*
X105070792Y-91307099D01*
X104956261Y-91421829D01*
X104947249Y-91433240D01*
X104862184Y-91571243D01*
X104856037Y-91584424D01*
X104804862Y-91738710D01*
X104801995Y-91752086D01*
X104792328Y-91846438D01*
X104792000Y-91852855D01*
X104792000Y-91952885D01*
X103737905Y-91952885D01*
X104016604Y-91674186D01*
X104023795Y-91661017D01*
X104016473Y-91650780D01*
X103969233Y-91612115D01*
X103962261Y-91607160D01*
X103736122Y-91468582D01*
X103728552Y-91464624D01*
X103485704Y-91358022D01*
X103477644Y-91355120D01*
X103222592Y-91282467D01*
X103214214Y-91280685D01*
X102951656Y-91243318D01*
X102943111Y-91242691D01*
X102677908Y-91241302D01*
X102669374Y-91241839D01*
X102406433Y-91276456D01*
X102398035Y-91278149D01*
X102142238Y-91348127D01*
X102134143Y-91350946D01*
X101890199Y-91454997D01*
X101882577Y-91458881D01*
X101655013Y-91595075D01*
X101647981Y-91599962D01*
X101585053Y-91650377D01*
X101576584Y-91662500D01*
X100250500Y-91662500D01*
X100250500Y-88876500D01*
X100270502Y-88808379D01*
X100324158Y-88761886D01*
X100376500Y-88750500D01*
X179123500Y-88750500D01*
X179191621Y-88770502D01*
G37*
%TD.AperFunction*%
%TD*%
M02*
