%TF.GenerationSoftware,KiCad,Pcbnew,(6.0.7)*%
%TF.CreationDate,2023-03-28T22:24:35-04:00*%
%TF.ProjectId,minirib-usb,6d696e69-7269-4622-9d75-73622e6b6963,D*%
%TF.SameCoordinates,Original*%
%TF.FileFunction,Legend,Top*%
%TF.FilePolarity,Positive*%
%FSLAX46Y46*%
G04 Gerber Fmt 4.6, Leading zero omitted, Abs format (unit mm)*
G04 Created by KiCad (PCBNEW (6.0.7)) date 2023-03-28 22:24:35*
%MOMM*%
%LPD*%
G01*
G04 APERTURE LIST*
%ADD10C,0.150000*%
%ADD11C,0.120000*%
G04 APERTURE END LIST*
D10*
%TO.C,R10*%
X132517857Y-107339285D02*
X132267857Y-106982142D01*
X132089285Y-107339285D02*
X132089285Y-106589285D01*
X132375000Y-106589285D01*
X132446428Y-106625000D01*
X132482142Y-106660714D01*
X132517857Y-106732142D01*
X132517857Y-106839285D01*
X132482142Y-106910714D01*
X132446428Y-106946428D01*
X132375000Y-106982142D01*
X132089285Y-106982142D01*
X133232142Y-107339285D02*
X132803571Y-107339285D01*
X133017857Y-107339285D02*
X133017857Y-106589285D01*
X132946428Y-106696428D01*
X132875000Y-106767857D01*
X132803571Y-106803571D01*
X133696428Y-106589285D02*
X133767857Y-106589285D01*
X133839285Y-106625000D01*
X133875000Y-106660714D01*
X133910714Y-106732142D01*
X133946428Y-106875000D01*
X133946428Y-107053571D01*
X133910714Y-107196428D01*
X133875000Y-107267857D01*
X133839285Y-107303571D01*
X133767857Y-107339285D01*
X133696428Y-107339285D01*
X133625000Y-107303571D01*
X133589285Y-107267857D01*
X133553571Y-107196428D01*
X133517857Y-107053571D01*
X133517857Y-106875000D01*
X133553571Y-106732142D01*
X133589285Y-106660714D01*
X133625000Y-106625000D01*
X133696428Y-106589285D01*
%TO.C,H4*%
X102488095Y-113502380D02*
X102488095Y-112502380D01*
X102488095Y-112978571D02*
X103059523Y-112978571D01*
X103059523Y-113502380D02*
X103059523Y-112502380D01*
X103964285Y-112835714D02*
X103964285Y-113502380D01*
X103726190Y-112454761D02*
X103488095Y-113169047D01*
X104107142Y-113169047D01*
%TO.C,H1*%
X155988095Y-90002380D02*
X155988095Y-89002380D01*
X155988095Y-89478571D02*
X156559523Y-89478571D01*
X156559523Y-90002380D02*
X156559523Y-89002380D01*
X157559523Y-90002380D02*
X156988095Y-90002380D01*
X157273809Y-90002380D02*
X157273809Y-89002380D01*
X157178571Y-89145238D01*
X157083333Y-89240476D01*
X156988095Y-89288095D01*
%TO.C,H2*%
X155988095Y-113502380D02*
X155988095Y-112502380D01*
X155988095Y-112978571D02*
X156559523Y-112978571D01*
X156559523Y-113502380D02*
X156559523Y-112502380D01*
X156988095Y-112597619D02*
X157035714Y-112550000D01*
X157130952Y-112502380D01*
X157369047Y-112502380D01*
X157464285Y-112550000D01*
X157511904Y-112597619D01*
X157559523Y-112692857D01*
X157559523Y-112788095D01*
X157511904Y-112930952D01*
X156940476Y-113502380D01*
X157559523Y-113502380D01*
%TO.C,D3*%
X107946428Y-117339285D02*
X107946428Y-116589285D01*
X108125000Y-116589285D01*
X108232142Y-116625000D01*
X108303571Y-116696428D01*
X108339285Y-116767857D01*
X108375000Y-116910714D01*
X108375000Y-117017857D01*
X108339285Y-117160714D01*
X108303571Y-117232142D01*
X108232142Y-117303571D01*
X108125000Y-117339285D01*
X107946428Y-117339285D01*
X108625000Y-116589285D02*
X109089285Y-116589285D01*
X108839285Y-116875000D01*
X108946428Y-116875000D01*
X109017857Y-116910714D01*
X109053571Y-116946428D01*
X109089285Y-117017857D01*
X109089285Y-117196428D01*
X109053571Y-117267857D01*
X109017857Y-117303571D01*
X108946428Y-117339285D01*
X108732142Y-117339285D01*
X108660714Y-117303571D01*
X108625000Y-117267857D01*
%TO.C,R3*%
X129625000Y-113339285D02*
X129375000Y-112982142D01*
X129196428Y-113339285D02*
X129196428Y-112589285D01*
X129482142Y-112589285D01*
X129553571Y-112625000D01*
X129589285Y-112660714D01*
X129625000Y-112732142D01*
X129625000Y-112839285D01*
X129589285Y-112910714D01*
X129553571Y-112946428D01*
X129482142Y-112982142D01*
X129196428Y-112982142D01*
X129875000Y-112589285D02*
X130339285Y-112589285D01*
X130089285Y-112875000D01*
X130196428Y-112875000D01*
X130267857Y-112910714D01*
X130303571Y-112946428D01*
X130339285Y-113017857D01*
X130339285Y-113196428D01*
X130303571Y-113267857D01*
X130267857Y-113303571D01*
X130196428Y-113339285D01*
X129982142Y-113339285D01*
X129910714Y-113303571D01*
X129875000Y-113267857D01*
%TO.C,J4*%
X122122380Y-117833333D02*
X122836666Y-117833333D01*
X122979523Y-117880952D01*
X123074761Y-117976190D01*
X123122380Y-118119047D01*
X123122380Y-118214285D01*
X122455714Y-116928571D02*
X123122380Y-116928571D01*
X122074761Y-117166666D02*
X122789047Y-117404761D01*
X122789047Y-116785714D01*
%TO.C,R1*%
X152202380Y-106921666D02*
X151726190Y-107255000D01*
X152202380Y-107493095D02*
X151202380Y-107493095D01*
X151202380Y-107112142D01*
X151250000Y-107016904D01*
X151297619Y-106969285D01*
X151392857Y-106921666D01*
X151535714Y-106921666D01*
X151630952Y-106969285D01*
X151678571Y-107016904D01*
X151726190Y-107112142D01*
X151726190Y-107493095D01*
X152202380Y-105969285D02*
X152202380Y-106540714D01*
X152202380Y-106255000D02*
X151202380Y-106255000D01*
X151345238Y-106350238D01*
X151440476Y-106445476D01*
X151488095Y-106540714D01*
%TO.C,R14*%
X118339285Y-91982142D02*
X117982142Y-92232142D01*
X118339285Y-92410714D02*
X117589285Y-92410714D01*
X117589285Y-92125000D01*
X117625000Y-92053571D01*
X117660714Y-92017857D01*
X117732142Y-91982142D01*
X117839285Y-91982142D01*
X117910714Y-92017857D01*
X117946428Y-92053571D01*
X117982142Y-92125000D01*
X117982142Y-92410714D01*
X118339285Y-91267857D02*
X118339285Y-91696428D01*
X118339285Y-91482142D02*
X117589285Y-91482142D01*
X117696428Y-91553571D01*
X117767857Y-91625000D01*
X117803571Y-91696428D01*
X117839285Y-90625000D02*
X118339285Y-90625000D01*
X117553571Y-90803571D02*
X118089285Y-90982142D01*
X118089285Y-90517857D01*
%TO.C,D7*%
X141946428Y-97839285D02*
X141946428Y-97089285D01*
X142125000Y-97089285D01*
X142232142Y-97125000D01*
X142303571Y-97196428D01*
X142339285Y-97267857D01*
X142375000Y-97410714D01*
X142375000Y-97517857D01*
X142339285Y-97660714D01*
X142303571Y-97732142D01*
X142232142Y-97803571D01*
X142125000Y-97839285D01*
X141946428Y-97839285D01*
X142625000Y-97089285D02*
X143125000Y-97089285D01*
X142803571Y-97839285D01*
%TO.C,U2*%
X118178571Y-101589285D02*
X118178571Y-102196428D01*
X118214285Y-102267857D01*
X118250000Y-102303571D01*
X118321428Y-102339285D01*
X118464285Y-102339285D01*
X118535714Y-102303571D01*
X118571428Y-102267857D01*
X118607142Y-102196428D01*
X118607142Y-101589285D01*
X118928571Y-101660714D02*
X118964285Y-101625000D01*
X119035714Y-101589285D01*
X119214285Y-101589285D01*
X119285714Y-101625000D01*
X119321428Y-101660714D01*
X119357142Y-101732142D01*
X119357142Y-101803571D01*
X119321428Y-101910714D01*
X118892857Y-102339285D01*
X119357142Y-102339285D01*
%TO.C,R13*%
X112339285Y-91982142D02*
X111982142Y-92232142D01*
X112339285Y-92410714D02*
X111589285Y-92410714D01*
X111589285Y-92125000D01*
X111625000Y-92053571D01*
X111660714Y-92017857D01*
X111732142Y-91982142D01*
X111839285Y-91982142D01*
X111910714Y-92017857D01*
X111946428Y-92053571D01*
X111982142Y-92125000D01*
X111982142Y-92410714D01*
X112339285Y-91267857D02*
X112339285Y-91696428D01*
X112339285Y-91482142D02*
X111589285Y-91482142D01*
X111696428Y-91553571D01*
X111767857Y-91625000D01*
X111803571Y-91696428D01*
X111589285Y-91017857D02*
X111589285Y-90553571D01*
X111875000Y-90803571D01*
X111875000Y-90696428D01*
X111910714Y-90625000D01*
X111946428Y-90589285D01*
X112017857Y-90553571D01*
X112196428Y-90553571D01*
X112267857Y-90589285D01*
X112303571Y-90625000D01*
X112339285Y-90696428D01*
X112339285Y-90910714D01*
X112303571Y-90982142D01*
X112267857Y-91017857D01*
%TO.C,Q2*%
X122910714Y-112821428D02*
X122875000Y-112892857D01*
X122803571Y-112964285D01*
X122696428Y-113071428D01*
X122660714Y-113142857D01*
X122660714Y-113214285D01*
X122839285Y-113178571D02*
X122803571Y-113250000D01*
X122732142Y-113321428D01*
X122589285Y-113357142D01*
X122339285Y-113357142D01*
X122196428Y-113321428D01*
X122125000Y-113250000D01*
X122089285Y-113178571D01*
X122089285Y-113035714D01*
X122125000Y-112964285D01*
X122196428Y-112892857D01*
X122339285Y-112857142D01*
X122589285Y-112857142D01*
X122732142Y-112892857D01*
X122803571Y-112964285D01*
X122839285Y-113035714D01*
X122839285Y-113178571D01*
X122160714Y-112571428D02*
X122125000Y-112535714D01*
X122089285Y-112464285D01*
X122089285Y-112285714D01*
X122125000Y-112214285D01*
X122160714Y-112178571D01*
X122232142Y-112142857D01*
X122303571Y-112142857D01*
X122410714Y-112178571D01*
X122839285Y-112607142D01*
X122839285Y-112142857D01*
%TO.C,D4*%
X110446428Y-117339285D02*
X110446428Y-116589285D01*
X110625000Y-116589285D01*
X110732142Y-116625000D01*
X110803571Y-116696428D01*
X110839285Y-116767857D01*
X110875000Y-116910714D01*
X110875000Y-117017857D01*
X110839285Y-117160714D01*
X110803571Y-117232142D01*
X110732142Y-117303571D01*
X110625000Y-117339285D01*
X110446428Y-117339285D01*
X111517857Y-116839285D02*
X111517857Y-117339285D01*
X111339285Y-116553571D02*
X111160714Y-117089285D01*
X111625000Y-117089285D01*
%TO.C,C2*%
X146267857Y-111125000D02*
X146303571Y-111160714D01*
X146339285Y-111267857D01*
X146339285Y-111339285D01*
X146303571Y-111446428D01*
X146232142Y-111517857D01*
X146160714Y-111553571D01*
X146017857Y-111589285D01*
X145910714Y-111589285D01*
X145767857Y-111553571D01*
X145696428Y-111517857D01*
X145625000Y-111446428D01*
X145589285Y-111339285D01*
X145589285Y-111267857D01*
X145625000Y-111160714D01*
X145660714Y-111125000D01*
X145660714Y-110839285D02*
X145625000Y-110803571D01*
X145589285Y-110732142D01*
X145589285Y-110553571D01*
X145625000Y-110482142D01*
X145660714Y-110446428D01*
X145732142Y-110410714D01*
X145803571Y-110410714D01*
X145910714Y-110446428D01*
X146339285Y-110875000D01*
X146339285Y-110410714D01*
%TO.C,R15*%
X121517857Y-107339285D02*
X121267857Y-106982142D01*
X121089285Y-107339285D02*
X121089285Y-106589285D01*
X121375000Y-106589285D01*
X121446428Y-106625000D01*
X121482142Y-106660714D01*
X121517857Y-106732142D01*
X121517857Y-106839285D01*
X121482142Y-106910714D01*
X121446428Y-106946428D01*
X121375000Y-106982142D01*
X121089285Y-106982142D01*
X122232142Y-107339285D02*
X121803571Y-107339285D01*
X122017857Y-107339285D02*
X122017857Y-106589285D01*
X121946428Y-106696428D01*
X121875000Y-106767857D01*
X121803571Y-106803571D01*
X122910714Y-106589285D02*
X122553571Y-106589285D01*
X122517857Y-106946428D01*
X122553571Y-106910714D01*
X122625000Y-106875000D01*
X122803571Y-106875000D01*
X122875000Y-106910714D01*
X122910714Y-106946428D01*
X122946428Y-107017857D01*
X122946428Y-107196428D01*
X122910714Y-107267857D01*
X122875000Y-107303571D01*
X122803571Y-107339285D01*
X122625000Y-107339285D01*
X122553571Y-107303571D01*
X122517857Y-107267857D01*
%TO.C,R7*%
X115839285Y-105125000D02*
X115482142Y-105375000D01*
X115839285Y-105553571D02*
X115089285Y-105553571D01*
X115089285Y-105267857D01*
X115125000Y-105196428D01*
X115160714Y-105160714D01*
X115232142Y-105125000D01*
X115339285Y-105125000D01*
X115410714Y-105160714D01*
X115446428Y-105196428D01*
X115482142Y-105267857D01*
X115482142Y-105553571D01*
X115089285Y-104875000D02*
X115089285Y-104375000D01*
X115839285Y-104696428D01*
%TO.C,R6*%
X115839285Y-102625000D02*
X115482142Y-102875000D01*
X115839285Y-103053571D02*
X115089285Y-103053571D01*
X115089285Y-102767857D01*
X115125000Y-102696428D01*
X115160714Y-102660714D01*
X115232142Y-102625000D01*
X115339285Y-102625000D01*
X115410714Y-102660714D01*
X115446428Y-102696428D01*
X115482142Y-102767857D01*
X115482142Y-103053571D01*
X115089285Y-101982142D02*
X115089285Y-102125000D01*
X115125000Y-102196428D01*
X115160714Y-102232142D01*
X115267857Y-102303571D01*
X115410714Y-102339285D01*
X115696428Y-102339285D01*
X115767857Y-102303571D01*
X115803571Y-102267857D01*
X115839285Y-102196428D01*
X115839285Y-102053571D01*
X115803571Y-101982142D01*
X115767857Y-101946428D01*
X115696428Y-101910714D01*
X115517857Y-101910714D01*
X115446428Y-101946428D01*
X115410714Y-101982142D01*
X115375000Y-102053571D01*
X115375000Y-102196428D01*
X115410714Y-102267857D01*
X115446428Y-102303571D01*
X115517857Y-102339285D01*
%TO.C,R5*%
X117625000Y-118339285D02*
X117375000Y-117982142D01*
X117196428Y-118339285D02*
X117196428Y-117589285D01*
X117482142Y-117589285D01*
X117553571Y-117625000D01*
X117589285Y-117660714D01*
X117625000Y-117732142D01*
X117625000Y-117839285D01*
X117589285Y-117910714D01*
X117553571Y-117946428D01*
X117482142Y-117982142D01*
X117196428Y-117982142D01*
X118303571Y-117589285D02*
X117946428Y-117589285D01*
X117910714Y-117946428D01*
X117946428Y-117910714D01*
X118017857Y-117875000D01*
X118196428Y-117875000D01*
X118267857Y-117910714D01*
X118303571Y-117946428D01*
X118339285Y-118017857D01*
X118339285Y-118196428D01*
X118303571Y-118267857D01*
X118267857Y-118303571D01*
X118196428Y-118339285D01*
X118017857Y-118339285D01*
X117946428Y-118303571D01*
X117910714Y-118267857D01*
%TO.C,D6*%
X118339285Y-94553571D02*
X117589285Y-94553571D01*
X117589285Y-94375000D01*
X117625000Y-94267857D01*
X117696428Y-94196428D01*
X117767857Y-94160714D01*
X117910714Y-94125000D01*
X118017857Y-94125000D01*
X118160714Y-94160714D01*
X118232142Y-94196428D01*
X118303571Y-94267857D01*
X118339285Y-94375000D01*
X118339285Y-94553571D01*
X117589285Y-93482142D02*
X117589285Y-93625000D01*
X117625000Y-93696428D01*
X117660714Y-93732142D01*
X117767857Y-93803571D01*
X117910714Y-93839285D01*
X118196428Y-93839285D01*
X118267857Y-93803571D01*
X118303571Y-93767857D01*
X118339285Y-93696428D01*
X118339285Y-93553571D01*
X118303571Y-93482142D01*
X118267857Y-93446428D01*
X118196428Y-93410714D01*
X118017857Y-93410714D01*
X117946428Y-93446428D01*
X117910714Y-93482142D01*
X117875000Y-93553571D01*
X117875000Y-93696428D01*
X117910714Y-93767857D01*
X117946428Y-93803571D01*
X118017857Y-93839285D01*
%TO.C,R12*%
X150767857Y-97839285D02*
X150517857Y-97482142D01*
X150339285Y-97839285D02*
X150339285Y-97089285D01*
X150625000Y-97089285D01*
X150696428Y-97125000D01*
X150732142Y-97160714D01*
X150767857Y-97232142D01*
X150767857Y-97339285D01*
X150732142Y-97410714D01*
X150696428Y-97446428D01*
X150625000Y-97482142D01*
X150339285Y-97482142D01*
X151482142Y-97839285D02*
X151053571Y-97839285D01*
X151267857Y-97839285D02*
X151267857Y-97089285D01*
X151196428Y-97196428D01*
X151125000Y-97267857D01*
X151053571Y-97303571D01*
X151767857Y-97160714D02*
X151803571Y-97125000D01*
X151875000Y-97089285D01*
X152053571Y-97089285D01*
X152125000Y-97125000D01*
X152160714Y-97160714D01*
X152196428Y-97232142D01*
X152196428Y-97303571D01*
X152160714Y-97410714D01*
X151732142Y-97839285D01*
X152196428Y-97839285D01*
%TO.C,H3*%
X102488095Y-90002380D02*
X102488095Y-89002380D01*
X102488095Y-89478571D02*
X103059523Y-89478571D01*
X103059523Y-90002380D02*
X103059523Y-89002380D01*
X103440476Y-89002380D02*
X104059523Y-89002380D01*
X103726190Y-89383333D01*
X103869047Y-89383333D01*
X103964285Y-89430952D01*
X104011904Y-89478571D01*
X104059523Y-89573809D01*
X104059523Y-89811904D01*
X104011904Y-89907142D01*
X103964285Y-89954761D01*
X103869047Y-90002380D01*
X103583333Y-90002380D01*
X103488095Y-89954761D01*
X103440476Y-89907142D01*
%TO.C,R16*%
X127017857Y-107339285D02*
X126767857Y-106982142D01*
X126589285Y-107339285D02*
X126589285Y-106589285D01*
X126875000Y-106589285D01*
X126946428Y-106625000D01*
X126982142Y-106660714D01*
X127017857Y-106732142D01*
X127017857Y-106839285D01*
X126982142Y-106910714D01*
X126946428Y-106946428D01*
X126875000Y-106982142D01*
X126589285Y-106982142D01*
X127732142Y-107339285D02*
X127303571Y-107339285D01*
X127517857Y-107339285D02*
X127517857Y-106589285D01*
X127446428Y-106696428D01*
X127375000Y-106767857D01*
X127303571Y-106803571D01*
X128375000Y-106589285D02*
X128232142Y-106589285D01*
X128160714Y-106625000D01*
X128125000Y-106660714D01*
X128053571Y-106767857D01*
X128017857Y-106910714D01*
X128017857Y-107196428D01*
X128053571Y-107267857D01*
X128089285Y-107303571D01*
X128160714Y-107339285D01*
X128303571Y-107339285D01*
X128375000Y-107303571D01*
X128410714Y-107267857D01*
X128446428Y-107196428D01*
X128446428Y-107017857D01*
X128410714Y-106946428D01*
X128375000Y-106910714D01*
X128303571Y-106875000D01*
X128160714Y-106875000D01*
X128089285Y-106910714D01*
X128053571Y-106946428D01*
X128017857Y-107017857D01*
%TO.C,C3*%
X115767857Y-107625000D02*
X115803571Y-107660714D01*
X115839285Y-107767857D01*
X115839285Y-107839285D01*
X115803571Y-107946428D01*
X115732142Y-108017857D01*
X115660714Y-108053571D01*
X115517857Y-108089285D01*
X115410714Y-108089285D01*
X115267857Y-108053571D01*
X115196428Y-108017857D01*
X115125000Y-107946428D01*
X115089285Y-107839285D01*
X115089285Y-107767857D01*
X115125000Y-107660714D01*
X115160714Y-107625000D01*
X115089285Y-107375000D02*
X115089285Y-106910714D01*
X115375000Y-107160714D01*
X115375000Y-107053571D01*
X115410714Y-106982142D01*
X115446428Y-106946428D01*
X115517857Y-106910714D01*
X115696428Y-106910714D01*
X115767857Y-106946428D01*
X115803571Y-106982142D01*
X115839285Y-107053571D01*
X115839285Y-107267857D01*
X115803571Y-107339285D01*
X115767857Y-107375000D01*
%TO.C,R2*%
X152197380Y-109171666D02*
X151721190Y-109505000D01*
X152197380Y-109743095D02*
X151197380Y-109743095D01*
X151197380Y-109362142D01*
X151245000Y-109266904D01*
X151292619Y-109219285D01*
X151387857Y-109171666D01*
X151530714Y-109171666D01*
X151625952Y-109219285D01*
X151673571Y-109266904D01*
X151721190Y-109362142D01*
X151721190Y-109743095D01*
X151292619Y-108790714D02*
X151245000Y-108743095D01*
X151197380Y-108647857D01*
X151197380Y-108409761D01*
X151245000Y-108314523D01*
X151292619Y-108266904D01*
X151387857Y-108219285D01*
X151483095Y-108219285D01*
X151625952Y-108266904D01*
X152197380Y-108838333D01*
X152197380Y-108219285D01*
%TO.C,R11*%
X131767857Y-113339285D02*
X131517857Y-112982142D01*
X131339285Y-113339285D02*
X131339285Y-112589285D01*
X131625000Y-112589285D01*
X131696428Y-112625000D01*
X131732142Y-112660714D01*
X131767857Y-112732142D01*
X131767857Y-112839285D01*
X131732142Y-112910714D01*
X131696428Y-112946428D01*
X131625000Y-112982142D01*
X131339285Y-112982142D01*
X132482142Y-113339285D02*
X132053571Y-113339285D01*
X132267857Y-113339285D02*
X132267857Y-112589285D01*
X132196428Y-112696428D01*
X132125000Y-112767857D01*
X132053571Y-112803571D01*
X133196428Y-113339285D02*
X132767857Y-113339285D01*
X132982142Y-113339285D02*
X132982142Y-112589285D01*
X132910714Y-112696428D01*
X132839285Y-112767857D01*
X132767857Y-112803571D01*
%TO.C,R18*%
X144517857Y-117839285D02*
X144267857Y-117482142D01*
X144089285Y-117839285D02*
X144089285Y-117089285D01*
X144375000Y-117089285D01*
X144446428Y-117125000D01*
X144482142Y-117160714D01*
X144517857Y-117232142D01*
X144517857Y-117339285D01*
X144482142Y-117410714D01*
X144446428Y-117446428D01*
X144375000Y-117482142D01*
X144089285Y-117482142D01*
X145232142Y-117839285D02*
X144803571Y-117839285D01*
X145017857Y-117839285D02*
X145017857Y-117089285D01*
X144946428Y-117196428D01*
X144875000Y-117267857D01*
X144803571Y-117303571D01*
X145660714Y-117410714D02*
X145589285Y-117375000D01*
X145553571Y-117339285D01*
X145517857Y-117267857D01*
X145517857Y-117232142D01*
X145553571Y-117160714D01*
X145589285Y-117125000D01*
X145660714Y-117089285D01*
X145803571Y-117089285D01*
X145875000Y-117125000D01*
X145910714Y-117160714D01*
X145946428Y-117232142D01*
X145946428Y-117267857D01*
X145910714Y-117339285D01*
X145875000Y-117375000D01*
X145803571Y-117410714D01*
X145660714Y-117410714D01*
X145589285Y-117446428D01*
X145553571Y-117482142D01*
X145517857Y-117553571D01*
X145517857Y-117696428D01*
X145553571Y-117767857D01*
X145589285Y-117803571D01*
X145660714Y-117839285D01*
X145803571Y-117839285D01*
X145875000Y-117803571D01*
X145910714Y-117767857D01*
X145946428Y-117696428D01*
X145946428Y-117553571D01*
X145910714Y-117482142D01*
X145875000Y-117446428D01*
X145803571Y-117410714D01*
%TO.C,Q3*%
X119660714Y-112821428D02*
X119625000Y-112892857D01*
X119553571Y-112964285D01*
X119446428Y-113071428D01*
X119410714Y-113142857D01*
X119410714Y-113214285D01*
X119589285Y-113178571D02*
X119553571Y-113250000D01*
X119482142Y-113321428D01*
X119339285Y-113357142D01*
X119089285Y-113357142D01*
X118946428Y-113321428D01*
X118875000Y-113250000D01*
X118839285Y-113178571D01*
X118839285Y-113035714D01*
X118875000Y-112964285D01*
X118946428Y-112892857D01*
X119089285Y-112857142D01*
X119339285Y-112857142D01*
X119482142Y-112892857D01*
X119553571Y-112964285D01*
X119589285Y-113035714D01*
X119589285Y-113178571D01*
X118839285Y-112607142D02*
X118839285Y-112142857D01*
X119125000Y-112392857D01*
X119125000Y-112285714D01*
X119160714Y-112214285D01*
X119196428Y-112178571D01*
X119267857Y-112142857D01*
X119446428Y-112142857D01*
X119517857Y-112178571D01*
X119553571Y-112214285D01*
X119589285Y-112285714D01*
X119589285Y-112500000D01*
X119553571Y-112571428D01*
X119517857Y-112607142D01*
%TO.C,C1*%
X152107142Y-104666666D02*
X152154761Y-104714285D01*
X152202380Y-104857142D01*
X152202380Y-104952380D01*
X152154761Y-105095238D01*
X152059523Y-105190476D01*
X151964285Y-105238095D01*
X151773809Y-105285714D01*
X151630952Y-105285714D01*
X151440476Y-105238095D01*
X151345238Y-105190476D01*
X151250000Y-105095238D01*
X151202380Y-104952380D01*
X151202380Y-104857142D01*
X151250000Y-104714285D01*
X151297619Y-104666666D01*
X152202380Y-103714285D02*
X152202380Y-104285714D01*
X152202380Y-104000000D02*
X151202380Y-104000000D01*
X151345238Y-104095238D01*
X151440476Y-104190476D01*
X151488095Y-104285714D01*
%TO.C,J3*%
X121591666Y-91952380D02*
X121591666Y-92666666D01*
X121544047Y-92809523D01*
X121448809Y-92904761D01*
X121305952Y-92952380D01*
X121210714Y-92952380D01*
X121972619Y-91952380D02*
X122591666Y-91952380D01*
X122258333Y-92333333D01*
X122401190Y-92333333D01*
X122496428Y-92380952D01*
X122544047Y-92428571D01*
X122591666Y-92523809D01*
X122591666Y-92761904D01*
X122544047Y-92857142D01*
X122496428Y-92904761D01*
X122401190Y-92952380D01*
X122115476Y-92952380D01*
X122020238Y-92904761D01*
X121972619Y-92857142D01*
%TO.C,Q1*%
X128410714Y-112821428D02*
X128375000Y-112892857D01*
X128303571Y-112964285D01*
X128196428Y-113071428D01*
X128160714Y-113142857D01*
X128160714Y-113214285D01*
X128339285Y-113178571D02*
X128303571Y-113250000D01*
X128232142Y-113321428D01*
X128089285Y-113357142D01*
X127839285Y-113357142D01*
X127696428Y-113321428D01*
X127625000Y-113250000D01*
X127589285Y-113178571D01*
X127589285Y-113035714D01*
X127625000Y-112964285D01*
X127696428Y-112892857D01*
X127839285Y-112857142D01*
X128089285Y-112857142D01*
X128232142Y-112892857D01*
X128303571Y-112964285D01*
X128339285Y-113035714D01*
X128339285Y-113178571D01*
X128339285Y-112142857D02*
X128339285Y-112571428D01*
X128339285Y-112357142D02*
X127589285Y-112357142D01*
X127696428Y-112428571D01*
X127767857Y-112500000D01*
X127803571Y-112571428D01*
%TO.C,R17*%
X144517857Y-97839285D02*
X144267857Y-97482142D01*
X144089285Y-97839285D02*
X144089285Y-97089285D01*
X144375000Y-97089285D01*
X144446428Y-97125000D01*
X144482142Y-97160714D01*
X144517857Y-97232142D01*
X144517857Y-97339285D01*
X144482142Y-97410714D01*
X144446428Y-97446428D01*
X144375000Y-97482142D01*
X144089285Y-97482142D01*
X145232142Y-97839285D02*
X144803571Y-97839285D01*
X145017857Y-97839285D02*
X145017857Y-97089285D01*
X144946428Y-97196428D01*
X144875000Y-97267857D01*
X144803571Y-97303571D01*
X145482142Y-97089285D02*
X145982142Y-97089285D01*
X145660714Y-97839285D01*
%TO.C,D2*%
X107946428Y-97564285D02*
X107946428Y-96814285D01*
X108125000Y-96814285D01*
X108232142Y-96850000D01*
X108303571Y-96921428D01*
X108339285Y-96992857D01*
X108375000Y-97135714D01*
X108375000Y-97242857D01*
X108339285Y-97385714D01*
X108303571Y-97457142D01*
X108232142Y-97528571D01*
X108125000Y-97564285D01*
X107946428Y-97564285D01*
X108660714Y-96885714D02*
X108696428Y-96850000D01*
X108767857Y-96814285D01*
X108946428Y-96814285D01*
X109017857Y-96850000D01*
X109053571Y-96885714D01*
X109089285Y-96957142D01*
X109089285Y-97028571D01*
X109053571Y-97135714D01*
X108625000Y-97564285D01*
X109089285Y-97564285D01*
%TO.C,Q6*%
X116678571Y-98160714D02*
X116607142Y-98125000D01*
X116535714Y-98053571D01*
X116428571Y-97946428D01*
X116357142Y-97910714D01*
X116285714Y-97910714D01*
X116321428Y-98089285D02*
X116250000Y-98053571D01*
X116178571Y-97982142D01*
X116142857Y-97839285D01*
X116142857Y-97589285D01*
X116178571Y-97446428D01*
X116250000Y-97375000D01*
X116321428Y-97339285D01*
X116464285Y-97339285D01*
X116535714Y-97375000D01*
X116607142Y-97446428D01*
X116642857Y-97589285D01*
X116642857Y-97839285D01*
X116607142Y-97982142D01*
X116535714Y-98053571D01*
X116464285Y-98089285D01*
X116321428Y-98089285D01*
X117285714Y-97339285D02*
X117142857Y-97339285D01*
X117071428Y-97375000D01*
X117035714Y-97410714D01*
X116964285Y-97517857D01*
X116928571Y-97660714D01*
X116928571Y-97946428D01*
X116964285Y-98017857D01*
X117000000Y-98053571D01*
X117071428Y-98089285D01*
X117214285Y-98089285D01*
X117285714Y-98053571D01*
X117321428Y-98017857D01*
X117357142Y-97946428D01*
X117357142Y-97767857D01*
X117321428Y-97696428D01*
X117285714Y-97660714D01*
X117214285Y-97625000D01*
X117071428Y-97625000D01*
X117000000Y-97660714D01*
X116964285Y-97696428D01*
X116928571Y-97767857D01*
%TO.C,Q4*%
X137160714Y-106821428D02*
X137125000Y-106892857D01*
X137053571Y-106964285D01*
X136946428Y-107071428D01*
X136910714Y-107142857D01*
X136910714Y-107214285D01*
X137089285Y-107178571D02*
X137053571Y-107250000D01*
X136982142Y-107321428D01*
X136839285Y-107357142D01*
X136589285Y-107357142D01*
X136446428Y-107321428D01*
X136375000Y-107250000D01*
X136339285Y-107178571D01*
X136339285Y-107035714D01*
X136375000Y-106964285D01*
X136446428Y-106892857D01*
X136589285Y-106857142D01*
X136839285Y-106857142D01*
X136982142Y-106892857D01*
X137053571Y-106964285D01*
X137089285Y-107035714D01*
X137089285Y-107178571D01*
X136589285Y-106214285D02*
X137089285Y-106214285D01*
X136303571Y-106392857D02*
X136839285Y-106571428D01*
X136839285Y-106107142D01*
%TO.C,Q5*%
X131660714Y-106821428D02*
X131625000Y-106892857D01*
X131553571Y-106964285D01*
X131446428Y-107071428D01*
X131410714Y-107142857D01*
X131410714Y-107214285D01*
X131589285Y-107178571D02*
X131553571Y-107250000D01*
X131482142Y-107321428D01*
X131339285Y-107357142D01*
X131089285Y-107357142D01*
X130946428Y-107321428D01*
X130875000Y-107250000D01*
X130839285Y-107178571D01*
X130839285Y-107035714D01*
X130875000Y-106964285D01*
X130946428Y-106892857D01*
X131089285Y-106857142D01*
X131339285Y-106857142D01*
X131482142Y-106892857D01*
X131553571Y-106964285D01*
X131589285Y-107035714D01*
X131589285Y-107178571D01*
X130839285Y-106178571D02*
X130839285Y-106535714D01*
X131196428Y-106571428D01*
X131160714Y-106535714D01*
X131125000Y-106464285D01*
X131125000Y-106285714D01*
X131160714Y-106214285D01*
X131196428Y-106178571D01*
X131267857Y-106142857D01*
X131446428Y-106142857D01*
X131517857Y-106178571D01*
X131553571Y-106214285D01*
X131589285Y-106285714D01*
X131589285Y-106464285D01*
X131553571Y-106535714D01*
X131517857Y-106571428D01*
%TO.C,D1*%
X110446428Y-97564285D02*
X110446428Y-96814285D01*
X110625000Y-96814285D01*
X110732142Y-96850000D01*
X110803571Y-96921428D01*
X110839285Y-96992857D01*
X110875000Y-97135714D01*
X110875000Y-97242857D01*
X110839285Y-97385714D01*
X110803571Y-97457142D01*
X110732142Y-97528571D01*
X110625000Y-97564285D01*
X110446428Y-97564285D01*
X111589285Y-97564285D02*
X111160714Y-97564285D01*
X111375000Y-97564285D02*
X111375000Y-96814285D01*
X111303571Y-96921428D01*
X111232142Y-96992857D01*
X111160714Y-97028571D01*
%TO.C,C4*%
X152107142Y-102416666D02*
X152154761Y-102464285D01*
X152202380Y-102607142D01*
X152202380Y-102702380D01*
X152154761Y-102845238D01*
X152059523Y-102940476D01*
X151964285Y-102988095D01*
X151773809Y-103035714D01*
X151630952Y-103035714D01*
X151440476Y-102988095D01*
X151345238Y-102940476D01*
X151250000Y-102845238D01*
X151202380Y-102702380D01*
X151202380Y-102607142D01*
X151250000Y-102464285D01*
X151297619Y-102416666D01*
X151535714Y-101559523D02*
X152202380Y-101559523D01*
X151154761Y-101797619D02*
X151869047Y-102035714D01*
X151869047Y-101416666D01*
%TO.C,D5*%
X148196428Y-97839285D02*
X148196428Y-97089285D01*
X148375000Y-97089285D01*
X148482142Y-97125000D01*
X148553571Y-97196428D01*
X148589285Y-97267857D01*
X148625000Y-97410714D01*
X148625000Y-97517857D01*
X148589285Y-97660714D01*
X148553571Y-97732142D01*
X148482142Y-97803571D01*
X148375000Y-97839285D01*
X148196428Y-97839285D01*
X149303571Y-97089285D02*
X148946428Y-97089285D01*
X148910714Y-97446428D01*
X148946428Y-97410714D01*
X149017857Y-97375000D01*
X149196428Y-97375000D01*
X149267857Y-97410714D01*
X149303571Y-97446428D01*
X149339285Y-97517857D01*
X149339285Y-97696428D01*
X149303571Y-97767857D01*
X149267857Y-97803571D01*
X149196428Y-97839285D01*
X149017857Y-97839285D01*
X148946428Y-97803571D01*
X148910714Y-97767857D01*
%TO.C,Q7*%
X126160714Y-103321428D02*
X126125000Y-103392857D01*
X126053571Y-103464285D01*
X125946428Y-103571428D01*
X125910714Y-103642857D01*
X125910714Y-103714285D01*
X126089285Y-103678571D02*
X126053571Y-103750000D01*
X125982142Y-103821428D01*
X125839285Y-103857142D01*
X125589285Y-103857142D01*
X125446428Y-103821428D01*
X125375000Y-103750000D01*
X125339285Y-103678571D01*
X125339285Y-103535714D01*
X125375000Y-103464285D01*
X125446428Y-103392857D01*
X125589285Y-103357142D01*
X125839285Y-103357142D01*
X125982142Y-103392857D01*
X126053571Y-103464285D01*
X126089285Y-103535714D01*
X126089285Y-103678571D01*
X125339285Y-103107142D02*
X125339285Y-102607142D01*
X126089285Y-102928571D01*
%TO.C,R9*%
X138375000Y-107339285D02*
X138125000Y-106982142D01*
X137946428Y-107339285D02*
X137946428Y-106589285D01*
X138232142Y-106589285D01*
X138303571Y-106625000D01*
X138339285Y-106660714D01*
X138375000Y-106732142D01*
X138375000Y-106839285D01*
X138339285Y-106910714D01*
X138303571Y-106946428D01*
X138232142Y-106982142D01*
X137946428Y-106982142D01*
X138732142Y-107339285D02*
X138875000Y-107339285D01*
X138946428Y-107303571D01*
X138982142Y-107267857D01*
X139053571Y-107160714D01*
X139089285Y-107017857D01*
X139089285Y-106732142D01*
X139053571Y-106660714D01*
X139017857Y-106625000D01*
X138946428Y-106589285D01*
X138803571Y-106589285D01*
X138732142Y-106625000D01*
X138696428Y-106660714D01*
X138660714Y-106732142D01*
X138660714Y-106910714D01*
X138696428Y-106982142D01*
X138732142Y-107017857D01*
X138803571Y-107053571D01*
X138946428Y-107053571D01*
X139017857Y-107017857D01*
X139053571Y-106982142D01*
X139089285Y-106910714D01*
%TO.C,R4*%
X119875000Y-118339285D02*
X119625000Y-117982142D01*
X119446428Y-118339285D02*
X119446428Y-117589285D01*
X119732142Y-117589285D01*
X119803571Y-117625000D01*
X119839285Y-117660714D01*
X119875000Y-117732142D01*
X119875000Y-117839285D01*
X119839285Y-117910714D01*
X119803571Y-117946428D01*
X119732142Y-117982142D01*
X119446428Y-117982142D01*
X120517857Y-117839285D02*
X120517857Y-118339285D01*
X120339285Y-117553571D02*
X120160714Y-118089285D01*
X120625000Y-118089285D01*
%TO.C,D8*%
X141946428Y-117839285D02*
X141946428Y-117089285D01*
X142125000Y-117089285D01*
X142232142Y-117125000D01*
X142303571Y-117196428D01*
X142339285Y-117267857D01*
X142375000Y-117410714D01*
X142375000Y-117517857D01*
X142339285Y-117660714D01*
X142303571Y-117732142D01*
X142232142Y-117803571D01*
X142125000Y-117839285D01*
X141946428Y-117839285D01*
X142803571Y-117410714D02*
X142732142Y-117375000D01*
X142696428Y-117339285D01*
X142660714Y-117267857D01*
X142660714Y-117232142D01*
X142696428Y-117160714D01*
X142732142Y-117125000D01*
X142803571Y-117089285D01*
X142946428Y-117089285D01*
X143017857Y-117125000D01*
X143053571Y-117160714D01*
X143089285Y-117232142D01*
X143089285Y-117267857D01*
X143053571Y-117339285D01*
X143017857Y-117375000D01*
X142946428Y-117410714D01*
X142803571Y-117410714D01*
X142732142Y-117446428D01*
X142696428Y-117482142D01*
X142660714Y-117553571D01*
X142660714Y-117696428D01*
X142696428Y-117767857D01*
X142732142Y-117803571D01*
X142803571Y-117839285D01*
X142946428Y-117839285D01*
X143017857Y-117803571D01*
X143053571Y-117767857D01*
X143089285Y-117696428D01*
X143089285Y-117553571D01*
X143053571Y-117482142D01*
X143017857Y-117446428D01*
X142946428Y-117410714D01*
%TO.C,R8*%
X124125000Y-113339285D02*
X123875000Y-112982142D01*
X123696428Y-113339285D02*
X123696428Y-112589285D01*
X123982142Y-112589285D01*
X124053571Y-112625000D01*
X124089285Y-112660714D01*
X124125000Y-112732142D01*
X124125000Y-112839285D01*
X124089285Y-112910714D01*
X124053571Y-112946428D01*
X123982142Y-112982142D01*
X123696428Y-112982142D01*
X124553571Y-112910714D02*
X124482142Y-112875000D01*
X124446428Y-112839285D01*
X124410714Y-112767857D01*
X124410714Y-112732142D01*
X124446428Y-112660714D01*
X124482142Y-112625000D01*
X124553571Y-112589285D01*
X124696428Y-112589285D01*
X124767857Y-112625000D01*
X124803571Y-112660714D01*
X124839285Y-112732142D01*
X124839285Y-112767857D01*
X124803571Y-112839285D01*
X124767857Y-112875000D01*
X124696428Y-112910714D01*
X124553571Y-112910714D01*
X124482142Y-112946428D01*
X124446428Y-112982142D01*
X124410714Y-113053571D01*
X124410714Y-113196428D01*
X124446428Y-113267857D01*
X124482142Y-113303571D01*
X124553571Y-113339285D01*
X124696428Y-113339285D01*
X124767857Y-113303571D01*
X124803571Y-113267857D01*
X124839285Y-113196428D01*
X124839285Y-113053571D01*
X124803571Y-112982142D01*
X124767857Y-112946428D01*
X124696428Y-112910714D01*
D11*
%TO.C,R10*%
X133735000Y-104727064D02*
X133735000Y-104272936D01*
X132265000Y-104727064D02*
X132265000Y-104272936D01*
%TO.C,D3*%
X107540000Y-112640000D02*
X107540000Y-115500000D01*
X109460000Y-112640000D02*
X107540000Y-112640000D01*
X109460000Y-115500000D02*
X109460000Y-112640000D01*
D10*
%TO.C,J1*%
X153175000Y-106800000D02*
X153600000Y-106800000D01*
X159150000Y-109150000D02*
X159300000Y-109150000D01*
X159750000Y-101150000D02*
X159300000Y-101150000D01*
X159300000Y-109150000D02*
X159300000Y-108850000D01*
X153600000Y-106800000D02*
X153600000Y-107800000D01*
X159300000Y-108850000D02*
X159750000Y-108850000D01*
X155350000Y-109150000D02*
X156750000Y-109150000D01*
X159300000Y-101150000D02*
X159300000Y-100850000D01*
X159300000Y-100850000D02*
X159150000Y-100850000D01*
X156750000Y-100850000D02*
X155350000Y-100850000D01*
X153600000Y-103200000D02*
X153600000Y-102200000D01*
X153175000Y-106075000D02*
X153175000Y-106800000D01*
D11*
%TO.C,R3*%
X130485000Y-110272936D02*
X130485000Y-110727064D01*
X129015000Y-110272936D02*
X129015000Y-110727064D01*
%TO.C,J4*%
X136490000Y-118830000D02*
X136490000Y-116170000D01*
X126270000Y-116170000D02*
X136490000Y-116170000D01*
X126270000Y-118830000D02*
X136490000Y-118830000D01*
X125000000Y-118830000D02*
X123670000Y-118830000D01*
X126270000Y-118830000D02*
X126270000Y-116170000D01*
X123670000Y-118830000D02*
X123670000Y-117500000D01*
%TO.C,R1*%
X149027936Y-106015000D02*
X149482064Y-106015000D01*
X149027936Y-107485000D02*
X149482064Y-107485000D01*
%TO.C,R14*%
X115272936Y-90765000D02*
X115727064Y-90765000D01*
X115272936Y-92235000D02*
X115727064Y-92235000D01*
%TO.C,D7*%
X141540000Y-94000000D02*
X141540000Y-96860000D01*
X143460000Y-96860000D02*
X143460000Y-94000000D01*
X141540000Y-96860000D02*
X143460000Y-96860000D01*
%TO.C,U2*%
X120360000Y-105900000D02*
X120360000Y-103450000D01*
X117140000Y-104100000D02*
X117140000Y-105900000D01*
%TO.C,R13*%
X109272936Y-90765000D02*
X109727064Y-90765000D01*
X109272936Y-92235000D02*
X109727064Y-92235000D01*
%TO.C,Q2*%
X122660000Y-111735000D02*
X122660000Y-109000000D01*
X121000000Y-111735000D02*
X120340000Y-111735000D01*
X120340000Y-110325000D02*
X120340000Y-111735000D01*
X122670000Y-111735000D02*
X122000000Y-111735000D01*
%TO.C,D4*%
X111960000Y-115500000D02*
X111960000Y-112640000D01*
X111960000Y-112640000D02*
X110040000Y-112640000D01*
X110040000Y-112640000D02*
X110040000Y-115500000D01*
%TO.C,C2*%
X143761252Y-111735000D02*
X143238748Y-111735000D01*
X143761252Y-110265000D02*
X143238748Y-110265000D01*
%TO.C,R15*%
X122735000Y-104727064D02*
X122735000Y-104272936D01*
X121265000Y-104727064D02*
X121265000Y-104272936D01*
%TO.C,R7*%
X112772936Y-105735000D02*
X113227064Y-105735000D01*
X112772936Y-104265000D02*
X113227064Y-104265000D01*
%TO.C,R6*%
X113227064Y-103235000D02*
X112772936Y-103235000D01*
X113227064Y-101765000D02*
X112772936Y-101765000D01*
%TO.C,R5*%
X118485000Y-115727064D02*
X118485000Y-115272936D01*
X117015000Y-115727064D02*
X117015000Y-115272936D01*
%TO.C,D6*%
X117360000Y-93040000D02*
X114500000Y-93040000D01*
X117360000Y-94960000D02*
X117360000Y-93040000D01*
X114500000Y-94960000D02*
X117360000Y-94960000D01*
%TO.C,R12*%
X148015000Y-94772936D02*
X148015000Y-95227064D01*
X149485000Y-94772936D02*
X149485000Y-95227064D01*
%TO.C,R16*%
X128235000Y-104272936D02*
X128235000Y-104727064D01*
X126765000Y-104272936D02*
X126765000Y-104727064D01*
%TO.C,C3*%
X112738748Y-106765000D02*
X113261252Y-106765000D01*
X112738748Y-108235000D02*
X113261252Y-108235000D01*
%TO.C,R2*%
X149477064Y-108265000D02*
X149022936Y-108265000D01*
X149477064Y-109735000D02*
X149022936Y-109735000D01*
%TO.C,R11*%
X132985000Y-110727064D02*
X132985000Y-110272936D01*
X131515000Y-110727064D02*
X131515000Y-110272936D01*
%TO.C,R18*%
X145735000Y-115227064D02*
X145735000Y-114772936D01*
X144265000Y-115227064D02*
X144265000Y-114772936D01*
%TO.C,Q3*%
X117090000Y-110325000D02*
X117090000Y-111735000D01*
X119410000Y-111735000D02*
X119410000Y-109000000D01*
X117750000Y-111735000D02*
X117090000Y-111735000D01*
X119420000Y-111735000D02*
X118750000Y-111735000D01*
%TO.C,C1*%
X149516252Y-103765000D02*
X148993748Y-103765000D01*
X149516252Y-105235000D02*
X148993748Y-105235000D01*
%TO.C,J3*%
X133730000Y-91170000D02*
X123510000Y-91170000D01*
X133730000Y-93830000D02*
X123510000Y-93830000D01*
X135000000Y-91170000D02*
X136330000Y-91170000D01*
X123510000Y-91170000D02*
X123510000Y-93830000D01*
X133730000Y-91170000D02*
X133730000Y-93830000D01*
X136330000Y-91170000D02*
X136330000Y-92500000D01*
%TO.C,Q1*%
X128170000Y-111735000D02*
X127500000Y-111735000D01*
X128160000Y-111735000D02*
X128160000Y-109000000D01*
X126500000Y-111735000D02*
X125840000Y-111735000D01*
X125840000Y-110325000D02*
X125840000Y-111735000D01*
%TO.C,R17*%
X145735000Y-94772936D02*
X145735000Y-95227064D01*
X144265000Y-94772936D02*
X144265000Y-95227064D01*
D10*
%TO.C,U1*%
X145575000Y-109470000D02*
X145575000Y-108360000D01*
X141425000Y-101630000D02*
X140300000Y-101630000D01*
X141425000Y-109470000D02*
X145575000Y-109470000D01*
X141425000Y-100520000D02*
X145575000Y-100520000D01*
X141425000Y-101630000D02*
X141425000Y-100520000D01*
X141425000Y-109470000D02*
X141425000Y-108360000D01*
X145575000Y-100520000D02*
X145575000Y-101630000D01*
D11*
%TO.C,D2*%
X107540000Y-93725000D02*
X107540000Y-96585000D01*
X109460000Y-96585000D02*
X109460000Y-93725000D01*
X107540000Y-96585000D02*
X109460000Y-96585000D01*
%TO.C,Q6*%
X115735000Y-97250000D02*
X115735000Y-97910000D01*
X115735000Y-95580000D02*
X115735000Y-96250000D01*
X115735000Y-95590000D02*
X113000000Y-95590000D01*
X114325000Y-97910000D02*
X115735000Y-97910000D01*
%TO.C,Q4*%
X134590000Y-104325000D02*
X134590000Y-105735000D01*
X136910000Y-105735000D02*
X136910000Y-103000000D01*
X136920000Y-105735000D02*
X136250000Y-105735000D01*
X135250000Y-105735000D02*
X134590000Y-105735000D01*
%TO.C,Q5*%
X129750000Y-105735000D02*
X129090000Y-105735000D01*
X129090000Y-104325000D02*
X129090000Y-105735000D01*
X131420000Y-105735000D02*
X130750000Y-105735000D01*
X131410000Y-105735000D02*
X131410000Y-103000000D01*
%TO.C,D1*%
X110040000Y-96585000D02*
X111960000Y-96585000D01*
X111960000Y-96585000D02*
X111960000Y-93725000D01*
X110040000Y-93725000D02*
X110040000Y-96585000D01*
%TO.C,C4*%
X149516252Y-102985000D02*
X148993748Y-102985000D01*
X149516252Y-101515000D02*
X148993748Y-101515000D01*
%TO.C,D5*%
X152210000Y-96860000D02*
X152210000Y-94000000D01*
X150290000Y-96860000D02*
X152210000Y-96860000D01*
X150290000Y-94000000D02*
X150290000Y-96860000D01*
%TO.C,Q7*%
X123590000Y-104265000D02*
X123590000Y-107000000D01*
X123580000Y-104265000D02*
X124250000Y-104265000D01*
X125250000Y-104265000D02*
X125910000Y-104265000D01*
X125910000Y-105675000D02*
X125910000Y-104265000D01*
%TO.C,R9*%
X137765000Y-104272936D02*
X137765000Y-104727064D01*
X139235000Y-104272936D02*
X139235000Y-104727064D01*
%TO.C,R4*%
X119265000Y-115727064D02*
X119265000Y-115272936D01*
X120735000Y-115727064D02*
X120735000Y-115272936D01*
%TO.C,D8*%
X143460000Y-113140000D02*
X141540000Y-113140000D01*
X143460000Y-116000000D02*
X143460000Y-113140000D01*
X141540000Y-113140000D02*
X141540000Y-116000000D01*
%TO.C,R8*%
X124985000Y-110272936D02*
X124985000Y-110727064D01*
X123515000Y-110272936D02*
X123515000Y-110727064D01*
%TD*%
M02*
