M48
; DRILL file {KiCad (6.0.7)} date Mon Apr  3 16:37:45 2023
; FORMAT={-:-/ absolute / inch / decimal}
; #@! TF.CreationDate,2023-04-03T16:37:45-04:00
; #@! TF.GenerationSoftware,Kicad,Pcbnew,(6.0.7)
; #@! TF.FileFunction,Plated,1,2,PTH
FMAT,2
INCH
; #@! TA.AperFunction,Plated,PTH,ViaDrill
T1C0.0157
; #@! TA.AperFunction,Plated,PTH,ComponentDrill
T2C0.0217
; #@! TA.AperFunction,Plated,PTH,ComponentDrill
T3C0.0335
; #@! TA.AperFunction,Plated,PTH,ComponentDrill
T4C0.0354
; #@! TA.AperFunction,Plated,PTH,ComponentDrill
T5C0.0394
; #@! TA.AperFunction,Plated,PTH,ComponentDrill
T6C0.0866
; #@! TA.AperFunction,Plated,PTH,ComponentDrill
T7C0.1063
%
G90
G05
T1
X4.252Y-4.1535
X4.252Y-4.2028
X4.3012Y-4.1535
X4.3012Y-4.2028
X4.4882Y-3.9665
X4.5079Y-4.5079
X4.5669Y-4.0846
X4.5669Y-4.1831
X4.5768Y-4.3209
X4.6949Y-3.9272
X4.7441Y-3.6024
X4.7441Y-3.6516
X4.7441Y-3.7008
X4.7441Y-3.75
X4.7441Y-3.7992
X4.7933Y-3.7008
X4.7933Y-3.75
X4.8425Y-3.8681
X4.872Y-3.9272
X4.8917Y-3.8189
X4.8917Y-3.8681
X4.9409Y-3.8189
X4.9409Y-3.8681
X4.9508Y-4.3799
X4.9705Y-4.1929
X4.9902Y-3.8681
X5.0197Y-4.0059
X5.0492Y-4.252
X5.0886Y-4.0157
X5.0886Y-4.2126
X5.128Y-3.8091
X5.1969Y-3.8583
X5.2067Y-4.5079
X5.2165Y-3.75
X5.2165Y-3.7992
X5.2264Y-4.252
X5.2657Y-3.7992
X5.2854Y-4.2618
X5.315Y-3.9272
X5.3346Y-4.4488
X5.3445Y-4.2618
X5.4035Y-4.2618
X5.4134Y-3.9764
X5.4232Y-3.6122
X5.4724Y-3.6122
X5.4724Y-3.6614
X5.4823Y-4.3504
X5.5217Y-3.6122
X5.5217Y-3.6614
X5.5217Y-3.7106
X5.6004Y-4.1732
X5.6004Y-4.2815
X5.6102Y-4.0354
X5.6496Y-4.2815
X5.6594Y-4.1142
X5.748Y-3.9764
X5.8366Y-4.5079
X5.876Y-3.9272
T4
X4.1752Y-4.0
X4.1752Y-4.0827
X4.1752Y-4.185
X4.1752Y-4.2677
X4.2736Y-4.0
X4.2736Y-4.2677
T5
X4.915Y-3.6417
X4.9213Y-4.626
X5.015Y-3.6417
X5.0213Y-4.626
X5.115Y-3.6417
X5.1213Y-4.626
X5.215Y-3.6417
X5.2213Y-4.626
X5.315Y-3.6417
X5.3213Y-4.626
T6
X4.0571Y-3.8681
X4.0571Y-4.3996
T7
X4.065Y-3.6713
X4.065Y-4.5965
X6.1713Y-3.6713
X6.1713Y-4.5965
T2
G00X6.2057Y-3.9813
M15
G01X6.2313Y-3.9813
M16
G05
G00X6.2057Y-4.2864
M15
G01X6.2313Y-4.2864
M16
G05
T3
G00X6.0581Y-3.9872
M15
G01X6.0797Y-3.9872
M16
G05
G00X6.0581Y-4.2805
M15
G01X6.0797Y-4.2805
M16
G05
T0
M30
