%TF.GenerationSoftware,KiCad,Pcbnew,(6.0.7)*%
%TF.CreationDate,2023-03-28T22:24:36-04:00*%
%TF.ProjectId,minirib-usb,6d696e69-7269-4622-9d75-73622e6b6963,D*%
%TF.SameCoordinates,Original*%
%TF.FileFunction,Soldermask,Top*%
%TF.FilePolarity,Negative*%
%FSLAX46Y46*%
G04 Gerber Fmt 4.6, Leading zero omitted, Abs format (unit mm)*
G04 Created by KiCad (PCBNEW (6.0.7)) date 2023-03-28 22:24:36*
%MOMM*%
%LPD*%
G01*
G04 APERTURE LIST*
G04 Aperture macros list*
%AMRoundRect*
0 Rectangle with rounded corners*
0 $1 Rounding radius*
0 $2 $3 $4 $5 $6 $7 $8 $9 X,Y pos of 4 corners*
0 Add a 4 corners polygon primitive as box body*
4,1,4,$2,$3,$4,$5,$6,$7,$8,$9,$2,$3,0*
0 Add four circle primitives for the rounded corners*
1,1,$1+$1,$2,$3*
1,1,$1+$1,$4,$5*
1,1,$1+$1,$6,$7*
1,1,$1+$1,$8,$9*
0 Add four rect primitives between the rounded corners*
20,1,$1+$1,$2,$3,$4,$5,0*
20,1,$1+$1,$4,$5,$6,$7,0*
20,1,$1+$1,$6,$7,$8,$9,0*
20,1,$1+$1,$8,$9,$2,$3,0*%
G04 Aperture macros list end*
%ADD10RoundRect,0.250000X0.450000X-0.350000X0.450000X0.350000X-0.450000X0.350000X-0.450000X-0.350000X0*%
%ADD11C,5.400000*%
%ADD12C,3.100000*%
%ADD13RoundRect,0.250000X-0.450000X0.325000X-0.450000X-0.325000X0.450000X-0.325000X0.450000X0.325000X0*%
%ADD14O,0.800000X0.800000*%
%ADD15R,1.300000X0.450000*%
%ADD16O,1.800000X1.150000*%
%ADD17O,2.000000X1.450000*%
%ADD18RoundRect,0.250000X-0.450000X0.350000X-0.450000X-0.350000X0.450000X-0.350000X0.450000X0.350000X0*%
%ADD19R,1.700000X1.700000*%
%ADD20O,1.700000X1.700000*%
%ADD21RoundRect,0.250000X-0.350000X-0.450000X0.350000X-0.450000X0.350000X0.450000X-0.350000X0.450000X0*%
%ADD22RoundRect,0.250000X0.450000X-0.325000X0.450000X0.325000X-0.450000X0.325000X-0.450000X-0.325000X0*%
%ADD23R,0.650000X1.560000*%
%ADD24R,0.450000X1.500000*%
%ADD25RoundRect,0.250000X0.337500X0.475000X-0.337500X0.475000X-0.337500X-0.475000X0.337500X-0.475000X0*%
%ADD26RoundRect,0.250000X0.350000X0.450000X-0.350000X0.450000X-0.350000X-0.450000X0.350000X-0.450000X0*%
%ADD27RoundRect,0.250000X0.325000X0.450000X-0.325000X0.450000X-0.325000X-0.450000X0.325000X-0.450000X0*%
%ADD28RoundRect,0.250000X-0.337500X-0.475000X0.337500X-0.475000X0.337500X0.475000X-0.337500X0.475000X0*%
%ADD29R,1.200000X0.400000*%
%ADD30R,1.500000X0.450000*%
%ADD31C,2.200000*%
%ADD32C,1.400000*%
%ADD33C,3.000000*%
G04 APERTURE END LIST*
D10*
%TO.C,R10*%
X133000000Y-105500000D03*
X133000000Y-103500000D03*
%TD*%
D11*
%TO.C,H4*%
X103250000Y-116750000D03*
D12*
X103250000Y-116750000D03*
%TD*%
%TO.C,H1*%
X156750000Y-93250000D03*
D11*
X156750000Y-93250000D03*
%TD*%
D12*
%TO.C,H2*%
X156750000Y-116750000D03*
D11*
X156750000Y-116750000D03*
%TD*%
D13*
%TO.C,D3*%
X108500000Y-113475000D03*
X108500000Y-115525000D03*
%TD*%
D14*
%TO.C,J1*%
X155200000Y-107500000D03*
X155200000Y-102500000D03*
D15*
X154100000Y-106300000D03*
X154100000Y-105650000D03*
X154100000Y-105000000D03*
X154100000Y-104350000D03*
X154100000Y-103700000D03*
D16*
X157950000Y-101125000D03*
D17*
X154150000Y-101275000D03*
D16*
X157950000Y-108875000D03*
D17*
X154150000Y-108725000D03*
%TD*%
D18*
%TO.C,R3*%
X129750000Y-109500000D03*
X129750000Y-111500000D03*
%TD*%
D19*
%TO.C,J4*%
X125000000Y-117500000D03*
D20*
X127540000Y-117500000D03*
X130080000Y-117500000D03*
X132620000Y-117500000D03*
X135160000Y-117500000D03*
%TD*%
D21*
%TO.C,R1*%
X148255000Y-106750000D03*
X150255000Y-106750000D03*
%TD*%
%TO.C,R14*%
X114500000Y-91500000D03*
X116500000Y-91500000D03*
%TD*%
D22*
%TO.C,D7*%
X142500000Y-96025000D03*
X142500000Y-93975000D03*
%TD*%
D23*
%TO.C,U2*%
X119700000Y-103650000D03*
X118750000Y-103650000D03*
X117800000Y-103650000D03*
X117800000Y-106350000D03*
X119700000Y-106350000D03*
%TD*%
D21*
%TO.C,R13*%
X108500000Y-91500000D03*
X110500000Y-91500000D03*
%TD*%
D24*
%TO.C,Q2*%
X122150000Y-109670000D03*
X120850000Y-109670000D03*
X121500000Y-112330000D03*
%TD*%
D13*
%TO.C,D4*%
X111000000Y-113475000D03*
X111000000Y-115525000D03*
%TD*%
D25*
%TO.C,C2*%
X144537500Y-111000000D03*
X142462500Y-111000000D03*
%TD*%
D10*
%TO.C,R15*%
X122000000Y-105500000D03*
X122000000Y-103500000D03*
%TD*%
D21*
%TO.C,R7*%
X112000000Y-105000000D03*
X114000000Y-105000000D03*
%TD*%
D26*
%TO.C,R6*%
X114000000Y-102500000D03*
X112000000Y-102500000D03*
%TD*%
D10*
%TO.C,R5*%
X117750000Y-116500000D03*
X117750000Y-114500000D03*
%TD*%
D27*
%TO.C,D6*%
X116525000Y-94000000D03*
X114475000Y-94000000D03*
%TD*%
D18*
%TO.C,R12*%
X148750000Y-94000000D03*
X148750000Y-96000000D03*
%TD*%
D12*
%TO.C,H3*%
X103250000Y-93250000D03*
D11*
X103250000Y-93250000D03*
%TD*%
D18*
%TO.C,R16*%
X127500000Y-103500000D03*
X127500000Y-105500000D03*
%TD*%
D28*
%TO.C,C3*%
X111962500Y-107500000D03*
X114037500Y-107500000D03*
%TD*%
D26*
%TO.C,R2*%
X150250000Y-109000000D03*
X148250000Y-109000000D03*
%TD*%
D10*
%TO.C,R11*%
X132250000Y-111500000D03*
X132250000Y-109500000D03*
%TD*%
%TO.C,R18*%
X145000000Y-116000000D03*
X145000000Y-114000000D03*
%TD*%
D24*
%TO.C,Q3*%
X118900000Y-109670000D03*
X117600000Y-109670000D03*
X118250000Y-112330000D03*
%TD*%
D25*
%TO.C,C1*%
X150292500Y-104500000D03*
X148217500Y-104500000D03*
%TD*%
D19*
%TO.C,J3*%
X135000000Y-92500000D03*
D20*
X132460000Y-92500000D03*
X129920000Y-92500000D03*
X127380000Y-92500000D03*
X124840000Y-92500000D03*
%TD*%
D24*
%TO.C,Q1*%
X127650000Y-109670000D03*
X126350000Y-109670000D03*
X127000000Y-112330000D03*
%TD*%
D18*
%TO.C,R17*%
X145000000Y-94000000D03*
X145000000Y-96000000D03*
%TD*%
D29*
%TO.C,U1*%
X140900000Y-102137500D03*
X140900000Y-102772500D03*
X140900000Y-103407500D03*
X140900000Y-104042500D03*
X140900000Y-104677500D03*
X140900000Y-105312500D03*
X140900000Y-105947500D03*
X140900000Y-106582500D03*
X140900000Y-107217500D03*
X140900000Y-107852500D03*
X146100000Y-107852500D03*
X146100000Y-107217500D03*
X146100000Y-106582500D03*
X146100000Y-105947500D03*
X146100000Y-105312500D03*
X146100000Y-104677500D03*
X146100000Y-104042500D03*
X146100000Y-103407500D03*
X146100000Y-102772500D03*
X146100000Y-102137500D03*
%TD*%
D22*
%TO.C,D2*%
X108500000Y-95750000D03*
X108500000Y-93700000D03*
%TD*%
D30*
%TO.C,Q6*%
X113670000Y-96100000D03*
X113670000Y-97400000D03*
X116330000Y-96750000D03*
%TD*%
D24*
%TO.C,Q4*%
X136400000Y-103670000D03*
X135100000Y-103670000D03*
X135750000Y-106330000D03*
%TD*%
%TO.C,Q5*%
X130900000Y-103670000D03*
X129600000Y-103670000D03*
X130250000Y-106330000D03*
%TD*%
D22*
%TO.C,D1*%
X111000000Y-95750000D03*
X111000000Y-93700000D03*
%TD*%
D25*
%TO.C,C4*%
X150292500Y-102250000D03*
X148217500Y-102250000D03*
%TD*%
D22*
%TO.C,D5*%
X151250000Y-96025000D03*
X151250000Y-93975000D03*
%TD*%
D24*
%TO.C,Q7*%
X124100000Y-106330000D03*
X125400000Y-106330000D03*
X124750000Y-103670000D03*
%TD*%
D18*
%TO.C,R9*%
X138500000Y-103500000D03*
X138500000Y-105500000D03*
%TD*%
D10*
%TO.C,R4*%
X120000000Y-116500000D03*
X120000000Y-114500000D03*
%TD*%
D13*
%TO.C,D8*%
X142500000Y-113975000D03*
X142500000Y-116025000D03*
%TD*%
D31*
%TO.C,J2*%
X102250000Y-105000000D03*
D32*
X106050000Y-106300000D03*
X106050000Y-103700000D03*
X106050000Y-108400000D03*
X106050000Y-101600000D03*
X108550000Y-108400000D03*
X108550000Y-101600000D03*
D33*
X103050000Y-111750000D03*
X103050000Y-98250000D03*
%TD*%
D18*
%TO.C,R8*%
X124250000Y-109500000D03*
X124250000Y-111500000D03*
%TD*%
M02*
