%TF.GenerationSoftware,KiCad,Pcbnew,(5.1.9)-1*%
%TF.CreationDate,2021-12-10T21:49:07-06:00*%
%TF.ProjectId,minirib-usb,6d696e69-7269-4622-9d75-73622e6b6963,A*%
%TF.SameCoordinates,Original*%
%TF.FileFunction,Legend,Bot*%
%TF.FilePolarity,Positive*%
%FSLAX46Y46*%
G04 Gerber Fmt 4.6, Leading zero omitted, Abs format (unit mm)*
G04 Created by KiCad (PCBNEW (5.1.9)-1) date 2021-12-10 21:49:07*
%MOMM*%
%LPD*%
G01*
G04 APERTURE LIST*
%ADD10C,0.150000*%
%ADD11C,0.120000*%
G04 APERTURE END LIST*
D10*
X164414404Y-107377380D02*
X164414404Y-106377380D01*
X164081071Y-107091666D01*
X163747738Y-106377380D01*
X163747738Y-107377380D01*
X163271547Y-107377380D02*
X163271547Y-106710714D01*
X163271547Y-106377380D02*
X163319166Y-106425000D01*
X163271547Y-106472619D01*
X163223928Y-106425000D01*
X163271547Y-106377380D01*
X163271547Y-106472619D01*
X162795357Y-106710714D02*
X162795357Y-107377380D01*
X162795357Y-106805952D02*
X162747738Y-106758333D01*
X162652500Y-106710714D01*
X162509642Y-106710714D01*
X162414404Y-106758333D01*
X162366785Y-106853571D01*
X162366785Y-107377380D01*
X161890595Y-107377380D02*
X161890595Y-106710714D01*
X161890595Y-106377380D02*
X161938214Y-106425000D01*
X161890595Y-106472619D01*
X161842976Y-106425000D01*
X161890595Y-106377380D01*
X161890595Y-106472619D01*
X160842976Y-107377380D02*
X161176309Y-106901190D01*
X161414404Y-107377380D02*
X161414404Y-106377380D01*
X161033452Y-106377380D01*
X160938214Y-106425000D01*
X160890595Y-106472619D01*
X160842976Y-106567857D01*
X160842976Y-106710714D01*
X160890595Y-106805952D01*
X160938214Y-106853571D01*
X161033452Y-106901190D01*
X161414404Y-106901190D01*
X160414404Y-107377380D02*
X160414404Y-106377380D01*
X159604880Y-106853571D02*
X159462023Y-106901190D01*
X159414404Y-106948809D01*
X159366785Y-107044047D01*
X159366785Y-107186904D01*
X159414404Y-107282142D01*
X159462023Y-107329761D01*
X159557261Y-107377380D01*
X159938214Y-107377380D01*
X159938214Y-106377380D01*
X159604880Y-106377380D01*
X159509642Y-106425000D01*
X159462023Y-106472619D01*
X159414404Y-106567857D01*
X159414404Y-106663095D01*
X159462023Y-106758333D01*
X159509642Y-106805952D01*
X159604880Y-106853571D01*
X159938214Y-106853571D01*
X158176309Y-106377380D02*
X158176309Y-107186904D01*
X158128690Y-107282142D01*
X158081071Y-107329761D01*
X157985833Y-107377380D01*
X157795357Y-107377380D01*
X157700119Y-107329761D01*
X157652500Y-107282142D01*
X157604880Y-107186904D01*
X157604880Y-106377380D01*
X157176309Y-107329761D02*
X157033452Y-107377380D01*
X156795357Y-107377380D01*
X156700119Y-107329761D01*
X156652500Y-107282142D01*
X156604880Y-107186904D01*
X156604880Y-107091666D01*
X156652500Y-106996428D01*
X156700119Y-106948809D01*
X156795357Y-106901190D01*
X156985833Y-106853571D01*
X157081071Y-106805952D01*
X157128690Y-106758333D01*
X157176309Y-106663095D01*
X157176309Y-106567857D01*
X157128690Y-106472619D01*
X157081071Y-106425000D01*
X156985833Y-106377380D01*
X156747738Y-106377380D01*
X156604880Y-106425000D01*
X155842976Y-106853571D02*
X155700119Y-106901190D01*
X155652500Y-106948809D01*
X155604880Y-107044047D01*
X155604880Y-107186904D01*
X155652500Y-107282142D01*
X155700119Y-107329761D01*
X155795357Y-107377380D01*
X156176309Y-107377380D01*
X156176309Y-106377380D01*
X155842976Y-106377380D01*
X155747738Y-106425000D01*
X155700119Y-106472619D01*
X155652500Y-106567857D01*
X155652500Y-106663095D01*
X155700119Y-106758333D01*
X155747738Y-106805952D01*
X155842976Y-106853571D01*
X156176309Y-106853571D01*
X164414404Y-109027380D02*
X164414404Y-108360714D01*
X164414404Y-108551190D02*
X164366785Y-108455952D01*
X164319166Y-108408333D01*
X164223928Y-108360714D01*
X164128690Y-108360714D01*
X163414404Y-108979761D02*
X163509642Y-109027380D01*
X163700119Y-109027380D01*
X163795357Y-108979761D01*
X163842976Y-108884523D01*
X163842976Y-108503571D01*
X163795357Y-108408333D01*
X163700119Y-108360714D01*
X163509642Y-108360714D01*
X163414404Y-108408333D01*
X163366785Y-108503571D01*
X163366785Y-108598809D01*
X163842976Y-108694047D01*
X163033452Y-108360714D02*
X162795357Y-109027380D01*
X162557261Y-108360714D01*
X161462023Y-108741666D02*
X160985833Y-108741666D01*
X161557261Y-109027380D02*
X161223928Y-108027380D01*
X160890595Y-109027380D01*
X159795357Y-108646428D02*
X159033452Y-108646428D01*
X157842976Y-108122619D02*
X157795357Y-108075000D01*
X157700119Y-108027380D01*
X157462023Y-108027380D01*
X157366785Y-108075000D01*
X157319166Y-108122619D01*
X157271547Y-108217857D01*
X157271547Y-108313095D01*
X157319166Y-108455952D01*
X157890595Y-109027380D01*
X157271547Y-109027380D01*
X156652500Y-108027380D02*
X156557261Y-108027380D01*
X156462023Y-108075000D01*
X156414404Y-108122619D01*
X156366785Y-108217857D01*
X156319166Y-108408333D01*
X156319166Y-108646428D01*
X156366785Y-108836904D01*
X156414404Y-108932142D01*
X156462023Y-108979761D01*
X156557261Y-109027380D01*
X156652500Y-109027380D01*
X156747738Y-108979761D01*
X156795357Y-108932142D01*
X156842976Y-108836904D01*
X156890595Y-108646428D01*
X156890595Y-108408333D01*
X156842976Y-108217857D01*
X156795357Y-108122619D01*
X156747738Y-108075000D01*
X156652500Y-108027380D01*
X155938214Y-108122619D02*
X155890595Y-108075000D01*
X155795357Y-108027380D01*
X155557261Y-108027380D01*
X155462023Y-108075000D01*
X155414404Y-108122619D01*
X155366785Y-108217857D01*
X155366785Y-108313095D01*
X155414404Y-108455952D01*
X155985833Y-109027380D01*
X155366785Y-109027380D01*
X154414404Y-109027380D02*
X154985833Y-109027380D01*
X154700119Y-109027380D02*
X154700119Y-108027380D01*
X154795357Y-108170238D01*
X154890595Y-108265476D01*
X154985833Y-108313095D01*
X153271547Y-107979761D02*
X154128690Y-109265476D01*
X152414404Y-109027380D02*
X152985833Y-109027380D01*
X152700119Y-109027380D02*
X152700119Y-108027380D01*
X152795357Y-108170238D01*
X152890595Y-108265476D01*
X152985833Y-108313095D01*
X152033452Y-108122619D02*
X151985833Y-108075000D01*
X151890595Y-108027380D01*
X151652500Y-108027380D01*
X151557261Y-108075000D01*
X151509642Y-108122619D01*
X151462023Y-108217857D01*
X151462023Y-108313095D01*
X151509642Y-108455952D01*
X152081071Y-109027380D01*
X151462023Y-109027380D01*
X150319166Y-107979761D02*
X151176309Y-109265476D01*
X149938214Y-109027380D02*
X149747738Y-109027380D01*
X149652500Y-108979761D01*
X149604880Y-108932142D01*
X149509642Y-108789285D01*
X149462023Y-108598809D01*
X149462023Y-108217857D01*
X149509642Y-108122619D01*
X149557261Y-108075000D01*
X149652500Y-108027380D01*
X149842976Y-108027380D01*
X149938214Y-108075000D01*
X149985833Y-108122619D01*
X150033452Y-108217857D01*
X150033452Y-108455952D01*
X149985833Y-108551190D01*
X149938214Y-108598809D01*
X149842976Y-108646428D01*
X149652500Y-108646428D01*
X149557261Y-108598809D01*
X149509642Y-108551190D01*
X149462023Y-108455952D01*
D11*
%TO.C,D1*%
X133390000Y-97790000D02*
X136250000Y-97790000D01*
X133390000Y-99710000D02*
X133390000Y-97790000D01*
X136250000Y-99710000D02*
X133390000Y-99710000D01*
%TO.C,D2*%
X136250000Y-97210000D02*
X133390000Y-97210000D01*
X133390000Y-97210000D02*
X133390000Y-95290000D01*
X133390000Y-95290000D02*
X136250000Y-95290000D01*
%TO.C,D3*%
X137110000Y-104710000D02*
X134250000Y-104710000D01*
X137110000Y-102790000D02*
X137110000Y-104710000D01*
X134250000Y-102790000D02*
X137110000Y-102790000D01*
%TO.C,D4*%
X137110000Y-102210000D02*
X134250000Y-102210000D01*
X137110000Y-100290000D02*
X137110000Y-102210000D01*
X134250000Y-100290000D02*
X137110000Y-100290000D01*
%TO.C,D1*%
D10*
X138202380Y-98011904D02*
X137202380Y-98011904D01*
X137202380Y-98250000D01*
X137250000Y-98392857D01*
X137345238Y-98488095D01*
X137440476Y-98535714D01*
X137630952Y-98583333D01*
X137773809Y-98583333D01*
X137964285Y-98535714D01*
X138059523Y-98488095D01*
X138154761Y-98392857D01*
X138202380Y-98250000D01*
X138202380Y-98011904D01*
X138202380Y-99535714D02*
X138202380Y-98964285D01*
X138202380Y-99250000D02*
X137202380Y-99250000D01*
X137345238Y-99154761D01*
X137440476Y-99059523D01*
X137488095Y-98964285D01*
%TO.C,D2*%
X138202380Y-95511904D02*
X137202380Y-95511904D01*
X137202380Y-95750000D01*
X137250000Y-95892857D01*
X137345238Y-95988095D01*
X137440476Y-96035714D01*
X137630952Y-96083333D01*
X137773809Y-96083333D01*
X137964285Y-96035714D01*
X138059523Y-95988095D01*
X138154761Y-95892857D01*
X138202380Y-95750000D01*
X138202380Y-95511904D01*
X137297619Y-96464285D02*
X137250000Y-96511904D01*
X137202380Y-96607142D01*
X137202380Y-96845238D01*
X137250000Y-96940476D01*
X137297619Y-96988095D01*
X137392857Y-97035714D01*
X137488095Y-97035714D01*
X137630952Y-96988095D01*
X138202380Y-96416666D01*
X138202380Y-97035714D01*
%TO.C,D3*%
X138202380Y-103011904D02*
X137202380Y-103011904D01*
X137202380Y-103250000D01*
X137250000Y-103392857D01*
X137345238Y-103488095D01*
X137440476Y-103535714D01*
X137630952Y-103583333D01*
X137773809Y-103583333D01*
X137964285Y-103535714D01*
X138059523Y-103488095D01*
X138154761Y-103392857D01*
X138202380Y-103250000D01*
X138202380Y-103011904D01*
X137202380Y-103916666D02*
X137202380Y-104535714D01*
X137583333Y-104202380D01*
X137583333Y-104345238D01*
X137630952Y-104440476D01*
X137678571Y-104488095D01*
X137773809Y-104535714D01*
X138011904Y-104535714D01*
X138107142Y-104488095D01*
X138154761Y-104440476D01*
X138202380Y-104345238D01*
X138202380Y-104059523D01*
X138154761Y-103964285D01*
X138107142Y-103916666D01*
%TO.C,D4*%
X138202380Y-100511904D02*
X137202380Y-100511904D01*
X137202380Y-100750000D01*
X137250000Y-100892857D01*
X137345238Y-100988095D01*
X137440476Y-101035714D01*
X137630952Y-101083333D01*
X137773809Y-101083333D01*
X137964285Y-101035714D01*
X138059523Y-100988095D01*
X138154761Y-100892857D01*
X138202380Y-100750000D01*
X138202380Y-100511904D01*
X137535714Y-101940476D02*
X138202380Y-101940476D01*
X137154761Y-101702380D02*
X137869047Y-101464285D01*
X137869047Y-102083333D01*
%TD*%
M02*
