M48
; DRILL file {KiCad (5.1.9)-1} date 12/10/21 21:49:09
; FORMAT={-:-/ absolute / inch / decimal}
; #@! TF.CreationDate,2021-12-10T21:49:09-06:00
; #@! TF.GenerationSoftware,Kicad,Pcbnew,(5.1.9)-1
; #@! TF.FileFunction,Plated,1,2,PTH
FMAT,2
INCH
T1C0.0118
T2C0.0217
T3C0.0335
T4C0.0354
T5C0.0866
%
G90
G05
T1
X4.8524Y-3.5236
X4.8524Y-4.3602
X4.8917Y-3.5236
X4.8917Y-4.3602
X4.9311Y-3.5236
X4.9311Y-4.3602
X4.9705Y-3.5236
X4.9705Y-4.3602
X5.0098Y-3.5236
X5.0098Y-4.3602
X5.0492Y-3.5236
X5.0492Y-4.3602
X5.0886Y-3.5236
X5.0886Y-4.3602
X5.128Y-3.5236
X5.128Y-4.3602
X5.1673Y-3.5236
X5.1673Y-4.3602
X5.2067Y-3.5236
X5.2067Y-4.3602
X5.2343Y-3.8878
X5.2461Y-3.5236
X5.2461Y-4.0354
X5.2461Y-4.3602
X5.2854Y-3.5236
X5.2854Y-4.3602
X5.3248Y-3.5236
X5.3248Y-3.937
X5.3248Y-4.0354
X5.3248Y-4.3602
X5.3346Y-4.2913
X5.3642Y-3.5236
X5.3642Y-4.3602
X5.4035Y-3.5236
X5.4035Y-4.3602
X5.4232Y-4.0551
X5.4331Y-4.2126
X5.4331Y-4.2913
X5.4429Y-3.5236
X5.4429Y-4.3602
X5.4823Y-3.5236
X5.4823Y-4.3602
X5.5217Y-3.5236
X5.5217Y-4.3602
X5.5315Y-4.2913
X5.5489Y-3.6985
X5.5512Y-4.0748
X5.561Y-3.5236
X5.561Y-4.3602
X5.6004Y-3.5236
X5.6004Y-3.6417
X5.6004Y-4.3602
X5.6031Y-3.8976
X5.6133Y-3.7038
X5.6398Y-3.5236
X5.6398Y-4.3602
X5.6791Y-3.5236
X5.6791Y-4.3602
X5.7185Y-3.5236
X5.7185Y-4.3602
X5.7579Y-3.5236
X5.7579Y-3.7894
X5.7579Y-4.3602
X5.7972Y-3.5236
X5.7972Y-4.3602
X5.8071Y-3.937
X5.8071Y-3.9862
X5.8071Y-4.0256
X5.8366Y-3.5236
X5.8366Y-4.3602
X5.8465Y-4.0256
X5.8661Y-4.124
X5.876Y-3.5236
X5.876Y-4.3602
X5.9055Y-3.937
X5.9154Y-3.5236
X5.9154Y-4.124
X5.9154Y-4.3602
X5.9547Y-3.5236
X5.9547Y-4.3602
X5.9646Y-4.124
X5.9941Y-3.5236
X5.9941Y-4.3602
X6.0039Y-3.8878
X6.0039Y-3.9469
X6.0138Y-3.7795
X6.0335Y-3.5236
X6.0335Y-4.3602
X6.0531Y-3.7795
X6.0728Y-3.5236
X6.0728Y-4.3602
X6.0925Y-3.7795
X6.1122Y-3.5236
X6.1122Y-4.3602
X6.122Y-3.9862
X6.1319Y-3.7795
X6.1319Y-3.8189
X6.1319Y-3.8583
X6.1516Y-3.5236
X6.1516Y-4.3602
X6.1713Y-3.7795
X6.1713Y-3.8189
X6.1909Y-3.5236
X6.1909Y-4.3602
X6.2106Y-3.7795
X6.2106Y-3.8189
X6.2106Y-3.8976
X6.2303Y-3.5236
X6.2303Y-4.3602
X6.2697Y-3.5236
X6.2697Y-4.3602
X6.3091Y-3.5236
X6.3091Y-4.3602
X6.3425Y-3.8287
X6.3484Y-3.5236
X6.3484Y-4.3602
X6.3878Y-3.5236
X6.3878Y-4.3602
X6.4272Y-3.5236
X6.4272Y-4.3602
X6.4665Y-3.5236
X6.4665Y-4.3602
X6.5059Y-3.5236
X6.5059Y-4.3602
X6.5453Y-3.5236
X6.5453Y-4.3602
X6.5846Y-3.5236
X6.5846Y-4.3602
X6.624Y-3.5236
X6.624Y-4.3602
X6.6634Y-3.5236
X6.6634Y-4.3602
X6.7028Y-3.5236
X6.7028Y-4.3602
X6.7421Y-3.5236
X6.7421Y-3.563
X6.7421Y-3.6024
X6.7421Y-3.6417
X6.7421Y-3.6811
X6.7421Y-3.7205
X6.7421Y-3.8386
X6.7421Y-3.878
X6.7421Y-3.9173
X6.7421Y-3.9567
X6.7421Y-3.9961
X6.7421Y-4.0354
X6.7421Y-4.1634
X6.7421Y-4.2028
X6.7421Y-4.2421
X6.7421Y-4.2815
X6.7421Y-4.3209
X6.7421Y-4.3602
T4
X5.0512Y-3.8031
X5.0512Y-3.8858
X5.0512Y-3.9882
X5.0512Y-4.0709
X5.1496Y-3.8031
X5.1496Y-4.0709
T5
X4.9331Y-3.6713
X4.9331Y-4.2028
T2
G00X6.6978Y-3.7844
M15
G01X6.7234Y-3.7844
M16
G05
G00X6.6978Y-4.0896
M15
G01X6.7234Y-4.0896
M16
G05
T3
G00X6.5502Y-3.7904
M15
G01X6.5719Y-3.7904
M16
G05
G00X6.5502Y-4.0837
M15
G01X6.5719Y-4.0837
M16
G05
T0
M30
