%TF.GenerationSoftware,KiCad,Pcbnew,(5.1.9)-1*%
%TF.CreationDate,2021-12-10T21:49:07-06:00*%
%TF.ProjectId,minirib-usb,6d696e69-7269-4622-9d75-73622e6b6963,A*%
%TF.SameCoordinates,Original*%
%TF.FileFunction,Copper,L2,Bot*%
%TF.FilePolarity,Positive*%
%FSLAX46Y46*%
G04 Gerber Fmt 4.6, Leading zero omitted, Abs format (unit mm)*
G04 Created by KiCad (PCBNEW (5.1.9)-1) date 2021-12-10 21:49:07*
%MOMM*%
%LPD*%
G01*
G04 APERTURE LIST*
%TA.AperFunction,ComponentPad*%
%ADD10C,1.400000*%
%TD*%
%TA.AperFunction,ComponentPad*%
%ADD11C,3.000000*%
%TD*%
%TA.AperFunction,ComponentPad*%
%ADD12O,2.000000X1.450000*%
%TD*%
%TA.AperFunction,ComponentPad*%
%ADD13O,1.800000X1.150000*%
%TD*%
%TA.AperFunction,ViaPad*%
%ADD14C,0.600000*%
%TD*%
%TA.AperFunction,Conductor*%
%ADD15C,0.350000*%
%TD*%
%TA.AperFunction,Conductor*%
%ADD16C,0.250000*%
%TD*%
%TA.AperFunction,Conductor*%
%ADD17C,0.200000*%
%TD*%
%TA.AperFunction,Conductor*%
%ADD18C,0.100000*%
%TD*%
G04 APERTURE END LIST*
D10*
%TO.P,J2,1*%
%TO.N,GND*%
X128300000Y-101300000D03*
D11*
%TO.P,J2,SH*%
X125300000Y-93250000D03*
X125300000Y-106750000D03*
D10*
%TO.P,J2,2*%
%TO.N,BIAS*%
X128300000Y-98700000D03*
%TO.P,J2,3*%
%TO.N,BUSY*%
X128300000Y-103400000D03*
%TO.P,J2,6*%
%TO.N,BUS-*%
X130800000Y-96600000D03*
%TO.P,J2,4*%
%TO.N,~BUSY*%
X128300000Y-96600000D03*
%TO.P,J2,5*%
%TO.N,BUS+*%
X130800000Y-103400000D03*
%TD*%
%TO.P,D1,1*%
%TO.N,BUS-*%
%TA.AperFunction,SMDPad,CuDef*%
G36*
G01*
X133650000Y-99200001D02*
X133650000Y-98299999D01*
G75*
G02*
X133899999Y-98050000I249999J0D01*
G01*
X134550001Y-98050000D01*
G75*
G02*
X134800000Y-98299999I0J-249999D01*
G01*
X134800000Y-99200001D01*
G75*
G02*
X134550001Y-99450000I-249999J0D01*
G01*
X133899999Y-99450000D01*
G75*
G02*
X133650000Y-99200001I0J249999D01*
G01*
G37*
%TD.AperFunction*%
%TO.P,D1,2*%
%TO.N,GND*%
%TA.AperFunction,SMDPad,CuDef*%
G36*
G01*
X135700000Y-99200001D02*
X135700000Y-98299999D01*
G75*
G02*
X135949999Y-98050000I249999J0D01*
G01*
X136600001Y-98050000D01*
G75*
G02*
X136850000Y-98299999I0J-249999D01*
G01*
X136850000Y-99200001D01*
G75*
G02*
X136600001Y-99450000I-249999J0D01*
G01*
X135949999Y-99450000D01*
G75*
G02*
X135700000Y-99200001I0J249999D01*
G01*
G37*
%TD.AperFunction*%
%TD*%
%TO.P,D2,2*%
%TO.N,GND*%
%TA.AperFunction,SMDPad,CuDef*%
G36*
G01*
X135700000Y-96700001D02*
X135700000Y-95799999D01*
G75*
G02*
X135949999Y-95550000I249999J0D01*
G01*
X136600001Y-95550000D01*
G75*
G02*
X136850000Y-95799999I0J-249999D01*
G01*
X136850000Y-96700001D01*
G75*
G02*
X136600001Y-96950000I-249999J0D01*
G01*
X135949999Y-96950000D01*
G75*
G02*
X135700000Y-96700001I0J249999D01*
G01*
G37*
%TD.AperFunction*%
%TO.P,D2,1*%
%TO.N,~BUSY*%
%TA.AperFunction,SMDPad,CuDef*%
G36*
G01*
X133650000Y-96700001D02*
X133650000Y-95799999D01*
G75*
G02*
X133899999Y-95550000I249999J0D01*
G01*
X134550001Y-95550000D01*
G75*
G02*
X134800000Y-95799999I0J-249999D01*
G01*
X134800000Y-96700001D01*
G75*
G02*
X134550001Y-96950000I-249999J0D01*
G01*
X133899999Y-96950000D01*
G75*
G02*
X133650000Y-96700001I0J249999D01*
G01*
G37*
%TD.AperFunction*%
%TD*%
%TO.P,D3,1*%
%TO.N,GND*%
%TA.AperFunction,SMDPad,CuDef*%
G36*
G01*
X136850000Y-103299999D02*
X136850000Y-104200001D01*
G75*
G02*
X136600001Y-104450000I-249999J0D01*
G01*
X135949999Y-104450000D01*
G75*
G02*
X135700000Y-104200001I0J249999D01*
G01*
X135700000Y-103299999D01*
G75*
G02*
X135949999Y-103050000I249999J0D01*
G01*
X136600001Y-103050000D01*
G75*
G02*
X136850000Y-103299999I0J-249999D01*
G01*
G37*
%TD.AperFunction*%
%TO.P,D3,2*%
%TO.N,BUSY*%
%TA.AperFunction,SMDPad,CuDef*%
G36*
G01*
X134800000Y-103299999D02*
X134800000Y-104200001D01*
G75*
G02*
X134550001Y-104450000I-249999J0D01*
G01*
X133899999Y-104450000D01*
G75*
G02*
X133650000Y-104200001I0J249999D01*
G01*
X133650000Y-103299999D01*
G75*
G02*
X133899999Y-103050000I249999J0D01*
G01*
X134550001Y-103050000D01*
G75*
G02*
X134800000Y-103299999I0J-249999D01*
G01*
G37*
%TD.AperFunction*%
%TD*%
%TO.P,D4,1*%
%TO.N,GND*%
%TA.AperFunction,SMDPad,CuDef*%
G36*
G01*
X136850000Y-100799999D02*
X136850000Y-101700001D01*
G75*
G02*
X136600001Y-101950000I-249999J0D01*
G01*
X135949999Y-101950000D01*
G75*
G02*
X135700000Y-101700001I0J249999D01*
G01*
X135700000Y-100799999D01*
G75*
G02*
X135949999Y-100550000I249999J0D01*
G01*
X136600001Y-100550000D01*
G75*
G02*
X136850000Y-100799999I0J-249999D01*
G01*
G37*
%TD.AperFunction*%
%TO.P,D4,2*%
%TO.N,BUS+*%
%TA.AperFunction,SMDPad,CuDef*%
G36*
G01*
X134800000Y-100799999D02*
X134800000Y-101700001D01*
G75*
G02*
X134550001Y-101950000I-249999J0D01*
G01*
X133899999Y-101950000D01*
G75*
G02*
X133650000Y-101700001I0J249999D01*
G01*
X133650000Y-100799999D01*
G75*
G02*
X133899999Y-100550000I249999J0D01*
G01*
X134550001Y-100550000D01*
G75*
G02*
X134800000Y-100799999I0J-249999D01*
G01*
G37*
%TD.AperFunction*%
%TD*%
D12*
%TO.P,J1,6*%
%TO.N,GND*%
X166650000Y-103725000D03*
X166650000Y-96275000D03*
D13*
X170450000Y-103875000D03*
X170450000Y-96125000D03*
%TD*%
D14*
%TO.N,GND*%
X123250000Y-110750000D03*
X124250000Y-110750000D03*
X125250000Y-110750000D03*
X126250000Y-110750000D03*
X127250000Y-110750000D03*
X128250000Y-110750000D03*
X129250000Y-110750000D03*
X130250000Y-110750000D03*
X131250000Y-110750000D03*
X132250000Y-110750000D03*
X133250000Y-110750000D03*
X134250000Y-110750000D03*
X135250000Y-110750000D03*
X136250000Y-110750000D03*
X137250000Y-110750000D03*
X138250000Y-110750000D03*
X139250000Y-110750000D03*
X140250000Y-110750000D03*
X141250000Y-110750000D03*
X142250000Y-110750000D03*
X143250000Y-110750000D03*
X144250000Y-110750000D03*
X145250000Y-110750000D03*
X146250000Y-110750000D03*
X147250000Y-110750000D03*
X148250000Y-110750000D03*
X149250000Y-110750000D03*
X150250000Y-110750000D03*
X151250000Y-110750000D03*
X152250000Y-110750000D03*
X153250000Y-110750000D03*
X154250000Y-110750000D03*
X155250000Y-110750000D03*
X156250000Y-110750000D03*
X157250000Y-110750000D03*
X158250000Y-110750000D03*
X159250000Y-110750000D03*
X160250000Y-110750000D03*
X161250000Y-110750000D03*
X162250000Y-110750000D03*
X163250000Y-110750000D03*
X164250000Y-110750000D03*
X165250000Y-110750000D03*
X166250000Y-110750000D03*
X167250000Y-110750000D03*
X168250000Y-110750000D03*
X169250000Y-110750000D03*
X170250000Y-110750000D03*
X171250000Y-110750000D03*
X171250000Y-89500000D03*
X140250000Y-89500000D03*
X123250000Y-89500000D03*
X146250000Y-89500000D03*
X163250000Y-89500000D03*
X127250000Y-89500000D03*
X155250000Y-89500000D03*
X151250000Y-89500000D03*
X148250000Y-89500000D03*
X166250000Y-89500000D03*
X137250000Y-89500000D03*
X143250000Y-89500000D03*
X157250000Y-89500000D03*
X130250000Y-89500000D03*
X159250000Y-89500000D03*
X125250000Y-89500000D03*
X129250000Y-89500000D03*
X131250000Y-89500000D03*
X128250000Y-89500000D03*
X134250000Y-89500000D03*
X153250000Y-89500000D03*
X124250000Y-89500000D03*
X126250000Y-89500000D03*
X138250000Y-89500000D03*
X147250000Y-89500000D03*
X141250000Y-89500000D03*
X144250000Y-89500000D03*
X135250000Y-89500000D03*
X158250000Y-89500000D03*
X149250000Y-89500000D03*
X150250000Y-89500000D03*
X152250000Y-89500000D03*
X154250000Y-89500000D03*
X156250000Y-89500000D03*
X161250000Y-89500000D03*
X132250000Y-89500000D03*
X165250000Y-89500000D03*
X162250000Y-89500000D03*
X164250000Y-89500000D03*
X142250000Y-89500000D03*
X133250000Y-89500000D03*
X160250000Y-89500000D03*
X139250000Y-89500000D03*
X145250000Y-89500000D03*
X136250000Y-89500000D03*
X168250000Y-89500000D03*
X169250000Y-89500000D03*
X170250000Y-89500000D03*
X167250000Y-89500000D03*
X135250000Y-102500000D03*
X135250000Y-100000000D03*
X133250000Y-102500000D03*
X151500000Y-104750000D03*
X150250000Y-104750000D03*
X149000000Y-104750000D03*
X148500000Y-102250000D03*
X147500000Y-102250000D03*
X147500000Y-101250000D03*
X147500000Y-100000000D03*
X150000000Y-100000000D03*
X155500000Y-101250000D03*
X153750000Y-96000000D03*
X154750000Y-96000000D03*
X155750000Y-96000000D03*
X156750000Y-96000000D03*
X157750000Y-96000000D03*
X157750000Y-97000000D03*
X156750000Y-97000000D03*
X155750000Y-97000000D03*
X152750000Y-96000000D03*
X157750000Y-99000000D03*
X135500000Y-109000000D03*
X138000000Y-109000000D03*
X140500000Y-109000000D03*
X138000000Y-107000000D03*
X171250000Y-109750000D03*
X171250000Y-108750000D03*
X171250000Y-107750000D03*
X171250000Y-106750000D03*
X171250000Y-105750000D03*
X171250000Y-90500000D03*
X171250000Y-91500000D03*
X171250000Y-92500000D03*
X171250000Y-93500000D03*
X171250000Y-94500000D03*
X171250000Y-97500000D03*
X171250000Y-98500000D03*
X171250000Y-99500000D03*
X171250000Y-100500000D03*
X171250000Y-101500000D03*
X171250000Y-102500000D03*
%TO.N,+5V*%
X161100011Y-97250000D03*
X146250000Y-96250000D03*
X141000000Y-103500000D03*
X142320000Y-99000000D03*
X155750000Y-98000000D03*
X142250000Y-92500000D03*
X137750000Y-103000000D03*
%TO.N,~DTR*%
X152500000Y-100250000D03*
X152500000Y-98750000D03*
%TO.N,BUS-*%
X132950000Y-98750000D03*
%TO.N,BUS+*%
X140943058Y-93943058D03*
X142576942Y-94076942D03*
%TD*%
D15*
%TO.N,+5V*%
X161100011Y-97250000D02*
X160350011Y-98000000D01*
X148000000Y-98000000D02*
X146250000Y-96250000D01*
X141000000Y-100320000D02*
X142320000Y-99000000D01*
X141000000Y-103500000D02*
X141000000Y-100320000D01*
X155750000Y-98000000D02*
X148000000Y-98000000D01*
X160350011Y-98000000D02*
X155750000Y-98000000D01*
X142500000Y-92500000D02*
X142250000Y-92500000D01*
X146250000Y-96250000D02*
X142500000Y-92500000D01*
X138250000Y-103500000D02*
X137750000Y-103000000D01*
X141000000Y-103500000D02*
X138250000Y-103500000D01*
D16*
%TO.N,~DTR*%
X152500000Y-100250000D02*
X152500000Y-98750000D01*
%TO.N,BUS-*%
X132950000Y-98750000D02*
X130800000Y-96600000D01*
X134225000Y-98750000D02*
X132950000Y-98750000D01*
%TO.N,~BUSY*%
X134225000Y-96250000D02*
X134225000Y-96225000D01*
X134225000Y-96225000D02*
X133250000Y-95250000D01*
X133250000Y-95250000D02*
X129250000Y-95250000D01*
X128300000Y-96200000D02*
X128300000Y-96600000D01*
X129250000Y-95250000D02*
X128300000Y-96200000D01*
%TO.N,BUSY*%
X134225000Y-103750000D02*
X133500000Y-103750000D01*
X133500000Y-103750000D02*
X132250000Y-105000000D01*
X129900000Y-105000000D02*
X128300000Y-103400000D01*
X132250000Y-105000000D02*
X129900000Y-105000000D01*
%TO.N,BUS+*%
X132950000Y-101250000D02*
X130800000Y-103400000D01*
X134225000Y-101250000D02*
X132950000Y-101250000D01*
X142443058Y-93943058D02*
X142576942Y-94076942D01*
X140943058Y-93943058D02*
X142443058Y-93943058D01*
%TD*%
D17*
%TO.N,GND*%
X171625000Y-95766409D02*
X171571888Y-95652670D01*
X171464429Y-95506281D01*
X171330476Y-95383669D01*
X171175176Y-95289546D01*
X171004498Y-95227528D01*
X170825000Y-95200000D01*
X170500000Y-95200000D01*
X170500000Y-96075000D01*
X170520000Y-96075000D01*
X170520000Y-96175000D01*
X170500000Y-96175000D01*
X170500000Y-97050000D01*
X170825000Y-97050000D01*
X171004498Y-97022472D01*
X171175176Y-96960454D01*
X171330476Y-96866331D01*
X171464429Y-96743719D01*
X171571888Y-96597330D01*
X171625000Y-96483591D01*
X171625001Y-103516410D01*
X171571888Y-103402670D01*
X171464429Y-103256281D01*
X171330476Y-103133669D01*
X171175176Y-103039546D01*
X171004498Y-102977528D01*
X170825000Y-102950000D01*
X170500000Y-102950000D01*
X170500000Y-103825000D01*
X170520000Y-103825000D01*
X170520000Y-103925000D01*
X170500000Y-103925000D01*
X170500000Y-104800000D01*
X170825000Y-104800000D01*
X171004498Y-104772472D01*
X171175176Y-104710454D01*
X171330476Y-104616331D01*
X171464429Y-104493719D01*
X171571888Y-104347330D01*
X171625001Y-104233590D01*
X171625001Y-111025000D01*
X122875000Y-111025000D01*
X122875000Y-108037461D01*
X124083250Y-108037461D01*
X124248182Y-108282768D01*
X124567420Y-108458516D01*
X124914811Y-108568606D01*
X125277005Y-108608808D01*
X125640082Y-108577578D01*
X125990090Y-108476115D01*
X126313579Y-108308318D01*
X126351818Y-108282768D01*
X126516750Y-108037461D01*
X125300000Y-106820711D01*
X124083250Y-108037461D01*
X122875000Y-108037461D01*
X122875000Y-106727005D01*
X123441192Y-106727005D01*
X123472422Y-107090082D01*
X123573885Y-107440090D01*
X123741682Y-107763579D01*
X123767232Y-107801818D01*
X124012539Y-107966750D01*
X125229289Y-106750000D01*
X125370711Y-106750000D01*
X126587461Y-107966750D01*
X126832768Y-107801818D01*
X127008516Y-107482580D01*
X127118606Y-107135189D01*
X127158808Y-106772995D01*
X127127578Y-106409918D01*
X127026115Y-106059910D01*
X126858318Y-105736421D01*
X126832768Y-105698182D01*
X126587461Y-105533250D01*
X125370711Y-106750000D01*
X125229289Y-106750000D01*
X124012539Y-105533250D01*
X123767232Y-105698182D01*
X123591484Y-106017420D01*
X123481394Y-106364811D01*
X123441192Y-106727005D01*
X122875000Y-106727005D01*
X122875000Y-105462539D01*
X124083250Y-105462539D01*
X125300000Y-106679289D01*
X126516750Y-105462539D01*
X126351818Y-105217232D01*
X126032580Y-105041484D01*
X125685189Y-104931394D01*
X125322995Y-104891192D01*
X124959918Y-104922422D01*
X124609910Y-105023885D01*
X124286421Y-105191682D01*
X124248182Y-105217232D01*
X124083250Y-105462539D01*
X122875000Y-105462539D01*
X122875000Y-103296584D01*
X127250000Y-103296584D01*
X127250000Y-103503416D01*
X127290350Y-103706274D01*
X127369502Y-103897362D01*
X127484411Y-104069336D01*
X127630664Y-104215589D01*
X127802638Y-104330498D01*
X127993726Y-104409650D01*
X128196584Y-104450000D01*
X128403416Y-104450000D01*
X128606274Y-104409650D01*
X128628636Y-104400387D01*
X129547625Y-105319377D01*
X129562499Y-105337501D01*
X129634827Y-105396859D01*
X129717344Y-105440965D01*
X129717346Y-105440966D01*
X129806884Y-105468127D01*
X129900000Y-105477298D01*
X129923332Y-105475000D01*
X132226668Y-105475000D01*
X132250000Y-105477298D01*
X132273332Y-105475000D01*
X132343116Y-105468127D01*
X132432654Y-105440966D01*
X132515173Y-105396859D01*
X132587501Y-105337501D01*
X132602384Y-105319366D01*
X133395446Y-104526305D01*
X133399710Y-104534283D01*
X133474539Y-104625461D01*
X133565717Y-104700290D01*
X133669741Y-104755892D01*
X133782615Y-104790132D01*
X133899999Y-104801693D01*
X134550001Y-104801693D01*
X134667385Y-104790132D01*
X134780259Y-104755892D01*
X134884283Y-104700290D01*
X134975461Y-104625461D01*
X135050290Y-104534283D01*
X135095340Y-104450000D01*
X135348306Y-104450000D01*
X135355064Y-104518612D01*
X135375077Y-104584587D01*
X135407577Y-104645391D01*
X135451315Y-104698685D01*
X135504609Y-104742423D01*
X135565413Y-104774923D01*
X135631388Y-104794936D01*
X135700000Y-104801694D01*
X136137500Y-104800000D01*
X136225000Y-104712500D01*
X136225000Y-103800000D01*
X136325000Y-103800000D01*
X136325000Y-104712500D01*
X136412500Y-104800000D01*
X136850000Y-104801694D01*
X136918612Y-104794936D01*
X136984587Y-104774923D01*
X137045391Y-104742423D01*
X137098685Y-104698685D01*
X137142423Y-104645391D01*
X137174923Y-104584587D01*
X137194936Y-104518612D01*
X137201694Y-104450000D01*
X137200000Y-103887500D01*
X137112500Y-103800000D01*
X136325000Y-103800000D01*
X136225000Y-103800000D01*
X135437500Y-103800000D01*
X135350000Y-103887500D01*
X135348306Y-104450000D01*
X135095340Y-104450000D01*
X135105892Y-104430259D01*
X135140132Y-104317385D01*
X135151693Y-104200001D01*
X135151693Y-103299999D01*
X135140132Y-103182615D01*
X135105892Y-103069741D01*
X135095341Y-103050000D01*
X135348306Y-103050000D01*
X135350000Y-103612500D01*
X135437500Y-103700000D01*
X136225000Y-103700000D01*
X136225000Y-102787500D01*
X136325000Y-102787500D01*
X136325000Y-103700000D01*
X137112500Y-103700000D01*
X137200000Y-103612500D01*
X137200796Y-103348027D01*
X137245112Y-103414351D01*
X137335649Y-103504888D01*
X137442110Y-103576022D01*
X137560402Y-103625021D01*
X137650475Y-103642938D01*
X137860538Y-103853001D01*
X137876973Y-103873027D01*
X137896999Y-103889462D01*
X137897003Y-103889466D01*
X137906625Y-103897362D01*
X137956914Y-103938633D01*
X138048119Y-103987383D01*
X138147082Y-104017403D01*
X138224212Y-104025000D01*
X138224220Y-104025000D01*
X138250000Y-104027539D01*
X138275780Y-104025000D01*
X140615749Y-104025000D01*
X140692110Y-104076022D01*
X140810402Y-104125021D01*
X140935981Y-104150000D01*
X141064019Y-104150000D01*
X141189598Y-104125021D01*
X141307890Y-104076022D01*
X141414351Y-104004888D01*
X141476869Y-103942370D01*
X165322205Y-103942370D01*
X165362696Y-104090191D01*
X165453392Y-104280665D01*
X165579505Y-104449785D01*
X165736189Y-104591052D01*
X165917422Y-104699037D01*
X166116239Y-104769590D01*
X166325000Y-104800000D01*
X166600000Y-104800000D01*
X166600000Y-103775000D01*
X166700000Y-103775000D01*
X166700000Y-104800000D01*
X166975000Y-104800000D01*
X167183761Y-104769590D01*
X167382578Y-104699037D01*
X167563811Y-104591052D01*
X167720495Y-104449785D01*
X167846608Y-104280665D01*
X167937304Y-104090191D01*
X167943142Y-104068875D01*
X169220545Y-104068875D01*
X169251277Y-104182789D01*
X169328112Y-104347330D01*
X169435571Y-104493719D01*
X169569524Y-104616331D01*
X169724824Y-104710454D01*
X169895502Y-104772472D01*
X170075000Y-104800000D01*
X170400000Y-104800000D01*
X170400000Y-103925000D01*
X169288994Y-103925000D01*
X169220545Y-104068875D01*
X167943142Y-104068875D01*
X167977795Y-103942370D01*
X167911233Y-103775000D01*
X166700000Y-103775000D01*
X166600000Y-103775000D01*
X165388767Y-103775000D01*
X165322205Y-103942370D01*
X141476869Y-103942370D01*
X141504888Y-103914351D01*
X141576022Y-103807890D01*
X141625021Y-103689598D01*
X141626706Y-103681125D01*
X169220545Y-103681125D01*
X169288994Y-103825000D01*
X170400000Y-103825000D01*
X170400000Y-102950000D01*
X170075000Y-102950000D01*
X169895502Y-102977528D01*
X169724824Y-103039546D01*
X169569524Y-103133669D01*
X169435571Y-103256281D01*
X169328112Y-103402670D01*
X169251277Y-103567211D01*
X169220545Y-103681125D01*
X141626706Y-103681125D01*
X141650000Y-103564019D01*
X141650000Y-103507630D01*
X165322205Y-103507630D01*
X165388767Y-103675000D01*
X166600000Y-103675000D01*
X166600000Y-102650000D01*
X166700000Y-102650000D01*
X166700000Y-103675000D01*
X167911233Y-103675000D01*
X167977795Y-103507630D01*
X167937304Y-103359809D01*
X167875401Y-103229804D01*
X167918767Y-103221178D01*
X168055258Y-103164641D01*
X168178097Y-103082563D01*
X168282563Y-102978097D01*
X168364641Y-102855258D01*
X168421178Y-102718767D01*
X168450000Y-102573869D01*
X168450000Y-102426131D01*
X168421178Y-102281233D01*
X168364641Y-102144742D01*
X168282563Y-102021903D01*
X168178097Y-101917437D01*
X168055258Y-101835359D01*
X167918767Y-101778822D01*
X167773869Y-101750000D01*
X167626131Y-101750000D01*
X167481233Y-101778822D01*
X167344742Y-101835359D01*
X167221903Y-101917437D01*
X167117437Y-102021903D01*
X167035359Y-102144742D01*
X166978822Y-102281233D01*
X166950000Y-102426131D01*
X166950000Y-102573869D01*
X166965143Y-102650000D01*
X166700000Y-102650000D01*
X166600000Y-102650000D01*
X166325000Y-102650000D01*
X166116239Y-102680410D01*
X165917422Y-102750963D01*
X165736189Y-102858948D01*
X165579505Y-103000215D01*
X165453392Y-103169335D01*
X165362696Y-103359809D01*
X165322205Y-103507630D01*
X141650000Y-103507630D01*
X141650000Y-103435981D01*
X141625021Y-103310402D01*
X141576022Y-103192110D01*
X141525000Y-103115749D01*
X141525000Y-100537461D01*
X142419524Y-99642938D01*
X142509598Y-99625021D01*
X142627890Y-99576022D01*
X142734351Y-99504888D01*
X142824888Y-99414351D01*
X142896022Y-99307890D01*
X142945021Y-99189598D01*
X142970000Y-99064019D01*
X142970000Y-98935981D01*
X142945021Y-98810402D01*
X142896022Y-98692110D01*
X142824888Y-98585649D01*
X142734351Y-98495112D01*
X142627890Y-98423978D01*
X142509598Y-98374979D01*
X142384019Y-98350000D01*
X142255981Y-98350000D01*
X142130402Y-98374979D01*
X142012110Y-98423978D01*
X141905649Y-98495112D01*
X141815112Y-98585649D01*
X141743978Y-98692110D01*
X141694979Y-98810402D01*
X141677062Y-98900476D01*
X140647005Y-99930534D01*
X140626974Y-99946973D01*
X140610535Y-99967004D01*
X140561367Y-100026915D01*
X140512617Y-100118120D01*
X140482597Y-100217083D01*
X140472461Y-100320000D01*
X140475001Y-100345790D01*
X140475000Y-102975000D01*
X138467462Y-102975000D01*
X138392938Y-102900475D01*
X138375021Y-102810402D01*
X138326022Y-102692110D01*
X138254888Y-102585649D01*
X138164351Y-102495112D01*
X138057890Y-102423978D01*
X137939598Y-102374979D01*
X137814019Y-102350000D01*
X137685981Y-102350000D01*
X137560402Y-102374979D01*
X137442110Y-102423978D01*
X137335649Y-102495112D01*
X137245112Y-102585649D01*
X137173978Y-102692110D01*
X137124979Y-102810402D01*
X137121304Y-102828876D01*
X137098685Y-102801315D01*
X137045391Y-102757577D01*
X136984587Y-102725077D01*
X136918612Y-102705064D01*
X136850000Y-102698306D01*
X136412500Y-102700000D01*
X136325000Y-102787500D01*
X136225000Y-102787500D01*
X136137500Y-102700000D01*
X135700000Y-102698306D01*
X135631388Y-102705064D01*
X135565413Y-102725077D01*
X135504609Y-102757577D01*
X135451315Y-102801315D01*
X135407577Y-102854609D01*
X135375077Y-102915413D01*
X135355064Y-102981388D01*
X135348306Y-103050000D01*
X135095341Y-103050000D01*
X135050290Y-102965717D01*
X134975461Y-102874539D01*
X134884283Y-102799710D01*
X134780259Y-102744108D01*
X134667385Y-102709868D01*
X134550001Y-102698307D01*
X133899999Y-102698307D01*
X133782615Y-102709868D01*
X133669741Y-102744108D01*
X133565717Y-102799710D01*
X133474539Y-102874539D01*
X133399710Y-102965717D01*
X133344108Y-103069741D01*
X133309868Y-103182615D01*
X133298307Y-103299999D01*
X133298307Y-103319210D01*
X133234827Y-103353141D01*
X133162499Y-103412499D01*
X133147620Y-103430629D01*
X132053250Y-104525000D01*
X130096752Y-104525000D01*
X129300387Y-103728636D01*
X129309650Y-103706274D01*
X129350000Y-103503416D01*
X129350000Y-103296584D01*
X129750000Y-103296584D01*
X129750000Y-103503416D01*
X129790350Y-103706274D01*
X129869502Y-103897362D01*
X129984411Y-104069336D01*
X130130664Y-104215589D01*
X130302638Y-104330498D01*
X130493726Y-104409650D01*
X130696584Y-104450000D01*
X130903416Y-104450000D01*
X131106274Y-104409650D01*
X131297362Y-104330498D01*
X131469336Y-104215589D01*
X131615589Y-104069336D01*
X131730498Y-103897362D01*
X131809650Y-103706274D01*
X131850000Y-103503416D01*
X131850000Y-103296584D01*
X131809650Y-103093726D01*
X131800387Y-103071363D01*
X133146751Y-101725000D01*
X133300769Y-101725000D01*
X133309868Y-101817385D01*
X133344108Y-101930259D01*
X133399710Y-102034283D01*
X133474539Y-102125461D01*
X133565717Y-102200290D01*
X133669741Y-102255892D01*
X133782615Y-102290132D01*
X133899999Y-102301693D01*
X134550001Y-102301693D01*
X134667385Y-102290132D01*
X134780259Y-102255892D01*
X134884283Y-102200290D01*
X134975461Y-102125461D01*
X135050290Y-102034283D01*
X135095340Y-101950000D01*
X135348306Y-101950000D01*
X135355064Y-102018612D01*
X135375077Y-102084587D01*
X135407577Y-102145391D01*
X135451315Y-102198685D01*
X135504609Y-102242423D01*
X135565413Y-102274923D01*
X135631388Y-102294936D01*
X135700000Y-102301694D01*
X136137500Y-102300000D01*
X136225000Y-102212500D01*
X136225000Y-101300000D01*
X136325000Y-101300000D01*
X136325000Y-102212500D01*
X136412500Y-102300000D01*
X136850000Y-102301694D01*
X136918612Y-102294936D01*
X136984587Y-102274923D01*
X137045391Y-102242423D01*
X137098685Y-102198685D01*
X137142423Y-102145391D01*
X137174923Y-102084587D01*
X137194936Y-102018612D01*
X137201694Y-101950000D01*
X137200000Y-101387500D01*
X137112500Y-101300000D01*
X136325000Y-101300000D01*
X136225000Y-101300000D01*
X135437500Y-101300000D01*
X135350000Y-101387500D01*
X135348306Y-101950000D01*
X135095340Y-101950000D01*
X135105892Y-101930259D01*
X135140132Y-101817385D01*
X135151693Y-101700001D01*
X135151693Y-100799999D01*
X135140132Y-100682615D01*
X135105892Y-100569741D01*
X135095341Y-100550000D01*
X135348306Y-100550000D01*
X135350000Y-101112500D01*
X135437500Y-101200000D01*
X136225000Y-101200000D01*
X136225000Y-100287500D01*
X136325000Y-100287500D01*
X136325000Y-101200000D01*
X137112500Y-101200000D01*
X137200000Y-101112500D01*
X137201694Y-100550000D01*
X137194936Y-100481388D01*
X137174923Y-100415413D01*
X137142423Y-100354609D01*
X137098685Y-100301315D01*
X137045391Y-100257577D01*
X136984587Y-100225077D01*
X136918612Y-100205064D01*
X136850000Y-100198306D01*
X136412500Y-100200000D01*
X136325000Y-100287500D01*
X136225000Y-100287500D01*
X136137500Y-100200000D01*
X135700000Y-100198306D01*
X135631388Y-100205064D01*
X135565413Y-100225077D01*
X135504609Y-100257577D01*
X135451315Y-100301315D01*
X135407577Y-100354609D01*
X135375077Y-100415413D01*
X135355064Y-100481388D01*
X135348306Y-100550000D01*
X135095341Y-100550000D01*
X135050290Y-100465717D01*
X134975461Y-100374539D01*
X134884283Y-100299710D01*
X134780259Y-100244108D01*
X134667385Y-100209868D01*
X134550001Y-100198307D01*
X133899999Y-100198307D01*
X133782615Y-100209868D01*
X133669741Y-100244108D01*
X133565717Y-100299710D01*
X133474539Y-100374539D01*
X133399710Y-100465717D01*
X133344108Y-100569741D01*
X133309868Y-100682615D01*
X133300769Y-100775000D01*
X132973331Y-100775000D01*
X132949999Y-100772702D01*
X132856883Y-100781873D01*
X132829722Y-100790112D01*
X132767346Y-100809034D01*
X132684827Y-100853141D01*
X132612499Y-100912499D01*
X132597621Y-100930628D01*
X131128637Y-102399613D01*
X131106274Y-102390350D01*
X130903416Y-102350000D01*
X130696584Y-102350000D01*
X130493726Y-102390350D01*
X130302638Y-102469502D01*
X130130664Y-102584411D01*
X129984411Y-102730664D01*
X129869502Y-102902638D01*
X129790350Y-103093726D01*
X129750000Y-103296584D01*
X129350000Y-103296584D01*
X129309650Y-103093726D01*
X129230498Y-102902638D01*
X129115589Y-102730664D01*
X128969336Y-102584411D01*
X128797362Y-102469502D01*
X128606274Y-102390350D01*
X128403416Y-102350000D01*
X128355870Y-102350000D01*
X128514250Y-102333098D01*
X128711680Y-102271449D01*
X128879014Y-102182009D01*
X128947913Y-102018624D01*
X128300000Y-101370711D01*
X127652087Y-102018624D01*
X127720986Y-102182009D01*
X127904184Y-102278021D01*
X128102591Y-102336449D01*
X128252693Y-102350000D01*
X128196584Y-102350000D01*
X127993726Y-102390350D01*
X127802638Y-102469502D01*
X127630664Y-102584411D01*
X127484411Y-102730664D01*
X127369502Y-102902638D01*
X127290350Y-103093726D01*
X127250000Y-103296584D01*
X122875000Y-103296584D01*
X122875000Y-99857187D01*
X123050000Y-99857187D01*
X123050000Y-100142813D01*
X123105723Y-100422949D01*
X123215027Y-100686833D01*
X123373711Y-100924321D01*
X123575679Y-101126289D01*
X123813167Y-101284973D01*
X124077051Y-101394277D01*
X124357187Y-101450000D01*
X124642813Y-101450000D01*
X124922949Y-101394277D01*
X125129826Y-101308586D01*
X127244954Y-101308586D01*
X127266902Y-101514250D01*
X127328551Y-101711680D01*
X127417991Y-101879014D01*
X127581376Y-101947913D01*
X128229289Y-101300000D01*
X128370711Y-101300000D01*
X129018624Y-101947913D01*
X129182009Y-101879014D01*
X129278021Y-101695816D01*
X129336449Y-101497409D01*
X129355046Y-101291414D01*
X129333098Y-101085750D01*
X129271449Y-100888320D01*
X129182009Y-100720986D01*
X129018624Y-100652087D01*
X128370711Y-101300000D01*
X128229289Y-101300000D01*
X127581376Y-100652087D01*
X127417991Y-100720986D01*
X127321979Y-100904184D01*
X127263551Y-101102591D01*
X127244954Y-101308586D01*
X125129826Y-101308586D01*
X125186833Y-101284973D01*
X125424321Y-101126289D01*
X125626289Y-100924321D01*
X125784973Y-100686833D01*
X125828654Y-100581376D01*
X127652087Y-100581376D01*
X128300000Y-101229289D01*
X128947913Y-100581376D01*
X128879014Y-100417991D01*
X128695816Y-100321979D01*
X128497409Y-100263551D01*
X128291414Y-100244954D01*
X128085750Y-100266902D01*
X127888320Y-100328551D01*
X127720986Y-100417991D01*
X127652087Y-100581376D01*
X125828654Y-100581376D01*
X125894277Y-100422949D01*
X125950000Y-100142813D01*
X125950000Y-99857187D01*
X125894277Y-99577051D01*
X125784973Y-99313167D01*
X125626289Y-99075679D01*
X125424321Y-98873711D01*
X125186833Y-98715027D01*
X124922949Y-98605723D01*
X124642813Y-98550000D01*
X124357187Y-98550000D01*
X124077051Y-98605723D01*
X123813167Y-98715027D01*
X123575679Y-98873711D01*
X123373711Y-99075679D01*
X123215027Y-99313167D01*
X123105723Y-99577051D01*
X123050000Y-99857187D01*
X122875000Y-99857187D01*
X122875000Y-96496584D01*
X127250000Y-96496584D01*
X127250000Y-96703416D01*
X127290350Y-96906274D01*
X127369502Y-97097362D01*
X127484411Y-97269336D01*
X127630664Y-97415589D01*
X127802638Y-97530498D01*
X127993726Y-97609650D01*
X128196584Y-97650000D01*
X127993726Y-97690350D01*
X127802638Y-97769502D01*
X127630664Y-97884411D01*
X127484411Y-98030664D01*
X127369502Y-98202638D01*
X127290350Y-98393726D01*
X127250000Y-98596584D01*
X127250000Y-98803416D01*
X127290350Y-99006274D01*
X127369502Y-99197362D01*
X127484411Y-99369336D01*
X127630664Y-99515589D01*
X127802638Y-99630498D01*
X127993726Y-99709650D01*
X128196584Y-99750000D01*
X128403416Y-99750000D01*
X128606274Y-99709650D01*
X128797362Y-99630498D01*
X128969336Y-99515589D01*
X129115589Y-99369336D01*
X129230498Y-99197362D01*
X129309650Y-99006274D01*
X129350000Y-98803416D01*
X129350000Y-98596584D01*
X129309650Y-98393726D01*
X129230498Y-98202638D01*
X129115589Y-98030664D01*
X128969336Y-97884411D01*
X128797362Y-97769502D01*
X128606274Y-97690350D01*
X128403416Y-97650000D01*
X128606274Y-97609650D01*
X128797362Y-97530498D01*
X128969336Y-97415589D01*
X129115589Y-97269336D01*
X129230498Y-97097362D01*
X129309650Y-96906274D01*
X129350000Y-96703416D01*
X129350000Y-96496584D01*
X129309650Y-96293726D01*
X129230498Y-96102638D01*
X129165856Y-96005895D01*
X129446752Y-95725000D01*
X130219579Y-95725000D01*
X130130664Y-95784411D01*
X129984411Y-95930664D01*
X129869502Y-96102638D01*
X129790350Y-96293726D01*
X129750000Y-96496584D01*
X129750000Y-96703416D01*
X129790350Y-96906274D01*
X129869502Y-97097362D01*
X129984411Y-97269336D01*
X130130664Y-97415589D01*
X130302638Y-97530498D01*
X130493726Y-97609650D01*
X130696584Y-97650000D01*
X130903416Y-97650000D01*
X131106274Y-97609650D01*
X131128637Y-97600387D01*
X132300000Y-98771751D01*
X132300000Y-98814019D01*
X132324979Y-98939598D01*
X132373978Y-99057890D01*
X132445112Y-99164351D01*
X132535649Y-99254888D01*
X132642110Y-99326022D01*
X132760402Y-99375021D01*
X132885981Y-99400000D01*
X133014019Y-99400000D01*
X133139598Y-99375021D01*
X133257890Y-99326022D01*
X133307457Y-99292903D01*
X133309868Y-99317385D01*
X133344108Y-99430259D01*
X133399710Y-99534283D01*
X133474539Y-99625461D01*
X133565717Y-99700290D01*
X133669741Y-99755892D01*
X133782615Y-99790132D01*
X133899999Y-99801693D01*
X134550001Y-99801693D01*
X134667385Y-99790132D01*
X134780259Y-99755892D01*
X134884283Y-99700290D01*
X134975461Y-99625461D01*
X135050290Y-99534283D01*
X135095340Y-99450000D01*
X135348306Y-99450000D01*
X135355064Y-99518612D01*
X135375077Y-99584587D01*
X135407577Y-99645391D01*
X135451315Y-99698685D01*
X135504609Y-99742423D01*
X135565413Y-99774923D01*
X135631388Y-99794936D01*
X135700000Y-99801694D01*
X136137500Y-99800000D01*
X136225000Y-99712500D01*
X136225000Y-98800000D01*
X136325000Y-98800000D01*
X136325000Y-99712500D01*
X136412500Y-99800000D01*
X136850000Y-99801694D01*
X136918612Y-99794936D01*
X136984587Y-99774923D01*
X137045391Y-99742423D01*
X137098685Y-99698685D01*
X137142423Y-99645391D01*
X137174923Y-99584587D01*
X137194936Y-99518612D01*
X137201694Y-99450000D01*
X137200000Y-98887500D01*
X137112500Y-98800000D01*
X136325000Y-98800000D01*
X136225000Y-98800000D01*
X135437500Y-98800000D01*
X135350000Y-98887500D01*
X135348306Y-99450000D01*
X135095340Y-99450000D01*
X135105892Y-99430259D01*
X135140132Y-99317385D01*
X135151693Y-99200001D01*
X135151693Y-98299999D01*
X135140132Y-98182615D01*
X135105892Y-98069741D01*
X135095341Y-98050000D01*
X135348306Y-98050000D01*
X135350000Y-98612500D01*
X135437500Y-98700000D01*
X136225000Y-98700000D01*
X136225000Y-97787500D01*
X136325000Y-97787500D01*
X136325000Y-98700000D01*
X137112500Y-98700000D01*
X137200000Y-98612500D01*
X137201694Y-98050000D01*
X137194936Y-97981388D01*
X137174923Y-97915413D01*
X137142423Y-97854609D01*
X137098685Y-97801315D01*
X137045391Y-97757577D01*
X136984587Y-97725077D01*
X136918612Y-97705064D01*
X136850000Y-97698306D01*
X136412500Y-97700000D01*
X136325000Y-97787500D01*
X136225000Y-97787500D01*
X136137500Y-97700000D01*
X135700000Y-97698306D01*
X135631388Y-97705064D01*
X135565413Y-97725077D01*
X135504609Y-97757577D01*
X135451315Y-97801315D01*
X135407577Y-97854609D01*
X135375077Y-97915413D01*
X135355064Y-97981388D01*
X135348306Y-98050000D01*
X135095341Y-98050000D01*
X135050290Y-97965717D01*
X134975461Y-97874539D01*
X134884283Y-97799710D01*
X134780259Y-97744108D01*
X134667385Y-97709868D01*
X134550001Y-97698307D01*
X133899999Y-97698307D01*
X133782615Y-97709868D01*
X133669741Y-97744108D01*
X133565717Y-97799710D01*
X133474539Y-97874539D01*
X133399710Y-97965717D01*
X133344108Y-98069741D01*
X133309868Y-98182615D01*
X133307457Y-98207097D01*
X133257890Y-98173978D01*
X133139598Y-98124979D01*
X133014019Y-98100000D01*
X132971751Y-98100000D01*
X131800387Y-96928637D01*
X131809650Y-96906274D01*
X131850000Y-96703416D01*
X131850000Y-96496584D01*
X131809650Y-96293726D01*
X131730498Y-96102638D01*
X131615589Y-95930664D01*
X131469336Y-95784411D01*
X131380421Y-95725000D01*
X133053250Y-95725000D01*
X133298307Y-95970057D01*
X133298307Y-96700001D01*
X133309868Y-96817385D01*
X133344108Y-96930259D01*
X133399710Y-97034283D01*
X133474539Y-97125461D01*
X133565717Y-97200290D01*
X133669741Y-97255892D01*
X133782615Y-97290132D01*
X133899999Y-97301693D01*
X134550001Y-97301693D01*
X134667385Y-97290132D01*
X134780259Y-97255892D01*
X134884283Y-97200290D01*
X134975461Y-97125461D01*
X135050290Y-97034283D01*
X135095340Y-96950000D01*
X135348306Y-96950000D01*
X135355064Y-97018612D01*
X135375077Y-97084587D01*
X135407577Y-97145391D01*
X135451315Y-97198685D01*
X135504609Y-97242423D01*
X135565413Y-97274923D01*
X135631388Y-97294936D01*
X135700000Y-97301694D01*
X136137500Y-97300000D01*
X136225000Y-97212500D01*
X136225000Y-96300000D01*
X136325000Y-96300000D01*
X136325000Y-97212500D01*
X136412500Y-97300000D01*
X136850000Y-97301694D01*
X136918612Y-97294936D01*
X136984587Y-97274923D01*
X137045391Y-97242423D01*
X137098685Y-97198685D01*
X137142423Y-97145391D01*
X137174923Y-97084587D01*
X137194936Y-97018612D01*
X137201694Y-96950000D01*
X137200000Y-96387500D01*
X137112500Y-96300000D01*
X136325000Y-96300000D01*
X136225000Y-96300000D01*
X135437500Y-96300000D01*
X135350000Y-96387500D01*
X135348306Y-96950000D01*
X135095340Y-96950000D01*
X135105892Y-96930259D01*
X135140132Y-96817385D01*
X135151693Y-96700001D01*
X135151693Y-95799999D01*
X135140132Y-95682615D01*
X135105892Y-95569741D01*
X135095341Y-95550000D01*
X135348306Y-95550000D01*
X135350000Y-96112500D01*
X135437500Y-96200000D01*
X136225000Y-96200000D01*
X136225000Y-95287500D01*
X136325000Y-95287500D01*
X136325000Y-96200000D01*
X137112500Y-96200000D01*
X137200000Y-96112500D01*
X137201694Y-95550000D01*
X137194936Y-95481388D01*
X137174923Y-95415413D01*
X137142423Y-95354609D01*
X137098685Y-95301315D01*
X137045391Y-95257577D01*
X136984587Y-95225077D01*
X136918612Y-95205064D01*
X136850000Y-95198306D01*
X136412500Y-95200000D01*
X136325000Y-95287500D01*
X136225000Y-95287500D01*
X136137500Y-95200000D01*
X135700000Y-95198306D01*
X135631388Y-95205064D01*
X135565413Y-95225077D01*
X135504609Y-95257577D01*
X135451315Y-95301315D01*
X135407577Y-95354609D01*
X135375077Y-95415413D01*
X135355064Y-95481388D01*
X135348306Y-95550000D01*
X135095341Y-95550000D01*
X135050290Y-95465717D01*
X134975461Y-95374539D01*
X134884283Y-95299710D01*
X134780259Y-95244108D01*
X134667385Y-95209868D01*
X134550001Y-95198307D01*
X133899999Y-95198307D01*
X133872742Y-95200992D01*
X133602384Y-94930634D01*
X133587501Y-94912499D01*
X133515173Y-94853141D01*
X133432654Y-94809034D01*
X133343116Y-94781873D01*
X133273332Y-94775000D01*
X133250000Y-94772702D01*
X133226668Y-94775000D01*
X129273332Y-94775000D01*
X129250000Y-94772702D01*
X129156884Y-94781873D01*
X129067345Y-94809034D01*
X129038602Y-94824398D01*
X128984827Y-94853141D01*
X128912499Y-94912499D01*
X128897625Y-94930623D01*
X128278249Y-95550000D01*
X128196584Y-95550000D01*
X127993726Y-95590350D01*
X127802638Y-95669502D01*
X127630664Y-95784411D01*
X127484411Y-95930664D01*
X127369502Y-96102638D01*
X127290350Y-96293726D01*
X127250000Y-96496584D01*
X122875000Y-96496584D01*
X122875000Y-94537461D01*
X124083250Y-94537461D01*
X124248182Y-94782768D01*
X124567420Y-94958516D01*
X124914811Y-95068606D01*
X125277005Y-95108808D01*
X125640082Y-95077578D01*
X125990090Y-94976115D01*
X126313579Y-94808318D01*
X126351818Y-94782768D01*
X126516750Y-94537461D01*
X125300000Y-93320711D01*
X124083250Y-94537461D01*
X122875000Y-94537461D01*
X122875000Y-93227005D01*
X123441192Y-93227005D01*
X123472422Y-93590082D01*
X123573885Y-93940090D01*
X123741682Y-94263579D01*
X123767232Y-94301818D01*
X124012539Y-94466750D01*
X125229289Y-93250000D01*
X125370711Y-93250000D01*
X126587461Y-94466750D01*
X126832768Y-94301818D01*
X127008516Y-93982580D01*
X127041328Y-93879039D01*
X140293058Y-93879039D01*
X140293058Y-94007077D01*
X140318037Y-94132656D01*
X140367036Y-94250948D01*
X140438170Y-94357409D01*
X140528707Y-94447946D01*
X140635168Y-94519080D01*
X140753460Y-94568079D01*
X140879039Y-94593058D01*
X141007077Y-94593058D01*
X141132656Y-94568079D01*
X141250948Y-94519080D01*
X141357409Y-94447946D01*
X141387297Y-94418058D01*
X142023121Y-94418058D01*
X142072054Y-94491293D01*
X142162591Y-94581830D01*
X142269052Y-94652964D01*
X142387344Y-94701963D01*
X142512923Y-94726942D01*
X142640961Y-94726942D01*
X142766540Y-94701963D01*
X142884832Y-94652964D01*
X142991293Y-94581830D01*
X143081830Y-94491293D01*
X143152964Y-94384832D01*
X143201963Y-94266540D01*
X143226942Y-94140961D01*
X143226942Y-94012923D01*
X143216136Y-93958598D01*
X145607063Y-96349525D01*
X145624979Y-96439598D01*
X145673978Y-96557890D01*
X145745112Y-96664351D01*
X145835649Y-96754888D01*
X145942110Y-96826022D01*
X146060402Y-96875021D01*
X146150476Y-96892938D01*
X147610538Y-98353001D01*
X147626973Y-98373027D01*
X147646999Y-98389462D01*
X147647003Y-98389466D01*
X147675070Y-98412499D01*
X147706914Y-98438633D01*
X147770202Y-98472461D01*
X147798119Y-98487383D01*
X147897082Y-98517403D01*
X148000000Y-98527540D01*
X148025788Y-98525000D01*
X151889643Y-98525000D01*
X151874979Y-98560402D01*
X151850000Y-98685981D01*
X151850000Y-98814019D01*
X151874979Y-98939598D01*
X151923978Y-99057890D01*
X151995112Y-99164351D01*
X152025001Y-99194240D01*
X152025000Y-99805761D01*
X151995112Y-99835649D01*
X151923978Y-99942110D01*
X151874979Y-100060402D01*
X151850000Y-100185981D01*
X151850000Y-100314019D01*
X151874979Y-100439598D01*
X151923978Y-100557890D01*
X151995112Y-100664351D01*
X152085649Y-100754888D01*
X152192110Y-100826022D01*
X152310402Y-100875021D01*
X152435981Y-100900000D01*
X152564019Y-100900000D01*
X152689598Y-100875021D01*
X152807890Y-100826022D01*
X152914351Y-100754888D01*
X153004888Y-100664351D01*
X153076022Y-100557890D01*
X153125021Y-100439598D01*
X153150000Y-100314019D01*
X153150000Y-100185981D01*
X153125021Y-100060402D01*
X153076022Y-99942110D01*
X153004888Y-99835649D01*
X152975000Y-99805761D01*
X152975000Y-99194239D01*
X153004888Y-99164351D01*
X153076022Y-99057890D01*
X153125021Y-98939598D01*
X153150000Y-98814019D01*
X153150000Y-98685981D01*
X153125021Y-98560402D01*
X153110357Y-98525000D01*
X155365749Y-98525000D01*
X155442110Y-98576022D01*
X155560402Y-98625021D01*
X155685981Y-98650000D01*
X155814019Y-98650000D01*
X155939598Y-98625021D01*
X156057890Y-98576022D01*
X156134251Y-98525000D01*
X160324231Y-98525000D01*
X160350011Y-98527539D01*
X160375791Y-98525000D01*
X160375799Y-98525000D01*
X160452929Y-98517403D01*
X160551892Y-98487383D01*
X160643097Y-98438633D01*
X160723038Y-98373027D01*
X160739482Y-98352990D01*
X161199535Y-97892938D01*
X161289609Y-97875021D01*
X161407901Y-97826022D01*
X161514362Y-97754888D01*
X161604899Y-97664351D01*
X161676033Y-97557890D01*
X161725032Y-97439598D01*
X161750011Y-97314019D01*
X161750011Y-97185981D01*
X161725032Y-97060402D01*
X161676033Y-96942110D01*
X161604899Y-96835649D01*
X161514362Y-96745112D01*
X161407901Y-96673978D01*
X161289609Y-96624979D01*
X161164030Y-96600000D01*
X161035992Y-96600000D01*
X160910413Y-96624979D01*
X160792121Y-96673978D01*
X160685660Y-96745112D01*
X160595123Y-96835649D01*
X160523989Y-96942110D01*
X160474990Y-97060402D01*
X160457073Y-97150476D01*
X160132550Y-97475000D01*
X156134251Y-97475000D01*
X156057890Y-97423978D01*
X155939598Y-97374979D01*
X155814019Y-97350000D01*
X155685981Y-97350000D01*
X155560402Y-97374979D01*
X155442110Y-97423978D01*
X155365749Y-97475000D01*
X148217463Y-97475000D01*
X147234833Y-96492370D01*
X165322205Y-96492370D01*
X165362696Y-96640191D01*
X165453392Y-96830665D01*
X165579505Y-96999785D01*
X165736189Y-97141052D01*
X165917422Y-97249037D01*
X166116239Y-97319590D01*
X166325000Y-97350000D01*
X166600000Y-97350000D01*
X166600000Y-96325000D01*
X166700000Y-96325000D01*
X166700000Y-97350000D01*
X166965143Y-97350000D01*
X166950000Y-97426131D01*
X166950000Y-97573869D01*
X166978822Y-97718767D01*
X167035359Y-97855258D01*
X167117437Y-97978097D01*
X167221903Y-98082563D01*
X167344742Y-98164641D01*
X167481233Y-98221178D01*
X167626131Y-98250000D01*
X167773869Y-98250000D01*
X167918767Y-98221178D01*
X168055258Y-98164641D01*
X168178097Y-98082563D01*
X168282563Y-97978097D01*
X168364641Y-97855258D01*
X168421178Y-97718767D01*
X168450000Y-97573869D01*
X168450000Y-97426131D01*
X168421178Y-97281233D01*
X168364641Y-97144742D01*
X168282563Y-97021903D01*
X168178097Y-96917437D01*
X168055258Y-96835359D01*
X167918767Y-96778822D01*
X167875401Y-96770196D01*
X167937304Y-96640191D01*
X167977795Y-96492370D01*
X167911233Y-96325000D01*
X166700000Y-96325000D01*
X166600000Y-96325000D01*
X165388767Y-96325000D01*
X165322205Y-96492370D01*
X147234833Y-96492370D01*
X147061338Y-96318875D01*
X169220545Y-96318875D01*
X169251277Y-96432789D01*
X169328112Y-96597330D01*
X169435571Y-96743719D01*
X169569524Y-96866331D01*
X169724824Y-96960454D01*
X169895502Y-97022472D01*
X170075000Y-97050000D01*
X170400000Y-97050000D01*
X170400000Y-96175000D01*
X169288994Y-96175000D01*
X169220545Y-96318875D01*
X147061338Y-96318875D01*
X146892938Y-96150476D01*
X146875021Y-96060402D01*
X146873873Y-96057630D01*
X165322205Y-96057630D01*
X165388767Y-96225000D01*
X166600000Y-96225000D01*
X166600000Y-95200000D01*
X166700000Y-95200000D01*
X166700000Y-96225000D01*
X167911233Y-96225000D01*
X167977795Y-96057630D01*
X167943143Y-95931125D01*
X169220545Y-95931125D01*
X169288994Y-96075000D01*
X170400000Y-96075000D01*
X170400000Y-95200000D01*
X170075000Y-95200000D01*
X169895502Y-95227528D01*
X169724824Y-95289546D01*
X169569524Y-95383669D01*
X169435571Y-95506281D01*
X169328112Y-95652670D01*
X169251277Y-95817211D01*
X169220545Y-95931125D01*
X167943143Y-95931125D01*
X167937304Y-95909809D01*
X167846608Y-95719335D01*
X167720495Y-95550215D01*
X167563811Y-95408948D01*
X167382578Y-95300963D01*
X167183761Y-95230410D01*
X166975000Y-95200000D01*
X166700000Y-95200000D01*
X166600000Y-95200000D01*
X166325000Y-95200000D01*
X166116239Y-95230410D01*
X165917422Y-95300963D01*
X165736189Y-95408948D01*
X165579505Y-95550215D01*
X165453392Y-95719335D01*
X165362696Y-95909809D01*
X165322205Y-96057630D01*
X146873873Y-96057630D01*
X146826022Y-95942110D01*
X146754888Y-95835649D01*
X146664351Y-95745112D01*
X146557890Y-95673978D01*
X146439598Y-95624979D01*
X146349525Y-95607063D01*
X142889471Y-92147010D01*
X142873027Y-92126973D01*
X142793086Y-92061367D01*
X142701881Y-92012617D01*
X142673136Y-92003897D01*
X142664351Y-91995112D01*
X142557890Y-91923978D01*
X142439598Y-91874979D01*
X142314019Y-91850000D01*
X142185981Y-91850000D01*
X142060402Y-91874979D01*
X141942110Y-91923978D01*
X141835649Y-91995112D01*
X141745112Y-92085649D01*
X141673978Y-92192110D01*
X141624979Y-92310402D01*
X141600000Y-92435981D01*
X141600000Y-92564019D01*
X141624979Y-92689598D01*
X141673978Y-92807890D01*
X141745112Y-92914351D01*
X141835649Y-93004888D01*
X141942110Y-93076022D01*
X142060402Y-93125021D01*
X142185981Y-93150000D01*
X142314019Y-93150000D01*
X142392023Y-93134484D01*
X142695287Y-93437748D01*
X142640961Y-93426942D01*
X142512923Y-93426942D01*
X142387344Y-93451921D01*
X142348387Y-93468058D01*
X141387297Y-93468058D01*
X141357409Y-93438170D01*
X141250948Y-93367036D01*
X141132656Y-93318037D01*
X141007077Y-93293058D01*
X140879039Y-93293058D01*
X140753460Y-93318037D01*
X140635168Y-93367036D01*
X140528707Y-93438170D01*
X140438170Y-93528707D01*
X140367036Y-93635168D01*
X140318037Y-93753460D01*
X140293058Y-93879039D01*
X127041328Y-93879039D01*
X127118606Y-93635189D01*
X127158808Y-93272995D01*
X127127578Y-92909918D01*
X127026115Y-92559910D01*
X126858318Y-92236421D01*
X126832768Y-92198182D01*
X126587461Y-92033250D01*
X125370711Y-93250000D01*
X125229289Y-93250000D01*
X124012539Y-92033250D01*
X123767232Y-92198182D01*
X123591484Y-92517420D01*
X123481394Y-92864811D01*
X123441192Y-93227005D01*
X122875000Y-93227005D01*
X122875000Y-91962539D01*
X124083250Y-91962539D01*
X125300000Y-93179289D01*
X126516750Y-91962539D01*
X126351818Y-91717232D01*
X126032580Y-91541484D01*
X125685189Y-91431394D01*
X125322995Y-91391192D01*
X124959918Y-91422422D01*
X124609910Y-91523885D01*
X124286421Y-91691682D01*
X124248182Y-91717232D01*
X124083250Y-91962539D01*
X122875000Y-91962539D01*
X122875000Y-89275000D01*
X171625000Y-89275000D01*
X171625000Y-95766409D01*
%TA.AperFunction,Conductor*%
D18*
G36*
X171625000Y-95766409D02*
G01*
X171571888Y-95652670D01*
X171464429Y-95506281D01*
X171330476Y-95383669D01*
X171175176Y-95289546D01*
X171004498Y-95227528D01*
X170825000Y-95200000D01*
X170500000Y-95200000D01*
X170500000Y-96075000D01*
X170520000Y-96075000D01*
X170520000Y-96175000D01*
X170500000Y-96175000D01*
X170500000Y-97050000D01*
X170825000Y-97050000D01*
X171004498Y-97022472D01*
X171175176Y-96960454D01*
X171330476Y-96866331D01*
X171464429Y-96743719D01*
X171571888Y-96597330D01*
X171625000Y-96483591D01*
X171625001Y-103516410D01*
X171571888Y-103402670D01*
X171464429Y-103256281D01*
X171330476Y-103133669D01*
X171175176Y-103039546D01*
X171004498Y-102977528D01*
X170825000Y-102950000D01*
X170500000Y-102950000D01*
X170500000Y-103825000D01*
X170520000Y-103825000D01*
X170520000Y-103925000D01*
X170500000Y-103925000D01*
X170500000Y-104800000D01*
X170825000Y-104800000D01*
X171004498Y-104772472D01*
X171175176Y-104710454D01*
X171330476Y-104616331D01*
X171464429Y-104493719D01*
X171571888Y-104347330D01*
X171625001Y-104233590D01*
X171625001Y-111025000D01*
X122875000Y-111025000D01*
X122875000Y-108037461D01*
X124083250Y-108037461D01*
X124248182Y-108282768D01*
X124567420Y-108458516D01*
X124914811Y-108568606D01*
X125277005Y-108608808D01*
X125640082Y-108577578D01*
X125990090Y-108476115D01*
X126313579Y-108308318D01*
X126351818Y-108282768D01*
X126516750Y-108037461D01*
X125300000Y-106820711D01*
X124083250Y-108037461D01*
X122875000Y-108037461D01*
X122875000Y-106727005D01*
X123441192Y-106727005D01*
X123472422Y-107090082D01*
X123573885Y-107440090D01*
X123741682Y-107763579D01*
X123767232Y-107801818D01*
X124012539Y-107966750D01*
X125229289Y-106750000D01*
X125370711Y-106750000D01*
X126587461Y-107966750D01*
X126832768Y-107801818D01*
X127008516Y-107482580D01*
X127118606Y-107135189D01*
X127158808Y-106772995D01*
X127127578Y-106409918D01*
X127026115Y-106059910D01*
X126858318Y-105736421D01*
X126832768Y-105698182D01*
X126587461Y-105533250D01*
X125370711Y-106750000D01*
X125229289Y-106750000D01*
X124012539Y-105533250D01*
X123767232Y-105698182D01*
X123591484Y-106017420D01*
X123481394Y-106364811D01*
X123441192Y-106727005D01*
X122875000Y-106727005D01*
X122875000Y-105462539D01*
X124083250Y-105462539D01*
X125300000Y-106679289D01*
X126516750Y-105462539D01*
X126351818Y-105217232D01*
X126032580Y-105041484D01*
X125685189Y-104931394D01*
X125322995Y-104891192D01*
X124959918Y-104922422D01*
X124609910Y-105023885D01*
X124286421Y-105191682D01*
X124248182Y-105217232D01*
X124083250Y-105462539D01*
X122875000Y-105462539D01*
X122875000Y-103296584D01*
X127250000Y-103296584D01*
X127250000Y-103503416D01*
X127290350Y-103706274D01*
X127369502Y-103897362D01*
X127484411Y-104069336D01*
X127630664Y-104215589D01*
X127802638Y-104330498D01*
X127993726Y-104409650D01*
X128196584Y-104450000D01*
X128403416Y-104450000D01*
X128606274Y-104409650D01*
X128628636Y-104400387D01*
X129547625Y-105319377D01*
X129562499Y-105337501D01*
X129634827Y-105396859D01*
X129717344Y-105440965D01*
X129717346Y-105440966D01*
X129806884Y-105468127D01*
X129900000Y-105477298D01*
X129923332Y-105475000D01*
X132226668Y-105475000D01*
X132250000Y-105477298D01*
X132273332Y-105475000D01*
X132343116Y-105468127D01*
X132432654Y-105440966D01*
X132515173Y-105396859D01*
X132587501Y-105337501D01*
X132602384Y-105319366D01*
X133395446Y-104526305D01*
X133399710Y-104534283D01*
X133474539Y-104625461D01*
X133565717Y-104700290D01*
X133669741Y-104755892D01*
X133782615Y-104790132D01*
X133899999Y-104801693D01*
X134550001Y-104801693D01*
X134667385Y-104790132D01*
X134780259Y-104755892D01*
X134884283Y-104700290D01*
X134975461Y-104625461D01*
X135050290Y-104534283D01*
X135095340Y-104450000D01*
X135348306Y-104450000D01*
X135355064Y-104518612D01*
X135375077Y-104584587D01*
X135407577Y-104645391D01*
X135451315Y-104698685D01*
X135504609Y-104742423D01*
X135565413Y-104774923D01*
X135631388Y-104794936D01*
X135700000Y-104801694D01*
X136137500Y-104800000D01*
X136225000Y-104712500D01*
X136225000Y-103800000D01*
X136325000Y-103800000D01*
X136325000Y-104712500D01*
X136412500Y-104800000D01*
X136850000Y-104801694D01*
X136918612Y-104794936D01*
X136984587Y-104774923D01*
X137045391Y-104742423D01*
X137098685Y-104698685D01*
X137142423Y-104645391D01*
X137174923Y-104584587D01*
X137194936Y-104518612D01*
X137201694Y-104450000D01*
X137200000Y-103887500D01*
X137112500Y-103800000D01*
X136325000Y-103800000D01*
X136225000Y-103800000D01*
X135437500Y-103800000D01*
X135350000Y-103887500D01*
X135348306Y-104450000D01*
X135095340Y-104450000D01*
X135105892Y-104430259D01*
X135140132Y-104317385D01*
X135151693Y-104200001D01*
X135151693Y-103299999D01*
X135140132Y-103182615D01*
X135105892Y-103069741D01*
X135095341Y-103050000D01*
X135348306Y-103050000D01*
X135350000Y-103612500D01*
X135437500Y-103700000D01*
X136225000Y-103700000D01*
X136225000Y-102787500D01*
X136325000Y-102787500D01*
X136325000Y-103700000D01*
X137112500Y-103700000D01*
X137200000Y-103612500D01*
X137200796Y-103348027D01*
X137245112Y-103414351D01*
X137335649Y-103504888D01*
X137442110Y-103576022D01*
X137560402Y-103625021D01*
X137650475Y-103642938D01*
X137860538Y-103853001D01*
X137876973Y-103873027D01*
X137896999Y-103889462D01*
X137897003Y-103889466D01*
X137906625Y-103897362D01*
X137956914Y-103938633D01*
X138048119Y-103987383D01*
X138147082Y-104017403D01*
X138224212Y-104025000D01*
X138224220Y-104025000D01*
X138250000Y-104027539D01*
X138275780Y-104025000D01*
X140615749Y-104025000D01*
X140692110Y-104076022D01*
X140810402Y-104125021D01*
X140935981Y-104150000D01*
X141064019Y-104150000D01*
X141189598Y-104125021D01*
X141307890Y-104076022D01*
X141414351Y-104004888D01*
X141476869Y-103942370D01*
X165322205Y-103942370D01*
X165362696Y-104090191D01*
X165453392Y-104280665D01*
X165579505Y-104449785D01*
X165736189Y-104591052D01*
X165917422Y-104699037D01*
X166116239Y-104769590D01*
X166325000Y-104800000D01*
X166600000Y-104800000D01*
X166600000Y-103775000D01*
X166700000Y-103775000D01*
X166700000Y-104800000D01*
X166975000Y-104800000D01*
X167183761Y-104769590D01*
X167382578Y-104699037D01*
X167563811Y-104591052D01*
X167720495Y-104449785D01*
X167846608Y-104280665D01*
X167937304Y-104090191D01*
X167943142Y-104068875D01*
X169220545Y-104068875D01*
X169251277Y-104182789D01*
X169328112Y-104347330D01*
X169435571Y-104493719D01*
X169569524Y-104616331D01*
X169724824Y-104710454D01*
X169895502Y-104772472D01*
X170075000Y-104800000D01*
X170400000Y-104800000D01*
X170400000Y-103925000D01*
X169288994Y-103925000D01*
X169220545Y-104068875D01*
X167943142Y-104068875D01*
X167977795Y-103942370D01*
X167911233Y-103775000D01*
X166700000Y-103775000D01*
X166600000Y-103775000D01*
X165388767Y-103775000D01*
X165322205Y-103942370D01*
X141476869Y-103942370D01*
X141504888Y-103914351D01*
X141576022Y-103807890D01*
X141625021Y-103689598D01*
X141626706Y-103681125D01*
X169220545Y-103681125D01*
X169288994Y-103825000D01*
X170400000Y-103825000D01*
X170400000Y-102950000D01*
X170075000Y-102950000D01*
X169895502Y-102977528D01*
X169724824Y-103039546D01*
X169569524Y-103133669D01*
X169435571Y-103256281D01*
X169328112Y-103402670D01*
X169251277Y-103567211D01*
X169220545Y-103681125D01*
X141626706Y-103681125D01*
X141650000Y-103564019D01*
X141650000Y-103507630D01*
X165322205Y-103507630D01*
X165388767Y-103675000D01*
X166600000Y-103675000D01*
X166600000Y-102650000D01*
X166700000Y-102650000D01*
X166700000Y-103675000D01*
X167911233Y-103675000D01*
X167977795Y-103507630D01*
X167937304Y-103359809D01*
X167875401Y-103229804D01*
X167918767Y-103221178D01*
X168055258Y-103164641D01*
X168178097Y-103082563D01*
X168282563Y-102978097D01*
X168364641Y-102855258D01*
X168421178Y-102718767D01*
X168450000Y-102573869D01*
X168450000Y-102426131D01*
X168421178Y-102281233D01*
X168364641Y-102144742D01*
X168282563Y-102021903D01*
X168178097Y-101917437D01*
X168055258Y-101835359D01*
X167918767Y-101778822D01*
X167773869Y-101750000D01*
X167626131Y-101750000D01*
X167481233Y-101778822D01*
X167344742Y-101835359D01*
X167221903Y-101917437D01*
X167117437Y-102021903D01*
X167035359Y-102144742D01*
X166978822Y-102281233D01*
X166950000Y-102426131D01*
X166950000Y-102573869D01*
X166965143Y-102650000D01*
X166700000Y-102650000D01*
X166600000Y-102650000D01*
X166325000Y-102650000D01*
X166116239Y-102680410D01*
X165917422Y-102750963D01*
X165736189Y-102858948D01*
X165579505Y-103000215D01*
X165453392Y-103169335D01*
X165362696Y-103359809D01*
X165322205Y-103507630D01*
X141650000Y-103507630D01*
X141650000Y-103435981D01*
X141625021Y-103310402D01*
X141576022Y-103192110D01*
X141525000Y-103115749D01*
X141525000Y-100537461D01*
X142419524Y-99642938D01*
X142509598Y-99625021D01*
X142627890Y-99576022D01*
X142734351Y-99504888D01*
X142824888Y-99414351D01*
X142896022Y-99307890D01*
X142945021Y-99189598D01*
X142970000Y-99064019D01*
X142970000Y-98935981D01*
X142945021Y-98810402D01*
X142896022Y-98692110D01*
X142824888Y-98585649D01*
X142734351Y-98495112D01*
X142627890Y-98423978D01*
X142509598Y-98374979D01*
X142384019Y-98350000D01*
X142255981Y-98350000D01*
X142130402Y-98374979D01*
X142012110Y-98423978D01*
X141905649Y-98495112D01*
X141815112Y-98585649D01*
X141743978Y-98692110D01*
X141694979Y-98810402D01*
X141677062Y-98900476D01*
X140647005Y-99930534D01*
X140626974Y-99946973D01*
X140610535Y-99967004D01*
X140561367Y-100026915D01*
X140512617Y-100118120D01*
X140482597Y-100217083D01*
X140472461Y-100320000D01*
X140475001Y-100345790D01*
X140475000Y-102975000D01*
X138467462Y-102975000D01*
X138392938Y-102900475D01*
X138375021Y-102810402D01*
X138326022Y-102692110D01*
X138254888Y-102585649D01*
X138164351Y-102495112D01*
X138057890Y-102423978D01*
X137939598Y-102374979D01*
X137814019Y-102350000D01*
X137685981Y-102350000D01*
X137560402Y-102374979D01*
X137442110Y-102423978D01*
X137335649Y-102495112D01*
X137245112Y-102585649D01*
X137173978Y-102692110D01*
X137124979Y-102810402D01*
X137121304Y-102828876D01*
X137098685Y-102801315D01*
X137045391Y-102757577D01*
X136984587Y-102725077D01*
X136918612Y-102705064D01*
X136850000Y-102698306D01*
X136412500Y-102700000D01*
X136325000Y-102787500D01*
X136225000Y-102787500D01*
X136137500Y-102700000D01*
X135700000Y-102698306D01*
X135631388Y-102705064D01*
X135565413Y-102725077D01*
X135504609Y-102757577D01*
X135451315Y-102801315D01*
X135407577Y-102854609D01*
X135375077Y-102915413D01*
X135355064Y-102981388D01*
X135348306Y-103050000D01*
X135095341Y-103050000D01*
X135050290Y-102965717D01*
X134975461Y-102874539D01*
X134884283Y-102799710D01*
X134780259Y-102744108D01*
X134667385Y-102709868D01*
X134550001Y-102698307D01*
X133899999Y-102698307D01*
X133782615Y-102709868D01*
X133669741Y-102744108D01*
X133565717Y-102799710D01*
X133474539Y-102874539D01*
X133399710Y-102965717D01*
X133344108Y-103069741D01*
X133309868Y-103182615D01*
X133298307Y-103299999D01*
X133298307Y-103319210D01*
X133234827Y-103353141D01*
X133162499Y-103412499D01*
X133147620Y-103430629D01*
X132053250Y-104525000D01*
X130096752Y-104525000D01*
X129300387Y-103728636D01*
X129309650Y-103706274D01*
X129350000Y-103503416D01*
X129350000Y-103296584D01*
X129750000Y-103296584D01*
X129750000Y-103503416D01*
X129790350Y-103706274D01*
X129869502Y-103897362D01*
X129984411Y-104069336D01*
X130130664Y-104215589D01*
X130302638Y-104330498D01*
X130493726Y-104409650D01*
X130696584Y-104450000D01*
X130903416Y-104450000D01*
X131106274Y-104409650D01*
X131297362Y-104330498D01*
X131469336Y-104215589D01*
X131615589Y-104069336D01*
X131730498Y-103897362D01*
X131809650Y-103706274D01*
X131850000Y-103503416D01*
X131850000Y-103296584D01*
X131809650Y-103093726D01*
X131800387Y-103071363D01*
X133146751Y-101725000D01*
X133300769Y-101725000D01*
X133309868Y-101817385D01*
X133344108Y-101930259D01*
X133399710Y-102034283D01*
X133474539Y-102125461D01*
X133565717Y-102200290D01*
X133669741Y-102255892D01*
X133782615Y-102290132D01*
X133899999Y-102301693D01*
X134550001Y-102301693D01*
X134667385Y-102290132D01*
X134780259Y-102255892D01*
X134884283Y-102200290D01*
X134975461Y-102125461D01*
X135050290Y-102034283D01*
X135095340Y-101950000D01*
X135348306Y-101950000D01*
X135355064Y-102018612D01*
X135375077Y-102084587D01*
X135407577Y-102145391D01*
X135451315Y-102198685D01*
X135504609Y-102242423D01*
X135565413Y-102274923D01*
X135631388Y-102294936D01*
X135700000Y-102301694D01*
X136137500Y-102300000D01*
X136225000Y-102212500D01*
X136225000Y-101300000D01*
X136325000Y-101300000D01*
X136325000Y-102212500D01*
X136412500Y-102300000D01*
X136850000Y-102301694D01*
X136918612Y-102294936D01*
X136984587Y-102274923D01*
X137045391Y-102242423D01*
X137098685Y-102198685D01*
X137142423Y-102145391D01*
X137174923Y-102084587D01*
X137194936Y-102018612D01*
X137201694Y-101950000D01*
X137200000Y-101387500D01*
X137112500Y-101300000D01*
X136325000Y-101300000D01*
X136225000Y-101300000D01*
X135437500Y-101300000D01*
X135350000Y-101387500D01*
X135348306Y-101950000D01*
X135095340Y-101950000D01*
X135105892Y-101930259D01*
X135140132Y-101817385D01*
X135151693Y-101700001D01*
X135151693Y-100799999D01*
X135140132Y-100682615D01*
X135105892Y-100569741D01*
X135095341Y-100550000D01*
X135348306Y-100550000D01*
X135350000Y-101112500D01*
X135437500Y-101200000D01*
X136225000Y-101200000D01*
X136225000Y-100287500D01*
X136325000Y-100287500D01*
X136325000Y-101200000D01*
X137112500Y-101200000D01*
X137200000Y-101112500D01*
X137201694Y-100550000D01*
X137194936Y-100481388D01*
X137174923Y-100415413D01*
X137142423Y-100354609D01*
X137098685Y-100301315D01*
X137045391Y-100257577D01*
X136984587Y-100225077D01*
X136918612Y-100205064D01*
X136850000Y-100198306D01*
X136412500Y-100200000D01*
X136325000Y-100287500D01*
X136225000Y-100287500D01*
X136137500Y-100200000D01*
X135700000Y-100198306D01*
X135631388Y-100205064D01*
X135565413Y-100225077D01*
X135504609Y-100257577D01*
X135451315Y-100301315D01*
X135407577Y-100354609D01*
X135375077Y-100415413D01*
X135355064Y-100481388D01*
X135348306Y-100550000D01*
X135095341Y-100550000D01*
X135050290Y-100465717D01*
X134975461Y-100374539D01*
X134884283Y-100299710D01*
X134780259Y-100244108D01*
X134667385Y-100209868D01*
X134550001Y-100198307D01*
X133899999Y-100198307D01*
X133782615Y-100209868D01*
X133669741Y-100244108D01*
X133565717Y-100299710D01*
X133474539Y-100374539D01*
X133399710Y-100465717D01*
X133344108Y-100569741D01*
X133309868Y-100682615D01*
X133300769Y-100775000D01*
X132973331Y-100775000D01*
X132949999Y-100772702D01*
X132856883Y-100781873D01*
X132829722Y-100790112D01*
X132767346Y-100809034D01*
X132684827Y-100853141D01*
X132612499Y-100912499D01*
X132597621Y-100930628D01*
X131128637Y-102399613D01*
X131106274Y-102390350D01*
X130903416Y-102350000D01*
X130696584Y-102350000D01*
X130493726Y-102390350D01*
X130302638Y-102469502D01*
X130130664Y-102584411D01*
X129984411Y-102730664D01*
X129869502Y-102902638D01*
X129790350Y-103093726D01*
X129750000Y-103296584D01*
X129350000Y-103296584D01*
X129309650Y-103093726D01*
X129230498Y-102902638D01*
X129115589Y-102730664D01*
X128969336Y-102584411D01*
X128797362Y-102469502D01*
X128606274Y-102390350D01*
X128403416Y-102350000D01*
X128355870Y-102350000D01*
X128514250Y-102333098D01*
X128711680Y-102271449D01*
X128879014Y-102182009D01*
X128947913Y-102018624D01*
X128300000Y-101370711D01*
X127652087Y-102018624D01*
X127720986Y-102182009D01*
X127904184Y-102278021D01*
X128102591Y-102336449D01*
X128252693Y-102350000D01*
X128196584Y-102350000D01*
X127993726Y-102390350D01*
X127802638Y-102469502D01*
X127630664Y-102584411D01*
X127484411Y-102730664D01*
X127369502Y-102902638D01*
X127290350Y-103093726D01*
X127250000Y-103296584D01*
X122875000Y-103296584D01*
X122875000Y-99857187D01*
X123050000Y-99857187D01*
X123050000Y-100142813D01*
X123105723Y-100422949D01*
X123215027Y-100686833D01*
X123373711Y-100924321D01*
X123575679Y-101126289D01*
X123813167Y-101284973D01*
X124077051Y-101394277D01*
X124357187Y-101450000D01*
X124642813Y-101450000D01*
X124922949Y-101394277D01*
X125129826Y-101308586D01*
X127244954Y-101308586D01*
X127266902Y-101514250D01*
X127328551Y-101711680D01*
X127417991Y-101879014D01*
X127581376Y-101947913D01*
X128229289Y-101300000D01*
X128370711Y-101300000D01*
X129018624Y-101947913D01*
X129182009Y-101879014D01*
X129278021Y-101695816D01*
X129336449Y-101497409D01*
X129355046Y-101291414D01*
X129333098Y-101085750D01*
X129271449Y-100888320D01*
X129182009Y-100720986D01*
X129018624Y-100652087D01*
X128370711Y-101300000D01*
X128229289Y-101300000D01*
X127581376Y-100652087D01*
X127417991Y-100720986D01*
X127321979Y-100904184D01*
X127263551Y-101102591D01*
X127244954Y-101308586D01*
X125129826Y-101308586D01*
X125186833Y-101284973D01*
X125424321Y-101126289D01*
X125626289Y-100924321D01*
X125784973Y-100686833D01*
X125828654Y-100581376D01*
X127652087Y-100581376D01*
X128300000Y-101229289D01*
X128947913Y-100581376D01*
X128879014Y-100417991D01*
X128695816Y-100321979D01*
X128497409Y-100263551D01*
X128291414Y-100244954D01*
X128085750Y-100266902D01*
X127888320Y-100328551D01*
X127720986Y-100417991D01*
X127652087Y-100581376D01*
X125828654Y-100581376D01*
X125894277Y-100422949D01*
X125950000Y-100142813D01*
X125950000Y-99857187D01*
X125894277Y-99577051D01*
X125784973Y-99313167D01*
X125626289Y-99075679D01*
X125424321Y-98873711D01*
X125186833Y-98715027D01*
X124922949Y-98605723D01*
X124642813Y-98550000D01*
X124357187Y-98550000D01*
X124077051Y-98605723D01*
X123813167Y-98715027D01*
X123575679Y-98873711D01*
X123373711Y-99075679D01*
X123215027Y-99313167D01*
X123105723Y-99577051D01*
X123050000Y-99857187D01*
X122875000Y-99857187D01*
X122875000Y-96496584D01*
X127250000Y-96496584D01*
X127250000Y-96703416D01*
X127290350Y-96906274D01*
X127369502Y-97097362D01*
X127484411Y-97269336D01*
X127630664Y-97415589D01*
X127802638Y-97530498D01*
X127993726Y-97609650D01*
X128196584Y-97650000D01*
X127993726Y-97690350D01*
X127802638Y-97769502D01*
X127630664Y-97884411D01*
X127484411Y-98030664D01*
X127369502Y-98202638D01*
X127290350Y-98393726D01*
X127250000Y-98596584D01*
X127250000Y-98803416D01*
X127290350Y-99006274D01*
X127369502Y-99197362D01*
X127484411Y-99369336D01*
X127630664Y-99515589D01*
X127802638Y-99630498D01*
X127993726Y-99709650D01*
X128196584Y-99750000D01*
X128403416Y-99750000D01*
X128606274Y-99709650D01*
X128797362Y-99630498D01*
X128969336Y-99515589D01*
X129115589Y-99369336D01*
X129230498Y-99197362D01*
X129309650Y-99006274D01*
X129350000Y-98803416D01*
X129350000Y-98596584D01*
X129309650Y-98393726D01*
X129230498Y-98202638D01*
X129115589Y-98030664D01*
X128969336Y-97884411D01*
X128797362Y-97769502D01*
X128606274Y-97690350D01*
X128403416Y-97650000D01*
X128606274Y-97609650D01*
X128797362Y-97530498D01*
X128969336Y-97415589D01*
X129115589Y-97269336D01*
X129230498Y-97097362D01*
X129309650Y-96906274D01*
X129350000Y-96703416D01*
X129350000Y-96496584D01*
X129309650Y-96293726D01*
X129230498Y-96102638D01*
X129165856Y-96005895D01*
X129446752Y-95725000D01*
X130219579Y-95725000D01*
X130130664Y-95784411D01*
X129984411Y-95930664D01*
X129869502Y-96102638D01*
X129790350Y-96293726D01*
X129750000Y-96496584D01*
X129750000Y-96703416D01*
X129790350Y-96906274D01*
X129869502Y-97097362D01*
X129984411Y-97269336D01*
X130130664Y-97415589D01*
X130302638Y-97530498D01*
X130493726Y-97609650D01*
X130696584Y-97650000D01*
X130903416Y-97650000D01*
X131106274Y-97609650D01*
X131128637Y-97600387D01*
X132300000Y-98771751D01*
X132300000Y-98814019D01*
X132324979Y-98939598D01*
X132373978Y-99057890D01*
X132445112Y-99164351D01*
X132535649Y-99254888D01*
X132642110Y-99326022D01*
X132760402Y-99375021D01*
X132885981Y-99400000D01*
X133014019Y-99400000D01*
X133139598Y-99375021D01*
X133257890Y-99326022D01*
X133307457Y-99292903D01*
X133309868Y-99317385D01*
X133344108Y-99430259D01*
X133399710Y-99534283D01*
X133474539Y-99625461D01*
X133565717Y-99700290D01*
X133669741Y-99755892D01*
X133782615Y-99790132D01*
X133899999Y-99801693D01*
X134550001Y-99801693D01*
X134667385Y-99790132D01*
X134780259Y-99755892D01*
X134884283Y-99700290D01*
X134975461Y-99625461D01*
X135050290Y-99534283D01*
X135095340Y-99450000D01*
X135348306Y-99450000D01*
X135355064Y-99518612D01*
X135375077Y-99584587D01*
X135407577Y-99645391D01*
X135451315Y-99698685D01*
X135504609Y-99742423D01*
X135565413Y-99774923D01*
X135631388Y-99794936D01*
X135700000Y-99801694D01*
X136137500Y-99800000D01*
X136225000Y-99712500D01*
X136225000Y-98800000D01*
X136325000Y-98800000D01*
X136325000Y-99712500D01*
X136412500Y-99800000D01*
X136850000Y-99801694D01*
X136918612Y-99794936D01*
X136984587Y-99774923D01*
X137045391Y-99742423D01*
X137098685Y-99698685D01*
X137142423Y-99645391D01*
X137174923Y-99584587D01*
X137194936Y-99518612D01*
X137201694Y-99450000D01*
X137200000Y-98887500D01*
X137112500Y-98800000D01*
X136325000Y-98800000D01*
X136225000Y-98800000D01*
X135437500Y-98800000D01*
X135350000Y-98887500D01*
X135348306Y-99450000D01*
X135095340Y-99450000D01*
X135105892Y-99430259D01*
X135140132Y-99317385D01*
X135151693Y-99200001D01*
X135151693Y-98299999D01*
X135140132Y-98182615D01*
X135105892Y-98069741D01*
X135095341Y-98050000D01*
X135348306Y-98050000D01*
X135350000Y-98612500D01*
X135437500Y-98700000D01*
X136225000Y-98700000D01*
X136225000Y-97787500D01*
X136325000Y-97787500D01*
X136325000Y-98700000D01*
X137112500Y-98700000D01*
X137200000Y-98612500D01*
X137201694Y-98050000D01*
X137194936Y-97981388D01*
X137174923Y-97915413D01*
X137142423Y-97854609D01*
X137098685Y-97801315D01*
X137045391Y-97757577D01*
X136984587Y-97725077D01*
X136918612Y-97705064D01*
X136850000Y-97698306D01*
X136412500Y-97700000D01*
X136325000Y-97787500D01*
X136225000Y-97787500D01*
X136137500Y-97700000D01*
X135700000Y-97698306D01*
X135631388Y-97705064D01*
X135565413Y-97725077D01*
X135504609Y-97757577D01*
X135451315Y-97801315D01*
X135407577Y-97854609D01*
X135375077Y-97915413D01*
X135355064Y-97981388D01*
X135348306Y-98050000D01*
X135095341Y-98050000D01*
X135050290Y-97965717D01*
X134975461Y-97874539D01*
X134884283Y-97799710D01*
X134780259Y-97744108D01*
X134667385Y-97709868D01*
X134550001Y-97698307D01*
X133899999Y-97698307D01*
X133782615Y-97709868D01*
X133669741Y-97744108D01*
X133565717Y-97799710D01*
X133474539Y-97874539D01*
X133399710Y-97965717D01*
X133344108Y-98069741D01*
X133309868Y-98182615D01*
X133307457Y-98207097D01*
X133257890Y-98173978D01*
X133139598Y-98124979D01*
X133014019Y-98100000D01*
X132971751Y-98100000D01*
X131800387Y-96928637D01*
X131809650Y-96906274D01*
X131850000Y-96703416D01*
X131850000Y-96496584D01*
X131809650Y-96293726D01*
X131730498Y-96102638D01*
X131615589Y-95930664D01*
X131469336Y-95784411D01*
X131380421Y-95725000D01*
X133053250Y-95725000D01*
X133298307Y-95970057D01*
X133298307Y-96700001D01*
X133309868Y-96817385D01*
X133344108Y-96930259D01*
X133399710Y-97034283D01*
X133474539Y-97125461D01*
X133565717Y-97200290D01*
X133669741Y-97255892D01*
X133782615Y-97290132D01*
X133899999Y-97301693D01*
X134550001Y-97301693D01*
X134667385Y-97290132D01*
X134780259Y-97255892D01*
X134884283Y-97200290D01*
X134975461Y-97125461D01*
X135050290Y-97034283D01*
X135095340Y-96950000D01*
X135348306Y-96950000D01*
X135355064Y-97018612D01*
X135375077Y-97084587D01*
X135407577Y-97145391D01*
X135451315Y-97198685D01*
X135504609Y-97242423D01*
X135565413Y-97274923D01*
X135631388Y-97294936D01*
X135700000Y-97301694D01*
X136137500Y-97300000D01*
X136225000Y-97212500D01*
X136225000Y-96300000D01*
X136325000Y-96300000D01*
X136325000Y-97212500D01*
X136412500Y-97300000D01*
X136850000Y-97301694D01*
X136918612Y-97294936D01*
X136984587Y-97274923D01*
X137045391Y-97242423D01*
X137098685Y-97198685D01*
X137142423Y-97145391D01*
X137174923Y-97084587D01*
X137194936Y-97018612D01*
X137201694Y-96950000D01*
X137200000Y-96387500D01*
X137112500Y-96300000D01*
X136325000Y-96300000D01*
X136225000Y-96300000D01*
X135437500Y-96300000D01*
X135350000Y-96387500D01*
X135348306Y-96950000D01*
X135095340Y-96950000D01*
X135105892Y-96930259D01*
X135140132Y-96817385D01*
X135151693Y-96700001D01*
X135151693Y-95799999D01*
X135140132Y-95682615D01*
X135105892Y-95569741D01*
X135095341Y-95550000D01*
X135348306Y-95550000D01*
X135350000Y-96112500D01*
X135437500Y-96200000D01*
X136225000Y-96200000D01*
X136225000Y-95287500D01*
X136325000Y-95287500D01*
X136325000Y-96200000D01*
X137112500Y-96200000D01*
X137200000Y-96112500D01*
X137201694Y-95550000D01*
X137194936Y-95481388D01*
X137174923Y-95415413D01*
X137142423Y-95354609D01*
X137098685Y-95301315D01*
X137045391Y-95257577D01*
X136984587Y-95225077D01*
X136918612Y-95205064D01*
X136850000Y-95198306D01*
X136412500Y-95200000D01*
X136325000Y-95287500D01*
X136225000Y-95287500D01*
X136137500Y-95200000D01*
X135700000Y-95198306D01*
X135631388Y-95205064D01*
X135565413Y-95225077D01*
X135504609Y-95257577D01*
X135451315Y-95301315D01*
X135407577Y-95354609D01*
X135375077Y-95415413D01*
X135355064Y-95481388D01*
X135348306Y-95550000D01*
X135095341Y-95550000D01*
X135050290Y-95465717D01*
X134975461Y-95374539D01*
X134884283Y-95299710D01*
X134780259Y-95244108D01*
X134667385Y-95209868D01*
X134550001Y-95198307D01*
X133899999Y-95198307D01*
X133872742Y-95200992D01*
X133602384Y-94930634D01*
X133587501Y-94912499D01*
X133515173Y-94853141D01*
X133432654Y-94809034D01*
X133343116Y-94781873D01*
X133273332Y-94775000D01*
X133250000Y-94772702D01*
X133226668Y-94775000D01*
X129273332Y-94775000D01*
X129250000Y-94772702D01*
X129156884Y-94781873D01*
X129067345Y-94809034D01*
X129038602Y-94824398D01*
X128984827Y-94853141D01*
X128912499Y-94912499D01*
X128897625Y-94930623D01*
X128278249Y-95550000D01*
X128196584Y-95550000D01*
X127993726Y-95590350D01*
X127802638Y-95669502D01*
X127630664Y-95784411D01*
X127484411Y-95930664D01*
X127369502Y-96102638D01*
X127290350Y-96293726D01*
X127250000Y-96496584D01*
X122875000Y-96496584D01*
X122875000Y-94537461D01*
X124083250Y-94537461D01*
X124248182Y-94782768D01*
X124567420Y-94958516D01*
X124914811Y-95068606D01*
X125277005Y-95108808D01*
X125640082Y-95077578D01*
X125990090Y-94976115D01*
X126313579Y-94808318D01*
X126351818Y-94782768D01*
X126516750Y-94537461D01*
X125300000Y-93320711D01*
X124083250Y-94537461D01*
X122875000Y-94537461D01*
X122875000Y-93227005D01*
X123441192Y-93227005D01*
X123472422Y-93590082D01*
X123573885Y-93940090D01*
X123741682Y-94263579D01*
X123767232Y-94301818D01*
X124012539Y-94466750D01*
X125229289Y-93250000D01*
X125370711Y-93250000D01*
X126587461Y-94466750D01*
X126832768Y-94301818D01*
X127008516Y-93982580D01*
X127041328Y-93879039D01*
X140293058Y-93879039D01*
X140293058Y-94007077D01*
X140318037Y-94132656D01*
X140367036Y-94250948D01*
X140438170Y-94357409D01*
X140528707Y-94447946D01*
X140635168Y-94519080D01*
X140753460Y-94568079D01*
X140879039Y-94593058D01*
X141007077Y-94593058D01*
X141132656Y-94568079D01*
X141250948Y-94519080D01*
X141357409Y-94447946D01*
X141387297Y-94418058D01*
X142023121Y-94418058D01*
X142072054Y-94491293D01*
X142162591Y-94581830D01*
X142269052Y-94652964D01*
X142387344Y-94701963D01*
X142512923Y-94726942D01*
X142640961Y-94726942D01*
X142766540Y-94701963D01*
X142884832Y-94652964D01*
X142991293Y-94581830D01*
X143081830Y-94491293D01*
X143152964Y-94384832D01*
X143201963Y-94266540D01*
X143226942Y-94140961D01*
X143226942Y-94012923D01*
X143216136Y-93958598D01*
X145607063Y-96349525D01*
X145624979Y-96439598D01*
X145673978Y-96557890D01*
X145745112Y-96664351D01*
X145835649Y-96754888D01*
X145942110Y-96826022D01*
X146060402Y-96875021D01*
X146150476Y-96892938D01*
X147610538Y-98353001D01*
X147626973Y-98373027D01*
X147646999Y-98389462D01*
X147647003Y-98389466D01*
X147675070Y-98412499D01*
X147706914Y-98438633D01*
X147770202Y-98472461D01*
X147798119Y-98487383D01*
X147897082Y-98517403D01*
X148000000Y-98527540D01*
X148025788Y-98525000D01*
X151889643Y-98525000D01*
X151874979Y-98560402D01*
X151850000Y-98685981D01*
X151850000Y-98814019D01*
X151874979Y-98939598D01*
X151923978Y-99057890D01*
X151995112Y-99164351D01*
X152025001Y-99194240D01*
X152025000Y-99805761D01*
X151995112Y-99835649D01*
X151923978Y-99942110D01*
X151874979Y-100060402D01*
X151850000Y-100185981D01*
X151850000Y-100314019D01*
X151874979Y-100439598D01*
X151923978Y-100557890D01*
X151995112Y-100664351D01*
X152085649Y-100754888D01*
X152192110Y-100826022D01*
X152310402Y-100875021D01*
X152435981Y-100900000D01*
X152564019Y-100900000D01*
X152689598Y-100875021D01*
X152807890Y-100826022D01*
X152914351Y-100754888D01*
X153004888Y-100664351D01*
X153076022Y-100557890D01*
X153125021Y-100439598D01*
X153150000Y-100314019D01*
X153150000Y-100185981D01*
X153125021Y-100060402D01*
X153076022Y-99942110D01*
X153004888Y-99835649D01*
X152975000Y-99805761D01*
X152975000Y-99194239D01*
X153004888Y-99164351D01*
X153076022Y-99057890D01*
X153125021Y-98939598D01*
X153150000Y-98814019D01*
X153150000Y-98685981D01*
X153125021Y-98560402D01*
X153110357Y-98525000D01*
X155365749Y-98525000D01*
X155442110Y-98576022D01*
X155560402Y-98625021D01*
X155685981Y-98650000D01*
X155814019Y-98650000D01*
X155939598Y-98625021D01*
X156057890Y-98576022D01*
X156134251Y-98525000D01*
X160324231Y-98525000D01*
X160350011Y-98527539D01*
X160375791Y-98525000D01*
X160375799Y-98525000D01*
X160452929Y-98517403D01*
X160551892Y-98487383D01*
X160643097Y-98438633D01*
X160723038Y-98373027D01*
X160739482Y-98352990D01*
X161199535Y-97892938D01*
X161289609Y-97875021D01*
X161407901Y-97826022D01*
X161514362Y-97754888D01*
X161604899Y-97664351D01*
X161676033Y-97557890D01*
X161725032Y-97439598D01*
X161750011Y-97314019D01*
X161750011Y-97185981D01*
X161725032Y-97060402D01*
X161676033Y-96942110D01*
X161604899Y-96835649D01*
X161514362Y-96745112D01*
X161407901Y-96673978D01*
X161289609Y-96624979D01*
X161164030Y-96600000D01*
X161035992Y-96600000D01*
X160910413Y-96624979D01*
X160792121Y-96673978D01*
X160685660Y-96745112D01*
X160595123Y-96835649D01*
X160523989Y-96942110D01*
X160474990Y-97060402D01*
X160457073Y-97150476D01*
X160132550Y-97475000D01*
X156134251Y-97475000D01*
X156057890Y-97423978D01*
X155939598Y-97374979D01*
X155814019Y-97350000D01*
X155685981Y-97350000D01*
X155560402Y-97374979D01*
X155442110Y-97423978D01*
X155365749Y-97475000D01*
X148217463Y-97475000D01*
X147234833Y-96492370D01*
X165322205Y-96492370D01*
X165362696Y-96640191D01*
X165453392Y-96830665D01*
X165579505Y-96999785D01*
X165736189Y-97141052D01*
X165917422Y-97249037D01*
X166116239Y-97319590D01*
X166325000Y-97350000D01*
X166600000Y-97350000D01*
X166600000Y-96325000D01*
X166700000Y-96325000D01*
X166700000Y-97350000D01*
X166965143Y-97350000D01*
X166950000Y-97426131D01*
X166950000Y-97573869D01*
X166978822Y-97718767D01*
X167035359Y-97855258D01*
X167117437Y-97978097D01*
X167221903Y-98082563D01*
X167344742Y-98164641D01*
X167481233Y-98221178D01*
X167626131Y-98250000D01*
X167773869Y-98250000D01*
X167918767Y-98221178D01*
X168055258Y-98164641D01*
X168178097Y-98082563D01*
X168282563Y-97978097D01*
X168364641Y-97855258D01*
X168421178Y-97718767D01*
X168450000Y-97573869D01*
X168450000Y-97426131D01*
X168421178Y-97281233D01*
X168364641Y-97144742D01*
X168282563Y-97021903D01*
X168178097Y-96917437D01*
X168055258Y-96835359D01*
X167918767Y-96778822D01*
X167875401Y-96770196D01*
X167937304Y-96640191D01*
X167977795Y-96492370D01*
X167911233Y-96325000D01*
X166700000Y-96325000D01*
X166600000Y-96325000D01*
X165388767Y-96325000D01*
X165322205Y-96492370D01*
X147234833Y-96492370D01*
X147061338Y-96318875D01*
X169220545Y-96318875D01*
X169251277Y-96432789D01*
X169328112Y-96597330D01*
X169435571Y-96743719D01*
X169569524Y-96866331D01*
X169724824Y-96960454D01*
X169895502Y-97022472D01*
X170075000Y-97050000D01*
X170400000Y-97050000D01*
X170400000Y-96175000D01*
X169288994Y-96175000D01*
X169220545Y-96318875D01*
X147061338Y-96318875D01*
X146892938Y-96150476D01*
X146875021Y-96060402D01*
X146873873Y-96057630D01*
X165322205Y-96057630D01*
X165388767Y-96225000D01*
X166600000Y-96225000D01*
X166600000Y-95200000D01*
X166700000Y-95200000D01*
X166700000Y-96225000D01*
X167911233Y-96225000D01*
X167977795Y-96057630D01*
X167943143Y-95931125D01*
X169220545Y-95931125D01*
X169288994Y-96075000D01*
X170400000Y-96075000D01*
X170400000Y-95200000D01*
X170075000Y-95200000D01*
X169895502Y-95227528D01*
X169724824Y-95289546D01*
X169569524Y-95383669D01*
X169435571Y-95506281D01*
X169328112Y-95652670D01*
X169251277Y-95817211D01*
X169220545Y-95931125D01*
X167943143Y-95931125D01*
X167937304Y-95909809D01*
X167846608Y-95719335D01*
X167720495Y-95550215D01*
X167563811Y-95408948D01*
X167382578Y-95300963D01*
X167183761Y-95230410D01*
X166975000Y-95200000D01*
X166700000Y-95200000D01*
X166600000Y-95200000D01*
X166325000Y-95200000D01*
X166116239Y-95230410D01*
X165917422Y-95300963D01*
X165736189Y-95408948D01*
X165579505Y-95550215D01*
X165453392Y-95719335D01*
X165362696Y-95909809D01*
X165322205Y-96057630D01*
X146873873Y-96057630D01*
X146826022Y-95942110D01*
X146754888Y-95835649D01*
X146664351Y-95745112D01*
X146557890Y-95673978D01*
X146439598Y-95624979D01*
X146349525Y-95607063D01*
X142889471Y-92147010D01*
X142873027Y-92126973D01*
X142793086Y-92061367D01*
X142701881Y-92012617D01*
X142673136Y-92003897D01*
X142664351Y-91995112D01*
X142557890Y-91923978D01*
X142439598Y-91874979D01*
X142314019Y-91850000D01*
X142185981Y-91850000D01*
X142060402Y-91874979D01*
X141942110Y-91923978D01*
X141835649Y-91995112D01*
X141745112Y-92085649D01*
X141673978Y-92192110D01*
X141624979Y-92310402D01*
X141600000Y-92435981D01*
X141600000Y-92564019D01*
X141624979Y-92689598D01*
X141673978Y-92807890D01*
X141745112Y-92914351D01*
X141835649Y-93004888D01*
X141942110Y-93076022D01*
X142060402Y-93125021D01*
X142185981Y-93150000D01*
X142314019Y-93150000D01*
X142392023Y-93134484D01*
X142695287Y-93437748D01*
X142640961Y-93426942D01*
X142512923Y-93426942D01*
X142387344Y-93451921D01*
X142348387Y-93468058D01*
X141387297Y-93468058D01*
X141357409Y-93438170D01*
X141250948Y-93367036D01*
X141132656Y-93318037D01*
X141007077Y-93293058D01*
X140879039Y-93293058D01*
X140753460Y-93318037D01*
X140635168Y-93367036D01*
X140528707Y-93438170D01*
X140438170Y-93528707D01*
X140367036Y-93635168D01*
X140318037Y-93753460D01*
X140293058Y-93879039D01*
X127041328Y-93879039D01*
X127118606Y-93635189D01*
X127158808Y-93272995D01*
X127127578Y-92909918D01*
X127026115Y-92559910D01*
X126858318Y-92236421D01*
X126832768Y-92198182D01*
X126587461Y-92033250D01*
X125370711Y-93250000D01*
X125229289Y-93250000D01*
X124012539Y-92033250D01*
X123767232Y-92198182D01*
X123591484Y-92517420D01*
X123481394Y-92864811D01*
X123441192Y-93227005D01*
X122875000Y-93227005D01*
X122875000Y-91962539D01*
X124083250Y-91962539D01*
X125300000Y-93179289D01*
X126516750Y-91962539D01*
X126351818Y-91717232D01*
X126032580Y-91541484D01*
X125685189Y-91431394D01*
X125322995Y-91391192D01*
X124959918Y-91422422D01*
X124609910Y-91523885D01*
X124286421Y-91691682D01*
X124248182Y-91717232D01*
X124083250Y-91962539D01*
X122875000Y-91962539D01*
X122875000Y-89275000D01*
X171625000Y-89275000D01*
X171625000Y-95766409D01*
G37*
%TD.AperFunction*%
%TD*%
M02*
