%TF.GenerationSoftware,KiCad,Pcbnew,(6.0.0)*%
%TF.CreationDate,2022-01-04T17:43:04-06:00*%
%TF.ProjectId,minirib-usb,6d696e69-7269-4622-9d75-73622e6b6963,B*%
%TF.SameCoordinates,Original*%
%TF.FileFunction,Soldermask,Bot*%
%TF.FilePolarity,Negative*%
%FSLAX46Y46*%
G04 Gerber Fmt 4.6, Leading zero omitted, Abs format (unit mm)*
G04 Created by KiCad (PCBNEW (6.0.0)) date 2022-01-04 17:43:04*
%MOMM*%
%LPD*%
G01*
G04 APERTURE LIST*
G04 Aperture macros list*
%AMRoundRect*
0 Rectangle with rounded corners*
0 $1 Rounding radius*
0 $2 $3 $4 $5 $6 $7 $8 $9 X,Y pos of 4 corners*
0 Add a 4 corners polygon primitive as box body*
4,1,4,$2,$3,$4,$5,$6,$7,$8,$9,$2,$3,0*
0 Add four circle primitives for the rounded corners*
1,1,$1+$1,$2,$3*
1,1,$1+$1,$4,$5*
1,1,$1+$1,$6,$7*
1,1,$1+$1,$8,$9*
0 Add four rect primitives between the rounded corners*
20,1,$1+$1,$2,$3,$4,$5,0*
20,1,$1+$1,$4,$5,$6,$7,0*
20,1,$1+$1,$6,$7,$8,$9,0*
20,1,$1+$1,$8,$9,$2,$3,0*%
G04 Aperture macros list end*
%ADD10C,2.200000*%
%ADD11C,1.400000*%
%ADD12C,3.000000*%
%ADD13O,0.800000X0.800000*%
%ADD14O,1.800000X1.150000*%
%ADD15O,2.000000X1.450000*%
%ADD16RoundRect,0.250000X0.475000X-0.337500X0.475000X0.337500X-0.475000X0.337500X-0.475000X-0.337500X0*%
%ADD17RoundRect,0.249999X-0.325001X-0.450001X0.325001X-0.450001X0.325001X0.450001X-0.325001X0.450001X0*%
%ADD18RoundRect,0.249999X-0.450001X0.350001X-0.450001X-0.350001X0.450001X-0.350001X0.450001X0.350001X0*%
%ADD19RoundRect,0.249999X0.450001X-0.350001X0.450001X0.350001X-0.450001X0.350001X-0.450001X-0.350001X0*%
%ADD20RoundRect,0.250000X-0.475000X0.337500X-0.475000X-0.337500X0.475000X-0.337500X0.475000X0.337500X0*%
%ADD21R,2.100000X1.800000*%
G04 APERTURE END LIST*
D10*
%TO.C,J2*%
X125000000Y-101000000D03*
D11*
X128800000Y-102300000D03*
X128800000Y-99700000D03*
X128800000Y-104400000D03*
X128800000Y-97600000D03*
X131300000Y-104400000D03*
X131300000Y-97600000D03*
D12*
X125800000Y-107750000D03*
X125800000Y-94250000D03*
%TD*%
D13*
%TO.C,J1*%
X168450000Y-103750000D03*
X168450000Y-98750000D03*
D14*
X171200000Y-97375000D03*
X171200000Y-105125000D03*
D15*
X167400000Y-104975000D03*
X167400000Y-97525000D03*
%TD*%
D16*
%TO.C,C3*%
X130000000Y-94287500D03*
X130000000Y-92212500D03*
%TD*%
D17*
%TO.C,D1*%
X134000000Y-100000000D03*
X136050000Y-100000000D03*
%TD*%
%TO.C,D2*%
X134000000Y-97500000D03*
X136050000Y-97500000D03*
%TD*%
%TO.C,D3*%
X134000000Y-105000000D03*
X136050000Y-105000000D03*
%TD*%
%TO.C,D4*%
X134000000Y-102500000D03*
X136050000Y-102500000D03*
%TD*%
D18*
%TO.C,R3*%
X132250000Y-92250000D03*
X132250000Y-94250000D03*
%TD*%
D19*
%TO.C,R4*%
X134500000Y-94250000D03*
X134500000Y-92250000D03*
%TD*%
D20*
%TO.C,C2*%
X152250000Y-93962500D03*
X152250000Y-96037500D03*
%TD*%
D21*
%TO.C,Y1*%
X157700000Y-96100000D03*
X154800000Y-96100000D03*
X154800000Y-93900000D03*
X157700000Y-93900000D03*
%TD*%
D16*
%TO.C,C9*%
X160250000Y-96037500D03*
X160250000Y-93962500D03*
%TD*%
M02*
