%TF.GenerationSoftware,KiCad,Pcbnew,(6.0.0)*%
%TF.CreationDate,2022-01-04T17:33:13-06:00*%
%TF.ProjectId,minirib-usb,6d696e69-7269-4622-9d75-73622e6b6963,B*%
%TF.SameCoordinates,Original*%
%TF.FileFunction,Copper,L2,Bot*%
%TF.FilePolarity,Positive*%
%FSLAX46Y46*%
G04 Gerber Fmt 4.6, Leading zero omitted, Abs format (unit mm)*
G04 Created by KiCad (PCBNEW (6.0.0)) date 2022-01-04 17:33:13*
%MOMM*%
%LPD*%
G01*
G04 APERTURE LIST*
G04 Aperture macros list*
%AMRoundRect*
0 Rectangle with rounded corners*
0 $1 Rounding radius*
0 $2 $3 $4 $5 $6 $7 $8 $9 X,Y pos of 4 corners*
0 Add a 4 corners polygon primitive as box body*
4,1,4,$2,$3,$4,$5,$6,$7,$8,$9,$2,$3,0*
0 Add four circle primitives for the rounded corners*
1,1,$1+$1,$2,$3*
1,1,$1+$1,$4,$5*
1,1,$1+$1,$6,$7*
1,1,$1+$1,$8,$9*
0 Add four rect primitives between the rounded corners*
20,1,$1+$1,$2,$3,$4,$5,0*
20,1,$1+$1,$4,$5,$6,$7,0*
20,1,$1+$1,$6,$7,$8,$9,0*
20,1,$1+$1,$8,$9,$2,$3,0*%
G04 Aperture macros list end*
%TA.AperFunction,ComponentPad*%
%ADD10C,1.400000*%
%TD*%
%TA.AperFunction,ComponentPad*%
%ADD11C,3.000000*%
%TD*%
%TA.AperFunction,ComponentPad*%
%ADD12O,1.800000X1.150000*%
%TD*%
%TA.AperFunction,ComponentPad*%
%ADD13O,2.000000X1.450000*%
%TD*%
%TA.AperFunction,SMDPad,CuDef*%
%ADD14RoundRect,0.250000X0.475000X-0.337500X0.475000X0.337500X-0.475000X0.337500X-0.475000X-0.337500X0*%
%TD*%
%TA.AperFunction,SMDPad,CuDef*%
%ADD15RoundRect,0.249999X-0.325001X-0.450001X0.325001X-0.450001X0.325001X0.450001X-0.325001X0.450001X0*%
%TD*%
%TA.AperFunction,SMDPad,CuDef*%
%ADD16RoundRect,0.249999X-0.450001X0.350001X-0.450001X-0.350001X0.450001X-0.350001X0.450001X0.350001X0*%
%TD*%
%TA.AperFunction,SMDPad,CuDef*%
%ADD17RoundRect,0.249999X0.450001X-0.350001X0.450001X0.350001X-0.450001X0.350001X-0.450001X-0.350001X0*%
%TD*%
%TA.AperFunction,SMDPad,CuDef*%
%ADD18RoundRect,0.250000X-0.475000X0.337500X-0.475000X-0.337500X0.475000X-0.337500X0.475000X0.337500X0*%
%TD*%
%TA.AperFunction,SMDPad,CuDef*%
%ADD19R,2.100000X1.800000*%
%TD*%
%TA.AperFunction,ViaPad*%
%ADD20C,0.600000*%
%TD*%
%TA.AperFunction,Conductor*%
%ADD21C,0.350000*%
%TD*%
%TA.AperFunction,Conductor*%
%ADD22C,0.250000*%
%TD*%
G04 APERTURE END LIST*
D10*
%TO.P,J2,1*%
%TO.N,GND*%
X128800000Y-102300000D03*
%TO.P,J2,2*%
%TO.N,BIAS*%
X128800000Y-99700000D03*
%TO.P,J2,3*%
%TO.N,BUSY*%
X128800000Y-104400000D03*
%TO.P,J2,4*%
%TO.N,~{BUSY}*%
X128800000Y-97600000D03*
%TO.P,J2,5*%
%TO.N,BUS+*%
X131300000Y-104400000D03*
%TO.P,J2,6*%
%TO.N,BUS-*%
X131300000Y-97600000D03*
D11*
%TO.P,J2,SH*%
%TO.N,GND*%
X125800000Y-107750000D03*
X125800000Y-94250000D03*
%TD*%
D12*
%TO.P,J1,6,Shield*%
%TO.N,GND*%
X171200000Y-97375000D03*
X171200000Y-105125000D03*
D13*
X167400000Y-104975000D03*
X167400000Y-97525000D03*
%TD*%
D14*
%TO.P,C3,1*%
%TO.N,BIAS*%
X130000000Y-94287500D03*
%TO.P,C3,2*%
%TO.N,GND*%
X130000000Y-92212500D03*
%TD*%
D15*
%TO.P,D1,1,A1*%
%TO.N,BUS-*%
X134000000Y-100000000D03*
%TO.P,D1,2,A2*%
%TO.N,GND*%
X136050000Y-100000000D03*
%TD*%
%TO.P,D2,1,A1*%
%TO.N,~{BUSY}*%
X134000000Y-97500000D03*
%TO.P,D2,2,A2*%
%TO.N,GND*%
X136050000Y-97500000D03*
%TD*%
%TO.P,D3,1,A1*%
%TO.N,BUSY*%
X134000000Y-105000000D03*
%TO.P,D3,2,A2*%
%TO.N,GND*%
X136050000Y-105000000D03*
%TD*%
%TO.P,D4,1,A1*%
%TO.N,BUS+*%
X134000000Y-102500000D03*
%TO.P,D4,2,A2*%
%TO.N,GND*%
X136050000Y-102500000D03*
%TD*%
D16*
%TO.P,R3,1*%
%TO.N,BIAS*%
X132250000Y-92250000D03*
%TO.P,R3,2*%
%TO.N,+5V*%
X132250000Y-94250000D03*
%TD*%
D17*
%TO.P,R4,1*%
%TO.N,GND*%
X134500000Y-94250000D03*
%TO.P,R4,2*%
%TO.N,BIAS*%
X134500000Y-92250000D03*
%TD*%
D18*
%TO.P,C2,1*%
%TO.N,Net-(C2-Pad1)*%
X152250000Y-93962500D03*
%TO.P,C2,2*%
%TO.N,GND*%
X152250000Y-96037500D03*
%TD*%
D19*
%TO.P,Y1,1,1*%
%TO.N,Net-(C9-Pad1)*%
X157700000Y-96100000D03*
%TO.P,Y1,2,2*%
%TO.N,GND*%
X154800000Y-96100000D03*
%TO.P,Y1,3,3*%
%TO.N,Net-(C2-Pad1)*%
X154800000Y-93900000D03*
%TO.P,Y1,4,4*%
%TO.N,GND*%
X157700000Y-93900000D03*
%TD*%
D14*
%TO.P,C9,1*%
%TO.N,Net-(C9-Pad1)*%
X160250000Y-96037500D03*
%TO.P,C9,2*%
%TO.N,GND*%
X160250000Y-93962500D03*
%TD*%
D20*
%TO.N,GND*%
X171750000Y-90500000D03*
X140750000Y-90500000D03*
X123750000Y-90500000D03*
X146750000Y-90500000D03*
X163750000Y-90500000D03*
X127750000Y-90500000D03*
X155750000Y-90500000D03*
X151750000Y-90500000D03*
X148750000Y-90500000D03*
X166750000Y-90500000D03*
X137750000Y-90500000D03*
X143750000Y-90500000D03*
X157750000Y-90500000D03*
X130750000Y-90500000D03*
X159750000Y-90500000D03*
X125750000Y-90500000D03*
X129750000Y-90500000D03*
X131750000Y-90500000D03*
X128750000Y-90500000D03*
X134750000Y-90500000D03*
X153750000Y-90500000D03*
X124750000Y-90500000D03*
X126750000Y-90500000D03*
X138750000Y-90500000D03*
X147750000Y-90500000D03*
X141750000Y-90500000D03*
X144750000Y-90500000D03*
X135750000Y-90500000D03*
X158750000Y-90500000D03*
X149750000Y-90500000D03*
X150750000Y-90500000D03*
X152750000Y-90500000D03*
X154750000Y-90500000D03*
X156750000Y-90500000D03*
X161750000Y-90500000D03*
X132750000Y-90500000D03*
X165750000Y-90500000D03*
X162750000Y-90500000D03*
X164750000Y-90500000D03*
X142750000Y-90500000D03*
X133750000Y-90500000D03*
X160750000Y-90500000D03*
X139750000Y-90500000D03*
X145750000Y-90500000D03*
X136750000Y-90500000D03*
X168750000Y-90500000D03*
X169750000Y-90500000D03*
X170750000Y-90500000D03*
X167750000Y-90500000D03*
X127750000Y-111750000D03*
X170750000Y-111750000D03*
X148750000Y-111750000D03*
X144750000Y-111750000D03*
X129750000Y-111750000D03*
X137750000Y-111750000D03*
X138750000Y-111750000D03*
X171750000Y-109750000D03*
X160000000Y-109800000D03*
X128750000Y-111750000D03*
X151750000Y-111750000D03*
X123750000Y-111750000D03*
X164750000Y-111750000D03*
X171750000Y-107750000D03*
X133750000Y-111750000D03*
X160800000Y-109000000D03*
X171750000Y-92500000D03*
X171750000Y-103500000D03*
X171750000Y-91500000D03*
X136750000Y-111750000D03*
X141600000Y-109000000D03*
X168750000Y-111750000D03*
X148200000Y-99000000D03*
X171750000Y-99500000D03*
X143400000Y-109000000D03*
X140750000Y-111750000D03*
X130750000Y-111750000D03*
X149750000Y-111750000D03*
X171750000Y-100500000D03*
X167750000Y-111750000D03*
X125750000Y-111750000D03*
X166750000Y-111750000D03*
X171750000Y-110750000D03*
X124750000Y-111750000D03*
X169750000Y-111750000D03*
X171750000Y-94500000D03*
X134750000Y-111750000D03*
X171750000Y-98500000D03*
X171750000Y-108750000D03*
X131750000Y-111750000D03*
X162750000Y-111750000D03*
X152750000Y-111750000D03*
X171750000Y-102500000D03*
X171750000Y-93500000D03*
X156750000Y-111750000D03*
X154750000Y-111750000D03*
X171750000Y-95500000D03*
X159750000Y-111750000D03*
X160750000Y-111750000D03*
X153750000Y-111750000D03*
X143400000Y-110000000D03*
X150750000Y-111750000D03*
X171750000Y-106750000D03*
X132750000Y-111750000D03*
X145750000Y-111750000D03*
X151400000Y-100800000D03*
X160800000Y-109800000D03*
X135750000Y-111750000D03*
X163750000Y-111750000D03*
X126750000Y-111750000D03*
X161750000Y-111750000D03*
X157750000Y-111750000D03*
X165750000Y-111750000D03*
X171750000Y-111750000D03*
X155750000Y-111750000D03*
X158750000Y-111750000D03*
X146750000Y-111750000D03*
X139750000Y-111750000D03*
X171750000Y-101500000D03*
X147750000Y-111750000D03*
%TO.N,+5V*%
X148750000Y-93000000D03*
%TO.N,Net-(C2-Pad1)*%
X157500000Y-100500000D03*
%TO.N,TXD*%
X156250000Y-107500000D03*
X151750000Y-110000000D03*
%TO.N,~{CTS}*%
X153000000Y-98750000D03*
X140700500Y-92500000D03*
%TO.N,RXD*%
X150250000Y-103000000D03*
X156750000Y-106250000D03*
X170000000Y-94750000D03*
%TO.N,~{BUSY}*%
X143500000Y-98750000D03*
%TO.N,BUSY*%
X136000000Y-94750000D03*
X130250000Y-95500000D03*
%TO.N,Net-(C9-Pad1)*%
X160250000Y-98750000D03*
%TD*%
D21*
%TO.N,+5V*%
X133275480Y-93224520D02*
X136275480Y-93224520D01*
X136275480Y-93224520D02*
X137750000Y-91750000D01*
X137750000Y-91750000D02*
X138000000Y-91500000D01*
X138000000Y-91500000D02*
X147250000Y-91500000D01*
X147250000Y-91500000D02*
X148750000Y-93000000D01*
X132250000Y-94250000D02*
X133275480Y-93224520D01*
%TO.N,Net-(C2-Pad1)*%
X156224511Y-94474511D02*
X155650000Y-93900000D01*
X156224511Y-99224511D02*
X156224511Y-94474511D01*
X157500000Y-100500000D02*
X156224511Y-99224511D01*
X152250000Y-93962500D02*
X154737500Y-93962500D01*
X155650000Y-93900000D02*
X154800000Y-93900000D01*
X154737500Y-93962500D02*
X154800000Y-93900000D01*
%TO.N,BIAS*%
X129212500Y-94287500D02*
X127250000Y-96250000D01*
X132037500Y-92250000D02*
X130000000Y-94287500D01*
D22*
X134500000Y-92250000D02*
X132250000Y-92250000D01*
D21*
X127700000Y-99700000D02*
X128800000Y-99700000D01*
X127250000Y-99250000D02*
X127700000Y-99700000D01*
X127250000Y-96250000D02*
X127250000Y-99250000D01*
X132250000Y-92250000D02*
X132037500Y-92250000D01*
X130000000Y-94287500D02*
X129212500Y-94287500D01*
%TO.N,TXD*%
X156250000Y-107500000D02*
X154250000Y-107500000D01*
X154250000Y-107500000D02*
X151750000Y-110000000D01*
%TO.N,~{CTS}*%
X140700500Y-92500000D02*
X140700500Y-93700500D01*
X153000000Y-98750000D02*
X152500000Y-98250000D01*
X140700500Y-93700500D02*
X145250000Y-98250000D01*
X145250000Y-98250000D02*
X152500000Y-98250000D01*
%TO.N,RXD*%
X168500000Y-106750000D02*
X169500000Y-105750000D01*
X169500000Y-105750000D02*
X169500000Y-95500000D01*
X169500000Y-95500000D02*
X169500000Y-95250000D01*
X153500000Y-103000000D02*
X150250000Y-103000000D01*
X169500000Y-95250000D02*
X170000000Y-94750000D01*
X156750000Y-106250000D02*
X157250000Y-106750000D01*
X157250000Y-106750000D02*
X168500000Y-106750000D01*
X156750000Y-106250000D02*
X153500000Y-103000000D01*
%TO.N,BUS-*%
X132000000Y-100000000D02*
X134000000Y-100000000D01*
X131300000Y-99300000D02*
X132000000Y-100000000D01*
X131300000Y-97600000D02*
X131300000Y-99300000D01*
%TO.N,~{BUSY}*%
X128800000Y-97600000D02*
X128800000Y-96200000D01*
X128800000Y-96200000D02*
X133700000Y-96200000D01*
X143500000Y-98750000D02*
X135250000Y-98750000D01*
X133700000Y-96200000D02*
X134000000Y-96500000D01*
X134000000Y-96500000D02*
X134000000Y-97500000D01*
X135250000Y-98750000D02*
X134000000Y-97500000D01*
%TO.N,BUSY*%
X135250000Y-95500000D02*
X130250000Y-95500000D01*
X136000000Y-94750000D02*
X135250000Y-95500000D01*
X132750000Y-106250000D02*
X129500000Y-106250000D01*
X128800000Y-105550000D02*
X128800000Y-104400000D01*
X129500000Y-106250000D02*
X128800000Y-105550000D01*
X134000000Y-105000000D02*
X132750000Y-106250000D01*
%TO.N,BUS+*%
X131300000Y-102950000D02*
X131750000Y-102500000D01*
X131750000Y-102500000D02*
X134000000Y-102500000D01*
X131300000Y-104400000D02*
X131300000Y-102950000D01*
%TO.N,Net-(C9-Pad1)*%
X160250000Y-96037500D02*
X157762500Y-96037500D01*
X157762500Y-96037500D02*
X157700000Y-96100000D01*
X160250000Y-98750000D02*
X160250000Y-96037500D01*
%TD*%
%TA.AperFunction,Conductor*%
%TO.N,GND*%
G36*
X172209191Y-90168907D02*
G01*
X172245155Y-90218407D01*
X172250000Y-90249000D01*
X172250000Y-96690479D01*
X172231093Y-96748670D01*
X172181593Y-96784634D01*
X172120407Y-96784634D01*
X172090870Y-96769126D01*
X171959153Y-96668421D01*
X171950030Y-96662896D01*
X171797296Y-96591675D01*
X171787208Y-96588240D01*
X171621463Y-96551192D01*
X171613455Y-96550081D01*
X171613399Y-96550077D01*
X171610619Y-96550000D01*
X171365680Y-96550000D01*
X171352995Y-96554122D01*
X171350000Y-96558243D01*
X171350000Y-98184320D01*
X171354122Y-98197005D01*
X171358243Y-98200000D01*
X171567108Y-98200000D01*
X171572442Y-98199711D01*
X171697876Y-98186085D01*
X171708279Y-98183797D01*
X171868009Y-98130042D01*
X171877684Y-98125572D01*
X172022140Y-98038773D01*
X172030635Y-98032326D01*
X172082979Y-97982827D01*
X172138250Y-97956583D01*
X172198391Y-97967838D01*
X172240430Y-98012294D01*
X172250000Y-98054758D01*
X172250000Y-104440479D01*
X172231093Y-104498670D01*
X172181593Y-104534634D01*
X172120407Y-104534634D01*
X172090870Y-104519126D01*
X171959153Y-104418421D01*
X171950030Y-104412896D01*
X171797296Y-104341675D01*
X171787208Y-104338240D01*
X171621463Y-104301192D01*
X171613455Y-104300081D01*
X171613399Y-104300077D01*
X171610619Y-104300000D01*
X171365680Y-104300000D01*
X171352995Y-104304122D01*
X171350000Y-104308243D01*
X171350000Y-105934320D01*
X171354122Y-105947005D01*
X171358243Y-105950000D01*
X171567108Y-105950000D01*
X171572442Y-105949711D01*
X171697876Y-105936085D01*
X171708279Y-105933797D01*
X171868009Y-105880042D01*
X171877684Y-105875572D01*
X172022140Y-105788773D01*
X172030635Y-105782326D01*
X172082979Y-105732827D01*
X172138250Y-105706583D01*
X172198391Y-105717838D01*
X172240430Y-105762294D01*
X172250000Y-105804758D01*
X172250000Y-112051000D01*
X172231093Y-112109191D01*
X172181593Y-112145155D01*
X172151000Y-112150000D01*
X123349000Y-112150000D01*
X123290809Y-112131093D01*
X123254845Y-112081593D01*
X123250000Y-112051000D01*
X123250000Y-110000000D01*
X151194750Y-110000000D01*
X151195597Y-110006433D01*
X151206187Y-110086868D01*
X151213670Y-110143709D01*
X151269139Y-110277625D01*
X151357379Y-110392621D01*
X151472375Y-110480861D01*
X151606291Y-110536330D01*
X151612720Y-110537176D01*
X151612722Y-110537177D01*
X151743567Y-110554403D01*
X151750000Y-110555250D01*
X151756433Y-110554403D01*
X151887278Y-110537177D01*
X151887280Y-110537176D01*
X151893709Y-110536330D01*
X152027625Y-110480861D01*
X152142621Y-110392621D01*
X152230861Y-110277625D01*
X152286330Y-110143709D01*
X152293813Y-110086867D01*
X152321962Y-110029786D01*
X154397252Y-107954496D01*
X154451769Y-107926719D01*
X154467256Y-107925500D01*
X155866621Y-107925500D01*
X155926889Y-107945958D01*
X155972375Y-107980861D01*
X156106291Y-108036330D01*
X156112720Y-108037176D01*
X156112722Y-108037177D01*
X156243567Y-108054403D01*
X156250000Y-108055250D01*
X156256433Y-108054403D01*
X156387278Y-108037177D01*
X156387280Y-108037176D01*
X156393709Y-108036330D01*
X156527625Y-107980861D01*
X156642621Y-107892621D01*
X156730861Y-107777625D01*
X156786330Y-107643709D01*
X156805250Y-107500000D01*
X156786330Y-107356291D01*
X156730861Y-107222375D01*
X156642621Y-107107379D01*
X156527625Y-107019139D01*
X156393709Y-106963670D01*
X156387280Y-106962824D01*
X156387278Y-106962823D01*
X156256433Y-106945597D01*
X156250000Y-106944750D01*
X156243567Y-106945597D01*
X156112722Y-106962823D01*
X156112720Y-106962824D01*
X156106291Y-106963670D01*
X155972375Y-107019139D01*
X155967226Y-107023090D01*
X155926889Y-107054042D01*
X155866621Y-107074500D01*
X154182607Y-107074500D01*
X154175202Y-107076906D01*
X154175196Y-107076907D01*
X154157767Y-107082570D01*
X154142665Y-107086196D01*
X154124570Y-107089062D01*
X154116874Y-107090281D01*
X154093598Y-107102140D01*
X154079256Y-107108081D01*
X154054419Y-107116151D01*
X154033285Y-107131506D01*
X154020056Y-107139612D01*
X153996780Y-107151472D01*
X151720214Y-109428038D01*
X151663133Y-109456187D01*
X151639003Y-109459363D01*
X151612722Y-109462823D01*
X151612720Y-109462824D01*
X151606291Y-109463670D01*
X151472375Y-109519139D01*
X151357379Y-109607379D01*
X151269139Y-109722375D01*
X151213670Y-109856291D01*
X151194750Y-110000000D01*
X123250000Y-110000000D01*
X123250000Y-109092605D01*
X124675356Y-109092605D01*
X124675546Y-109093804D01*
X124679684Y-109098671D01*
X124867082Y-109236076D01*
X124873287Y-109239954D01*
X125096977Y-109357643D01*
X125103705Y-109360568D01*
X125342333Y-109443900D01*
X125349400Y-109445794D01*
X125597730Y-109492941D01*
X125605010Y-109493770D01*
X125857575Y-109503694D01*
X125864895Y-109503438D01*
X126116165Y-109475920D01*
X126123348Y-109474588D01*
X126367794Y-109410231D01*
X126374720Y-109407846D01*
X126606948Y-109308073D01*
X126613449Y-109304689D01*
X126828382Y-109171685D01*
X126834315Y-109167374D01*
X126914911Y-109099145D01*
X126921931Y-109087800D01*
X126921704Y-109084740D01*
X126919909Y-109082041D01*
X125811086Y-107973218D01*
X125799203Y-107967164D01*
X125794172Y-107967960D01*
X124681410Y-109080722D01*
X124675356Y-109092605D01*
X123250000Y-109092605D01*
X123250000Y-107707729D01*
X124045870Y-107707729D01*
X124057998Y-107960204D01*
X124058890Y-107967467D01*
X124108202Y-108215379D01*
X124110159Y-108222435D01*
X124195568Y-108460318D01*
X124198557Y-108467031D01*
X124318184Y-108689668D01*
X124322127Y-108695859D01*
X124449496Y-108866426D01*
X124460388Y-108874124D01*
X124461838Y-108874105D01*
X124466929Y-108870939D01*
X125576782Y-107761086D01*
X125582024Y-107750797D01*
X126017164Y-107750797D01*
X126017960Y-107755828D01*
X127128178Y-108866046D01*
X127140061Y-108872100D01*
X127143548Y-108871548D01*
X127145476Y-108870048D01*
X127199110Y-108808890D01*
X127203520Y-108803037D01*
X127340252Y-108590462D01*
X127343754Y-108584013D01*
X127447565Y-108353562D01*
X127450069Y-108346683D01*
X127518680Y-108103408D01*
X127520141Y-108096224D01*
X127552188Y-107844312D01*
X127552567Y-107839362D01*
X127554842Y-107752492D01*
X127554722Y-107747517D01*
X127535903Y-107494262D01*
X127534822Y-107487033D01*
X127479036Y-107240495D01*
X127476896Y-107233494D01*
X127385283Y-106997913D01*
X127382132Y-106991307D01*
X127256708Y-106771859D01*
X127252609Y-106765782D01*
X127149350Y-106634801D01*
X127138262Y-106627392D01*
X127136118Y-106627476D01*
X127132056Y-106630076D01*
X126023218Y-107738914D01*
X126017164Y-107750797D01*
X125582024Y-107750797D01*
X125582836Y-107749203D01*
X125582040Y-107744172D01*
X124472059Y-106634191D01*
X124460176Y-106628137D01*
X124457374Y-106628580D01*
X124454528Y-106630854D01*
X124373650Y-106728098D01*
X124369398Y-106734059D01*
X124238274Y-106950145D01*
X124234944Y-106956681D01*
X124137202Y-107189770D01*
X124134875Y-107196723D01*
X124072658Y-107441703D01*
X124071386Y-107448919D01*
X124046062Y-107700410D01*
X124045870Y-107707729D01*
X123250000Y-107707729D01*
X123250000Y-106411549D01*
X124677580Y-106411549D01*
X124677957Y-106415293D01*
X124679107Y-106416975D01*
X125788914Y-107526782D01*
X125800797Y-107532836D01*
X125805828Y-107532040D01*
X126917679Y-106420189D01*
X126923733Y-106408306D01*
X126923037Y-106403912D01*
X126922535Y-106403243D01*
X126907078Y-106388701D01*
X126901377Y-106384085D01*
X126693704Y-106240017D01*
X126687381Y-106236293D01*
X126460704Y-106124509D01*
X126453895Y-106121757D01*
X126213171Y-106044700D01*
X126206054Y-106042991D01*
X125956569Y-106002360D01*
X125949285Y-106001723D01*
X125696529Y-105998414D01*
X125689233Y-105998860D01*
X125438766Y-106032948D01*
X125431614Y-106034468D01*
X125188946Y-106105199D01*
X125182081Y-106107766D01*
X124952539Y-106213586D01*
X124946133Y-106217138D01*
X124734747Y-106355728D01*
X124728946Y-106360179D01*
X124684298Y-106400029D01*
X124677580Y-106411549D01*
X123250000Y-106411549D01*
X123250000Y-104386665D01*
X127844994Y-104386665D01*
X127847197Y-104412896D01*
X127857965Y-104541125D01*
X127860592Y-104572414D01*
X127861925Y-104577062D01*
X127861925Y-104577063D01*
X127871829Y-104611601D01*
X127911971Y-104751595D01*
X127997176Y-104917385D01*
X128112959Y-105063468D01*
X128116646Y-105066606D01*
X128116648Y-105066608D01*
X128251224Y-105181141D01*
X128251229Y-105181144D01*
X128254912Y-105184279D01*
X128259134Y-105186639D01*
X128259139Y-105186642D01*
X128323798Y-105222778D01*
X128365370Y-105267671D01*
X128374500Y-105309197D01*
X128374500Y-105617393D01*
X128376906Y-105624798D01*
X128376907Y-105624804D01*
X128382570Y-105642233D01*
X128386196Y-105657335D01*
X128390281Y-105683126D01*
X128402140Y-105706402D01*
X128408081Y-105720744D01*
X128416151Y-105745581D01*
X128431506Y-105766715D01*
X128439612Y-105779944D01*
X128451472Y-105803220D01*
X129246780Y-106598528D01*
X129270056Y-106610388D01*
X129283285Y-106618494D01*
X129304419Y-106633849D01*
X129329256Y-106641919D01*
X129343598Y-106647860D01*
X129366874Y-106659719D01*
X129374570Y-106660938D01*
X129392665Y-106663804D01*
X129407767Y-106667430D01*
X129425196Y-106673093D01*
X129425202Y-106673094D01*
X129432607Y-106675500D01*
X132817393Y-106675500D01*
X132824798Y-106673094D01*
X132824804Y-106673093D01*
X132842233Y-106667430D01*
X132857335Y-106663804D01*
X132875430Y-106660938D01*
X132883126Y-106659719D01*
X132906402Y-106647860D01*
X132920744Y-106641919D01*
X132945581Y-106633849D01*
X132966715Y-106618494D01*
X132979944Y-106610388D01*
X133003220Y-106598528D01*
X133622252Y-105979496D01*
X133676769Y-105951719D01*
X133692256Y-105950500D01*
X134372378Y-105950500D01*
X134433581Y-105943851D01*
X134567824Y-105893526D01*
X134682547Y-105807547D01*
X134687048Y-105801542D01*
X134752903Y-105713670D01*
X134768526Y-105692824D01*
X134818851Y-105558581D01*
X134825500Y-105497378D01*
X134825500Y-105494655D01*
X135225001Y-105494655D01*
X135225290Y-105499995D01*
X135230972Y-105552301D01*
X135233821Y-105564286D01*
X135279440Y-105685975D01*
X135286148Y-105698228D01*
X135363577Y-105801542D01*
X135373458Y-105811423D01*
X135476772Y-105888852D01*
X135489025Y-105895560D01*
X135610712Y-105941178D01*
X135622701Y-105944029D01*
X135675008Y-105949711D01*
X135680342Y-105950000D01*
X135884320Y-105950000D01*
X135897005Y-105945878D01*
X135900000Y-105941757D01*
X135900000Y-105934319D01*
X136200000Y-105934319D01*
X136204122Y-105947004D01*
X136208243Y-105949999D01*
X136419655Y-105949999D01*
X136424995Y-105949710D01*
X136477301Y-105944028D01*
X136489286Y-105941179D01*
X136610975Y-105895560D01*
X136623228Y-105888852D01*
X136726542Y-105811423D01*
X136736423Y-105801542D01*
X136813852Y-105698228D01*
X136820560Y-105685975D01*
X136866178Y-105564288D01*
X136869029Y-105552299D01*
X136874711Y-105499992D01*
X136875000Y-105494658D01*
X136875000Y-105165680D01*
X136870878Y-105152995D01*
X136866757Y-105150000D01*
X136215680Y-105150000D01*
X136202995Y-105154122D01*
X136200000Y-105158243D01*
X136200000Y-105934319D01*
X135900000Y-105934319D01*
X135900000Y-105165680D01*
X135895878Y-105152995D01*
X135891757Y-105150000D01*
X135240681Y-105150000D01*
X135227996Y-105154122D01*
X135225001Y-105158243D01*
X135225001Y-105494655D01*
X134825500Y-105494655D01*
X134825500Y-104834320D01*
X135225000Y-104834320D01*
X135229122Y-104847005D01*
X135233243Y-104850000D01*
X135884320Y-104850000D01*
X135897005Y-104845878D01*
X135900000Y-104841757D01*
X135900000Y-104834320D01*
X136200000Y-104834320D01*
X136204122Y-104847005D01*
X136208243Y-104850000D01*
X136859319Y-104850000D01*
X136872004Y-104845878D01*
X136874999Y-104841757D01*
X136874999Y-104505345D01*
X136874710Y-104500005D01*
X136869028Y-104447699D01*
X136866179Y-104435714D01*
X136820560Y-104314025D01*
X136813852Y-104301772D01*
X136736423Y-104198458D01*
X136726542Y-104188577D01*
X136623228Y-104111148D01*
X136610975Y-104104440D01*
X136489288Y-104058822D01*
X136477299Y-104055971D01*
X136424992Y-104050289D01*
X136419658Y-104050000D01*
X136215680Y-104050000D01*
X136202995Y-104054122D01*
X136200000Y-104058243D01*
X136200000Y-104834320D01*
X135900000Y-104834320D01*
X135900000Y-104065681D01*
X135895878Y-104052996D01*
X135891757Y-104050001D01*
X135680345Y-104050001D01*
X135675005Y-104050290D01*
X135622699Y-104055972D01*
X135610714Y-104058821D01*
X135489025Y-104104440D01*
X135476772Y-104111148D01*
X135373458Y-104188577D01*
X135363577Y-104198458D01*
X135286148Y-104301772D01*
X135279440Y-104314025D01*
X135233822Y-104435712D01*
X135230971Y-104447701D01*
X135225289Y-104500008D01*
X135225000Y-104505342D01*
X135225000Y-104834320D01*
X134825500Y-104834320D01*
X134825500Y-104502622D01*
X134818851Y-104441419D01*
X134768526Y-104307176D01*
X134687116Y-104198549D01*
X134686780Y-104198101D01*
X134682547Y-104192453D01*
X134567824Y-104106474D01*
X134433581Y-104056149D01*
X134372378Y-104049500D01*
X133627622Y-104049500D01*
X133566419Y-104056149D01*
X133432176Y-104106474D01*
X133317453Y-104192453D01*
X133313220Y-104198101D01*
X133312884Y-104198549D01*
X133231474Y-104307176D01*
X133181149Y-104441419D01*
X133174500Y-104502622D01*
X133174500Y-105182744D01*
X133155593Y-105240935D01*
X133145504Y-105252748D01*
X132602748Y-105795504D01*
X132548231Y-105823281D01*
X132532744Y-105824500D01*
X129717256Y-105824500D01*
X129659065Y-105805593D01*
X129647252Y-105795504D01*
X129254496Y-105402748D01*
X129226719Y-105348231D01*
X129225500Y-105332744D01*
X129225500Y-105310899D01*
X129244407Y-105252708D01*
X129279864Y-105222533D01*
X129307444Y-105208602D01*
X129307450Y-105208598D01*
X129311768Y-105206417D01*
X129458655Y-105091656D01*
X129580454Y-104950550D01*
X129637574Y-104850000D01*
X129670137Y-104792680D01*
X129670138Y-104792677D01*
X129672526Y-104788474D01*
X129680910Y-104763273D01*
X129729837Y-104616192D01*
X129729837Y-104616190D01*
X129731364Y-104611601D01*
X129734919Y-104583465D01*
X129743047Y-104519126D01*
X129754727Y-104426668D01*
X129755099Y-104400000D01*
X129753791Y-104386665D01*
X130344994Y-104386665D01*
X130347197Y-104412896D01*
X130357965Y-104541125D01*
X130360592Y-104572414D01*
X130361925Y-104577062D01*
X130361925Y-104577063D01*
X130371829Y-104611601D01*
X130411971Y-104751595D01*
X130497176Y-104917385D01*
X130612959Y-105063468D01*
X130616646Y-105066606D01*
X130616648Y-105066608D01*
X130751224Y-105181141D01*
X130751229Y-105181144D01*
X130754912Y-105184279D01*
X130759134Y-105186639D01*
X130759139Y-105186642D01*
X130856286Y-105240935D01*
X130917627Y-105275217D01*
X130922225Y-105276711D01*
X131090302Y-105331323D01*
X131090304Y-105331324D01*
X131094907Y-105332819D01*
X131279998Y-105354890D01*
X131284820Y-105354519D01*
X131284823Y-105354519D01*
X131461023Y-105340961D01*
X131461028Y-105340960D01*
X131465851Y-105340589D01*
X131645387Y-105290462D01*
X131649700Y-105288283D01*
X131649706Y-105288281D01*
X131807447Y-105208600D01*
X131807449Y-105208598D01*
X131811768Y-105206417D01*
X131958655Y-105091656D01*
X132080454Y-104950550D01*
X132137574Y-104850000D01*
X132170137Y-104792680D01*
X132170138Y-104792677D01*
X132172526Y-104788474D01*
X132180910Y-104763273D01*
X132229837Y-104616192D01*
X132229837Y-104616190D01*
X132231364Y-104611601D01*
X132234919Y-104583465D01*
X132243047Y-104519126D01*
X132254727Y-104426668D01*
X132255099Y-104400000D01*
X132236909Y-104214487D01*
X132183033Y-104036040D01*
X132095522Y-103871456D01*
X131977710Y-103727005D01*
X131973981Y-103723920D01*
X131837812Y-103611270D01*
X131837810Y-103611269D01*
X131834085Y-103608187D01*
X131784690Y-103581479D01*
X131777413Y-103577544D01*
X131735218Y-103533235D01*
X131725500Y-103490459D01*
X131725500Y-103167255D01*
X131744407Y-103109064D01*
X131754496Y-103097252D01*
X131897250Y-102954497D01*
X131951767Y-102926719D01*
X131967254Y-102925500D01*
X133077864Y-102925500D01*
X133136055Y-102944407D01*
X133172019Y-102993907D01*
X133176285Y-103013807D01*
X133181149Y-103058581D01*
X133231474Y-103192824D01*
X133267179Y-103240466D01*
X133312953Y-103301542D01*
X133317453Y-103307547D01*
X133323101Y-103311780D01*
X133339261Y-103323891D01*
X133432176Y-103393526D01*
X133566419Y-103443851D01*
X133627622Y-103450500D01*
X134372378Y-103450500D01*
X134433581Y-103443851D01*
X134567824Y-103393526D01*
X134660739Y-103323891D01*
X134676899Y-103311780D01*
X134682547Y-103307547D01*
X134687048Y-103301542D01*
X134732821Y-103240466D01*
X134768526Y-103192824D01*
X134818851Y-103058581D01*
X134825500Y-102997378D01*
X134825500Y-102994655D01*
X135225001Y-102994655D01*
X135225290Y-102999995D01*
X135230972Y-103052301D01*
X135233821Y-103064286D01*
X135279440Y-103185975D01*
X135286148Y-103198228D01*
X135363577Y-103301542D01*
X135373458Y-103311423D01*
X135476772Y-103388852D01*
X135489025Y-103395560D01*
X135610712Y-103441178D01*
X135622701Y-103444029D01*
X135675008Y-103449711D01*
X135680342Y-103450000D01*
X135884320Y-103450000D01*
X135897005Y-103445878D01*
X135900000Y-103441757D01*
X135900000Y-103434319D01*
X136200000Y-103434319D01*
X136204122Y-103447004D01*
X136208243Y-103449999D01*
X136419655Y-103449999D01*
X136424995Y-103449710D01*
X136477301Y-103444028D01*
X136489286Y-103441179D01*
X136610975Y-103395560D01*
X136623228Y-103388852D01*
X136726542Y-103311423D01*
X136736423Y-103301542D01*
X136813852Y-103198228D01*
X136820560Y-103185975D01*
X136866178Y-103064288D01*
X136869029Y-103052299D01*
X136874710Y-103000000D01*
X149694750Y-103000000D01*
X149695597Y-103006433D01*
X149711836Y-103129777D01*
X149713670Y-103143709D01*
X149769139Y-103277625D01*
X149857379Y-103392621D01*
X149972375Y-103480861D01*
X150106291Y-103536330D01*
X150112720Y-103537176D01*
X150112722Y-103537177D01*
X150243567Y-103554403D01*
X150250000Y-103555250D01*
X150256433Y-103554403D01*
X150387278Y-103537177D01*
X150387280Y-103537176D01*
X150393709Y-103536330D01*
X150527625Y-103480861D01*
X150568221Y-103449710D01*
X150573111Y-103445958D01*
X150633379Y-103425500D01*
X153282744Y-103425500D01*
X153340935Y-103444407D01*
X153352748Y-103454496D01*
X156178038Y-106279785D01*
X156206187Y-106336867D01*
X156213670Y-106393709D01*
X156269139Y-106527625D01*
X156357379Y-106642621D01*
X156472375Y-106730861D01*
X156606291Y-106786330D01*
X156612720Y-106787176D01*
X156612722Y-106787177D01*
X156639003Y-106790637D01*
X156663133Y-106793813D01*
X156720214Y-106821962D01*
X156996780Y-107098528D01*
X157003717Y-107102062D01*
X157003719Y-107102064D01*
X157020045Y-107110382D01*
X157033292Y-107118500D01*
X157054419Y-107133850D01*
X157061827Y-107136257D01*
X157061833Y-107136260D01*
X157079259Y-107141922D01*
X157093608Y-107147865D01*
X157109931Y-107156182D01*
X157109934Y-107156183D01*
X157116874Y-107159719D01*
X157124570Y-107160938D01*
X157142665Y-107163804D01*
X157157764Y-107167428D01*
X157182607Y-107175500D01*
X168567393Y-107175500D01*
X168574798Y-107173094D01*
X168574804Y-107173093D01*
X168592233Y-107167430D01*
X168607335Y-107163804D01*
X168625430Y-107160938D01*
X168633126Y-107159719D01*
X168656402Y-107147860D01*
X168670744Y-107141919D01*
X168695581Y-107133849D01*
X168716715Y-107118494D01*
X168729944Y-107110388D01*
X168753220Y-107098528D01*
X169848528Y-106003220D01*
X169860386Y-105979948D01*
X169868495Y-105966714D01*
X169883850Y-105945580D01*
X169887509Y-105934320D01*
X169891920Y-105920742D01*
X169897865Y-105906390D01*
X169909719Y-105883126D01*
X169913804Y-105857335D01*
X169917428Y-105842236D01*
X169925500Y-105817393D01*
X169925500Y-105493095D01*
X169944407Y-105434904D01*
X169993907Y-105398940D01*
X170055093Y-105398940D01*
X170104593Y-105434904D01*
X170112073Y-105446923D01*
X170184509Y-105584309D01*
X170190472Y-105593151D01*
X170299249Y-105721871D01*
X170306968Y-105729221D01*
X170440847Y-105831579D01*
X170449970Y-105837104D01*
X170602704Y-105908325D01*
X170612792Y-105911760D01*
X170778537Y-105948808D01*
X170786545Y-105949919D01*
X170786601Y-105949923D01*
X170789381Y-105950000D01*
X171034320Y-105950000D01*
X171047005Y-105945878D01*
X171050000Y-105941757D01*
X171050000Y-104315680D01*
X171045878Y-104302995D01*
X171041757Y-104300000D01*
X170832892Y-104300000D01*
X170827558Y-104300289D01*
X170702124Y-104313915D01*
X170691721Y-104316203D01*
X170531991Y-104369958D01*
X170522316Y-104374428D01*
X170377860Y-104461227D01*
X170369370Y-104467670D01*
X170246921Y-104583465D01*
X170240012Y-104591583D01*
X170145286Y-104730968D01*
X170140281Y-104740381D01*
X170116420Y-104800038D01*
X170077255Y-104847046D01*
X170017939Y-104862055D01*
X169961129Y-104839333D01*
X169928525Y-104787558D01*
X169925500Y-104763273D01*
X169925500Y-97743095D01*
X169944407Y-97684904D01*
X169993907Y-97648940D01*
X170055093Y-97648940D01*
X170104593Y-97684904D01*
X170112073Y-97696923D01*
X170184509Y-97834309D01*
X170190472Y-97843151D01*
X170299249Y-97971871D01*
X170306968Y-97979221D01*
X170440847Y-98081579D01*
X170449970Y-98087104D01*
X170602704Y-98158325D01*
X170612792Y-98161760D01*
X170778537Y-98198808D01*
X170786545Y-98199919D01*
X170786601Y-98199923D01*
X170789381Y-98200000D01*
X171034320Y-98200000D01*
X171047005Y-98195878D01*
X171050000Y-98191757D01*
X171050000Y-96565680D01*
X171045878Y-96552995D01*
X171041757Y-96550000D01*
X170832892Y-96550000D01*
X170827558Y-96550289D01*
X170702124Y-96563915D01*
X170691721Y-96566203D01*
X170531991Y-96619958D01*
X170522316Y-96624428D01*
X170377860Y-96711227D01*
X170369370Y-96717670D01*
X170246921Y-96833465D01*
X170240012Y-96841583D01*
X170145286Y-96980968D01*
X170140281Y-96990381D01*
X170116420Y-97050038D01*
X170077255Y-97097046D01*
X170017939Y-97112055D01*
X169961129Y-97089333D01*
X169928525Y-97037558D01*
X169925500Y-97013273D01*
X169925500Y-95467256D01*
X169944407Y-95409065D01*
X169954496Y-95397252D01*
X170029786Y-95321962D01*
X170086867Y-95293813D01*
X170110997Y-95290637D01*
X170137278Y-95287177D01*
X170137280Y-95287176D01*
X170143709Y-95286330D01*
X170277625Y-95230861D01*
X170392621Y-95142621D01*
X170480861Y-95027625D01*
X170536330Y-94893709D01*
X170538995Y-94873471D01*
X170554403Y-94756433D01*
X170555250Y-94750000D01*
X170545031Y-94672377D01*
X170537177Y-94612722D01*
X170537176Y-94612720D01*
X170536330Y-94606291D01*
X170480861Y-94472375D01*
X170392621Y-94357379D01*
X170277625Y-94269139D01*
X170143709Y-94213670D01*
X170137280Y-94212824D01*
X170137278Y-94212823D01*
X170006433Y-94195597D01*
X170000000Y-94194750D01*
X169993567Y-94195597D01*
X169862722Y-94212823D01*
X169862720Y-94212824D01*
X169856291Y-94213670D01*
X169722375Y-94269139D01*
X169607379Y-94357379D01*
X169519139Y-94472375D01*
X169463670Y-94606291D01*
X169456413Y-94661419D01*
X169456187Y-94663132D01*
X169428038Y-94720214D01*
X169151472Y-94996780D01*
X169139612Y-95020056D01*
X169131506Y-95033285D01*
X169116151Y-95054419D01*
X169108082Y-95079253D01*
X169102140Y-95093598D01*
X169090281Y-95116874D01*
X169089062Y-95124570D01*
X169086196Y-95142665D01*
X169082570Y-95157767D01*
X169076907Y-95175196D01*
X169076906Y-95175202D01*
X169074500Y-95182607D01*
X169074500Y-98214328D01*
X169055593Y-98272519D01*
X169006093Y-98308483D01*
X168944907Y-98308483D01*
X168909640Y-98288243D01*
X168889158Y-98269993D01*
X168887249Y-98268247D01*
X168839933Y-98223815D01*
X168839932Y-98223814D01*
X168835393Y-98219552D01*
X168829937Y-98216553D01*
X168828671Y-98215633D01*
X168826938Y-98214559D01*
X168823976Y-98211919D01*
X168757753Y-98176856D01*
X168756403Y-98176127D01*
X168696825Y-98143373D01*
X168691368Y-98140373D01*
X168686480Y-98139118D01*
X168684831Y-98138245D01*
X168638482Y-98126603D01*
X168604511Y-98118070D01*
X168604033Y-98117949D01*
X168602953Y-98117672D01*
X168551284Y-98084901D01*
X168528746Y-98028018D01*
X168538720Y-97978067D01*
X168591349Y-97871109D01*
X168594827Y-97861756D01*
X168639520Y-97690176D01*
X168638783Y-97677775D01*
X168629294Y-97675000D01*
X167565680Y-97675000D01*
X167552995Y-97679122D01*
X167550000Y-97683243D01*
X167550000Y-98484320D01*
X167554122Y-98497005D01*
X167558243Y-98500000D01*
X167713880Y-98500000D01*
X167772071Y-98518907D01*
X167808035Y-98568407D01*
X167812033Y-98611923D01*
X167807779Y-98644233D01*
X167806872Y-98649861D01*
X167796791Y-98702707D01*
X167796791Y-98702715D01*
X167795624Y-98708830D01*
X167796201Y-98717994D01*
X167795549Y-98737124D01*
X167795538Y-98737211D01*
X167794758Y-98743138D01*
X167795413Y-98749071D01*
X167795413Y-98749075D01*
X167801533Y-98804504D01*
X167801936Y-98809148D01*
X167805944Y-98872860D01*
X167807869Y-98878783D01*
X167808678Y-98883027D01*
X167809739Y-98887955D01*
X167810017Y-98887890D01*
X167811380Y-98893703D01*
X167812035Y-98899633D01*
X167814085Y-98905234D01*
X167814085Y-98905235D01*
X167834669Y-98961482D01*
X167835854Y-98964913D01*
X167854179Y-99021312D01*
X167856732Y-99029171D01*
X167860071Y-99034432D01*
X167860722Y-99035815D01*
X167863329Y-99040385D01*
X167864090Y-99041878D01*
X167866143Y-99047490D01*
X167902320Y-99101326D01*
X167905269Y-99105715D01*
X167906652Y-99107831D01*
X167944798Y-99167940D01*
X167949340Y-99172205D01*
X167950338Y-99173412D01*
X167951746Y-99174880D01*
X167953958Y-99178172D01*
X167958368Y-99182185D01*
X167958370Y-99182187D01*
X168009354Y-99228578D01*
X168010462Y-99229602D01*
X168064607Y-99280448D01*
X168069031Y-99282880D01*
X168070410Y-99284135D01*
X168073892Y-99286026D01*
X168073899Y-99286030D01*
X168143373Y-99323752D01*
X168143657Y-99323907D01*
X168208632Y-99359627D01*
X168271953Y-99375885D01*
X168280400Y-99378054D01*
X168280902Y-99378184D01*
X168357244Y-99398212D01*
X168357251Y-99398213D01*
X168361069Y-99399215D01*
X168362932Y-99399244D01*
X168367823Y-99400500D01*
X168442078Y-99400500D01*
X168443633Y-99400512D01*
X168518495Y-99401688D01*
X168524310Y-99400356D01*
X168524313Y-99400356D01*
X168559180Y-99392371D01*
X168568870Y-99390654D01*
X168606877Y-99385852D01*
X168606878Y-99385852D01*
X168613058Y-99385071D01*
X168618849Y-99382778D01*
X168618854Y-99382777D01*
X168636260Y-99375885D01*
X168650590Y-99371434D01*
X168671968Y-99366538D01*
X168712807Y-99345998D01*
X168720836Y-99342398D01*
X168760080Y-99326861D01*
X168760082Y-99326860D01*
X168765871Y-99324568D01*
X168770905Y-99320911D01*
X168770908Y-99320909D01*
X168782872Y-99312216D01*
X168796583Y-99303864D01*
X168807286Y-99298481D01*
X168807291Y-99298478D01*
X168812625Y-99295795D01*
X168817162Y-99291920D01*
X168817165Y-99291918D01*
X168850408Y-99263525D01*
X168856514Y-99258712D01*
X168893797Y-99231625D01*
X168893798Y-99231624D01*
X168898837Y-99227963D01*
X168902807Y-99223164D01*
X168907349Y-99218899D01*
X168909378Y-99221060D01*
X168950855Y-99194723D01*
X169011921Y-99198549D01*
X169059075Y-99237538D01*
X169074500Y-99290606D01*
X169074500Y-103214328D01*
X169055593Y-103272519D01*
X169006093Y-103308483D01*
X168944907Y-103308483D01*
X168909640Y-103288243D01*
X168889158Y-103269993D01*
X168887249Y-103268247D01*
X168839933Y-103223815D01*
X168839932Y-103223814D01*
X168835393Y-103219552D01*
X168829937Y-103216553D01*
X168828671Y-103215633D01*
X168826938Y-103214559D01*
X168823976Y-103211919D01*
X168757753Y-103176856D01*
X168756403Y-103176127D01*
X168749617Y-103172396D01*
X168691368Y-103140373D01*
X168686480Y-103139118D01*
X168684831Y-103138245D01*
X168634330Y-103125560D01*
X168604511Y-103118070D01*
X168604009Y-103117943D01*
X168569773Y-103109153D01*
X168532177Y-103099500D01*
X168458128Y-103099500D01*
X168457610Y-103099499D01*
X168380650Y-103099096D01*
X168380648Y-103099096D01*
X168374684Y-103099065D01*
X168368886Y-103100457D01*
X168368877Y-103100458D01*
X168337957Y-103107882D01*
X168327256Y-103109836D01*
X168309360Y-103112097D01*
X168293123Y-103114148D01*
X168293122Y-103114148D01*
X168286942Y-103114929D01*
X168260085Y-103125563D01*
X168246759Y-103129777D01*
X168221588Y-103135820D01*
X168184485Y-103154970D01*
X168175545Y-103159034D01*
X168161529Y-103164584D01*
X168139922Y-103173138D01*
X168139920Y-103173139D01*
X168134129Y-103175432D01*
X168119618Y-103185975D01*
X168113945Y-103190096D01*
X168101164Y-103197974D01*
X168086988Y-103205291D01*
X168086983Y-103205294D01*
X168081679Y-103208032D01*
X168077180Y-103211957D01*
X168047230Y-103238083D01*
X168040346Y-103243569D01*
X168001163Y-103272037D01*
X167992281Y-103282774D01*
X167987768Y-103288229D01*
X167976570Y-103299724D01*
X167967603Y-103307547D01*
X167963034Y-103311533D01*
X167959606Y-103316411D01*
X167959602Y-103316415D01*
X167934463Y-103352185D01*
X167929753Y-103358356D01*
X167896400Y-103398674D01*
X167893749Y-103404309D01*
X167893747Y-103404311D01*
X167889128Y-103414127D01*
X167880549Y-103428896D01*
X167872501Y-103440348D01*
X167855738Y-103483345D01*
X167853001Y-103490364D01*
X167850348Y-103496540D01*
X167826421Y-103547387D01*
X167823959Y-103560293D01*
X167818952Y-103577695D01*
X167815309Y-103587039D01*
X167814530Y-103592956D01*
X167807779Y-103644233D01*
X167806872Y-103649861D01*
X167796791Y-103702707D01*
X167796791Y-103702715D01*
X167795624Y-103708830D01*
X167796201Y-103717994D01*
X167795549Y-103737124D01*
X167795538Y-103737211D01*
X167794758Y-103743138D01*
X167795413Y-103749071D01*
X167795413Y-103749075D01*
X167801533Y-103804504D01*
X167801936Y-103809148D01*
X167805944Y-103872860D01*
X167807869Y-103878784D01*
X167808568Y-103882450D01*
X167800898Y-103943153D01*
X167759014Y-103987755D01*
X167711321Y-104000000D01*
X167565680Y-104000000D01*
X167552995Y-104004122D01*
X167550000Y-104008243D01*
X167550000Y-104809320D01*
X167554122Y-104822005D01*
X167558243Y-104825000D01*
X168622733Y-104825000D01*
X168635418Y-104820878D01*
X168636173Y-104819839D01*
X168636687Y-104813589D01*
X168624989Y-104736233D01*
X168622508Y-104726573D01*
X168557573Y-104550085D01*
X168553202Y-104541125D01*
X168548541Y-104533608D01*
X168533945Y-104474189D01*
X168557062Y-104417539D01*
X168607753Y-104385741D01*
X168613058Y-104385071D01*
X168618847Y-104382779D01*
X168618851Y-104382778D01*
X168636260Y-104375885D01*
X168650590Y-104371434D01*
X168671968Y-104366538D01*
X168712807Y-104345998D01*
X168720836Y-104342398D01*
X168731339Y-104338240D01*
X168734855Y-104336848D01*
X168760080Y-104326861D01*
X168760082Y-104326860D01*
X168765871Y-104324568D01*
X168770905Y-104320911D01*
X168770908Y-104320909D01*
X168782872Y-104312216D01*
X168796583Y-104303864D01*
X168807286Y-104298481D01*
X168807291Y-104298478D01*
X168812625Y-104295795D01*
X168817162Y-104291920D01*
X168817165Y-104291918D01*
X168850408Y-104263525D01*
X168856514Y-104258712D01*
X168893797Y-104231625D01*
X168893798Y-104231624D01*
X168898837Y-104227963D01*
X168902807Y-104223164D01*
X168907349Y-104218899D01*
X168909378Y-104221060D01*
X168950855Y-104194723D01*
X169011921Y-104198549D01*
X169059075Y-104237538D01*
X169074500Y-104290606D01*
X169074500Y-105532744D01*
X169055593Y-105590935D01*
X169045504Y-105602748D01*
X168352748Y-106295504D01*
X168298231Y-106323281D01*
X168282744Y-106324500D01*
X157467256Y-106324500D01*
X157409065Y-106305593D01*
X157397252Y-106295504D01*
X157321962Y-106220214D01*
X157293813Y-106163132D01*
X157287177Y-106112722D01*
X157287176Y-106112720D01*
X157286330Y-106106291D01*
X157230861Y-105972375D01*
X157142621Y-105857379D01*
X157027625Y-105769139D01*
X156893709Y-105713670D01*
X156887279Y-105712823D01*
X156887277Y-105712823D01*
X156862737Y-105709593D01*
X156836867Y-105706187D01*
X156779785Y-105678038D01*
X156238159Y-105136411D01*
X166163313Y-105136411D01*
X166175011Y-105213767D01*
X166177492Y-105223427D01*
X166242428Y-105399916D01*
X166246798Y-105408875D01*
X166345890Y-105568695D01*
X166351980Y-105576603D01*
X166481185Y-105713233D01*
X166488739Y-105719753D01*
X166642778Y-105827613D01*
X166651482Y-105832478D01*
X166824073Y-105907165D01*
X166833573Y-105910178D01*
X167018832Y-105948880D01*
X167026363Y-105949858D01*
X167027760Y-105949932D01*
X167030366Y-105950000D01*
X167234320Y-105950000D01*
X167247005Y-105945878D01*
X167250000Y-105941757D01*
X167250000Y-105934320D01*
X167550000Y-105934320D01*
X167554122Y-105947005D01*
X167558243Y-105950000D01*
X167721995Y-105950000D01*
X167726992Y-105949747D01*
X167867075Y-105935518D01*
X167876844Y-105933513D01*
X168056291Y-105877277D01*
X168065461Y-105873346D01*
X168229924Y-105782183D01*
X168238124Y-105776484D01*
X168380899Y-105654111D01*
X168387786Y-105646879D01*
X168503040Y-105498296D01*
X168508322Y-105489842D01*
X168591349Y-105321109D01*
X168594827Y-105311756D01*
X168639520Y-105140176D01*
X168638783Y-105127775D01*
X168629294Y-105125000D01*
X167565680Y-105125000D01*
X167552995Y-105129122D01*
X167550000Y-105133243D01*
X167550000Y-105934320D01*
X167250000Y-105934320D01*
X167250000Y-105140680D01*
X167245878Y-105127995D01*
X167241757Y-105125000D01*
X166177267Y-105125000D01*
X166164582Y-105129122D01*
X166163827Y-105130161D01*
X166163313Y-105136411D01*
X156238159Y-105136411D01*
X155911572Y-104809824D01*
X166160480Y-104809824D01*
X166161217Y-104822225D01*
X166170706Y-104825000D01*
X167234320Y-104825000D01*
X167247005Y-104820878D01*
X167250000Y-104816757D01*
X167250000Y-104015680D01*
X167245878Y-104002995D01*
X167241757Y-104000000D01*
X167078005Y-104000000D01*
X167073008Y-104000253D01*
X166932925Y-104014482D01*
X166923156Y-104016487D01*
X166743709Y-104072723D01*
X166734539Y-104076654D01*
X166570076Y-104167817D01*
X166561876Y-104173516D01*
X166419101Y-104295889D01*
X166412214Y-104303121D01*
X166296960Y-104451704D01*
X166291678Y-104460158D01*
X166208651Y-104628891D01*
X166205173Y-104638244D01*
X166160480Y-104809824D01*
X155911572Y-104809824D01*
X155290325Y-104188577D01*
X153753220Y-102651472D01*
X153729944Y-102639612D01*
X153716715Y-102631506D01*
X153695581Y-102616151D01*
X153670744Y-102608081D01*
X153656402Y-102602140D01*
X153633126Y-102590281D01*
X153625430Y-102589062D01*
X153607335Y-102586196D01*
X153592233Y-102582570D01*
X153574804Y-102576907D01*
X153574798Y-102576906D01*
X153567393Y-102574500D01*
X150633379Y-102574500D01*
X150573111Y-102554042D01*
X150532774Y-102523090D01*
X150527625Y-102519139D01*
X150393709Y-102463670D01*
X150387280Y-102462824D01*
X150387278Y-102462823D01*
X150256433Y-102445597D01*
X150250000Y-102444750D01*
X150243567Y-102445597D01*
X150112722Y-102462823D01*
X150112720Y-102462824D01*
X150106291Y-102463670D01*
X149972375Y-102519139D01*
X149857379Y-102607379D01*
X149769139Y-102722375D01*
X149713670Y-102856291D01*
X149694750Y-103000000D01*
X136874710Y-103000000D01*
X136874711Y-102999992D01*
X136875000Y-102994658D01*
X136875000Y-102665680D01*
X136870878Y-102652995D01*
X136866757Y-102650000D01*
X136215680Y-102650000D01*
X136202995Y-102654122D01*
X136200000Y-102658243D01*
X136200000Y-103434319D01*
X135900000Y-103434319D01*
X135900000Y-102665680D01*
X135895878Y-102652995D01*
X135891757Y-102650000D01*
X135240681Y-102650000D01*
X135227996Y-102654122D01*
X135225001Y-102658243D01*
X135225001Y-102994655D01*
X134825500Y-102994655D01*
X134825500Y-102334320D01*
X135225000Y-102334320D01*
X135229122Y-102347005D01*
X135233243Y-102350000D01*
X135884320Y-102350000D01*
X135897005Y-102345878D01*
X135900000Y-102341757D01*
X135900000Y-102334320D01*
X136200000Y-102334320D01*
X136204122Y-102347005D01*
X136208243Y-102350000D01*
X136859319Y-102350000D01*
X136872004Y-102345878D01*
X136874999Y-102341757D01*
X136874999Y-102005345D01*
X136874710Y-102000005D01*
X136869028Y-101947699D01*
X136866179Y-101935714D01*
X136820560Y-101814025D01*
X136813852Y-101801772D01*
X136736423Y-101698458D01*
X136726542Y-101688577D01*
X136623228Y-101611148D01*
X136610975Y-101604440D01*
X136489288Y-101558822D01*
X136477299Y-101555971D01*
X136424992Y-101550289D01*
X136419658Y-101550000D01*
X136215680Y-101550000D01*
X136202995Y-101554122D01*
X136200000Y-101558243D01*
X136200000Y-102334320D01*
X135900000Y-102334320D01*
X135900000Y-101565681D01*
X135895878Y-101552996D01*
X135891757Y-101550001D01*
X135680345Y-101550001D01*
X135675005Y-101550290D01*
X135622699Y-101555972D01*
X135610714Y-101558821D01*
X135489025Y-101604440D01*
X135476772Y-101611148D01*
X135373458Y-101688577D01*
X135363577Y-101698458D01*
X135286148Y-101801772D01*
X135279440Y-101814025D01*
X135233822Y-101935712D01*
X135230971Y-101947701D01*
X135225289Y-102000008D01*
X135225000Y-102005342D01*
X135225000Y-102334320D01*
X134825500Y-102334320D01*
X134825500Y-102002622D01*
X134818851Y-101941419D01*
X134768526Y-101807176D01*
X134705410Y-101722959D01*
X134686780Y-101698101D01*
X134682547Y-101692453D01*
X134667766Y-101681375D01*
X134652041Y-101669590D01*
X134567824Y-101606474D01*
X134433581Y-101556149D01*
X134372378Y-101549500D01*
X133627622Y-101549500D01*
X133566419Y-101556149D01*
X133432176Y-101606474D01*
X133347959Y-101669590D01*
X133332235Y-101681375D01*
X133317453Y-101692453D01*
X133313220Y-101698101D01*
X133294590Y-101722959D01*
X133231474Y-101807176D01*
X133181149Y-101941419D01*
X133180479Y-101947587D01*
X133176285Y-101986192D01*
X133151204Y-102042000D01*
X133098109Y-102072408D01*
X133077864Y-102074500D01*
X131682607Y-102074500D01*
X131675202Y-102076906D01*
X131675196Y-102076907D01*
X131657767Y-102082570D01*
X131642665Y-102086196D01*
X131624570Y-102089062D01*
X131616874Y-102090281D01*
X131593598Y-102102140D01*
X131579256Y-102108081D01*
X131554419Y-102116151D01*
X131548118Y-102120729D01*
X131548114Y-102120731D01*
X131533293Y-102131500D01*
X131520054Y-102139613D01*
X131496780Y-102151472D01*
X131401472Y-102246780D01*
X131401466Y-102246787D01*
X131046780Y-102601472D01*
X130951472Y-102696780D01*
X130939612Y-102720056D01*
X130931506Y-102733285D01*
X130916151Y-102754419D01*
X130908082Y-102779253D01*
X130902140Y-102793598D01*
X130890281Y-102816874D01*
X130889062Y-102824570D01*
X130886196Y-102842665D01*
X130882570Y-102857767D01*
X130876907Y-102875196D01*
X130876906Y-102875202D01*
X130874500Y-102882607D01*
X130874500Y-103489891D01*
X130855593Y-103548082D01*
X130821366Y-103577625D01*
X130781320Y-103598560D01*
X130781315Y-103598563D01*
X130777023Y-103600807D01*
X130773247Y-103603843D01*
X130773244Y-103603845D01*
X130716012Y-103649861D01*
X130631752Y-103717608D01*
X130628644Y-103721312D01*
X130515044Y-103856695D01*
X130515041Y-103856699D01*
X130511935Y-103860401D01*
X130422135Y-104023746D01*
X130420672Y-104028359D01*
X130420670Y-104028363D01*
X130403905Y-104081213D01*
X130365772Y-104201424D01*
X130365232Y-104206236D01*
X130365232Y-104206237D01*
X130346367Y-104374428D01*
X130344994Y-104386665D01*
X129753791Y-104386665D01*
X129736909Y-104214487D01*
X129683033Y-104036040D01*
X129595522Y-103871456D01*
X129477710Y-103727005D01*
X129473981Y-103723920D01*
X129337812Y-103611270D01*
X129337810Y-103611269D01*
X129334085Y-103608187D01*
X129225500Y-103549475D01*
X129174370Y-103521829D01*
X129174369Y-103521829D01*
X129170116Y-103519529D01*
X128992049Y-103464409D01*
X128987239Y-103463903D01*
X128987237Y-103463903D01*
X128830654Y-103447445D01*
X128801448Y-103434441D01*
X128799059Y-103437021D01*
X128759734Y-103449195D01*
X128625852Y-103461379D01*
X128625848Y-103461380D01*
X128621032Y-103461818D01*
X128616390Y-103463184D01*
X128616386Y-103463185D01*
X128446861Y-103513080D01*
X128446858Y-103513081D01*
X128442214Y-103514448D01*
X128277023Y-103600807D01*
X128273247Y-103603843D01*
X128273244Y-103603845D01*
X128216012Y-103649861D01*
X128131752Y-103717608D01*
X128128644Y-103721312D01*
X128015044Y-103856695D01*
X128015041Y-103856699D01*
X128011935Y-103860401D01*
X127922135Y-104023746D01*
X127920672Y-104028359D01*
X127920670Y-104028363D01*
X127903905Y-104081213D01*
X127865772Y-104201424D01*
X127865232Y-104206236D01*
X127865232Y-104206237D01*
X127846367Y-104374428D01*
X127844994Y-104386665D01*
X123250000Y-104386665D01*
X123250000Y-103072281D01*
X128245680Y-103072281D01*
X128246170Y-103075379D01*
X128248109Y-103077833D01*
X128251515Y-103080732D01*
X128259424Y-103086228D01*
X128413604Y-103172396D01*
X128422426Y-103176251D01*
X128590409Y-103230832D01*
X128599823Y-103232901D01*
X128762483Y-103252298D01*
X128789940Y-103264985D01*
X128791503Y-103263250D01*
X128833408Y-103250279D01*
X128960936Y-103240466D01*
X128970427Y-103238793D01*
X129140545Y-103191295D01*
X129149524Y-103187813D01*
X129307172Y-103108179D01*
X129315321Y-103103007D01*
X129345379Y-103079523D01*
X129352838Y-103068464D01*
X129352767Y-103066435D01*
X129350071Y-103062203D01*
X128811086Y-102523218D01*
X128799203Y-102517164D01*
X128794172Y-102517960D01*
X128251734Y-103060398D01*
X128245680Y-103072281D01*
X123250000Y-103072281D01*
X123250000Y-101000000D01*
X123644341Y-101000000D01*
X123664937Y-101235408D01*
X123726097Y-101463663D01*
X123825965Y-101677829D01*
X123828446Y-101681372D01*
X123828447Y-101681374D01*
X123873718Y-101746027D01*
X123961505Y-101871401D01*
X124128599Y-102038495D01*
X124207609Y-102093818D01*
X124289948Y-102151472D01*
X124322171Y-102174035D01*
X124536337Y-102273903D01*
X124764592Y-102335063D01*
X124849431Y-102342486D01*
X124938870Y-102350311D01*
X124938878Y-102350311D01*
X124941034Y-102350500D01*
X125058966Y-102350500D01*
X125061122Y-102350311D01*
X125061130Y-102350311D01*
X125150569Y-102342486D01*
X125235408Y-102335063D01*
X125398019Y-102291492D01*
X127845901Y-102291492D01*
X127860681Y-102467504D01*
X127862419Y-102476972D01*
X127911102Y-102646753D01*
X127914653Y-102655721D01*
X127995385Y-102812807D01*
X128000605Y-102820907D01*
X128020203Y-102845634D01*
X128031315Y-102853017D01*
X128033525Y-102852924D01*
X128037487Y-102850381D01*
X128576782Y-102311086D01*
X128582024Y-102300797D01*
X129017164Y-102300797D01*
X129017960Y-102305828D01*
X129560781Y-102848649D01*
X129572664Y-102854703D01*
X129575943Y-102854184D01*
X129577633Y-102852859D01*
X129582437Y-102846049D01*
X129669679Y-102692476D01*
X129673595Y-102683681D01*
X129729348Y-102516081D01*
X129731482Y-102506687D01*
X129753877Y-102329407D01*
X129754264Y-102323880D01*
X129754558Y-102302759D01*
X129754328Y-102297262D01*
X129736889Y-102119394D01*
X129735020Y-102109956D01*
X129683967Y-101940863D01*
X129680297Y-101931959D01*
X129597376Y-101776006D01*
X129592046Y-101767984D01*
X129580439Y-101753754D01*
X129569228Y-101746529D01*
X129566646Y-101746673D01*
X129563236Y-101748896D01*
X129023218Y-102288914D01*
X129017164Y-102300797D01*
X128582024Y-102300797D01*
X128582836Y-102299203D01*
X128582040Y-102294172D01*
X128039953Y-101752085D01*
X128028070Y-101746031D01*
X128025152Y-101746493D01*
X128022460Y-101748634D01*
X128015458Y-101756979D01*
X128010018Y-101764924D01*
X127924931Y-101919697D01*
X127921131Y-101928561D01*
X127867727Y-102096913D01*
X127865723Y-102106341D01*
X127846035Y-102281864D01*
X127845901Y-102291492D01*
X125398019Y-102291492D01*
X125463663Y-102273903D01*
X125677829Y-102174035D01*
X125710053Y-102151472D01*
X125792391Y-102093818D01*
X125871401Y-102038495D01*
X126038495Y-101871401D01*
X126171554Y-101681374D01*
X126171554Y-101681373D01*
X126174035Y-101677830D01*
X126242476Y-101531059D01*
X128246773Y-101531059D01*
X128246890Y-101533458D01*
X128249273Y-101537141D01*
X128788914Y-102076782D01*
X128800797Y-102082836D01*
X128805828Y-102082040D01*
X129347597Y-101540271D01*
X129353651Y-101528388D01*
X129353218Y-101525654D01*
X129350867Y-101522719D01*
X129337537Y-101511691D01*
X129329543Y-101506299D01*
X129174175Y-101422292D01*
X129165304Y-101418563D01*
X128996569Y-101366330D01*
X128987137Y-101364394D01*
X128811480Y-101345932D01*
X128801842Y-101345865D01*
X128625946Y-101361873D01*
X128616480Y-101363679D01*
X128447049Y-101413545D01*
X128438108Y-101417158D01*
X128281587Y-101498985D01*
X128273529Y-101504257D01*
X128254076Y-101519899D01*
X128246773Y-101531059D01*
X126242476Y-101531059D01*
X126273903Y-101463663D01*
X126335063Y-101235408D01*
X126355659Y-101000000D01*
X126335063Y-100764592D01*
X126273903Y-100536337D01*
X126174035Y-100322171D01*
X126038495Y-100128599D01*
X125871401Y-99961505D01*
X125712155Y-99850000D01*
X125681374Y-99828447D01*
X125681372Y-99828446D01*
X125677829Y-99825965D01*
X125463663Y-99726097D01*
X125235408Y-99664937D01*
X125150569Y-99657514D01*
X125061130Y-99649689D01*
X125061122Y-99649689D01*
X125058966Y-99649500D01*
X124941034Y-99649500D01*
X124938878Y-99649689D01*
X124938870Y-99649689D01*
X124849431Y-99657514D01*
X124764592Y-99664937D01*
X124536337Y-99726097D01*
X124322171Y-99825965D01*
X124318628Y-99828446D01*
X124318626Y-99828447D01*
X124287845Y-99850000D01*
X124128599Y-99961505D01*
X123961505Y-100128599D01*
X123879065Y-100246335D01*
X123828447Y-100318625D01*
X123828446Y-100318627D01*
X123825965Y-100322170D01*
X123726097Y-100536337D01*
X123664937Y-100764592D01*
X123644341Y-101000000D01*
X123250000Y-101000000D01*
X123250000Y-99317393D01*
X126824500Y-99317393D01*
X126826906Y-99324798D01*
X126826907Y-99324804D01*
X126832570Y-99342233D01*
X126836196Y-99357335D01*
X126838695Y-99373113D01*
X126840281Y-99383126D01*
X126852140Y-99406402D01*
X126858081Y-99420744D01*
X126866151Y-99445581D01*
X126881506Y-99466715D01*
X126889612Y-99479944D01*
X126901472Y-99503220D01*
X126925446Y-99527194D01*
X127351471Y-99953218D01*
X127351472Y-99953220D01*
X127446780Y-100048528D01*
X127470054Y-100060387D01*
X127483293Y-100068500D01*
X127498114Y-100079269D01*
X127498118Y-100079271D01*
X127504419Y-100083849D01*
X127529256Y-100091919D01*
X127543598Y-100097860D01*
X127566874Y-100109719D01*
X127574570Y-100110938D01*
X127592665Y-100113804D01*
X127607767Y-100117430D01*
X127625196Y-100123093D01*
X127625202Y-100123094D01*
X127632607Y-100125500D01*
X127889524Y-100125500D01*
X127947715Y-100144407D01*
X127977576Y-100179248D01*
X127997176Y-100217385D01*
X128112959Y-100363468D01*
X128116646Y-100366606D01*
X128116648Y-100366608D01*
X128251224Y-100481141D01*
X128251229Y-100481144D01*
X128254912Y-100484279D01*
X128259134Y-100486639D01*
X128259139Y-100486642D01*
X128298429Y-100508600D01*
X128417627Y-100575217D01*
X128422225Y-100576711D01*
X128590302Y-100631323D01*
X128590304Y-100631324D01*
X128594907Y-100632819D01*
X128779998Y-100654890D01*
X128784820Y-100654519D01*
X128784823Y-100654519D01*
X128961023Y-100640961D01*
X128961028Y-100640960D01*
X128965851Y-100640589D01*
X129145387Y-100590462D01*
X129149700Y-100588283D01*
X129149706Y-100588281D01*
X129307447Y-100508600D01*
X129307449Y-100508598D01*
X129311768Y-100506417D01*
X129458655Y-100391656D01*
X129580454Y-100250550D01*
X129658137Y-100113804D01*
X129670137Y-100092680D01*
X129670138Y-100092677D01*
X129672526Y-100088474D01*
X129675589Y-100079269D01*
X129729837Y-99916192D01*
X129729837Y-99916190D01*
X129731364Y-99911601D01*
X129754727Y-99726668D01*
X129755099Y-99700000D01*
X129736909Y-99514487D01*
X129683033Y-99336040D01*
X129595522Y-99171456D01*
X129477710Y-99027005D01*
X129471209Y-99021627D01*
X129337812Y-98911270D01*
X129337810Y-98911269D01*
X129334085Y-98908187D01*
X129170116Y-98819529D01*
X128992049Y-98764409D01*
X128987239Y-98763903D01*
X128987237Y-98763903D01*
X128833406Y-98747734D01*
X128800510Y-98733087D01*
X128796666Y-98737239D01*
X128757341Y-98749413D01*
X128625852Y-98761379D01*
X128625848Y-98761380D01*
X128621032Y-98761818D01*
X128616390Y-98763184D01*
X128616386Y-98763185D01*
X128446861Y-98813080D01*
X128446858Y-98813081D01*
X128442214Y-98814448D01*
X128277023Y-98900807D01*
X128273247Y-98903843D01*
X128273244Y-98903845D01*
X128141826Y-99009508D01*
X128131752Y-99017608D01*
X128128644Y-99021312D01*
X128015044Y-99156695D01*
X128015041Y-99156699D01*
X128011935Y-99160401D01*
X127993716Y-99193542D01*
X127986848Y-99206034D01*
X127942246Y-99247918D01*
X127881543Y-99255586D01*
X127830090Y-99228343D01*
X127775502Y-99173754D01*
X127704496Y-99102748D01*
X127676719Y-99048232D01*
X127675500Y-99032745D01*
X127675500Y-97831344D01*
X127694407Y-97773153D01*
X127743907Y-97737189D01*
X127805093Y-97737189D01*
X127854593Y-97773153D01*
X127869665Y-97804056D01*
X127909345Y-97942436D01*
X127911971Y-97951595D01*
X127914186Y-97955905D01*
X127934126Y-97994703D01*
X127997176Y-98117385D01*
X128112959Y-98263468D01*
X128116646Y-98266606D01*
X128116648Y-98266608D01*
X128251224Y-98381141D01*
X128251229Y-98381144D01*
X128254912Y-98384279D01*
X128259134Y-98386639D01*
X128259139Y-98386642D01*
X128323798Y-98422778D01*
X128417627Y-98475217D01*
X128422225Y-98476711D01*
X128590302Y-98531323D01*
X128590304Y-98531324D01*
X128594907Y-98532819D01*
X128760090Y-98552516D01*
X128791227Y-98566903D01*
X128794256Y-98563539D01*
X128836158Y-98550569D01*
X128965851Y-98540589D01*
X129145387Y-98490462D01*
X129149700Y-98488283D01*
X129149706Y-98488281D01*
X129307447Y-98408600D01*
X129307449Y-98408598D01*
X129311768Y-98406417D01*
X129458655Y-98291656D01*
X129580454Y-98150550D01*
X129650062Y-98028018D01*
X129670137Y-97992680D01*
X129670138Y-97992677D01*
X129672526Y-97988474D01*
X129675605Y-97979221D01*
X129729837Y-97816192D01*
X129729837Y-97816190D01*
X129731364Y-97811601D01*
X129754727Y-97626668D01*
X129755099Y-97600000D01*
X129736909Y-97414487D01*
X129683033Y-97236040D01*
X129595522Y-97071456D01*
X129477710Y-96927005D01*
X129473349Y-96923397D01*
X129337816Y-96811273D01*
X129337812Y-96811270D01*
X129334085Y-96808187D01*
X129330664Y-96806338D01*
X129293181Y-96758361D01*
X129291045Y-96697213D01*
X129325259Y-96646487D01*
X129386210Y-96625500D01*
X130713936Y-96625500D01*
X130772127Y-96644407D01*
X130808091Y-96693907D01*
X130808091Y-96755093D01*
X130775972Y-96801652D01*
X130631752Y-96917608D01*
X130628644Y-96921312D01*
X130515044Y-97056695D01*
X130515041Y-97056699D01*
X130511935Y-97060401D01*
X130422135Y-97223746D01*
X130420672Y-97228359D01*
X130420670Y-97228363D01*
X130374154Y-97375000D01*
X130365772Y-97401424D01*
X130365232Y-97406236D01*
X130365232Y-97406237D01*
X130361195Y-97442233D01*
X130344994Y-97586665D01*
X130350564Y-97652995D01*
X130358941Y-97752748D01*
X130360592Y-97772414D01*
X130361925Y-97777062D01*
X130361925Y-97777063D01*
X130409345Y-97942436D01*
X130411971Y-97951595D01*
X130414186Y-97955905D01*
X130434126Y-97994703D01*
X130497176Y-98117385D01*
X130612959Y-98263468D01*
X130616646Y-98266606D01*
X130616648Y-98266608D01*
X130751224Y-98381141D01*
X130751229Y-98381144D01*
X130754912Y-98384279D01*
X130759134Y-98386639D01*
X130759139Y-98386642D01*
X130823798Y-98422778D01*
X130865370Y-98467671D01*
X130874500Y-98509197D01*
X130874500Y-99367393D01*
X130876906Y-99374798D01*
X130876907Y-99374804D01*
X130882570Y-99392233D01*
X130886196Y-99407335D01*
X130890281Y-99433126D01*
X130902140Y-99456402D01*
X130908081Y-99470744D01*
X130916151Y-99495581D01*
X130931506Y-99516715D01*
X130939612Y-99529944D01*
X130951472Y-99553220D01*
X131746780Y-100348528D01*
X131770056Y-100360388D01*
X131783285Y-100368494D01*
X131804419Y-100383849D01*
X131829256Y-100391919D01*
X131843598Y-100397860D01*
X131866874Y-100409719D01*
X131874570Y-100410938D01*
X131892665Y-100413804D01*
X131907767Y-100417430D01*
X131925196Y-100423093D01*
X131925202Y-100423094D01*
X131932607Y-100425500D01*
X133077864Y-100425500D01*
X133136055Y-100444407D01*
X133172019Y-100493907D01*
X133176285Y-100513807D01*
X133181149Y-100558581D01*
X133231474Y-100692824D01*
X133285260Y-100764592D01*
X133312953Y-100801542D01*
X133317453Y-100807547D01*
X133432176Y-100893526D01*
X133566419Y-100943851D01*
X133627622Y-100950500D01*
X134372378Y-100950500D01*
X134433581Y-100943851D01*
X134567824Y-100893526D01*
X134682547Y-100807547D01*
X134687048Y-100801542D01*
X134714740Y-100764592D01*
X134768526Y-100692824D01*
X134818851Y-100558581D01*
X134825500Y-100497378D01*
X134825500Y-100494655D01*
X135225001Y-100494655D01*
X135225290Y-100499995D01*
X135230972Y-100552301D01*
X135233821Y-100564286D01*
X135279440Y-100685975D01*
X135286148Y-100698228D01*
X135363577Y-100801542D01*
X135373458Y-100811423D01*
X135476772Y-100888852D01*
X135489025Y-100895560D01*
X135610712Y-100941178D01*
X135622701Y-100944029D01*
X135675008Y-100949711D01*
X135680342Y-100950000D01*
X135884320Y-100950000D01*
X135897005Y-100945878D01*
X135900000Y-100941757D01*
X135900000Y-100934319D01*
X136200000Y-100934319D01*
X136204122Y-100947004D01*
X136208243Y-100949999D01*
X136419655Y-100949999D01*
X136424995Y-100949710D01*
X136477301Y-100944028D01*
X136489286Y-100941179D01*
X136610975Y-100895560D01*
X136623228Y-100888852D01*
X136726542Y-100811423D01*
X136736423Y-100801542D01*
X136813852Y-100698228D01*
X136820560Y-100685975D01*
X136866178Y-100564288D01*
X136869029Y-100552299D01*
X136874711Y-100499992D01*
X136875000Y-100494658D01*
X136875000Y-100165680D01*
X136870878Y-100152995D01*
X136866757Y-100150000D01*
X136215680Y-100150000D01*
X136202995Y-100154122D01*
X136200000Y-100158243D01*
X136200000Y-100934319D01*
X135900000Y-100934319D01*
X135900000Y-100165680D01*
X135895878Y-100152995D01*
X135891757Y-100150000D01*
X135240681Y-100150000D01*
X135227996Y-100154122D01*
X135225001Y-100158243D01*
X135225001Y-100494655D01*
X134825500Y-100494655D01*
X134825500Y-99502622D01*
X134818851Y-99441419D01*
X134768526Y-99307176D01*
X134682547Y-99192453D01*
X134567824Y-99106474D01*
X134433581Y-99056149D01*
X134372378Y-99049500D01*
X133627622Y-99049500D01*
X133566419Y-99056149D01*
X133432176Y-99106474D01*
X133317453Y-99192453D01*
X133231474Y-99307176D01*
X133181149Y-99441419D01*
X133179732Y-99454463D01*
X133176285Y-99486192D01*
X133151204Y-99542000D01*
X133098109Y-99572408D01*
X133077864Y-99574500D01*
X132217256Y-99574500D01*
X132159065Y-99555593D01*
X132147252Y-99545504D01*
X131754496Y-99152748D01*
X131726719Y-99098231D01*
X131725500Y-99082744D01*
X131725500Y-98510899D01*
X131744407Y-98452708D01*
X131779864Y-98422533D01*
X131807444Y-98408602D01*
X131807450Y-98408598D01*
X131811768Y-98406417D01*
X131958655Y-98291656D01*
X132080454Y-98150550D01*
X132150062Y-98028018D01*
X132170137Y-97992680D01*
X132170138Y-97992677D01*
X132172526Y-97988474D01*
X132175605Y-97979221D01*
X132229837Y-97816192D01*
X132229837Y-97816190D01*
X132231364Y-97811601D01*
X132254727Y-97626668D01*
X132255099Y-97600000D01*
X132236909Y-97414487D01*
X132183033Y-97236040D01*
X132095522Y-97071456D01*
X131977710Y-96927005D01*
X131973349Y-96923397D01*
X131837816Y-96811273D01*
X131837812Y-96811270D01*
X131834085Y-96808187D01*
X131830664Y-96806338D01*
X131793181Y-96758361D01*
X131791045Y-96697213D01*
X131825259Y-96646487D01*
X131886210Y-96625500D01*
X133169718Y-96625500D01*
X133227909Y-96644407D01*
X133263873Y-96693907D01*
X133263873Y-96755093D01*
X133248939Y-96783872D01*
X133231474Y-96807176D01*
X133181149Y-96941419D01*
X133174500Y-97002622D01*
X133174500Y-97997378D01*
X133181149Y-98058581D01*
X133231474Y-98192824D01*
X133254700Y-98223815D01*
X133305544Y-98291656D01*
X133317453Y-98307547D01*
X133323101Y-98311780D01*
X133339261Y-98323891D01*
X133432176Y-98393526D01*
X133566419Y-98443851D01*
X133627622Y-98450500D01*
X134307744Y-98450500D01*
X134365935Y-98469407D01*
X134377748Y-98479496D01*
X134996780Y-99098528D01*
X135020056Y-99110388D01*
X135033285Y-99118494D01*
X135054419Y-99133849D01*
X135079256Y-99141919D01*
X135093598Y-99147860D01*
X135116874Y-99159719D01*
X135124570Y-99160938D01*
X135142665Y-99163804D01*
X135157767Y-99167430D01*
X135175196Y-99173093D01*
X135175202Y-99173094D01*
X135182607Y-99175500D01*
X135190395Y-99175500D01*
X135198093Y-99176719D01*
X135197809Y-99178515D01*
X135246720Y-99194407D01*
X135282684Y-99243907D01*
X135281229Y-99309251D01*
X135233823Y-99435709D01*
X135230971Y-99447701D01*
X135225289Y-99500008D01*
X135225000Y-99505342D01*
X135225000Y-99834320D01*
X135229122Y-99847005D01*
X135233243Y-99850000D01*
X136859319Y-99850000D01*
X136872004Y-99845878D01*
X136874999Y-99841757D01*
X136874999Y-99505345D01*
X136874710Y-99500005D01*
X136869028Y-99447699D01*
X136866178Y-99435711D01*
X136818771Y-99309251D01*
X136816049Y-99248127D01*
X136849775Y-99197076D01*
X136911471Y-99175500D01*
X143116621Y-99175500D01*
X143176889Y-99195958D01*
X143222375Y-99230861D01*
X143356291Y-99286330D01*
X143362720Y-99287176D01*
X143362722Y-99287177D01*
X143448585Y-99298481D01*
X143489473Y-99303864D01*
X143493567Y-99304403D01*
X143500000Y-99305250D01*
X143506433Y-99304403D01*
X143510528Y-99303864D01*
X143551415Y-99298481D01*
X143637278Y-99287177D01*
X143637280Y-99287176D01*
X143643709Y-99286330D01*
X143777625Y-99230861D01*
X143892621Y-99142621D01*
X143980861Y-99027625D01*
X144036330Y-98893709D01*
X144037737Y-98883027D01*
X144054403Y-98756433D01*
X144055250Y-98750000D01*
X144044379Y-98667430D01*
X144037177Y-98612722D01*
X144037176Y-98612720D01*
X144036330Y-98606291D01*
X143980861Y-98472375D01*
X143892621Y-98357379D01*
X143777625Y-98269139D01*
X143643709Y-98213670D01*
X143637280Y-98212824D01*
X143637278Y-98212823D01*
X143517128Y-98197005D01*
X143500000Y-98194750D01*
X143482872Y-98197005D01*
X143362722Y-98212823D01*
X143362720Y-98212824D01*
X143356291Y-98213670D01*
X143222375Y-98269139D01*
X143217226Y-98273090D01*
X143176889Y-98304042D01*
X143116621Y-98324500D01*
X136911471Y-98324500D01*
X136853280Y-98305593D01*
X136817316Y-98256093D01*
X136818771Y-98190749D01*
X136866177Y-98064291D01*
X136869029Y-98052299D01*
X136874711Y-97999992D01*
X136875000Y-97994658D01*
X136875000Y-97665680D01*
X136870878Y-97652995D01*
X136866757Y-97650000D01*
X135240681Y-97650000D01*
X135227996Y-97654122D01*
X135225001Y-97658243D01*
X135225001Y-97884245D01*
X135206094Y-97942436D01*
X135156594Y-97978400D01*
X135095408Y-97978400D01*
X135055997Y-97954249D01*
X134854496Y-97752748D01*
X134826719Y-97698231D01*
X134825500Y-97682744D01*
X134825500Y-97334320D01*
X135225000Y-97334320D01*
X135229122Y-97347005D01*
X135233243Y-97350000D01*
X135884320Y-97350000D01*
X135897005Y-97345878D01*
X135900000Y-97341757D01*
X135900000Y-97334320D01*
X136200000Y-97334320D01*
X136204122Y-97347005D01*
X136208243Y-97350000D01*
X136859319Y-97350000D01*
X136872004Y-97345878D01*
X136874999Y-97341757D01*
X136874999Y-97005345D01*
X136874710Y-97000005D01*
X136869028Y-96947699D01*
X136866179Y-96935714D01*
X136820560Y-96814025D01*
X136813852Y-96801772D01*
X136736423Y-96698458D01*
X136726542Y-96688577D01*
X136623228Y-96611148D01*
X136610975Y-96604440D01*
X136489288Y-96558822D01*
X136477299Y-96555971D01*
X136424992Y-96550289D01*
X136419658Y-96550000D01*
X136215680Y-96550000D01*
X136202995Y-96554122D01*
X136200000Y-96558243D01*
X136200000Y-97334320D01*
X135900000Y-97334320D01*
X135900000Y-96565681D01*
X135895878Y-96552996D01*
X135891757Y-96550001D01*
X135680345Y-96550001D01*
X135675005Y-96550290D01*
X135622699Y-96555972D01*
X135610714Y-96558821D01*
X135489025Y-96604440D01*
X135476772Y-96611148D01*
X135373458Y-96688577D01*
X135363577Y-96698458D01*
X135286148Y-96801772D01*
X135279440Y-96814025D01*
X135233822Y-96935712D01*
X135230971Y-96947701D01*
X135225289Y-97000008D01*
X135225000Y-97005342D01*
X135225000Y-97334320D01*
X134825500Y-97334320D01*
X134825500Y-97002622D01*
X134818851Y-96941419D01*
X134768526Y-96807176D01*
X134696617Y-96711227D01*
X134686780Y-96698101D01*
X134682547Y-96692453D01*
X134567824Y-96606474D01*
X134489748Y-96577205D01*
X134441897Y-96539074D01*
X134425500Y-96484505D01*
X134425500Y-96432607D01*
X134423094Y-96425202D01*
X134423093Y-96425196D01*
X134417430Y-96407767D01*
X134413804Y-96392665D01*
X134410938Y-96374570D01*
X134409719Y-96366874D01*
X134397860Y-96343598D01*
X134391918Y-96329253D01*
X134386257Y-96311831D01*
X134383849Y-96304419D01*
X134379271Y-96298118D01*
X134379269Y-96298114D01*
X134368500Y-96283293D01*
X134360387Y-96270054D01*
X134348528Y-96246780D01*
X134253220Y-96151472D01*
X134253218Y-96151471D01*
X134196249Y-96094501D01*
X134168473Y-96039987D01*
X134178044Y-95979555D01*
X134221309Y-95936290D01*
X134266254Y-95925500D01*
X135317393Y-95925500D01*
X135324798Y-95923094D01*
X135324804Y-95923093D01*
X135342233Y-95917430D01*
X135357335Y-95913804D01*
X135375430Y-95910938D01*
X135383126Y-95909719D01*
X135406402Y-95897860D01*
X135420744Y-95891919D01*
X135445581Y-95883849D01*
X135466715Y-95868494D01*
X135479944Y-95860388D01*
X135503220Y-95848528D01*
X135598528Y-95753220D01*
X136029785Y-95321962D01*
X136086867Y-95293813D01*
X136112737Y-95290407D01*
X136137277Y-95287177D01*
X136137279Y-95287177D01*
X136143709Y-95286330D01*
X136277625Y-95230861D01*
X136392621Y-95142621D01*
X136480861Y-95027625D01*
X136536330Y-94893709D01*
X136538995Y-94873471D01*
X136554403Y-94756433D01*
X136555250Y-94750000D01*
X136545031Y-94672377D01*
X136537177Y-94612722D01*
X136537176Y-94612720D01*
X136536330Y-94606291D01*
X136480861Y-94472375D01*
X136392621Y-94357379D01*
X136277625Y-94269139D01*
X136143709Y-94213670D01*
X136137280Y-94212824D01*
X136137278Y-94212823D01*
X136006433Y-94195597D01*
X136000000Y-94194750D01*
X135993567Y-94195597D01*
X135862722Y-94212823D01*
X135862720Y-94212824D01*
X135856291Y-94213670D01*
X135722375Y-94269139D01*
X135607379Y-94357379D01*
X135603428Y-94362528D01*
X135585807Y-94385492D01*
X135535382Y-94420147D01*
X135474218Y-94418545D01*
X135449073Y-94405316D01*
X135441756Y-94400000D01*
X133565681Y-94400000D01*
X133552996Y-94404122D01*
X133550001Y-94408243D01*
X133550001Y-94644655D01*
X133550290Y-94649995D01*
X133555972Y-94702301D01*
X133558821Y-94714286D01*
X133604440Y-94835975D01*
X133611148Y-94848228D01*
X133662036Y-94916128D01*
X133681804Y-94974032D01*
X133663762Y-95032497D01*
X133614801Y-95069191D01*
X133582815Y-95074500D01*
X133167809Y-95074500D01*
X133109618Y-95055593D01*
X133073654Y-95006093D01*
X133073654Y-94944907D01*
X133088588Y-94916128D01*
X133109536Y-94888178D01*
X133143526Y-94842824D01*
X133193851Y-94708581D01*
X133200500Y-94647378D01*
X133200500Y-93942256D01*
X133219407Y-93884065D01*
X133229496Y-93872252D01*
X133387888Y-93713860D01*
X133442405Y-93686083D01*
X133502837Y-93695654D01*
X133546102Y-93738919D01*
X133556313Y-93794556D01*
X133550289Y-93850008D01*
X133550000Y-93855342D01*
X133550000Y-94084320D01*
X133554122Y-94097005D01*
X133558243Y-94100000D01*
X135434319Y-94100000D01*
X135447004Y-94095878D01*
X135449999Y-94091757D01*
X135449999Y-93855345D01*
X135449710Y-93850005D01*
X135444028Y-93797699D01*
X135441178Y-93785712D01*
X135440450Y-93783769D01*
X135440389Y-93782390D01*
X135439743Y-93779675D01*
X135440262Y-93779552D01*
X135437729Y-93722645D01*
X135471456Y-93671594D01*
X135533151Y-93650020D01*
X136342873Y-93650020D01*
X136350278Y-93647614D01*
X136350284Y-93647613D01*
X136367713Y-93641950D01*
X136382815Y-93638324D01*
X136400910Y-93635458D01*
X136408606Y-93634239D01*
X136431882Y-93622380D01*
X136446224Y-93616439D01*
X136471061Y-93608369D01*
X136492195Y-93593014D01*
X136505424Y-93584908D01*
X136528700Y-93573048D01*
X136624008Y-93477740D01*
X138027190Y-92074557D01*
X138027194Y-92074554D01*
X138147252Y-91954496D01*
X138201769Y-91926719D01*
X138217256Y-91925500D01*
X140253263Y-91925500D01*
X140311454Y-91944407D01*
X140347418Y-91993907D01*
X140347418Y-92055093D01*
X140316962Y-92098188D01*
X140317615Y-92098841D01*
X140313813Y-92102643D01*
X140313531Y-92103042D01*
X140307879Y-92107379D01*
X140219639Y-92222375D01*
X140164170Y-92356291D01*
X140145250Y-92500000D01*
X140146097Y-92506433D01*
X140161773Y-92625500D01*
X140164170Y-92643709D01*
X140219639Y-92777625D01*
X140223590Y-92782774D01*
X140254542Y-92823111D01*
X140275000Y-92883379D01*
X140275000Y-93767893D01*
X140277406Y-93775298D01*
X140277407Y-93775304D01*
X140283070Y-93792733D01*
X140286696Y-93807835D01*
X140290781Y-93833626D01*
X140302640Y-93856902D01*
X140308581Y-93871244D01*
X140316651Y-93896081D01*
X140332006Y-93917215D01*
X140340112Y-93930444D01*
X140351972Y-93953720D01*
X144996780Y-98598528D01*
X145003717Y-98602062D01*
X145003719Y-98602064D01*
X145020045Y-98610382D01*
X145033292Y-98618500D01*
X145054419Y-98633850D01*
X145061827Y-98636257D01*
X145061833Y-98636260D01*
X145079259Y-98641922D01*
X145093608Y-98647865D01*
X145109931Y-98656182D01*
X145109934Y-98656183D01*
X145116874Y-98659719D01*
X145124570Y-98660938D01*
X145142665Y-98663804D01*
X145157764Y-98667428D01*
X145182607Y-98675500D01*
X152282744Y-98675500D01*
X152340935Y-98694407D01*
X152352748Y-98704496D01*
X152428038Y-98779786D01*
X152456187Y-98836868D01*
X152462264Y-98883027D01*
X152463670Y-98893709D01*
X152519139Y-99027625D01*
X152607379Y-99142621D01*
X152722375Y-99230861D01*
X152856291Y-99286330D01*
X152862720Y-99287176D01*
X152862722Y-99287177D01*
X152948585Y-99298481D01*
X152989473Y-99303864D01*
X152993567Y-99304403D01*
X153000000Y-99305250D01*
X153006433Y-99304403D01*
X153010528Y-99303864D01*
X153051415Y-99298481D01*
X153137278Y-99287177D01*
X153137280Y-99287176D01*
X153143709Y-99286330D01*
X153277625Y-99230861D01*
X153392621Y-99142621D01*
X153480861Y-99027625D01*
X153536330Y-98893709D01*
X153537737Y-98883027D01*
X153554403Y-98756433D01*
X153555250Y-98750000D01*
X153544379Y-98667430D01*
X153537177Y-98612722D01*
X153537176Y-98612720D01*
X153536330Y-98606291D01*
X153480861Y-98472375D01*
X153392621Y-98357379D01*
X153277625Y-98269139D01*
X153143709Y-98213670D01*
X153137280Y-98212824D01*
X153137278Y-98212823D01*
X153109202Y-98209127D01*
X153086867Y-98206187D01*
X153029786Y-98178038D01*
X152753220Y-97901472D01*
X152729944Y-97889612D01*
X152716715Y-97881506D01*
X152695581Y-97866151D01*
X152670744Y-97858081D01*
X152656402Y-97852140D01*
X152633126Y-97840281D01*
X152625430Y-97839062D01*
X152607335Y-97836196D01*
X152592233Y-97832570D01*
X152574804Y-97826907D01*
X152574798Y-97826906D01*
X152567393Y-97824500D01*
X145467256Y-97824500D01*
X145409065Y-97805593D01*
X145397252Y-97795504D01*
X144621514Y-97019766D01*
X153500000Y-97019766D01*
X153500948Y-97029388D01*
X153512603Y-97087983D01*
X153519922Y-97105651D01*
X153564341Y-97172130D01*
X153577870Y-97185659D01*
X153644349Y-97230078D01*
X153662017Y-97237397D01*
X153720612Y-97249052D01*
X153730234Y-97250000D01*
X154634320Y-97250000D01*
X154647005Y-97245878D01*
X154650000Y-97241757D01*
X154650000Y-96265680D01*
X154645878Y-96252995D01*
X154641757Y-96250000D01*
X153515680Y-96250000D01*
X153502995Y-96254122D01*
X153500000Y-96258243D01*
X153500000Y-97019766D01*
X144621514Y-97019766D01*
X144021405Y-96419657D01*
X151275000Y-96419657D01*
X151275289Y-96424991D01*
X151280971Y-96477298D01*
X151283822Y-96489287D01*
X151329443Y-96610982D01*
X151336143Y-96623219D01*
X151413581Y-96726545D01*
X151423455Y-96736419D01*
X151526781Y-96813857D01*
X151539018Y-96820557D01*
X151660713Y-96866178D01*
X151672702Y-96869029D01*
X151725009Y-96874711D01*
X151730343Y-96875000D01*
X152084320Y-96875000D01*
X152097005Y-96870878D01*
X152100000Y-96866757D01*
X152100000Y-96859320D01*
X152400000Y-96859320D01*
X152404122Y-96872005D01*
X152408243Y-96875000D01*
X152769657Y-96875000D01*
X152774991Y-96874711D01*
X152827298Y-96869029D01*
X152839287Y-96866178D01*
X152960982Y-96820557D01*
X152973219Y-96813857D01*
X153076545Y-96736419D01*
X153086419Y-96726545D01*
X153163857Y-96623219D01*
X153170557Y-96610982D01*
X153216178Y-96489287D01*
X153219029Y-96477298D01*
X153224711Y-96424991D01*
X153225000Y-96419657D01*
X153225000Y-96203180D01*
X153220878Y-96190495D01*
X153216757Y-96187500D01*
X152415680Y-96187500D01*
X152402995Y-96191622D01*
X152400000Y-96195743D01*
X152400000Y-96859320D01*
X152100000Y-96859320D01*
X152100000Y-96203180D01*
X152095878Y-96190495D01*
X152091757Y-96187500D01*
X151290680Y-96187500D01*
X151277995Y-96191622D01*
X151275000Y-96195743D01*
X151275000Y-96419657D01*
X144021405Y-96419657D01*
X143473568Y-95871820D01*
X151275000Y-95871820D01*
X151279122Y-95884505D01*
X151283243Y-95887500D01*
X152084320Y-95887500D01*
X152097005Y-95883378D01*
X152100000Y-95879257D01*
X152100000Y-95871820D01*
X152400000Y-95871820D01*
X152404122Y-95884505D01*
X152408243Y-95887500D01*
X153209320Y-95887500D01*
X153222005Y-95883378D01*
X153225000Y-95879257D01*
X153225000Y-95655343D01*
X153224711Y-95650009D01*
X153219029Y-95597702D01*
X153216178Y-95585713D01*
X153170557Y-95464018D01*
X153163857Y-95451781D01*
X153086419Y-95348455D01*
X153076545Y-95338581D01*
X152973219Y-95261143D01*
X152960982Y-95254443D01*
X152839287Y-95208822D01*
X152827298Y-95205971D01*
X152774991Y-95200289D01*
X152769657Y-95200000D01*
X152415680Y-95200000D01*
X152402995Y-95204122D01*
X152400000Y-95208243D01*
X152400000Y-95871820D01*
X152100000Y-95871820D01*
X152100000Y-95215680D01*
X152095878Y-95202995D01*
X152091757Y-95200000D01*
X151730343Y-95200000D01*
X151725009Y-95200289D01*
X151672702Y-95205971D01*
X151660713Y-95208822D01*
X151539018Y-95254443D01*
X151526781Y-95261143D01*
X151423455Y-95338581D01*
X151413581Y-95348455D01*
X151336143Y-95451781D01*
X151329443Y-95464018D01*
X151283822Y-95585713D01*
X151280971Y-95597702D01*
X151275289Y-95650009D01*
X151275000Y-95655343D01*
X151275000Y-95871820D01*
X143473568Y-95871820D01*
X141179371Y-93577623D01*
X151274500Y-93577623D01*
X151274501Y-94347376D01*
X151274790Y-94350035D01*
X151274790Y-94350038D01*
X151280467Y-94402298D01*
X151281149Y-94408580D01*
X151331474Y-94542824D01*
X151417454Y-94657546D01*
X151532176Y-94743526D01*
X151538782Y-94746003D01*
X151538785Y-94746004D01*
X151590683Y-94765459D01*
X151666420Y-94793851D01*
X151727623Y-94800500D01*
X152249804Y-94800500D01*
X152772376Y-94800499D01*
X152775035Y-94800210D01*
X152775038Y-94800210D01*
X152827405Y-94794522D01*
X152827407Y-94794522D01*
X152833580Y-94793851D01*
X152892678Y-94771697D01*
X152961215Y-94746004D01*
X152961218Y-94746003D01*
X152967824Y-94743526D01*
X153082546Y-94657546D01*
X153168526Y-94542824D01*
X153202481Y-94452248D01*
X153240610Y-94404398D01*
X153295180Y-94388000D01*
X153400500Y-94388000D01*
X153458691Y-94406907D01*
X153494655Y-94456407D01*
X153499500Y-94487000D01*
X153499500Y-94824674D01*
X153514034Y-94897740D01*
X153545912Y-94945449D01*
X153562520Y-95004337D01*
X153545912Y-95055451D01*
X153519922Y-95094349D01*
X153512603Y-95112017D01*
X153500948Y-95170612D01*
X153500000Y-95180234D01*
X153500000Y-95934320D01*
X153504122Y-95947005D01*
X153508243Y-95950000D01*
X154851000Y-95950000D01*
X154909191Y-95968907D01*
X154945155Y-96018407D01*
X154950000Y-96049000D01*
X154950000Y-97234320D01*
X154954122Y-97247005D01*
X154958243Y-97250000D01*
X155700011Y-97250000D01*
X155758202Y-97268907D01*
X155794166Y-97318407D01*
X155799011Y-97349000D01*
X155799011Y-99291904D01*
X155801417Y-99299309D01*
X155801418Y-99299315D01*
X155807081Y-99316744D01*
X155810707Y-99331846D01*
X155814792Y-99357637D01*
X155826651Y-99380913D01*
X155832592Y-99395255D01*
X155840662Y-99420092D01*
X155856017Y-99441226D01*
X155864123Y-99454455D01*
X155875983Y-99477731D01*
X156928038Y-100529786D01*
X156956187Y-100586868D01*
X156962312Y-100633392D01*
X156963670Y-100643709D01*
X157019139Y-100777625D01*
X157107379Y-100892621D01*
X157222375Y-100980861D01*
X157356291Y-101036330D01*
X157362720Y-101037176D01*
X157362722Y-101037177D01*
X157493567Y-101054403D01*
X157500000Y-101055250D01*
X157506433Y-101054403D01*
X157637278Y-101037177D01*
X157637280Y-101037176D01*
X157643709Y-101036330D01*
X157777625Y-100980861D01*
X157892621Y-100892621D01*
X157980861Y-100777625D01*
X158036330Y-100643709D01*
X158037689Y-100633392D01*
X158054403Y-100506433D01*
X158055250Y-100500000D01*
X158044379Y-100417430D01*
X158037177Y-100362722D01*
X158037176Y-100362720D01*
X158036330Y-100356291D01*
X157980861Y-100222375D01*
X157892621Y-100107379D01*
X157777625Y-100019139D01*
X157643709Y-99963670D01*
X157637280Y-99962824D01*
X157637278Y-99962823D01*
X157610997Y-99959363D01*
X157586867Y-99956187D01*
X157529786Y-99928038D01*
X156679007Y-99077259D01*
X156651230Y-99022742D01*
X156650011Y-99007255D01*
X156650011Y-97349500D01*
X156668918Y-97291309D01*
X156718418Y-97255345D01*
X156749011Y-97250500D01*
X158774674Y-97250500D01*
X158847740Y-97235966D01*
X158930601Y-97180601D01*
X158985966Y-97097740D01*
X159000500Y-97024674D01*
X159000500Y-96562000D01*
X159019407Y-96503809D01*
X159068907Y-96467845D01*
X159099500Y-96463000D01*
X159204820Y-96463000D01*
X159263011Y-96481907D01*
X159297519Y-96527248D01*
X159312229Y-96566487D01*
X159326457Y-96604440D01*
X159331474Y-96617824D01*
X159417454Y-96732546D01*
X159532176Y-96818526D01*
X159538782Y-96821003D01*
X159538785Y-96821004D01*
X159572026Y-96833465D01*
X159666420Y-96868851D01*
X159727623Y-96875500D01*
X159730299Y-96875500D01*
X159730853Y-96875530D01*
X159787936Y-96897556D01*
X159821171Y-96948928D01*
X159824500Y-96974385D01*
X159824500Y-98366621D01*
X159804042Y-98426889D01*
X159791026Y-98443851D01*
X159769139Y-98472375D01*
X159713670Y-98606291D01*
X159712824Y-98612720D01*
X159712823Y-98612722D01*
X159705621Y-98667430D01*
X159694750Y-98750000D01*
X159695597Y-98756433D01*
X159712264Y-98883027D01*
X159713670Y-98893709D01*
X159769139Y-99027625D01*
X159857379Y-99142621D01*
X159972375Y-99230861D01*
X160106291Y-99286330D01*
X160112720Y-99287176D01*
X160112722Y-99287177D01*
X160198585Y-99298481D01*
X160239473Y-99303864D01*
X160243567Y-99304403D01*
X160250000Y-99305250D01*
X160256433Y-99304403D01*
X160260528Y-99303864D01*
X160301415Y-99298481D01*
X160387278Y-99287177D01*
X160387280Y-99287176D01*
X160393709Y-99286330D01*
X160527625Y-99230861D01*
X160642621Y-99142621D01*
X160730861Y-99027625D01*
X160786330Y-98893709D01*
X160787737Y-98883027D01*
X160804403Y-98756433D01*
X160805250Y-98750000D01*
X160794379Y-98667430D01*
X160787177Y-98612722D01*
X160787176Y-98612720D01*
X160786330Y-98606291D01*
X160730861Y-98472375D01*
X160708974Y-98443851D01*
X160695958Y-98426889D01*
X160675500Y-98366621D01*
X160675500Y-97686411D01*
X166163313Y-97686411D01*
X166175011Y-97763767D01*
X166177492Y-97773427D01*
X166242428Y-97949916D01*
X166246798Y-97958875D01*
X166345890Y-98118695D01*
X166351980Y-98126603D01*
X166481185Y-98263233D01*
X166488739Y-98269753D01*
X166642778Y-98377613D01*
X166651482Y-98382478D01*
X166824073Y-98457165D01*
X166833573Y-98460178D01*
X167018832Y-98498880D01*
X167026363Y-98499858D01*
X167027760Y-98499932D01*
X167030366Y-98500000D01*
X167234320Y-98500000D01*
X167247005Y-98495878D01*
X167250000Y-98491757D01*
X167250000Y-97690680D01*
X167245878Y-97677995D01*
X167241757Y-97675000D01*
X166177267Y-97675000D01*
X166164582Y-97679122D01*
X166163827Y-97680161D01*
X166163313Y-97686411D01*
X160675500Y-97686411D01*
X160675500Y-97359824D01*
X166160480Y-97359824D01*
X166161217Y-97372225D01*
X166170706Y-97375000D01*
X167234320Y-97375000D01*
X167247005Y-97370878D01*
X167250000Y-97366757D01*
X167250000Y-97359320D01*
X167550000Y-97359320D01*
X167554122Y-97372005D01*
X167558243Y-97375000D01*
X168622733Y-97375000D01*
X168635418Y-97370878D01*
X168636173Y-97369839D01*
X168636687Y-97363589D01*
X168624989Y-97286233D01*
X168622508Y-97276573D01*
X168557572Y-97100084D01*
X168553202Y-97091125D01*
X168454110Y-96931305D01*
X168448020Y-96923397D01*
X168318815Y-96786767D01*
X168311261Y-96780247D01*
X168157222Y-96672387D01*
X168148518Y-96667522D01*
X167975927Y-96592835D01*
X167966427Y-96589822D01*
X167781168Y-96551120D01*
X167773637Y-96550142D01*
X167772240Y-96550068D01*
X167769633Y-96550000D01*
X167565680Y-96550000D01*
X167552995Y-96554122D01*
X167550000Y-96558243D01*
X167550000Y-97359320D01*
X167250000Y-97359320D01*
X167250000Y-96565680D01*
X167245878Y-96552995D01*
X167241757Y-96550000D01*
X167078005Y-96550000D01*
X167073008Y-96550253D01*
X166932925Y-96564482D01*
X166923156Y-96566487D01*
X166743709Y-96622723D01*
X166734539Y-96626654D01*
X166570076Y-96717817D01*
X166561876Y-96723516D01*
X166419101Y-96845889D01*
X166412214Y-96853121D01*
X166296960Y-97001704D01*
X166291678Y-97010158D01*
X166208651Y-97178891D01*
X166205173Y-97188244D01*
X166160480Y-97359824D01*
X160675500Y-97359824D01*
X160675500Y-96974384D01*
X160694407Y-96916193D01*
X160743907Y-96880229D01*
X160769146Y-96875529D01*
X160769700Y-96875499D01*
X160772376Y-96875499D01*
X160779631Y-96874711D01*
X160827405Y-96869522D01*
X160827407Y-96869522D01*
X160833580Y-96868851D01*
X160927974Y-96833465D01*
X160961215Y-96821004D01*
X160961218Y-96821003D01*
X160967824Y-96818526D01*
X161082546Y-96732546D01*
X161168526Y-96617824D01*
X161173544Y-96604440D01*
X161192406Y-96554122D01*
X161218851Y-96483580D01*
X161225500Y-96422377D01*
X161225499Y-95652624D01*
X161223832Y-95637273D01*
X161219522Y-95597595D01*
X161219522Y-95597593D01*
X161218851Y-95591420D01*
X161168526Y-95457176D01*
X161082546Y-95342454D01*
X160967824Y-95256474D01*
X160961218Y-95253997D01*
X160961215Y-95253996D01*
X160899500Y-95230861D01*
X160833580Y-95206149D01*
X160772377Y-95199500D01*
X160250196Y-95199500D01*
X159727624Y-95199501D01*
X159724965Y-95199790D01*
X159724962Y-95199790D01*
X159672595Y-95205478D01*
X159672593Y-95205478D01*
X159666420Y-95206149D01*
X159611039Y-95226910D01*
X159538785Y-95253996D01*
X159538782Y-95253997D01*
X159532176Y-95256474D01*
X159417454Y-95342454D01*
X159331474Y-95457176D01*
X159299079Y-95543593D01*
X159297520Y-95547751D01*
X159259390Y-95595602D01*
X159204820Y-95612000D01*
X159099500Y-95612000D01*
X159041309Y-95593093D01*
X159005345Y-95543593D01*
X159000500Y-95513000D01*
X159000500Y-95175326D01*
X158985966Y-95102260D01*
X158954088Y-95054550D01*
X158937480Y-94995663D01*
X158954088Y-94944549D01*
X158980078Y-94905651D01*
X158987397Y-94887983D01*
X158999052Y-94829388D01*
X159000000Y-94819766D01*
X159000000Y-94344657D01*
X159275000Y-94344657D01*
X159275289Y-94349991D01*
X159280971Y-94402298D01*
X159283822Y-94414287D01*
X159329443Y-94535982D01*
X159336143Y-94548219D01*
X159413581Y-94651545D01*
X159423455Y-94661419D01*
X159526781Y-94738857D01*
X159539018Y-94745557D01*
X159660713Y-94791178D01*
X159672702Y-94794029D01*
X159725009Y-94799711D01*
X159730343Y-94800000D01*
X160084320Y-94800000D01*
X160097005Y-94795878D01*
X160100000Y-94791757D01*
X160100000Y-94784320D01*
X160400000Y-94784320D01*
X160404122Y-94797005D01*
X160408243Y-94800000D01*
X160769657Y-94800000D01*
X160774991Y-94799711D01*
X160827298Y-94794029D01*
X160839287Y-94791178D01*
X160960982Y-94745557D01*
X160973219Y-94738857D01*
X161076545Y-94661419D01*
X161086419Y-94651545D01*
X161163857Y-94548219D01*
X161170557Y-94535982D01*
X161216178Y-94414287D01*
X161219029Y-94402298D01*
X161224711Y-94349991D01*
X161225000Y-94344657D01*
X161225000Y-94128180D01*
X161220878Y-94115495D01*
X161216757Y-94112500D01*
X160415680Y-94112500D01*
X160402995Y-94116622D01*
X160400000Y-94120743D01*
X160400000Y-94784320D01*
X160100000Y-94784320D01*
X160100000Y-94128180D01*
X160095878Y-94115495D01*
X160091757Y-94112500D01*
X159290680Y-94112500D01*
X159277995Y-94116622D01*
X159275000Y-94120743D01*
X159275000Y-94344657D01*
X159000000Y-94344657D01*
X159000000Y-94065680D01*
X158995878Y-94052995D01*
X158991757Y-94050000D01*
X157649000Y-94050000D01*
X157590809Y-94031093D01*
X157554845Y-93981593D01*
X157550000Y-93951000D01*
X157550000Y-93796820D01*
X159275000Y-93796820D01*
X159279122Y-93809505D01*
X159283243Y-93812500D01*
X160084320Y-93812500D01*
X160097005Y-93808378D01*
X160100000Y-93804257D01*
X160100000Y-93796820D01*
X160400000Y-93796820D01*
X160404122Y-93809505D01*
X160408243Y-93812500D01*
X161209320Y-93812500D01*
X161222005Y-93808378D01*
X161225000Y-93804257D01*
X161225000Y-93580343D01*
X161224711Y-93575009D01*
X161219029Y-93522702D01*
X161216178Y-93510713D01*
X161170557Y-93389018D01*
X161163857Y-93376781D01*
X161086419Y-93273455D01*
X161076545Y-93263581D01*
X160973219Y-93186143D01*
X160960982Y-93179443D01*
X160839287Y-93133822D01*
X160827298Y-93130971D01*
X160774991Y-93125289D01*
X160769657Y-93125000D01*
X160415680Y-93125000D01*
X160402995Y-93129122D01*
X160400000Y-93133243D01*
X160400000Y-93796820D01*
X160100000Y-93796820D01*
X160100000Y-93140680D01*
X160095878Y-93127995D01*
X160091757Y-93125000D01*
X159730343Y-93125000D01*
X159725009Y-93125289D01*
X159672702Y-93130971D01*
X159660713Y-93133822D01*
X159539018Y-93179443D01*
X159526781Y-93186143D01*
X159423455Y-93263581D01*
X159413581Y-93273455D01*
X159336143Y-93376781D01*
X159329443Y-93389018D01*
X159283822Y-93510713D01*
X159280971Y-93522702D01*
X159275289Y-93575009D01*
X159275000Y-93580343D01*
X159275000Y-93796820D01*
X157550000Y-93796820D01*
X157550000Y-93734320D01*
X157850000Y-93734320D01*
X157854122Y-93747005D01*
X157858243Y-93750000D01*
X158984320Y-93750000D01*
X158997005Y-93745878D01*
X159000000Y-93741757D01*
X159000000Y-92980234D01*
X158999052Y-92970612D01*
X158987397Y-92912017D01*
X158980078Y-92894349D01*
X158935659Y-92827870D01*
X158922130Y-92814341D01*
X158855651Y-92769922D01*
X158837983Y-92762603D01*
X158779388Y-92750948D01*
X158769766Y-92750000D01*
X157865680Y-92750000D01*
X157852995Y-92754122D01*
X157850000Y-92758243D01*
X157850000Y-93734320D01*
X157550000Y-93734320D01*
X157550000Y-92765680D01*
X157545878Y-92752995D01*
X157541757Y-92750000D01*
X156630234Y-92750000D01*
X156620612Y-92750948D01*
X156562017Y-92762603D01*
X156544349Y-92769922D01*
X156477870Y-92814341D01*
X156464341Y-92827870D01*
X156419922Y-92894349D01*
X156412603Y-92912017D01*
X156400948Y-92970612D01*
X156400000Y-92980234D01*
X156400000Y-93809244D01*
X156381093Y-93867435D01*
X156331593Y-93903399D01*
X156270407Y-93903399D01*
X156230996Y-93879248D01*
X156129496Y-93777748D01*
X156101719Y-93723231D01*
X156100500Y-93707744D01*
X156100500Y-92975326D01*
X156085966Y-92902260D01*
X156030601Y-92819399D01*
X156015782Y-92809497D01*
X155955847Y-92769451D01*
X155955848Y-92769451D01*
X155947740Y-92764034D01*
X155874674Y-92749500D01*
X153725326Y-92749500D01*
X153652260Y-92764034D01*
X153644152Y-92769451D01*
X153644153Y-92769451D01*
X153584219Y-92809497D01*
X153569399Y-92819399D01*
X153514034Y-92902260D01*
X153499500Y-92975326D01*
X153499500Y-93438000D01*
X153480593Y-93496191D01*
X153431093Y-93532155D01*
X153400500Y-93537000D01*
X153295180Y-93537000D01*
X153236989Y-93518093D01*
X153202480Y-93472751D01*
X153196379Y-93456474D01*
X153175129Y-93399789D01*
X153171004Y-93388785D01*
X153171003Y-93388782D01*
X153168526Y-93382176D01*
X153082546Y-93267454D01*
X152967824Y-93181474D01*
X152961218Y-93178997D01*
X152961215Y-93178996D01*
X152909317Y-93159541D01*
X152833580Y-93131149D01*
X152772377Y-93124500D01*
X152250196Y-93124500D01*
X151727624Y-93124501D01*
X151724965Y-93124790D01*
X151724962Y-93124790D01*
X151672595Y-93130478D01*
X151672593Y-93130478D01*
X151666420Y-93131149D01*
X151607322Y-93153303D01*
X151538785Y-93178996D01*
X151538782Y-93178997D01*
X151532176Y-93181474D01*
X151417454Y-93267454D01*
X151331474Y-93382176D01*
X151328997Y-93388782D01*
X151328996Y-93388785D01*
X151324871Y-93399789D01*
X151281149Y-93516420D01*
X151274500Y-93577623D01*
X141179371Y-93577623D01*
X141154996Y-93553248D01*
X141127219Y-93498731D01*
X141126000Y-93483244D01*
X141126000Y-92883379D01*
X141146458Y-92823111D01*
X141177410Y-92782774D01*
X141181361Y-92777625D01*
X141236830Y-92643709D01*
X141239228Y-92625500D01*
X141254903Y-92506433D01*
X141255750Y-92500000D01*
X141236830Y-92356291D01*
X141181361Y-92222375D01*
X141093121Y-92107379D01*
X141087469Y-92103042D01*
X141087212Y-92102668D01*
X141083385Y-92098841D01*
X141084094Y-92098132D01*
X141052814Y-92052617D01*
X141054416Y-91991452D01*
X141091663Y-91942911D01*
X141147737Y-91925500D01*
X147032744Y-91925500D01*
X147090935Y-91944407D01*
X147102748Y-91954496D01*
X148178038Y-93029786D01*
X148206187Y-93086867D01*
X148208142Y-93101719D01*
X148212304Y-93133330D01*
X148213670Y-93143709D01*
X148269139Y-93277625D01*
X148357379Y-93392621D01*
X148472375Y-93480861D01*
X148606291Y-93536330D01*
X148612720Y-93537176D01*
X148612722Y-93537177D01*
X148743567Y-93554403D01*
X148750000Y-93555250D01*
X148756433Y-93554403D01*
X148887278Y-93537177D01*
X148887280Y-93537176D01*
X148893709Y-93536330D01*
X149027625Y-93480861D01*
X149142621Y-93392621D01*
X149230861Y-93277625D01*
X149286330Y-93143709D01*
X149287697Y-93133330D01*
X149304403Y-93006433D01*
X149305250Y-93000000D01*
X149301374Y-92970563D01*
X149287177Y-92862722D01*
X149287176Y-92862720D01*
X149286330Y-92856291D01*
X149230861Y-92722375D01*
X149142621Y-92607379D01*
X149027625Y-92519139D01*
X148893709Y-92463670D01*
X148887280Y-92462824D01*
X148887278Y-92462823D01*
X148860997Y-92459363D01*
X148836867Y-92456187D01*
X148779786Y-92428038D01*
X147503220Y-91151472D01*
X147479944Y-91139612D01*
X147466715Y-91131506D01*
X147445581Y-91116151D01*
X147420744Y-91108081D01*
X147406402Y-91102140D01*
X147383126Y-91090281D01*
X147375430Y-91089062D01*
X147357335Y-91086196D01*
X147342233Y-91082570D01*
X147324804Y-91076907D01*
X147324798Y-91076906D01*
X147317393Y-91074500D01*
X137932607Y-91074500D01*
X137925202Y-91076906D01*
X137925196Y-91076907D01*
X137907767Y-91082570D01*
X137892665Y-91086196D01*
X137874570Y-91089062D01*
X137866874Y-91090281D01*
X137843598Y-91102140D01*
X137829256Y-91108081D01*
X137804419Y-91116151D01*
X137783285Y-91131506D01*
X137770056Y-91139612D01*
X137746780Y-91151472D01*
X137425446Y-91472806D01*
X137425443Y-91472810D01*
X136128228Y-92770024D01*
X136073711Y-92797801D01*
X136058224Y-92799020D01*
X135544364Y-92799020D01*
X135486173Y-92780113D01*
X135450209Y-92730613D01*
X135445943Y-92689329D01*
X135450211Y-92650039D01*
X135450211Y-92650037D01*
X135450500Y-92647378D01*
X135450500Y-91852622D01*
X135443851Y-91791419D01*
X135393526Y-91657176D01*
X135307547Y-91542453D01*
X135192824Y-91456474D01*
X135058581Y-91406149D01*
X134997378Y-91399500D01*
X134002622Y-91399500D01*
X133941419Y-91406149D01*
X133807176Y-91456474D01*
X133692453Y-91542453D01*
X133606474Y-91657176D01*
X133556149Y-91791419D01*
X133555478Y-91797594D01*
X133555286Y-91798402D01*
X133523429Y-91850641D01*
X133466952Y-91874178D01*
X133458971Y-91874500D01*
X133291029Y-91874500D01*
X133232838Y-91855593D01*
X133196874Y-91806093D01*
X133194714Y-91798402D01*
X133194522Y-91797594D01*
X133193851Y-91791419D01*
X133143526Y-91657176D01*
X133057547Y-91542453D01*
X132942824Y-91456474D01*
X132808581Y-91406149D01*
X132747378Y-91399500D01*
X131752622Y-91399500D01*
X131691419Y-91406149D01*
X131557176Y-91456474D01*
X131442453Y-91542453D01*
X131356474Y-91657176D01*
X131306149Y-91791419D01*
X131299500Y-91852622D01*
X131299500Y-92345246D01*
X131280593Y-92403437D01*
X131270510Y-92415243D01*
X131144002Y-92541751D01*
X131089487Y-92569527D01*
X131029055Y-92559956D01*
X130985790Y-92516691D01*
X130975000Y-92471746D01*
X130975000Y-92378180D01*
X130970878Y-92365495D01*
X130966757Y-92362500D01*
X130165680Y-92362500D01*
X130152995Y-92366622D01*
X130150000Y-92370743D01*
X130150000Y-93034320D01*
X130154122Y-93047005D01*
X130158243Y-93050000D01*
X130396744Y-93050000D01*
X130454935Y-93068907D01*
X130490899Y-93118407D01*
X130490899Y-93179593D01*
X130466748Y-93219004D01*
X130265248Y-93420504D01*
X130210731Y-93448281D01*
X130195244Y-93449500D01*
X129524112Y-93449501D01*
X129477624Y-93449501D01*
X129474965Y-93449790D01*
X129474962Y-93449790D01*
X129422595Y-93455478D01*
X129422593Y-93455478D01*
X129416420Y-93456149D01*
X129361039Y-93476910D01*
X129288785Y-93503996D01*
X129288782Y-93503997D01*
X129282176Y-93506474D01*
X129167454Y-93592454D01*
X129163221Y-93598102D01*
X129136138Y-93634239D01*
X129081474Y-93707176D01*
X129078997Y-93713782D01*
X129078996Y-93713785D01*
X129059541Y-93765683D01*
X129031149Y-93841420D01*
X129030479Y-93847588D01*
X129029923Y-93852706D01*
X129004843Y-93908514D01*
X128976450Y-93930224D01*
X128959280Y-93938972D01*
X128863972Y-94034280D01*
X128863971Y-94034282D01*
X126996780Y-95901472D01*
X126901472Y-95996780D01*
X126889612Y-96020056D01*
X126881506Y-96033285D01*
X126866151Y-96054419D01*
X126859604Y-96074569D01*
X126858082Y-96079253D01*
X126852140Y-96093598D01*
X126840281Y-96116874D01*
X126839062Y-96124570D01*
X126836196Y-96142665D01*
X126832570Y-96157767D01*
X126826907Y-96175196D01*
X126826906Y-96175202D01*
X126824500Y-96182607D01*
X126824500Y-99317393D01*
X123250000Y-99317393D01*
X123250000Y-95592605D01*
X124675356Y-95592605D01*
X124675546Y-95593804D01*
X124679684Y-95598671D01*
X124867082Y-95736076D01*
X124873287Y-95739954D01*
X125096977Y-95857643D01*
X125103705Y-95860568D01*
X125342333Y-95943900D01*
X125349400Y-95945794D01*
X125597730Y-95992941D01*
X125605010Y-95993770D01*
X125857575Y-96003694D01*
X125864895Y-96003438D01*
X126116165Y-95975920D01*
X126123348Y-95974588D01*
X126367794Y-95910231D01*
X126374720Y-95907846D01*
X126606948Y-95808073D01*
X126613449Y-95804689D01*
X126828382Y-95671685D01*
X126834315Y-95667374D01*
X126914911Y-95599145D01*
X126921931Y-95587800D01*
X126921704Y-95584740D01*
X126919909Y-95582041D01*
X125811086Y-94473218D01*
X125799203Y-94467164D01*
X125794172Y-94467960D01*
X124681410Y-95580722D01*
X124675356Y-95592605D01*
X123250000Y-95592605D01*
X123250000Y-94207729D01*
X124045870Y-94207729D01*
X124057998Y-94460204D01*
X124058890Y-94467467D01*
X124108202Y-94715379D01*
X124110159Y-94722435D01*
X124195568Y-94960318D01*
X124198557Y-94967031D01*
X124318184Y-95189668D01*
X124322127Y-95195859D01*
X124449496Y-95366426D01*
X124460388Y-95374124D01*
X124461838Y-95374105D01*
X124466929Y-95370939D01*
X125576782Y-94261086D01*
X125582024Y-94250797D01*
X126017164Y-94250797D01*
X126017960Y-94255828D01*
X127128178Y-95366046D01*
X127140061Y-95372100D01*
X127143548Y-95371548D01*
X127145476Y-95370048D01*
X127199110Y-95308890D01*
X127203520Y-95303037D01*
X127340252Y-95090462D01*
X127343754Y-95084013D01*
X127447565Y-94853562D01*
X127450069Y-94846683D01*
X127518680Y-94603408D01*
X127520141Y-94596224D01*
X127552188Y-94344312D01*
X127552567Y-94339362D01*
X127554842Y-94252492D01*
X127554722Y-94247517D01*
X127535903Y-93994262D01*
X127534822Y-93987033D01*
X127479036Y-93740495D01*
X127476896Y-93733494D01*
X127385283Y-93497913D01*
X127382132Y-93491307D01*
X127256708Y-93271859D01*
X127252609Y-93265782D01*
X127149350Y-93134801D01*
X127138262Y-93127392D01*
X127136118Y-93127476D01*
X127132056Y-93130076D01*
X126023218Y-94238914D01*
X126017164Y-94250797D01*
X125582024Y-94250797D01*
X125582836Y-94249203D01*
X125582040Y-94244172D01*
X124472059Y-93134191D01*
X124460176Y-93128137D01*
X124457374Y-93128580D01*
X124454528Y-93130854D01*
X124373650Y-93228098D01*
X124369398Y-93234059D01*
X124238274Y-93450145D01*
X124234944Y-93456681D01*
X124137202Y-93689770D01*
X124134875Y-93696723D01*
X124072658Y-93941703D01*
X124071386Y-93948919D01*
X124046062Y-94200410D01*
X124045870Y-94207729D01*
X123250000Y-94207729D01*
X123250000Y-92911549D01*
X124677580Y-92911549D01*
X124677957Y-92915293D01*
X124679107Y-92916975D01*
X125788914Y-94026782D01*
X125800797Y-94032836D01*
X125805828Y-94032040D01*
X126917679Y-92920189D01*
X126923733Y-92908306D01*
X126923037Y-92903912D01*
X126922535Y-92903243D01*
X126907078Y-92888701D01*
X126901377Y-92884085D01*
X126693704Y-92740017D01*
X126687381Y-92736293D01*
X126460704Y-92624509D01*
X126453895Y-92621757D01*
X126369235Y-92594657D01*
X129025000Y-92594657D01*
X129025289Y-92599991D01*
X129030971Y-92652298D01*
X129033822Y-92664287D01*
X129079443Y-92785982D01*
X129086143Y-92798219D01*
X129163581Y-92901545D01*
X129173455Y-92911419D01*
X129276781Y-92988857D01*
X129289018Y-92995557D01*
X129410713Y-93041178D01*
X129422702Y-93044029D01*
X129475009Y-93049711D01*
X129480343Y-93050000D01*
X129834320Y-93050000D01*
X129847005Y-93045878D01*
X129850000Y-93041757D01*
X129850000Y-92378180D01*
X129845878Y-92365495D01*
X129841757Y-92362500D01*
X129040680Y-92362500D01*
X129027995Y-92366622D01*
X129025000Y-92370743D01*
X129025000Y-92594657D01*
X126369235Y-92594657D01*
X126213171Y-92544700D01*
X126206054Y-92542991D01*
X125956569Y-92502360D01*
X125949285Y-92501723D01*
X125696529Y-92498414D01*
X125689233Y-92498860D01*
X125438766Y-92532948D01*
X125431614Y-92534468D01*
X125188946Y-92605199D01*
X125182081Y-92607766D01*
X124952539Y-92713586D01*
X124946133Y-92717138D01*
X124734747Y-92855728D01*
X124728946Y-92860179D01*
X124684298Y-92900029D01*
X124677580Y-92911549D01*
X123250000Y-92911549D01*
X123250000Y-92046820D01*
X129025000Y-92046820D01*
X129029122Y-92059505D01*
X129033243Y-92062500D01*
X129834320Y-92062500D01*
X129847005Y-92058378D01*
X129850000Y-92054257D01*
X129850000Y-92046820D01*
X130150000Y-92046820D01*
X130154122Y-92059505D01*
X130158243Y-92062500D01*
X130959320Y-92062500D01*
X130972005Y-92058378D01*
X130975000Y-92054257D01*
X130975000Y-91830343D01*
X130974711Y-91825009D01*
X130969029Y-91772702D01*
X130966178Y-91760713D01*
X130920557Y-91639018D01*
X130913857Y-91626781D01*
X130836419Y-91523455D01*
X130826545Y-91513581D01*
X130723219Y-91436143D01*
X130710982Y-91429443D01*
X130589287Y-91383822D01*
X130577298Y-91380971D01*
X130524991Y-91375289D01*
X130519657Y-91375000D01*
X130165680Y-91375000D01*
X130152995Y-91379122D01*
X130150000Y-91383243D01*
X130150000Y-92046820D01*
X129850000Y-92046820D01*
X129850000Y-91390680D01*
X129845878Y-91377995D01*
X129841757Y-91375000D01*
X129480343Y-91375000D01*
X129475009Y-91375289D01*
X129422702Y-91380971D01*
X129410713Y-91383822D01*
X129289018Y-91429443D01*
X129276781Y-91436143D01*
X129173455Y-91513581D01*
X129163581Y-91523455D01*
X129086143Y-91626781D01*
X129079443Y-91639018D01*
X129033822Y-91760713D01*
X129030971Y-91772702D01*
X129025289Y-91825009D01*
X129025000Y-91830343D01*
X129025000Y-92046820D01*
X123250000Y-92046820D01*
X123250000Y-90249000D01*
X123268907Y-90190809D01*
X123318407Y-90154845D01*
X123349000Y-90150000D01*
X172151000Y-90150000D01*
X172209191Y-90168907D01*
G37*
%TD.AperFunction*%
%TD*%
M02*
