%TF.GenerationSoftware,KiCad,Pcbnew,(6.0.0)*%
%TF.CreationDate,2022-01-04T17:33:13-06:00*%
%TF.ProjectId,minirib-usb,6d696e69-7269-4622-9d75-73622e6b6963,B*%
%TF.SameCoordinates,Original*%
%TF.FileFunction,Legend,Bot*%
%TF.FilePolarity,Positive*%
%FSLAX46Y46*%
G04 Gerber Fmt 4.6, Leading zero omitted, Abs format (unit mm)*
G04 Created by KiCad (PCBNEW (6.0.0)) date 2022-01-04 17:33:13*
%MOMM*%
%LPD*%
G01*
G04 APERTURE LIST*
%ADD10C,0.150000*%
%ADD11C,0.130000*%
%ADD12C,0.120000*%
G04 APERTURE END LIST*
D10*
X164914404Y-108397380D02*
X164914404Y-107397380D01*
X164581071Y-108111666D01*
X164247738Y-107397380D01*
X164247738Y-108397380D01*
X163771547Y-108397380D02*
X163771547Y-107730714D01*
X163771547Y-107397380D02*
X163819166Y-107445000D01*
X163771547Y-107492619D01*
X163723928Y-107445000D01*
X163771547Y-107397380D01*
X163771547Y-107492619D01*
X163295357Y-107730714D02*
X163295357Y-108397380D01*
X163295357Y-107825952D02*
X163247738Y-107778333D01*
X163152500Y-107730714D01*
X163009642Y-107730714D01*
X162914404Y-107778333D01*
X162866785Y-107873571D01*
X162866785Y-108397380D01*
X162390595Y-108397380D02*
X162390595Y-107730714D01*
X162390595Y-107397380D02*
X162438214Y-107445000D01*
X162390595Y-107492619D01*
X162342976Y-107445000D01*
X162390595Y-107397380D01*
X162390595Y-107492619D01*
X161342976Y-108397380D02*
X161676309Y-107921190D01*
X161914404Y-108397380D02*
X161914404Y-107397380D01*
X161533452Y-107397380D01*
X161438214Y-107445000D01*
X161390595Y-107492619D01*
X161342976Y-107587857D01*
X161342976Y-107730714D01*
X161390595Y-107825952D01*
X161438214Y-107873571D01*
X161533452Y-107921190D01*
X161914404Y-107921190D01*
X160914404Y-108397380D02*
X160914404Y-107397380D01*
X160104880Y-107873571D02*
X159962023Y-107921190D01*
X159914404Y-107968809D01*
X159866785Y-108064047D01*
X159866785Y-108206904D01*
X159914404Y-108302142D01*
X159962023Y-108349761D01*
X160057261Y-108397380D01*
X160438214Y-108397380D01*
X160438214Y-107397380D01*
X160104880Y-107397380D01*
X160009642Y-107445000D01*
X159962023Y-107492619D01*
X159914404Y-107587857D01*
X159914404Y-107683095D01*
X159962023Y-107778333D01*
X160009642Y-107825952D01*
X160104880Y-107873571D01*
X160438214Y-107873571D01*
X158676309Y-107397380D02*
X158676309Y-108206904D01*
X158628690Y-108302142D01*
X158581071Y-108349761D01*
X158485833Y-108397380D01*
X158295357Y-108397380D01*
X158200119Y-108349761D01*
X158152500Y-108302142D01*
X158104880Y-108206904D01*
X158104880Y-107397380D01*
X157676309Y-108349761D02*
X157533452Y-108397380D01*
X157295357Y-108397380D01*
X157200119Y-108349761D01*
X157152500Y-108302142D01*
X157104880Y-108206904D01*
X157104880Y-108111666D01*
X157152500Y-108016428D01*
X157200119Y-107968809D01*
X157295357Y-107921190D01*
X157485833Y-107873571D01*
X157581071Y-107825952D01*
X157628690Y-107778333D01*
X157676309Y-107683095D01*
X157676309Y-107587857D01*
X157628690Y-107492619D01*
X157581071Y-107445000D01*
X157485833Y-107397380D01*
X157247738Y-107397380D01*
X157104880Y-107445000D01*
X156342976Y-107873571D02*
X156200119Y-107921190D01*
X156152500Y-107968809D01*
X156104880Y-108064047D01*
X156104880Y-108206904D01*
X156152500Y-108302142D01*
X156200119Y-108349761D01*
X156295357Y-108397380D01*
X156676309Y-108397380D01*
X156676309Y-107397380D01*
X156342976Y-107397380D01*
X156247738Y-107445000D01*
X156200119Y-107492619D01*
X156152500Y-107587857D01*
X156152500Y-107683095D01*
X156200119Y-107778333D01*
X156247738Y-107825952D01*
X156342976Y-107873571D01*
X156676309Y-107873571D01*
X164914404Y-110007380D02*
X164914404Y-109340714D01*
X164914404Y-109531190D02*
X164866785Y-109435952D01*
X164819166Y-109388333D01*
X164723928Y-109340714D01*
X164628690Y-109340714D01*
X163914404Y-109959761D02*
X164009642Y-110007380D01*
X164200119Y-110007380D01*
X164295357Y-109959761D01*
X164342976Y-109864523D01*
X164342976Y-109483571D01*
X164295357Y-109388333D01*
X164200119Y-109340714D01*
X164009642Y-109340714D01*
X163914404Y-109388333D01*
X163866785Y-109483571D01*
X163866785Y-109578809D01*
X164342976Y-109674047D01*
X163533452Y-109340714D02*
X163295357Y-110007380D01*
X163057261Y-109340714D01*
X161962023Y-109721666D02*
X161485833Y-109721666D01*
X162057261Y-110007380D02*
X161723928Y-109007380D01*
X161390595Y-110007380D01*
X160295357Y-109626428D02*
X159533452Y-109626428D01*
X158342976Y-109102619D02*
X158295357Y-109055000D01*
X158200119Y-109007380D01*
X157962023Y-109007380D01*
X157866785Y-109055000D01*
X157819166Y-109102619D01*
X157771547Y-109197857D01*
X157771547Y-109293095D01*
X157819166Y-109435952D01*
X158390595Y-110007380D01*
X157771547Y-110007380D01*
X157152500Y-109007380D02*
X157057261Y-109007380D01*
X156962023Y-109055000D01*
X156914404Y-109102619D01*
X156866785Y-109197857D01*
X156819166Y-109388333D01*
X156819166Y-109626428D01*
X156866785Y-109816904D01*
X156914404Y-109912142D01*
X156962023Y-109959761D01*
X157057261Y-110007380D01*
X157152500Y-110007380D01*
X157247738Y-109959761D01*
X157295357Y-109912142D01*
X157342976Y-109816904D01*
X157390595Y-109626428D01*
X157390595Y-109388333D01*
X157342976Y-109197857D01*
X157295357Y-109102619D01*
X157247738Y-109055000D01*
X157152500Y-109007380D01*
X156438214Y-109102619D02*
X156390595Y-109055000D01*
X156295357Y-109007380D01*
X156057261Y-109007380D01*
X155962023Y-109055000D01*
X155914404Y-109102619D01*
X155866785Y-109197857D01*
X155866785Y-109293095D01*
X155914404Y-109435952D01*
X156485833Y-110007380D01*
X155866785Y-110007380D01*
X154914404Y-110007380D02*
X155485833Y-110007380D01*
X155200119Y-110007380D02*
X155200119Y-109007380D01*
X155295357Y-109150238D01*
X155390595Y-109245476D01*
X155485833Y-109293095D01*
X153771547Y-108959761D02*
X154628690Y-110245476D01*
X152914404Y-110007380D02*
X153485833Y-110007380D01*
X153200119Y-110007380D02*
X153200119Y-109007380D01*
X153295357Y-109150238D01*
X153390595Y-109245476D01*
X153485833Y-109293095D01*
X152533452Y-109102619D02*
X152485833Y-109055000D01*
X152390595Y-109007380D01*
X152152500Y-109007380D01*
X152057261Y-109055000D01*
X152009642Y-109102619D01*
X151962023Y-109197857D01*
X151962023Y-109293095D01*
X152009642Y-109435952D01*
X152581071Y-110007380D01*
X151962023Y-110007380D01*
X150819166Y-108959761D02*
X151676309Y-110245476D01*
X150438214Y-110007380D02*
X150247738Y-110007380D01*
X150152500Y-109959761D01*
X150104880Y-109912142D01*
X150009642Y-109769285D01*
X149962023Y-109578809D01*
X149962023Y-109197857D01*
X150009642Y-109102619D01*
X150057261Y-109055000D01*
X150152500Y-109007380D01*
X150342976Y-109007380D01*
X150438214Y-109055000D01*
X150485833Y-109102619D01*
X150533452Y-109197857D01*
X150533452Y-109435952D01*
X150485833Y-109531190D01*
X150438214Y-109578809D01*
X150342976Y-109626428D01*
X150152500Y-109626428D01*
X150057261Y-109578809D01*
X150009642Y-109531190D01*
X149962023Y-109435952D01*
D11*
%TO.C,C3*%
X130133333Y-95785714D02*
X130171428Y-95823809D01*
X130285714Y-95861904D01*
X130361904Y-95861904D01*
X130476190Y-95823809D01*
X130552380Y-95747619D01*
X130590476Y-95671428D01*
X130628571Y-95519047D01*
X130628571Y-95404761D01*
X130590476Y-95252380D01*
X130552380Y-95176190D01*
X130476190Y-95100000D01*
X130361904Y-95061904D01*
X130285714Y-95061904D01*
X130171428Y-95100000D01*
X130133333Y-95138095D01*
X129866666Y-95061904D02*
X129371428Y-95061904D01*
X129638095Y-95366666D01*
X129523809Y-95366666D01*
X129447619Y-95404761D01*
X129409523Y-95442857D01*
X129371428Y-95519047D01*
X129371428Y-95709523D01*
X129409523Y-95785714D01*
X129447619Y-95823809D01*
X129523809Y-95861904D01*
X129752380Y-95861904D01*
X129828571Y-95823809D01*
X129866666Y-95785714D01*
D10*
%TO.C,D1*%
X137977380Y-99261904D02*
X136977380Y-99261904D01*
X136977380Y-99500000D01*
X137025000Y-99642857D01*
X137120238Y-99738095D01*
X137215476Y-99785714D01*
X137405952Y-99833333D01*
X137548809Y-99833333D01*
X137739285Y-99785714D01*
X137834523Y-99738095D01*
X137929761Y-99642857D01*
X137977380Y-99500000D01*
X137977380Y-99261904D01*
X137977380Y-100785714D02*
X137977380Y-100214285D01*
X137977380Y-100500000D02*
X136977380Y-100500000D01*
X137120238Y-100404761D01*
X137215476Y-100309523D01*
X137263095Y-100214285D01*
%TO.C,D2*%
X137977380Y-96761904D02*
X136977380Y-96761904D01*
X136977380Y-97000000D01*
X137025000Y-97142857D01*
X137120238Y-97238095D01*
X137215476Y-97285714D01*
X137405952Y-97333333D01*
X137548809Y-97333333D01*
X137739285Y-97285714D01*
X137834523Y-97238095D01*
X137929761Y-97142857D01*
X137977380Y-97000000D01*
X137977380Y-96761904D01*
X137072619Y-97714285D02*
X137025000Y-97761904D01*
X136977380Y-97857142D01*
X136977380Y-98095238D01*
X137025000Y-98190476D01*
X137072619Y-98238095D01*
X137167857Y-98285714D01*
X137263095Y-98285714D01*
X137405952Y-98238095D01*
X137977380Y-97666666D01*
X137977380Y-98285714D01*
%TO.C,D3*%
X137977380Y-104261904D02*
X136977380Y-104261904D01*
X136977380Y-104500000D01*
X137025000Y-104642857D01*
X137120238Y-104738095D01*
X137215476Y-104785714D01*
X137405952Y-104833333D01*
X137548809Y-104833333D01*
X137739285Y-104785714D01*
X137834523Y-104738095D01*
X137929761Y-104642857D01*
X137977380Y-104500000D01*
X137977380Y-104261904D01*
X136977380Y-105166666D02*
X136977380Y-105785714D01*
X137358333Y-105452380D01*
X137358333Y-105595238D01*
X137405952Y-105690476D01*
X137453571Y-105738095D01*
X137548809Y-105785714D01*
X137786904Y-105785714D01*
X137882142Y-105738095D01*
X137929761Y-105690476D01*
X137977380Y-105595238D01*
X137977380Y-105309523D01*
X137929761Y-105214285D01*
X137882142Y-105166666D01*
%TO.C,D4*%
X137977380Y-101761904D02*
X136977380Y-101761904D01*
X136977380Y-102000000D01*
X137025000Y-102142857D01*
X137120238Y-102238095D01*
X137215476Y-102285714D01*
X137405952Y-102333333D01*
X137548809Y-102333333D01*
X137739285Y-102285714D01*
X137834523Y-102238095D01*
X137929761Y-102142857D01*
X137977380Y-102000000D01*
X137977380Y-101761904D01*
X137310714Y-103190476D02*
X137977380Y-103190476D01*
X136929761Y-102952380D02*
X137644047Y-102714285D01*
X137644047Y-103333333D01*
D11*
%TO.C,R3*%
X132383333Y-95861904D02*
X132650000Y-95480952D01*
X132840476Y-95861904D02*
X132840476Y-95061904D01*
X132535714Y-95061904D01*
X132459523Y-95100000D01*
X132421428Y-95138095D01*
X132383333Y-95214285D01*
X132383333Y-95328571D01*
X132421428Y-95404761D01*
X132459523Y-95442857D01*
X132535714Y-95480952D01*
X132840476Y-95480952D01*
X132116666Y-95061904D02*
X131621428Y-95061904D01*
X131888095Y-95366666D01*
X131773809Y-95366666D01*
X131697619Y-95404761D01*
X131659523Y-95442857D01*
X131621428Y-95519047D01*
X131621428Y-95709523D01*
X131659523Y-95785714D01*
X131697619Y-95823809D01*
X131773809Y-95861904D01*
X132002380Y-95861904D01*
X132078571Y-95823809D01*
X132116666Y-95785714D01*
%TO.C,R4*%
X134633333Y-91361904D02*
X134900000Y-90980952D01*
X135090476Y-91361904D02*
X135090476Y-90561904D01*
X134785714Y-90561904D01*
X134709523Y-90600000D01*
X134671428Y-90638095D01*
X134633333Y-90714285D01*
X134633333Y-90828571D01*
X134671428Y-90904761D01*
X134709523Y-90942857D01*
X134785714Y-90980952D01*
X135090476Y-90980952D01*
X133947619Y-90828571D02*
X133947619Y-91361904D01*
X134138095Y-90523809D02*
X134328571Y-91095238D01*
X133833333Y-91095238D01*
%TO.C,C2*%
X152383333Y-97535714D02*
X152421428Y-97573809D01*
X152535714Y-97611904D01*
X152611904Y-97611904D01*
X152726190Y-97573809D01*
X152802380Y-97497619D01*
X152840476Y-97421428D01*
X152878571Y-97269047D01*
X152878571Y-97154761D01*
X152840476Y-97002380D01*
X152802380Y-96926190D01*
X152726190Y-96850000D01*
X152611904Y-96811904D01*
X152535714Y-96811904D01*
X152421428Y-96850000D01*
X152383333Y-96888095D01*
X152078571Y-96888095D02*
X152040476Y-96850000D01*
X151964285Y-96811904D01*
X151773809Y-96811904D01*
X151697619Y-96850000D01*
X151659523Y-96888095D01*
X151621428Y-96964285D01*
X151621428Y-97040476D01*
X151659523Y-97154761D01*
X152116666Y-97611904D01*
X151621428Y-97611904D01*
%TO.C,Y1*%
X156630952Y-97730952D02*
X156630952Y-98111904D01*
X156897619Y-97311904D02*
X156630952Y-97730952D01*
X156364285Y-97311904D01*
X155678571Y-98111904D02*
X156135714Y-98111904D01*
X155907142Y-98111904D02*
X155907142Y-97311904D01*
X155983333Y-97426190D01*
X156059523Y-97502380D01*
X156135714Y-97540476D01*
%TO.C,C9*%
X160383333Y-97535714D02*
X160421428Y-97573809D01*
X160535714Y-97611904D01*
X160611904Y-97611904D01*
X160726190Y-97573809D01*
X160802380Y-97497619D01*
X160840476Y-97421428D01*
X160878571Y-97269047D01*
X160878571Y-97154761D01*
X160840476Y-97002380D01*
X160802380Y-96926190D01*
X160726190Y-96850000D01*
X160611904Y-96811904D01*
X160535714Y-96811904D01*
X160421428Y-96850000D01*
X160383333Y-96888095D01*
X160002380Y-97611904D02*
X159850000Y-97611904D01*
X159773809Y-97573809D01*
X159735714Y-97535714D01*
X159659523Y-97421428D01*
X159621428Y-97269047D01*
X159621428Y-96964285D01*
X159659523Y-96888095D01*
X159697619Y-96850000D01*
X159773809Y-96811904D01*
X159926190Y-96811904D01*
X160002380Y-96850000D01*
X160040476Y-96888095D01*
X160078571Y-96964285D01*
X160078571Y-97154761D01*
X160040476Y-97230952D01*
X160002380Y-97269047D01*
X159926190Y-97307142D01*
X159773809Y-97307142D01*
X159697619Y-97269047D01*
X159659523Y-97230952D01*
X159621428Y-97154761D01*
D12*
%TO.C,C3*%
X130735000Y-93511252D02*
X130735000Y-92988748D01*
X129265000Y-93511252D02*
X129265000Y-92988748D01*
%TO.C,D1*%
X133165000Y-100960000D02*
X133165000Y-99040000D01*
X136025000Y-100960000D02*
X133165000Y-100960000D01*
X133165000Y-99040000D02*
X136025000Y-99040000D01*
%TO.C,D2*%
X136025000Y-98460000D02*
X133165000Y-98460000D01*
X133165000Y-96540000D02*
X136025000Y-96540000D01*
X133165000Y-98460000D02*
X133165000Y-96540000D01*
%TO.C,D3*%
X133165000Y-104040000D02*
X136025000Y-104040000D01*
X133165000Y-105960000D02*
X133165000Y-104040000D01*
X136025000Y-105960000D02*
X133165000Y-105960000D01*
%TO.C,D4*%
X133165000Y-103460000D02*
X133165000Y-101540000D01*
X136025000Y-103460000D02*
X133165000Y-103460000D01*
X133165000Y-101540000D02*
X136025000Y-101540000D01*
%TO.C,R3*%
X131515000Y-93022936D02*
X131515000Y-93477064D01*
X132985000Y-93022936D02*
X132985000Y-93477064D01*
%TO.C,R4*%
X135235000Y-93477064D02*
X135235000Y-93022936D01*
X133765000Y-93477064D02*
X133765000Y-93022936D01*
%TO.C,C2*%
X151515000Y-94738748D02*
X151515000Y-95261252D01*
X152985000Y-94738748D02*
X152985000Y-95261252D01*
%TO.C,Y1*%
X158950000Y-97200000D02*
X153550000Y-97200000D01*
X158950000Y-92800000D02*
X158950000Y-97200000D01*
%TO.C,C9*%
X159515000Y-95261252D02*
X159515000Y-94738748D01*
X160985000Y-95261252D02*
X160985000Y-94738748D01*
%TD*%
M02*
