M48
; DRILL file {KiCad (6.0.0)} date Tue Jan  4 17:43:09 2022
; FORMAT={-:-/ absolute / inch / decimal}
; #@! TF.CreationDate,2022-01-04T17:43:09-06:00
; #@! TF.GenerationSoftware,Kicad,Pcbnew,(6.0.0)
; #@! TF.FileFunction,Plated,1,2,PTH
FMAT,2
INCH
; #@! TA.AperFunction,Plated,PTH,ViaDrill
T1C0.0118
; #@! TA.AperFunction,Plated,PTH,ComponentDrill
T2C0.0217
; #@! TA.AperFunction,Plated,PTH,ComponentDrill
T3C0.0335
; #@! TA.AperFunction,Plated,PTH,ComponentDrill
T4C0.0354
; #@! TA.AperFunction,Plated,PTH,ComponentDrill
T5C0.0866
%
G90
G05
T1
X4.872Y-3.563
X4.872Y-4.3996
X4.9114Y-3.563
X4.9114Y-4.3996
X4.9508Y-3.563
X4.9508Y-4.3996
X4.9902Y-3.563
X4.9902Y-4.3996
X5.0295Y-3.563
X5.0295Y-4.3996
X5.0689Y-3.563
X5.0689Y-4.3996
X5.1083Y-3.563
X5.1083Y-4.3996
X5.128Y-3.7598
X5.1476Y-3.563
X5.1476Y-4.3996
X5.187Y-3.563
X5.187Y-4.3996
X5.2264Y-3.563
X5.2264Y-4.3996
X5.2657Y-3.563
X5.2657Y-4.3996
X5.3051Y-3.563
X5.3051Y-4.3996
X5.3445Y-3.563
X5.3445Y-4.3996
X5.3543Y-3.7303
X5.3839Y-3.563
X5.3839Y-4.3996
X5.4232Y-3.563
X5.4232Y-4.3996
X5.4626Y-3.563
X5.4626Y-4.3996
X5.502Y-3.563
X5.502Y-4.3996
X5.5394Y-3.6417
X5.5413Y-3.563
X5.5413Y-4.3996
X5.5748Y-4.2913
X5.5807Y-3.563
X5.6201Y-3.563
X5.6457Y-4.2913
X5.6457Y-4.3307
X5.6496Y-3.8878
X5.6594Y-3.563
X5.6988Y-3.563
X5.6988Y-4.3996
X5.7382Y-3.563
X5.7382Y-4.3996
X5.7776Y-3.563
X5.7776Y-4.3996
X5.8169Y-3.563
X5.8169Y-4.3996
X5.8346Y-3.8976
X5.8563Y-3.563
X5.8563Y-3.6614
X5.8563Y-4.3996
X5.8957Y-3.563
X5.8957Y-4.3996
X5.9154Y-4.0551
X5.935Y-3.563
X5.935Y-4.3996
X5.9606Y-3.9685
X5.9744Y-3.563
X5.9744Y-4.3307
X5.9744Y-4.3996
X6.0138Y-3.563
X6.0138Y-4.3996
X6.0236Y-3.8878
X6.0531Y-3.563
X6.0531Y-4.3996
X6.0925Y-3.563
X6.0925Y-4.3996
X6.1319Y-3.563
X6.1319Y-4.3996
X6.1516Y-4.2323
X6.1713Y-3.563
X6.1713Y-4.1831
X6.1713Y-4.3996
X6.2008Y-3.9567
X6.2106Y-3.563
X6.2106Y-4.3996
X6.25Y-3.563
X6.25Y-4.3996
X6.2894Y-3.563
X6.2894Y-4.3996
X6.2992Y-4.3228
X6.3091Y-3.8878
X6.3287Y-3.563
X6.3287Y-4.3996
X6.3307Y-4.2913
X6.3307Y-4.3228
X6.3681Y-3.563
X6.3681Y-4.3996
X6.4075Y-3.563
X6.4075Y-4.3996
X6.4469Y-3.563
X6.4469Y-4.3996
X6.4862Y-3.563
X6.4862Y-4.3996
X6.5256Y-3.563
X6.5256Y-4.3996
X6.565Y-3.563
X6.565Y-4.3996
X6.6043Y-3.563
X6.6043Y-4.3996
X6.6437Y-3.563
X6.6437Y-4.3996
X6.6831Y-3.563
X6.6831Y-4.3996
X6.6929Y-3.7303
X6.7224Y-3.563
X6.7224Y-4.3996
X6.7618Y-3.563
X6.7618Y-3.6024
X6.7618Y-3.6417
X6.7618Y-3.6811
X6.7618Y-3.7205
X6.7618Y-3.7598
X6.7618Y-3.878
X6.7618Y-3.9173
X6.7618Y-3.9567
X6.7618Y-3.9961
X6.7618Y-4.0354
X6.7618Y-4.0748
X6.7618Y-4.2028
X6.7618Y-4.2421
X6.7618Y-4.2815
X6.7618Y-4.3209
X6.7618Y-4.3602
X6.7618Y-4.3996
T4
X5.0709Y-3.8425
X5.0709Y-3.9252
X5.0709Y-4.0276
X5.0709Y-4.1102
X5.1693Y-3.8425
X5.1693Y-4.1102
T5
X4.9528Y-3.7106
X4.9528Y-4.2421
T2
G00X6.7274Y-3.8337
M15
G01X6.753Y-3.8337
M16
G05
G00X6.7274Y-4.1388
M15
G01X6.753Y-4.1388
M16
G05
T3
G00X6.5797Y-3.8396
M15
G01X6.6014Y-3.8396
M16
G05
G00X6.5797Y-4.1329
M15
G01X6.6014Y-4.1329
M16
G05
T0
M30
